  0
SECTION
  2
HEADER
  9
$ACADVER
  1
AC1014
  9
$ACADMAINTVER
 70
     9
  9
$DWGCODEPAGE
  3
ANSI_1252
  9
$INSBASE
 10
0.0
 20
0.0
 30
0.0
  9
$EXTMIN
 10
0.0
 20
0.0
 30
0.0
  9
$EXTMAX
 10
550.0
 20
400.0
 30
0.0
  9
$LIMMIN
 10
0.0
 20
0.0
  9
$LIMMAX
 10
550.0
 20
400.0
  9
$ORTHOMODE
 70
     0
  9
$REGENMODE
 70
     1
  9
$FILLMODE
 70
     1
  9
$QTEXTMODE
 70
     0
  9
$MIRRTEXT
 70
     1
  9
$DRAGMODE
 70
     2
  9
$LTSCALE
 40
1.0
  9
$OSMODE
 70
    37
  9
$ATTMODE
 70
     1
  9
$TEXTSIZE
 40
3.5
  9
$TRACEWID
 40
1.0
  9
$TEXTSTYLE
  7
STANDARD
  9
$CLAYER
  8
0
  9
$CELTYPE
  6
BYLAYER
  9
$CECOLOR
 62
   256
  9
$CELTSCALE
 40
1.0
  9
$DELOBJ
 70
     1
  9
$DISPSILH
 70
     0
  9
$DIMSCALE
 40
1.0
  9
$DIMASZ
 40
3.302
  9
$DIMEXO
 40
1.0
  9
$DIMDLI
 40
3.75
  9
$DIMRND
 40
0.0
  9
$DIMDLE
 40
0.0
  9
$DIMEXE
 40
1.0
  9
$DIMTP
 40
0.0
  9
$DIMTM
 40
0.0
  9
$DIMTXT
 40
3.5
  9
$DIMCEN
 40
2.5
  9
$DIMTSZ
 40
0.0
  9
$DIMTOL
 70
     0
  9
$DIMLIM
 70
     0
  9
$DIMTIH
 70
     1
  9
$DIMTOH
 70
     1
  9
$DIMSE1
 70
     0
  9
$DIMSE2
 70
     0
  9
$DIMTAD
 70
     1
  9
$DIMZIN
 70
     0
  9
$DIMBLK
  1

  9
$DIMASO
 70
     1
  9
$DIMSHO
 70
     1
  9
$DIMPOST
  1

  9
$DIMAPOST
  1

  9
$DIMALT
 70
     0
  9
$DIMALTD
 70
     3
  9
$DIMALTF
 40
0.0393700787
  9
$DIMLFAC
 40
1.0
  9
$DIMTOFL
 70
     1
  9
$DIMTVP
 40
0.0
  9
$DIMTIX
 70
     0
  9
$DIMSOXD
 70
     0
  9
$DIMSAH
 70
     0
  9
$DIMBLK1
  1

  9
$DIMBLK2
  1

  9
$DIMSTYLE
  2
ISO-25
  9
$DIMCLRD
 70
     0
  9
$DIMCLRE
 70
     0
  9
$DIMCLRT
 70
     0
  9
$DIMTFAC
 40
1.0
  9
$DIMGAP
 40
1.524
  9
$DIMJUST
 70
     0
  9
$DIMSD1
 70
     0
  9
$DIMSD2
 70
     0
  9
$DIMTOLJ
 70
     0
  9
$DIMTZIN
 70
     0
  9
$DIMALTZ
 70
     0
  9
$DIMALTTZ
 70
     0
  9
$DIMFIT
 70
     3
  9
$DIMUPT
 70
     0
  9
$DIMUNIT
 70
     2
  9
$DIMDEC
 70
     2
  9
$DIMTDEC
 70
     2
  9
$DIMALTU
 70
     2
  9
$DIMALTTD
 70
     3
  9
$DIMTXSTY
  7
STANDARD
  9
$DIMAUNIT
 70
     0
  9
$LUNITS
 70
     2
  9
$LUPREC
 70
     2
  9
$SKETCHINC
 40
1.0
  9
$FILLETRAD
 40
10.0
  9
$AUNITS
 70
     0
  9
$AUPREC
 70
     0
  9
$MENU
  1
.
  9
$ELEVATION
 40
0.0
  9
$PELEVATION
 40
0.0
  9
$THICKNESS
 40
0.0
  9
$LIMCHECK
 70
     0
  9
$CHAMFERA
 40
0.0
  9
$CHAMFERB
 40
0.0
  9
$CHAMFERC
 40
0.0
  9
$CHAMFERD
 40
0.0
  9
$SKPOLY
 70
     0
  9
$TDCREATE
 40
2457304.708871516
  9
$TDUPDATE
 40
2457304.708872963
  9
$TDINDWG
 40
0.0000000116
  9
$TDUSRTIMER
 40
0.0000000116
  9
$USRTIMER
 70
     1
  9
$ANGBASE
 50
0.0
  9
$ANGDIR
 70
     0
  9
$PDMODE
 70
     0
  9
$PDSIZE
 40
-1.0
  9
$PLINEWID
 40
0.0
  9
$COORDS
 70
     1
  9
$SPLFRAME
 70
     0
  9
$SPLINETYPE
 70
     6
  9
$SPLINESEGS
 70
     8
  9
$ATTDIA
 70
     0
  9
$ATTREQ
 70
     1
  9
$HANDLING
 70
     1
  9
$HANDSEED
  5
36B
  9
$SURFTAB1
 70
     6
  9
$SURFTAB2
 70
     6
  9
$SURFTYPE
 70
     6
  9
$SURFU
 70
     6
  9
$SURFV
 70
     6
  9
$UCSNAME
  2

  9
$UCSORG
 10
0.0
 20
0.0
 30
0.0
  9
$UCSXDIR
 10
1.0
 20
0.0
 30
0.0
  9
$UCSYDIR
 10
0.0
 20
1.0
 30
0.0
  9
$PUCSNAME
  2

  9
$PUCSORG
 10
0.0
 20
0.0
 30
0.0
  9
$PUCSXDIR
 10
1.0
 20
0.0
 30
0.0
  9
$PUCSYDIR
 10
0.0
 20
1.0
 30
0.0
  9
$USERI1
 70
     0
  9
$USERI2
 70
     0
  9
$USERI3
 70
     0
  9
$USERI4
 70
     0
  9
$USERI5
 70
     0
  9
$USERR1
 40
0.0
  9
$USERR2
 40
0.0
  9
$USERR3
 40
0.0
  9
$USERR4
 40
0.0
  9
$USERR5
 40
0.0
  9
$WORLDVIEW
 70
     1
  9
$SHADEDGE
 70
     3
  9
$SHADEDIF
 70
    70
  9
$TILEMODE
 70
     1
  9
$MAXACTVP
 70
    64
  9
$PINSBASE
 10
0.0
 20
0.0
 30
0.0
  9
$PLIMCHECK
 70
     0
  9
$PEXTMIN
 10
1.0000000000E+20
 20
1.0000000000E+20
 30
1.0000000000E+20
  9
$PEXTMAX
 10
-1.0000000000E+20
 20
-1.0000000000E+20
 30
-1.0000000000E+20
  9
$PLIMMIN
 10
0.0
 20
0.0
  9
$PLIMMAX
 10
420.0
 20
297.0
  9
$UNITMODE
 70
     0
  9
$VISRETAIN
 70
     1
  9
$PLINEGEN
 70
     0
  9
$PSLTSCALE
 70
     1
  9
$TREEDEPTH
 70
  3020
  9
$PICKSTYLE
 70
     1
  9
$CMLSTYLE
  2
STANDARD
  9
$CMLJUST
 70
     0
  9
$CMLSCALE
 40
20.0
  9
$PROXYGRAPHICS
 70
     1
  9
$MEASUREMENT
 70
     1
  0
ENDSEC
  0
SECTION
  2
CLASSES
  0
CLASS
  1
ACDBDICTIONARYWDFLT
  2
AcDbDictionaryWithDefault
  3
ObjectDBX Classes
 90
        0
280
     0
281
     0
  0
CLASS
  1
VISUALSTYLE
  2
AcDbVisualStyle
  3
ObjectDBX Classes
 90
     4095
280
     0
281
     0
  0
CLASS
  1
MATERIAL
  2
AcDbMaterial
  3
ObjectDBX Classes
 90
     1153
280
     0
281
     0
  0
CLASS
  1
SCALE
  2
AcDbScale
  3
ObjectDBX Classes
 90
     1153
280
     0
281
     0
  0
CLASS
  1
TABLESTYLE
  2
AcDbTableStyle
  3
ObjectDBX Classes
 90
     4095
280
     0
281
     0
  0
CLASS
  1
MLEADERSTYLE
  2
AcDbMLeaderStyle
  3
ACDB_MLEADERSTYLE_CLASS
 90
     4095
280
     0
281
     0
  0
CLASS
  1
SUN
  2
AcDbSun
  3
SCENEOE
 90
     1153
280
     0
281
     0
  0
CLASS
  1
XRECORD
  2
AcDbXrecord
  3
ObjectDBX Classes
 90
        0
280
     0
281
     0
  0
CLASS
  1
LWPOLYLINE
  2
AcDbPolyline
  3
ObjectDBX Classes
 90
        0
280
     0
281
     1
  0
CLASS
  1
HATCH
  2
AcDbHatch
  3
ObjectDBX Classes
 90
        0
280
     0
281
     1
  0
ENDSEC
  0
SECTION
  2
TABLES
  0
TABLE
  2
VPORT
  5
8
330
0
100
AcDbSymbolTable
 70
     1
  0
VPORT
  5
29
330
8
100
AcDbSymbolTableRecord
100
AcDbViewportTableRecord
  2
*ACTIVE
 70
     0
 10
0.0
 20
0.0
 11
1.0
 21
1.0
 12
275.0
 22
200.0
 13
0.0
 23
0.0
 14
10.0
 24
10.0
 15
10.0
 25
10.0
 16
0.0
 26
0.0
 36
1.0
 17
0.0
 27
0.0
 37
0.0
 40
400.0
 41
1.375
 42
50.0
 43
0.0
 44
0.0
 50
0.0
 51
0.0
 71
     0
 72
  2000
 73
     1
 74
     3
 75
     0
 76
     0
 77
     0
 78
     0
  0
ENDTAB
  0
TABLE
  2
LTYPE
  5
5
330
0
100
AcDbSymbolTable
 70
     6
  0
LTYPE
  5
14
330
5
100
AcDbSymbolTableRecord
100
AcDbLinetypeTableRecord
  2
BYBLOCK
 70
     0
  3

 72
    65
 73
     0
 40
0.0
  0
LTYPE
  5
15
330
5
100
AcDbSymbolTableRecord
100
AcDbLinetypeTableRecord
  2
BYLAYER
 70
     0
  3

 72
    65
 73
     0
 40
0.0
  0
LTYPE
  5
16
330
5
100
AcDbSymbolTableRecord
100
AcDbLinetypeTableRecord
  2
CONTINUOUS
 70
     0
  3
Solid line
 72
    65
 73
     0
 40
0.0
  0
LTYPE
  5
6E
330
5
100
AcDbSymbolTableRecord
100
AcDbLinetypeTableRecord
  2
HIDDEN
 70
     0
  3
Hidden __ __ __ __ __ __ __ __ __ __ __ __ __ __
 72
    65
 73
     2
 40
1.905
 49
1.27
 74
     0
 49
-0.635
 74
     0
  0
LTYPE
  5
6F
330
5
100
AcDbSymbolTableRecord
100
AcDbLinetypeTableRecord
  2
PHANTOM
 70
     0
  3
Phantom ______  __  __  ______  __  __  ______
 72
    65
 73
     6
 40
12.7
 49
6.35
 74
     0
 49
-1.27
 74
     0
 49
1.27
 74
     0
 49
-1.27
 74
     0
 49
1.27
 74
     0
 49
-1.27
 74
     0
  0
LTYPE
  5
70
330
5
100
AcDbSymbolTableRecord
100
AcDbLinetypeTableRecord
  2
CENTER
 70
     0
  3
Center ____ _ ____ _ ____ _ ____ _ ____ _ ____
 72
    65
 73
     4
 40
10.16
 49
6.35
 74
     0
 49
-1.27
 74
     0
 49
1.27
 74
     0
 49
-1.27
 74
     0
  0
LTYPE
  5
71
330
5
100
AcDbSymbolTableRecord
100
AcDbLinetypeTableRecord
  2
CENTERX2
 70
     0
  3
Center (2x) ________  __  ________  __  _____
 72
    65
 73
     4
 40
20.32
 49
12.7
 74
     0
 49
-2.54
 74
     0
 49
2.54
 74
     0
 49
-2.54
 74
     0
  0
LTYPE
  5
72
330
5
100
AcDbSymbolTableRecord
100
AcDbLinetypeTableRecord
  2
DOT2
 70
     0
  3
Dot (.5x) ........................................
 72
    65
 73
     2
 40
0.635
 49
0.0
 74
     0
 49
-0.635
 74
     0
  0
ENDTAB
  0
TABLE
  2
LAYER
  5
2
330
0
100
AcDbSymbolTable
 70
     7
  0
LAYER
  5
10
330
2
100
AcDbSymbolTableRecord
100
AcDbLayerTableRecord
  2
0
 70
     0
 62
     7
  6
CONTINUOUS
  0
LAYER
  5
73
330
2
100
AcDbSymbolTableRecord
100
AcDbLayerTableRecord
  2
FORMAT
 70
     0
 62
     7
  6
CONTINUOUS
  0
LAYER
  5
74
330
2
100
AcDbSymbolTableRecord
100
AcDbLayerTableRecord
  2
SLD-0
 70
     0
 62
     7
  6
CONTINUOUS
  0
LAYER
  5
75
330
2
100
AcDbSymbolTableRecord
100
AcDbLayerTableRecord
  2
LAYER_1
 70
     0
 62
   179
  6
CONTINUOUS
  0
LAYER
  5
76
330
2
100
AcDbSymbolTableRecord
100
AcDbLayerTableRecord
  2
RED_ITEMS
 70
     0
 62
     1
  6
CONTINUOUS
  0
LAYER
  5
77
330
2
100
AcDbSymbolTableRecord
100
AcDbLayerTableRecord
  2
BLUE_ITEMS
 70
     0
 62
     5
  6
CONTINUOUS
  0
LAYER
  5
78
330
2
100
AcDbSymbolTableRecord
100
AcDbLayerTableRecord
  2
DIMENSIONS
 70
     0
 62
   179
  6
CONTINUOUS
  0
ENDTAB
  0
TABLE
  2
STYLE
  5
3
330
0
100
AcDbSymbolTable
 70
     2
  0
STYLE
  5
11
330
3
100
AcDbSymbolTableRecord
100
AcDbTextStyleTableRecord
  2
STANDARD
 70
     0
 40
0.0
 41
1.0
 50
0.0
 71
     0
 42
3.5
  3
txt
  4

  0
STYLE
  5
7C
330
3
100
AcDbSymbolTableRecord
100
AcDbTextStyleTableRecord
  2
SLDTEXTSTYLE0
 70
     0
 40
0.0
 41
0.75
 50
0.0
 71
     0
 42
3.5
  3
TXT
  4

  0
ENDTAB
  0
TABLE
  2
VIEW
  5
6
330
0
100
AcDbSymbolTable
 70
     0
  0
ENDTAB
  0
TABLE
  2
UCS
  5
7
330
0
100
AcDbSymbolTable
 70
     0
  0
ENDTAB
  0
TABLE
  2
APPID
  5
9
330
0
100
AcDbSymbolTable
 70
     1
  0
APPID
  5
12
330
9
100
AcDbSymbolTableRecord
100
AcDbRegAppTableRecord
  2
ACAD
 70
     0
  0
ENDTAB
  0
TABLE
  2
DIMSTYLE
  5
A
330
0
100
AcDbSymbolTable
 70
     1
  0
DIMSTYLE
105
27
330
A
100
AcDbSymbolTableRecord
100
AcDbDimStyleTableRecord
  2
ISO-25
 70
     0
  3

  4

  5

  6

  7

 40
1.0
 41
2.5
 42
0.625
 43
3.75
 44
1.25
 45
0.0
 46
0.0
 47
0.0
 48
0.0
140
2.5
141
2.5
142
0.0
143
0.0393700787
144
1.0
145
0.0
146
1.0
147
0.625
 71
     0
 72
     0
 73
     0
 74
     0
 75
     0
 76
     0
 77
     1
 78
     8
170
     0
171
     3
172
     1
173
     0
174
     0
175
     0
176
     0
177
     0
178
     0
270
     2
271
     2
272
     2
273
     2
274
     3
340
11
275
     0
280
     0
281
     0
282
     0
283
     0
284
     8
285
     0
286
     0
287
     3
288
     0
  0
ENDTAB
  0
TABLE
  2
BLOCK_RECORD
  5
1
330
0
100
AcDbSymbolTable
 70
     2
  0
BLOCK_RECORD
  5
1F
330
1
100
AcDbSymbolTableRecord
100
AcDbBlockTableRecord
  2
*MODEL_SPACE
  0
BLOCK_RECORD
  5
1B
330
1
100
AcDbSymbolTableRecord
100
AcDbBlockTableRecord
  2
*PAPER_SPACE
  0
BLOCK_RECORD
  5
23
330
1
100
AcDbSymbolTableRecord
100
AcDbBlockTableRecord
  2
*PAPER_SPACE0
  0
BLOCK_RECORD
  5
79
330
1
100
AcDbSymbolTableRecord
100
AcDbBlockTableRecord
  2
SW_NOTE_0
  0
ENDTAB
  0
ENDSEC
  0
SECTION
  2
BLOCKS
  0
BLOCK
  5
20
330
1F
100
AcDbEntity
  8
0
100
AcDbBlockBegin
  2
*MODEL_SPACE
 70
     0
 10
0.0
 20
0.0
 30
0.0
  3
*MODEL_SPACE
  1

  0
ENDBLK
  5
21
330
1F
100
AcDbEntity
  8
0
100
AcDbBlockEnd
  0
BLOCK
  5
1C
330
1B
100
AcDbEntity
 67
     1
  8
0
100
AcDbBlockBegin
  2
*PAPER_SPACE
 70
     0
 10
0.0
 20
0.0
 30
0.0
  3
*PAPER_SPACE
  1

  0
ENDBLK
  5
1D
330
1B
100
AcDbEntity
 67
     1
  8
0
100
AcDbBlockEnd
  0
BLOCK
  5
24
330
23
100
AcDbEntity
  8
0
100
AcDbBlockBegin
  2
*PAPER_SPACE0
 70
     0
 10
0.0
 20
0.0
 30
0.0
  3
*PAPER_SPACE0
  1

  0
ENDBLK
  5
25
330
23
100
AcDbEntity
  8
0
100
AcDbBlockEnd
  0
BLOCK
  5
7A
330
79
100
AcDbEntity
  8
0
100
AcDbBlockBegin
  2
SW_NOTE_0
 70
     0
 10
0.0
 20
0.0
 30
0.0
  3
SW_NOTE_0
  1

  0
MTEXT
  5
7D
330
79
100
AcDbEntity
  8
DIMENSIONS
 62
     0
100
AcDbMText
 10
0.0
 20
8.1855801476
 30
0.0
 40
6.35
 41
0.0
 71
     1
 72
     1
  1
#1195-02
  7
SLDTEXTSTYLE0
  0
MTEXT
  5
7E
330
79
100
AcDbEntity
  8
DIMENSIONS
 62
     0
100
AcDbMText
 10
0.0
 20
-1.2810865807
 30
0.0
 40
6.35
 41
0.0
 71
     1
 72
     1
  1
3mm Acrylic
  7
SLDTEXTSTYLE0
  0
MTEXT
  5
7F
330
79
100
AcDbEntity
  8
DIMENSIONS
 62
     0
100
AcDbMText
 10
0.0
 20
-10.747753309
 30
0.0
 40
6.35
 41
0.0
 71
     1
 72
     1
  1
x1 per Fisher
  7
SLDTEXTSTYLE0
  0
ENDBLK
  5
7B
330
79
100
AcDbEntity
  8
0
100
AcDbBlockEnd
  0
ENDSEC
  0
SECTION
  2
ENTITIES
  0
INSERT
  5
80
330
1F
100
AcDbEntity
  8
DIMENSIONS
100
AcDbBlockReference
  2
SW_NOTE_0
 10
22.9220425289
 20
378.2014876041
 30
0.0
  0
CIRCLE
  5
81
330
1F
100
AcDbEntity
  8
0
  6
CONTINUOUS
 62
     7
100
AcDbCircle
 10
111.0076867737
 20
12.4041587038
 30
0.0
 40
1.500000000000002
  0
CIRCLE
  5
82
330
1F
100
AcDbEntity
  8
0
  6
CONTINUOUS
 62
     7
100
AcDbCircle
 10
111.0076867737
 20
190.4441587038
 30
0.0
 40
1.500000000000028
  0
ARC
  5
83
330
1F
100
AcDbEntity
  8
0
  6
CONTINUOUS
 62
     7
100
AcDbCircle
 10
530.8543351001
 20
191.7441587038
 30
0.0
 40
2.85
100
AcDbArc
 50
211.7568638593
 51
148.2431361407
  0
LINE
  5
84
330
1F
100
AcDbEntity
  8
0
  6
CONTINUOUS
 62
     7
100
AcDbLine
 10
528.4310115695
 20
193.2441526882
 30
0.0
 11
526.0076953292
 21
193.2441526882
 31
0.0
  0
ARC
  5
85
330
1F
100
AcDbEntity
  8
0
  6
CONTINUOUS
 62
     7
100
AcDbCircle
 10
526.0076867737
 20
191.7441587038
 30
0.0
 40
1.5
100
AcDbArc
 50
90.0
 51
270.0
  0
LINE
  5
86
330
1F
100
AcDbEntity
  8
0
  6
CONTINUOUS
 62
     7
100
AcDbLine
 10
526.0076953292
 20
190.2441615097
 30
0.0
 11
528.4310115695
 21
190.2441615097
 31
0.0
  0
ARC
  5
87
330
1F
100
AcDbEntity
  8
0
  6
CONTINUOUS
 62
     7
100
AcDbCircle
 10
530.8543351001
 20
11.1041587038
 30
0.0
 40
2.849999999999986
100
AcDbArc
 50
211.7568638593
 51
148.2431361407
  0
LINE
  5
88
330
1F
100
AcDbEntity
  8
0
  6
CONTINUOUS
 62
     7
100
AcDbLine
 10
528.4310115695
 20
12.6041583575
 30
0.0
 11
526.0076953292
 21
12.6041583575
 31
0.0
  0
ARC
  5
89
330
1F
100
AcDbEntity
  8
0
  6
CONTINUOUS
 62
     7
100
AcDbCircle
 10
526.0076867737
 20
11.1041587038
 30
0.0
 40
1.500000000000002
100
AcDbArc
 50
90.0
 51
270.0
  0
LINE
  5
8A
330
1F
100
AcDbEntity
  8
0
  6
CONTINUOUS
 62
     7
100
AcDbLine
 10
526.0076953292
 20
9.604158797
 30
0.0
 11
528.4310115695
 21
9.604158797
 31
0.0
  0
CIRCLE
  5
8B
330
1F
100
AcDbEntity
  8
0
  6
CONTINUOUS
 62
     7
100
AcDbCircle
 10
142.0076867737
 20
190.4441587038
 30
0.0
 40
1.5
  0
CIRCLE
  5
8C
330
1F
100
AcDbEntity
  8
0
  6
CONTINUOUS
 62
     7
100
AcDbCircle
 10
142.0076867737
 20
12.4041587038
 30
0.0
 40
1.5
  0
ARC
  5
8D
330
1F
100
AcDbEntity
  8
0
  6
CONTINUOUS
 62
     7
100
AcDbCircle
 10
103.5076867737
 20
29.3325858286
 30
0.0
 40
2.000000000000014
100
AcDbArc
 50
315.0
 51
0.0
  0
LINE
  5
8E
330
1F
100
AcDbEntity
  8
0
  6
CONTINUOUS
 62
     7
100
AcDbLine
 10
105.5076869398
 20
173.5157305232
 30
0.0
 11
105.5076869398
 21
29.3325865499
 31
0.0
  0
ARC
  5
8F
330
1F
100
AcDbEntity
  8
0
  6
CONTINUOUS
 62
     7
100
AcDbCircle
 10
103.5076867737
 20
173.5157315791
 30
0.0
 40
2.000000000000026
100
AcDbArc
 50
0.0
 51
45.0
  0
ARC
  5
90
330
1F
100
AcDbEntity
  8
0
  6
CONTINUOUS
 62
     7
100
AcDbCircle
 10
104.5076867737
 20
178.1725858286
 30
0.0
 40
2.0
100
AcDbArc
 50
180.0
 51
225.0
  0
LINE
  5
91
330
1F
100
AcDbEntity
  8
0
  6
CONTINUOUS
 62
     7
100
AcDbLine
 10
102.5076864481
 20
195.3441584341
 30
0.0
 11
102.5076864481
 21
178.1725818149
 31
0.0
  0
ARC
  5
92
330
1F
100
AcDbEntity
  8
0
  6
CONTINUOUS
 62
     7
100
AcDbCircle
 10
104.5076867737
 20
195.3441587038
 30
0.0
 40
2.0
100
AcDbArc
 50
90.0
 51
180.0
  0
LINE
  5
93
330
1F
100
AcDbEntity
  8
0
  6
CONTINUOUS
 62
     7
100
AcDbLine
 10
152.5076871931
 20
197.3441624872
 30
0.0
 11
104.5076867759
 21
197.3441624872
 31
0.0
  0
ARC
  5
94
330
1F
100
AcDbEntity
  8
0
  6
CONTINUOUS
 62
     7
100
AcDbCircle
 10
164.3398463399
 20
199.3441587038
 30
0.0
 40
12.00000000000003
100
AcDbArc
 50
189.5940682269
 51
270.0
  0
LINE
  5
95
330
1F
100
AcDbEntity
  8
0
  6
CONTINUOUS
 62
     7
100
AcDbLine
 10
164.3398462057
 20
187.3441571228
 30
0.0
 11
508.6755288958
 21
187.3441571228
 31
0.0
  0
ARC
  5
96
330
1F
100
AcDbEntity
  8
0
  6
CONTINUOUS
 62
     7
100
AcDbCircle
 10
508.6755272075
 20
199.3441587038
 30
0.0
 40
12.00000000000003
100
AcDbArc
 50
270.0
 51
350.4059317731
  0
LINE
  5
97
330
1F
100
AcDbEntity
  8
0
  6
CONTINUOUS
 62
     7
100
AcDbLine
 10
536.5076793551
 20
103.0824715129
 30
0.0
 11
536.5076793551
 21
197.3441624872
 31
0.0
  0
ARC
  5
98
330
1F
100
AcDbEntity
  8
0
  6
CONTINUOUS
 62
     7
100
AcDbCircle
 10
534.0076867737
 20
101.4241587038
 30
0.0
 40
2.999999999999931
100
AcDbArc
 50
326.4426902381
 51
33.5573097619
  0
LINE
  5
99
330
1F
100
AcDbEntity
  8
0
  6
CONTINUOUS
 62
     7
100
AcDbLine
 10
520.5076767325
 20
5.5041587769
 30
0.0
 11
536.5076793551
 21
5.5041587769
 31
0.0
  0
ARC
  5
9A
330
1F
100
AcDbEntity
  8
0
  6
CONTINUOUS
 62
     7
100
AcDbCircle
 10
508.6755272075
 20
3.5041587038
 30
0.0
 40
12.00000000000001
100
AcDbArc
 50
9.5940682269
 51
90.0
  0
LINE
  5
9B
330
1F
100
AcDbEntity
  8
0
  6
CONTINUOUS
 62
     7
100
AcDbLine
 10
508.6755288958
 20
15.5041590191
 30
0.0
 11
164.3398462057
 21
15.5041590191
 31
0.0
  0
ARC
  5
9C
330
1F
100
AcDbEntity
  8
0
  6
CONTINUOUS
 62
     7
100
AcDbCircle
 10
164.3398463399
 20
3.5041587038
 30
0.0
 40
12.00000000000001
100
AcDbArc
 50
90.0
 51
170.4059317731
  0
LINE
  5
9D
330
1F
100
AcDbEntity
  8
0
  6
CONTINUOUS
 62
     7
100
AcDbLine
 10
104.5076867759
 20
5.5041587769
 30
0.0
 11
152.5076871931
 21
5.5041587769
 31
0.0
  0
ARC
  5
9E
330
1F
100
AcDbEntity
  8
0
  6
CONTINUOUS
 62
     7
100
AcDbCircle
 10
104.5076867737
 20
7.5041587038
 30
0.0
 40
2.000000000000002
100
AcDbArc
 50
180.0
 51
270.0
  0
LINE
  5
9F
330
1F
100
AcDbEntity
  8
0
  6
CONTINUOUS
 62
     7
100
AcDbLine
 10
102.5076864481
 20
24.675731533
 30
0.0
 11
102.5076864481
 21
7.5041586391
 31
0.0
  0
ARC
  5
A0
330
1F
100
AcDbEntity
  8
0
  6
CONTINUOUS
 62
     7
100
AcDbCircle
 10
104.5076867737
 20
24.6757315791
 30
0.0
 40
2.0
100
AcDbArc
 50
135.0
 51
180.0
  0
LINE
  5
A1
330
1F
100
AcDbEntity
  8
0
  6
CONTINUOUS
 62
     7
100
AcDbLine
 10
104.9218999416
 20
27.9183713577
 30
0.0
 11
103.0934734464
 21
26.0899448625
 31
0.0
  0
CIRCLE
  5
A2
330
1F
100
AcDbEntity
  8
0
  6
CONTINUOUS
 62
     7
100
AcDbCircle
 10
150.0076867737
 20
101.4241587038
 30
0.0
 40
1.5
  0
CIRCLE
  5
A3
330
1F
100
AcDbEntity
  8
0
  6
CONTINUOUS
 62
     7
100
AcDbCircle
 10
534.0076867737
 20
101.4241587038
 30
0.0
 40
1.5
  0
ARC
  5
A4
330
1F
100
AcDbEntity
  8
0
  6
CONTINUOUS
 62
     7
100
AcDbCircle
 10
352.0076867737
 20
41.5041587038
 30
0.0
 40
10.00000000000001
100
AcDbArc
 50
270.0
 51
0.0
  0
LINE
  5
A5
330
1F
100
AcDbEntity
  8
0
  6
CONTINUOUS
 62
     7
100
AcDbLine
 10
362.0076907992
 20
41.5041604868
 30
0.0
 11
362.0076907992
 21
161.3441640369
 31
0.0
  0
ARC
  5
A6
330
1F
100
AcDbEntity
  8
0
  6
CONTINUOUS
 62
     7
100
AcDbCircle
 10
352.0076867737
 20
161.3441587038
 30
0.0
 40
10.0
100
AcDbArc
 50
0.0
 51
90.0
  0
LINE
  5
A7
330
1F
100
AcDbEntity
  8
0
  6
CONTINUOUS
 62
     7
100
AcDbLine
 10
352.007700336
 20
171.3441545001
 30
0.0
 11
172.0076857328
 21
171.3441545001
 31
0.0
  0
ARC
  5
A8
330
1F
100
AcDbEntity
  8
0
  6
CONTINUOUS
 62
     7
100
AcDbCircle
 10
172.0076867737
 20
161.3441587038
 30
0.0
 40
10.0
100
AcDbArc
 50
90.0
 51
180.0
  0
LINE
  5
A9
330
1F
100
AcDbEntity
  8
0
  6
CONTINUOUS
 62
     7
100
AcDbLine
 10
162.007687819
 20
161.3441640369
 30
0.0
 11
162.007687819
 21
41.5041604868
 31
0.0
  0
ARC
  5
AA
330
1F
100
AcDbEntity
  8
0
  6
CONTINUOUS
 62
     7
100
AcDbCircle
 10
172.0076867737
 20
41.5041587038
 30
0.0
 40
10.00000000000003
100
AcDbArc
 50
180.0
 51
270.0
  0
LINE
  5
AB
330
1F
100
AcDbEntity
  8
0
  6
CONTINUOUS
 62
     7
100
AcDbLine
 10
172.0076857328
 20
31.5041588477
 30
0.0
 11
352.007700336
 21
31.5041588477
 31
0.0
  0
ARC
  5
AC
330
1F
100
AcDbEntity
  8
0
  6
CONTINUOUS
 62
     7
100
AcDbCircle
 10
136.899977362
 20
100.963060362
 30
0.0
 40
0.6670074624058668
100
AcDbArc
 50
1.480203349
 51
43.7326179022
  0
LINE
  5
AD
330
1F
100
AcDbEntity
  8
0
  6
CONTINUOUS
 62
     7
100
AcDbLine
 10
137.3819394231
 20
101.4241585366
 30
0.0
 11
132.5287765086
 21
106.2776082984
 31
0.0
  0
LWPOLYLINE
  5
AE
330
1F
100
AcDbEntity
  8
0
  6
CONTINUOUS
 62
     7
100
AcDbPolyline
 90
       43
 70
   128
 43
0.0
 10
132.5287765086
 20
106.2776082984
 10
131.9454146743
 20
106.7965188853
 10
131.3420107782
 20
107.2923475734
 10
130.7125484764
 20
107.7575990788
 10
130.0511455357
 20
108.178281211
 10
129.3544752717
 20
108.5332119695
 10
128.6202391803
 20
108.8017606966
 10
127.8556531489
 20
108.9756572477
 10
127.0739643097
 20
109.0545365445
 10
126.2878721774
 20
109.0389201275
 10
125.5066899776
 20
108.9332634441
 10
124.7386357009
 20
108.7432810894
 10
123.9919385135
 20
108.4747025601
 10
123.1356656372
 20
108.0566951863
 10
122.3357172876
 20
107.5434991948
 10
121.6019934237
 20
106.9438615672
 10
120.9425555736
 20
106.2660598985
 10
120.3654596776
 20
105.5183717839
 10
119.8787225604
 20
104.7091195218
 10
119.4892229706
 20
103.8481676809
 10
119.2023923814
 20
102.9473552338
 10
119.0235672712
 20
102.018647813
 10
118.9580058873
 20
101.0740334026
 10
119.0073063791
 20
100.1262375943
 10
119.1679129571
 20
99.1890886656
 10
119.4358842641
 20
98.2764670483
 10
119.8072752178
 20
97.4022680751
 10
120.2780829936
 20
96.5803051225
 10
120.8422856599
 20
95.8216944567
 10
121.4914007306
 20
95.1342666379
 10
122.2167948454
 20
94.5256510607
 10
123.0098365068
 20
94.0034771196
 10
123.8606760472
 20
93.5755753747
 10
124.755537343
 20
93.2504096858
 10
125.6798563719
 20
93.0365556709
 10
126.619065386
 20
92.9426038496
 10
127.5586357534
 20
92.9765114418
 10
128.4845790088
 20
93.1363114945
 10
129.3833574474
 20
93.4121096364
 10
130.2422864556
 20
93.7937134735
 10
131.0499629199
 20
94.2707741491
 10
131.8040138304
 20
94.8261925808
 10
132.5287765086
 20
95.4226711623
  0
LINE
  5
AF
330
1F
100
AcDbEntity
  8
0
  6
CONTINUOUS
 62
     7
100
AcDbLine
 10
132.5287765086
 20
95.4226711623
 30
0.0
 11
137.3819394231
 21
100.5725199214
 31
0.0
  0
ARC
  5
B0
330
1F
100
AcDbEntity
  8
0
  6
CONTINUOUS
 62
     7
100
AcDbCircle
 10
136.960288675
 20
101.0094049319
 30
0.0
 40
0.6071720231825583
100
AcDbArc
 50
313.9834234204
 51
357.2515345329
  0
LINE
  5
B1
330
1F
100
AcDbEntity
  8
0
  6
CONTINUOUS
 62
     7
100
AcDbLine
 10
139.3486766338
 20
108.6864108077
 30
0.0
 11
139.3486766338
 21
93.6076575748
 31
0.0
  0
ARC
  5
B2
330
1F
100
AcDbEntity
  8
0
  6
CONTINUOUS
 62
     7
100
AcDbCircle
 10
139.6625935722
 20
93.5867825167
 30
0.0
 40
0.3146102544939244
100
AcDbArc
 50
176.1955083204
 51
229.5963829368
  0
LINE
  5
B3
330
1F
100
AcDbEntity
  8
0
  6
CONTINUOUS
 62
     7
100
AcDbLine
 10
139.4586732805
 20
93.3472076289
 30
0.0
 11
142.3857419014
 21
90.4202470414
 31
0.0
  0
LWPOLYLINE
  5
B4
330
1F
100
AcDbEntity
  8
0
  6
CONTINUOUS
 62
     7
100
AcDbPolyline
 90
        9
 70
   128
 43
0.0
 10
142.3857419014
 20
90.4202470414
 10
142.5354650438
 20
90.3340438239
 10
142.7085643828
 20
90.3231957785
 10
142.831297797
 20
90.3654480211
 10
142.9327560782
 20
90.4468754164
 10
142.9989097834
 20
90.5582392446
 10
143.0357044756
 20
90.68317058
 10
143.0817378878
 20
90.9391129247
 10
143.0899223506
 20
91.1988625161
  0
LINE
  5
B5
330
1F
100
AcDbEntity
  8
0
  6
CONTINUOUS
 62
     7
100
AcDbLine
 10
143.0899223506
 20
91.1988625161
 30
0.0
 11
143.0899223506
 21
108.6864108077
 31
0.0
  0
ARC
  5
B6
330
1F
100
AcDbEntity
  8
0
  6
CONTINUOUS
 62
     7
100
AcDbCircle
 10
135.7615852123
 20
108.5070561346
 30
0.0
 40
7.330531584488373
100
AcDbArc
 50
1.4019844582
 51
88.6023445589
  0
LINE
  5
B7
330
1F
100
AcDbEntity
  8
0
  6
CONTINUOUS
 62
     7
100
AcDbLine
 10
135.940386188
 20
115.8354068033
 30
0.0
 11
118.4532253265
 21
115.8339986435
 31
0.0
  0
LWPOLYLINE
  5
B8
330
1F
100
AcDbEntity
  8
0
  6
CONTINUOUS
 62
     7
100
AcDbPolyline
 90
        9
 70
   128
 43
0.0
 10
118.4532253265
 20
115.8339986435
 10
118.1933248609
 20
115.8259520165
 10
117.9369298935
 20
115.7810399167
 10
117.812087965
 20
115.7439732782
 10
117.7012382269
 20
115.6766721837
 10
117.6197530895
 20
115.5751654736
 10
117.5775399625
 20
115.4523426525
 10
117.589095813
 20
115.2791762582
 10
117.6761614352
 20
115.1298219196
  0
LINE
  5
B9
330
1F
100
AcDbEntity
  8
0
  6
CONTINUOUS
 62
     7
100
AcDbLine
 10
117.6761614352
 20
115.1298219196
 30
0.0
 11
120.6030884951
 21
112.2042396895
 31
0.0
  0
ARC
  5
BA
330
1F
100
AcDbEntity
  8
0
  6
CONTINUOUS
 62
     7
100
AcDbCircle
 10
120.8309232206
 20
112.3769686458
 30
0.0
 40
0.2859089968706681
100
AcDbArc
 50
217.166955868
 51
276.245685083
  0
LINE
  5
BB
330
1F
100
AcDbEntity
  8
0
  6
CONTINUOUS
 62
     7
100
AcDbLine
 10
120.8620278358
 20
112.092756652
 30
0.0
 11
135.940386188
 21
112.0941722623
 31
0.0
  0
ARC
  5
BC
330
1F
100
AcDbEntity
  8
0
  6
CONTINUOUS
 62
     7
100
AcDbCircle
 10
135.9203101763
 20
108.6658026473
 30
0.0
 40
3.428428395576565
100
AcDbArc
 50
0.3444049554
 51
89.6644884524
  0
LINE
  5
BD
330
1F
100
AcDbEntity
  8
0
  6
CONTINUOUS
 62
     7
100
AcDbLine
 10
117.1535907507
 20
93.3102676503
 30
0.0
 11
117.1535907507
 21
108.3886260025
 31
0.0
  0
ARC
  5
BE
330
1F
100
AcDbEntity
  8
0
  6
CONTINUOUS
 62
     7
100
AcDbCircle
 10
116.8189820757
 20
108.3994965591
 30
0.0
 40
0.3347852063483853
100
AcDbArc
 50
358.1392651054
 51
48.2032105405
  0
LINE
  5
BF
330
1F
100
AcDbEntity
  8
0
  6
CONTINUOUS
 62
     7
100
AcDbLine
 10
117.0421133011
 20
108.649083399
 30
0.0
 11
114.1151601642
 21
111.5760439865
 31
0.0
  0
LWPOLYLINE
  5
C0
330
1F
100
AcDbEntity
  8
0
  6
CONTINUOUS
 62
     7
100
AcDbPolyline
 90
        9
 70
   128
 43
0.0
 10
114.1151601642
 20
111.5760439865
 10
113.9654351592
 20
111.6622248522
 10
113.7923432708
 20
111.6731176011
 10
113.6696489721
 20
111.6307983033
 10
113.5683024496
 20
111.5492293469
 10
113.5019270897
 20
111.4379996292
 10
113.4647896707
 20
111.3131577007
 10
113.4196745425
 20
111.0571706525
 10
113.410979715
 20
110.7974285118
  0
LINE
  5
C1
330
1F
100
AcDbEntity
  8
0
  6
CONTINUOUS
 62
     7
100
AcDbLine
 10
113.410979715
 20
110.7974285118
 30
0.0
 11
113.410979715
 21
93.3102676503
 31
0.0
  0
ARC
  5
C2
330
1F
100
AcDbEntity
  8
0
  6
CONTINUOUS
 62
     7
100
AcDbCircle
 10
120.7396713684
 20
93.4896027236
 30
0.0
 40
7.330885514044446
100
AcDbArc
 50
181.4017635264
 51
268.6092368997
  0
LINE
  5
C3
330
1F
100
AcDbEntity
  8
0
  6
CONTINUOUS
 62
     7
100
AcDbLine
 10
120.5617433607
 20
86.160876774
 30
0.0
 11
138.0475593924
 21
86.1622849337
 31
0.0
  0
LWPOLYLINE
  5
C4
330
1F
100
AcDbEntity
  8
0
  6
CONTINUOUS
 62
     7
100
AcDbPolyline
 90
        9
 70
   128
 43
0.0
 10
138.0475593924
 20
86.1622849337
 10
138.3074132919
 20
86.1704358689
 10
138.5635195494
 20
86.2162941925
 10
138.6884099066
 20
86.2533012263
 10
138.7996619761
 20
86.3197902075
 10
138.8811489761
 20
86.4212671153
 10
138.9233080864
 20
86.5440824858
 10
138.9119198739
 20
86.7172190777
 10
138.8247667074
 20
86.8664691082
  0
LINE
  5
C5
330
1F
100
AcDbEntity
  8
0
  6
CONTINUOUS
 62
     7
100
AcDbLine
 10
138.8247667074
 20
86.8664691082
 30
0.0
 11
135.8978023946
 21
89.7933924428
 31
0.0
  0
ARC
  5
C6
330
1F
100
AcDbEntity
  8
0
  6
CONTINUOUS
 62
     7
100
AcDbCircle
 10
135.6812836971
 20
89.6437259943
 30
0.0
 40
0.2632116870522468
100
AcDbArc
 50
34.6537905347
 51
99.2741416505
  0
LINE
  5
C7
330
1F
100
AcDbEntity
  8
0
  6
CONTINUOUS
 62
     7
100
AcDbLine
 10
135.6388649166
 20
89.9034971229
 30
0.0
 11
120.5617433607
 21
89.9023720852
 31
0.0
  0
ARC
  5
C8
330
1F
100
AcDbEntity
  8
0
  6
CONTINUOUS
 62
     7
100
AcDbCircle
 10
120.580641066
 20
93.3294238356
 30
0.0
 40
3.427103853530548
100
AcDbArc
 50
180.3202629196
 51
269.6840585273
  0
LINE
  5
C9
330
1F
100
AcDbEntity
  8
0
  6
CONTINUOUS
 62
     7
100
AcDbLine
 10
502.8576983333
 20
179.9941593639
 30
0.0
 11
502.8576983333
 21
178.694152259
 31
0.0
  0
ARC
  5
CA
330
1F
100
AcDbEntity
  8
0
  6
CONTINUOUS
 62
     7
100
AcDbCircle
 10
503.5076867737
 20
178.6941587038
 30
0.0
 40
0.6499999999999204
100
AcDbArc
 50
180.0
 51
0.0
  0
LINE
  5
CB
330
1F
100
AcDbEntity
  8
0
  6
CONTINUOUS
 62
     7
100
AcDbLine
 10
504.1576756358
 20
178.694152259
 30
0.0
 11
504.1576756358
 21
179.9941593639
 31
0.0
  0
ARC
  5
CC
330
1F
100
AcDbEntity
  8
0
  6
CONTINUOUS
 62
     7
100
AcDbCircle
 10
503.5076867737
 20
179.9941587038
 30
0.0
 40
0.6500000000000341
100
AcDbArc
 50
0.0
 51
180.0
  0
LINE
  5
CD
330
1F
100
AcDbEntity
  8
0
  6
CONTINUOUS
 62
     7
100
AcDbLine
 10
493.3577014327
 20
179.9941593639
 30
0.0
 11
493.3577014327
 21
178.694152259
 31
0.0
  0
ARC
  5
CE
330
1F
100
AcDbEntity
  8
0
  6
CONTINUOUS
 62
     7
100
AcDbCircle
 10
494.0076867737
 20
178.6941587038
 30
0.0
 40
0.6499999999999773
100
AcDbArc
 50
180.0
 51
0.0
  0
LINE
  5
CF
330
1F
100
AcDbEntity
  8
0
  6
CONTINUOUS
 62
     7
100
AcDbLine
 10
494.6576787352
 20
178.694152259
 30
0.0
 11
494.6576787352
 21
179.9941593639
 31
0.0
  0
ARC
  5
D0
330
1F
100
AcDbEntity
  8
0
  6
CONTINUOUS
 62
     7
100
AcDbCircle
 10
494.0076867737
 20
179.9941587038
 30
0.0
 40
0.6499999999999773
100
AcDbArc
 50
0.0
 51
180.0
  0
LINE
  5
D1
330
1F
100
AcDbEntity
  8
0
  6
CONTINUOUS
 62
     7
100
AcDbLine
 10
502.8576983333
 20
149.9941581718
 30
0.0
 11
502.8576983333
 21
148.6941659681
 31
0.0
  0
ARC
  5
D2
330
1F
100
AcDbEntity
  8
0
  6
CONTINUOUS
 62
     7
100
AcDbCircle
 10
503.5076867737
 20
148.6941587038
 30
0.0
 40
0.6500000000000341
100
AcDbArc
 50
180.0
 51
0.0
  0
LINE
  5
D3
330
1F
100
AcDbEntity
  8
0
  6
CONTINUOUS
 62
     7
100
AcDbLine
 10
504.1576756358
 20
148.6941659681
 30
0.0
 11
504.1576756358
 21
149.9941581718
 31
0.0
  0
ARC
  5
D4
330
1F
100
AcDbEntity
  8
0
  6
CONTINUOUS
 62
     7
100
AcDbCircle
 10
503.5076867737
 20
149.9941587038
 30
0.0
 40
0.6500000000000341
100
AcDbArc
 50
0.0
 51
180.0
  0
LINE
  5
D5
330
1F
100
AcDbEntity
  8
0
  6
CONTINUOUS
 62
     7
100
AcDbLine
 10
493.3577014327
 20
149.9941581718
 30
0.0
 11
493.3577014327
 21
148.6941659681
 31
0.0
  0
ARC
  5
D6
330
1F
100
AcDbEntity
  8
0
  6
CONTINUOUS
 62
     7
100
AcDbCircle
 10
494.0076867737
 20
148.6941587038
 30
0.0
 40
0.6499999999999773
100
AcDbArc
 50
180.0
 51
0.0
  0
LINE
  5
D7
330
1F
100
AcDbEntity
  8
0
  6
CONTINUOUS
 62
     7
100
AcDbLine
 10
494.6576787352
 20
148.6941659681
 30
0.0
 11
494.6576787352
 21
149.9941581718
 31
0.0
  0
ARC
  5
D8
330
1F
100
AcDbEntity
  8
0
  6
CONTINUOUS
 62
     7
100
AcDbCircle
 10
494.0076867737
 20
149.9941587038
 30
0.0
 40
0.6499999999999773
100
AcDbArc
 50
0.0
 51
180.0
  0
LINE
  5
D9
330
1F
100
AcDbEntity
  8
0
  6
CONTINUOUS
 62
     7
100
AcDbLine
 10
536.5076793551
 20
197.3441624872
 30
0.0
 11
520.5076767325
 21
197.3441624872
 31
0.0
  0
LINE
  5
DA
330
1F
100
AcDbEntity
  8
0
  6
CONTINUOUS
 62
     7
100
AcDbLine
 10
536.5076793551
 20
5.5041587769
 30
0.0
 11
536.5076793551
 21
99.7658455602
 31
0.0
  0
LINE
  5
DB
330
1F
100
AcDbEntity
  8
0
  6
CONTINUOUS
 62
     7
100
AcDbLine
 10
103.0934734464
 20
176.7583722106
 30
0.0
 11
104.9218999416
 21
174.9299401275
 31
0.0
  0
CIRCLE
  5
DC
330
1F
100
AcDbEntity
  8
0
  6
CONTINUOUS
 62
     7
100
AcDbCircle
 10
211.8974574883
 20
132.0756519163
 30
0.0
 40
1.400000000000006
  0
CIRCLE
  5
DD
330
1F
100
AcDbEntity
  8
0
  6
CONTINUOUS
 62
     7
100
AcDbCircle
 10
181.8974574883
 20
132.0756519163
 30
0.0
 40
2.498076211353293
  0
LINE
  5
DE
330
1F
100
AcDbEntity
  8
0
  6
CONTINUOUS
 62
     7
100
AcDbLine
 10
313.6295063615
 20
132.0756459466
 30
0.0
 11
312.7634806752
 21
133.5756564371
 31
0.0
  0
LINE
  5
DF
330
1F
100
AcDbEntity
  8
0
  6
CONTINUOUS
 62
     7
100
AcDbLine
 10
312.7634806752
 20
133.5756564371
 30
0.0
 11
311.0314293027
 21
133.5756564371
 31
0.0
  0
LINE
  5
E0
330
1F
100
AcDbEntity
  8
0
  6
CONTINUOUS
 62
     7
100
AcDbLine
 10
311.0314293027
 20
133.5756564371
 30
0.0
 11
310.1654036164
 21
132.0756459466
 31
0.0
  0
LINE
  5
E1
330
1F
100
AcDbEntity
  8
0
  6
CONTINUOUS
 62
     7
100
AcDbLine
 10
310.1654036164
 20
132.0756459466
 30
0.0
 11
311.0314293027
 21
130.5756503574
 31
0.0
  0
LINE
  5
E2
330
1F
100
AcDbEntity
  8
0
  6
CONTINUOUS
 62
     7
100
AcDbLine
 10
311.0314293027
 20
130.5756503574
 30
0.0
 11
312.7634806752
 21
130.5756503574
 31
0.0
  0
LINE
  5
E3
330
1F
100
AcDbEntity
  8
0
  6
CONTINUOUS
 62
     7
100
AcDbLine
 10
312.7634806752
 20
130.5756503574
 30
0.0
 11
313.6295063615
 21
132.0756459466
 31
0.0
  0
CIRCLE
  5
E4
330
1F
100
AcDbEntity
  8
0
  6
CONTINUOUS
 62
     7
100
AcDbCircle
 10
341.8974574883
 20
132.0756519163
 30
0.0
 40
2.498076211353293
  0
ARC
  5
E5
330
1F
100
AcDbEntity
  8
0
  6
CONTINUOUS
 62
     7
100
AcDbCircle
 10
261.083243926
 20
137.0756519163
 30
0.0
 40
1.0
100
AcDbArc
 50
270.0
 51
315.0
  0
LINE
  5
E6
330
1F
100
AcDbEntity
  8
0
  6
CONTINUOUS
 62
     7
100
AcDbLine
 10
261.8974579692
 20
136.4756459228
 30
0.0
 11
261.7903484225
 21
136.3685512773
 31
0.0
  0
LINE
  5
E7
330
1F
100
AcDbEntity
  8
0
  6
CONTINUOUS
 62
     7
100
AcDbLine
 10
262.0045675158
 20
136.3685512773
 30
0.0
 11
261.8974579692
 21
136.4756459228
 31
0.0
  0
ARC
  5
E8
330
1F
100
AcDbEntity
  8
0
  6
CONTINUOUS
 62
     7
100
AcDbCircle
 10
262.7116710507
 20
137.0756519163
 30
0.0
 40
1.000000000000048
100
AcDbArc
 50
225.0
 51
270.0
  0
LINE
  5
E9
330
1F
100
AcDbEntity
  8
0
  6
CONTINUOUS
 62
     7
100
AcDbLine
 10
304.9692494988
 20
136.0756540529
 30
0.0
 11
262.711672318
 21
136.0756540529
 31
0.0
  0
ARC
  5
EA
330
1F
100
AcDbEntity
  8
0
  6
CONTINUOUS
 62
     7
100
AcDbCircle
 10
304.9692542581
 20
139.0756519163
 30
0.0
 40
3.0
100
AcDbArc
 50
270.0
 51
330.0
  0
LINE
  5
EB
330
1F
100
AcDbEntity
  8
0
  6
CONTINUOUS
 62
     7
100
AcDbLine
 10
308.1446869492
 20
138.5756516687
 30
0.0
 11
307.5673265576
 21
137.5756496421
 31
0.0
  0
LINE
  5
EC
330
1F
100
AcDbEntity
  8
0
  6
CONTINUOUS
 62
     7
100
AcDbLine
 10
315.6502379298
 20
138.5756516687
 30
0.0
 11
308.1446869492
 21
138.5756516687
 31
0.0
  0
LINE
  5
ED
330
1F
100
AcDbEntity
  8
0
  6
CONTINUOUS
 62
     7
100
AcDbLine
 10
316.2275834203
 20
137.5756496421
 30
0.0
 11
315.6502379298
 21
138.5756516687
 31
0.0
  0
ARC
  5
EE
330
1F
100
AcDbEntity
  8
0
  6
CONTINUOUS
 62
     7
100
AcDbCircle
 10
318.8256607186
 20
139.0756519163
 30
0.0
 40
3.0
100
AcDbArc
 50
210.0
 51
270.0
  0
LINE
  5
EF
330
1F
100
AcDbEntity
  8
0
  6
CONTINUOUS
 62
     7
100
AcDbLine
 10
328.8989944577
 20
136.0756540529
 30
0.0
 11
318.8256604791
 21
136.0756540529
 31
0.0
  0
ARC
  5
F0
330
1F
100
AcDbEntity
  8
0
  6
CONTINUOUS
 62
     7
100
AcDbCircle
 10
328.8989960409
 20
184.0756519163
 30
0.0
 40
48.00000000000003
100
AcDbArc
 50
270.0
 51
284.0346479352
  0
ARC
  5
F1
330
1F
100
AcDbEntity
  8
0
  6
CONTINUOUS
 62
     7
100
AcDbCircle
 10
328.8989960409
 20
80.0756519163
 30
0.0
 40
48.00000000000003
100
AcDbArc
 50
75.9653520648
 51
90.0
  0
LINE
  5
F2
330
1F
100
AcDbEntity
  8
0
  6
CONTINUOUS
 62
     7
100
AcDbLine
 10
318.8256604791
 20
128.0756527416
 30
0.0
 11
328.8989944577
 21
128.0756527416
 31
0.0
  0
ARC
  5
F3
330
1F
100
AcDbEntity
  8
0
  6
CONTINUOUS
 62
     7
100
AcDbCircle
 10
318.8256607186
 20
125.0756519163
 30
0.0
 40
2.999999999999986
100
AcDbArc
 50
90.0
 51
150.0
  0
LINE
  5
F4
330
1F
100
AcDbEntity
  8
0
  6
CONTINUOUS
 62
     7
100
AcDbLine
 10
315.6502379298
 20
125.5756551258
 30
0.0
 11
316.2275834203
 21
126.5756497017
 31
0.0
  0
LINE
  5
F5
330
1F
100
AcDbEntity
  8
0
  6
CONTINUOUS
 62
     7
100
AcDbLine
 10
308.1446869492
 20
125.5756551258
 30
0.0
 11
315.6502379298
 21
125.5756551258
 31
0.0
  0
LINE
  5
F6
330
1F
100
AcDbEntity
  8
0
  6
CONTINUOUS
 62
     7
100
AcDbLine
 10
307.5673265576
 20
126.5756497017
 30
0.0
 11
308.1446869492
 21
125.5756551258
 31
0.0
  0
ARC
  5
F7
330
1F
100
AcDbEntity
  8
0
  6
CONTINUOUS
 62
     7
100
AcDbCircle
 10
304.9692542581
 20
125.0756519163
 30
0.0
 40
2.999999999999986
100
AcDbArc
 50
30.0
 51
90.0
  0
LINE
  5
F8
330
1F
100
AcDbEntity
  8
0
  6
CONTINUOUS
 62
     7
100
AcDbLine
 10
262.711672318
 20
128.0756527416
 30
0.0
 11
304.9692494988
 21
128.0756527416
 31
0.0
  0
ARC
  5
F9
330
1F
100
AcDbEntity
  8
0
  6
CONTINUOUS
 62
     7
100
AcDbCircle
 10
262.7116710507
 20
127.0756519163
 30
0.0
 40
1.000000000000048
100
AcDbArc
 50
90.0
 51
135.0
  0
LINE
  5
FA
330
1F
100
AcDbEntity
  8
0
  6
CONTINUOUS
 62
     7
100
AcDbLine
 10
261.8974579692
 20
127.6756459705
 30
0.0
 11
262.0045675158
 21
127.7827555171
 31
0.0
  0
LINE
  5
FB
330
1F
100
AcDbEntity
  8
0
  6
CONTINUOUS
 62
     7
100
AcDbLine
 10
261.7903484225
 20
127.7827555171
 30
0.0
 11
261.8974579692
 21
127.6756459705
 31
0.0
  0
ARC
  5
FC
330
1F
100
AcDbEntity
  8
0
  6
CONTINUOUS
 62
     7
100
AcDbCircle
 10
261.083243926
 20
127.0756519163
 30
0.0
 40
1.000000000000014
100
AcDbArc
 50
45.0
 51
90.0
  0
LINE
  5
FD
330
1F
100
AcDbEntity
  8
0
  6
CONTINUOUS
 62
     7
100
AcDbLine
 10
220.6295861125
 20
128.0756527416
 30
0.0
 11
261.0832436204
 21
128.0756527416
 31
0.0
  0
ARC
  5
FE
330
1F
100
AcDbEntity
  8
0
  6
CONTINUOUS
 62
     7
100
AcDbCircle
 10
220.6295820866
 20
118.0756519163
 30
0.0
 40
10.0
100
AcDbArc
 50
90.0
 51
121.9527464003
  0
ARC
  5
FF
330
1F
100
AcDbEntity
  8
0
  6
CONTINUOUS
 62
     7
100
AcDbCircle
 10
211.8974574883
 20
132.0756519163
 30
0.0
 40
6.499999999999995
100
AcDbArc
 50
238.0472535997
 51
301.9527464003
  0
ARC
  5
100
330
1F
100
AcDbEntity
  8
0
  6
CONTINUOUS
 62
     7
100
AcDbCircle
 10
203.16533289
 20
118.0756519163
 30
0.0
 40
10.0
100
AcDbArc
 50
58.0472535997
 51
90.0
  0
LINE
  5
101
330
1F
100
AcDbEntity
  8
0
  6
CONTINUOUS
 62
     7
100
AcDbLine
 10
194.8959214806
 20
128.0756527416
 30
0.0
 11
203.1653357863
 21
128.0756527416
 31
0.0
  0
ARC
  5
102
330
1F
100
AcDbEntity
  8
0
  6
CONTINUOUS
 62
     7
100
AcDbCircle
 10
194.8959189357
 20
80.0756519163
 30
0.0
 40
48.00000000000003
100
AcDbArc
 50
90.0
 51
104.0346479352
  0
ARC
  5
103
330
1F
100
AcDbEntity
  8
0
  6
CONTINUOUS
 62
     7
100
AcDbCircle
 10
181.8974574883
 20
132.0756519163
 30
0.0
 40
5.599999999999994
100
AcDbArc
 50
75.9653520648
 51
284.0346479352
  0
ARC
  5
104
330
1F
100
AcDbEntity
  8
0
  6
CONTINUOUS
 62
     7
100
AcDbCircle
 10
194.8959189357
 20
184.0756519163
 30
0.0
 40
48.00000000000003
100
AcDbArc
 50
255.9653520648
 51
270.0
  0
LINE
  5
105
330
1F
100
AcDbEntity
  8
0
  6
CONTINUOUS
 62
     7
100
AcDbLine
 10
203.1653357863
 20
136.0756540529
 30
0.0
 11
194.8959214806
 21
136.0756540529
 31
0.0
  0
ARC
  5
106
330
1F
100
AcDbEntity
  8
0
  6
CONTINUOUS
 62
     7
100
AcDbCircle
 10
203.16533289
 20
146.0756519163
 30
0.0
 40
10.0
100
AcDbArc
 50
270.0
 51
301.9527464003
  0
ARC
  5
107
330
1F
100
AcDbEntity
  8
0
  6
CONTINUOUS
 62
     7
100
AcDbCircle
 10
211.8974574883
 20
132.0756519163
 30
0.0
 40
6.50000000000002
100
AcDbArc
 50
58.0472535997
 51
121.9527464003
  0
LINE
  5
108
330
1F
100
AcDbEntity
  8
0
  6
CONTINUOUS
 62
     7
100
AcDbLine
 10
261.0832436204
 20
136.0756540529
 30
0.0
 11
220.6295861125
 21
136.0756540529
 31
0.0
  0
ARC
  5
109
330
1F
100
AcDbEntity
  8
0
  6
CONTINUOUS
 62
     7
100
AcDbCircle
 10
220.6295820866
 20
146.0756519163
 30
0.0
 40
9.999999999999972
100
AcDbArc
 50
238.0472535997
 51
270.0
  0
ARC
  5
10A
330
1F
100
AcDbEntity
  8
0
  6
CONTINUOUS
 62
     7
100
AcDbCircle
 10
341.8974574883
 20
132.0756519163
 30
0.0
 40
5.600000000000009
100
AcDbArc
 50
255.9653520648
 51
104.0346479352
  0
CIRCLE
  5
10B
330
1F
100
AcDbEntity
  8
0
  6
CONTINUOUS
 62
     7
100
AcDbCircle
 10
211.2072559447
 20
113.2190365212
 30
0.0
 40
1.399999999999977
  0
CIRCLE
  5
10C
330
1F
100
AcDbEntity
  8
0
  6
CONTINUOUS
 62
     7
100
AcDbCircle
 10
181.2072559447
 20
113.2190365212
 30
0.0
 40
2.49807621135335
  0
LINE
  5
10D
330
1F
100
AcDbEntity
  8
0
  6
CONTINUOUS
 62
     7
100
AcDbLine
 10
312.9392994761
 20
113.2190385691
 30
0.0
 11
312.073288691
 21
114.7190341584
 31
0.0
  0
LINE
  5
10E
330
1F
100
AcDbEntity
  8
0
  6
CONTINUOUS
 62
     7
100
AcDbLine
 10
312.073288691
 20
114.7190341584
 30
0.0
 11
310.3412373185
 21
114.7190341584
 31
0.0
  0
LINE
  5
10F
330
1F
100
AcDbEntity
  8
0
  6
CONTINUOUS
 62
     7
100
AcDbLine
 10
310.3412373185
 20
114.7190341584
 30
0.0
 11
309.4752116322
 21
113.2190385691
 31
0.0
  0
LINE
  5
110
330
1F
100
AcDbEntity
  8
0
  6
CONTINUOUS
 62
     7
100
AcDbLine
 10
309.4752116322
 20
113.2190385691
 30
0.0
 11
310.3412373185
 21
111.7190355293
 31
0.0
  0
LINE
  5
111
330
1F
100
AcDbEntity
  8
0
  6
CONTINUOUS
 62
     7
100
AcDbLine
 10
310.3412373185
 20
111.7190355293
 30
0.0
 11
312.073288691
 21
111.7190355293
 31
0.0
  0
LINE
  5
112
330
1F
100
AcDbEntity
  8
0
  6
CONTINUOUS
 62
     7
100
AcDbLine
 10
312.073288691
 20
111.7190355293
 30
0.0
 11
312.9392994761
 21
113.2190385691
 31
0.0
  0
CIRCLE
  5
113
330
1F
100
AcDbEntity
  8
0
  6
CONTINUOUS
 62
     7
100
AcDbCircle
 10
341.2072559447
 20
113.2190365212
 30
0.0
 40
2.49807621135335
  0
ARC
  5
114
330
1F
100
AcDbEntity
  8
0
  6
CONTINUOUS
 62
     7
100
AcDbCircle
 10
260.3930423823
 20
118.2190365212
 30
0.0
 40
1.000000000000028
100
AcDbArc
 50
270.0
 51
315.0
  0
LINE
  5
115
330
1F
100
AcDbEntity
  8
0
  6
CONTINUOUS
 62
     7
100
AcDbLine
 10
261.2072510838
 20
117.6190385453
 30
0.0
 11
261.1001564383
 21
117.5119289986
 31
0.0
  0
LINE
  5
116
330
1F
100
AcDbEntity
  8
0
  6
CONTINUOUS
 62
     7
100
AcDbLine
 10
261.3143606305
 20
117.5119289986
 30
0.0
 11
261.2072510838
 21
117.6190385453
 31
0.0
  0
ARC
  5
117
330
1F
100
AcDbEntity
  8
0
  6
CONTINUOUS
 62
     7
100
AcDbCircle
 10
262.021469507
 20
118.2190365212
 30
0.0
 40
1.000000000000068
100
AcDbArc
 50
225.0
 51
270.0
  0
ARC
  5
118
330
1F
100
AcDbEntity
  8
0
  6
CONTINUOUS
 62
     7
100
AcDbCircle
 10
304.2790527144
 20
120.2190365212
 30
0.0
 40
3.0
100
AcDbArc
 50
270.0
 51
330.0
  0
LINE
  5
119
330
1F
100
AcDbEntity
  8
0
  6
CONTINUOUS
 62
     7
100
AcDbLine
 10
307.4544800639
 20
119.7190368406
 30
0.0
 11
306.8771345734
 21
118.719034814
 31
0.0
  0
LINE
  5
11A
330
1F
100
AcDbEntity
  8
0
  6
CONTINUOUS
 62
     7
100
AcDbLine
 10
314.9600310445
 20
119.7190368406
 30
0.0
 11
307.4544800639
 21
119.7190368406
 31
0.0
  0
LINE
  5
11B
330
1F
100
AcDbEntity
  8
0
  6
CONTINUOUS
 62
     7
100
AcDbLine
 10
315.5373765349
 20
118.719034814
 30
0.0
 11
314.9600310445
 21
119.7190368406
 31
0.0
  0
ARC
  5
11C
330
1F
100
AcDbEntity
  8
0
  6
CONTINUOUS
 62
     7
100
AcDbCircle
 10
318.1354591749
 20
120.2190365212
 30
0.0
 40
3.0
100
AcDbArc
 50
210.0
 51
270.0
  0
ARC
  5
11D
330
1F
100
AcDbEntity
  8
0
  6
CONTINUOUS
 62
     7
100
AcDbCircle
 10
328.2087944972
 20
165.2190365212
 30
0.0
 40
48.00000000000001
100
AcDbArc
 50
270.0
 51
284.0346479352
  0
ARC
  5
11E
330
1F
100
AcDbEntity
  8
0
  6
CONTINUOUS
 62
     7
100
AcDbCircle
 10
341.2072559447
 20
113.2190365212
 30
0.0
 40
5.600000000000022
100
AcDbArc
 50
255.9653520648
 51
104.0346479352
  0
ARC
  5
11F
330
1F
100
AcDbEntity
  8
0
  6
CONTINUOUS
 62
     7
100
AcDbCircle
 10
328.2087944972
 20
61.2190365212
 30
0.0
 40
48.00000000000001
100
AcDbArc
 50
75.9653520648
 51
90.0
  0
ARC
  5
120
330
1F
100
AcDbEntity
  8
0
  6
CONTINUOUS
 62
     7
100
AcDbCircle
 10
318.1354591749
 20
106.2190365212
 30
0.0
 40
3.0
100
AcDbArc
 50
90.0
 51
150.0
  0
LINE
  5
121
330
1F
100
AcDbEntity
  8
0
  6
CONTINUOUS
 62
     7
100
AcDbLine
 10
314.9600310445
 20
106.7190328471
 30
0.0
 11
315.5373765349
 21
107.7190348736
 31
0.0
  0
LINE
  5
122
330
1F
100
AcDbEntity
  8
0
  6
CONTINUOUS
 62
     7
100
AcDbLine
 10
307.4544800639
 20
106.7190328471
 30
0.0
 11
314.9600310445
 21
106.7190328471
 31
0.0
  0
LINE
  5
123
330
1F
100
AcDbEntity
  8
0
  6
CONTINUOUS
 62
     7
100
AcDbLine
 10
306.8771345734
 20
107.7190348736
 30
0.0
 11
307.4544800639
 21
106.7190328471
 31
0.0
  0
ARC
  5
124
330
1F
100
AcDbEntity
  8
0
  6
CONTINUOUS
 62
     7
100
AcDbCircle
 10
304.2790527144
 20
106.2190365212
 30
0.0
 40
3.0
100
AcDbArc
 50
30.0
 51
90.0
  0
ARC
  5
125
330
1F
100
AcDbEntity
  8
0
  6
CONTINUOUS
 62
     7
100
AcDbCircle
 10
262.021469507
 20
108.2190365212
 30
0.0
 40
1.000000000000018
100
AcDbArc
 50
90.0
 51
135.0
  0
LINE
  5
126
330
1F
100
AcDbEntity
  8
0
  6
CONTINUOUS
 62
     7
100
AcDbLine
 10
261.2072510838
 20
108.819038593
 30
0.0
 11
261.3143606305
 21
108.926140689
 31
0.0
  0
LINE
  5
127
330
1F
100
AcDbEntity
  8
0
  6
CONTINUOUS
 62
     7
100
AcDbLine
 10
261.1001564383
 20
108.926140689
 30
0.0
 11
261.2072510838
 21
108.819038593
 31
0.0
  0
ARC
  5
128
330
1F
100
AcDbEntity
  8
0
  6
CONTINUOUS
 62
     7
100
AcDbCircle
 10
260.3930423823
 20
108.2190365212
 30
0.0
 40
1.0
100
AcDbArc
 50
45.0
 51
90.0
  0
ARC
  5
129
330
1F
100
AcDbEntity
  8
0
  6
CONTINUOUS
 62
     7
100
AcDbCircle
 10
219.9393805429
 20
99.2190365212
 30
0.0
 40
10.00000000000001
100
AcDbArc
 50
90.0
 51
121.9527464003
  0
ARC
  5
12A
330
1F
100
AcDbEntity
  8
0
  6
CONTINUOUS
 62
     7
100
AcDbCircle
 10
211.2072559447
 20
113.2190365212
 30
0.0
 40
6.50000000000002
100
AcDbArc
 50
238.0472535997
 51
301.9527464003
  0
ARC
  5
12B
330
1F
100
AcDbEntity
  8
0
  6
CONTINUOUS
 62
     7
100
AcDbCircle
 10
202.4751313464
 20
99.2190365212
 30
0.0
 40
10.00000000000001
100
AcDbArc
 50
58.0472535997
 51
90.0
  0
LINE
  5
12C
330
1F
100
AcDbEntity
  8
0
  6
CONTINUOUS
 62
     7
100
AcDbLine
 10
194.2057145953
 20
109.2190379135
 30
0.0
 11
202.475128901
 21
109.2190379135
 31
0.0
  0
ARC
  5
12D
330
1F
100
AcDbEntity
  8
0
  6
CONTINUOUS
 62
     7
100
AcDbCircle
 10
194.2057173921
 20
61.2190365212
 30
0.0
 40
48.00000000000001
100
AcDbArc
 50
90.0
 51
104.0346479352
  0
ARC
  5
12E
330
1F
100
AcDbEntity
  8
0
  6
CONTINUOUS
 62
     7
100
AcDbCircle
 10
181.2072559447
 20
113.2190365212
 30
0.0
 40
5.600000000000009
100
AcDbArc
 50
75.9653520648
 51
284.0346479352
  0
ARC
  5
12F
330
1F
100
AcDbEntity
  8
0
  6
CONTINUOUS
 62
     7
100
AcDbCircle
 10
194.2057173921
 20
165.2190365212
 30
0.0
 40
48.00000000000003
100
AcDbArc
 50
255.9653520648
 51
270.0
  0
LINE
  5
130
330
1F
100
AcDbEntity
  8
0
  6
CONTINUOUS
 62
     7
100
AcDbLine
 10
202.475128901
 20
117.2190392248
 30
0.0
 11
194.2057145953
 21
117.2190392248
 31
0.0
  0
ARC
  5
131
330
1F
100
AcDbEntity
  8
0
  6
CONTINUOUS
 62
     7
100
AcDbCircle
 10
202.4751313464
 20
127.2190365212
 30
0.0
 40
10.0
100
AcDbArc
 50
270.0
 51
301.9527464003
  0
ARC
  5
132
330
1F
100
AcDbEntity
  8
0
  6
CONTINUOUS
 62
     7
100
AcDbCircle
 10
211.2072559447
 20
113.2190365212
 30
0.0
 40
6.499999999999995
100
AcDbArc
 50
58.0472535997
 51
121.9527464003
  0
ARC
  5
133
330
1F
100
AcDbEntity
  8
0
  6
CONTINUOUS
 62
     7
100
AcDbCircle
 10
219.9393805429
 20
127.2190365212
 30
0.0
 40
10.0
100
AcDbArc
 50
238.0472535997
 51
270.0
  0
LINE
  5
134
330
1F
100
AcDbEntity
  8
0
  6
CONTINUOUS
 62
     7
100
AcDbLine
 10
260.393036735
 20
117.2190392248
 30
0.0
 11
219.9393792271
 21
117.2190392248
 31
0.0
  0
LINE
  5
135
330
1F
100
AcDbEntity
  8
0
  6
CONTINUOUS
 62
     7
100
AcDbLine
 10
262.0214654326
 20
109.2190379135
 30
0.0
 11
304.2790575147
 21
109.2190379135
 31
0.0
  0
LINE
  5
136
330
1F
100
AcDbEntity
  8
0
  6
CONTINUOUS
 62
     7
100
AcDbLine
 10
328.2087875724
 20
117.2190392248
 30
0.0
 11
318.1354535937
 21
117.2190392248
 31
0.0
  0
LINE
  5
137
330
1F
100
AcDbEntity
  8
0
  6
CONTINUOUS
 62
     7
100
AcDbLine
 10
318.1354535937
 20
109.2190379135
 30
0.0
 11
328.2087875724
 21
109.2190379135
 31
0.0
  0
LINE
  5
138
330
1F
100
AcDbEntity
  8
0
  6
CONTINUOUS
 62
     7
100
AcDbLine
 10
304.2790575147
 20
117.2190392248
 30
0.0
 11
262.0214654326
 21
117.2190392248
 31
0.0
  0
LINE
  5
139
330
1F
100
AcDbEntity
  8
0
  6
CONTINUOUS
 62
     7
100
AcDbLine
 10
219.9393792271
 20
109.2190379135
 30
0.0
 11
260.393036735
 21
109.2190379135
 31
0.0
  0
CIRCLE
  5
13A
330
1F
100
AcDbEntity
  8
0
  6
CONTINUOUS
 62
     7
100
AcDbCircle
 10
212.0624065436
 20
71.4773461242
 30
0.0
 40
1.399999999999977
  0
CIRCLE
  5
13B
330
1F
100
AcDbEntity
  8
0
  6
CONTINUOUS
 62
     7
100
AcDbCircle
 10
182.0624065436
 20
71.4773461242
 30
0.0
 40
2.498076211353322
  0
LINE
  5
13C
330
1F
100
AcDbEntity
  8
0
  6
CONTINUOUS
 62
     7
100
AcDbLine
 10
313.7944622159
 20
71.4773470394
 30
0.0
 11
312.9284365296
 21
72.9773426286
 31
0.0
  0
LINE
  5
13D
330
1F
100
AcDbEntity
  8
0
  6
CONTINUOUS
 62
     7
100
AcDbLine
 10
312.9284365296
 20
72.9773426286
 30
0.0
 11
311.1963851571
 21
72.9773426286
 31
0.0
  0
LINE
  5
13E
330
1F
100
AcDbEntity
  8
0
  6
CONTINUOUS
 62
     7
100
AcDbLine
 10
311.1963851571
 20
72.9773426286
 30
0.0
 11
310.3303594708
 21
71.4773470394
 31
0.0
  0
LINE
  5
13F
330
1F
100
AcDbEntity
  8
0
  6
CONTINUOUS
 62
     7
100
AcDbLine
 10
310.3303594708
 20
71.4773470394
 30
0.0
 11
311.1963851571
 21
69.9773439995
 31
0.0
  0
LINE
  5
140
330
1F
100
AcDbEntity
  8
0
  6
CONTINUOUS
 62
     7
100
AcDbLine
 10
311.1963851571
 20
69.9773439995
 30
0.0
 11
312.9284365296
 21
69.9773439995
 31
0.0
  0
LINE
  5
141
330
1F
100
AcDbEntity
  8
0
  6
CONTINUOUS
 62
     7
100
AcDbLine
 10
312.9284365296
 20
69.9773439995
 30
0.0
 11
313.7944622159
 21
71.4773470394
 31
0.0
  0
CIRCLE
  5
142
330
1F
100
AcDbEntity
  8
0
  6
CONTINUOUS
 62
     7
100
AcDbCircle
 10
342.0624065436
 20
71.4773461242
 30
0.0
 40
2.49807621135335
  0
ARC
  5
143
330
1F
100
AcDbEntity
  8
0
  6
CONTINUOUS
 62
     7
100
AcDbCircle
 10
261.2481929812
 20
76.4773461242
 30
0.0
 40
1.000000000000068
100
AcDbArc
 50
270.0
 51
315.0
  0
LINE
  5
144
330
1F
100
AcDbEntity
  8
0
  6
CONTINUOUS
 62
     7
100
AcDbLine
 10
262.0624138236
 20
75.8773470155
 30
0.0
 11
261.9553042769
 21
75.7702374689
 31
0.0
  0
LINE
  5
145
330
1F
100
AcDbEntity
  8
0
  6
CONTINUOUS
 62
     7
100
AcDbLine
 10
262.1695084691
 20
75.7702374689
 30
0.0
 11
262.0624138236
 21
75.8773470155
 31
0.0
  0
ARC
  5
146
330
1F
100
AcDbEntity
  8
0
  6
CONTINUOUS
 62
     7
100
AcDbCircle
 10
262.8766201059
 20
76.4773461242
 30
0.0
 40
1.000000000000028
100
AcDbArc
 50
225.0
 51
270.0
  0
ARC
  5
147
330
1F
100
AcDbEntity
  8
0
  6
CONTINUOUS
 62
     7
100
AcDbCircle
 10
305.1342033133
 20
78.4773461242
 30
0.0
 40
3.0
100
AcDbArc
 50
270.0
 51
330.0
  0
LINE
  5
148
330
1F
100
AcDbEntity
  8
0
  6
CONTINUOUS
 62
     7
100
AcDbLine
 10
308.3096279025
 20
77.9773453108
 30
0.0
 11
307.732282412
 21
76.9773432843
 31
0.0
  0
LINE
  5
149
330
1F
100
AcDbEntity
  8
0
  6
CONTINUOUS
 62
     7
100
AcDbLine
 10
315.8151788831
 20
77.9773453108
 30
0.0
 11
308.3096279025
 21
77.9773453108
 31
0.0
  0
LINE
  5
14A
330
1F
100
AcDbEntity
  8
0
  6
CONTINUOUS
 62
     7
100
AcDbLine
 10
316.3925392747
 20
76.9773432843
 30
0.0
 11
315.8151788831
 21
77.9773453108
 31
0.0
  0
ARC
  5
14B
330
1F
100
AcDbEntity
  8
0
  6
CONTINUOUS
 62
     7
100
AcDbCircle
 10
318.9906097738
 20
78.4773461242
 30
0.0
 40
3.000000000000049
100
AcDbArc
 50
210.0
 51
270.0
  0
ARC
  5
14C
330
1F
100
AcDbEntity
  8
0
  6
CONTINUOUS
 62
     7
100
AcDbCircle
 10
329.0639450961
 20
123.4773461242
 30
0.0
 40
48.00000000000003
100
AcDbArc
 50
270.0
 51
284.0346479352
  0
ARC
  5
14D
330
1F
100
AcDbEntity
  8
0
  6
CONTINUOUS
 62
     7
100
AcDbCircle
 10
342.0624065436
 20
71.4773461242
 30
0.0
 40
5.600000000000009
100
AcDbArc
 50
255.9653520648
 51
104.0346479352
  0
ARC
  5
14E
330
1F
100
AcDbEntity
  8
0
  6
CONTINUOUS
 62
     7
100
AcDbCircle
 10
329.0639450961
 20
19.4773461242
 30
0.0
 40
48.00000000000004
100
AcDbArc
 50
75.9653520648
 51
90.0
  0
ARC
  5
14F
330
1F
100
AcDbEntity
  8
0
  6
CONTINUOUS
 62
     7
100
AcDbCircle
 10
318.9906097738
 20
64.4773461242
 30
0.0
 40
3.000000000000049
100
AcDbArc
 50
90.0
 51
150.0
  0
LINE
  5
150
330
1F
100
AcDbEntity
  8
0
  6
CONTINUOUS
 62
     7
100
AcDbLine
 10
315.8151788831
 20
64.9773487679
 30
0.0
 11
316.3925392747
 21
65.9773433439
 31
0.0
  0
LINE
  5
151
330
1F
100
AcDbEntity
  8
0
  6
CONTINUOUS
 62
     7
100
AcDbLine
 10
308.3096279025
 20
64.9773487679
 30
0.0
 11
315.8151788831
 21
64.9773487679
 31
0.0
  0
LINE
  5
152
330
1F
100
AcDbEntity
  8
0
  6
CONTINUOUS
 62
     7
100
AcDbLine
 10
307.732282412
 20
65.9773433439
 30
0.0
 11
308.3096279025
 21
64.9773487679
 31
0.0
  0
ARC
  5
153
330
1F
100
AcDbEntity
  8
0
  6
CONTINUOUS
 62
     7
100
AcDbCircle
 10
305.1342033133
 20
64.4773461242
 30
0.0
 40
3.0
100
AcDbArc
 50
30.0
 51
90.0
  0
ARC
  5
154
330
1F
100
AcDbEntity
  8
0
  6
CONTINUOUS
 62
     7
100
AcDbCircle
 10
262.8766201059
 20
66.4773461242
 30
0.0
 40
1.0
100
AcDbArc
 50
90.0
 51
135.0
  0
LINE
  5
155
330
1F
100
AcDbEntity
  8
0
  6
CONTINUOUS
 62
     7
100
AcDbLine
 10
262.0624138236
 20
67.0773470632
 30
0.0
 11
262.1695084691
 21
67.1844566099
 31
0.0
  0
LINE
  5
156
330
1F
100
AcDbEntity
  8
0
  6
CONTINUOUS
 62
     7
100
AcDbLine
 10
261.9553042769
 20
67.1844566099
 30
0.0
 11
262.0624138236
 21
67.0773470632
 31
0.0
  0
ARC
  5
157
330
1F
100
AcDbEntity
  8
0
  6
CONTINUOUS
 62
     7
100
AcDbCircle
 10
261.2481929812
 20
66.4773461242
 30
0.0
 40
1.000000000000048
100
AcDbArc
 50
45.0
 51
90.0
  0
LINE
  5
158
330
1F
100
AcDbEntity
  8
0
  6
CONTINUOUS
 62
     7
100
AcDbLine
 10
220.7945270657
 20
67.4773463837
 30
0.0
 11
261.2481994748
 21
67.4773463837
 31
0.0
  0
ARC
  5
159
330
1F
100
AcDbEntity
  8
0
  6
CONTINUOUS
 62
     7
100
AcDbCircle
 10
220.7945311419
 20
57.4773461242
 30
0.0
 40
10.00000000000001
100
AcDbArc
 50
90.0
 51
121.9527464003
  0
ARC
  5
15A
330
1F
100
AcDbEntity
  8
0
  6
CONTINUOUS
 62
     7
100
AcDbCircle
 10
212.0624065436
 20
71.4773461242
 30
0.0
 40
6.500000000000022
100
AcDbArc
 50
238.0472535997
 51
301.9527464003
  0
ARC
  5
15B
330
1F
100
AcDbEntity
  8
0
  6
CONTINUOUS
 62
     7
100
AcDbCircle
 10
203.3302819453
 20
57.4773461242
 30
0.0
 40
10.00000000000001
100
AcDbArc
 50
58.0472535997
 51
90.0
  0
LINE
  5
15C
330
1F
100
AcDbEntity
  8
0
  6
CONTINUOUS
 62
     7
100
AcDbLine
 10
195.0608698845
 20
67.4773463837
 30
0.0
 11
203.3302841902
 21
67.4773463837
 31
0.0
  0
ARC
  5
15D
330
1F
100
AcDbEntity
  8
0
  6
CONTINUOUS
 62
     7
100
AcDbCircle
 10
195.060867991
 20
19.4773461242
 30
0.0
 40
48.00000000000004
100
AcDbArc
 50
90.0
 51
104.0346479352
  0
ARC
  5
15E
330
1F
100
AcDbEntity
  8
0
  6
CONTINUOUS
 62
     7
100
AcDbCircle
 10
195.060867991
 20
123.4773461242
 30
0.0
 40
48.00000000000003
100
AcDbArc
 50
255.9653520648
 51
270.0
  0
ARC
  5
15F
330
1F
100
AcDbEntity
  8
0
  6
CONTINUOUS
 62
     7
100
AcDbCircle
 10
203.3302819453
 20
85.4773461242
 30
0.0
 40
10.0
100
AcDbArc
 50
270.0
 51
301.9527464003
  0
ARC
  5
160
330
1F
100
AcDbEntity
  8
0
  6
CONTINUOUS
 62
     7
100
AcDbCircle
 10
212.0624065436
 20
71.4773461242
 30
0.0
 40
6.50000000000001
100
AcDbArc
 50
58.0472535997
 51
121.9527464003
  0
ARC
  5
161
330
1F
100
AcDbEntity
  8
0
  6
CONTINUOUS
 62
     7
100
AcDbCircle
 10
220.7945311419
 20
85.4773461242
 30
0.0
 40
10.0
100
AcDbArc
 50
238.0472535997
 51
270.0
  0
LINE
  5
162
330
1F
100
AcDbEntity
  8
0
  6
CONTINUOUS
 62
     7
100
AcDbLine
 10
262.8766132712
 20
67.4773463837
 30
0.0
 11
305.1342053532
 21
67.4773463837
 31
0.0
  0
LINE
  5
163
330
1F
100
AcDbEntity
  8
0
  6
CONTINUOUS
 62
     7
100
AcDbLine
 10
329.0639503121
 20
75.477347695
 30
0.0
 11
318.9906163335
 21
75.477347695
 31
0.0
  0
LINE
  5
164
330
1F
100
AcDbEntity
  8
0
  6
CONTINUOUS
 62
     7
100
AcDbLine
 10
318.9906163335
 20
67.4773463837
 30
0.0
 11
329.0639503121
 21
67.4773463837
 31
0.0
  0
LINE
  5
165
330
1F
100
AcDbEntity
  8
0
  6
CONTINUOUS
 62
     7
100
AcDbLine
 10
305.1342053532
 20
75.477347695
 30
0.0
 11
262.8766132712
 21
75.477347695
 31
0.0
  0
LINE
  5
166
330
1F
100
AcDbEntity
  8
0
  6
CONTINUOUS
 62
     7
100
AcDbLine
 10
203.3302841902
 20
75.477347695
 30
0.0
 11
195.0608698845
 21
75.477347695
 31
0.0
  0
LINE
  5
167
330
1F
100
AcDbEntity
  8
0
  6
CONTINUOUS
 62
     7
100
AcDbLine
 10
261.2481994748
 20
75.477347695
 30
0.0
 11
220.7945270657
 21
75.477347695
 31
0.0
  0
ARC
  5
168
330
1F
100
AcDbEntity
  8
0
  6
CONTINUOUS
 62
     7
100
AcDbCircle
 10
182.0624065436
 20
71.4773461242
 30
0.0
 40
5.600000000000009
100
AcDbArc
 50
75.9653520648
 51
284.0346479352
  0
CIRCLE
  5
169
330
1F
100
AcDbEntity
  8
0
  6
CONTINUOUS
 62
     7
100
AcDbCircle
 10
210.9353835707
 20
51.732326838
 30
0.0
 40
1.400000000000006
  0
CIRCLE
  5
16A
330
1F
100
AcDbEntity
  8
0
  6
CONTINUOUS
 62
     7
100
AcDbCircle
 10
180.9353835707
 20
51.732326838
 30
0.0
 40
2.498076211353265
  0
LINE
  5
16B
330
1F
100
AcDbEntity
  8
0
  6
CONTINUOUS
 62
     7
100
AcDbLine
 10
312.6674277902
 20
51.7323249809
 30
0.0
 11
311.8014021039
 21
53.2323280207
 31
0.0
  0
LINE
  5
16C
330
1F
100
AcDbEntity
  8
0
  6
CONTINUOUS
 62
     7
100
AcDbLine
 10
311.8014021039
 20
53.2323280207
 30
0.0
 11
310.0693507314
 21
53.2323280207
 31
0.0
  0
LINE
  5
16D
330
1F
100
AcDbEntity
  8
0
  6
CONTINUOUS
 62
     7
100
AcDbLine
 10
310.0693507314
 20
53.2323280207
 30
0.0
 11
309.2033399463
 21
51.7323249809
 31
0.0
  0
LINE
  5
16E
330
1F
100
AcDbEntity
  8
0
  6
CONTINUOUS
 62
     7
100
AcDbLine
 10
309.2033399463
 20
51.7323249809
 30
0.0
 11
310.0693507314
 21
50.2323256663
 31
0.0
  0
LINE
  5
16F
330
1F
100
AcDbEntity
  8
0
  6
CONTINUOUS
 62
     7
100
AcDbLine
 10
310.0693507314
 20
50.2323256663
 30
0.0
 11
311.8014021039
 21
50.2323256663
 31
0.0
  0
LINE
  5
170
330
1F
100
AcDbEntity
  8
0
  6
CONTINUOUS
 62
     7
100
AcDbLine
 10
311.8014021039
 20
50.2323256663
 30
0.0
 11
312.6674277902
 21
51.7323249809
 31
0.0
  0
CIRCLE
  5
171
330
1F
100
AcDbEntity
  8
0
  6
CONTINUOUS
 62
     7
100
AcDbCircle
 10
340.9353835707
 20
51.732326838
 30
0.0
 40
2.498076211353236
  0
ARC
  5
172
330
1F
100
AcDbEntity
  8
0
  6
CONTINUOUS
 62
     7
100
AcDbCircle
 10
260.1211700083
 20
56.732326838
 30
0.0
 40
1.000000000000003
100
AcDbArc
 50
270.0
 51
315.0
  0
LINE
  5
173
330
1F
100
AcDbEntity
  8
0
  6
CONTINUOUS
 62
     7
100
AcDbLine
 10
260.9353793979
 20
56.1323286823
 30
0.0
 11
260.8282698512
 21
56.0252191357
 31
0.0
  0
LINE
  5
174
330
1F
100
AcDbEntity
  8
0
  6
CONTINUOUS
 62
     7
100
AcDbLine
 10
261.0424889445
 20
56.0252191357
 30
0.0
 11
260.9353793979
 21
56.1323286823
 31
0.0
  0
ARC
  5
175
330
1F
100
AcDbEntity
  8
0
  6
CONTINUOUS
 62
     7
100
AcDbCircle
 10
261.7495971331
 20
56.732326838
 30
0.0
 40
0.9999999999999787
100
AcDbArc
 50
225.0
 51
270.0
  0
LINE
  5
176
330
1F
100
AcDbEntity
  8
0
  6
CONTINUOUS
 62
     7
100
AcDbLine
 10
304.0071858287
 20
55.7323256365
 30
0.0
 11
261.7495937466
 21
55.7323256365
 31
0.0
  0
ARC
  5
177
330
1F
100
AcDbEntity
  8
0
  6
CONTINUOUS
 62
     7
100
AcDbCircle
 10
304.0071803404
 20
58.732326838
 30
0.0
 40
2.999999999999989
100
AcDbArc
 50
270.0
 51
330.0
  0
LINE
  5
178
330
1F
100
AcDbEntity
  8
0
  6
CONTINUOUS
 62
     7
100
AcDbLine
 10
307.1826083779
 20
58.2323269776
 30
0.0
 11
306.6052628875
 21
57.2323286764
 31
0.0
  0
LINE
  5
179
330
1F
100
AcDbEntity
  8
0
  6
CONTINUOUS
 62
     7
100
AcDbLine
 10
314.6881593585
 20
58.2323269776
 30
0.0
 11
307.1826083779
 21
58.2323269776
 31
0.0
  0
LINE
  5
17A
330
1F
100
AcDbEntity
  8
0
  6
CONTINUOUS
 62
     7
100
AcDbLine
 10
315.2655048489
 20
57.2323286764
 30
0.0
 11
314.6881593585
 21
58.2323269776
 31
0.0
  0
ARC
  5
17B
330
1F
100
AcDbEntity
  8
0
  6
CONTINUOUS
 62
     7
100
AcDbCircle
 10
317.863586801
 20
58.732326838
 30
0.0
 40
2.999999999999979
100
AcDbArc
 50
210.0
 51
270.0
  0
LINE
  5
17C
330
1F
100
AcDbEntity
  8
0
  6
CONTINUOUS
 62
     7
100
AcDbLine
 10
327.9369158864
 20
55.7323256365
 30
0.0
 11
317.8635819077
 21
55.7323256365
 31
0.0
  0
ARC
  5
17D
330
1F
100
AcDbEntity
  8
0
  6
CONTINUOUS
 62
     7
100
AcDbCircle
 10
327.9369221233
 20
103.732326838
 30
0.0
 40
47.99999999999999
100
AcDbArc
 50
270.0
 51
284.0346479352
  0
ARC
  5
17E
330
1F
100
AcDbEntity
  8
0
  6
CONTINUOUS
 62
     7
100
AcDbCircle
 10
340.9353835707
 20
51.732326838
 30
0.0
 40
5.600000000000022
100
AcDbArc
 50
255.9653520648
 51
104.0346479352
  0
ARC
  5
17F
330
1F
100
AcDbEntity
  8
0
  6
CONTINUOUS
 62
     7
100
AcDbCircle
 10
327.9369221233
 20
-0.267673162
 30
0.0
 40
47.99999999999999
100
AcDbArc
 50
75.9653520648
 51
90.0
  0
LINE
  5
180
330
1F
100
AcDbEntity
  8
0
  6
CONTINUOUS
 62
     7
100
AcDbLine
 10
317.8635819077
 20
47.7323280505
 30
0.0
 11
327.9369158864
 21
47.7323280505
 31
0.0
  0
ARC
  5
181
330
1F
100
AcDbEntity
  8
0
  6
CONTINUOUS
 62
     7
100
AcDbCircle
 10
317.863586801
 20
44.732326838
 30
0.0
 40
3.0
100
AcDbArc
 50
90.0
 51
150.0
  0
LINE
  5
182
330
1F
100
AcDbEntity
  8
0
  6
CONTINUOUS
 62
     7
100
AcDbLine
 10
314.6881593585
 20
45.2323267094
 30
0.0
 11
315.2655048489
 21
46.2323250107
 31
0.0
  0
LINE
  5
183
330
1F
100
AcDbEntity
  8
0
  6
CONTINUOUS
 62
     7
100
AcDbLine
 10
307.1826083779
 20
45.2323267094
 30
0.0
 11
314.6881593585
 21
45.2323267094
 31
0.0
  0
LINE
  5
184
330
1F
100
AcDbEntity
  8
0
  6
CONTINUOUS
 62
     7
100
AcDbLine
 10
306.6052628875
 20
46.2323250107
 30
0.0
 11
307.1826083779
 21
45.2323267094
 31
0.0
  0
ARC
  5
185
330
1F
100
AcDbEntity
  8
0
  6
CONTINUOUS
 62
     7
100
AcDbCircle
 10
304.0071803404
 20
44.732326838
 30
0.0
 40
3.0
100
AcDbArc
 50
30.0
 51
90.0
  0
LINE
  5
186
330
1F
100
AcDbEntity
  8
0
  6
CONTINUOUS
 62
     7
100
AcDbLine
 10
261.7495937466
 20
47.7323280505
 30
0.0
 11
304.0071858287
 21
47.7323280505
 31
0.0
  0
ARC
  5
187
330
1F
100
AcDbEntity
  8
0
  6
CONTINUOUS
 62
     7
100
AcDbCircle
 10
261.7495971331
 20
46.732326838
 30
0.0
 40
1.0
100
AcDbArc
 50
90.0
 51
135.0
  0
LINE
  5
188
330
1F
100
AcDbEntity
  8
0
  6
CONTINUOUS
 62
     7
100
AcDbLine
 10
260.9353793979
 20
47.3323250047
 30
0.0
 11
261.0424889445
 21
47.4394345514
 31
0.0
  0
LINE
  5
189
330
1F
100
AcDbEntity
  8
0
  6
CONTINUOUS
 62
     7
100
AcDbLine
 10
260.8282698512
 20
47.4394345514
 30
0.0
 11
260.9353793979
 21
47.3323250047
 31
0.0
  0
ARC
  5
18A
330
1F
100
AcDbEntity
  8
0
  6
CONTINUOUS
 62
     7
100
AcDbCircle
 10
260.1211700083
 20
46.732326838
 30
0.0
 40
1.0
100
AcDbArc
 50
45.0
 51
90.0
  0
LINE
  5
18B
330
1F
100
AcDbEntity
  8
0
  6
CONTINUOUS
 62
     7
100
AcDbLine
 10
219.6675075412
 20
47.7323280505
 30
0.0
 11
260.1211650491
 21
47.7323280505
 31
0.0
  0
ARC
  5
18C
330
1F
100
AcDbEntity
  8
0
  6
CONTINUOUS
 62
     7
100
AcDbCircle
 10
219.667508169
 20
37.732326838
 30
0.0
 40
10.00000000000001
100
AcDbArc
 50
90.0
 51
121.9527464003
  0
ARC
  5
18D
330
1F
100
AcDbEntity
  8
0
  6
CONTINUOUS
 62
     7
100
AcDbCircle
 10
210.9353835707
 20
51.732326838
 30
0.0
 40
6.50000000000002
100
AcDbArc
 50
238.0472535997
 51
301.9527464003
  0
ARC
  5
18E
330
1F
100
AcDbEntity
  8
0
  6
CONTINUOUS
 62
     7
100
AcDbCircle
 10
202.2032589724
 20
37.732326838
 30
0.0
 40
10.00000000000001
100
AcDbArc
 50
58.0472535997
 51
90.0
  0
LINE
  5
18F
330
1F
100
AcDbEntity
  8
0
  6
CONTINUOUS
 62
     7
100
AcDbLine
 10
193.9338429093
 20
47.7323280505
 30
0.0
 11
202.203257215
 21
47.7323280505
 31
0.0
  0
ARC
  5
190
330
1F
100
AcDbEntity
  8
0
  6
CONTINUOUS
 62
     7
100
AcDbCircle
 10
193.9338450181
 20
-0.267673162
 30
0.0
 40
47.99999999999999
100
AcDbArc
 50
90.0
 51
104.0346479352
  0
ARC
  5
191
330
1F
100
AcDbEntity
  8
0
  6
CONTINUOUS
 62
     7
100
AcDbCircle
 10
180.9353835707
 20
51.732326838
 30
0.0
 40
5.600000000000022
100
AcDbArc
 50
75.9653520648
 51
284.0346479352
  0
ARC
  5
192
330
1F
100
AcDbEntity
  8
0
  6
CONTINUOUS
 62
     7
100
AcDbCircle
 10
193.9338450181
 20
103.732326838
 30
0.0
 40
47.99999999999999
100
AcDbArc
 50
255.9653520648
 51
270.0
  0
LINE
  5
193
330
1F
100
AcDbEntity
  8
0
  6
CONTINUOUS
 62
     7
100
AcDbLine
 10
202.203257215
 20
55.7323256365
 30
0.0
 11
193.9338429093
 21
55.7323256365
 31
0.0
  0
ARC
  5
194
330
1F
100
AcDbEntity
  8
0
  6
CONTINUOUS
 62
     7
100
AcDbCircle
 10
202.2032589724
 20
65.732326838
 30
0.0
 40
10.0
100
AcDbArc
 50
270.0
 51
301.9527464003
  0
ARC
  5
195
330
1F
100
AcDbEntity
  8
0
  6
CONTINUOUS
 62
     7
100
AcDbCircle
 10
210.9353835707
 20
51.732326838
 30
0.0
 40
6.499999999999995
100
AcDbArc
 50
58.0472535997
 51
121.9527464003
  0
LINE
  5
196
330
1F
100
AcDbEntity
  8
0
  6
CONTINUOUS
 62
     7
100
AcDbLine
 10
260.1211650491
 20
55.7323256365
 30
0.0
 11
219.6675075412
 21
55.7323256365
 31
0.0
  0
ARC
  5
197
330
1F
100
AcDbEntity
  8
0
  6
CONTINUOUS
 62
     7
100
AcDbCircle
 10
219.667508169
 20
65.732326838
 30
0.0
 40
10.0
100
AcDbArc
 50
238.0472535997
 51
270.0
  0
CIRCLE
  5
198
330
1F
100
AcDbEntity
  8
0
  6
CONTINUOUS
 62
     7
100
AcDbCircle
 10
211.2600366764
 20
151.4568017319
 30
0.0
 40
1.400000000000006
  0
CIRCLE
  5
199
330
1F
100
AcDbEntity
  8
0
  6
CONTINUOUS
 62
     7
100
AcDbCircle
 10
181.2600366764
 20
151.4568017319
 30
0.0
 40
2.49807621135335
  0
LINE
  5
19A
330
1F
100
AcDbEntity
  8
0
  6
CONTINUOUS
 62
     7
100
AcDbLine
 10
312.9920942902
 20
151.4567965499
 30
0.0
 11
312.126068604
 21
152.9568070404
 31
0.0
  0
LINE
  5
19B
330
1F
100
AcDbEntity
  8
0
  6
CONTINUOUS
 62
     7
100
AcDbLine
 10
312.126068604
 20
152.9568070404
 30
0.0
 11
310.3940172315
 21
152.9568070404
 31
0.0
  0
LINE
  5
19C
330
1F
100
AcDbEntity
  8
0
  6
CONTINUOUS
 62
     7
100
AcDbLine
 10
310.3940172315
 20
152.9568070404
 30
0.0
 11
309.5279915452
 21
151.4567965499
 31
0.0
  0
LINE
  5
19D
330
1F
100
AcDbEntity
  8
0
  6
CONTINUOUS
 62
     7
100
AcDbLine
 10
310.3940172315
 20
149.9568009607
 30
0.0
 11
312.126068604
 21
149.9568009607
 31
0.0
  0
LINE
  5
19E
330
1F
100
AcDbEntity
  8
0
  6
CONTINUOUS
 62
     7
100
AcDbLine
 10
312.126068604
 20
149.9568009607
 30
0.0
 11
312.9920942902
 21
151.4567965499
 31
0.0
  0
CIRCLE
  5
19F
330
1F
100
AcDbEntity
  8
0
  6
CONTINUOUS
 62
     7
100
AcDbCircle
 10
341.2600366764
 20
151.4568017319
 30
0.0
 40
2.49807621135335
  0
ARC
  5
1A0
330
1F
100
AcDbEntity
  8
0
  6
CONTINUOUS
 62
     7
100
AcDbCircle
 10
260.445823114
 20
156.4568017319
 30
0.0
 40
1.0
100
AcDbArc
 50
270.0
 51
315.0
  0
LINE
  5
1A1
330
1F
100
AcDbEntity
  8
0
  6
CONTINUOUS
 62
     7
100
AcDbLine
 10
261.2600309968
 20
155.8567965261
 30
0.0
 11
261.1529363513
 21
155.7497018806
 31
0.0
  0
LINE
  5
1A2
330
1F
100
AcDbEntity
  8
0
  6
CONTINUOUS
 62
     7
100
AcDbLine
 10
261.3671405434
 20
155.7497018806
 30
0.0
 11
261.2600309968
 21
155.8567965261
 31
0.0
  0
ARC
  5
1A3
330
1F
100
AcDbEntity
  8
0
  6
CONTINUOUS
 62
     7
100
AcDbCircle
 10
262.0742502387
 20
156.4568017319
 30
0.0
 40
1.0
100
AcDbArc
 50
225.0
 51
270.0
  0
ARC
  5
1A4
330
1F
100
AcDbEntity
  8
0
  6
CONTINUOUS
 62
     7
100
AcDbCircle
 10
304.3318334461
 20
158.4568017319
 30
0.0
 40
3.0
100
AcDbArc
 50
270.0
 51
330.0
  0
LINE
  5
1A5
330
1F
100
AcDbEntity
  8
0
  6
CONTINUOUS
 62
     7
100
AcDbLine
 10
307.5072599769
 20
157.956802272
 30
0.0
 11
306.9299144864
 21
156.9568002454
 31
0.0
  0
LINE
  5
1A6
330
1F
100
AcDbEntity
  8
0
  6
CONTINUOUS
 62
     7
100
AcDbLine
 10
315.0128109574
 20
157.956802272
 30
0.0
 11
307.5072599769
 21
157.956802272
 31
0.0
  0
LINE
  5
1A7
330
1F
100
AcDbEntity
  8
0
  6
CONTINUOUS
 62
     7
100
AcDbLine
 10
315.5901564479
 20
156.9568002454
 30
0.0
 11
315.0128109574
 21
157.956802272
 31
0.0
  0
ARC
  5
1A8
330
1F
100
AcDbEntity
  8
0
  6
CONTINUOUS
 62
     7
100
AcDbCircle
 10
318.1882399066
 20
158.4568017319
 30
0.0
 40
3.0
100
AcDbArc
 50
210.0
 51
270.0
  0
ARC
  5
1A9
330
1F
100
AcDbEntity
  8
0
  6
CONTINUOUS
 62
     7
100
AcDbCircle
 10
328.261575229
 20
203.4568017319
 30
0.0
 40
48.00000000000003
100
AcDbArc
 50
270.0
 51
284.0346479352
  0
ARC
  5
1AA
330
1F
100
AcDbEntity
  8
0
  6
CONTINUOUS
 62
     7
100
AcDbCircle
 10
341.2600366764
 20
151.4568017319
 30
0.0
 40
5.600000000000009
100
AcDbArc
 50
255.9653520648
 51
104.0346479352
  0
ARC
  5
1AB
330
1F
100
AcDbEntity
  8
0
  6
CONTINUOUS
 62
     7
100
AcDbCircle
 10
328.261575229
 20
99.4568017319
 30
0.0
 40
48.00000000000001
100
AcDbArc
 50
75.9653520648
 51
90.0
  0
ARC
  5
1AC
330
1F
100
AcDbEntity
  8
0
  6
CONTINUOUS
 62
     7
100
AcDbCircle
 10
318.1882399066
 20
144.4568017319
 30
0.0
 40
3.0
100
AcDbArc
 50
90.0
 51
150.0
  0
LINE
  5
1AD
330
1F
100
AcDbEntity
  8
0
  6
CONTINUOUS
 62
     7
100
AcDbLine
 10
315.0128109574
 20
144.9568057291
 30
0.0
 11
315.5901564479
 21
145.9568077556
 31
0.0
  0
LINE
  5
1AE
330
1F
100
AcDbEntity
  8
0
  6
CONTINUOUS
 62
     7
100
AcDbLine
 10
307.5072599769
 20
144.9568057291
 30
0.0
 11
315.0128109574
 21
144.9568057291
 31
0.0
  0
LINE
  5
1AF
330
1F
100
AcDbEntity
  8
0
  6
CONTINUOUS
 62
     7
100
AcDbLine
 10
306.9299144864
 20
145.9568077556
 30
0.0
 11
307.5072599769
 21
144.9568057291
 31
0.0
  0
ARC
  5
1B0
330
1F
100
AcDbEntity
  8
0
  6
CONTINUOUS
 62
     7
100
AcDbCircle
 10
304.3318334461
 20
144.4568017319
 30
0.0
 40
3.0
100
AcDbArc
 50
30.0
 51
90.0
  0
ARC
  5
1B1
330
1F
100
AcDbEntity
  8
0
  6
CONTINUOUS
 62
     7
100
AcDbCircle
 10
262.0742502387
 20
146.4568017319
 30
0.0
 40
1.000000000000008
100
AcDbArc
 50
90.0
 51
135.0
  0
LINE
  5
1B2
330
1F
100
AcDbEntity
  8
0
  6
CONTINUOUS
 62
     7
100
AcDbLine
 10
261.2600309968
 20
147.0567965738
 30
0.0
 11
261.3671405434
 21
147.1639061204
 31
0.0
  0
LINE
  5
1B3
330
1F
100
AcDbEntity
  8
0
  6
CONTINUOUS
 62
     7
100
AcDbLine
 10
261.1529363513
 20
147.1639061204
 30
0.0
 11
261.2600309968
 21
147.0567965738
 31
0.0
  0
ARC
  5
1B4
330
1F
100
AcDbEntity
  8
0
  6
CONTINUOUS
 62
     7
100
AcDbCircle
 10
260.445823114
 20
146.4568017319
 30
0.0
 40
1.000000000000008
100
AcDbArc
 50
45.0
 51
90.0
  0
ARC
  5
1B5
330
1F
100
AcDbEntity
  8
0
  6
CONTINUOUS
 62
     7
100
AcDbCircle
 10
219.9921612747
 20
137.4568017319
 30
0.0
 40
10.0
100
AcDbArc
 50
90.0
 51
121.9527464003
  0
ARC
  5
1B6
330
1F
100
AcDbEntity
  8
0
  6
CONTINUOUS
 62
     7
100
AcDbCircle
 10
211.2600366764
 20
151.4568017319
 30
0.0
 40
6.50000000000002
100
AcDbArc
 50
238.0472535997
 51
301.9527464003
  0
ARC
  5
1B7
330
1F
100
AcDbEntity
  8
0
  6
CONTINUOUS
 62
     7
100
AcDbCircle
 10
202.5279120781
 20
137.4568017319
 30
0.0
 40
10.00000000000001
100
AcDbArc
 50
58.0472535997
 51
90.0
  0
LINE
  5
1B8
330
1F
100
AcDbEntity
  8
0
  6
CONTINUOUS
 62
     7
100
AcDbLine
 10
194.2584945083
 20
147.4568033449
 30
0.0
 11
202.5279088139
 21
147.4568033449
 31
0.0
  0
ARC
  5
1B9
330
1F
100
AcDbEntity
  8
0
  6
CONTINUOUS
 62
     7
100
AcDbCircle
 10
194.2584981238
 20
99.4568017319
 30
0.0
 40
48.00000000000001
100
AcDbArc
 50
90.0
 51
104.0346479352
  0
ARC
  5
1BA
330
1F
100
AcDbEntity
  8
0
  6
CONTINUOUS
 62
     7
100
AcDbCircle
 10
181.2600366764
 20
151.4568017319
 30
0.0
 40
5.600000000000001
100
AcDbArc
 50
75.9653520648
 51
284.0346479352
  0
ARC
  5
1BB
330
1F
100
AcDbEntity
  8
0
  6
CONTINUOUS
 62
     7
100
AcDbCircle
 10
194.2584981238
 20
203.4568017319
 30
0.0
 40
48.00000000000003
100
AcDbArc
 50
255.9653520648
 51
270.0
  0
ARC
  5
1BC
330
1F
100
AcDbEntity
  8
0
  6
CONTINUOUS
 62
     7
100
AcDbCircle
 10
219.9921612747
 20
165.4568017319
 30
0.0
 40
10.0
100
AcDbArc
 50
238.0472535997
 51
270.0
  0
LINE
  5
1BD
330
1F
100
AcDbEntity
  8
0
  6
CONTINUOUS
 62
     7
100
AcDbLine
 10
262.0742453456
 20
147.4568033449
 30
0.0
 11
304.3318374276
 21
147.4568033449
 31
0.0
  0
LINE
  5
1BE
330
1F
100
AcDbEntity
  8
0
  6
CONTINUOUS
 62
     7
100
AcDbLine
 10
309.5279915452
 20
151.4567965499
 30
0.0
 11
310.3940172315
 21
149.9568009607
 31
0.0
  0
LINE
  5
1BF
330
1F
100
AcDbEntity
  8
0
  6
CONTINUOUS
 62
     7
100
AcDbLine
 10
318.1882335067
 20
147.4568033449
 30
0.0
 11
328.2615823865
 21
147.4568033449
 31
0.0
  0
LINE
  5
1C0
330
1F
100
AcDbEntity
  8
0
  6
CONTINUOUS
 62
     7
100
AcDbLine
 10
304.3318374276
 20
155.4568046562
 30
0.0
 11
262.0742453456
 21
155.4568046562
 31
0.0
  0
LINE
  5
1C1
330
1F
100
AcDbEntity
  8
0
  6
CONTINUOUS
 62
     7
100
AcDbLine
 10
219.9921591401
 20
147.4568033449
 30
0.0
 11
260.445816648
 21
147.4568033449
 31
0.0
  0
LINE
  5
1C2
330
1F
100
AcDbEntity
  8
0
  6
CONTINUOUS
 62
     7
100
AcDbLine
 10
202.5279088139
 20
155.4568046562
 30
0.0
 11
194.2584945083
 21
155.4568046562
 31
0.0
  0
LINE
  5
1C3
330
1F
100
AcDbEntity
  8
0
  6
CONTINUOUS
 62
     7
100
AcDbLine
 10
260.445816648
 20
155.4568046562
 30
0.0
 11
219.9921591401
 21
155.4568046562
 31
0.0
  0
ARC
  5
1C4
330
1F
100
AcDbEntity
  8
0
  6
CONTINUOUS
 62
     7
100
AcDbCircle
 10
211.2600366764
 20
151.4568017319
 30
0.0
 40
6.50000000000002
100
AcDbArc
 50
58.0472535997
 51
121.9527464003
  0
ARC
  5
1C5
330
1F
100
AcDbEntity
  8
0
  6
CONTINUOUS
 62
     7
100
AcDbCircle
 10
202.5279120781
 20
165.4568017319
 30
0.0
 40
10.00000000000003
100
AcDbArc
 50
270.0
 51
301.9527464003
  0
LINE
  5
1C6
330
1F
100
AcDbEntity
  8
0
  6
CONTINUOUS
 62
     7
100
AcDbLine
 10
328.2615823865
 20
155.4568046562
 30
0.0
 11
318.1882335067
 21
155.4568046562
 31
0.0
  0
CIRCLE
  5
1C7
330
1F
100
AcDbEntity
  8
0
  6
CONTINUOUS
 62
     7
100
AcDbCircle
 10
211.5527793607
 20
93.793019446
 30
0.0
 40
1.399999999999977
  0
CIRCLE
  5
1C8
330
1F
100
AcDbEntity
  8
0
  6
CONTINUOUS
 62
     7
100
AcDbCircle
 10
181.5527793607
 20
93.793019446
 30
0.0
 40
2.498076211353322
  0
LINE
  5
1C9
330
1F
100
AcDbEntity
  8
0
  6
CONTINUOUS
 62
     7
100
AcDbLine
 10
313.2848276019
 20
93.7930205695
 30
0.0
 11
312.4188019156
 21
95.2930161587
 31
0.0
  0
LINE
  5
1CA
330
1F
100
AcDbEntity
  8
0
  6
CONTINUOUS
 62
     7
100
AcDbLine
 10
312.4188019156
 20
95.2930161587
 30
0.0
 11
310.6867505431
 21
95.2930161587
 31
0.0
  0
LINE
  5
1CB
330
1F
100
AcDbEntity
  8
0
  6
CONTINUOUS
 62
     7
100
AcDbLine
 10
309.8207248568
 20
93.7930205695
 30
0.0
 11
310.6867505431
 21
92.2930175296
 31
0.0
  0
LINE
  5
1CC
330
1F
100
AcDbEntity
  8
0
  6
CONTINUOUS
 62
     7
100
AcDbLine
 10
310.6867505431
 20
92.2930175296
 30
0.0
 11
312.4188019156
 21
92.2930175296
 31
0.0
  0
LINE
  5
1CD
330
1F
100
AcDbEntity
  8
0
  6
CONTINUOUS
 62
     7
100
AcDbLine
 10
312.4188019156
 20
92.2930175296
 30
0.0
 11
313.2848276019
 21
93.7930205695
 31
0.0
  0
CIRCLE
  5
1CE
330
1F
100
AcDbEntity
  8
0
  6
CONTINUOUS
 62
     7
100
AcDbCircle
 10
341.5527793607
 20
93.793019446
 30
0.0
 40
2.498076211353293
  0
ARC
  5
1CF
330
1F
100
AcDbEntity
  8
0
  6
CONTINUOUS
 62
     7
100
AcDbCircle
 10
260.7385657983
 20
98.793019446
 30
0.0
 40
1.0
100
AcDbArc
 50
270.0
 51
315.0
  0
LINE
  5
1D0
330
1F
100
AcDbEntity
  8
0
  6
CONTINUOUS
 62
     7
100
AcDbLine
 10
261.5527792096
 20
98.1930205456
 30
0.0
 11
261.4456696629
 21
98.085910999
 31
0.0
  0
LINE
  5
1D1
330
1F
100
AcDbEntity
  8
0
  6
CONTINUOUS
 62
     7
100
AcDbLine
 10
261.6598887563
 20
98.085910999
 30
0.0
 11
261.5527792096
 21
98.1930205456
 31
0.0
  0
ARC
  5
1D2
330
1F
100
AcDbEntity
  8
0
  6
CONTINUOUS
 62
     7
100
AcDbCircle
 10
262.366992923
 20
98.793019446
 30
0.0
 40
1.000000000000038
100
AcDbArc
 50
225.0
 51
270.0
  0
ARC
  5
1D3
330
1F
100
AcDbEntity
  8
0
  6
CONTINUOUS
 62
     7
100
AcDbCircle
 10
304.6245761304
 20
100.793019446
 30
0.0
 40
3.0
100
AcDbArc
 50
270.0
 51
330.0
  0
LINE
  5
1D4
330
1F
100
AcDbEntity
  8
0
  6
CONTINUOUS
 62
     7
100
AcDbLine
 10
307.8000081897
 20
100.2930188409
 30
0.0
 11
307.222647798
 21
99.2930168144
 31
0.0
  0
LINE
  5
1D5
330
1F
100
AcDbEntity
  8
0
  6
CONTINUOUS
 62
     7
100
AcDbLine
 10
315.3055591702
 20
100.2930188409
 30
0.0
 11
307.8000081897
 21
100.2930188409
 31
0.0
  0
LINE
  5
1D6
330
1F
100
AcDbEntity
  8
0
  6
CONTINUOUS
 62
     7
100
AcDbLine
 10
315.8829046607
 20
99.2930168144
 30
0.0
 11
315.3055591702
 21
100.2930188409
 31
0.0
  0
ARC
  5
1D7
330
1F
100
AcDbEntity
  8
0
  6
CONTINUOUS
 62
     7
100
AcDbCircle
 10
318.4809825909
 20
100.793019446
 30
0.0
 40
3.0
100
AcDbArc
 50
210.0
 51
270.0
  0
ARC
  5
1D8
330
1F
100
AcDbEntity
  8
0
  6
CONTINUOUS
 62
     7
100
AcDbCircle
 10
328.5543179132
 20
145.793019446
 30
0.0
 40
48.00000000000003
100
AcDbArc
 50
270.0
 51
284.0346479352
  0
ARC
  5
1D9
330
1F
100
AcDbEntity
  8
0
  6
CONTINUOUS
 62
     7
100
AcDbCircle
 10
341.5527793607
 20
93.793019446
 30
0.0
 40
5.600000000000009
100
AcDbArc
 50
255.9653520648
 51
104.0346479352
  0
ARC
  5
1DA
330
1F
100
AcDbEntity
  8
0
  6
CONTINUOUS
 62
     7
100
AcDbCircle
 10
328.5543179132
 20
41.793019446
 30
0.0
 40
48.00000000000001
100
AcDbArc
 50
75.9653520648
 51
90.0
  0
ARC
  5
1DB
330
1F
100
AcDbEntity
  8
0
  6
CONTINUOUS
 62
     7
100
AcDbCircle
 10
318.4809825909
 20
86.793019446
 30
0.0
 40
2.999999999999986
100
AcDbArc
 50
90.0
 51
150.0
  0
LINE
  5
1DC
330
1F
100
AcDbEntity
  8
0
  6
CONTINUOUS
 62
     7
100
AcDbLine
 10
315.3055591702
 20
87.293022298
 30
0.0
 11
315.8829046607
 21
88.293016874
 31
0.0
  0
LINE
  5
1DD
330
1F
100
AcDbEntity
  8
0
  6
CONTINUOUS
 62
     7
100
AcDbLine
 10
307.8000081897
 20
87.293022298
 30
0.0
 11
315.3055591702
 21
87.293022298
 31
0.0
  0
LINE
  5
1DE
330
1F
100
AcDbEntity
  8
0
  6
CONTINUOUS
 62
     7
100
AcDbLine
 10
307.222647798
 20
88.293016874
 30
0.0
 11
307.8000081897
 21
87.293022298
 31
0.0
  0
ARC
  5
1DF
330
1F
100
AcDbEntity
  8
0
  6
CONTINUOUS
 62
     7
100
AcDbCircle
 10
304.6245761304
 20
86.793019446
 30
0.0
 40
2.999999999999986
100
AcDbArc
 50
30.0
 51
90.0
  0
ARC
  5
1E0
330
1F
100
AcDbEntity
  8
0
  6
CONTINUOUS
 62
     7
100
AcDbCircle
 10
262.366992923
 20
88.793019446
 30
0.0
 40
1.000000000000068
100
AcDbArc
 50
90.0
 51
135.0
  0
LINE
  5
1E1
330
1F
100
AcDbEntity
  8
0
  6
CONTINUOUS
 62
     7
100
AcDbLine
 10
261.5527792096
 20
89.3930205933
 30
0.0
 11
261.6598887563
 21
89.5001226894
 31
0.0
  0
LINE
  5
1E2
330
1F
100
AcDbEntity
  8
0
  6
CONTINUOUS
 62
     7
100
AcDbLine
 10
261.4456696629
 20
89.5001226894
 30
0.0
 11
261.5527792096
 21
89.3930205933
 31
0.0
  0
ARC
  5
1E3
330
1F
100
AcDbEntity
  8
0
  6
CONTINUOUS
 62
     7
100
AcDbCircle
 10
260.7385657983
 20
88.793019446
 30
0.0
 40
1.000000000000028
100
AcDbArc
 50
45.0
 51
90.0
  0
ARC
  5
1E4
330
1F
100
AcDbEntity
  8
0
  6
CONTINUOUS
 62
     7
100
AcDbCircle
 10
220.2849039589
 20
79.793019446
 30
0.0
 40
10.0
100
AcDbArc
 50
90.0
 51
121.9527464003
  0
ARC
  5
1E5
330
1F
100
AcDbEntity
  8
0
  6
CONTINUOUS
 62
     7
100
AcDbCircle
 10
211.5527793607
 20
93.793019446
 30
0.0
 40
6.499999999999995
100
AcDbArc
 50
238.0472535997
 51
301.9527464003
  0
ARC
  5
1E6
330
1F
100
AcDbEntity
  8
0
  6
CONTINUOUS
 62
     7
100
AcDbCircle
 10
202.8206547624
 20
79.793019446
 30
0.0
 40
10.0
100
AcDbArc
 50
58.0472535997
 51
90.0
  0
LINE
  5
1E7
330
1F
100
AcDbEntity
  8
0
  6
CONTINUOUS
 62
     7
100
AcDbLine
 10
194.5512427211
 20
89.7930199138
 30
0.0
 11
202.8206570268
 21
89.7930199138
 31
0.0
  0
ARC
  5
1E8
330
1F
100
AcDbEntity
  8
0
  6
CONTINUOUS
 62
     7
100
AcDbCircle
 10
194.5512408081
 20
41.793019446
 30
0.0
 40
48.00000000000002
100
AcDbArc
 50
90.0
 51
104.0346479352
  0
ARC
  5
1E9
330
1F
100
AcDbEntity
  8
0
  6
CONTINUOUS
 62
     7
100
AcDbCircle
 10
181.5527793607
 20
93.793019446
 30
0.0
 40
5.600000000000009
100
AcDbArc
 50
75.9653520648
 51
284.0346479352
  0
ARC
  5
1EA
330
1F
100
AcDbEntity
  8
0
  6
CONTINUOUS
 62
     7
100
AcDbCircle
 10
194.5512408081
 20
145.793019446
 30
0.0
 40
48.00000000000003
100
AcDbArc
 50
255.9653520648
 51
270.0
  0
ARC
  5
1EB
330
1F
100
AcDbEntity
  8
0
  6
CONTINUOUS
 62
     7
100
AcDbCircle
 10
202.8206547624
 20
107.793019446
 30
0.0
 40
10.00000000000001
100
AcDbArc
 50
270.0
 51
301.9527464003
  0
ARC
  5
1EC
330
1F
100
AcDbEntity
  8
0
  6
CONTINUOUS
 62
     7
100
AcDbCircle
 10
211.5527793607
 20
93.793019446
 30
0.0
 40
6.50000000000002
100
AcDbArc
 50
58.0472535997
 51
121.9527464003
  0
ARC
  5
1ED
330
1F
100
AcDbEntity
  8
0
  6
CONTINUOUS
 62
     7
100
AcDbCircle
 10
220.2849039589
 20
107.793019446
 30
0.0
 40
10.00000000000001
100
AcDbArc
 50
238.0472535997
 51
270.0
  0
LINE
  5
1EE
330
1F
100
AcDbEntity
  8
0
  6
CONTINUOUS
 62
     7
100
AcDbLine
 10
310.6867505431
 20
95.2930161587
 30
0.0
 11
309.8207248568
 21
93.7930205695
 31
0.0
  0
LINE
  5
1EF
330
1F
100
AcDbEntity
  8
0
  6
CONTINUOUS
 62
     7
100
AcDbLine
 10
328.5543156981
 20
97.7930212251
 30
0.0
 11
318.4809817195
 21
97.7930212251
 31
0.0
  0
LINE
  5
1F0
330
1F
100
AcDbEntity
  8
0
  6
CONTINUOUS
 62
     7
100
AcDbLine
 10
318.4809817195
 20
89.7930199138
 30
0.0
 11
328.5543156981
 21
89.7930199138
 31
0.0
  0
LINE
  5
1F1
330
1F
100
AcDbEntity
  8
0
  6
CONTINUOUS
 62
     7
100
AcDbLine
 10
304.6245707393
 20
97.7930212251
 30
0.0
 11
262.3669935584
 21
97.7930212251
 31
0.0
  0
LINE
  5
1F2
330
1F
100
AcDbEntity
  8
0
  6
CONTINUOUS
 62
     7
100
AcDbLine
 10
220.2849073529
 20
89.7930199138
 30
0.0
 11
260.7385648608
 21
89.7930199138
 31
0.0
  0
LINE
  5
1F3
330
1F
100
AcDbEntity
  8
0
  6
CONTINUOUS
 62
     7
100
AcDbLine
 10
202.8206570268
 20
97.7930212251
 30
0.0
 11
194.5512427211
 21
97.7930212251
 31
0.0
  0
LINE
  5
1F4
330
1F
100
AcDbEntity
  8
0
  6
CONTINUOUS
 62
     7
100
AcDbLine
 10
260.7385648608
 20
97.7930212251
 30
0.0
 11
220.2849073529
 21
97.7930212251
 31
0.0
  0
LINE
  5
1F5
330
1F
100
AcDbEntity
  8
0
  6
CONTINUOUS
 62
     7
100
AcDbLine
 10
262.3669935584
 20
89.7930199138
 30
0.0
 11
304.6245707393
 21
89.7930199138
 31
0.0
  0
CIRCLE
  5
1F6
330
1F
100
AcDbEntity
  8
0
  6
CONTINUOUS
 62
     7
100
AcDbCircle
 10
111.0076867737
 20
207.7055829945
 30
0.0
 40
1.5
  0
CIRCLE
  5
1F7
330
1F
100
AcDbEntity
  8
0
  6
CONTINUOUS
 62
     7
100
AcDbCircle
 10
111.0076867737
 20
385.7455829945
 30
0.0
 40
1.500000000000057
  0
ARC
  5
1F8
330
1F
100
AcDbEntity
  8
0
  6
CONTINUOUS
 62
     7
100
AcDbCircle
 10
530.8543351001
 20
387.0455829945
 30
0.0
 40
2.850000000000081
100
AcDbArc
 50
211.7568638593
 51
148.2431361407
  0
LINE
  5
1F9
330
1F
100
AcDbEntity
  8
0
  6
CONTINUOUS
 62
     7
100
AcDbLine
 10
528.4310115695
 20
388.5455769788
 30
0.0
 11
526.0076953292
 21
388.5455769788
 31
0.0
  0
ARC
  5
1FA
330
1F
100
AcDbEntity
  8
0
  6
CONTINUOUS
 62
     7
100
AcDbCircle
 10
526.0076867737
 20
387.0455829945
 30
0.0
 40
1.5
100
AcDbArc
 50
90.0
 51
270.0
  0
LINE
  5
1FB
330
1F
100
AcDbEntity
  8
0
  6
CONTINUOUS
 62
     7
100
AcDbLine
 10
526.0076953292
 20
385.5455858003
 30
0.0
 11
528.4310115695
 21
385.5455858003
 31
0.0
  0
ARC
  5
1FC
330
1F
100
AcDbEntity
  8
0
  6
CONTINUOUS
 62
     7
100
AcDbCircle
 10
530.8543351001
 20
206.4055829945
 30
0.0
 40
2.849999999999888
100
AcDbArc
 50
211.7568638593
 51
148.2431361407
  0
LINE
  5
1FD
330
1F
100
AcDbEntity
  8
0
  6
CONTINUOUS
 62
     7
100
AcDbLine
 10
528.4310115695
 20
207.9055826481
 30
0.0
 11
526.0076953292
 21
207.9055826481
 31
0.0
  0
ARC
  5
1FE
330
1F
100
AcDbEntity
  8
0
  6
CONTINUOUS
 62
     7
100
AcDbCircle
 10
526.0076867737
 20
206.4055829945
 30
0.0
 40
1.5
100
AcDbArc
 50
90.0
 51
270.0
  0
LINE
  5
1FF
330
1F
100
AcDbEntity
  8
0
  6
CONTINUOUS
 62
     7
100
AcDbLine
 10
526.0076953292
 20
204.9055830877
 30
0.0
 11
528.4310115695
 21
204.9055830877
 31
0.0
  0
CIRCLE
  5
200
330
1F
100
AcDbEntity
  8
0
  6
CONTINUOUS
 62
     7
100
AcDbCircle
 10
142.0076867737
 20
385.7455829945
 30
0.0
 40
1.5
  0
CIRCLE
  5
201
330
1F
100
AcDbEntity
  8
0
  6
CONTINUOUS
 62
     7
100
AcDbCircle
 10
142.0076867737
 20
207.7055829945
 30
0.0
 40
1.5
  0
ARC
  5
202
330
1F
100
AcDbEntity
  8
0
  6
CONTINUOUS
 62
     7
100
AcDbCircle
 10
103.5076867737
 20
224.6340101192
 30
0.0
 40
2.0
100
AcDbArc
 50
315.0
 51
0.0
  0
LINE
  5
203
330
1F
100
AcDbEntity
  8
0
  6
CONTINUOUS
 62
     7
100
AcDbLine
 10
105.5076869398
 20
368.8171548139
 30
0.0
 11
105.5076869398
 21
224.6340108405
 31
0.0
  0
ARC
  5
204
330
1F
100
AcDbEntity
  8
0
  6
CONTINUOUS
 62
     7
100
AcDbCircle
 10
103.5076867737
 20
368.8171558697
 30
0.0
 40
2.000000000000066
100
AcDbArc
 50
0.0
 51
45.0
  0
ARC
  5
205
330
1F
100
AcDbEntity
  8
0
  6
CONTINUOUS
 62
     7
100
AcDbCircle
 10
104.5076867737
 20
373.4740101192
 30
0.0
 40
2.000000000000006
100
AcDbArc
 50
180.0
 51
225.0
  0
LINE
  5
206
330
1F
100
AcDbEntity
  8
0
  6
CONTINUOUS
 62
     7
100
AcDbLine
 10
102.5076864481
 20
390.6455827247
 30
0.0
 11
102.5076864481
 21
373.4740061056
 31
0.0
  0
ARC
  5
207
330
1F
100
AcDbEntity
  8
0
  6
CONTINUOUS
 62
     7
100
AcDbCircle
 10
104.5076867737
 20
390.6455829945
 30
0.0
 40
2.0
100
AcDbArc
 50
90.0
 51
180.0
  0
LINE
  5
208
330
1F
100
AcDbEntity
  8
0
  6
CONTINUOUS
 62
     7
100
AcDbLine
 10
152.5076871931
 20
392.6455867778
 30
0.0
 11
104.5076867759
 21
392.6455867778
 31
0.0
  0
ARC
  5
209
330
1F
100
AcDbEntity
  8
0
  6
CONTINUOUS
 62
     7
100
AcDbCircle
 10
164.3398463399
 20
394.6455829945
 30
0.0
 40
12.0
100
AcDbArc
 50
189.5940682269
 51
270.0
  0
LINE
  5
20A
330
1F
100
AcDbEntity
  8
0
  6
CONTINUOUS
 62
     7
100
AcDbLine
 10
164.3398462057
 20
382.6455814134
 30
0.0
 11
508.6755288958
 21
382.6455814134
 31
0.0
  0
ARC
  5
20B
330
1F
100
AcDbEntity
  8
0
  6
CONTINUOUS
 62
     7
100
AcDbCircle
 10
508.6755272075
 20
394.6455829945
 30
0.0
 40
12.0
100
AcDbArc
 50
270.0
 51
350.4059317731
  0
LINE
  5
20C
330
1F
100
AcDbEntity
  8
0
  6
CONTINUOUS
 62
     7
100
AcDbLine
 10
536.5076793551
 20
298.3838958036
 30
0.0
 11
536.5076793551
 21
392.6455867778
 31
0.0
  0
ARC
  5
20D
330
1F
100
AcDbEntity
  8
0
  6
CONTINUOUS
 62
     7
100
AcDbCircle
 10
534.0076867737
 20
296.7255829945
 30
0.0
 40
2.999999999999899
100
AcDbArc
 50
326.4426902381
 51
33.5573097619
  0
LINE
  5
20E
330
1F
100
AcDbEntity
  8
0
  6
CONTINUOUS
 62
     7
100
AcDbLine
 10
520.5076767325
 20
200.8055830676
 30
0.0
 11
536.5076793551
 21
200.8055830676
 31
0.0
  0
ARC
  5
20F
330
1F
100
AcDbEntity
  8
0
  6
CONTINUOUS
 62
     7
100
AcDbCircle
 10
508.6755272075
 20
198.8055829945
 30
0.0
 40
12.00000000000003
100
AcDbArc
 50
9.5940682269
 51
90.0
  0
LINE
  5
210
330
1F
100
AcDbEntity
  8
0
  6
CONTINUOUS
 62
     7
100
AcDbLine
 10
508.6755288958
 20
210.8055833097
 30
0.0
 11
164.3398462057
 21
210.8055833097
 31
0.0
  0
ARC
  5
211
330
1F
100
AcDbEntity
  8
0
  6
CONTINUOUS
 62
     7
100
AcDbCircle
 10
164.3398463399
 20
198.8055829945
 30
0.0
 40
12.00000000000003
100
AcDbArc
 50
90.0
 51
170.4059317731
  0
LINE
  5
212
330
1F
100
AcDbEntity
  8
0
  6
CONTINUOUS
 62
     7
100
AcDbLine
 10
104.5076867759
 20
200.8055830676
 30
0.0
 11
152.5076871931
 21
200.8055830676
 31
0.0
  0
ARC
  5
213
330
1F
100
AcDbEntity
  8
0
  6
CONTINUOUS
 62
     7
100
AcDbCircle
 10
104.5076867737
 20
202.8055829945
 30
0.0
 40
2.0
100
AcDbArc
 50
180.0
 51
270.0
  0
LINE
  5
214
330
1F
100
AcDbEntity
  8
0
  6
CONTINUOUS
 62
     7
100
AcDbLine
 10
102.5076864481
 20
219.9771558236
 30
0.0
 11
102.5076864481
 21
202.8055829297
 31
0.0
  0
ARC
  5
215
330
1F
100
AcDbEntity
  8
0
  6
CONTINUOUS
 62
     7
100
AcDbCircle
 10
104.5076867737
 20
219.9771558697
 30
0.0
 40
2.0
100
AcDbArc
 50
135.0
 51
180.0
  0
LINE
  5
216
330
1F
100
AcDbEntity
  8
0
  6
CONTINUOUS
 62
     7
100
AcDbLine
 10
104.9218999416
 20
223.2197956483
 30
0.0
 11
103.0934734464
 21
221.3913691532
 31
0.0
  0
CIRCLE
  5
217
330
1F
100
AcDbEntity
  8
0
  6
CONTINUOUS
 62
     7
100
AcDbCircle
 10
150.0076867737
 20
296.7255829945
 30
0.0
 40
1.499999999999943
  0
CIRCLE
  5
218
330
1F
100
AcDbEntity
  8
0
  6
CONTINUOUS
 62
     7
100
AcDbCircle
 10
534.0076867737
 20
296.7255829945
 30
0.0
 40
1.5
  0
ARC
  5
219
330
1F
100
AcDbEntity
  8
0
  6
CONTINUOUS
 62
     7
100
AcDbCircle
 10
352.0076867737
 20
236.8055829945
 30
0.0
 40
10.00000000000003
100
AcDbArc
 50
270.0
 51
0.0
  0
LINE
  5
21A
330
1F
100
AcDbEntity
  8
0
  6
CONTINUOUS
 62
     7
100
AcDbLine
 10
362.0076907992
 20
236.8055847775
 30
0.0
 11
362.0076907992
 21
356.6455883275
 31
0.0
  0
ARC
  5
21B
330
1F
100
AcDbEntity
  8
0
  6
CONTINUOUS
 62
     7
100
AcDbCircle
 10
352.0076867737
 20
356.6455829945
 30
0.0
 40
10.00000000000006
100
AcDbArc
 50
0.0
 51
90.0
  0
LINE
  5
21C
330
1F
100
AcDbEntity
  8
0
  6
CONTINUOUS
 62
     7
100
AcDbLine
 10
352.007700336
 20
366.6455787908
 30
0.0
 11
172.0076857328
 21
366.6455787908
 31
0.0
  0
ARC
  5
21D
330
1F
100
AcDbEntity
  8
0
  6
CONTINUOUS
 62
     7
100
AcDbCircle
 10
172.0076867737
 20
356.6455829945
 30
0.0
 40
10.0
100
AcDbArc
 50
90.0
 51
180.0
  0
LINE
  5
21E
330
1F
100
AcDbEntity
  8
0
  6
CONTINUOUS
 62
     7
100
AcDbLine
 10
162.007687819
 20
356.6455883275
 30
0.0
 11
162.007687819
 21
236.8055847775
 31
0.0
  0
ARC
  5
21F
330
1F
100
AcDbEntity
  8
0
  6
CONTINUOUS
 62
     7
100
AcDbCircle
 10
172.0076867737
 20
236.8055829945
 30
0.0
 40
10.0
100
AcDbArc
 50
180.0
 51
270.0
  0
LINE
  5
220
330
1F
100
AcDbEntity
  8
0
  6
CONTINUOUS
 62
     7
100
AcDbLine
 10
172.0076857328
 20
226.8055831384
 30
0.0
 11
352.007700336
 21
226.8055831384
 31
0.0
  0
ARC
  5
221
330
1F
100
AcDbEntity
  8
0
  6
CONTINUOUS
 62
     7
100
AcDbCircle
 10
136.899977362
 20
296.2644846526
 30
0.0
 40
0.6670074624058661
100
AcDbArc
 50
1.480203349
 51
43.7326179022
  0
LINE
  5
222
330
1F
100
AcDbEntity
  8
0
  6
CONTINUOUS
 62
     7
100
AcDbLine
 10
137.3819394231
 20
296.7255828272
 30
0.0
 11
132.5287765086
 21
301.5790325891
 31
0.0
  0
LWPOLYLINE
  5
223
330
1F
100
AcDbEntity
  8
0
  6
CONTINUOUS
 62
     7
100
AcDbPolyline
 90
       43
 70
   128
 43
0.0
 10
132.5287765086
 20
301.5790325891
 10
131.9454146743
 20
302.0979431759
 10
131.3420107782
 20
302.5937718641
 10
130.7125484764
 20
303.0590233694
 10
130.0511455357
 20
303.4797055017
 10
129.3544752717
 20
303.8346362602
 10
128.6202391803
 20
304.1031849872
 10
127.8556531489
 20
304.2770815383
 10
127.0739643097
 20
304.3559608351
 10
126.2878721773
 20
304.3403444182
 10
125.5066899776
 20
304.2346877347
 10
124.7386357009
 20
304.0447053801
 10
123.9919385135
 20
303.7761268507
 10
123.1356656372
 20
303.3581194769
 10
122.3357172876
 20
302.8449234854
 10
121.6019934237
 20
302.2452858578
 10
120.9425555736
 20
301.5674841892
 10
120.3654596776
 20
300.8197960745
 10
119.8787225604
 20
300.0105438124
 10
119.4892229706
 20
299.1495919715
 10
119.2023923814
 20
298.2487795245
 10
119.0235672712
 20
297.3200721036
 10
118.9580058873
 20
296.3754576932
 10
119.0073063791
 20
295.4276618849
 10
119.1679129571
 20
294.4905129563
 10
119.4358842641
 20
293.577891339
 10
119.8072752178
 20
292.7036923658
 10
120.2780829936
 20
291.8817294132
 10
120.8422856599
 20
291.1231187474
 10
121.4914007306
 20
290.4356909286
 10
122.2167948454
 20
289.8270753514
 10
123.0098365068
 20
289.3049014102
 10
123.8606760472
 20
288.8769996654
 10
124.755537343
 20
288.5518339764
 10
125.6798563719
 20
288.3379799615
 10
126.619065386
 20
288.2440281402
 10
127.5586357534
 20
288.2779357325
 10
128.4845790088
 20
288.4377357851
 10
129.3833574474
 20
288.7135339271
 10
130.2422864556
 20
289.0951377641
 10
131.0499629199
 20
289.5721984397
 10
131.8040138304
 20
290.1276168715
 10
132.5287765086
 20
290.7240954529
  0
LINE
  5
224
330
1F
100
AcDbEntity
  8
0
  6
CONTINUOUS
 62
     7
100
AcDbLine
 10
132.5287765086
 20
290.7240954529
 30
0.0
 11
137.3819394231
 21
295.8739442121
 31
0.0
  0
ARC
  5
225
330
1F
100
AcDbEntity
  8
0
  6
CONTINUOUS
 62
     7
100
AcDbCircle
 10
136.960288675
 20
296.3108292226
 30
0.0
 40
0.607172023182578
100
AcDbArc
 50
313.9834234204
 51
357.2515345329
  0
LINE
  5
226
330
1F
100
AcDbEntity
  8
0
  6
CONTINUOUS
 62
     7
100
AcDbLine
 10
139.3486766338
 20
303.9878350984
 30
0.0
 11
139.3486766338
 21
288.9090818654
 31
0.0
  0
ARC
  5
227
330
1F
100
AcDbEntity
  8
0
  6
CONTINUOUS
 62
     7
100
AcDbCircle
 10
139.6625935722
 20
288.8882068073
 30
0.0
 40
0.3146102544939244
100
AcDbArc
 50
176.1955083204
 51
229.5963829368
  0
LINE
  5
228
330
1F
100
AcDbEntity
  8
0
  6
CONTINUOUS
 62
     7
100
AcDbLine
 10
139.4586732805
 20
288.6486319195
 30
0.0
 11
142.3857419014
 21
285.721671332
 31
0.0
  0
LWPOLYLINE
  5
229
330
1F
100
AcDbEntity
  8
0
  6
CONTINUOUS
 62
     7
100
AcDbPolyline
 90
        9
 70
   128
 43
0.0
 10
142.3857419014
 20
285.721671332
 10
142.5354650438
 20
285.6354681145
 10
142.7085643828
 20
285.6246200692
 10
142.831297797
 20
285.6668723117
 10
142.9327560782
 20
285.7482997071
 10
142.9989097834
 20
285.8596635352
 10
143.0357044756
 20
285.9845948707
 10
143.0817378878
 20
286.2405372154
 10
143.0899223506
 20
286.5002868067
  0
LINE
  5
22A
330
1F
100
AcDbEntity
  8
0
  6
CONTINUOUS
 62
     7
100
AcDbLine
 10
143.0899223506
 20
286.5002868067
 30
0.0
 11
143.0899223506
 21
303.9878350984
 31
0.0
  0
ARC
  5
22B
330
1F
100
AcDbEntity
  8
0
  6
CONTINUOUS
 62
     7
100
AcDbCircle
 10
135.7615852123
 20
303.8084804253
 30
0.0
 40
7.33053158448837
100
AcDbArc
 50
1.4019844582
 51
88.6023445589
  0
LINE
  5
22C
330
1F
100
AcDbEntity
  8
0
  6
CONTINUOUS
 62
     7
100
AcDbLine
 10
135.940386188
 20
311.1368310939
 30
0.0
 11
118.4532253265
 21
311.1354229342
 31
0.0
  0
LWPOLYLINE
  5
22D
330
1F
100
AcDbEntity
  8
0
  6
CONTINUOUS
 62
     7
100
AcDbPolyline
 90
        9
 70
   128
 43
0.0
 10
118.4532253265
 20
311.1354229342
 10
118.1933248609
 20
311.1273763071
 10
117.9369298935
 20
311.0824642073
 10
117.812087965
 20
311.0453975688
 10
117.7012382269
 20
310.9780964743
 10
117.6197530895
 20
310.8765897642
 10
117.5775399625
 20
310.7537669431
 10
117.589095813
 20
310.5806005489
 10
117.6761614352
 20
310.4312462102
  0
LINE
  5
22E
330
1F
100
AcDbEntity
  8
0
  6
CONTINUOUS
 62
     7
100
AcDbLine
 10
117.6761614352
 20
310.4312462102
 30
0.0
 11
120.6030884951
 21
307.5056639801
 31
0.0
  0
ARC
  5
22F
330
1F
100
AcDbEntity
  8
0
  6
CONTINUOUS
 62
     7
100
AcDbCircle
 10
120.8309232206
 20
307.6783929364
 30
0.0
 40
0.2859089968706681
100
AcDbArc
 50
217.166955868
 51
276.245685083
  0
LINE
  5
230
330
1F
100
AcDbEntity
  8
0
  6
CONTINUOUS
 62
     7
100
AcDbLine
 10
120.8620278358
 20
307.3941809427
 30
0.0
 11
135.940386188
 21
307.395596553
 31
0.0
  0
ARC
  5
231
330
1F
100
AcDbEntity
  8
0
  6
CONTINUOUS
 62
     7
100
AcDbCircle
 10
135.9203101763
 20
303.9672269379
 30
0.0
 40
3.42842839557655
100
AcDbArc
 50
0.3444049554
 51
89.6644884524
  0
LINE
  5
232
330
1F
100
AcDbEntity
  8
0
  6
CONTINUOUS
 62
     7
100
AcDbLine
 10
117.1535907507
 20
288.6116919409
 30
0.0
 11
117.1535907507
 21
303.6900502931
 31
0.0
  0
ARC
  5
233
330
1F
100
AcDbEntity
  8
0
  6
CONTINUOUS
 62
     7
100
AcDbCircle
 10
116.8189820757
 20
303.7009208498
 30
0.0
 40
0.3347852063483853
100
AcDbArc
 50
358.1392651054
 51
48.2032105405
  0
LINE
  5
234
330
1F
100
AcDbEntity
  8
0
  6
CONTINUOUS
 62
     7
100
AcDbLine
 10
117.0421133011
 20
303.9505076896
 30
0.0
 11
114.1151601642
 21
306.8774682771
 31
0.0
  0
LWPOLYLINE
  5
235
330
1F
100
AcDbEntity
  8
0
  6
CONTINUOUS
 62
     7
100
AcDbPolyline
 90
        9
 70
   128
 43
0.0
 10
114.1151601642
 20
306.8774682771
 10
113.9654351592
 20
306.9636491429
 10
113.7923432708
 20
306.9745418917
 10
113.6696489721
 20
306.9322225939
 10
113.5683024496
 20
306.8506536375
 10
113.5019270897
 20
306.7394239198
 10
113.4647896707
 20
306.6145819913
 10
113.4196745425
 20
306.3585949432
 10
113.410979715
 20
306.0988528024
  0
LINE
  5
236
330
1F
100
AcDbEntity
  8
0
  6
CONTINUOUS
 62
     7
100
AcDbLine
 10
113.410979715
 20
306.0988528024
 30
0.0
 11
113.410979715
 21
288.6116919409
 31
0.0
  0
ARC
  5
237
330
1F
100
AcDbEntity
  8
0
  6
CONTINUOUS
 62
     7
100
AcDbCircle
 10
120.7396713684
 20
288.7910270142
 30
0.0
 40
7.330885514044456
100
AcDbArc
 50
181.4017635264
 51
268.6092368997
  0
LINE
  5
238
330
1F
100
AcDbEntity
  8
0
  6
CONTINUOUS
 62
     7
100
AcDbLine
 10
120.5617433607
 20
281.4623010646
 30
0.0
 11
138.0475593924
 21
281.4637092244
 31
0.0
  0
LWPOLYLINE
  5
239
330
1F
100
AcDbEntity
  8
0
  6
CONTINUOUS
 62
     7
100
AcDbPolyline
 90
        9
 70
   128
 43
0.0
 10
138.0475593924
 20
281.4637092244
 10
138.3074132919
 20
281.4718601595
 10
138.5635195494
 20
281.5177184831
 10
138.6884099066
 20
281.5547255169
 10
138.7996619761
 20
281.6212144982
 10
138.8811489761
 20
281.7226914059
 10
138.9233080864
 20
281.8455067765
 10
138.9119198739
 20
282.0186433684
 10
138.8247667074
 20
282.1678933989
  0
LINE
  5
23A
330
1F
100
AcDbEntity
  8
0
  6
CONTINUOUS
 62
     7
100
AcDbLine
 10
138.8247667074
 20
282.1678933989
 30
0.0
 11
135.8978023946
 21
285.0948167335
 31
0.0
  0
ARC
  5
23B
330
1F
100
AcDbEntity
  8
0
  6
CONTINUOUS
 62
     7
100
AcDbCircle
 10
135.6812836971
 20
284.9451502849
 30
0.0
 40
0.2632116870522388
100
AcDbArc
 50
34.6537905347
 51
99.2741416505
  0
LINE
  5
23C
330
1F
100
AcDbEntity
  8
0
  6
CONTINUOUS
 62
     7
100
AcDbLine
 10
135.6388649166
 20
285.2049214135
 30
0.0
 11
120.5617433607
 21
285.2037963759
 31
0.0
  0
ARC
  5
23D
330
1F
100
AcDbEntity
  8
0
  6
CONTINUOUS
 62
     7
100
AcDbCircle
 10
120.580641066
 20
288.6308481262
 30
0.0
 40
3.427103853530545
100
AcDbArc
 50
180.3202629196
 51
269.6840585273
  0
LINE
  5
23E
330
1F
100
AcDbEntity
  8
0
  6
CONTINUOUS
 62
     7
100
AcDbLine
 10
502.8576983333
 20
375.2955836545
 30
0.0
 11
502.8576983333
 21
373.9955765497
 31
0.0
  0
ARC
  5
23F
330
1F
100
AcDbEntity
  8
0
  6
CONTINUOUS
 62
     7
100
AcDbCircle
 10
503.5076867737
 20
373.9955829945
 30
0.0
 40
0.6500000000000341
100
AcDbArc
 50
180.0
 51
0.0
  0
LINE
  5
240
330
1F
100
AcDbEntity
  8
0
  6
CONTINUOUS
 62
     7
100
AcDbLine
 10
504.1576756358
 20
373.9955765497
 30
0.0
 11
504.1576756358
 21
375.2955836545
 31
0.0
  0
ARC
  5
241
330
1F
100
AcDbEntity
  8
0
  6
CONTINUOUS
 62
     7
100
AcDbCircle
 10
503.5076867737
 20
375.2955829945
 30
0.0
 40
0.6500000000000341
100
AcDbArc
 50
0.0
 51
180.0
  0
LINE
  5
242
330
1F
100
AcDbEntity
  8
0
  6
CONTINUOUS
 62
     7
100
AcDbLine
 10
493.3577014327
 20
375.2955836545
 30
0.0
 11
493.3577014327
 21
373.9955765497
 31
0.0
  0
ARC
  5
243
330
1F
100
AcDbEntity
  8
0
  6
CONTINUOUS
 62
     7
100
AcDbCircle
 10
494.0076867737
 20
373.9955829945
 30
0.0
 40
0.6499999999999773
100
AcDbArc
 50
180.0
 51
0.0
  0
LINE
  5
244
330
1F
100
AcDbEntity
  8
0
  6
CONTINUOUS
 62
     7
100
AcDbLine
 10
494.6576787352
 20
373.9955765497
 30
0.0
 11
494.6576787352
 21
375.2955836545
 31
0.0
  0
ARC
  5
245
330
1F
100
AcDbEntity
  8
0
  6
CONTINUOUS
 62
     7
100
AcDbCircle
 10
494.0076867737
 20
375.2955829945
 30
0.0
 40
0.6499999999999773
100
AcDbArc
 50
0.0
 51
180.0
  0
LINE
  5
246
330
1F
100
AcDbEntity
  8
0
  6
CONTINUOUS
 62
     7
100
AcDbLine
 10
502.8576983333
 20
345.2955824624
 30
0.0
 11
502.8576983333
 21
343.9955902587
 31
0.0
  0
ARC
  5
247
330
1F
100
AcDbEntity
  8
0
  6
CONTINUOUS
 62
     7
100
AcDbCircle
 10
503.5076867737
 20
343.9955829945
 30
0.0
 40
0.6500000000000341
100
AcDbArc
 50
180.0
 51
0.0
  0
LINE
  5
248
330
1F
100
AcDbEntity
  8
0
  6
CONTINUOUS
 62
     7
100
AcDbLine
 10
504.1576756358
 20
343.9955902587
 30
0.0
 11
504.1576756358
 21
345.2955824624
 31
0.0
  0
ARC
  5
249
330
1F
100
AcDbEntity
  8
0
  6
CONTINUOUS
 62
     7
100
AcDbCircle
 10
503.5076867737
 20
345.2955829945
 30
0.0
 40
0.6500000000000341
100
AcDbArc
 50
0.0
 51
180.0
  0
LINE
  5
24A
330
1F
100
AcDbEntity
  8
0
  6
CONTINUOUS
 62
     7
100
AcDbLine
 10
493.3577014327
 20
345.2955824624
 30
0.0
 11
493.3577014327
 21
343.9955902587
 31
0.0
  0
ARC
  5
24B
330
1F
100
AcDbEntity
  8
0
  6
CONTINUOUS
 62
     7
100
AcDbCircle
 10
494.0076867737
 20
343.9955829945
 30
0.0
 40
0.6499999999999773
100
AcDbArc
 50
180.0
 51
0.0
  0
LINE
  5
24C
330
1F
100
AcDbEntity
  8
0
  6
CONTINUOUS
 62
     7
100
AcDbLine
 10
494.6576787352
 20
343.9955902587
 30
0.0
 11
494.6576787352
 21
345.2955824624
 31
0.0
  0
ARC
  5
24D
330
1F
100
AcDbEntity
  8
0
  6
CONTINUOUS
 62
     7
100
AcDbCircle
 10
494.0076867737
 20
345.2955829945
 30
0.0
 40
0.6499999999999773
100
AcDbArc
 50
0.0
 51
180.0
  0
LINE
  5
24E
330
1F
100
AcDbEntity
  8
0
  6
CONTINUOUS
 62
     7
100
AcDbLine
 10
536.5076793551
 20
392.6455867778
 30
0.0
 11
520.5076767325
 21
392.6455867778
 31
0.0
  0
LINE
  5
24F
330
1F
100
AcDbEntity
  8
0
  6
CONTINUOUS
 62
     7
100
AcDbLine
 10
536.5076793551
 20
200.8055830676
 30
0.0
 11
536.5076793551
 21
295.0672698509
 31
0.0
  0
LINE
  5
250
330
1F
100
AcDbEntity
  8
0
  6
CONTINUOUS
 62
     7
100
AcDbLine
 10
103.0934734464
 20
372.0597965013
 30
0.0
 11
104.9218999416
 21
370.2313644182
 31
0.0
  0
CIRCLE
  5
251
330
1F
100
AcDbEntity
  8
0
  6
CONTINUOUS
 62
     7
100
AcDbCircle
 10
211.8974574883
 20
327.3770762069
 30
0.0
 40
1.400000000000006
  0
CIRCLE
  5
252
330
1F
100
AcDbEntity
  8
0
  6
CONTINUOUS
 62
     7
100
AcDbCircle
 10
181.8974574883
 20
327.3770762069
 30
0.0
 40
2.498076211353293
  0
LINE
  5
253
330
1F
100
AcDbEntity
  8
0
  6
CONTINUOUS
 62
     7
100
AcDbLine
 10
313.6295063615
 20
327.3770702373
 30
0.0
 11
312.7634806752
 21
328.8770807277
 31
0.0
  0
LINE
  5
254
330
1F
100
AcDbEntity
  8
0
  6
CONTINUOUS
 62
     7
100
AcDbLine
 10
312.7634806752
 20
328.8770807277
 30
0.0
 11
311.0314293027
 21
328.8770807277
 31
0.0
  0
LINE
  5
255
330
1F
100
AcDbEntity
  8
0
  6
CONTINUOUS
 62
     7
100
AcDbLine
 10
311.0314293027
 20
328.8770807277
 30
0.0
 11
310.1654036164
 21
327.3770702373
 31
0.0
  0
LINE
  5
256
330
1F
100
AcDbEntity
  8
0
  6
CONTINUOUS
 62
     7
100
AcDbLine
 10
310.1654036164
 20
327.3770702373
 30
0.0
 11
311.0314293027
 21
325.877074648
 31
0.0
  0
LINE
  5
257
330
1F
100
AcDbEntity
  8
0
  6
CONTINUOUS
 62
     7
100
AcDbLine
 10
311.0314293027
 20
325.877074648
 30
0.0
 11
312.7634806752
 21
325.877074648
 31
0.0
  0
LINE
  5
258
330
1F
100
AcDbEntity
  8
0
  6
CONTINUOUS
 62
     7
100
AcDbLine
 10
312.7634806752
 20
325.877074648
 30
0.0
 11
313.6295063615
 21
327.3770702373
 31
0.0
  0
CIRCLE
  5
259
330
1F
100
AcDbEntity
  8
0
  6
CONTINUOUS
 62
     7
100
AcDbCircle
 10
341.8974574883
 20
327.3770762069
 30
0.0
 40
2.498076211353293
  0
ARC
  5
25A
330
1F
100
AcDbEntity
  8
0
  6
CONTINUOUS
 62
     7
100
AcDbCircle
 10
261.083243926
 20
332.3770762069
 30
0.0
 40
1.000000000000008
100
AcDbArc
 50
270.0
 51
315.0
  0
LINE
  5
25B
330
1F
100
AcDbEntity
  8
0
  6
CONTINUOUS
 62
     7
100
AcDbLine
 10
261.8974579692
 20
331.7770702134
 30
0.0
 11
261.7903484225
 21
331.6699755679
 31
0.0
  0
LINE
  5
25C
330
1F
100
AcDbEntity
  8
0
  6
CONTINUOUS
 62
     7
100
AcDbLine
 10
262.0045675158
 20
331.6699755679
 30
0.0
 11
261.8974579692
 21
331.7770702134
 31
0.0
  0
ARC
  5
25D
330
1F
100
AcDbEntity
  8
0
  6
CONTINUOUS
 62
     7
100
AcDbCircle
 10
262.7116710507
 20
332.3770762069
 30
0.0
 40
1.000000000000008
100
AcDbArc
 50
225.0
 51
270.0
  0
LINE
  5
25E
330
1F
100
AcDbEntity
  8
0
  6
CONTINUOUS
 62
     7
100
AcDbLine
 10
304.9692494988
 20
331.3770783435
 30
0.0
 11
262.711672318
 21
331.3770783435
 31
0.0
  0
ARC
  5
25F
330
1F
100
AcDbEntity
  8
0
  6
CONTINUOUS
 62
     7
100
AcDbCircle
 10
304.969254258
 20
334.3770762069
 30
0.0
 40
3.0
100
AcDbArc
 50
270.0
 51
330.0
  0
LINE
  5
260
330
1F
100
AcDbEntity
  8
0
  6
CONTINUOUS
 62
     7
100
AcDbLine
 10
308.1446869492
 20
333.8770759593
 30
0.0
 11
307.5673265576
 21
332.8770739328
 31
0.0
  0
LINE
  5
261
330
1F
100
AcDbEntity
  8
0
  6
CONTINUOUS
 62
     7
100
AcDbLine
 10
315.6502379298
 20
333.8770759593
 30
0.0
 11
308.1446869492
 21
333.8770759593
 31
0.0
  0
LINE
  5
262
330
1F
100
AcDbEntity
  8
0
  6
CONTINUOUS
 62
     7
100
AcDbLine
 10
316.2275834203
 20
332.8770739328
 30
0.0
 11
315.6502379298
 21
333.8770759593
 31
0.0
  0
ARC
  5
263
330
1F
100
AcDbEntity
  8
0
  6
CONTINUOUS
 62
     7
100
AcDbCircle
 10
318.8256607186
 20
334.3770762069
 30
0.0
 40
3.0
100
AcDbArc
 50
210.0
 51
270.0
  0
LINE
  5
264
330
1F
100
AcDbEntity
  8
0
  6
CONTINUOUS
 62
     7
100
AcDbLine
 10
328.8989944577
 20
331.3770783435
 30
0.0
 11
318.8256604791
 21
331.3770783435
 31
0.0
  0
ARC
  5
265
330
1F
100
AcDbEntity
  8
0
  6
CONTINUOUS
 62
     7
100
AcDbCircle
 10
328.8989960409
 20
379.3770762069
 30
0.0
 40
48.00000000000001
100
AcDbArc
 50
270.0
 51
284.0346479352
  0
ARC
  5
266
330
1F
100
AcDbEntity
  8
0
  6
CONTINUOUS
 62
     7
100
AcDbCircle
 10
328.8989960409
 20
275.3770762069
 30
0.0
 40
48.00000000000001
100
AcDbArc
 50
75.9653520648
 51
90.0
  0
LINE
  5
267
330
1F
100
AcDbEntity
  8
0
  6
CONTINUOUS
 62
     7
100
AcDbLine
 10
318.8256604791
 20
323.3770770322
 30
0.0
 11
328.8989944577
 21
323.3770770322
 31
0.0
  0
ARC
  5
268
330
1F
100
AcDbEntity
  8
0
  6
CONTINUOUS
 62
     7
100
AcDbCircle
 10
318.8256607186
 20
320.3770762069
 30
0.0
 40
3.0
100
AcDbArc
 50
90.0
 51
150.0
  0
LINE
  5
269
330
1F
100
AcDbEntity
  8
0
  6
CONTINUOUS
 62
     7
100
AcDbLine
 10
315.6502379298
 20
320.8770794164
 30
0.0
 11
316.2275834203
 21
321.8770739924
 31
0.0
  0
LINE
  5
26A
330
1F
100
AcDbEntity
  8
0
  6
CONTINUOUS
 62
     7
100
AcDbLine
 10
308.1446869492
 20
320.8770794164
 30
0.0
 11
315.6502379298
 21
320.8770794164
 31
0.0
  0
LINE
  5
26B
330
1F
100
AcDbEntity
  8
0
  6
CONTINUOUS
 62
     7
100
AcDbLine
 10
307.5673265576
 20
321.8770739924
 30
0.0
 11
308.1446869492
 21
320.8770794164
 31
0.0
  0
ARC
  5
26C
330
1F
100
AcDbEntity
  8
0
  6
CONTINUOUS
 62
     7
100
AcDbCircle
 10
304.969254258
 20
320.3770762069
 30
0.0
 40
3.0
100
AcDbArc
 50
30.0
 51
90.0
  0
LINE
  5
26D
330
1F
100
AcDbEntity
  8
0
  6
CONTINUOUS
 62
     7
100
AcDbLine
 10
262.711672318
 20
323.3770770322
 30
0.0
 11
304.9692494988
 21
323.3770770322
 31
0.0
  0
ARC
  5
26E
330
1F
100
AcDbEntity
  8
0
  6
CONTINUOUS
 62
     7
100
AcDbCircle
 10
262.7116710507
 20
322.3770762069
 30
0.0
 40
1.000000000000048
100
AcDbArc
 50
90.0
 51
135.0
  0
LINE
  5
26F
330
1F
100
AcDbEntity
  8
0
  6
CONTINUOUS
 62
     7
100
AcDbLine
 10
261.8974579692
 20
322.9770702611
 30
0.0
 11
262.0045675158
 21
323.0841798078
 31
0.0
  0
LINE
  5
270
330
1F
100
AcDbEntity
  8
0
  6
CONTINUOUS
 62
     7
100
AcDbLine
 10
261.7903484225
 20
323.0841798078
 30
0.0
 11
261.8974579692
 21
322.9770702611
 31
0.0
  0
ARC
  5
271
330
1F
100
AcDbEntity
  8
0
  6
CONTINUOUS
 62
     7
100
AcDbCircle
 10
261.083243926
 20
322.3770762069
 30
0.0
 40
1.000000000000048
100
AcDbArc
 50
45.0
 51
90.0
  0
LINE
  5
272
330
1F
100
AcDbEntity
  8
0
  6
CONTINUOUS
 62
     7
100
AcDbLine
 10
220.6295861125
 20
323.3770770322
 30
0.0
 11
261.0832436204
 21
323.3770770322
 31
0.0
  0
ARC
  5
273
330
1F
100
AcDbEntity
  8
0
  6
CONTINUOUS
 62
     7
100
AcDbCircle
 10
220.6295820866
 20
313.3770762069
 30
0.0
 40
10.00000000000001
100
AcDbArc
 50
90.0
 51
121.9527464003
  0
ARC
  5
274
330
1F
100
AcDbEntity
  8
0
  6
CONTINUOUS
 62
     7
100
AcDbCircle
 10
211.8974574883
 20
327.3770762069
 30
0.0
 40
6.499999999999947
100
AcDbArc
 50
238.0472535997
 51
301.9527464003
  0
ARC
  5
275
330
1F
100
AcDbEntity
  8
0
  6
CONTINUOUS
 62
     7
100
AcDbCircle
 10
203.16533289
 20
313.3770762069
 30
0.0
 40
10.00000000000001
100
AcDbArc
 50
58.0472535997
 51
90.0
  0
LINE
  5
276
330
1F
100
AcDbEntity
  8
0
  6
CONTINUOUS
 62
     7
100
AcDbLine
 10
194.8959214806
 20
323.3770770322
 30
0.0
 11
203.1653357863
 21
323.3770770322
 31
0.0
  0
ARC
  5
277
330
1F
100
AcDbEntity
  8
0
  6
CONTINUOUS
 62
     7
100
AcDbCircle
 10
194.8959189357
 20
275.3770762069
 30
0.0
 40
48.00000000000002
100
AcDbArc
 50
90.0
 51
104.0346479352
  0
ARC
  5
278
330
1F
100
AcDbEntity
  8
0
  6
CONTINUOUS
 62
     7
100
AcDbCircle
 10
181.8974574883
 20
327.3770762069
 30
0.0
 40
5.600000000000029
100
AcDbArc
 50
75.9653520648
 51
284.0346479352
  0
ARC
  5
279
330
1F
100
AcDbEntity
  8
0
  6
CONTINUOUS
 62
     7
100
AcDbCircle
 10
194.8959189357
 20
379.3770762069
 30
0.0
 40
48.00000000000002
100
AcDbArc
 50
255.9653520648
 51
270.0
  0
LINE
  5
27A
330
1F
100
AcDbEntity
  8
0
  6
CONTINUOUS
 62
     7
100
AcDbLine
 10
203.1653357863
 20
331.3770783435
 30
0.0
 11
194.8959214806
 21
331.3770783435
 31
0.0
  0
ARC
  5
27B
330
1F
100
AcDbEntity
  8
0
  6
CONTINUOUS
 62
     7
100
AcDbCircle
 10
203.16533289
 20
341.3770762069
 30
0.0
 40
10.0
100
AcDbArc
 50
270.0
 51
301.9527464003
  0
ARC
  5
27C
330
1F
100
AcDbEntity
  8
0
  6
CONTINUOUS
 62
     7
100
AcDbCircle
 10
211.8974574883
 20
327.3770762069
 30
0.0
 40
6.500000000000091
100
AcDbArc
 50
58.0472535997
 51
121.9527464003
  0
LINE
  5
27D
330
1F
100
AcDbEntity
  8
0
  6
CONTINUOUS
 62
     7
100
AcDbLine
 10
261.0832436204
 20
331.3770783435
 30
0.0
 11
220.6295861125
 21
331.3770783435
 31
0.0
  0
ARC
  5
27E
330
1F
100
AcDbEntity
  8
0
  6
CONTINUOUS
 62
     7
100
AcDbCircle
 10
220.6295820866
 20
341.3770762069
 30
0.0
 40
10.0
100
AcDbArc
 50
238.0472535997
 51
270.0
  0
ARC
  5
27F
330
1F
100
AcDbEntity
  8
0
  6
CONTINUOUS
 62
     7
100
AcDbCircle
 10
341.8974574883
 20
327.3770762069
 30
0.0
 40
5.600000000000036
100
AcDbArc
 50
255.9653520648
 51
104.0346479352
  0
CIRCLE
  5
280
330
1F
100
AcDbEntity
  8
0
  6
CONTINUOUS
 62
     7
100
AcDbCircle
 10
211.2072559447
 20
308.5204608119
 30
0.0
 40
1.399999999999977
  0
CIRCLE
  5
281
330
1F
100
AcDbEntity
  8
0
  6
CONTINUOUS
 62
     7
100
AcDbCircle
 10
181.2072559447
 20
308.5204608119
 30
0.0
 40
2.49807621135335
  0
LINE
  5
282
330
1F
100
AcDbEntity
  8
0
  6
CONTINUOUS
 62
     7
100
AcDbLine
 10
312.9392994761
 20
308.5204628598
 30
0.0
 11
312.073288691
 21
310.020458449
 31
0.0
  0
LINE
  5
283
330
1F
100
AcDbEntity
  8
0
  6
CONTINUOUS
 62
     7
100
AcDbLine
 10
312.073288691
 20
310.020458449
 30
0.0
 11
310.3412373185
 21
310.020458449
 31
0.0
  0
LINE
  5
284
330
1F
100
AcDbEntity
  8
0
  6
CONTINUOUS
 62
     7
100
AcDbLine
 10
310.3412373185
 20
310.020458449
 30
0.0
 11
309.4752116322
 21
308.5204628598
 31
0.0
  0
LINE
  5
285
330
1F
100
AcDbEntity
  8
0
  6
CONTINUOUS
 62
     7
100
AcDbLine
 10
309.4752116322
 20
308.5204628598
 30
0.0
 11
310.3412373185
 21
307.0204598199
 31
0.0
  0
LINE
  5
286
330
1F
100
AcDbEntity
  8
0
  6
CONTINUOUS
 62
     7
100
AcDbLine
 10
310.3412373185
 20
307.0204598199
 30
0.0
 11
312.073288691
 21
307.0204598199
 31
0.0
  0
LINE
  5
287
330
1F
100
AcDbEntity
  8
0
  6
CONTINUOUS
 62
     7
100
AcDbLine
 10
312.073288691
 20
307.0204598199
 30
0.0
 11
312.9392994761
 21
308.5204628598
 31
0.0
  0
CIRCLE
  5
288
330
1F
100
AcDbEntity
  8
0
  6
CONTINUOUS
 62
     7
100
AcDbCircle
 10
341.2072559447
 20
308.5204608119
 30
0.0
 40
2.49807621135335
  0
ARC
  5
289
330
1F
100
AcDbEntity
  8
0
  6
CONTINUOUS
 62
     7
100
AcDbCircle
 10
260.3930423823
 20
313.5204608119
 30
0.0
 40
1.000000000000008
100
AcDbArc
 50
270.0
 51
315.0
  0
LINE
  5
28A
330
1F
100
AcDbEntity
  8
0
  6
CONTINUOUS
 62
     7
100
AcDbLine
 10
261.2072510838
 20
312.9204628359
 30
0.0
 11
261.1001564383
 21
312.8133532893
 31
0.0
  0
LINE
  5
28B
330
1F
100
AcDbEntity
  8
0
  6
CONTINUOUS
 62
     7
100
AcDbLine
 10
261.3143606305
 20
312.8133532893
 30
0.0
 11
261.2072510838
 21
312.9204628359
 31
0.0
  0
ARC
  5
28C
330
1F
100
AcDbEntity
  8
0
  6
CONTINUOUS
 62
     7
100
AcDbCircle
 10
262.021469507
 20
313.5204608119
 30
0.0
 40
1.000000000000048
100
AcDbArc
 50
225.0
 51
270.0
  0
ARC
  5
28D
330
1F
100
AcDbEntity
  8
0
  6
CONTINUOUS
 62
     7
100
AcDbCircle
 10
304.2790527144
 20
315.5204608119
 30
0.0
 40
3.0
100
AcDbArc
 50
270.0
 51
330.0
  0
LINE
  5
28E
330
1F
100
AcDbEntity
  8
0
  6
CONTINUOUS
 62
     7
100
AcDbLine
 10
307.4544800639
 20
315.0204611312
 30
0.0
 11
306.8771345734
 21
314.0204591047
 31
0.0
  0
LINE
  5
28F
330
1F
100
AcDbEntity
  8
0
  6
CONTINUOUS
 62
     7
100
AcDbLine
 10
314.9600310445
 20
315.0204611312
 30
0.0
 11
307.4544800639
 21
315.0204611312
 31
0.0
  0
LINE
  5
290
330
1F
100
AcDbEntity
  8
0
  6
CONTINUOUS
 62
     7
100
AcDbLine
 10
315.5373765349
 20
314.0204591047
 30
0.0
 11
314.9600310445
 21
315.0204611312
 31
0.0
  0
ARC
  5
291
330
1F
100
AcDbEntity
  8
0
  6
CONTINUOUS
 62
     7
100
AcDbCircle
 10
318.1354591749
 20
315.5204608119
 30
0.0
 40
3.0
100
AcDbArc
 50
210.0
 51
270.0
  0
ARC
  5
292
330
1F
100
AcDbEntity
  8
0
  6
CONTINUOUS
 62
     7
100
AcDbCircle
 10
328.2087944972
 20
360.5204608119
 30
0.0
 40
47.99999999999998
100
AcDbArc
 50
270.0
 51
284.0346479352
  0
ARC
  5
293
330
1F
100
AcDbEntity
  8
0
  6
CONTINUOUS
 62
     7
100
AcDbCircle
 10
341.2072559447
 20
308.5204608119
 30
0.0
 40
5.600000000000036
100
AcDbArc
 50
255.9653520648
 51
104.0346479352
  0
ARC
  5
294
330
1F
100
AcDbEntity
  8
0
  6
CONTINUOUS
 62
     7
100
AcDbCircle
 10
328.2087944972
 20
256.5204608119
 30
0.0
 40
48.0
100
AcDbArc
 50
75.9653520648
 51
90.0
  0
ARC
  5
295
330
1F
100
AcDbEntity
  8
0
  6
CONTINUOUS
 62
     7
100
AcDbCircle
 10
318.1354591749
 20
301.5204608119
 30
0.0
 40
3.000000000000057
100
AcDbArc
 50
90.0
 51
150.0
  0
LINE
  5
296
330
1F
100
AcDbEntity
  8
0
  6
CONTINUOUS
 62
     7
100
AcDbLine
 10
314.9600310445
 20
302.0204571377
 30
0.0
 11
315.5373765349
 21
303.0204591643
 31
0.0
  0
LINE
  5
297
330
1F
100
AcDbEntity
  8
0
  6
CONTINUOUS
 62
     7
100
AcDbLine
 10
307.4544800639
 20
302.0204571377
 30
0.0
 11
314.9600310445
 21
302.0204571377
 31
0.0
  0
LINE
  5
298
330
1F
100
AcDbEntity
  8
0
  6
CONTINUOUS
 62
     7
100
AcDbLine
 10
306.8771345734
 20
303.0204591643
 30
0.0
 11
307.4544800639
 21
302.0204571377
 31
0.0
  0
ARC
  5
299
330
1F
100
AcDbEntity
  8
0
  6
CONTINUOUS
 62
     7
100
AcDbCircle
 10
304.2790527144
 20
301.5204608119
 30
0.0
 40
3.000000000000057
100
AcDbArc
 50
30.0
 51
90.0
  0
ARC
  5
29A
330
1F
100
AcDbEntity
  8
0
  6
CONTINUOUS
 62
     7
100
AcDbCircle
 10
262.021469507
 20
303.5204608119
 30
0.0
 40
1.0
100
AcDbArc
 50
90.0
 51
135.0
  0
LINE
  5
29B
330
1F
100
AcDbEntity
  8
0
  6
CONTINUOUS
 62
     7
100
AcDbLine
 10
261.2072510838
 20
304.1204628836
 30
0.0
 11
261.3143606305
 21
304.2275649797
 31
0.0
  0
LINE
  5
29C
330
1F
100
AcDbEntity
  8
0
  6
CONTINUOUS
 62
     7
100
AcDbLine
 10
261.1001564383
 20
304.2275649797
 30
0.0
 11
261.2072510838
 21
304.1204628836
 31
0.0
  0
ARC
  5
29D
330
1F
100
AcDbEntity
  8
0
  6
CONTINUOUS
 62
     7
100
AcDbCircle
 10
260.3930423823
 20
303.5204608119
 30
0.0
 40
1.0
100
AcDbArc
 50
45.0
 51
90.0
  0
ARC
  5
29E
330
1F
100
AcDbEntity
  8
0
  6
CONTINUOUS
 62
     7
100
AcDbCircle
 10
219.9393805429
 20
294.5204608119
 30
0.0
 40
10.00000000000006
100
AcDbArc
 50
90.0
 51
121.9527464003
  0
ARC
  5
29F
330
1F
100
AcDbEntity
  8
0
  6
CONTINUOUS
 62
     7
100
AcDbCircle
 10
211.2072559447
 20
308.5204608119
 30
0.0
 40
6.500000000000044
100
AcDbArc
 50
238.0472535997
 51
301.9527464003
  0
ARC
  5
2A0
330
1F
100
AcDbEntity
  8
0
  6
CONTINUOUS
 62
     7
100
AcDbCircle
 10
202.4751313464
 20
294.5204608119
 30
0.0
 40
10.00000000000006
100
AcDbArc
 50
58.0472535997
 51
90.0
  0
LINE
  5
2A1
330
1F
100
AcDbEntity
  8
0
  6
CONTINUOUS
 62
     7
100
AcDbLine
 10
194.2057145953
 20
304.5204622041
 30
0.0
 11
202.475128901
 21
304.5204622041
 31
0.0
  0
ARC
  5
2A2
330
1F
100
AcDbEntity
  8
0
  6
CONTINUOUS
 62
     7
100
AcDbCircle
 10
194.2057173921
 20
256.5204608119
 30
0.0
 40
48.0
100
AcDbArc
 50
90.0
 51
104.0346479352
  0
ARC
  5
2A3
330
1F
100
AcDbEntity
  8
0
  6
CONTINUOUS
 62
     7
100
AcDbCircle
 10
181.2072559447
 20
308.5204608119
 30
0.0
 40
5.600000000000029
100
AcDbArc
 50
75.9653520648
 51
284.0346479352
  0
ARC
  5
2A4
330
1F
100
AcDbEntity
  8
0
  6
CONTINUOUS
 62
     7
100
AcDbCircle
 10
194.2057173921
 20
360.5204608119
 30
0.0
 40
47.99999999999998
100
AcDbArc
 50
255.9653520648
 51
270.0
  0
LINE
  5
2A5
330
1F
100
AcDbEntity
  8
0
  6
CONTINUOUS
 62
     7
100
AcDbLine
 10
202.475128901
 20
312.5204635154
 30
0.0
 11
194.2057145953
 21
312.5204635154
 31
0.0
  0
ARC
  5
2A6
330
1F
100
AcDbEntity
  8
0
  6
CONTINUOUS
 62
     7
100
AcDbCircle
 10
202.4751313464
 20
322.5204608119
 30
0.0
 40
9.999999999999964
100
AcDbArc
 50
270.0
 51
301.9527464003
  0
ARC
  5
2A7
330
1F
100
AcDbEntity
  8
0
  6
CONTINUOUS
 62
     7
100
AcDbCircle
 10
211.2072559447
 20
308.5204608119
 30
0.0
 40
6.499999999999995
100
AcDbArc
 50
58.0472535997
 51
121.9527464003
  0
ARC
  5
2A8
330
1F
100
AcDbEntity
  8
0
  6
CONTINUOUS
 62
     7
100
AcDbCircle
 10
219.9393805429
 20
322.5204608119
 30
0.0
 40
9.999999999999964
100
AcDbArc
 50
238.0472535997
 51
270.0
  0
LINE
  5
2A9
330
1F
100
AcDbEntity
  8
0
  6
CONTINUOUS
 62
     7
100
AcDbLine
 10
260.393036735
 20
312.5204635154
 30
0.0
 11
219.9393792271
 21
312.5204635154
 31
0.0
  0
LINE
  5
2AA
330
1F
100
AcDbEntity
  8
0
  6
CONTINUOUS
 62
     7
100
AcDbLine
 10
262.0214654326
 20
304.5204622041
 30
0.0
 11
304.2790575147
 21
304.5204622041
 31
0.0
  0
LINE
  5
2AB
330
1F
100
AcDbEntity
  8
0
  6
CONTINUOUS
 62
     7
100
AcDbLine
 10
328.2087875724
 20
312.5204635154
 30
0.0
 11
318.1354535937
 21
312.5204635154
 31
0.0
  0
LINE
  5
2AC
330
1F
100
AcDbEntity
  8
0
  6
CONTINUOUS
 62
     7
100
AcDbLine
 10
318.1354535937
 20
304.5204622041
 30
0.0
 11
328.2087875724
 21
304.5204622041
 31
0.0
  0
LINE
  5
2AD
330
1F
100
AcDbEntity
  8
0
  6
CONTINUOUS
 62
     7
100
AcDbLine
 10
304.2790575147
 20
312.5204635154
 30
0.0
 11
262.0214654326
 21
312.5204635154
 31
0.0
  0
LINE
  5
2AE
330
1F
100
AcDbEntity
  8
0
  6
CONTINUOUS
 62
     7
100
AcDbLine
 10
219.9393792271
 20
304.5204622041
 30
0.0
 11
260.393036735
 21
304.5204622041
 31
0.0
  0
CIRCLE
  5
2AF
330
1F
100
AcDbEntity
  8
0
  6
CONTINUOUS
 62
     7
100
AcDbCircle
 10
212.0624065436
 20
266.7787704148
 30
0.0
 40
1.399999999999977
  0
CIRCLE
  5
2B0
330
1F
100
AcDbEntity
  8
0
  6
CONTINUOUS
 62
     7
100
AcDbCircle
 10
182.0624065436
 20
266.7787704148
 30
0.0
 40
2.498076211353322
  0
LINE
  5
2B1
330
1F
100
AcDbEntity
  8
0
  6
CONTINUOUS
 62
     7
100
AcDbLine
 10
313.7944622159
 20
266.77877133
 30
0.0
 11
312.9284365296
 21
268.2787669193
 31
0.0
  0
LINE
  5
2B2
330
1F
100
AcDbEntity
  8
0
  6
CONTINUOUS
 62
     7
100
AcDbLine
 10
312.9284365296
 20
268.2787669193
 30
0.0
 11
311.1963851571
 21
268.2787669193
 31
0.0
  0
LINE
  5
2B3
330
1F
100
AcDbEntity
  8
0
  6
CONTINUOUS
 62
     7
100
AcDbLine
 10
311.1963851571
 20
268.2787669193
 30
0.0
 11
310.3303594708
 21
266.77877133
 31
0.0
  0
LINE
  5
2B4
330
1F
100
AcDbEntity
  8
0
  6
CONTINUOUS
 62
     7
100
AcDbLine
 10
310.3303594708
 20
266.77877133
 30
0.0
 11
311.1963851571
 21
265.2787682902
 31
0.0
  0
LINE
  5
2B5
330
1F
100
AcDbEntity
  8
0
  6
CONTINUOUS
 62
     7
100
AcDbLine
 10
311.1963851571
 20
265.2787682902
 30
0.0
 11
312.9284365296
 21
265.2787682902
 31
0.0
  0
LINE
  5
2B6
330
1F
100
AcDbEntity
  8
0
  6
CONTINUOUS
 62
     7
100
AcDbLine
 10
312.9284365296
 20
265.2787682902
 30
0.0
 11
313.7944622159
 21
266.77877133
 31
0.0
  0
CIRCLE
  5
2B7
330
1F
100
AcDbEntity
  8
0
  6
CONTINUOUS
 62
     7
100
AcDbCircle
 10
342.0624065436
 20
266.7787704148
 30
0.0
 40
2.49807621135335
  0
ARC
  5
2B8
330
1F
100
AcDbEntity
  8
0
  6
CONTINUOUS
 62
     7
100
AcDbCircle
 10
261.2481929812
 20
271.7787704148
 30
0.0
 40
1.000000000000008
100
AcDbArc
 50
270.0
 51
315.0
  0
LINE
  5
2B9
330
1F
100
AcDbEntity
  8
0
  6
CONTINUOUS
 62
     7
100
AcDbLine
 10
262.0624138236
 20
271.1787713062
 30
0.0
 11
261.9553042769
 21
271.0716617595
 31
0.0
  0
LINE
  5
2BA
330
1F
100
AcDbEntity
  8
0
  6
CONTINUOUS
 62
     7
100
AcDbLine
 10
262.1695084691
 20
271.0716617595
 30
0.0
 11
262.0624138236
 21
271.1787713062
 31
0.0
  0
ARC
  5
2BB
330
1F
100
AcDbEntity
  8
0
  6
CONTINUOUS
 62
     7
100
AcDbCircle
 10
262.8766201059
 20
271.7787704148
 30
0.0
 40
1.0
100
AcDbArc
 50
225.0
 51
270.0
  0
ARC
  5
2BC
330
1F
100
AcDbEntity
  8
0
  6
CONTINUOUS
 62
     7
100
AcDbCircle
 10
305.1342033133
 20
273.7787704148
 30
0.0
 40
3.0
100
AcDbArc
 50
270.0
 51
330.0
  0
LINE
  5
2BD
330
1F
100
AcDbEntity
  8
0
  6
CONTINUOUS
 62
     7
100
AcDbLine
 10
308.3096279025
 20
273.2787696015
 30
0.0
 11
307.732282412
 21
272.2787675749
 31
0.0
  0
LINE
  5
2BE
330
1F
100
AcDbEntity
  8
0
  6
CONTINUOUS
 62
     7
100
AcDbLine
 10
315.8151788831
 20
273.2787696015
 30
0.0
 11
308.3096279025
 21
273.2787696015
 31
0.0
  0
LINE
  5
2BF
330
1F
100
AcDbEntity
  8
0
  6
CONTINUOUS
 62
     7
100
AcDbLine
 10
316.3925392747
 20
272.2787675749
 30
0.0
 11
315.8151788831
 21
273.2787696015
 31
0.0
  0
ARC
  5
2C0
330
1F
100
AcDbEntity
  8
0
  6
CONTINUOUS
 62
     7
100
AcDbCircle
 10
318.9906097738
 20
273.7787704148
 30
0.0
 40
3.0
100
AcDbArc
 50
210.0
 51
270.0
  0
ARC
  5
2C1
330
1F
100
AcDbEntity
  8
0
  6
CONTINUOUS
 62
     7
100
AcDbCircle
 10
329.0639450961
 20
318.7787704148
 30
0.0
 40
48.00000000000004
100
AcDbArc
 50
270.0
 51
284.0346479352
  0
ARC
  5
2C2
330
1F
100
AcDbEntity
  8
0
  6
CONTINUOUS
 62
     7
100
AcDbCircle
 10
342.0624065436
 20
266.7787704148
 30
0.0
 40
5.600000000000022
100
AcDbArc
 50
255.9653520648
 51
104.0346479352
  0
ARC
  5
2C3
330
1F
100
AcDbEntity
  8
0
  6
CONTINUOUS
 62
     7
100
AcDbCircle
 10
329.0639450961
 20
214.7787704148
 30
0.0
 40
48.00000000000006
100
AcDbArc
 50
75.9653520648
 51
90.0
  0
ARC
  5
2C4
330
1F
100
AcDbEntity
  8
0
  6
CONTINUOUS
 62
     7
100
AcDbCircle
 10
318.9906097738
 20
259.7787704148
 30
0.0
 40
3.0
100
AcDbArc
 50
90.0
 51
150.0
  0
LINE
  5
2C5
330
1F
100
AcDbEntity
  8
0
  6
CONTINUOUS
 62
     7
100
AcDbLine
 10
315.8151788831
 20
260.2787730585
 30
0.0
 11
316.3925392747
 21
261.2787676345
 31
0.0
  0
LINE
  5
2C6
330
1F
100
AcDbEntity
  8
0
  6
CONTINUOUS
 62
     7
100
AcDbLine
 10
308.3096279025
 20
260.2787730585
 30
0.0
 11
315.8151788831
 21
260.2787730585
 31
0.0
  0
LINE
  5
2C7
330
1F
100
AcDbEntity
  8
0
  6
CONTINUOUS
 62
     7
100
AcDbLine
 10
307.732282412
 20
261.2787676345
 30
0.0
 11
308.3096279025
 21
260.2787730585
 31
0.0
  0
ARC
  5
2C8
330
1F
100
AcDbEntity
  8
0
  6
CONTINUOUS
 62
     7
100
AcDbCircle
 10
305.1342033133
 20
259.7787704148
 30
0.0
 40
3.0
100
AcDbArc
 50
30.0
 51
90.0
  0
ARC
  5
2C9
330
1F
100
AcDbEntity
  8
0
  6
CONTINUOUS
 62
     7
100
AcDbCircle
 10
262.8766201059
 20
261.7787704148
 30
0.0
 40
1.0
100
AcDbArc
 50
90.0
 51
135.0
  0
LINE
  5
2CA
330
1F
100
AcDbEntity
  8
0
  6
CONTINUOUS
 62
     7
100
AcDbLine
 10
262.0624138236
 20
262.3787713538
 30
0.0
 11
262.1695084691
 21
262.4858809005
 31
0.0
  0
LINE
  5
2CB
330
1F
100
AcDbEntity
  8
0
  6
CONTINUOUS
 62
     7
100
AcDbLine
 10
261.9553042769
 20
262.4858809005
 30
0.0
 11
262.0624138236
 21
262.3787713538
 31
0.0
  0
ARC
  5
2CC
330
1F
100
AcDbEntity
  8
0
  6
CONTINUOUS
 62
     7
100
AcDbCircle
 10
261.2481929812
 20
261.7787704148
 30
0.0
 40
1.0
100
AcDbArc
 50
45.0
 51
90.0
  0
LINE
  5
2CD
330
1F
100
AcDbEntity
  8
0
  6
CONTINUOUS
 62
     7
100
AcDbLine
 10
220.7945270657
 20
262.7787706744
 30
0.0
 11
261.2481994748
 21
262.7787706744
 31
0.0
  0
ARC
  5
2CE
330
1F
100
AcDbEntity
  8
0
  6
CONTINUOUS
 62
     7
100
AcDbCircle
 10
220.7945311419
 20
252.7787704148
 30
0.0
 40
10.00000000000003
100
AcDbArc
 50
90.0
 51
121.9527464003
  0
ARC
  5
2CF
330
1F
100
AcDbEntity
  8
0
  6
CONTINUOUS
 62
     7
100
AcDbCircle
 10
212.0624065436
 20
266.7787704148
 30
0.0
 40
6.500000000000044
100
AcDbArc
 50
238.0472535997
 51
301.9527464003
  0
ARC
  5
2D0
330
1F
100
AcDbEntity
  8
0
  6
CONTINUOUS
 62
     7
100
AcDbCircle
 10
203.3302819453
 20
252.7787704148
 30
0.0
 40
10.00000000000003
100
AcDbArc
 50
58.0472535997
 51
90.0
  0
LINE
  5
2D1
330
1F
100
AcDbEntity
  8
0
  6
CONTINUOUS
 62
     7
100
AcDbLine
 10
195.0608698845
 20
262.7787706744
 30
0.0
 11
203.3302841902
 21
262.7787706744
 31
0.0
  0
ARC
  5
2D2
330
1F
100
AcDbEntity
  8
0
  6
CONTINUOUS
 62
     7
100
AcDbCircle
 10
195.060867991
 20
214.7787704148
 30
0.0
 40
48.00000000000006
100
AcDbArc
 50
90.0
 51
104.0346479352
  0
ARC
  5
2D3
330
1F
100
AcDbEntity
  8
0
  6
CONTINUOUS
 62
     7
100
AcDbCircle
 10
195.060867991
 20
318.7787704148
 30
0.0
 40
48.00000000000003
100
AcDbArc
 50
255.9653520648
 51
270.0
  0
ARC
  5
2D4
330
1F
100
AcDbEntity
  8
0
  6
CONTINUOUS
 62
     7
100
AcDbCircle
 10
203.3302819453
 20
280.7787704148
 30
0.0
 40
9.999999999999964
100
AcDbArc
 50
270.0
 51
301.9527464003
  0
ARC
  5
2D5
330
1F
100
AcDbEntity
  8
0
  6
CONTINUOUS
 62
     7
100
AcDbCircle
 10
212.0624065436
 20
266.7787704148
 30
0.0
 40
6.499999999999995
100
AcDbArc
 50
58.0472535997
 51
121.9527464003
  0
ARC
  5
2D6
330
1F
100
AcDbEntity
  8
0
  6
CONTINUOUS
 62
     7
100
AcDbCircle
 10
220.7945311419
 20
280.7787704148
 30
0.0
 40
9.999999999999964
100
AcDbArc
 50
238.0472535997
 51
270.0
  0
LINE
  5
2D7
330
1F
100
AcDbEntity
  8
0
  6
CONTINUOUS
 62
     7
100
AcDbLine
 10
262.8766132712
 20
262.7787706744
 30
0.0
 11
305.1342053532
 21
262.7787706744
 31
0.0
  0
LINE
  5
2D8
330
1F
100
AcDbEntity
  8
0
  6
CONTINUOUS
 62
     7
100
AcDbLine
 10
329.0639503121
 20
270.7787719857
 30
0.0
 11
318.9906163335
 21
270.7787719857
 31
0.0
  0
LINE
  5
2D9
330
1F
100
AcDbEntity
  8
0
  6
CONTINUOUS
 62
     7
100
AcDbLine
 10
318.9906163335
 20
262.7787706744
 30
0.0
 11
329.0639503121
 21
262.7787706744
 31
0.0
  0
LINE
  5
2DA
330
1F
100
AcDbEntity
  8
0
  6
CONTINUOUS
 62
     7
100
AcDbLine
 10
305.1342053532
 20
270.7787719857
 30
0.0
 11
262.8766132712
 21
270.7787719857
 31
0.0
  0
LINE
  5
2DB
330
1F
100
AcDbEntity
  8
0
  6
CONTINUOUS
 62
     7
100
AcDbLine
 10
203.3302841902
 20
270.7787719857
 30
0.0
 11
195.0608698845
 21
270.7787719857
 31
0.0
  0
LINE
  5
2DC
330
1F
100
AcDbEntity
  8
0
  6
CONTINUOUS
 62
     7
100
AcDbLine
 10
261.2481994748
 20
270.7787719857
 30
0.0
 11
220.7945270657
 21
270.7787719857
 31
0.0
  0
ARC
  5
2DD
330
1F
100
AcDbEntity
  8
0
  6
CONTINUOUS
 62
     7
100
AcDbCircle
 10
182.0624065436
 20
266.7787704148
 30
0.0
 40
5.600000000000022
100
AcDbArc
 50
75.9653520648
 51
284.0346479352
  0
CIRCLE
  5
2DE
330
1F
100
AcDbEntity
  8
0
  6
CONTINUOUS
 62
     7
100
AcDbCircle
 10
210.9353835707
 20
247.0337511286
 30
0.0
 40
1.400000000000006
  0
CIRCLE
  5
2DF
330
1F
100
AcDbEntity
  8
0
  6
CONTINUOUS
 62
     7
100
AcDbCircle
 10
180.9353835707
 20
247.0337511286
 30
0.0
 40
2.498076211353293
  0
LINE
  5
2E0
330
1F
100
AcDbEntity
  8
0
  6
CONTINUOUS
 62
     7
100
AcDbLine
 10
312.6674277902
 20
247.0337492715
 30
0.0
 11
311.8014021039
 21
248.5337523114
 31
0.0
  0
LINE
  5
2E1
330
1F
100
AcDbEntity
  8
0
  6
CONTINUOUS
 62
     7
100
AcDbLine
 10
311.8014021039
 20
248.5337523114
 30
0.0
 11
310.0693507314
 21
248.5337523114
 31
0.0
  0
LINE
  5
2E2
330
1F
100
AcDbEntity
  8
0
  6
CONTINUOUS
 62
     7
100
AcDbLine
 10
310.0693507314
 20
248.5337523114
 30
0.0
 11
309.2033399463
 21
247.0337492715
 31
0.0
  0
LINE
  5
2E3
330
1F
100
AcDbEntity
  8
0
  6
CONTINUOUS
 62
     7
100
AcDbLine
 10
309.2033399463
 20
247.0337492715
 30
0.0
 11
310.0693507314
 21
245.533749957
 31
0.0
  0
LINE
  5
2E4
330
1F
100
AcDbEntity
  8
0
  6
CONTINUOUS
 62
     7
100
AcDbLine
 10
310.0693507314
 20
245.533749957
 30
0.0
 11
311.8014021039
 21
245.533749957
 31
0.0
  0
LINE
  5
2E5
330
1F
100
AcDbEntity
  8
0
  6
CONTINUOUS
 62
     7
100
AcDbLine
 10
311.8014021039
 20
245.533749957
 30
0.0
 11
312.6674277902
 21
247.0337492715
 31
0.0
  0
CIRCLE
  5
2E6
330
1F
100
AcDbEntity
  8
0
  6
CONTINUOUS
 62
     7
100
AcDbCircle
 10
340.9353835707
 20
247.0337511286
 30
0.0
 40
2.498076211353293
  0
ARC
  5
2E7
330
1F
100
AcDbEntity
  8
0
  6
CONTINUOUS
 62
     7
100
AcDbCircle
 10
260.1211700083
 20
252.0337511286
 30
0.0
 40
1.0
100
AcDbArc
 50
270.0
 51
315.0
  0
LINE
  5
2E8
330
1F
100
AcDbEntity
  8
0
  6
CONTINUOUS
 62
     7
100
AcDbLine
 10
260.9353793979
 20
251.433752973
 30
0.0
 11
260.8282698512
 21
251.3266434263
 31
0.0
  0
LINE
  5
2E9
330
1F
100
AcDbEntity
  8
0
  6
CONTINUOUS
 62
     7
100
AcDbLine
 10
261.0424889445
 20
251.3266434263
 30
0.0
 11
260.9353793979
 21
251.433752973
 31
0.0
  0
ARC
  5
2EA
330
1F
100
AcDbEntity
  8
0
  6
CONTINUOUS
 62
     7
100
AcDbCircle
 10
261.7495971331
 20
252.0337511286
 30
0.0
 40
1.000000000000068
100
AcDbArc
 50
225.0
 51
270.0
  0
LINE
  5
2EB
330
1F
100
AcDbEntity
  8
0
  6
CONTINUOUS
 62
     7
100
AcDbLine
 10
304.0071858287
 20
251.0337499272
 30
0.0
 11
261.7495937466
 21
251.0337499272
 31
0.0
  0
ARC
  5
2EC
330
1F
100
AcDbEntity
  8
0
  6
CONTINUOUS
 62
     7
100
AcDbCircle
 10
304.0071803404
 20
254.0337511286
 30
0.0
 40
3.0
100
AcDbArc
 50
270.0
 51
330.0
  0
LINE
  5
2ED
330
1F
100
AcDbEntity
  8
0
  6
CONTINUOUS
 62
     7
100
AcDbLine
 10
307.1826083779
 20
253.5337512683
 30
0.0
 11
306.6052628875
 21
252.533752967
 31
0.0
  0
LINE
  5
2EE
330
1F
100
AcDbEntity
  8
0
  6
CONTINUOUS
 62
     7
100
AcDbLine
 10
314.6881593585
 20
253.5337512683
 30
0.0
 11
307.1826083779
 21
253.5337512683
 31
0.0
  0
LINE
  5
2EF
330
1F
100
AcDbEntity
  8
0
  6
CONTINUOUS
 62
     7
100
AcDbLine
 10
315.2655048489
 20
252.533752967
 30
0.0
 11
314.6881593585
 21
253.5337512683
 31
0.0
  0
ARC
  5
2F0
330
1F
100
AcDbEntity
  8
0
  6
CONTINUOUS
 62
     7
100
AcDbCircle
 10
317.863586801
 20
254.0337511286
 30
0.0
 40
3.0
100
AcDbArc
 50
210.0
 51
270.0
  0
LINE
  5
2F1
330
1F
100
AcDbEntity
  8
0
  6
CONTINUOUS
 62
     7
100
AcDbLine
 10
327.9369158864
 20
251.0337499272
 30
0.0
 11
317.8635819077
 21
251.0337499272
 31
0.0
  0
ARC
  5
2F2
330
1F
100
AcDbEntity
  8
0
  6
CONTINUOUS
 62
     7
100
AcDbCircle
 10
327.9369221233
 20
299.0337511286
 30
0.0
 40
47.99999999999999
100
AcDbArc
 50
270.0
 51
284.0346479352
  0
ARC
  5
2F3
330
1F
100
AcDbEntity
  8
0
  6
CONTINUOUS
 62
     7
100
AcDbCircle
 10
340.9353835707
 20
247.0337511286
 30
0.0
 40
5.600000000000036
100
AcDbArc
 50
255.9653520648
 51
104.0346479352
  0
ARC
  5
2F4
330
1F
100
AcDbEntity
  8
0
  6
CONTINUOUS
 62
     7
100
AcDbCircle
 10
327.9369221233
 20
195.0337511286
 30
0.0
 40
48.0
100
AcDbArc
 50
75.9653520648
 51
90.0
  0
LINE
  5
2F5
330
1F
100
AcDbEntity
  8
0
  6
CONTINUOUS
 62
     7
100
AcDbLine
 10
317.8635819077
 20
243.0337523412
 30
0.0
 11
327.9369158864
 21
243.0337523412
 31
0.0
  0
ARC
  5
2F6
330
1F
100
AcDbEntity
  8
0
  6
CONTINUOUS
 62
     7
100
AcDbCircle
 10
317.863586801
 20
240.0337511286
 30
0.0
 40
3.0
100
AcDbArc
 50
90.0
 51
150.0
  0
LINE
  5
2F7
330
1F
100
AcDbEntity
  8
0
  6
CONTINUOUS
 62
     7
100
AcDbLine
 10
314.6881593585
 20
240.5337510001
 30
0.0
 11
315.2655048489
 21
241.5337493013
 31
0.0
  0
LINE
  5
2F8
330
1F
100
AcDbEntity
  8
0
  6
CONTINUOUS
 62
     7
100
AcDbLine
 10
307.1826083779
 20
240.5337510001
 30
0.0
 11
314.6881593585
 21
240.5337510001
 31
0.0
  0
LINE
  5
2F9
330
1F
100
AcDbEntity
  8
0
  6
CONTINUOUS
 62
     7
100
AcDbLine
 10
306.6052628875
 20
241.5337493013
 30
0.0
 11
307.1826083779
 21
240.5337510001
 31
0.0
  0
ARC
  5
2FA
330
1F
100
AcDbEntity
  8
0
  6
CONTINUOUS
 62
     7
100
AcDbCircle
 10
304.0071803404
 20
240.0337511286
 30
0.0
 40
3.0
100
AcDbArc
 50
30.0
 51
90.0
  0
LINE
  5
2FB
330
1F
100
AcDbEntity
  8
0
  6
CONTINUOUS
 62
     7
100
AcDbLine
 10
261.7495937466
 20
243.0337523412
 30
0.0
 11
304.0071858287
 21
243.0337523412
 31
0.0
  0
ARC
  5
2FC
330
1F
100
AcDbEntity
  8
0
  6
CONTINUOUS
 62
     7
100
AcDbCircle
 10
261.7495971331
 20
242.0337511286
 30
0.0
 40
1.000000000000028
100
AcDbArc
 50
90.0
 51
135.0
  0
LINE
  5
2FD
330
1F
100
AcDbEntity
  8
0
  6
CONTINUOUS
 62
     7
100
AcDbLine
 10
260.9353793979
 20
242.6337492954
 30
0.0
 11
261.0424889445
 21
242.740858842
 31
0.0
  0
LINE
  5
2FE
330
1F
100
AcDbEntity
  8
0
  6
CONTINUOUS
 62
     7
100
AcDbLine
 10
260.8282698512
 20
242.740858842
 30
0.0
 11
260.9353793979
 21
242.6337492954
 31
0.0
  0
ARC
  5
2FF
330
1F
100
AcDbEntity
  8
0
  6
CONTINUOUS
 62
     7
100
AcDbCircle
 10
260.1211700083
 20
242.0337511286
 30
0.0
 40
1.0
100
AcDbArc
 50
45.0
 51
90.0
  0
LINE
  5
300
330
1F
100
AcDbEntity
  8
0
  6
CONTINUOUS
 62
     7
100
AcDbLine
 10
219.6675075412
 20
243.0337523412
 30
0.0
 11
260.1211650491
 21
243.0337523412
 31
0.0
  0
ARC
  5
301
330
1F
100
AcDbEntity
  8
0
  6
CONTINUOUS
 62
     7
100
AcDbCircle
 10
219.667508169
 20
233.0337511286
 30
0.0
 40
10.0
100
AcDbArc
 50
90.0
 51
121.9527464003
  0
ARC
  5
302
330
1F
100
AcDbEntity
  8
0
  6
CONTINUOUS
 62
     7
100
AcDbCircle
 10
210.9353835707
 20
247.0337511286
 30
0.0
 40
6.50000000000002
100
AcDbArc
 50
238.0472535997
 51
301.9527464003
  0
ARC
  5
303
330
1F
100
AcDbEntity
  8
0
  6
CONTINUOUS
 62
     7
100
AcDbCircle
 10
202.2032589724
 20
233.0337511286
 30
0.0
 40
10.0
100
AcDbArc
 50
58.0472535997
 51
90.0
  0
LINE
  5
304
330
1F
100
AcDbEntity
  8
0
  6
CONTINUOUS
 62
     7
100
AcDbLine
 10
193.9338429093
 20
243.0337523412
 30
0.0
 11
202.203257215
 21
243.0337523412
 31
0.0
  0
ARC
  5
305
330
1F
100
AcDbEntity
  8
0
  6
CONTINUOUS
 62
     7
100
AcDbCircle
 10
193.9338450181
 20
195.0337511286
 30
0.0
 40
48.0
100
AcDbArc
 50
90.0
 51
104.0346479352
  0
ARC
  5
306
330
1F
100
AcDbEntity
  8
0
  6
CONTINUOUS
 62
     7
100
AcDbCircle
 10
180.9353835707
 20
247.0337511286
 30
0.0
 40
5.600000000000022
100
AcDbArc
 50
75.9653520648
 51
284.0346479352
  0
ARC
  5
307
330
1F
100
AcDbEntity
  8
0
  6
CONTINUOUS
 62
     7
100
AcDbCircle
 10
193.9338450181
 20
299.0337511286
 30
0.0
 40
48.0
100
AcDbArc
 50
255.9653520648
 51
270.0
  0
LINE
  5
308
330
1F
100
AcDbEntity
  8
0
  6
CONTINUOUS
 62
     7
100
AcDbLine
 10
202.203257215
 20
251.0337499272
 30
0.0
 11
193.9338429093
 21
251.0337499272
 31
0.0
  0
ARC
  5
309
330
1F
100
AcDbEntity
  8
0
  6
CONTINUOUS
 62
     7
100
AcDbCircle
 10
202.2032589724
 20
261.0337511286
 30
0.0
 40
10.00000000000006
100
AcDbArc
 50
270.0
 51
301.9527464003
  0
ARC
  5
30A
330
1F
100
AcDbEntity
  8
0
  6
CONTINUOUS
 62
     7
100
AcDbCircle
 10
210.9353835707
 20
247.0337511286
 30
0.0
 40
6.499999999999971
100
AcDbArc
 50
58.0472535997
 51
121.9527464003
  0
LINE
  5
30B
330
1F
100
AcDbEntity
  8
0
  6
CONTINUOUS
 62
     7
100
AcDbLine
 10
260.1211650491
 20
251.0337499272
 30
0.0
 11
219.6675075412
 21
251.0337499272
 31
0.0
  0
ARC
  5
30C
330
1F
100
AcDbEntity
  8
0
  6
CONTINUOUS
 62
     7
100
AcDbCircle
 10
219.667508169
 20
261.0337511286
 30
0.0
 40
10.00000000000006
100
AcDbArc
 50
238.0472535997
 51
270.0
  0
CIRCLE
  5
30D
330
1F
100
AcDbEntity
  8
0
  6
CONTINUOUS
 62
     7
100
AcDbCircle
 10
211.2600366764
 20
346.7582260226
 30
0.0
 40
1.400000000000006
  0
CIRCLE
  5
30E
330
1F
100
AcDbEntity
  8
0
  6
CONTINUOUS
 62
     7
100
AcDbCircle
 10
181.2600366764
 20
346.7582260226
 30
0.0
 40
2.498076211353322
  0
LINE
  5
30F
330
1F
100
AcDbEntity
  8
0
  6
CONTINUOUS
 62
     7
100
AcDbLine
 10
312.9920942902
 20
346.7582208406
 30
0.0
 11
312.126068604
 21
348.258231331
 31
0.0
  0
LINE
  5
310
330
1F
100
AcDbEntity
  8
0
  6
CONTINUOUS
 62
     7
100
AcDbLine
 10
312.126068604
 20
348.258231331
 30
0.0
 11
310.3940172315
 21
348.258231331
 31
0.0
  0
LINE
  5
311
330
1F
100
AcDbEntity
  8
0
  6
CONTINUOUS
 62
     7
100
AcDbLine
 10
310.3940172315
 20
348.258231331
 30
0.0
 11
309.5279915452
 21
346.7582208406
 31
0.0
  0
LINE
  5
312
330
1F
100
AcDbEntity
  8
0
  6
CONTINUOUS
 62
     7
100
AcDbLine
 10
310.3940172315
 20
345.2582252513
 30
0.0
 11
312.126068604
 21
345.2582252513
 31
0.0
  0
LINE
  5
313
330
1F
100
AcDbEntity
  8
0
  6
CONTINUOUS
 62
     7
100
AcDbLine
 10
312.126068604
 20
345.2582252513
 30
0.0
 11
312.9920942902
 21
346.7582208406
 31
0.0
  0
CIRCLE
  5
314
330
1F
100
AcDbEntity
  8
0
  6
CONTINUOUS
 62
     7
100
AcDbCircle
 10
341.2600366764
 20
346.7582260226
 30
0.0
 40
2.49807621135335
  0
ARC
  5
315
330
1F
100
AcDbEntity
  8
0
  6
CONTINUOUS
 62
     7
100
AcDbCircle
 10
260.445823114
 20
351.7582260226
 30
0.0
 40
1.000000000000088
100
AcDbArc
 50
270.0
 51
315.0
  0
LINE
  5
316
330
1F
100
AcDbEntity
  8
0
  6
CONTINUOUS
 62
     7
100
AcDbLine
 10
261.2600309968
 20
351.1582208167
 30
0.0
 11
261.1529363513
 21
351.0511261712
 31
0.0
  0
LINE
  5
317
330
1F
100
AcDbEntity
  8
0
  6
CONTINUOUS
 62
     7
100
AcDbLine
 10
261.3671405434
 20
351.0511261712
 30
0.0
 11
261.2600309968
 21
351.1582208167
 31
0.0
  0
ARC
  5
318
330
1F
100
AcDbEntity
  8
0
  6
CONTINUOUS
 62
     7
100
AcDbCircle
 10
262.0742502387
 20
351.7582260226
 30
0.0
 40
1.000000000000048
100
AcDbArc
 50
225.0
 51
270.0
  0
ARC
  5
319
330
1F
100
AcDbEntity
  8
0
  6
CONTINUOUS
 62
     7
100
AcDbCircle
 10
304.3318334461
 20
353.7582260226
 30
0.0
 40
3.000000000000028
100
AcDbArc
 50
270.0
 51
330.0
  0
LINE
  5
31A
330
1F
100
AcDbEntity
  8
0
  6
CONTINUOUS
 62
     7
100
AcDbLine
 10
307.5072599769
 20
353.2582265626
 30
0.0
 11
306.9299144864
 21
352.2582245361
 31
0.0
  0
LINE
  5
31B
330
1F
100
AcDbEntity
  8
0
  6
CONTINUOUS
 62
     7
100
AcDbLine
 10
315.0128109574
 20
353.2582265626
 30
0.0
 11
307.5072599769
 21
353.2582265626
 31
0.0
  0
LINE
  5
31C
330
1F
100
AcDbEntity
  8
0
  6
CONTINUOUS
 62
     7
100
AcDbLine
 10
315.5901564479
 20
352.2582245361
 30
0.0
 11
315.0128109574
 21
353.2582265626
 31
0.0
  0
ARC
  5
31D
330
1F
100
AcDbEntity
  8
0
  6
CONTINUOUS
 62
     7
100
AcDbCircle
 10
318.1882399066
 20
353.7582260226
 30
0.0
 40
3.000000000000078
100
AcDbArc
 50
210.0
 51
270.0
  0
ARC
  5
31E
330
1F
100
AcDbEntity
  8
0
  6
CONTINUOUS
 62
     7
100
AcDbCircle
 10
328.261575229
 20
398.7582260226
 30
0.0
 40
47.99999999999998
100
AcDbArc
 50
270.0
 51
284.0346479352
  0
ARC
  5
31F
330
1F
100
AcDbEntity
  8
0
  6
CONTINUOUS
 62
     7
100
AcDbCircle
 10
341.2600366764
 20
346.7582260226
 30
0.0
 40
5.600000000000022
100
AcDbArc
 50
255.9653520648
 51
104.0346479352
  0
ARC
  5
320
330
1F
100
AcDbEntity
  8
0
  6
CONTINUOUS
 62
     7
100
AcDbCircle
 10
328.261575229
 20
294.7582260226
 30
0.0
 40
48.00000000000006
100
AcDbArc
 50
75.9653520648
 51
90.0
  0
ARC
  5
321
330
1F
100
AcDbEntity
  8
0
  6
CONTINUOUS
 62
     7
100
AcDbCircle
 10
318.1882399066
 20
339.7582260226
 30
0.0
 40
3.000000000000057
100
AcDbArc
 50
90.0
 51
150.0
  0
LINE
  5
322
330
1F
100
AcDbEntity
  8
0
  6
CONTINUOUS
 62
     7
100
AcDbLine
 10
315.0128109574
 20
340.2582300197
 30
0.0
 11
315.5901564479
 21
341.2582320463
 31
0.0
  0
LINE
  5
323
330
1F
100
AcDbEntity
  8
0
  6
CONTINUOUS
 62
     7
100
AcDbLine
 10
307.5072599769
 20
340.2582300197
 30
0.0
 11
315.0128109574
 21
340.2582300197
 31
0.0
  0
LINE
  5
324
330
1F
100
AcDbEntity
  8
0
  6
CONTINUOUS
 62
     7
100
AcDbLine
 10
306.9299144864
 20
341.2582320463
 30
0.0
 11
307.5072599769
 21
340.2582300197
 31
0.0
  0
ARC
  5
325
330
1F
100
AcDbEntity
  8
0
  6
CONTINUOUS
 62
     7
100
AcDbCircle
 10
304.3318334461
 20
339.7582260226
 30
0.0
 40
3.000000000000057
100
AcDbArc
 50
30.0
 51
90.0
  0
ARC
  5
326
330
1F
100
AcDbEntity
  8
0
  6
CONTINUOUS
 62
     7
100
AcDbCircle
 10
262.0742502387
 20
341.7582260226
 30
0.0
 40
1.0
100
AcDbArc
 50
90.0
 51
135.0
  0
LINE
  5
327
330
1F
100
AcDbEntity
  8
0
  6
CONTINUOUS
 62
     7
100
AcDbLine
 10
261.2600309968
 20
342.3582208644
 30
0.0
 11
261.3671405434
 21
342.4653304111
 31
0.0
  0
LINE
  5
328
330
1F
100
AcDbEntity
  8
0
  6
CONTINUOUS
 62
     7
100
AcDbLine
 10
261.1529363513
 20
342.4653304111
 30
0.0
 11
261.2600309968
 21
342.3582208644
 31
0.0
  0
ARC
  5
329
330
1F
100
AcDbEntity
  8
0
  6
CONTINUOUS
 62
     7
100
AcDbCircle
 10
260.445823114
 20
341.7582260226
 30
0.0
 40
1.000000000000008
100
AcDbArc
 50
45.0
 51
90.0
  0
ARC
  5
32A
330
1F
100
AcDbEntity
  8
0
  6
CONTINUOUS
 62
     7
100
AcDbCircle
 10
219.9921612747
 20
332.7582260226
 30
0.0
 40
10.00000000000006
100
AcDbArc
 50
90.0
 51
121.9527464003
  0
ARC
  5
32B
330
1F
100
AcDbEntity
  8
0
  6
CONTINUOUS
 62
     7
100
AcDbCircle
 10
211.2600366764
 20
346.7582260226
 30
0.0
 40
6.500000000000091
100
AcDbArc
 50
238.0472535997
 51
301.9527464003
  0
ARC
  5
32C
330
1F
100
AcDbEntity
  8
0
  6
CONTINUOUS
 62
     7
100
AcDbCircle
 10
202.5279120781
 20
332.7582260226
 30
0.0
 40
10.00000000000006
100
AcDbArc
 50
58.0472535997
 51
90.0
  0
LINE
  5
32D
330
1F
100
AcDbEntity
  8
0
  6
CONTINUOUS
 62
     7
100
AcDbLine
 10
194.2584945083
 20
342.7582276355
 30
0.0
 11
202.5279088139
 21
342.7582276355
 31
0.0
  0
ARC
  5
32E
330
1F
100
AcDbEntity
  8
0
  6
CONTINUOUS
 62
     7
100
AcDbCircle
 10
194.2584981238
 20
294.7582260226
 30
0.0
 40
48.00000000000006
100
AcDbArc
 50
90.0
 51
104.0346479352
  0
ARC
  5
32F
330
1F
100
AcDbEntity
  8
0
  6
CONTINUOUS
 62
     7
100
AcDbCircle
 10
181.2600366764
 20
346.7582260226
 30
0.0
 40
5.600000000000022
100
AcDbArc
 50
75.9653520648
 51
284.0346479352
  0
ARC
  5
330
330
1F
100
AcDbEntity
  8
0
  6
CONTINUOUS
 62
     7
100
AcDbCircle
 10
194.2584981238
 20
398.7582260226
 30
0.0
 40
47.99999999999998
100
AcDbArc
 50
255.9653520648
 51
270.0
  0
ARC
  5
331
330
1F
100
AcDbEntity
  8
0
  6
CONTINUOUS
 62
     7
100
AcDbCircle
 10
219.9921612747
 20
360.7582260226
 30
0.0
 40
10.00000000000001
100
AcDbArc
 50
238.0472535997
 51
270.0
  0
LINE
  5
332
330
1F
100
AcDbEntity
  8
0
  6
CONTINUOUS
 62
     7
100
AcDbLine
 10
262.0742453456
 20
342.7582276355
 30
0.0
 11
304.3318374276
 21
342.7582276355
 31
0.0
  0
LINE
  5
333
330
1F
100
AcDbEntity
  8
0
  6
CONTINUOUS
 62
     7
100
AcDbLine
 10
309.5279915452
 20
346.7582208406
 30
0.0
 11
310.3940172315
 21
345.2582252513
 31
0.0
  0
LINE
  5
334
330
1F
100
AcDbEntity
  8
0
  6
CONTINUOUS
 62
     7
100
AcDbLine
 10
318.1882335067
 20
342.7582276355
 30
0.0
 11
328.2615823865
 21
342.7582276355
 31
0.0
  0
LINE
  5
335
330
1F
100
AcDbEntity
  8
0
  6
CONTINUOUS
 62
     7
100
AcDbLine
 10
304.3318374276
 20
350.7582289468
 30
0.0
 11
262.0742453456
 21
350.7582289468
 31
0.0
  0
LINE
  5
336
330
1F
100
AcDbEntity
  8
0
  6
CONTINUOUS
 62
     7
100
AcDbLine
 10
219.9921591401
 20
342.7582276355
 30
0.0
 11
260.445816648
 21
342.7582276355
 31
0.0
  0
LINE
  5
337
330
1F
100
AcDbEntity
  8
0
  6
CONTINUOUS
 62
     7
100
AcDbLine
 10
202.5279088139
 20
350.7582289468
 30
0.0
 11
194.2584945083
 21
350.7582289468
 31
0.0
  0
LINE
  5
338
330
1F
100
AcDbEntity
  8
0
  6
CONTINUOUS
 62
     7
100
AcDbLine
 10
260.445816648
 20
350.7582289468
 30
0.0
 11
219.9921591401
 21
350.7582289468
 31
0.0
  0
ARC
  5
339
330
1F
100
AcDbEntity
  8
0
  6
CONTINUOUS
 62
     7
100
AcDbCircle
 10
211.2600366764
 20
346.7582260226
 30
0.0
 40
6.499999999999947
100
AcDbArc
 50
58.0472535997
 51
121.9527464003
  0
ARC
  5
33A
330
1F
100
AcDbEntity
  8
0
  6
CONTINUOUS
 62
     7
100
AcDbCircle
 10
202.5279120781
 20
360.7582260226
 30
0.0
 40
10.00000000000006
100
AcDbArc
 50
270.0
 51
301.9527464003
  0
LINE
  5
33B
330
1F
100
AcDbEntity
  8
0
  6
CONTINUOUS
 62
     7
100
AcDbLine
 10
328.2615823865
 20
350.7582289468
 30
0.0
 11
318.1882335067
 21
350.7582289468
 31
0.0
  0
CIRCLE
  5
33C
330
1F
100
AcDbEntity
  8
0
  6
CONTINUOUS
 62
     7
100
AcDbCircle
 10
211.5527793607
 20
289.0944437366
 30
0.0
 40
1.399999999999977
  0
CIRCLE
  5
33D
330
1F
100
AcDbEntity
  8
0
  6
CONTINUOUS
 62
     7
100
AcDbCircle
 10
181.5527793607
 20
289.0944437366
 30
0.0
 40
2.49807621135335
  0
LINE
  5
33E
330
1F
100
AcDbEntity
  8
0
  6
CONTINUOUS
 62
     7
100
AcDbLine
 10
313.2848276019
 20
289.0944448601
 30
0.0
 11
312.4188019156
 21
290.5944404494
 31
0.0
  0
LINE
  5
33F
330
1F
100
AcDbEntity
  8
0
  6
CONTINUOUS
 62
     7
100
AcDbLine
 10
312.4188019156
 20
290.5944404494
 30
0.0
 11
310.6867505431
 21
290.5944404494
 31
0.0
  0
LINE
  5
340
330
1F
100
AcDbEntity
  8
0
  6
CONTINUOUS
 62
     7
100
AcDbLine
 10
309.8207248568
 20
289.0944448601
 30
0.0
 11
310.6867505431
 21
287.5944418203
 31
0.0
  0
LINE
  5
341
330
1F
100
AcDbEntity
  8
0
  6
CONTINUOUS
 62
     7
100
AcDbLine
 10
310.6867505431
 20
287.5944418203
 30
0.0
 11
312.4188019156
 21
287.5944418203
 31
0.0
  0
LINE
  5
342
330
1F
100
AcDbEntity
  8
0
  6
CONTINUOUS
 62
     7
100
AcDbLine
 10
312.4188019156
 20
287.5944418203
 30
0.0
 11
313.2848276019
 21
289.0944448601
 31
0.0
  0
CIRCLE
  5
343
330
1F
100
AcDbEntity
  8
0
  6
CONTINUOUS
 62
     7
100
AcDbCircle
 10
341.5527793607
 20
289.0944437366
 30
0.0
 40
2.49807621135335
  0
ARC
  5
344
330
1F
100
AcDbEntity
  8
0
  6
CONTINUOUS
 62
     7
100
AcDbCircle
 10
260.7385657983
 20
294.0944437366
 30
0.0
 40
1.0
100
AcDbArc
 50
270.0
 51
315.0
  0
LINE
  5
345
330
1F
100
AcDbEntity
  8
0
  6
CONTINUOUS
 62
     7
100
AcDbLine
 10
261.5527792096
 20
293.4944448363
 30
0.0
 11
261.4456696629
 21
293.3873352896
 31
0.0
  0
LINE
  5
346
330
1F
100
AcDbEntity
  8
0
  6
CONTINUOUS
 62
     7
100
AcDbLine
 10
261.6598887563
 20
293.3873352896
 30
0.0
 11
261.5527792096
 21
293.4944448363
 31
0.0
  0
ARC
  5
347
330
1F
100
AcDbEntity
  8
0
  6
CONTINUOUS
 62
     7
100
AcDbCircle
 10
262.366992923
 20
294.0944437366
 30
0.0
 40
1.000000000000008
100
AcDbArc
 50
225.0
 51
270.0
  0
ARC
  5
348
330
1F
100
AcDbEntity
  8
0
  6
CONTINUOUS
 62
     7
100
AcDbCircle
 10
304.6245761304
 20
296.0944437366
 30
0.0
 40
3.0
100
AcDbArc
 50
270.0
 51
330.0
  0
LINE
  5
349
330
1F
100
AcDbEntity
  8
0
  6
CONTINUOUS
 62
     7
100
AcDbLine
 10
307.8000081897
 20
295.5944431316
 30
0.0
 11
307.222647798
 21
294.594441105
 31
0.0
  0
LINE
  5
34A
330
1F
100
AcDbEntity
  8
0
  6
CONTINUOUS
 62
     7
100
AcDbLine
 10
315.3055591702
 20
295.5944431316
 30
0.0
 11
307.8000081897
 21
295.5944431316
 31
0.0
  0
LINE
  5
34B
330
1F
100
AcDbEntity
  8
0
  6
CONTINUOUS
 62
     7
100
AcDbLine
 10
315.8829046607
 20
294.594441105
 30
0.0
 11
315.3055591702
 21
295.5944431316
 31
0.0
  0
ARC
  5
34C
330
1F
100
AcDbEntity
  8
0
  6
CONTINUOUS
 62
     7
100
AcDbCircle
 10
318.4809825909
 20
296.0944437366
 30
0.0
 40
3.0
100
AcDbArc
 50
210.0
 51
270.0
  0
ARC
  5
34D
330
1F
100
AcDbEntity
  8
0
  6
CONTINUOUS
 62
     7
100
AcDbCircle
 10
328.5543179132
 20
341.0944437366
 30
0.0
 40
47.99999999999998
100
AcDbArc
 50
270.0
 51
284.0346479352
  0
ARC
  5
34E
330
1F
100
AcDbEntity
  8
0
  6
CONTINUOUS
 62
     7
100
AcDbCircle
 10
341.5527793607
 20
289.0944437366
 30
0.0
 40
5.600000000000036
100
AcDbArc
 50
255.9653520648
 51
104.0346479352
  0
ARC
  5
34F
330
1F
100
AcDbEntity
  8
0
  6
CONTINUOUS
 62
     7
100
AcDbCircle
 10
328.5543179132
 20
237.0944437366
 30
0.0
 40
48.00000000000006
100
AcDbArc
 50
75.9653520648
 51
90.0
  0
ARC
  5
350
330
1F
100
AcDbEntity
  8
0
  6
CONTINUOUS
 62
     7
100
AcDbCircle
 10
318.4809825909
 20
282.0944437366
 30
0.0
 40
2.999999999999972
100
AcDbArc
 50
90.0
 51
150.0
  0
LINE
  5
351
330
1F
100
AcDbEntity
  8
0
  6
CONTINUOUS
 62
     7
100
AcDbLine
 10
315.3055591702
 20
282.5944465886
 30
0.0
 11
315.8829046607
 21
283.5944411646
 31
0.0
  0
LINE
  5
352
330
1F
100
AcDbEntity
  8
0
  6
CONTINUOUS
 62
     7
100
AcDbLine
 10
307.8000081897
 20
282.5944465886
 30
0.0
 11
315.3055591702
 21
282.5944465886
 31
0.0
  0
LINE
  5
353
330
1F
100
AcDbEntity
  8
0
  6
CONTINUOUS
 62
     7
100
AcDbLine
 10
307.222647798
 20
283.5944411646
 30
0.0
 11
307.8000081897
 21
282.5944465886
 31
0.0
  0
ARC
  5
354
330
1F
100
AcDbEntity
  8
0
  6
CONTINUOUS
 62
     7
100
AcDbCircle
 10
304.6245761304
 20
282.0944437366
 30
0.0
 40
2.999999999999943
100
AcDbArc
 50
30.0
 51
90.0
  0
ARC
  5
355
330
1F
100
AcDbEntity
  8
0
  6
CONTINUOUS
 62
     7
100
AcDbCircle
 10
262.366992923
 20
284.0944437366
 30
0.0
 40
1.000000000000048
100
AcDbArc
 50
90.0
 51
135.0
  0
LINE
  5
356
330
1F
100
AcDbEntity
  8
0
  6
CONTINUOUS
 62
     7
100
AcDbLine
 10
261.5527792096
 20
284.694444884
 30
0.0
 11
261.6598887563
 21
284.80154698
 31
0.0
  0
LINE
  5
357
330
1F
100
AcDbEntity
  8
0
  6
CONTINUOUS
 62
     7
100
AcDbLine
 10
261.4456696629
 20
284.80154698
 30
0.0
 11
261.5527792096
 21
284.694444884
 31
0.0
  0
ARC
  5
358
330
1F
100
AcDbEntity
  8
0
  6
CONTINUOUS
 62
     7
100
AcDbCircle
 10
260.7385657983
 20
284.0944437366
 30
0.0
 40
1.000000000000008
100
AcDbArc
 50
45.0
 51
90.0
  0
ARC
  5
359
330
1F
100
AcDbEntity
  8
0
  6
CONTINUOUS
 62
     7
100
AcDbCircle
 10
220.2849039589
 20
275.0944437366
 30
0.0
 40
9.999999999999964
100
AcDbArc
 50
90.0
 51
121.9527464003
  0
ARC
  5
35A
330
1F
100
AcDbEntity
  8
0
  6
CONTINUOUS
 62
     7
100
AcDbCircle
 10
211.5527793607
 20
289.0944437366
 30
0.0
 40
6.499999999999995
100
AcDbArc
 50
238.0472535997
 51
301.9527464003
  0
ARC
  5
35B
330
1F
100
AcDbEntity
  8
0
  6
CONTINUOUS
 62
     7
100
AcDbCircle
 10
202.8206547624
 20
275.0944437366
 30
0.0
 40
9.999999999999964
100
AcDbArc
 50
58.0472535997
 51
90.0
  0
LINE
  5
35C
330
1F
100
AcDbEntity
  8
0
  6
CONTINUOUS
 62
     7
100
AcDbLine
 10
194.5512427211
 20
285.0944442045
 30
0.0
 11
202.8206570268
 21
285.0944442045
 31
0.0
  0
ARC
  5
35D
330
1F
100
AcDbEntity
  8
0
  6
CONTINUOUS
 62
     7
100
AcDbCircle
 10
194.5512408081
 20
237.0944437366
 30
0.0
 40
48.00000000000005
100
AcDbArc
 50
90.0
 51
104.0346479352
  0
ARC
  5
35E
330
1F
100
AcDbEntity
  8
0
  6
CONTINUOUS
 62
     7
100
AcDbCircle
 10
181.5527793607
 20
289.0944437366
 30
0.0
 40
5.600000000000029
100
AcDbArc
 50
75.9653520648
 51
284.0346479352
  0
ARC
  5
35F
330
1F
100
AcDbEntity
  8
0
  6
CONTINUOUS
 62
     7
100
AcDbCircle
 10
194.5512408081
 20
341.0944437366
 30
0.0
 40
47.99999999999997
100
AcDbArc
 50
255.9653520648
 51
270.0
  0
ARC
  5
360
330
1F
100
AcDbEntity
  8
0
  6
CONTINUOUS
 62
     7
100
AcDbCircle
 10
202.8206547624
 20
303.0944437366
 30
0.0
 40
10.00000000000001
100
AcDbArc
 50
270.0
 51
301.9527464003
  0
ARC
  5
361
330
1F
100
AcDbEntity
  8
0
  6
CONTINUOUS
 62
     7
100
AcDbCircle
 10
211.5527793607
 20
289.0944437366
 30
0.0
 40
6.500000000000044
100
AcDbArc
 50
58.0472535997
 51
121.9527464003
  0
ARC
  5
362
330
1F
100
AcDbEntity
  8
0
  6
CONTINUOUS
 62
     7
100
AcDbCircle
 10
220.2849039589
 20
303.0944437366
 30
0.0
 40
10.00000000000001
100
AcDbArc
 50
238.0472535997
 51
270.0
  0
LINE
  5
363
330
1F
100
AcDbEntity
  8
0
  6
CONTINUOUS
 62
     7
100
AcDbLine
 10
310.6867505431
 20
290.5944404494
 30
0.0
 11
309.8207248568
 21
289.0944448601
 31
0.0
  0
LINE
  5
364
330
1F
100
AcDbEntity
  8
0
  6
CONTINUOUS
 62
     7
100
AcDbLine
 10
328.5543156981
 20
293.0944455158
 30
0.0
 11
318.4809817195
 21
293.0944455158
 31
0.0
  0
LINE
  5
365
330
1F
100
AcDbEntity
  8
0
  6
CONTINUOUS
 62
     7
100
AcDbLine
 10
318.4809817195
 20
285.0944442045
 30
0.0
 11
328.5543156981
 21
285.0944442045
 31
0.0
  0
LINE
  5
366
330
1F
100
AcDbEntity
  8
0
  6
CONTINUOUS
 62
     7
100
AcDbLine
 10
304.6245707393
 20
293.0944455158
 30
0.0
 11
262.3669935584
 21
293.0944455158
 31
0.0
  0
LINE
  5
367
330
1F
100
AcDbEntity
  8
0
  6
CONTINUOUS
 62
     7
100
AcDbLine
 10
220.2849073529
 20
285.0944442045
 30
0.0
 11
260.7385648608
 21
285.0944442045
 31
0.0
  0
LINE
  5
368
330
1F
100
AcDbEntity
  8
0
  6
CONTINUOUS
 62
     7
100
AcDbLine
 10
202.8206570268
 20
293.0944455158
 30
0.0
 11
194.5512427211
 21
293.0944455158
 31
0.0
  0
LINE
  5
369
330
1F
100
AcDbEntity
  8
0
  6
CONTINUOUS
 62
     7
100
AcDbLine
 10
260.7385648608
 20
293.0944455158
 30
0.0
 11
220.2849073529
 21
293.0944455158
 31
0.0
  0
LINE
  5
36A
330
1F
100
AcDbEntity
  8
0
  6
CONTINUOUS
 62
     7
100
AcDbLine
 10
262.3669935584
 20
285.0944442045
 30
0.0
 11
304.6245707393
 21
285.0944442045
 31
0.0
  0
ENDSEC
  0
SECTION
  2
OBJECTS
  0
DICTIONARY
  5
C
330
0
100
AcDbDictionary
  3
ACAD_GROUP
350
D
  3
ACAD_MLINESTYLE
350
17
  3
ACAD_SCALELIST
350
47
  0
DICTIONARY
  5
D
102
{ACAD_REACTORS
330
C
102
}
330
C
100
AcDbDictionary
  0
DICTIONARY
  5
17
102
{ACAD_REACTORS
330
C
102
}
330
C
100
AcDbDictionary
  3
STANDARD
350
18
  0
DICTIONARY
  5
47
102
{ACAD_REACTORS
330
C
102
}
330
C
100
AcDbDictionary
  0
MLINESTYLE
  5
18
102
{ACAD_REACTORS
330
17
102
}
330
17
100
AcDbMlineStyle
  2
Standard
 70
     0
  3

 62
   256
 51
90.0
 52
90.0
 71
     2
 49
0.5
 62
   256
  6
BYLAYER
 49
-0.5
 62
   256
  6
BYLAYER
  0
ENDSEC
  0
EOF
