  0
SECTION
  2
HEADER
  9
$ACADVER
  1
AC1014
  9
$ACADMAINTVER
 70
     9
  9
$DWGCODEPAGE
  3
ANSI_1252
  9
$INSBASE
 10
0.0
 20
0.0
 30
0.0
  9
$EXTMIN
 10
0.0
 20
0.0
 30
0.0
  9
$EXTMAX
 10
550.0
 20
400.0
 30
0.0
  9
$LIMMIN
 10
0.0
 20
0.0
  9
$LIMMAX
 10
550.0
 20
400.0
  9
$ORTHOMODE
 70
     0
  9
$REGENMODE
 70
     1
  9
$FILLMODE
 70
     1
  9
$QTEXTMODE
 70
     0
  9
$MIRRTEXT
 70
     1
  9
$DRAGMODE
 70
     2
  9
$LTSCALE
 40
1.0
  9
$OSMODE
 70
    37
  9
$ATTMODE
 70
     1
  9
$TEXTSIZE
 40
3.5
  9
$TRACEWID
 40
1.0
  9
$TEXTSTYLE
  7
STANDARD
  9
$CLAYER
  8
0
  9
$CELTYPE
  6
BYLAYER
  9
$CECOLOR
 62
   256
  9
$CELTSCALE
 40
1.0
  9
$DELOBJ
 70
     1
  9
$DISPSILH
 70
     0
  9
$DIMSCALE
 40
1.0
  9
$DIMASZ
 40
3.302
  9
$DIMEXO
 40
1.0
  9
$DIMDLI
 40
3.75
  9
$DIMRND
 40
0.0
  9
$DIMDLE
 40
0.0
  9
$DIMEXE
 40
1.0
  9
$DIMTP
 40
0.0
  9
$DIMTM
 40
0.0
  9
$DIMTXT
 40
3.5
  9
$DIMCEN
 40
2.5
  9
$DIMTSZ
 40
0.0
  9
$DIMTOL
 70
     0
  9
$DIMLIM
 70
     0
  9
$DIMTIH
 70
     1
  9
$DIMTOH
 70
     1
  9
$DIMSE1
 70
     0
  9
$DIMSE2
 70
     0
  9
$DIMTAD
 70
     1
  9
$DIMZIN
 70
     0
  9
$DIMBLK
  1

  9
$DIMASO
 70
     1
  9
$DIMSHO
 70
     1
  9
$DIMPOST
  1

  9
$DIMAPOST
  1

  9
$DIMALT
 70
     0
  9
$DIMALTD
 70
     3
  9
$DIMALTF
 40
0.0393700787
  9
$DIMLFAC
 40
1.0
  9
$DIMTOFL
 70
     1
  9
$DIMTVP
 40
0.0
  9
$DIMTIX
 70
     0
  9
$DIMSOXD
 70
     0
  9
$DIMSAH
 70
     0
  9
$DIMBLK1
  1

  9
$DIMBLK2
  1

  9
$DIMSTYLE
  2
ISO-25
  9
$DIMCLRD
 70
     0
  9
$DIMCLRE
 70
     0
  9
$DIMCLRT
 70
     0
  9
$DIMTFAC
 40
1.0
  9
$DIMGAP
 40
1.524
  9
$DIMJUST
 70
     0
  9
$DIMSD1
 70
     0
  9
$DIMSD2
 70
     0
  9
$DIMTOLJ
 70
     0
  9
$DIMTZIN
 70
     0
  9
$DIMALTZ
 70
     0
  9
$DIMALTTZ
 70
     0
  9
$DIMFIT
 70
     3
  9
$DIMUPT
 70
     0
  9
$DIMUNIT
 70
     2
  9
$DIMDEC
 70
     2
  9
$DIMTDEC
 70
     2
  9
$DIMALTU
 70
     2
  9
$DIMALTTD
 70
     3
  9
$DIMTXSTY
  7
STANDARD
  9
$DIMAUNIT
 70
     0
  9
$LUNITS
 70
     2
  9
$LUPREC
 70
     2
  9
$SKETCHINC
 40
1.0
  9
$FILLETRAD
 40
10.0
  9
$AUNITS
 70
     0
  9
$AUPREC
 70
     0
  9
$MENU
  1
.
  9
$ELEVATION
 40
0.0
  9
$PELEVATION
 40
0.0
  9
$THICKNESS
 40
0.0
  9
$LIMCHECK
 70
     0
  9
$CHAMFERA
 40
0.0
  9
$CHAMFERB
 40
0.0
  9
$CHAMFERC
 40
0.0
  9
$CHAMFERD
 40
0.0
  9
$SKPOLY
 70
     0
  9
$TDCREATE
 40
2457199.456548808
  9
$TDUPDATE
 40
2457199.456549525
  9
$TDINDWG
 40
0.0000000116
  9
$TDUSRTIMER
 40
0.0000000116
  9
$USRTIMER
 70
     1
  9
$ANGBASE
 50
0.0
  9
$ANGDIR
 70
     0
  9
$PDMODE
 70
     0
  9
$PDSIZE
 40
-1.0
  9
$PLINEWID
 40
0.0
  9
$COORDS
 70
     1
  9
$SPLFRAME
 70
     0
  9
$SPLINETYPE
 70
     6
  9
$SPLINESEGS
 70
     8
  9
$ATTDIA
 70
     0
  9
$ATTREQ
 70
     1
  9
$HANDLING
 70
     1
  9
$HANDSEED
  5
235
  9
$SURFTAB1
 70
     6
  9
$SURFTAB2
 70
     6
  9
$SURFTYPE
 70
     6
  9
$SURFU
 70
     6
  9
$SURFV
 70
     6
  9
$UCSNAME
  2

  9
$UCSORG
 10
0.0
 20
0.0
 30
0.0
  9
$UCSXDIR
 10
1.0
 20
0.0
 30
0.0
  9
$UCSYDIR
 10
0.0
 20
1.0
 30
0.0
  9
$PUCSNAME
  2

  9
$PUCSORG
 10
0.0
 20
0.0
 30
0.0
  9
$PUCSXDIR
 10
1.0
 20
0.0
 30
0.0
  9
$PUCSYDIR
 10
0.0
 20
1.0
 30
0.0
  9
$USERI1
 70
     0
  9
$USERI2
 70
     0
  9
$USERI3
 70
     0
  9
$USERI4
 70
     0
  9
$USERI5
 70
     0
  9
$USERR1
 40
0.0
  9
$USERR2
 40
0.0
  9
$USERR3
 40
0.0
  9
$USERR4
 40
0.0
  9
$USERR5
 40
0.0
  9
$WORLDVIEW
 70
     1
  9
$SHADEDGE
 70
     3
  9
$SHADEDIF
 70
    70
  9
$TILEMODE
 70
     1
  9
$MAXACTVP
 70
    64
  9
$PINSBASE
 10
0.0
 20
0.0
 30
0.0
  9
$PLIMCHECK
 70
     0
  9
$PEXTMIN
 10
1.0000000000E+20
 20
1.0000000000E+20
 30
1.0000000000E+20
  9
$PEXTMAX
 10
-1.0000000000E+20
 20
-1.0000000000E+20
 30
-1.0000000000E+20
  9
$PLIMMIN
 10
0.0
 20
0.0
  9
$PLIMMAX
 10
420.0
 20
297.0
  9
$UNITMODE
 70
     0
  9
$VISRETAIN
 70
     1
  9
$PLINEGEN
 70
     0
  9
$PSLTSCALE
 70
     1
  9
$TREEDEPTH
 70
  3020
  9
$PICKSTYLE
 70
     1
  9
$CMLSTYLE
  2
STANDARD
  9
$CMLJUST
 70
     0
  9
$CMLSCALE
 40
20.0
  9
$PROXYGRAPHICS
 70
     1
  9
$MEASUREMENT
 70
     1
  0
ENDSEC
  0
SECTION
  2
CLASSES
  0
CLASS
  1
ACDBDICTIONARYWDFLT
  2
AcDbDictionaryWithDefault
  3
ObjectDBX Classes
 90
        0
280
     0
281
     0
  0
CLASS
  1
VISUALSTYLE
  2
AcDbVisualStyle
  3
ObjectDBX Classes
 90
     4095
280
     0
281
     0
  0
CLASS
  1
MATERIAL
  2
AcDbMaterial
  3
ObjectDBX Classes
 90
     1153
280
     0
281
     0
  0
CLASS
  1
SCALE
  2
AcDbScale
  3
ObjectDBX Classes
 90
     1153
280
     0
281
     0
  0
CLASS
  1
TABLESTYLE
  2
AcDbTableStyle
  3
ObjectDBX Classes
 90
     4095
280
     0
281
     0
  0
CLASS
  1
MLEADERSTYLE
  2
AcDbMLeaderStyle
  3
ACDB_MLEADERSTYLE_CLASS
 90
     4095
280
     0
281
     0
  0
CLASS
  1
SUN
  2
AcDbSun
  3
SCENEOE
 90
     1153
280
     0
281
     0
  0
CLASS
  1
XRECORD
  2
AcDbXrecord
  3
ObjectDBX Classes
 90
        0
280
     0
281
     0
  0
CLASS
  1
LWPOLYLINE
  2
AcDbPolyline
  3
ObjectDBX Classes
 90
        0
280
     0
281
     1
  0
CLASS
  1
HATCH
  2
AcDbHatch
  3
ObjectDBX Classes
 90
        0
280
     0
281
     1
  0
ENDSEC
  0
SECTION
  2
TABLES
  0
TABLE
  2
VPORT
  5
8
330
0
100
AcDbSymbolTable
 70
     1
  0
VPORT
  5
29
330
8
100
AcDbSymbolTableRecord
100
AcDbViewportTableRecord
  2
*ACTIVE
 70
     0
 10
0.0
 20
0.0
 11
1.0
 21
1.0
 12
275.0
 22
200.0
 13
0.0
 23
0.0
 14
10.0
 24
10.0
 15
10.0
 25
10.0
 16
0.0
 26
0.0
 36
1.0
 17
0.0
 27
0.0
 37
0.0
 40
400.0
 41
1.375
 42
50.0
 43
0.0
 44
0.0
 50
0.0
 51
0.0
 71
     0
 72
  2000
 73
     1
 74
     3
 75
     0
 76
     0
 77
     0
 78
     0
  0
ENDTAB
  0
TABLE
  2
LTYPE
  5
5
330
0
100
AcDbSymbolTable
 70
     6
  0
LTYPE
  5
14
330
5
100
AcDbSymbolTableRecord
100
AcDbLinetypeTableRecord
  2
BYBLOCK
 70
     0
  3

 72
    65
 73
     0
 40
0.0
  0
LTYPE
  5
15
330
5
100
AcDbSymbolTableRecord
100
AcDbLinetypeTableRecord
  2
BYLAYER
 70
     0
  3

 72
    65
 73
     0
 40
0.0
  0
LTYPE
  5
16
330
5
100
AcDbSymbolTableRecord
100
AcDbLinetypeTableRecord
  2
CONTINUOUS
 70
     0
  3
Solid line
 72
    65
 73
     0
 40
0.0
  0
LTYPE
  5
6E
330
5
100
AcDbSymbolTableRecord
100
AcDbLinetypeTableRecord
  2
HIDDEN
 70
     0
  3
Hidden __ __ __ __ __ __ __ __ __ __ __ __ __ __
 72
    65
 73
     2
 40
1.905
 49
1.27
 74
     0
 49
-0.635
 74
     0
  0
LTYPE
  5
6F
330
5
100
AcDbSymbolTableRecord
100
AcDbLinetypeTableRecord
  2
PHANTOM
 70
     0
  3
Phantom ______  __  __  ______  __  __  ______
 72
    65
 73
     6
 40
12.7
 49
6.35
 74
     0
 49
-1.27
 74
     0
 49
1.27
 74
     0
 49
-1.27
 74
     0
 49
1.27
 74
     0
 49
-1.27
 74
     0
  0
LTYPE
  5
70
330
5
100
AcDbSymbolTableRecord
100
AcDbLinetypeTableRecord
  2
CENTER
 70
     0
  3
Center ____ _ ____ _ ____ _ ____ _ ____ _ ____
 72
    65
 73
     4
 40
10.16
 49
6.35
 74
     0
 49
-1.27
 74
     0
 49
1.27
 74
     0
 49
-1.27
 74
     0
  0
LTYPE
  5
71
330
5
100
AcDbSymbolTableRecord
100
AcDbLinetypeTableRecord
  2
CENTERX2
 70
     0
  3
Center (2x) ________  __  ________  __  _____
 72
    65
 73
     4
 40
20.32
 49
12.7
 74
     0
 49
-2.54
 74
     0
 49
2.54
 74
     0
 49
-2.54
 74
     0
  0
LTYPE
  5
72
330
5
100
AcDbSymbolTableRecord
100
AcDbLinetypeTableRecord
  2
DOT2
 70
     0
  3
Dot (.5x) ........................................
 72
    65
 73
     2
 40
0.635
 49
0.0
 74
     0
 49
-0.635
 74
     0
  0
ENDTAB
  0
TABLE
  2
LAYER
  5
2
330
0
100
AcDbSymbolTable
 70
     7
  0
LAYER
  5
10
330
2
100
AcDbSymbolTableRecord
100
AcDbLayerTableRecord
  2
0
 70
     0
 62
     7
  6
CONTINUOUS
  0
LAYER
  5
73
330
2
100
AcDbSymbolTableRecord
100
AcDbLayerTableRecord
  2
FORMAT
 70
     0
 62
     7
  6
CONTINUOUS
  0
LAYER
  5
74
330
2
100
AcDbSymbolTableRecord
100
AcDbLayerTableRecord
  2
SLD-0
 70
     0
 62
     7
  6
CONTINUOUS
  0
LAYER
  5
75
330
2
100
AcDbSymbolTableRecord
100
AcDbLayerTableRecord
  2
LAYER_1
 70
     0
 62
   179
  6
CONTINUOUS
  0
LAYER
  5
76
330
2
100
AcDbSymbolTableRecord
100
AcDbLayerTableRecord
  2
RED_ITEMS
 70
     0
 62
     1
  6
CONTINUOUS
  0
LAYER
  5
77
330
2
100
AcDbSymbolTableRecord
100
AcDbLayerTableRecord
  2
BLUE_ITEMS
 70
     0
 62
     5
  6
CONTINUOUS
  0
LAYER
  5
78
330
2
100
AcDbSymbolTableRecord
100
AcDbLayerTableRecord
  2
DIMENSIONS
 70
     0
 62
   179
  6
CONTINUOUS
  0
ENDTAB
  0
TABLE
  2
STYLE
  5
3
330
0
100
AcDbSymbolTable
 70
     2
  0
STYLE
  5
11
330
3
100
AcDbSymbolTableRecord
100
AcDbTextStyleTableRecord
  2
STANDARD
 70
     0
 40
0.0
 41
1.0
 50
0.0
 71
     0
 42
3.5
  3
txt
  4

  0
STYLE
  5
7C
330
3
100
AcDbSymbolTableRecord
100
AcDbTextStyleTableRecord
  2
SLDTEXTSTYLE0
 70
     0
 40
0.0
 41
0.75
 50
0.0
 71
     0
 42
3.5
  3
TXT
  4

  0
ENDTAB
  0
TABLE
  2
VIEW
  5
6
330
0
100
AcDbSymbolTable
 70
     0
  0
ENDTAB
  0
TABLE
  2
UCS
  5
7
330
0
100
AcDbSymbolTable
 70
     0
  0
ENDTAB
  0
TABLE
  2
APPID
  5
9
330
0
100
AcDbSymbolTable
 70
     1
  0
APPID
  5
12
330
9
100
AcDbSymbolTableRecord
100
AcDbRegAppTableRecord
  2
ACAD
 70
     0
  0
ENDTAB
  0
TABLE
  2
DIMSTYLE
  5
A
330
0
100
AcDbSymbolTable
 70
     1
  0
DIMSTYLE
105
27
330
A
100
AcDbSymbolTableRecord
100
AcDbDimStyleTableRecord
  2
ISO-25
 70
     0
  3

  4

  5

  6

  7

 40
1.0
 41
2.5
 42
0.625
 43
3.75
 44
1.25
 45
0.0
 46
0.0
 47
0.0
 48
0.0
140
2.5
141
2.5
142
0.0
143
0.0393700787
144
1.0
145
0.0
146
1.0
147
0.625
 71
     0
 72
     0
 73
     0
 74
     0
 75
     0
 76
     0
 77
     1
 78
     8
170
     0
171
     3
172
     1
173
     0
174
     0
175
     0
176
     0
177
     0
178
     0
270
     2
271
     2
272
     2
273
     2
274
     3
340
11
275
     0
280
     0
281
     0
282
     0
283
     0
284
     8
285
     0
286
     0
287
     3
288
     0
  0
ENDTAB
  0
TABLE
  2
BLOCK_RECORD
  5
1
330
0
100
AcDbSymbolTable
 70
     2
  0
BLOCK_RECORD
  5
1F
330
1
100
AcDbSymbolTableRecord
100
AcDbBlockTableRecord
  2
*MODEL_SPACE
  0
BLOCK_RECORD
  5
1B
330
1
100
AcDbSymbolTableRecord
100
AcDbBlockTableRecord
  2
*PAPER_SPACE
  0
BLOCK_RECORD
  5
23
330
1
100
AcDbSymbolTableRecord
100
AcDbBlockTableRecord
  2
*PAPER_SPACE0
  0
BLOCK_RECORD
  5
79
330
1
100
AcDbSymbolTableRecord
100
AcDbBlockTableRecord
  2
SW_NOTE_0
  0
ENDTAB
  0
ENDSEC
  0
SECTION
  2
BLOCKS
  0
BLOCK
  5
20
330
1F
100
AcDbEntity
  8
0
100
AcDbBlockBegin
  2
*MODEL_SPACE
 70
     0
 10
0.0
 20
0.0
 30
0.0
  3
*MODEL_SPACE
  1

  0
ENDBLK
  5
21
330
1F
100
AcDbEntity
  8
0
100
AcDbBlockEnd
  0
BLOCK
  5
1C
330
1B
100
AcDbEntity
 67
     1
  8
0
100
AcDbBlockBegin
  2
*PAPER_SPACE
 70
     0
 10
0.0
 20
0.0
 30
0.0
  3
*PAPER_SPACE
  1

  0
ENDBLK
  5
1D
330
1B
100
AcDbEntity
 67
     1
  8
0
100
AcDbBlockEnd
  0
BLOCK
  5
24
330
23
100
AcDbEntity
  8
0
100
AcDbBlockBegin
  2
*PAPER_SPACE0
 70
     0
 10
0.0
 20
0.0
 30
0.0
  3
*PAPER_SPACE0
  1

  0
ENDBLK
  5
25
330
23
100
AcDbEntity
  8
0
100
AcDbBlockEnd
  0
BLOCK
  5
7A
330
79
100
AcDbEntity
  8
0
100
AcDbBlockBegin
  2
SW_NOTE_0
 70
     0
 10
0.0
 20
0.0
 30
0.0
  3
SW_NOTE_0
  1

  0
MTEXT
  5
7D
330
79
100
AcDbEntity
  8
DIMENSIONS
 62
     0
100
AcDbMText
 10
0.0
 20
8.1855801476
 30
0.0
 40
6.35
 41
0.0
 71
     1
 72
     1
  1
#1195
  7
SLDTEXTSTYLE0
  0
MTEXT
  5
7E
330
79
100
AcDbEntity
  8
DIMENSIONS
 62
     0
100
AcDbMText
 10
0.0
 20
-1.2810865807
 30
0.0
 40
6.35
 41
0.0
 71
     1
 72
     1
  1
3mm Acrylic
  7
SLDTEXTSTYLE0
  0
MTEXT
  5
7F
330
79
100
AcDbEntity
  8
DIMENSIONS
 62
     0
100
AcDbMText
 10
0.0
 20
-10.747753309
 30
0.0
 40
6.35
 41
0.0
 71
     1
 72
     1
  1
x1 per Fisher
  7
SLDTEXTSTYLE0
  0
ENDBLK
  5
7B
330
79
100
AcDbEntity
  8
0
100
AcDbBlockEnd
  0
ENDSEC
  0
SECTION
  2
ENTITIES
  0
INSERT
  5
80
330
1F
100
AcDbEntity
  8
DIMENSIONS
100
AcDbBlockReference
  2
SW_NOTE_0
 10
22.9220425289
 20
378.2014876041
 30
0.0
  0
ARC
  5
81
330
1F
100
AcDbEntity
  8
0
  6
CONTINUOUS
 62
     7
100
AcDbCircle
 10
103.5076867737
 20
16.9825858286
 30
0.0
 40
2.0
100
AcDbArc
 50
315.0
 51
0.0
  0
LINE
  5
82
330
1F
100
AcDbEntity
  8
0
  6
CONTINUOUS
 62
     7
100
AcDbLine
 10
105.5076869398
 20
185.8657384149
 30
0.0
 11
105.5076869398
 21
16.9825861088
 31
0.0
  0
ARC
  5
83
330
1F
100
AcDbEntity
  8
0
  6
CONTINUOUS
 62
     7
100
AcDbCircle
 10
103.5076867737
 20
185.8657315791
 30
0.0
 40
2.000000000000014
100
AcDbArc
 50
0.0
 51
45.0
  0
LINE
  5
84
330
1F
100
AcDbEntity
  8
0
  6
CONTINUOUS
 62
     7
100
AcDbLine
 10
104.0934736103
 20
188.1083780757
 30
0.0
 11
104.9218999416
 21
187.2799480192
 31
0.0
  0
ARC
  5
85
330
1F
100
AcDbEntity
  8
0
  6
CONTINUOUS
 62
     7
100
AcDbCircle
 10
105.5076867737
 20
189.5225858286
 30
0.0
 40
2.0
100
AcDbArc
 50
180.0
 51
225.0
  0
LINE
  5
86
330
1F
100
AcDbEntity
  8
0
  6
CONTINUOUS
 62
     7
100
AcDbLine
 10
103.507686612
 20
194.6941548816
 30
0.0
 11
103.507686612
 21
189.52258768
 31
0.0
  0
ARC
  5
87
330
1F
100
AcDbEntity
  8
0
  6
CONTINUOUS
 62
     7
100
AcDbCircle
 10
105.5076867737
 20
194.6941587038
 30
0.0
 40
2.000000000000014
100
AcDbArc
 50
90.0
 51
180.0
  0
ARC
  5
88
330
1F
100
AcDbEntity
  8
0
  6
CONTINUOUS
 62
     7
100
AcDbCircle
 10
529.0076867737
 20
101.4241587038
 30
0.0
 40
2.999999999999875
100
AcDbArc
 50
326.4426902381
 51
33.5573097619
  0
ARC
  5
89
330
1F
100
AcDbEntity
  8
0
  6
CONTINUOUS
 62
     7
100
AcDbCircle
 10
105.5076867737
 20
8.1541587038
 30
0.0
 40
2.000000000000001
100
AcDbArc
 50
180.0
 51
270.0
  0
LINE
  5
8A
330
1F
100
AcDbEntity
  8
0
  6
CONTINUOUS
 62
     7
100
AcDbLine
 10
103.507686612
 20
13.3257312558
 30
0.0
 11
103.507686612
 21
8.1541589319
 31
0.0
  0
ARC
  5
8B
330
1F
100
AcDbEntity
  8
0
  6
CONTINUOUS
 62
     7
100
AcDbCircle
 10
105.5076867737
 20
13.3257315791
 30
0.0
 40
2.0
100
AcDbArc
 50
135.0
 51
180.0
  0
LINE
  5
8C
330
1F
100
AcDbEntity
  8
0
  6
CONTINUOUS
 62
     7
100
AcDbLine
 10
104.9218999416
 20
15.5683718479
 30
0.0
 11
104.0934736103
 21
14.7399455167
 31
0.0
  0
ARC
  5
8D
330
1F
100
AcDbEntity
  8
0
  6
CONTINUOUS
 62
     7
100
AcDbCircle
 10
352.0076867737
 20
42.1541587038
 30
0.0
 40
10.00000000000001
100
AcDbArc
 50
270.0
 51
0.0
  0
LINE
  5
8E
330
1F
100
AcDbEntity
  8
0
  6
CONTINUOUS
 62
     7
100
AcDbLine
 10
362.0076907992
 20
42.154160314
 30
0.0
 11
362.0076907992
 21
160.6941604845
 31
0.0
  0
LINE
  5
8F
330
1F
100
AcDbEntity
  8
0
  6
CONTINUOUS
 62
     7
100
AcDbLine
 10
352.007700336
 20
170.6941658489
 30
0.0
 11
172.0076857328
 21
170.6941658489
 31
0.0
  0
ARC
  5
90
330
1F
100
AcDbEntity
  8
0
  6
CONTINUOUS
 62
     7
100
AcDbCircle
 10
172.0076867737
 20
160.6941587038
 30
0.0
 40
10.00000000000003
100
AcDbArc
 50
90.0
 51
180.0
  0
ARC
  5
91
330
1F
100
AcDbEntity
  8
0
  6
CONTINUOUS
 62
     7
100
AcDbCircle
 10
172.0076867737
 20
42.1541587038
 30
0.0
 40
10.00000000000003
100
AcDbArc
 50
180.0
 51
270.0
  0
ARC
  5
92
330
1F
100
AcDbEntity
  8
0
  6
CONTINUOUS
 62
     7
100
AcDbCircle
 10
136.899977362
 20
100.963060362
 30
0.0
 40
0.6670074624058668
100
AcDbArc
 50
1.480203349
 51
43.7326179022
  0
LINE
  5
93
330
1F
100
AcDbEntity
  8
0
  6
CONTINUOUS
 62
     7
100
AcDbLine
 10
137.3819394231
 20
101.4241585366
 30
0.0
 11
132.5287765086
 21
106.2776082984
 31
0.0
  0
LWPOLYLINE
  5
94
330
1F
100
AcDbEntity
  8
0
  6
CONTINUOUS
 62
     7
100
AcDbPolyline
 90
       43
 70
   128
 43
0.0
 10
132.5287765086
 20
106.2776082984
 10
131.9454146743
 20
106.7965188853
 10
131.3420107782
 20
107.2923475734
 10
130.7125484764
 20
107.7575990788
 10
130.0511455357
 20
108.178281211
 10
129.3544752717
 20
108.5332119695
 10
128.6202391803
 20
108.8017606966
 10
127.8556531489
 20
108.9756572477
 10
127.0739643097
 20
109.0545365445
 10
126.2878721774
 20
109.0389201275
 10
125.5066899776
 20
108.9332634441
 10
124.7386357009
 20
108.7432810894
 10
123.9919385135
 20
108.4747025601
 10
123.1356656372
 20
108.0566951863
 10
122.3357172876
 20
107.5434991948
 10
121.6019934237
 20
106.9438615672
 10
120.9425555736
 20
106.2660598985
 10
120.3654596776
 20
105.5183717839
 10
119.8787225604
 20
104.7091195218
 10
119.4892229706
 20
103.8481676809
 10
119.2023923814
 20
102.9473552338
 10
119.0235672712
 20
102.018647813
 10
118.9580058873
 20
101.0740334026
 10
119.0073063791
 20
100.1262375943
 10
119.1679129571
 20
99.1890886656
 10
119.4358842641
 20
98.2764670483
 10
119.8072752178
 20
97.4022680751
 10
120.2780829936
 20
96.5803051225
 10
120.8422856599
 20
95.8216944567
 10
121.4914007306
 20
95.1342666379
 10
122.2167948454
 20
94.5256510607
 10
123.0098365068
 20
94.0034771196
 10
123.8606760472
 20
93.5755753747
 10
124.755537343
 20
93.2504096858
 10
125.6798563719
 20
93.0365556709
 10
126.619065386
 20
92.9426038496
 10
127.5586357534
 20
92.9765114418
 10
128.4845790088
 20
93.1363114945
 10
129.3833574474
 20
93.4121096364
 10
130.2422864556
 20
93.7937134735
 10
131.0499629199
 20
94.2707741491
 10
131.8040138304
 20
94.8261925808
 10
132.5287765086
 20
95.4226711623
  0
LINE
  5
95
330
1F
100
AcDbEntity
  8
0
  6
CONTINUOUS
 62
     7
100
AcDbLine
 10
132.5287765086
 20
95.4226711623
 30
0.0
 11
137.3819394231
 21
100.5725199214
 31
0.0
  0
ARC
  5
96
330
1F
100
AcDbEntity
  8
0
  6
CONTINUOUS
 62
     7
100
AcDbCircle
 10
136.960288675
 20
101.0094049319
 30
0.0
 40
0.6071720231825583
100
AcDbArc
 50
313.9834234204
 51
357.2515345329
  0
LINE
  5
97
330
1F
100
AcDbEntity
  8
0
  6
CONTINUOUS
 62
     7
100
AcDbLine
 10
139.3486766338
 20
108.6864108077
 30
0.0
 11
139.3486766338
 21
93.6076575748
 31
0.0
  0
ARC
  5
98
330
1F
100
AcDbEntity
  8
0
  6
CONTINUOUS
 62
     7
100
AcDbCircle
 10
139.6625935722
 20
93.5867825167
 30
0.0
 40
0.3146102544939244
100
AcDbArc
 50
176.1955083204
 51
229.5963829368
  0
LINE
  5
99
330
1F
100
AcDbEntity
  8
0
  6
CONTINUOUS
 62
     7
100
AcDbLine
 10
139.4586732805
 20
93.3472076289
 30
0.0
 11
142.3857419014
 21
90.4202470414
 31
0.0
  0
LWPOLYLINE
  5
9A
330
1F
100
AcDbEntity
  8
0
  6
CONTINUOUS
 62
     7
100
AcDbPolyline
 90
        9
 70
   128
 43
0.0
 10
142.3857419014
 20
90.4202470414
 10
142.5354650438
 20
90.3340438239
 10
142.7085643828
 20
90.3231957785
 10
142.831297797
 20
90.3654480211
 10
142.9327560782
 20
90.4468754164
 10
142.9989097834
 20
90.5582392446
 10
143.0357044756
 20
90.68317058
 10
143.0817378878
 20
90.9391129247
 10
143.0899223506
 20
91.1988625161
  0
LINE
  5
9B
330
1F
100
AcDbEntity
  8
0
  6
CONTINUOUS
 62
     7
100
AcDbLine
 10
143.0899223506
 20
91.1988625161
 30
0.0
 11
143.0899223506
 21
108.6864108077
 31
0.0
  0
ARC
  5
9C
330
1F
100
AcDbEntity
  8
0
  6
CONTINUOUS
 62
     7
100
AcDbCircle
 10
135.7615852123
 20
108.5070561346
 30
0.0
 40
7.330531584488373
100
AcDbArc
 50
1.4019844582
 51
88.6023445589
  0
LINE
  5
9D
330
1F
100
AcDbEntity
  8
0
  6
CONTINUOUS
 62
     7
100
AcDbLine
 10
135.940386188
 20
115.8354068033
 30
0.0
 11
118.4532253265
 21
115.8339986435
 31
0.0
  0
LWPOLYLINE
  5
9E
330
1F
100
AcDbEntity
  8
0
  6
CONTINUOUS
 62
     7
100
AcDbPolyline
 90
        9
 70
   128
 43
0.0
 10
118.4532253265
 20
115.8339986435
 10
118.1933248609
 20
115.8259520165
 10
117.9369298935
 20
115.7810399167
 10
117.812087965
 20
115.7439732782
 10
117.7012382269
 20
115.6766721837
 10
117.6197530895
 20
115.5751654736
 10
117.5775399625
 20
115.4523426525
 10
117.589095813
 20
115.2791762582
 10
117.6761614352
 20
115.1298219196
  0
LINE
  5
9F
330
1F
100
AcDbEntity
  8
0
  6
CONTINUOUS
 62
     7
100
AcDbLine
 10
117.6761614352
 20
115.1298219196
 30
0.0
 11
120.6030884951
 21
112.2042396895
 31
0.0
  0
ARC
  5
A0
330
1F
100
AcDbEntity
  8
0
  6
CONTINUOUS
 62
     7
100
AcDbCircle
 10
120.8309232206
 20
112.3769686458
 30
0.0
 40
0.2859089968706681
100
AcDbArc
 50
217.166955868
 51
276.245685083
  0
LINE
  5
A1
330
1F
100
AcDbEntity
  8
0
  6
CONTINUOUS
 62
     7
100
AcDbLine
 10
120.8620278358
 20
112.092756652
 30
0.0
 11
135.940386188
 21
112.0941722623
 31
0.0
  0
ARC
  5
A2
330
1F
100
AcDbEntity
  8
0
  6
CONTINUOUS
 62
     7
100
AcDbCircle
 10
135.9203101763
 20
108.6658026473
 30
0.0
 40
3.428428395576565
100
AcDbArc
 50
0.3444049554
 51
89.6644884524
  0
LINE
  5
A3
330
1F
100
AcDbEntity
  8
0
  6
CONTINUOUS
 62
     7
100
AcDbLine
 10
117.1535907507
 20
93.3102676503
 30
0.0
 11
117.1535907507
 21
108.3886260025
 31
0.0
  0
ARC
  5
A4
330
1F
100
AcDbEntity
  8
0
  6
CONTINUOUS
 62
     7
100
AcDbCircle
 10
116.8189820757
 20
108.3994965591
 30
0.0
 40
0.3347852063483853
100
AcDbArc
 50
358.1392651054
 51
48.2032105405
  0
LINE
  5
A5
330
1F
100
AcDbEntity
  8
0
  6
CONTINUOUS
 62
     7
100
AcDbLine
 10
117.0421133011
 20
108.649083399
 30
0.0
 11
114.1151601642
 21
111.5760439865
 31
0.0
  0
LWPOLYLINE
  5
A6
330
1F
100
AcDbEntity
  8
0
  6
CONTINUOUS
 62
     7
100
AcDbPolyline
 90
        9
 70
   128
 43
0.0
 10
114.1151601642
 20
111.5760439865
 10
113.9654351592
 20
111.6622248522
 10
113.7923432708
 20
111.6731176011
 10
113.6696489721
 20
111.6307983033
 10
113.5683024496
 20
111.5492293469
 10
113.5019270897
 20
111.4379996292
 10
113.4647896707
 20
111.3131577007
 10
113.4196745425
 20
111.0571706525
 10
113.410979715
 20
110.7974285118
  0
LINE
  5
A7
330
1F
100
AcDbEntity
  8
0
  6
CONTINUOUS
 62
     7
100
AcDbLine
 10
113.410979715
 20
110.7974285118
 30
0.0
 11
113.410979715
 21
93.3102676503
 31
0.0
  0
ARC
  5
A8
330
1F
100
AcDbEntity
  8
0
  6
CONTINUOUS
 62
     7
100
AcDbCircle
 10
120.7396713684
 20
93.4896027236
 30
0.0
 40
7.330885514044446
100
AcDbArc
 50
181.4017635264
 51
268.6092368997
  0
LINE
  5
A9
330
1F
100
AcDbEntity
  8
0
  6
CONTINUOUS
 62
     7
100
AcDbLine
 10
120.5617433607
 20
86.160876774
 30
0.0
 11
138.0475593924
 21
86.1622849337
 31
0.0
  0
LWPOLYLINE
  5
AA
330
1F
100
AcDbEntity
  8
0
  6
CONTINUOUS
 62
     7
100
AcDbPolyline
 90
        9
 70
   128
 43
0.0
 10
138.0475593924
 20
86.1622849337
 10
138.3074132919
 20
86.1704358689
 10
138.5635195494
 20
86.2162941925
 10
138.6884099066
 20
86.2533012263
 10
138.7996619761
 20
86.3197902075
 10
138.8811489761
 20
86.4212671153
 10
138.9233080864
 20
86.5440824858
 10
138.9119198739
 20
86.7172190777
 10
138.8247667074
 20
86.8664691082
  0
LINE
  5
AB
330
1F
100
AcDbEntity
  8
0
  6
CONTINUOUS
 62
     7
100
AcDbLine
 10
138.8247667074
 20
86.8664691082
 30
0.0
 11
135.8978023946
 21
89.7933924428
 31
0.0
  0
ARC
  5
AC
330
1F
100
AcDbEntity
  8
0
  6
CONTINUOUS
 62
     7
100
AcDbCircle
 10
135.6812836971
 20
89.6437259943
 30
0.0
 40
0.2632116870522468
100
AcDbArc
 50
34.6537905347
 51
99.2741416505
  0
LINE
  5
AD
330
1F
100
AcDbEntity
  8
0
  6
CONTINUOUS
 62
     7
100
AcDbLine
 10
135.6388649166
 20
89.9034971229
 30
0.0
 11
120.5617433607
 21
89.9023720852
 31
0.0
  0
ARC
  5
AE
330
1F
100
AcDbEntity
  8
0
  6
CONTINUOUS
 62
     7
100
AcDbCircle
 10
120.580641066
 20
93.3294238356
 30
0.0
 40
3.427103853530548
100
AcDbArc
 50
180.3202629196
 51
269.6840585273
  0
CIRCLE
  5
AF
330
1F
100
AcDbEntity
  8
0
  6
CONTINUOUS
 62
     7
100
AcDbCircle
 10
510.0076867737
 20
177.6941587038
 30
0.0
 40
1.249999999999972
  0
CIRCLE
  5
B0
330
1F
100
AcDbEntity
  8
0
  6
CONTINUOUS
 62
     7
100
AcDbCircle
 10
500.5076867737
 20
177.6941587038
 30
0.0
 40
1.25
  0
LINE
  5
B1
330
1F
100
AcDbEntity
  8
0
  6
CONTINUOUS
 62
     7
100
AcDbLine
 10
531.5076841235
 20
196.6941589347
 30
0.0
 11
515.5076815009
 21
196.6941589347
 31
0.0
  0
LINE
  5
B2
330
1F
100
AcDbEntity
  8
0
  6
CONTINUOUS
 62
     7
100
AcDbLine
 10
105.5076869398
 20
6.1541586041
 30
0.0
 11
152.5076871931
 21
6.1541586041
 31
0.0
  0
LINE
  5
B3
330
1F
100
AcDbEntity
  8
0
  6
CONTINUOUS
 62
     7
100
AcDbLine
 10
531.5076841235
 20
6.1541586041
 30
0.0
 11
531.5076841235
 21
99.7658455602
 31
0.0
  0
LINE
  5
B4
330
1F
100
AcDbEntity
  8
0
  6
CONTINUOUS
 62
     7
100
AcDbLine
 10
113.4310106009
 20
191.1941552392
 30
0.0
 11
111.00768691
 21
191.1941552392
 31
0.0
  0
ARC
  5
B5
330
1F
100
AcDbEntity
  8
0
  6
CONTINUOUS
 62
     7
100
AcDbCircle
 10
115.8543351001
 20
189.6941587038
 30
0.0
 40
2.850000000000009
100
AcDbArc
 50
211.7568638593
 51
148.2431361407
  0
LINE
  5
B6
330
1F
100
AcDbEntity
  8
0
  6
CONTINUOUS
 62
     7
100
AcDbLine
 10
111.00768691
 20
188.1941640607
 30
0.0
 11
113.4310106009
 21
188.1941640607
 31
0.0
  0
ARC
  5
B7
330
1F
100
AcDbEntity
  8
0
  6
CONTINUOUS
 62
     7
100
AcDbCircle
 10
111.0076867737
 20
189.6941587038
 30
0.0
 40
1.500000000000028
100
AcDbArc
 50
90.0
 51
270.0
  0
LINE
  5
B8
330
1F
100
AcDbEntity
  8
0
  6
CONTINUOUS
 62
     7
100
AcDbLine
 10
144.4310119569
 20
191.1941552392
 30
0.0
 11
142.007688266
 21
191.1941552392
 31
0.0
  0
ARC
  5
B9
330
1F
100
AcDbEntity
  8
0
  6
CONTINUOUS
 62
     7
100
AcDbCircle
 10
146.8543351001
 20
189.6941587038
 30
0.0
 40
2.850000000000009
100
AcDbArc
 50
211.7568638593
 51
148.2431361407
  0
LINE
  5
BA
330
1F
100
AcDbEntity
  8
0
  6
CONTINUOUS
 62
     7
100
AcDbLine
 10
142.007688266
 20
188.1941640607
 30
0.0
 11
144.4310119569
 21
188.1941640607
 31
0.0
  0
ARC
  5
BB
330
1F
100
AcDbEntity
  8
0
  6
CONTINUOUS
 62
     7
100
AcDbCircle
 10
142.0076867737
 20
189.6941587038
 30
0.0
 40
1.5
100
AcDbArc
 50
90.0
 51
270.0
  0
LINE
  5
BC
330
1F
100
AcDbEntity
  8
0
  6
CONTINUOUS
 62
     7
100
AcDbLine
 10
523.4310163379
 20
192.6941657297
 30
0.0
 11
521.0077000975
 21
192.6941657297
 31
0.0
  0
ARC
  5
BD
330
1F
100
AcDbEntity
  8
0
  6
CONTINUOUS
 62
     7
100
AcDbCircle
 10
525.8543351001
 20
191.1941587038
 30
0.0
 40
2.850000000000052
100
AcDbArc
 50
211.7568638593
 51
148.2431361407
  0
ARC
  5
BE
330
1F
100
AcDbEntity
  8
0
  6
CONTINUOUS
 62
     7
100
AcDbCircle
 10
352.0076867737
 20
160.6941587038
 30
0.0
 40
10.00000000000003
100
AcDbArc
 50
0.0
 51
90.0
  0
ARC
  5
BF
330
1F
100
AcDbEntity
  8
0
  6
CONTINUOUS
 62
     7
100
AcDbCircle
 10
521.0076867737
 20
191.1941587038
 30
0.0
 40
1.5
100
AcDbArc
 50
90.0
 51
270.0
  0
LINE
  5
C0
330
1F
100
AcDbEntity
  8
0
  6
CONTINUOUS
 62
     7
100
AcDbLine
 10
523.4310163379
 20
13.1541583545
 30
0.0
 11
521.0077000975
 21
13.1541583545
 31
0.0
  0
ARC
  5
C1
330
1F
100
AcDbEntity
  8
0
  6
CONTINUOUS
 62
     7
100
AcDbCircle
 10
525.8543351001
 20
11.6541587038
 30
0.0
 40
2.850000000000015
100
AcDbArc
 50
211.7568638593
 51
148.2431361407
  0
LINE
  5
C2
330
1F
100
AcDbEntity
  8
0
  6
CONTINUOUS
 62
     7
100
AcDbLine
 10
162.007687819
 20
160.6941604845
 30
0.0
 11
162.007687819
 21
42.154160314
 31
0.0
  0
LINE
  5
C3
330
1F
100
AcDbEntity
  8
0
  6
CONTINUOUS
 62
     7
100
AcDbLine
 10
172.0076857328
 20
32.1541586749
 30
0.0
 11
352.007700336
 21
32.1541586749
 31
0.0
  0
CIRCLE
  5
C4
330
1F
100
AcDbEntity
  8
0
  6
CONTINUOUS
 62
     7
100
AcDbCircle
 10
529.0076867737
 20
101.4241587038
 30
0.0
 40
1.5
  0
CIRCLE
  5
C5
330
1F
100
AcDbEntity
  8
0
  6
CONTINUOUS
 62
     7
100
AcDbCircle
 10
150.0076867737
 20
101.4241587038
 30
0.0
 40
1.5
  0
ARC
  5
C6
330
1F
100
AcDbEntity
  8
0
  6
CONTINUOUS
 62
     7
100
AcDbCircle
 10
503.6755272075
 20
198.6941587038
 30
0.0
 40
11.99999999999997
100
AcDbArc
 50
270.0
 51
350.4059317731
  0
ARC
  5
C7
330
1F
100
AcDbEntity
  8
0
  6
CONTINUOUS
 62
     7
100
AcDbCircle
 10
503.6755272075
 20
4.1541587038
 30
0.0
 40
12.0
100
AcDbArc
 50
9.5940682269
 51
90.0
  0
ARC
  5
C8
330
1F
100
AcDbEntity
  8
0
  6
CONTINUOUS
 62
     7
100
AcDbCircle
 10
164.3398463399
 20
198.6941587038
 30
0.0
 40
12.0
100
AcDbArc
 50
189.5940682269
 51
270.0
  0
ARC
  5
C9
330
1F
100
AcDbEntity
  8
0
  6
CONTINUOUS
 62
     7
100
AcDbCircle
 10
164.3398463399
 20
4.1541587038
 30
0.0
 40
12.00000000000002
100
AcDbArc
 50
90.0
 51
170.4059317731
  0
LINE
  5
CA
330
1F
100
AcDbEntity
  8
0
  6
CONTINUOUS
 62
     7
100
AcDbLine
 10
503.6755336642
 20
16.1541588462
 30
0.0
 11
164.3398462057
 21
16.1541588462
 31
0.0
  0
LINE
  5
CB
330
1F
100
AcDbEntity
  8
0
  6
CONTINUOUS
 62
     7
100
AcDbLine
 10
164.3398462057
 20
186.6941535703
 30
0.0
 11
503.6755336642
 21
186.6941535703
 31
0.0
  0
CIRCLE
  5
CC
330
1F
100
AcDbEntity
  8
0
  6
CONTINUOUS
 62
     7
100
AcDbCircle
 10
111.0076867737
 20
13.1541587038
 30
0.0
 40
1.500000000000002
  0
LINE
  5
CD
330
1F
100
AcDbEntity
  8
0
  6
CONTINUOUS
 62
     7
100
AcDbLine
 10
144.4310119569
 20
14.6541586004
 30
0.0
 11
142.007688266
 21
14.6541586004
 31
0.0
  0
ARC
  5
CE
330
1F
100
AcDbEntity
  8
0
  6
CONTINUOUS
 62
     7
100
AcDbCircle
 10
146.8543351001
 20
13.1541587038
 30
0.0
 40
2.850000000000009
100
AcDbArc
 50
211.7568638593
 51
148.2431361407
  0
LINE
  5
CF
330
1F
100
AcDbEntity
  8
0
  6
CONTINUOUS
 62
     7
100
AcDbLine
 10
142.007688266
 20
11.6541590399
 30
0.0
 11
144.4310119569
 21
11.6541590399
 31
0.0
  0
ARC
  5
D0
330
1F
100
AcDbEntity
  8
0
  6
CONTINUOUS
 62
     7
100
AcDbCircle
 10
142.0076867737
 20
13.1541587038
 30
0.0
 40
1.500000000000057
100
AcDbArc
 50
90.0
 51
270.0
  0
LINE
  5
D1
330
1F
100
AcDbEntity
  8
0
  6
CONTINUOUS
 62
     7
100
AcDbLine
 10
521.0077000975
 20
10.1541587941
 30
0.0
 11
523.4310163379
 21
10.1541587941
 31
0.0
  0
ARC
  5
D2
330
1F
100
AcDbEntity
  8
0
  6
CONTINUOUS
 62
     7
100
AcDbCircle
 10
521.0076867737
 20
11.6541587038
 30
0.0
 40
1.500000000000057
100
AcDbArc
 50
90.0
 51
270.0
  0
LINE
  5
D3
330
1F
100
AcDbEntity
  8
0
  6
CONTINUOUS
 62
     7
100
AcDbLine
 10
152.5076871931
 20
196.6941589347
 30
0.0
 11
105.5076869398
 21
196.6941589347
 31
0.0
  0
LINE
  5
D4
330
1F
100
AcDbEntity
  8
0
  6
CONTINUOUS
 62
     7
100
AcDbLine
 10
531.5076841235
 20
103.0824715129
 30
0.0
 11
531.5076841235
 21
196.6941589347
 31
0.0
  0
LINE
  5
D5
330
1F
100
AcDbEntity
  8
0
  6
CONTINUOUS
 62
     7
100
AcDbLine
 10
515.5076815009
 20
6.1541586041
 30
0.0
 11
531.5076841235
 21
6.1541586041
 31
0.0
  0
LINE
  5
D6
330
1F
100
AcDbEntity
  8
0
  6
CONTINUOUS
 62
     7
100
AcDbLine
 10
521.0077000975
 20
189.69415965
 30
0.0
 11
523.4310163379
 21
189.69415965
 31
0.0
  0
CIRCLE
  5
D7
330
1F
100
AcDbEntity
  8
0
  6
CONTINUOUS
 62
     7
100
AcDbCircle
 10
198.0624065436
 20
71.4773461242
 30
0.0
 40
1.550000000000011
  0
ARC
  5
D8
330
1F
100
AcDbEntity
  8
0
  6
CONTINUOUS
 62
     7
100
AcDbCircle
 10
182.0624065436
 20
71.4773461242
 30
0.0
 40
5.600000000000009
100
AcDbArc
 50
75.9653520648
 51
284.0346479352
  0
ARC
  5
D9
330
1F
100
AcDbEntity
  8
0
  6
CONTINUOUS
 62
     7
100
AcDbCircle
 10
342.0624065436
 20
71.4773461242
 30
0.0
 40
5.600000000000009
100
AcDbArc
 50
255.9653520648
 51
104.0346479352
  0
LINE
  5
DA
330
1F
100
AcDbEntity
  8
0
  6
CONTINUOUS
 62
     7
100
AcDbLine
 10
195.0608698845
 20
67.4773463837
 30
0.0
 11
261.2481994748
 21
67.4773463837
 31
0.0
  0
LINE
  5
DB
330
1F
100
AcDbEntity
  8
0
  6
CONTINUOUS
 62
     7
100
AcDbLine
 10
262.8766132712
 20
67.4773463837
 30
0.0
 11
329.0639503121
 21
67.4773463837
 31
0.0
  0
LINE
  5
DC
330
1F
100
AcDbEntity
  8
0
  6
CONTINUOUS
 62
     7
100
AcDbLine
 10
329.0639503121
 20
75.477347695
 30
0.0
 11
262.8766132712
 21
75.477347695
 31
0.0
  0
ARC
  5
DD
330
1F
100
AcDbEntity
  8
0
  6
CONTINUOUS
 62
     7
100
AcDbCircle
 10
195.060867991
 20
19.4773461242
 30
0.0
 40
48.00000000000004
100
AcDbArc
 50
90.0
 51
104.0346479352
  0
LINE
  5
DE
330
1F
100
AcDbEntity
  8
0
  6
CONTINUOUS
 62
     7
100
AcDbLine
 10
261.2481994748
 20
75.477347695
 30
0.0
 11
195.0608698845
 21
75.477347695
 31
0.0
  0
ARC
  5
DF
330
1F
100
AcDbEntity
  8
0
  6
CONTINUOUS
 62
     7
100
AcDbCircle
 10
329.0639450961
 20
19.4773461242
 30
0.0
 40
48.00000000000004
100
AcDbArc
 50
75.9653520648
 51
90.0
  0
CIRCLE
  5
E0
330
1F
100
AcDbEntity
  8
0
  6
CONTINUOUS
 62
     7
100
AcDbCircle
 10
182.0624065436
 20
71.4773461242
 30
0.0
 40
2.498076211353322
  0
CIRCLE
  5
E1
330
1F
100
AcDbEntity
  8
0
  6
CONTINUOUS
 62
     7
100
AcDbCircle
 10
342.0624065436
 20
71.4773461242
 30
0.0
 40
2.49807621135335
  0
ARC
  5
E2
330
1F
100
AcDbEntity
  8
0
  6
CONTINUOUS
 62
     7
100
AcDbCircle
 10
262.8766201059
 20
76.4773461242
 30
0.0
 40
1.000000000000028
100
AcDbArc
 50
225.0
 51
270.0
  0
LINE
  5
E3
330
1F
100
AcDbEntity
  8
0
  6
CONTINUOUS
 62
     7
100
AcDbLine
 10
262.1695084691
 20
75.7702374689
 30
0.0
 11
262.0624138236
 21
75.8773470155
 31
0.0
  0
LINE
  5
E4
330
1F
100
AcDbEntity
  8
0
  6
CONTINUOUS
 62
     7
100
AcDbLine
 10
262.0624138236
 20
75.8773470155
 30
0.0
 11
261.9553042769
 21
75.7702374689
 31
0.0
  0
ARC
  5
E5
330
1F
100
AcDbEntity
  8
0
  6
CONTINUOUS
 62
     7
100
AcDbCircle
 10
261.2481929812
 20
76.4773461242
 30
0.0
 40
1.000000000000068
100
AcDbArc
 50
270.0
 51
315.0
  0
ARC
  5
E6
330
1F
100
AcDbEntity
  8
0
  6
CONTINUOUS
 62
     7
100
AcDbCircle
 10
262.8766201059
 20
66.4773461242
 30
0.0
 40
1.0
100
AcDbArc
 50
90.0
 51
135.0
  0
ARC
  5
E7
330
1F
100
AcDbEntity
  8
0
  6
CONTINUOUS
 62
     7
100
AcDbCircle
 10
261.2481929812
 20
66.4773461242
 30
0.0
 40
1.000000000000048
100
AcDbArc
 50
45.0
 51
90.0
  0
LINE
  5
E8
330
1F
100
AcDbEntity
  8
0
  6
CONTINUOUS
 62
     7
100
AcDbLine
 10
261.9553042769
 20
67.1844566099
 30
0.0
 11
262.0624138236
 21
67.0773470632
 31
0.0
  0
LINE
  5
E9
330
1F
100
AcDbEntity
  8
0
  6
CONTINUOUS
 62
     7
100
AcDbLine
 10
262.0624138236
 20
67.0773470632
 30
0.0
 11
262.1695084691
 21
67.1844566099
 31
0.0
  0
ARC
  5
EA
330
1F
100
AcDbEntity
  8
0
  6
CONTINUOUS
 62
     7
100
AcDbCircle
 10
195.060867991
 20
123.4773461242
 30
0.0
 40
48.00000000000003
100
AcDbArc
 50
255.9653520648
 51
270.0
  0
ARC
  5
EB
330
1F
100
AcDbEntity
  8
0
  6
CONTINUOUS
 62
     7
100
AcDbCircle
 10
329.0639450961
 20
123.4773461242
 30
0.0
 40
48.00000000000003
100
AcDbArc
 50
270.0
 51
284.0346479352
  0
CIRCLE
  5
EC
330
1F
100
AcDbEntity
  8
0
  6
CONTINUOUS
 62
     7
100
AcDbCircle
 10
326.0624065436
 20
71.4773461242
 30
0.0
 40
1.549999999999955
  0
LINE
  5
ED
330
1F
100
AcDbEntity
  8
0
  6
CONTINUOUS
 62
     7
100
AcDbLine
 10
328.2615823865
 20
155.4568046562
 30
0.0
 11
262.0742453456
 21
155.4568046562
 31
0.0
  0
LINE
  5
EE
330
1F
100
AcDbEntity
  8
0
  6
CONTINUOUS
 62
     7
100
AcDbLine
 10
262.0742453456
 20
147.4568033449
 30
0.0
 11
328.2615823865
 21
147.4568033449
 31
0.0
  0
ARC
  5
EF
330
1F
100
AcDbEntity
  8
0
  6
CONTINUOUS
 62
     7
100
AcDbCircle
 10
328.261575229
 20
203.4568017319
 30
0.0
 40
48.00000000000003
100
AcDbArc
 50
270.0
 51
284.0346479352
  0
ARC
  5
F0
330
1F
100
AcDbEntity
  8
0
  6
CONTINUOUS
 62
     7
100
AcDbCircle
 10
341.2600366764
 20
151.4568017319
 30
0.0
 40
5.600000000000009
100
AcDbArc
 50
255.9653520648
 51
104.0346479352
  0
CIRCLE
  5
F1
330
1F
100
AcDbEntity
  8
0
  6
CONTINUOUS
 62
     7
100
AcDbCircle
 10
181.2600366764
 20
151.4568017319
 30
0.0
 40
2.49807621135335
  0
CIRCLE
  5
F2
330
1F
100
AcDbEntity
  8
0
  6
CONTINUOUS
 62
     7
100
AcDbCircle
 10
341.2600366764
 20
151.4568017319
 30
0.0
 40
2.49807621135335
  0
CIRCLE
  5
F3
330
1F
100
AcDbEntity
  8
0
  6
CONTINUOUS
 62
     7
100
AcDbCircle
 10
325.2600366764
 20
151.4568017319
 30
0.0
 40
1.550000000000011
  0
CIRCLE
  5
F4
330
1F
100
AcDbEntity
  8
0
  6
CONTINUOUS
 62
     7
100
AcDbCircle
 10
197.2600366764
 20
151.4568017319
 30
0.0
 40
1.549999999999983
  0
LINE
  5
F5
330
1F
100
AcDbEntity
  8
0
  6
CONTINUOUS
 62
     7
100
AcDbLine
 10
194.2584945083
 20
147.4568033449
 30
0.0
 11
260.445816648
 21
147.4568033449
 31
0.0
  0
ARC
  5
F6
330
1F
100
AcDbEntity
  8
0
  6
CONTINUOUS
 62
     7
100
AcDbCircle
 10
181.2600366764
 20
151.4568017319
 30
0.0
 40
5.600000000000001
100
AcDbArc
 50
75.9653520648
 51
284.0346479352
  0
LINE
  5
F7
330
1F
100
AcDbEntity
  8
0
  6
CONTINUOUS
 62
     7
100
AcDbLine
 10
260.445816648
 20
155.4568046562
 30
0.0
 11
194.2584945083
 21
155.4568046562
 31
0.0
  0
ARC
  5
F8
330
1F
100
AcDbEntity
  8
0
  6
CONTINUOUS
 62
     7
100
AcDbCircle
 10
262.0742502387
 20
146.4568017319
 30
0.0
 40
1.000000000000008
100
AcDbArc
 50
90.0
 51
135.0
  0
ARC
  5
F9
330
1F
100
AcDbEntity
  8
0
  6
CONTINUOUS
 62
     7
100
AcDbCircle
 10
260.445823114
 20
146.4568017319
 30
0.0
 40
1.000000000000008
100
AcDbArc
 50
45.0
 51
90.0
  0
LINE
  5
FA
330
1F
100
AcDbEntity
  8
0
  6
CONTINUOUS
 62
     7
100
AcDbLine
 10
261.1529363513
 20
147.1639061204
 30
0.0
 11
261.2600309968
 21
147.0567965738
 31
0.0
  0
LINE
  5
FB
330
1F
100
AcDbEntity
  8
0
  6
CONTINUOUS
 62
     7
100
AcDbLine
 10
261.2600309968
 20
147.0567965738
 30
0.0
 11
261.3671405434
 21
147.1639061204
 31
0.0
  0
ARC
  5
FC
330
1F
100
AcDbEntity
  8
0
  6
CONTINUOUS
 62
     7
100
AcDbCircle
 10
194.2584981238
 20
203.4568017319
 30
0.0
 40
48.00000000000003
100
AcDbArc
 50
255.9653520648
 51
270.0
  0
ARC
  5
FD
330
1F
100
AcDbEntity
  8
0
  6
CONTINUOUS
 62
     7
100
AcDbCircle
 10
194.2584981238
 20
99.4568017319
 30
0.0
 40
48.00000000000001
100
AcDbArc
 50
90.0
 51
104.0346479352
  0
ARC
  5
FE
330
1F
100
AcDbEntity
  8
0
  6
CONTINUOUS
 62
     7
100
AcDbCircle
 10
328.261575229
 20
99.4568017319
 30
0.0
 40
48.00000000000001
100
AcDbArc
 50
75.9653520648
 51
90.0
  0
ARC
  5
FF
330
1F
100
AcDbEntity
  8
0
  6
CONTINUOUS
 62
     7
100
AcDbCircle
 10
262.0742502387
 20
156.4568017319
 30
0.0
 40
1.0
100
AcDbArc
 50
225.0
 51
270.0
  0
LINE
  5
100
330
1F
100
AcDbEntity
  8
0
  6
CONTINUOUS
 62
     7
100
AcDbLine
 10
261.3671405434
 20
155.7497018806
 30
0.0
 11
261.2600309968
 21
155.8567965261
 31
0.0
  0
LINE
  5
101
330
1F
100
AcDbEntity
  8
0
  6
CONTINUOUS
 62
     7
100
AcDbLine
 10
261.2600309968
 20
155.8567965261
 30
0.0
 11
261.1529363513
 21
155.7497018806
 31
0.0
  0
ARC
  5
102
330
1F
100
AcDbEntity
  8
0
  6
CONTINUOUS
 62
     7
100
AcDbCircle
 10
260.445823114
 20
156.4568017319
 30
0.0
 40
1.0
100
AcDbArc
 50
270.0
 51
315.0
  0
CIRCLE
  5
103
330
1F
100
AcDbEntity
  8
0
  6
CONTINUOUS
 62
     7
100
AcDbCircle
 10
325.8974574883
 20
132.0756519163
 30
0.0
 40
1.550000000000068
  0
LINE
  5
104
330
1F
100
AcDbEntity
  8
0
  6
CONTINUOUS
 62
     7
100
AcDbLine
 10
328.8989944577
 20
136.0756540529
 30
0.0
 11
262.711672318
 21
136.0756540529
 31
0.0
  0
LINE
  5
105
330
1F
100
AcDbEntity
  8
0
  6
CONTINUOUS
 62
     7
100
AcDbLine
 10
262.711672318
 20
128.0756527416
 30
0.0
 11
328.8989944577
 21
128.0756527416
 31
0.0
  0
ARC
  5
106
330
1F
100
AcDbEntity
  8
0
  6
CONTINUOUS
 62
     7
100
AcDbCircle
 10
181.8974574883
 20
132.0756519163
 30
0.0
 40
5.599999999999994
100
AcDbArc
 50
75.9653520648
 51
284.0346479352
  0
CIRCLE
  5
107
330
1F
100
AcDbEntity
  8
0
  6
CONTINUOUS
 62
     7
100
AcDbCircle
 10
197.8974574883
 20
132.0756519163
 30
0.0
 40
1.55000000000004
  0
LINE
  5
108
330
1F
100
AcDbEntity
  8
0
  6
CONTINUOUS
 62
     7
100
AcDbLine
 10
194.8959214806
 20
128.0756527416
 30
0.0
 11
261.0832436204
 21
128.0756527416
 31
0.0
  0
ARC
  5
109
330
1F
100
AcDbEntity
  8
0
  6
CONTINUOUS
 62
     7
100
AcDbCircle
 10
261.083243926
 20
127.0756519163
 30
0.0
 40
1.000000000000014
100
AcDbArc
 50
45.0
 51
90.0
  0
LINE
  5
10A
330
1F
100
AcDbEntity
  8
0
  6
CONTINUOUS
 62
     7
100
AcDbLine
 10
261.7903484225
 20
127.7827555171
 30
0.0
 11
261.8974579692
 21
127.6756459705
 31
0.0
  0
LINE
  5
10B
330
1F
100
AcDbEntity
  8
0
  6
CONTINUOUS
 62
     7
100
AcDbLine
 10
261.8974579692
 20
127.6756459705
 30
0.0
 11
262.0045675158
 21
127.7827555171
 31
0.0
  0
ARC
  5
10C
330
1F
100
AcDbEntity
  8
0
  6
CONTINUOUS
 62
     7
100
AcDbCircle
 10
194.8959189357
 20
184.0756519163
 30
0.0
 40
48.00000000000003
100
AcDbArc
 50
255.9653520648
 51
270.0
  0
ARC
  5
10D
330
1F
100
AcDbEntity
  8
0
  6
CONTINUOUS
 62
     7
100
AcDbCircle
 10
194.8959189357
 20
80.0756519163
 30
0.0
 40
48.00000000000003
100
AcDbArc
 50
90.0
 51
104.0346479352
  0
LINE
  5
10E
330
1F
100
AcDbEntity
  8
0
  6
CONTINUOUS
 62
     7
100
AcDbLine
 10
261.0832436204
 20
136.0756540529
 30
0.0
 11
194.8959214806
 21
136.0756540529
 31
0.0
  0
ARC
  5
10F
330
1F
100
AcDbEntity
  8
0
  6
CONTINUOUS
 62
     7
100
AcDbCircle
 10
341.8974574883
 20
132.0756519163
 30
0.0
 40
5.600000000000009
100
AcDbArc
 50
255.9653520648
 51
104.0346479352
  0
CIRCLE
  5
110
330
1F
100
AcDbEntity
  8
0
  6
CONTINUOUS
 62
     7
100
AcDbCircle
 10
181.8974574883
 20
132.0756519163
 30
0.0
 40
2.498076211353293
  0
CIRCLE
  5
111
330
1F
100
AcDbEntity
  8
0
  6
CONTINUOUS
 62
     7
100
AcDbCircle
 10
341.8974574883
 20
132.0756519163
 30
0.0
 40
2.498076211353293
  0
LINE
  5
112
330
1F
100
AcDbEntity
  8
0
  6
CONTINUOUS
 62
     7
100
AcDbLine
 10
261.8974579692
 20
136.4756459228
 30
0.0
 11
261.7903484225
 21
136.3685512773
 31
0.0
  0
ARC
  5
113
330
1F
100
AcDbEntity
  8
0
  6
CONTINUOUS
 62
     7
100
AcDbCircle
 10
262.7116710507
 20
137.0756519163
 30
0.0
 40
1.000000000000048
100
AcDbArc
 50
225.0
 51
270.0
  0
LINE
  5
114
330
1F
100
AcDbEntity
  8
0
  6
CONTINUOUS
 62
     7
100
AcDbLine
 10
262.0045675158
 20
136.3685512773
 30
0.0
 11
261.8974579692
 21
136.4756459228
 31
0.0
  0
ARC
  5
115
330
1F
100
AcDbEntity
  8
0
  6
CONTINUOUS
 62
     7
100
AcDbCircle
 10
328.8989960409
 20
184.0756519163
 30
0.0
 40
48.00000000000003
100
AcDbArc
 50
270.0
 51
284.0346479352
  0
ARC
  5
116
330
1F
100
AcDbEntity
  8
0
  6
CONTINUOUS
 62
     7
100
AcDbCircle
 10
261.083243926
 20
137.0756519163
 30
0.0
 40
1.0
100
AcDbArc
 50
270.0
 51
315.0
  0
ARC
  5
117
330
1F
100
AcDbEntity
  8
0
  6
CONTINUOUS
 62
     7
100
AcDbCircle
 10
262.7116710507
 20
127.0756519163
 30
0.0
 40
1.000000000000048
100
AcDbArc
 50
90.0
 51
135.0
  0
ARC
  5
118
330
1F
100
AcDbEntity
  8
0
  6
CONTINUOUS
 62
     7
100
AcDbCircle
 10
328.8989960409
 20
80.0756519163
 30
0.0
 40
48.00000000000003
100
AcDbArc
 50
75.9653520648
 51
90.0
  0
CIRCLE
  5
119
330
1F
100
AcDbEntity
  8
0
  6
CONTINUOUS
 62
     7
100
AcDbCircle
 10
197.2072559447
 20
113.2190365212
 30
0.0
 40
1.550000000000011
  0
ARC
  5
11A
330
1F
100
AcDbEntity
  8
0
  6
CONTINUOUS
 62
     7
100
AcDbCircle
 10
181.2072559447
 20
113.2190365212
 30
0.0
 40
5.600000000000009
100
AcDbArc
 50
75.9653520648
 51
284.0346479352
  0
LINE
  5
11B
330
1F
100
AcDbEntity
  8
0
  6
CONTINUOUS
 62
     7
100
AcDbLine
 10
260.393036735
 20
117.2190392248
 30
0.0
 11
194.2057145953
 21
117.2190392248
 31
0.0
  0
ARC
  5
11C
330
1F
100
AcDbEntity
  8
0
  6
CONTINUOUS
 62
     7
100
AcDbCircle
 10
341.2072559447
 20
113.2190365212
 30
0.0
 40
5.600000000000022
100
AcDbArc
 50
255.9653520648
 51
104.0346479352
  0
LINE
  5
11D
330
1F
100
AcDbEntity
  8
0
  6
CONTINUOUS
 62
     7
100
AcDbLine
 10
194.2057145953
 20
109.2190379135
 30
0.0
 11
260.393036735
 21
109.2190379135
 31
0.0
  0
LINE
  5
11E
330
1F
100
AcDbEntity
  8
0
  6
CONTINUOUS
 62
     7
100
AcDbLine
 10
262.0214654326
 20
109.2190379135
 30
0.0
 11
328.2087875724
 21
109.2190379135
 31
0.0
  0
LINE
  5
11F
330
1F
100
AcDbEntity
  8
0
  6
CONTINUOUS
 62
     7
100
AcDbLine
 10
328.2087875724
 20
117.2190392248
 30
0.0
 11
262.0214654326
 21
117.2190392248
 31
0.0
  0
ARC
  5
120
330
1F
100
AcDbEntity
  8
0
  6
CONTINUOUS
 62
     7
100
AcDbCircle
 10
328.2087944972
 20
165.2190365212
 30
0.0
 40
48.00000000000001
100
AcDbArc
 50
270.0
 51
284.0346479352
  0
ARC
  5
121
330
1F
100
AcDbEntity
  8
0
  6
CONTINUOUS
 62
     7
100
AcDbCircle
 10
328.2087944972
 20
61.2190365212
 30
0.0
 40
48.00000000000001
100
AcDbArc
 50
75.9653520648
 51
90.0
  0
CIRCLE
  5
122
330
1F
100
AcDbEntity
  8
0
  6
CONTINUOUS
 62
     7
100
AcDbCircle
 10
181.2072559447
 20
113.2190365212
 30
0.0
 40
2.49807621135335
  0
CIRCLE
  5
123
330
1F
100
AcDbEntity
  8
0
  6
CONTINUOUS
 62
     7
100
AcDbCircle
 10
341.2072559447
 20
113.2190365212
 30
0.0
 40
2.49807621135335
  0
CIRCLE
  5
124
330
1F
100
AcDbEntity
  8
0
  6
CONTINUOUS
 62
     7
100
AcDbCircle
 10
325.2072559447
 20
113.2190365212
 30
0.0
 40
1.550000000000011
  0
ARC
  5
125
330
1F
100
AcDbEntity
  8
0
  6
CONTINUOUS
 62
     7
100
AcDbCircle
 10
262.021469507
 20
118.2190365212
 30
0.0
 40
1.000000000000068
100
AcDbArc
 50
225.0
 51
270.0
  0
LINE
  5
126
330
1F
100
AcDbEntity
  8
0
  6
CONTINUOUS
 62
     7
100
AcDbLine
 10
261.3143606305
 20
117.5119289986
 30
0.0
 11
261.2072510838
 21
117.6190385453
 31
0.0
  0
LINE
  5
127
330
1F
100
AcDbEntity
  8
0
  6
CONTINUOUS
 62
     7
100
AcDbLine
 10
261.2072510838
 20
117.6190385453
 30
0.0
 11
261.1001564383
 21
117.5119289986
 31
0.0
  0
ARC
  5
128
330
1F
100
AcDbEntity
  8
0
  6
CONTINUOUS
 62
     7
100
AcDbCircle
 10
260.3930423823
 20
118.2190365212
 30
0.0
 40
1.000000000000028
100
AcDbArc
 50
270.0
 51
315.0
  0
ARC
  5
129
330
1F
100
AcDbEntity
  8
0
  6
CONTINUOUS
 62
     7
100
AcDbCircle
 10
262.021469507
 20
108.2190365212
 30
0.0
 40
1.000000000000018
100
AcDbArc
 50
90.0
 51
135.0
  0
ARC
  5
12A
330
1F
100
AcDbEntity
  8
0
  6
CONTINUOUS
 62
     7
100
AcDbCircle
 10
260.3930423823
 20
108.2190365212
 30
0.0
 40
1.0
100
AcDbArc
 50
45.0
 51
90.0
  0
LINE
  5
12B
330
1F
100
AcDbEntity
  8
0
  6
CONTINUOUS
 62
     7
100
AcDbLine
 10
261.1001564383
 20
108.926140689
 30
0.0
 11
261.2072510838
 21
108.819038593
 31
0.0
  0
LINE
  5
12C
330
1F
100
AcDbEntity
  8
0
  6
CONTINUOUS
 62
     7
100
AcDbLine
 10
261.2072510838
 20
108.819038593
 30
0.0
 11
261.3143606305
 21
108.926140689
 31
0.0
  0
ARC
  5
12D
330
1F
100
AcDbEntity
  8
0
  6
CONTINUOUS
 62
     7
100
AcDbCircle
 10
194.2057173921
 20
165.2190365212
 30
0.0
 40
48.00000000000003
100
AcDbArc
 50
255.9653520648
 51
270.0
  0
ARC
  5
12E
330
1F
100
AcDbEntity
  8
0
  6
CONTINUOUS
 62
     7
100
AcDbCircle
 10
194.2057173921
 20
61.2190365212
 30
0.0
 40
48.00000000000001
100
AcDbArc
 50
90.0
 51
104.0346479352
  0
CIRCLE
  5
12F
330
1F
100
AcDbEntity
  8
0
  6
CONTINUOUS
 62
     7
100
AcDbCircle
 10
341.5527793607
 20
93.793019446
 30
0.0
 40
2.498076211353293
  0
CIRCLE
  5
130
330
1F
100
AcDbEntity
  8
0
  6
CONTINUOUS
 62
     7
100
AcDbCircle
 10
325.5527793607
 20
93.793019446
 30
0.0
 40
1.550000000000011
  0
CIRCLE
  5
131
330
1F
100
AcDbEntity
  8
0
  6
CONTINUOUS
 62
     7
100
AcDbCircle
 10
197.5527793607
 20
93.793019446
 30
0.0
 40
1.550000000000011
  0
CIRCLE
  5
132
330
1F
100
AcDbEntity
  8
0
  6
CONTINUOUS
 62
     7
100
AcDbCircle
 10
181.5527793607
 20
93.793019446
 30
0.0
 40
2.498076211353322
  0
ARC
  5
133
330
1F
100
AcDbEntity
  8
0
  6
CONTINUOUS
 62
     7
100
AcDbCircle
 10
194.5512408081
 20
41.793019446
 30
0.0
 40
48.00000000000002
100
AcDbArc
 50
90.0
 51
104.0346479352
  0
ARC
  5
134
330
1F
100
AcDbEntity
  8
0
  6
CONTINUOUS
 62
     7
100
AcDbCircle
 10
181.5527793607
 20
93.793019446
 30
0.0
 40
5.600000000000009
100
AcDbArc
 50
75.9653520648
 51
284.0346479352
  0
ARC
  5
135
330
1F
100
AcDbEntity
  8
0
  6
CONTINUOUS
 62
     7
100
AcDbCircle
 10
194.5512408081
 20
145.793019446
 30
0.0
 40
48.00000000000003
100
AcDbArc
 50
255.9653520648
 51
270.0
  0
LINE
  5
136
330
1F
100
AcDbEntity
  8
0
  6
CONTINUOUS
 62
     7
100
AcDbLine
 10
260.7385648608
 20
97.7930212251
 30
0.0
 11
194.5512427211
 21
97.7930212251
 31
0.0
  0
ARC
  5
137
330
1F
100
AcDbEntity
  8
0
  6
CONTINUOUS
 62
     7
100
AcDbCircle
 10
328.5543179132
 20
145.793019446
 30
0.0
 40
48.00000000000003
100
AcDbArc
 50
270.0
 51
284.0346479352
  0
ARC
  5
138
330
1F
100
AcDbEntity
  8
0
  6
CONTINUOUS
 62
     7
100
AcDbCircle
 10
341.5527793607
 20
93.793019446
 30
0.0
 40
5.600000000000009
100
AcDbArc
 50
255.9653520648
 51
104.0346479352
  0
LINE
  5
139
330
1F
100
AcDbEntity
  8
0
  6
CONTINUOUS
 62
     7
100
AcDbLine
 10
261.5527792096
 20
89.3930205933
 30
0.0
 11
261.6598887563
 21
89.5001226894
 31
0.0
  0
LINE
  5
13A
330
1F
100
AcDbEntity
  8
0
  6
CONTINUOUS
 62
     7
100
AcDbLine
 10
261.4456696629
 20
89.5001226894
 30
0.0
 11
261.5527792096
 21
89.3930205933
 31
0.0
  0
ARC
  5
13B
330
1F
100
AcDbEntity
  8
0
  6
CONTINUOUS
 62
     7
100
AcDbCircle
 10
260.7385657983
 20
88.793019446
 30
0.0
 40
1.000000000000028
100
AcDbArc
 50
45.0
 51
90.0
  0
LINE
  5
13C
330
1F
100
AcDbEntity
  8
0
  6
CONTINUOUS
 62
     7
100
AcDbLine
 10
194.5512427211
 20
89.7930199138
 30
0.0
 11
260.7385648608
 21
89.7930199138
 31
0.0
  0
LINE
  5
13D
330
1F
100
AcDbEntity
  8
0
  6
CONTINUOUS
 62
     7
100
AcDbLine
 10
262.3669935584
 20
89.7930199138
 30
0.0
 11
328.5543156981
 21
89.7930199138
 31
0.0
  0
LINE
  5
13E
330
1F
100
AcDbEntity
  8
0
  6
CONTINUOUS
 62
     7
100
AcDbLine
 10
328.5543156981
 20
97.7930212251
 30
0.0
 11
262.3669935584
 21
97.7930212251
 31
0.0
  0
LINE
  5
13F
330
1F
100
AcDbEntity
  8
0
  6
CONTINUOUS
 62
     7
100
AcDbLine
 10
261.5527792096
 20
98.1930205456
 30
0.0
 11
261.4456696629
 21
98.085910999
 31
0.0
  0
ARC
  5
140
330
1F
100
AcDbEntity
  8
0
  6
CONTINUOUS
 62
     7
100
AcDbCircle
 10
328.5543179132
 20
41.793019446
 30
0.0
 40
48.00000000000001
100
AcDbArc
 50
75.9653520648
 51
90.0
  0
ARC
  5
141
330
1F
100
AcDbEntity
  8
0
  6
CONTINUOUS
 62
     7
100
AcDbCircle
 10
262.366992923
 20
88.793019446
 30
0.0
 40
1.000000000000068
100
AcDbArc
 50
90.0
 51
135.0
  0
LINE
  5
142
330
1F
100
AcDbEntity
  8
0
  6
CONTINUOUS
 62
     7
100
AcDbLine
 10
261.6598887563
 20
98.085910999
 30
0.0
 11
261.5527792096
 21
98.1930205456
 31
0.0
  0
ARC
  5
143
330
1F
100
AcDbEntity
  8
0
  6
CONTINUOUS
 62
     7
100
AcDbCircle
 10
262.366992923
 20
98.793019446
 30
0.0
 40
1.000000000000038
100
AcDbArc
 50
225.0
 51
270.0
  0
ARC
  5
144
330
1F
100
AcDbEntity
  8
0
  6
CONTINUOUS
 62
     7
100
AcDbCircle
 10
260.7385657983
 20
98.793019446
 30
0.0
 40
1.0
100
AcDbArc
 50
270.0
 51
315.0
  0
LINE
  5
145
330
1F
100
AcDbEntity
  8
0
  6
CONTINUOUS
 62
     7
100
AcDbLine
 10
327.9369158864
 20
55.7323256365
 30
0.0
 11
261.7495937466
 21
55.7323256365
 31
0.0
  0
LINE
  5
146
330
1F
100
AcDbEntity
  8
0
  6
CONTINUOUS
 62
     7
100
AcDbLine
 10
261.7495937466
 20
47.7323280505
 30
0.0
 11
327.9369158864
 21
47.7323280505
 31
0.0
  0
ARC
  5
147
330
1F
100
AcDbEntity
  8
0
  6
CONTINUOUS
 62
     7
100
AcDbCircle
 10
340.9353835707
 20
51.732326838
 30
0.0
 40
5.600000000000022
100
AcDbArc
 50
255.9653520648
 51
104.0346479352
  0
LINE
  5
148
330
1F
100
AcDbEntity
  8
0
  6
CONTINUOUS
 62
     7
100
AcDbLine
 10
261.0424889445
 20
56.0252191357
 30
0.0
 11
260.9353793979
 21
56.1323286823
 31
0.0
  0
LINE
  5
149
330
1F
100
AcDbEntity
  8
0
  6
CONTINUOUS
 62
     7
100
AcDbLine
 10
260.9353793979
 20
56.1323286823
 30
0.0
 11
260.8282698512
 21
56.0252191357
 31
0.0
  0
ARC
  5
14A
330
1F
100
AcDbEntity
  8
0
  6
CONTINUOUS
 62
     7
100
AcDbCircle
 10
261.7495971331
 20
56.732326838
 30
0.0
 40
0.9999999999999787
100
AcDbArc
 50
225.0
 51
270.0
  0
ARC
  5
14B
330
1F
100
AcDbEntity
  8
0
  6
CONTINUOUS
 62
     7
100
AcDbCircle
 10
261.7495971331
 20
46.732326838
 30
0.0
 40
1.0
100
AcDbArc
 50
90.0
 51
135.0
  0
ARC
  5
14C
330
1F
100
AcDbEntity
  8
0
  6
CONTINUOUS
 62
     7
100
AcDbCircle
 10
260.1211700083
 20
46.732326838
 30
0.0
 40
1.0
100
AcDbArc
 50
45.0
 51
90.0
  0
LINE
  5
14D
330
1F
100
AcDbEntity
  8
0
  6
CONTINUOUS
 62
     7
100
AcDbLine
 10
260.8282698512
 20
47.4394345514
 30
0.0
 11
260.9353793979
 21
47.3323250047
 31
0.0
  0
LINE
  5
14E
330
1F
100
AcDbEntity
  8
0
  6
CONTINUOUS
 62
     7
100
AcDbLine
 10
260.9353793979
 20
47.3323250047
 30
0.0
 11
261.0424889445
 21
47.4394345514
 31
0.0
  0
ARC
  5
14F
330
1F
100
AcDbEntity
  8
0
  6
CONTINUOUS
 62
     7
100
AcDbCircle
 10
193.9338450181
 20
103.732326838
 30
0.0
 40
47.99999999999999
100
AcDbArc
 50
255.9653520648
 51
270.0
  0
ARC
  5
150
330
1F
100
AcDbEntity
  8
0
  6
CONTINUOUS
 62
     7
100
AcDbCircle
 10
193.9338450181
 20
-0.267673162
 30
0.0
 40
47.99999999999999
100
AcDbArc
 50
90.0
 51
104.0346479352
  0
ARC
  5
151
330
1F
100
AcDbEntity
  8
0
  6
CONTINUOUS
 62
     7
100
AcDbCircle
 10
260.1211700083
 20
56.732326838
 30
0.0
 40
1.000000000000003
100
AcDbArc
 50
270.0
 51
315.0
  0
ARC
  5
152
330
1F
100
AcDbEntity
  8
0
  6
CONTINUOUS
 62
     7
100
AcDbCircle
 10
327.9369221233
 20
-0.267673162
 30
0.0
 40
47.99999999999999
100
AcDbArc
 50
75.9653520648
 51
90.0
  0
CIRCLE
  5
153
330
1F
100
AcDbEntity
  8
0
  6
CONTINUOUS
 62
     7
100
AcDbCircle
 10
180.9353835707
 20
51.732326838
 30
0.0
 40
2.498076211353265
  0
CIRCLE
  5
154
330
1F
100
AcDbEntity
  8
0
  6
CONTINUOUS
 62
     7
100
AcDbCircle
 10
340.9353835707
 20
51.732326838
 30
0.0
 40
2.498076211353236
  0
CIRCLE
  5
155
330
1F
100
AcDbEntity
  8
0
  6
CONTINUOUS
 62
     7
100
AcDbCircle
 10
324.9353835707
 20
51.732326838
 30
0.0
 40
1.549999999999955
  0
CIRCLE
  5
156
330
1F
100
AcDbEntity
  8
0
  6
CONTINUOUS
 62
     7
100
AcDbCircle
 10
196.9353835707
 20
51.732326838
 30
0.0
 40
1.55000000000004
  0
LINE
  5
157
330
1F
100
AcDbEntity
  8
0
  6
CONTINUOUS
 62
     7
100
AcDbLine
 10
193.9338429093
 20
47.7323280505
 30
0.0
 11
260.1211650491
 21
47.7323280505
 31
0.0
  0
ARC
  5
158
330
1F
100
AcDbEntity
  8
0
  6
CONTINUOUS
 62
     7
100
AcDbCircle
 10
180.9353835707
 20
51.732326838
 30
0.0
 40
5.600000000000022
100
AcDbArc
 50
75.9653520648
 51
284.0346479352
  0
LINE
  5
159
330
1F
100
AcDbEntity
  8
0
  6
CONTINUOUS
 62
     7
100
AcDbLine
 10
260.1211650491
 20
55.7323256365
 30
0.0
 11
193.9338429093
 21
55.7323256365
 31
0.0
  0
ARC
  5
15A
330
1F
100
AcDbEntity
  8
0
  6
CONTINUOUS
 62
     7
100
AcDbCircle
 10
327.9369221233
 20
103.732326838
 30
0.0
 40
47.99999999999999
100
AcDbArc
 50
270.0
 51
284.0346479352
  0
ARC
  5
15B
330
1F
100
AcDbEntity
  8
0
  6
CONTINUOUS
 62
     7
100
AcDbCircle
 10
103.5076867737
 20
212.2840101192
 30
0.0
 40
2.0
100
AcDbArc
 50
315.0
 51
0.0
  0
LINE
  5
15C
330
1F
100
AcDbEntity
  8
0
  6
CONTINUOUS
 62
     7
100
AcDbLine
 10
105.5076869398
 20
381.1671627055
 30
0.0
 11
105.5076869398
 21
212.2840103995
 31
0.0
  0
ARC
  5
15D
330
1F
100
AcDbEntity
  8
0
  6
CONTINUOUS
 62
     7
100
AcDbCircle
 10
103.5076867737
 20
381.1671558697
 30
0.0
 40
2.000000000000006
100
AcDbArc
 50
0.0
 51
45.0
  0
LINE
  5
15E
330
1F
100
AcDbEntity
  8
0
  6
CONTINUOUS
 62
     7
100
AcDbLine
 10
104.0934736103
 20
383.4098023664
 30
0.0
 11
104.9218999416
 21
382.5813723098
 31
0.0
  0
ARC
  5
15F
330
1F
100
AcDbEntity
  8
0
  6
CONTINUOUS
 62
     7
100
AcDbCircle
 10
105.5076867737
 20
384.8240101192
 30
0.0
 40
2.000000000000026
100
AcDbArc
 50
180.0
 51
225.0
  0
LINE
  5
160
330
1F
100
AcDbEntity
  8
0
  6
CONTINUOUS
 62
     7
100
AcDbLine
 10
103.507686612
 20
389.9955791723
 30
0.0
 11
103.507686612
 21
384.8240119706
 31
0.0
  0
ARC
  5
161
330
1F
100
AcDbEntity
  8
0
  6
CONTINUOUS
 62
     7
100
AcDbCircle
 10
105.5076867737
 20
389.9955829945
 30
0.0
 40
2.0
100
AcDbArc
 50
90.0
 51
180.0
  0
ARC
  5
162
330
1F
100
AcDbEntity
  8
0
  6
CONTINUOUS
 62
     7
100
AcDbCircle
 10
529.0076867737
 20
296.7255829945
 30
0.0
 40
2.999999999999867
100
AcDbArc
 50
326.4426902381
 51
33.5573097619
  0
ARC
  5
163
330
1F
100
AcDbEntity
  8
0
  6
CONTINUOUS
 62
     7
100
AcDbCircle
 10
105.5076867737
 20
203.4555829945
 30
0.0
 40
2.0
100
AcDbArc
 50
180.0
 51
270.0
  0
LINE
  5
164
330
1F
100
AcDbEntity
  8
0
  6
CONTINUOUS
 62
     7
100
AcDbLine
 10
103.507686612
 20
208.6271555464
 30
0.0
 11
103.507686612
 21
203.4555832225
 31
0.0
  0
ARC
  5
165
330
1F
100
AcDbEntity
  8
0
  6
CONTINUOUS
 62
     7
100
AcDbCircle
 10
105.5076867737
 20
208.6271558697
 30
0.0
 40
2.0
100
AcDbArc
 50
135.0
 51
180.0
  0
LINE
  5
166
330
1F
100
AcDbEntity
  8
0
  6
CONTINUOUS
 62
     7
100
AcDbLine
 10
104.9218999416
 20
210.8697961386
 30
0.0
 11
104.0934736103
 21
210.0413698073
 31
0.0
  0
ARC
  5
167
330
1F
100
AcDbEntity
  8
0
  6
CONTINUOUS
 62
     7
100
AcDbCircle
 10
352.0076867737
 20
237.4555829945
 30
0.0
 40
10.0
100
AcDbArc
 50
270.0
 51
0.0
  0
LINE
  5
168
330
1F
100
AcDbEntity
  8
0
  6
CONTINUOUS
 62
     7
100
AcDbLine
 10
362.0076907992
 20
237.4555846046
 30
0.0
 11
362.0076907992
 21
355.9955847751
 31
0.0
  0
LINE
  5
169
330
1F
100
AcDbEntity
  8
0
  6
CONTINUOUS
 62
     7
100
AcDbLine
 10
352.007700336
 20
365.9955901395
 30
0.0
 11
172.0076857328
 21
365.9955901395
 31
0.0
  0
ARC
  5
16A
330
1F
100
AcDbEntity
  8
0
  6
CONTINUOUS
 62
     7
100
AcDbCircle
 10
172.0076867737
 20
355.9955829945
 30
0.0
 40
10.0
100
AcDbArc
 50
90.0
 51
180.0
  0
ARC
  5
16B
330
1F
100
AcDbEntity
  8
0
  6
CONTINUOUS
 62
     7
100
AcDbCircle
 10
172.0076867737
 20
237.4555829945
 30
0.0
 40
10.00000000000003
100
AcDbArc
 50
180.0
 51
270.0
  0
ARC
  5
16C
330
1F
100
AcDbEntity
  8
0
  6
CONTINUOUS
 62
     7
100
AcDbCircle
 10
136.899977362
 20
296.2644846526
 30
0.0
 40
0.6670074624058661
100
AcDbArc
 50
1.480203349
 51
43.7326179022
  0
LINE
  5
16D
330
1F
100
AcDbEntity
  8
0
  6
CONTINUOUS
 62
     7
100
AcDbLine
 10
137.3819394231
 20
296.7255828272
 30
0.0
 11
132.5287765086
 21
301.5790325891
 31
0.0
  0
LWPOLYLINE
  5
16E
330
1F
100
AcDbEntity
  8
0
  6
CONTINUOUS
 62
     7
100
AcDbPolyline
 90
       43
 70
   128
 43
0.0
 10
132.5287765086
 20
301.5790325891
 10
131.9454146743
 20
302.0979431759
 10
131.3420107782
 20
302.5937718641
 10
130.7125484764
 20
303.0590233694
 10
130.0511455357
 20
303.4797055017
 10
129.3544752717
 20
303.8346362602
 10
128.6202391803
 20
304.1031849872
 10
127.8556531489
 20
304.2770815383
 10
127.0739643097
 20
304.3559608351
 10
126.2878721773
 20
304.3403444182
 10
125.5066899776
 20
304.2346877347
 10
124.7386357009
 20
304.0447053801
 10
123.9919385135
 20
303.7761268507
 10
123.1356656372
 20
303.3581194769
 10
122.3357172876
 20
302.8449234854
 10
121.6019934237
 20
302.2452858578
 10
120.9425555736
 20
301.5674841892
 10
120.3654596776
 20
300.8197960745
 10
119.8787225604
 20
300.0105438124
 10
119.4892229706
 20
299.1495919715
 10
119.2023923814
 20
298.2487795245
 10
119.0235672712
 20
297.3200721036
 10
118.9580058873
 20
296.3754576932
 10
119.0073063791
 20
295.4276618849
 10
119.1679129571
 20
294.4905129563
 10
119.4358842641
 20
293.577891339
 10
119.8072752178
 20
292.7036923658
 10
120.2780829936
 20
291.8817294132
 10
120.8422856599
 20
291.1231187474
 10
121.4914007306
 20
290.4356909286
 10
122.2167948454
 20
289.8270753514
 10
123.0098365068
 20
289.3049014102
 10
123.8606760472
 20
288.8769996654
 10
124.755537343
 20
288.5518339764
 10
125.6798563719
 20
288.3379799615
 10
126.619065386
 20
288.2440281402
 10
127.5586357534
 20
288.2779357325
 10
128.4845790088
 20
288.4377357851
 10
129.3833574474
 20
288.7135339271
 10
130.2422864556
 20
289.0951377641
 10
131.0499629199
 20
289.5721984397
 10
131.8040138304
 20
290.1276168715
 10
132.5287765086
 20
290.7240954529
  0
LINE
  5
16F
330
1F
100
AcDbEntity
  8
0
  6
CONTINUOUS
 62
     7
100
AcDbLine
 10
132.5287765086
 20
290.7240954529
 30
0.0
 11
137.3819394231
 21
295.8739442121
 31
0.0
  0
ARC
  5
170
330
1F
100
AcDbEntity
  8
0
  6
CONTINUOUS
 62
     7
100
AcDbCircle
 10
136.960288675
 20
296.3108292226
 30
0.0
 40
0.607172023182578
100
AcDbArc
 50
313.9834234204
 51
357.2515345329
  0
LINE
  5
171
330
1F
100
AcDbEntity
  8
0
  6
CONTINUOUS
 62
     7
100
AcDbLine
 10
139.3486766338
 20
303.9878350984
 30
0.0
 11
139.3486766338
 21
288.9090818654
 31
0.0
  0
ARC
  5
172
330
1F
100
AcDbEntity
  8
0
  6
CONTINUOUS
 62
     7
100
AcDbCircle
 10
139.6625935722
 20
288.8882068073
 30
0.0
 40
0.3146102544939244
100
AcDbArc
 50
176.1955083204
 51
229.5963829368
  0
LINE
  5
173
330
1F
100
AcDbEntity
  8
0
  6
CONTINUOUS
 62
     7
100
AcDbLine
 10
139.4586732805
 20
288.6486319195
 30
0.0
 11
142.3857419014
 21
285.721671332
 31
0.0
  0
LWPOLYLINE
  5
174
330
1F
100
AcDbEntity
  8
0
  6
CONTINUOUS
 62
     7
100
AcDbPolyline
 90
        9
 70
   128
 43
0.0
 10
142.3857419014
 20
285.721671332
 10
142.5354650438
 20
285.6354681145
 10
142.7085643828
 20
285.6246200692
 10
142.831297797
 20
285.6668723117
 10
142.9327560782
 20
285.7482997071
 10
142.9989097834
 20
285.8596635352
 10
143.0357044756
 20
285.9845948707
 10
143.0817378878
 20
286.2405372154
 10
143.0899223506
 20
286.5002868067
  0
LINE
  5
175
330
1F
100
AcDbEntity
  8
0
  6
CONTINUOUS
 62
     7
100
AcDbLine
 10
143.0899223506
 20
286.5002868067
 30
0.0
 11
143.0899223506
 21
303.9878350984
 31
0.0
  0
ARC
  5
176
330
1F
100
AcDbEntity
  8
0
  6
CONTINUOUS
 62
     7
100
AcDbCircle
 10
135.7615852123
 20
303.8084804253
 30
0.0
 40
7.33053158448837
100
AcDbArc
 50
1.4019844582
 51
88.6023445589
  0
LINE
  5
177
330
1F
100
AcDbEntity
  8
0
  6
CONTINUOUS
 62
     7
100
AcDbLine
 10
135.940386188
 20
311.1368310939
 30
0.0
 11
118.4532253265
 21
311.1354229342
 31
0.0
  0
LWPOLYLINE
  5
178
330
1F
100
AcDbEntity
  8
0
  6
CONTINUOUS
 62
     7
100
AcDbPolyline
 90
        9
 70
   128
 43
0.0
 10
118.4532253265
 20
311.1354229342
 10
118.1933248609
 20
311.1273763071
 10
117.9369298935
 20
311.0824642073
 10
117.812087965
 20
311.0453975688
 10
117.7012382269
 20
310.9780964743
 10
117.6197530895
 20
310.8765897642
 10
117.5775399625
 20
310.7537669431
 10
117.589095813
 20
310.5806005489
 10
117.6761614352
 20
310.4312462102
  0
LINE
  5
179
330
1F
100
AcDbEntity
  8
0
  6
CONTINUOUS
 62
     7
100
AcDbLine
 10
117.6761614352
 20
310.4312462102
 30
0.0
 11
120.6030884951
 21
307.5056639801
 31
0.0
  0
ARC
  5
17A
330
1F
100
AcDbEntity
  8
0
  6
CONTINUOUS
 62
     7
100
AcDbCircle
 10
120.8309232206
 20
307.6783929364
 30
0.0
 40
0.2859089968706681
100
AcDbArc
 50
217.166955868
 51
276.245685083
  0
LINE
  5
17B
330
1F
100
AcDbEntity
  8
0
  6
CONTINUOUS
 62
     7
100
AcDbLine
 10
120.8620278358
 20
307.3941809427
 30
0.0
 11
135.940386188
 21
307.395596553
 31
0.0
  0
ARC
  5
17C
330
1F
100
AcDbEntity
  8
0
  6
CONTINUOUS
 62
     7
100
AcDbCircle
 10
135.9203101763
 20
303.9672269379
 30
0.0
 40
3.42842839557655
100
AcDbArc
 50
0.3444049554
 51
89.6644884524
  0
LINE
  5
17D
330
1F
100
AcDbEntity
  8
0
  6
CONTINUOUS
 62
     7
100
AcDbLine
 10
117.1535907507
 20
288.6116919409
 30
0.0
 11
117.1535907507
 21
303.6900502931
 31
0.0
  0
ARC
  5
17E
330
1F
100
AcDbEntity
  8
0
  6
CONTINUOUS
 62
     7
100
AcDbCircle
 10
116.8189820757
 20
303.7009208498
 30
0.0
 40
0.3347852063483853
100
AcDbArc
 50
358.1392651054
 51
48.2032105405
  0
LINE
  5
17F
330
1F
100
AcDbEntity
  8
0
  6
CONTINUOUS
 62
     7
100
AcDbLine
 10
117.0421133011
 20
303.9505076896
 30
0.0
 11
114.1151601642
 21
306.8774682771
 31
0.0
  0
LWPOLYLINE
  5
180
330
1F
100
AcDbEntity
  8
0
  6
CONTINUOUS
 62
     7
100
AcDbPolyline
 90
        9
 70
   128
 43
0.0
 10
114.1151601642
 20
306.8774682771
 10
113.9654351592
 20
306.9636491429
 10
113.7923432708
 20
306.9745418917
 10
113.6696489721
 20
306.9322225939
 10
113.5683024496
 20
306.8506536375
 10
113.5019270897
 20
306.7394239198
 10
113.4647896707
 20
306.6145819913
 10
113.4196745425
 20
306.3585949432
 10
113.410979715
 20
306.0988528024
  0
LINE
  5
181
330
1F
100
AcDbEntity
  8
0
  6
CONTINUOUS
 62
     7
100
AcDbLine
 10
113.410979715
 20
306.0988528024
 30
0.0
 11
113.410979715
 21
288.6116919409
 31
0.0
  0
ARC
  5
182
330
1F
100
AcDbEntity
  8
0
  6
CONTINUOUS
 62
     7
100
AcDbCircle
 10
120.7396713684
 20
288.7910270142
 30
0.0
 40
7.330885514044456
100
AcDbArc
 50
181.4017635264
 51
268.6092368997
  0
LINE
  5
183
330
1F
100
AcDbEntity
  8
0
  6
CONTINUOUS
 62
     7
100
AcDbLine
 10
120.5617433607
 20
281.4623010646
 30
0.0
 11
138.0475593924
 21
281.4637092244
 31
0.0
  0
LWPOLYLINE
  5
184
330
1F
100
AcDbEntity
  8
0
  6
CONTINUOUS
 62
     7
100
AcDbPolyline
 90
        9
 70
   128
 43
0.0
 10
138.0475593924
 20
281.4637092244
 10
138.3074132919
 20
281.4718601595
 10
138.5635195494
 20
281.5177184831
 10
138.6884099066
 20
281.5547255169
 10
138.7996619761
 20
281.6212144982
 10
138.8811489761
 20
281.7226914059
 10
138.9233080864
 20
281.8455067765
 10
138.9119198739
 20
282.0186433684
 10
138.8247667074
 20
282.1678933989
  0
LINE
  5
185
330
1F
100
AcDbEntity
  8
0
  6
CONTINUOUS
 62
     7
100
AcDbLine
 10
138.8247667074
 20
282.1678933989
 30
0.0
 11
135.8978023946
 21
285.0948167335
 31
0.0
  0
ARC
  5
186
330
1F
100
AcDbEntity
  8
0
  6
CONTINUOUS
 62
     7
100
AcDbCircle
 10
135.6812836971
 20
284.9451502849
 30
0.0
 40
0.2632116870522388
100
AcDbArc
 50
34.6537905347
 51
99.2741416505
  0
LINE
  5
187
330
1F
100
AcDbEntity
  8
0
  6
CONTINUOUS
 62
     7
100
AcDbLine
 10
135.6388649166
 20
285.2049214135
 30
0.0
 11
120.5617433607
 21
285.2037963759
 31
0.0
  0
ARC
  5
188
330
1F
100
AcDbEntity
  8
0
  6
CONTINUOUS
 62
     7
100
AcDbCircle
 10
120.580641066
 20
288.6308481262
 30
0.0
 40
3.427103853530545
100
AcDbArc
 50
180.3202629196
 51
269.6840585273
  0
CIRCLE
  5
189
330
1F
100
AcDbEntity
  8
0
  6
CONTINUOUS
 62
     7
100
AcDbCircle
 10
510.0076867737
 20
372.9955829945
 30
0.0
 40
1.25
  0
CIRCLE
  5
18A
330
1F
100
AcDbEntity
  8
0
  6
CONTINUOUS
 62
     7
100
AcDbCircle
 10
500.5076867737
 20
372.9955829945
 30
0.0
 40
1.25
  0
LINE
  5
18B
330
1F
100
AcDbEntity
  8
0
  6
CONTINUOUS
 62
     7
100
AcDbLine
 10
531.5076841235
 20
391.9955832254
 30
0.0
 11
515.5076815009
 21
391.9955832254
 31
0.0
  0
LINE
  5
18C
330
1F
100
AcDbEntity
  8
0
  6
CONTINUOUS
 62
     7
100
AcDbLine
 10
105.5076869398
 20
201.4555828947
 30
0.0
 11
152.5076871931
 21
201.4555828947
 31
0.0
  0
LINE
  5
18D
330
1F
100
AcDbEntity
  8
0
  6
CONTINUOUS
 62
     7
100
AcDbLine
 10
531.5076841235
 20
201.4555828947
 30
0.0
 11
531.5076841235
 21
295.0672698509
 31
0.0
  0
LINE
  5
18E
330
1F
100
AcDbEntity
  8
0
  6
CONTINUOUS
 62
     7
100
AcDbLine
 10
113.4310106009
 20
386.4955795299
 30
0.0
 11
111.00768691
 21
386.4955795299
 31
0.0
  0
ARC
  5
18F
330
1F
100
AcDbEntity
  8
0
  6
CONTINUOUS
 62
     7
100
AcDbCircle
 10
115.8543351001
 20
384.9955829945
 30
0.0
 40
2.850000000000009
100
AcDbArc
 50
211.7568638593
 51
148.2431361407
  0
LINE
  5
190
330
1F
100
AcDbEntity
  8
0
  6
CONTINUOUS
 62
     7
100
AcDbLine
 10
111.00768691
 20
383.4955883514
 30
0.0
 11
113.4310106009
 21
383.4955883514
 31
0.0
  0
ARC
  5
191
330
1F
100
AcDbEntity
  8
0
  6
CONTINUOUS
 62
     7
100
AcDbCircle
 10
111.0076867737
 20
384.9955829945
 30
0.0
 40
1.5
100
AcDbArc
 50
90.0
 51
270.0
  0
LINE
  5
192
330
1F
100
AcDbEntity
  8
0
  6
CONTINUOUS
 62
     7
100
AcDbLine
 10
144.4310119569
 20
386.4955795299
 30
0.0
 11
142.007688266
 21
386.4955795299
 31
0.0
  0
ARC
  5
193
330
1F
100
AcDbEntity
  8
0
  6
CONTINUOUS
 62
     7
100
AcDbCircle
 10
146.8543351001
 20
384.9955829945
 30
0.0
 40
2.850000000000009
100
AcDbArc
 50
211.7568638593
 51
148.2431361407
  0
LINE
  5
194
330
1F
100
AcDbEntity
  8
0
  6
CONTINUOUS
 62
     7
100
AcDbLine
 10
142.007688266
 20
383.4955883514
 30
0.0
 11
144.4310119569
 21
383.4955883514
 31
0.0
  0
ARC
  5
195
330
1F
100
AcDbEntity
  8
0
  6
CONTINUOUS
 62
     7
100
AcDbCircle
 10
142.0076867737
 20
384.9955829945
 30
0.0
 40
1.5
100
AcDbArc
 50
90.0
 51
270.0
  0
LINE
  5
196
330
1F
100
AcDbEntity
  8
0
  6
CONTINUOUS
 62
     7
100
AcDbLine
 10
523.4310163379
 20
387.9955900203
 30
0.0
 11
521.0077000975
 21
387.9955900203
 31
0.0
  0
ARC
  5
197
330
1F
100
AcDbEntity
  8
0
  6
CONTINUOUS
 62
     7
100
AcDbCircle
 10
525.8543351001
 20
386.4955829945
 30
0.0
 40
2.850000000000052
100
AcDbArc
 50
211.7568638593
 51
148.2431361407
  0
ARC
  5
198
330
1F
100
AcDbEntity
  8
0
  6
CONTINUOUS
 62
     7
100
AcDbCircle
 10
352.0076867737
 20
355.9955829945
 30
0.0
 40
10.0
100
AcDbArc
 50
0.0
 51
90.0
  0
ARC
  5
199
330
1F
100
AcDbEntity
  8
0
  6
CONTINUOUS
 62
     7
100
AcDbCircle
 10
521.0076867737
 20
386.4955829945
 30
0.0
 40
1.500000000000057
100
AcDbArc
 50
90.0
 51
270.0
  0
LINE
  5
19A
330
1F
100
AcDbEntity
  8
0
  6
CONTINUOUS
 62
     7
100
AcDbLine
 10
523.4310163379
 20
208.4555826451
 30
0.0
 11
521.0077000975
 21
208.4555826451
 31
0.0
  0
ARC
  5
19B
330
1F
100
AcDbEntity
  8
0
  6
CONTINUOUS
 62
     7
100
AcDbCircle
 10
525.8543351001
 20
206.9555829945
 30
0.0
 40
2.849999999999918
100
AcDbArc
 50
211.7568638593
 51
148.2431361407
  0
LINE
  5
19C
330
1F
100
AcDbEntity
  8
0
  6
CONTINUOUS
 62
     7
100
AcDbLine
 10
162.007687819
 20
355.9955847751
 30
0.0
 11
162.007687819
 21
237.4555846046
 31
0.0
  0
LINE
  5
19D
330
1F
100
AcDbEntity
  8
0
  6
CONTINUOUS
 62
     7
100
AcDbLine
 10
172.0076857328
 20
227.4555829655
 30
0.0
 11
352.007700336
 21
227.4555829655
 31
0.0
  0
CIRCLE
  5
19E
330
1F
100
AcDbEntity
  8
0
  6
CONTINUOUS
 62
     7
100
AcDbCircle
 10
529.0076867737
 20
296.7255829945
 30
0.0
 40
1.5
  0
CIRCLE
  5
19F
330
1F
100
AcDbEntity
  8
0
  6
CONTINUOUS
 62
     7
100
AcDbCircle
 10
150.0076867737
 20
296.7255829945
 30
0.0
 40
1.499999999999943
  0
ARC
  5
1A0
330
1F
100
AcDbEntity
  8
0
  6
CONTINUOUS
 62
     7
100
AcDbCircle
 10
503.6755272075
 20
393.9955829945
 30
0.0
 40
11.99999999999994
100
AcDbArc
 50
270.0
 51
350.4059317731
  0
ARC
  5
1A1
330
1F
100
AcDbEntity
  8
0
  6
CONTINUOUS
 62
     7
100
AcDbCircle
 10
503.6755272075
 20
199.4555829945
 30
0.0
 40
12.0
100
AcDbArc
 50
9.5940682269
 51
90.0
  0
ARC
  5
1A2
330
1F
100
AcDbEntity
  8
0
  6
CONTINUOUS
 62
     7
100
AcDbCircle
 10
164.3398463399
 20
393.9955829945
 30
0.0
 40
12.00000000000006
100
AcDbArc
 50
189.5940682269
 51
270.0
  0
ARC
  5
1A3
330
1F
100
AcDbEntity
  8
0
  6
CONTINUOUS
 62
     7
100
AcDbCircle
 10
164.3398463399
 20
199.4555829945
 30
0.0
 40
12.00000000000003
100
AcDbArc
 50
90.0
 51
170.4059317731
  0
LINE
  5
1A4
330
1F
100
AcDbEntity
  8
0
  6
CONTINUOUS
 62
     7
100
AcDbLine
 10
503.6755336642
 20
211.4555831369
 30
0.0
 11
164.3398462057
 21
211.4555831369
 31
0.0
  0
LINE
  5
1A5
330
1F
100
AcDbEntity
  8
0
  6
CONTINUOUS
 62
     7
100
AcDbLine
 10
164.3398462057
 20
381.995577861
 30
0.0
 11
503.6755336642
 21
381.995577861
 31
0.0
  0
CIRCLE
  5
1A6
330
1F
100
AcDbEntity
  8
0
  6
CONTINUOUS
 62
     7
100
AcDbCircle
 10
111.0076867737
 20
208.4555829945
 30
0.0
 40
1.5
  0
LINE
  5
1A7
330
1F
100
AcDbEntity
  8
0
  6
CONTINUOUS
 62
     7
100
AcDbLine
 10
144.4310119569
 20
209.955582891
 30
0.0
 11
142.007688266
 21
209.955582891
 31
0.0
  0
ARC
  5
1A8
330
1F
100
AcDbEntity
  8
0
  6
CONTINUOUS
 62
     7
100
AcDbCircle
 10
146.8543351001
 20
208.4555829945
 30
0.0
 40
2.850000000000009
100
AcDbArc
 50
211.7568638593
 51
148.2431361407
  0
LINE
  5
1A9
330
1F
100
AcDbEntity
  8
0
  6
CONTINUOUS
 62
     7
100
AcDbLine
 10
142.007688266
 20
206.9555833306
 30
0.0
 11
144.4310119569
 21
206.9555833306
 31
0.0
  0
ARC
  5
1AA
330
1F
100
AcDbEntity
  8
0
  6
CONTINUOUS
 62
     7
100
AcDbCircle
 10
142.0076867737
 20
208.4555829945
 30
0.0
 40
1.500000000000057
100
AcDbArc
 50
90.0
 51
270.0
  0
LINE
  5
1AB
330
1F
100
AcDbEntity
  8
0
  6
CONTINUOUS
 62
     7
100
AcDbLine
 10
521.0077000975
 20
205.4555830847
 30
0.0
 11
523.4310163379
 21
205.4555830847
 31
0.0
  0
ARC
  5
1AC
330
1F
100
AcDbEntity
  8
0
  6
CONTINUOUS
 62
     7
100
AcDbCircle
 10
521.0076867737
 20
206.9555829945
 30
0.0
 40
1.500000000000057
100
AcDbArc
 50
90.0
 51
270.0
  0
LINE
  5
1AD
330
1F
100
AcDbEntity
  8
0
  6
CONTINUOUS
 62
     7
100
AcDbLine
 10
152.5076871931
 20
391.9955832254
 30
0.0
 11
105.5076869398
 21
391.9955832254
 31
0.0
  0
LINE
  5
1AE
330
1F
100
AcDbEntity
  8
0
  6
CONTINUOUS
 62
     7
100
AcDbLine
 10
531.5076841235
 20
298.3838958036
 30
0.0
 11
531.5076841235
 21
391.9955832254
 31
0.0
  0
LINE
  5
1AF
330
1F
100
AcDbEntity
  8
0
  6
CONTINUOUS
 62
     7
100
AcDbLine
 10
515.5076815009
 20
201.4555828947
 30
0.0
 11
531.5076841235
 21
201.4555828947
 31
0.0
  0
LINE
  5
1B0
330
1F
100
AcDbEntity
  8
0
  6
CONTINUOUS
 62
     7
100
AcDbLine
 10
521.0077000975
 20
384.9955839406
 30
0.0
 11
523.4310163379
 21
384.9955839406
 31
0.0
  0
CIRCLE
  5
1B1
330
1F
100
AcDbEntity
  8
0
  6
CONTINUOUS
 62
     7
100
AcDbCircle
 10
198.0624065436
 20
266.7787704148
 30
0.0
 40
1.550000000000011
  0
ARC
  5
1B2
330
1F
100
AcDbEntity
  8
0
  6
CONTINUOUS
 62
     7
100
AcDbCircle
 10
182.0624065436
 20
266.7787704148
 30
0.0
 40
5.600000000000022
100
AcDbArc
 50
75.9653520648
 51
284.0346479352
  0
ARC
  5
1B3
330
1F
100
AcDbEntity
  8
0
  6
CONTINUOUS
 62
     7
100
AcDbCircle
 10
342.0624065436
 20
266.7787704148
 30
0.0
 40
5.600000000000022
100
AcDbArc
 50
255.9653520648
 51
104.0346479352
  0
LINE
  5
1B4
330
1F
100
AcDbEntity
  8
0
  6
CONTINUOUS
 62
     7
100
AcDbLine
 10
195.0608698845
 20
262.7787706744
 30
0.0
 11
261.2481994748
 21
262.7787706744
 31
0.0
  0
LINE
  5
1B5
330
1F
100
AcDbEntity
  8
0
  6
CONTINUOUS
 62
     7
100
AcDbLine
 10
262.8766132712
 20
262.7787706744
 30
0.0
 11
329.0639503121
 21
262.7787706744
 31
0.0
  0
LINE
  5
1B6
330
1F
100
AcDbEntity
  8
0
  6
CONTINUOUS
 62
     7
100
AcDbLine
 10
329.0639503121
 20
270.7787719857
 30
0.0
 11
262.8766132712
 21
270.7787719857
 31
0.0
  0
ARC
  5
1B7
330
1F
100
AcDbEntity
  8
0
  6
CONTINUOUS
 62
     7
100
AcDbCircle
 10
195.060867991
 20
214.7787704148
 30
0.0
 40
48.00000000000006
100
AcDbArc
 50
90.0
 51
104.0346479352
  0
LINE
  5
1B8
330
1F
100
AcDbEntity
  8
0
  6
CONTINUOUS
 62
     7
100
AcDbLine
 10
261.2481994748
 20
270.7787719857
 30
0.0
 11
195.0608698845
 21
270.7787719857
 31
0.0
  0
ARC
  5
1B9
330
1F
100
AcDbEntity
  8
0
  6
CONTINUOUS
 62
     7
100
AcDbCircle
 10
329.0639450961
 20
214.7787704148
 30
0.0
 40
48.00000000000006
100
AcDbArc
 50
75.9653520648
 51
90.0
  0
CIRCLE
  5
1BA
330
1F
100
AcDbEntity
  8
0
  6
CONTINUOUS
 62
     7
100
AcDbCircle
 10
182.0624065436
 20
266.7787704148
 30
0.0
 40
2.498076211353322
  0
CIRCLE
  5
1BB
330
1F
100
AcDbEntity
  8
0
  6
CONTINUOUS
 62
     7
100
AcDbCircle
 10
342.0624065436
 20
266.7787704148
 30
0.0
 40
2.49807621135335
  0
ARC
  5
1BC
330
1F
100
AcDbEntity
  8
0
  6
CONTINUOUS
 62
     7
100
AcDbCircle
 10
262.8766201059
 20
271.7787704148
 30
0.0
 40
1.0
100
AcDbArc
 50
225.0
 51
270.0
  0
LINE
  5
1BD
330
1F
100
AcDbEntity
  8
0
  6
CONTINUOUS
 62
     7
100
AcDbLine
 10
262.1695084691
 20
271.0716617595
 30
0.0
 11
262.0624138236
 21
271.1787713062
 31
0.0
  0
LINE
  5
1BE
330
1F
100
AcDbEntity
  8
0
  6
CONTINUOUS
 62
     7
100
AcDbLine
 10
262.0624138236
 20
271.1787713062
 30
0.0
 11
261.9553042769
 21
271.0716617595
 31
0.0
  0
ARC
  5
1BF
330
1F
100
AcDbEntity
  8
0
  6
CONTINUOUS
 62
     7
100
AcDbCircle
 10
261.2481929812
 20
271.7787704148
 30
0.0
 40
1.000000000000008
100
AcDbArc
 50
270.0
 51
315.0
  0
ARC
  5
1C0
330
1F
100
AcDbEntity
  8
0
  6
CONTINUOUS
 62
     7
100
AcDbCircle
 10
262.8766201059
 20
261.7787704148
 30
0.0
 40
1.0
100
AcDbArc
 50
90.0
 51
135.0
  0
ARC
  5
1C1
330
1F
100
AcDbEntity
  8
0
  6
CONTINUOUS
 62
     7
100
AcDbCircle
 10
261.2481929812
 20
261.7787704148
 30
0.0
 40
1.0
100
AcDbArc
 50
45.0
 51
90.0
  0
LINE
  5
1C2
330
1F
100
AcDbEntity
  8
0
  6
CONTINUOUS
 62
     7
100
AcDbLine
 10
261.9553042769
 20
262.4858809005
 30
0.0
 11
262.0624138236
 21
262.3787713538
 31
0.0
  0
LINE
  5
1C3
330
1F
100
AcDbEntity
  8
0
  6
CONTINUOUS
 62
     7
100
AcDbLine
 10
262.0624138236
 20
262.3787713538
 30
0.0
 11
262.1695084691
 21
262.4858809005
 31
0.0
  0
ARC
  5
1C4
330
1F
100
AcDbEntity
  8
0
  6
CONTINUOUS
 62
     7
100
AcDbCircle
 10
195.060867991
 20
318.7787704148
 30
0.0
 40
48.00000000000003
100
AcDbArc
 50
255.9653520648
 51
270.0
  0
ARC
  5
1C5
330
1F
100
AcDbEntity
  8
0
  6
CONTINUOUS
 62
     7
100
AcDbCircle
 10
329.0639450961
 20
318.7787704148
 30
0.0
 40
48.00000000000004
100
AcDbArc
 50
270.0
 51
284.0346479352
  0
CIRCLE
  5
1C6
330
1F
100
AcDbEntity
  8
0
  6
CONTINUOUS
 62
     7
100
AcDbCircle
 10
326.0624065436
 20
266.7787704148
 30
0.0
 40
1.549999999999955
  0
LINE
  5
1C7
330
1F
100
AcDbEntity
  8
0
  6
CONTINUOUS
 62
     7
100
AcDbLine
 10
328.2615823865
 20
350.7582289468
 30
0.0
 11
262.0742453456
 21
350.7582289468
 31
0.0
  0
LINE
  5
1C8
330
1F
100
AcDbEntity
  8
0
  6
CONTINUOUS
 62
     7
100
AcDbLine
 10
262.0742453456
 20
342.7582276355
 30
0.0
 11
328.2615823865
 21
342.7582276355
 31
0.0
  0
ARC
  5
1C9
330
1F
100
AcDbEntity
  8
0
  6
CONTINUOUS
 62
     7
100
AcDbCircle
 10
328.261575229
 20
398.7582260226
 30
0.0
 40
47.99999999999998
100
AcDbArc
 50
270.0
 51
284.0346479352
  0
ARC
  5
1CA
330
1F
100
AcDbEntity
  8
0
  6
CONTINUOUS
 62
     7
100
AcDbCircle
 10
341.2600366764
 20
346.7582260226
 30
0.0
 40
5.600000000000022
100
AcDbArc
 50
255.9653520648
 51
104.0346479352
  0
CIRCLE
  5
1CB
330
1F
100
AcDbEntity
  8
0
  6
CONTINUOUS
 62
     7
100
AcDbCircle
 10
181.2600366764
 20
346.7582260226
 30
0.0
 40
2.498076211353322
  0
CIRCLE
  5
1CC
330
1F
100
AcDbEntity
  8
0
  6
CONTINUOUS
 62
     7
100
AcDbCircle
 10
341.2600366764
 20
346.7582260226
 30
0.0
 40
2.49807621135335
  0
CIRCLE
  5
1CD
330
1F
100
AcDbEntity
  8
0
  6
CONTINUOUS
 62
     7
100
AcDbCircle
 10
325.2600366764
 20
346.7582260226
 30
0.0
 40
1.549999999999955
  0
CIRCLE
  5
1CE
330
1F
100
AcDbEntity
  8
0
  6
CONTINUOUS
 62
     7
100
AcDbCircle
 10
197.2600366764
 20
346.7582260226
 30
0.0
 40
1.549999999999983
  0
LINE
  5
1CF
330
1F
100
AcDbEntity
  8
0
  6
CONTINUOUS
 62
     7
100
AcDbLine
 10
194.2584945083
 20
342.7582276355
 30
0.0
 11
260.445816648
 21
342.7582276355
 31
0.0
  0
ARC
  5
1D0
330
1F
100
AcDbEntity
  8
0
  6
CONTINUOUS
 62
     7
100
AcDbCircle
 10
181.2600366764
 20
346.7582260226
 30
0.0
 40
5.600000000000022
100
AcDbArc
 50
75.9653520648
 51
284.0346479352
  0
LINE
  5
1D1
330
1F
100
AcDbEntity
  8
0
  6
CONTINUOUS
 62
     7
100
AcDbLine
 10
260.445816648
 20
350.7582289468
 30
0.0
 11
194.2584945083
 21
350.7582289468
 31
0.0
  0
ARC
  5
1D2
330
1F
100
AcDbEntity
  8
0
  6
CONTINUOUS
 62
     7
100
AcDbCircle
 10
262.0742502387
 20
341.7582260226
 30
0.0
 40
1.0
100
AcDbArc
 50
90.0
 51
135.0
  0
ARC
  5
1D3
330
1F
100
AcDbEntity
  8
0
  6
CONTINUOUS
 62
     7
100
AcDbCircle
 10
260.445823114
 20
341.7582260226
 30
0.0
 40
1.000000000000008
100
AcDbArc
 50
45.0
 51
90.0
  0
LINE
  5
1D4
330
1F
100
AcDbEntity
  8
0
  6
CONTINUOUS
 62
     7
100
AcDbLine
 10
261.1529363513
 20
342.4653304111
 30
0.0
 11
261.2600309968
 21
342.3582208644
 31
0.0
  0
LINE
  5
1D5
330
1F
100
AcDbEntity
  8
0
  6
CONTINUOUS
 62
     7
100
AcDbLine
 10
261.2600309968
 20
342.3582208644
 30
0.0
 11
261.3671405434
 21
342.4653304111
 31
0.0
  0
ARC
  5
1D6
330
1F
100
AcDbEntity
  8
0
  6
CONTINUOUS
 62
     7
100
AcDbCircle
 10
194.2584981238
 20
398.7582260226
 30
0.0
 40
47.99999999999998
100
AcDbArc
 50
255.9653520648
 51
270.0
  0
ARC
  5
1D7
330
1F
100
AcDbEntity
  8
0
  6
CONTINUOUS
 62
     7
100
AcDbCircle
 10
194.2584981238
 20
294.7582260226
 30
0.0
 40
48.00000000000006
100
AcDbArc
 50
90.0
 51
104.0346479352
  0
ARC
  5
1D8
330
1F
100
AcDbEntity
  8
0
  6
CONTINUOUS
 62
     7
100
AcDbCircle
 10
328.261575229
 20
294.7582260226
 30
0.0
 40
48.00000000000006
100
AcDbArc
 50
75.9653520648
 51
90.0
  0
ARC
  5
1D9
330
1F
100
AcDbEntity
  8
0
  6
CONTINUOUS
 62
     7
100
AcDbCircle
 10
262.0742502387
 20
351.7582260226
 30
0.0
 40
1.000000000000048
100
AcDbArc
 50
225.0
 51
270.0
  0
LINE
  5
1DA
330
1F
100
AcDbEntity
  8
0
  6
CONTINUOUS
 62
     7
100
AcDbLine
 10
261.3671405434
 20
351.0511261712
 30
0.0
 11
261.2600309968
 21
351.1582208167
 31
0.0
  0
LINE
  5
1DB
330
1F
100
AcDbEntity
  8
0
  6
CONTINUOUS
 62
     7
100
AcDbLine
 10
261.2600309968
 20
351.1582208167
 30
0.0
 11
261.1529363513
 21
351.0511261712
 31
0.0
  0
ARC
  5
1DC
330
1F
100
AcDbEntity
  8
0
  6
CONTINUOUS
 62
     7
100
AcDbCircle
 10
260.445823114
 20
351.7582260226
 30
0.0
 40
1.000000000000088
100
AcDbArc
 50
270.0
 51
315.0
  0
CIRCLE
  5
1DD
330
1F
100
AcDbEntity
  8
0
  6
CONTINUOUS
 62
     7
100
AcDbCircle
 10
325.8974574883
 20
327.3770762069
 30
0.0
 40
1.549999999999955
  0
LINE
  5
1DE
330
1F
100
AcDbEntity
  8
0
  6
CONTINUOUS
 62
     7
100
AcDbLine
 10
328.8989944577
 20
331.3770783435
 30
0.0
 11
262.711672318
 21
331.3770783435
 31
0.0
  0
LINE
  5
1DF
330
1F
100
AcDbEntity
  8
0
  6
CONTINUOUS
 62
     7
100
AcDbLine
 10
262.711672318
 20
323.3770770322
 30
0.0
 11
328.8989944577
 21
323.3770770322
 31
0.0
  0
ARC
  5
1E0
330
1F
100
AcDbEntity
  8
0
  6
CONTINUOUS
 62
     7
100
AcDbCircle
 10
181.8974574883
 20
327.3770762069
 30
0.0
 40
5.600000000000029
100
AcDbArc
 50
75.9653520648
 51
284.0346479352
  0
CIRCLE
  5
1E1
330
1F
100
AcDbEntity
  8
0
  6
CONTINUOUS
 62
     7
100
AcDbCircle
 10
197.8974574883
 20
327.3770762069
 30
0.0
 40
1.550000000000011
  0
LINE
  5
1E2
330
1F
100
AcDbEntity
  8
0
  6
CONTINUOUS
 62
     7
100
AcDbLine
 10
194.8959214806
 20
323.3770770322
 30
0.0
 11
261.0832436204
 21
323.3770770322
 31
0.0
  0
ARC
  5
1E3
330
1F
100
AcDbEntity
  8
0
  6
CONTINUOUS
 62
     7
100
AcDbCircle
 10
261.083243926
 20
322.3770762069
 30
0.0
 40
1.000000000000048
100
AcDbArc
 50
45.0
 51
90.0
  0
LINE
  5
1E4
330
1F
100
AcDbEntity
  8
0
  6
CONTINUOUS
 62
     7
100
AcDbLine
 10
261.7903484225
 20
323.0841798078
 30
0.0
 11
261.8974579692
 21
322.9770702611
 31
0.0
  0
LINE
  5
1E5
330
1F
100
AcDbEntity
  8
0
  6
CONTINUOUS
 62
     7
100
AcDbLine
 10
261.8974579692
 20
322.9770702611
 30
0.0
 11
262.0045675158
 21
323.0841798078
 31
0.0
  0
ARC
  5
1E6
330
1F
100
AcDbEntity
  8
0
  6
CONTINUOUS
 62
     7
100
AcDbCircle
 10
194.8959189357
 20
379.3770762069
 30
0.0
 40
48.00000000000002
100
AcDbArc
 50
255.9653520648
 51
270.0
  0
ARC
  5
1E7
330
1F
100
AcDbEntity
  8
0
  6
CONTINUOUS
 62
     7
100
AcDbCircle
 10
194.8959189357
 20
275.3770762069
 30
0.0
 40
48.00000000000002
100
AcDbArc
 50
90.0
 51
104.0346479352
  0
LINE
  5
1E8
330
1F
100
AcDbEntity
  8
0
  6
CONTINUOUS
 62
     7
100
AcDbLine
 10
261.0832436204
 20
331.3770783435
 30
0.0
 11
194.8959214806
 21
331.3770783435
 31
0.0
  0
ARC
  5
1E9
330
1F
100
AcDbEntity
  8
0
  6
CONTINUOUS
 62
     7
100
AcDbCircle
 10
341.8974574883
 20
327.3770762069
 30
0.0
 40
5.600000000000036
100
AcDbArc
 50
255.9653520648
 51
104.0346479352
  0
CIRCLE
  5
1EA
330
1F
100
AcDbEntity
  8
0
  6
CONTINUOUS
 62
     7
100
AcDbCircle
 10
181.8974574883
 20
327.3770762069
 30
0.0
 40
2.498076211353293
  0
CIRCLE
  5
1EB
330
1F
100
AcDbEntity
  8
0
  6
CONTINUOUS
 62
     7
100
AcDbCircle
 10
341.8974574883
 20
327.3770762069
 30
0.0
 40
2.498076211353293
  0
LINE
  5
1EC
330
1F
100
AcDbEntity
  8
0
  6
CONTINUOUS
 62
     7
100
AcDbLine
 10
261.8974579692
 20
331.7770702134
 30
0.0
 11
261.7903484225
 21
331.6699755679
 31
0.0
  0
ARC
  5
1ED
330
1F
100
AcDbEntity
  8
0
  6
CONTINUOUS
 62
     7
100
AcDbCircle
 10
262.7116710507
 20
332.3770762069
 30
0.0
 40
1.000000000000008
100
AcDbArc
 50
225.0
 51
270.0
  0
LINE
  5
1EE
330
1F
100
AcDbEntity
  8
0
  6
CONTINUOUS
 62
     7
100
AcDbLine
 10
262.0045675158
 20
331.6699755679
 30
0.0
 11
261.8974579692
 21
331.7770702134
 31
0.0
  0
ARC
  5
1EF
330
1F
100
AcDbEntity
  8
0
  6
CONTINUOUS
 62
     7
100
AcDbCircle
 10
328.8989960409
 20
379.3770762069
 30
0.0
 40
48.00000000000001
100
AcDbArc
 50
270.0
 51
284.0346479352
  0
ARC
  5
1F0
330
1F
100
AcDbEntity
  8
0
  6
CONTINUOUS
 62
     7
100
AcDbCircle
 10
261.083243926
 20
332.3770762069
 30
0.0
 40
1.000000000000008
100
AcDbArc
 50
270.0
 51
315.0
  0
ARC
  5
1F1
330
1F
100
AcDbEntity
  8
0
  6
CONTINUOUS
 62
     7
100
AcDbCircle
 10
262.7116710507
 20
322.3770762069
 30
0.0
 40
1.000000000000048
100
AcDbArc
 50
90.0
 51
135.0
  0
ARC
  5
1F2
330
1F
100
AcDbEntity
  8
0
  6
CONTINUOUS
 62
     7
100
AcDbCircle
 10
328.8989960409
 20
275.3770762069
 30
0.0
 40
48.00000000000001
100
AcDbArc
 50
75.9653520648
 51
90.0
  0
CIRCLE
  5
1F3
330
1F
100
AcDbEntity
  8
0
  6
CONTINUOUS
 62
     7
100
AcDbCircle
 10
197.2072559447
 20
308.5204608119
 30
0.0
 40
1.549999999999983
  0
ARC
  5
1F4
330
1F
100
AcDbEntity
  8
0
  6
CONTINUOUS
 62
     7
100
AcDbCircle
 10
181.2072559447
 20
308.5204608119
 30
0.0
 40
5.600000000000029
100
AcDbArc
 50
75.9653520648
 51
284.0346479352
  0
LINE
  5
1F5
330
1F
100
AcDbEntity
  8
0
  6
CONTINUOUS
 62
     7
100
AcDbLine
 10
260.393036735
 20
312.5204635154
 30
0.0
 11
194.2057145953
 21
312.5204635154
 31
0.0
  0
ARC
  5
1F6
330
1F
100
AcDbEntity
  8
0
  6
CONTINUOUS
 62
     7
100
AcDbCircle
 10
341.2072559447
 20
308.5204608119
 30
0.0
 40
5.600000000000036
100
AcDbArc
 50
255.9653520648
 51
104.0346479352
  0
LINE
  5
1F7
330
1F
100
AcDbEntity
  8
0
  6
CONTINUOUS
 62
     7
100
AcDbLine
 10
194.2057145953
 20
304.5204622041
 30
0.0
 11
260.393036735
 21
304.5204622041
 31
0.0
  0
LINE
  5
1F8
330
1F
100
AcDbEntity
  8
0
  6
CONTINUOUS
 62
     7
100
AcDbLine
 10
262.0214654326
 20
304.5204622041
 30
0.0
 11
328.2087875724
 21
304.5204622041
 31
0.0
  0
LINE
  5
1F9
330
1F
100
AcDbEntity
  8
0
  6
CONTINUOUS
 62
     7
100
AcDbLine
 10
328.2087875724
 20
312.5204635154
 30
0.0
 11
262.0214654326
 21
312.5204635154
 31
0.0
  0
ARC
  5
1FA
330
1F
100
AcDbEntity
  8
0
  6
CONTINUOUS
 62
     7
100
AcDbCircle
 10
328.2087944972
 20
360.5204608119
 30
0.0
 40
47.99999999999998
100
AcDbArc
 50
270.0
 51
284.0346479352
  0
ARC
  5
1FB
330
1F
100
AcDbEntity
  8
0
  6
CONTINUOUS
 62
     7
100
AcDbCircle
 10
328.2087944972
 20
256.5204608119
 30
0.0
 40
48.0
100
AcDbArc
 50
75.9653520648
 51
90.0
  0
CIRCLE
  5
1FC
330
1F
100
AcDbEntity
  8
0
  6
CONTINUOUS
 62
     7
100
AcDbCircle
 10
181.2072559447
 20
308.5204608119
 30
0.0
 40
2.49807621135335
  0
CIRCLE
  5
1FD
330
1F
100
AcDbEntity
  8
0
  6
CONTINUOUS
 62
     7
100
AcDbCircle
 10
341.2072559447
 20
308.5204608119
 30
0.0
 40
2.49807621135335
  0
CIRCLE
  5
1FE
330
1F
100
AcDbEntity
  8
0
  6
CONTINUOUS
 62
     7
100
AcDbCircle
 10
325.2072559447
 20
308.5204608119
 30
0.0
 40
1.550000000000011
  0
ARC
  5
1FF
330
1F
100
AcDbEntity
  8
0
  6
CONTINUOUS
 62
     7
100
AcDbCircle
 10
262.021469507
 20
313.5204608119
 30
0.0
 40
1.000000000000048
100
AcDbArc
 50
225.0
 51
270.0
  0
LINE
  5
200
330
1F
100
AcDbEntity
  8
0
  6
CONTINUOUS
 62
     7
100
AcDbLine
 10
261.3143606305
 20
312.8133532893
 30
0.0
 11
261.2072510838
 21
312.9204628359
 31
0.0
  0
LINE
  5
201
330
1F
100
AcDbEntity
  8
0
  6
CONTINUOUS
 62
     7
100
AcDbLine
 10
261.2072510838
 20
312.9204628359
 30
0.0
 11
261.1001564383
 21
312.8133532893
 31
0.0
  0
ARC
  5
202
330
1F
100
AcDbEntity
  8
0
  6
CONTINUOUS
 62
     7
100
AcDbCircle
 10
260.3930423823
 20
313.5204608119
 30
0.0
 40
1.000000000000008
100
AcDbArc
 50
270.0
 51
315.0
  0
ARC
  5
203
330
1F
100
AcDbEntity
  8
0
  6
CONTINUOUS
 62
     7
100
AcDbCircle
 10
262.021469507
 20
303.5204608119
 30
0.0
 40
1.0
100
AcDbArc
 50
90.0
 51
135.0
  0
ARC
  5
204
330
1F
100
AcDbEntity
  8
0
  6
CONTINUOUS
 62
     7
100
AcDbCircle
 10
260.3930423823
 20
303.5204608119
 30
0.0
 40
1.0
100
AcDbArc
 50
45.0
 51
90.0
  0
LINE
  5
205
330
1F
100
AcDbEntity
  8
0
  6
CONTINUOUS
 62
     7
100
AcDbLine
 10
261.1001564383
 20
304.2275649797
 30
0.0
 11
261.2072510838
 21
304.1204628836
 31
0.0
  0
LINE
  5
206
330
1F
100
AcDbEntity
  8
0
  6
CONTINUOUS
 62
     7
100
AcDbLine
 10
261.2072510838
 20
304.1204628836
 30
0.0
 11
261.3143606305
 21
304.2275649797
 31
0.0
  0
ARC
  5
207
330
1F
100
AcDbEntity
  8
0
  6
CONTINUOUS
 62
     7
100
AcDbCircle
 10
194.2057173921
 20
360.5204608119
 30
0.0
 40
47.99999999999998
100
AcDbArc
 50
255.9653520648
 51
270.0
  0
ARC
  5
208
330
1F
100
AcDbEntity
  8
0
  6
CONTINUOUS
 62
     7
100
AcDbCircle
 10
194.2057173921
 20
256.5204608119
 30
0.0
 40
48.0
100
AcDbArc
 50
90.0
 51
104.0346479352
  0
CIRCLE
  5
209
330
1F
100
AcDbEntity
  8
0
  6
CONTINUOUS
 62
     7
100
AcDbCircle
 10
341.5527793607
 20
289.0944437366
 30
0.0
 40
2.49807621135335
  0
CIRCLE
  5
20A
330
1F
100
AcDbEntity
  8
0
  6
CONTINUOUS
 62
     7
100
AcDbCircle
 10
325.5527793607
 20
289.0944437366
 30
0.0
 40
1.550000000000011
  0
CIRCLE
  5
20B
330
1F
100
AcDbEntity
  8
0
  6
CONTINUOUS
 62
     7
100
AcDbCircle
 10
197.5527793607
 20
289.0944437366
 30
0.0
 40
1.549999999999983
  0
CIRCLE
  5
20C
330
1F
100
AcDbEntity
  8
0
  6
CONTINUOUS
 62
     7
100
AcDbCircle
 10
181.5527793607
 20
289.0944437366
 30
0.0
 40
2.49807621135335
  0
ARC
  5
20D
330
1F
100
AcDbEntity
  8
0
  6
CONTINUOUS
 62
     7
100
AcDbCircle
 10
194.5512408081
 20
237.0944437366
 30
0.0
 40
48.00000000000005
100
AcDbArc
 50
90.0
 51
104.0346479352
  0
ARC
  5
20E
330
1F
100
AcDbEntity
  8
0
  6
CONTINUOUS
 62
     7
100
AcDbCircle
 10
181.5527793607
 20
289.0944437366
 30
0.0
 40
5.600000000000029
100
AcDbArc
 50
75.9653520648
 51
284.0346479352
  0
ARC
  5
20F
330
1F
100
AcDbEntity
  8
0
  6
CONTINUOUS
 62
     7
100
AcDbCircle
 10
194.5512408081
 20
341.0944437366
 30
0.0
 40
47.99999999999997
100
AcDbArc
 50
255.9653520648
 51
270.0
  0
LINE
  5
210
330
1F
100
AcDbEntity
  8
0
  6
CONTINUOUS
 62
     7
100
AcDbLine
 10
260.7385648608
 20
293.0944455158
 30
0.0
 11
194.5512427211
 21
293.0944455158
 31
0.0
  0
ARC
  5
211
330
1F
100
AcDbEntity
  8
0
  6
CONTINUOUS
 62
     7
100
AcDbCircle
 10
328.5543179132
 20
341.0944437366
 30
0.0
 40
47.99999999999998
100
AcDbArc
 50
270.0
 51
284.0346479352
  0
ARC
  5
212
330
1F
100
AcDbEntity
  8
0
  6
CONTINUOUS
 62
     7
100
AcDbCircle
 10
341.5527793607
 20
289.0944437366
 30
0.0
 40
5.600000000000036
100
AcDbArc
 50
255.9653520648
 51
104.0346479352
  0
LINE
  5
213
330
1F
100
AcDbEntity
  8
0
  6
CONTINUOUS
 62
     7
100
AcDbLine
 10
261.5527792096
 20
284.694444884
 30
0.0
 11
261.6598887563
 21
284.80154698
 31
0.0
  0
LINE
  5
214
330
1F
100
AcDbEntity
  8
0
  6
CONTINUOUS
 62
     7
100
AcDbLine
 10
261.4456696629
 20
284.80154698
 30
0.0
 11
261.5527792096
 21
284.694444884
 31
0.0
  0
ARC
  5
215
330
1F
100
AcDbEntity
  8
0
  6
CONTINUOUS
 62
     7
100
AcDbCircle
 10
260.7385657983
 20
284.0944437366
 30
0.0
 40
1.000000000000008
100
AcDbArc
 50
45.0
 51
90.0
  0
LINE
  5
216
330
1F
100
AcDbEntity
  8
0
  6
CONTINUOUS
 62
     7
100
AcDbLine
 10
194.5512427211
 20
285.0944442045
 30
0.0
 11
260.7385648608
 21
285.0944442045
 31
0.0
  0
LINE
  5
217
330
1F
100
AcDbEntity
  8
0
  6
CONTINUOUS
 62
     7
100
AcDbLine
 10
262.3669935584
 20
285.0944442045
 30
0.0
 11
328.5543156981
 21
285.0944442045
 31
0.0
  0
LINE
  5
218
330
1F
100
AcDbEntity
  8
0
  6
CONTINUOUS
 62
     7
100
AcDbLine
 10
328.5543156981
 20
293.0944455158
 30
0.0
 11
262.3669935584
 21
293.0944455158
 31
0.0
  0
LINE
  5
219
330
1F
100
AcDbEntity
  8
0
  6
CONTINUOUS
 62
     7
100
AcDbLine
 10
261.5527792096
 20
293.4944448363
 30
0.0
 11
261.4456696629
 21
293.3873352896
 31
0.0
  0
ARC
  5
21A
330
1F
100
AcDbEntity
  8
0
  6
CONTINUOUS
 62
     7
100
AcDbCircle
 10
328.5543179132
 20
237.0944437366
 30
0.0
 40
48.00000000000006
100
AcDbArc
 50
75.9653520648
 51
90.0
  0
ARC
  5
21B
330
1F
100
AcDbEntity
  8
0
  6
CONTINUOUS
 62
     7
100
AcDbCircle
 10
262.366992923
 20
284.0944437366
 30
0.0
 40
1.000000000000048
100
AcDbArc
 50
90.0
 51
135.0
  0
LINE
  5
21C
330
1F
100
AcDbEntity
  8
0
  6
CONTINUOUS
 62
     7
100
AcDbLine
 10
261.6598887563
 20
293.3873352896
 30
0.0
 11
261.5527792096
 21
293.4944448363
 31
0.0
  0
ARC
  5
21D
330
1F
100
AcDbEntity
  8
0
  6
CONTINUOUS
 62
     7
100
AcDbCircle
 10
262.366992923
 20
294.0944437366
 30
0.0
 40
1.000000000000008
100
AcDbArc
 50
225.0
 51
270.0
  0
ARC
  5
21E
330
1F
100
AcDbEntity
  8
0
  6
CONTINUOUS
 62
     7
100
AcDbCircle
 10
260.7385657983
 20
294.0944437366
 30
0.0
 40
1.0
100
AcDbArc
 50
270.0
 51
315.0
  0
LINE
  5
21F
330
1F
100
AcDbEntity
  8
0
  6
CONTINUOUS
 62
     7
100
AcDbLine
 10
327.9369158864
 20
251.0337499272
 30
0.0
 11
261.7495937466
 21
251.0337499272
 31
0.0
  0
LINE
  5
220
330
1F
100
AcDbEntity
  8
0
  6
CONTINUOUS
 62
     7
100
AcDbLine
 10
261.7495937466
 20
243.0337523412
 30
0.0
 11
327.9369158864
 21
243.0337523412
 31
0.0
  0
ARC
  5
221
330
1F
100
AcDbEntity
  8
0
  6
CONTINUOUS
 62
     7
100
AcDbCircle
 10
340.9353835707
 20
247.0337511286
 30
0.0
 40
5.600000000000036
100
AcDbArc
 50
255.9653520648
 51
104.0346479352
  0
LINE
  5
222
330
1F
100
AcDbEntity
  8
0
  6
CONTINUOUS
 62
     7
100
AcDbLine
 10
261.0424889445
 20
251.3266434263
 30
0.0
 11
260.9353793979
 21
251.433752973
 31
0.0
  0
LINE
  5
223
330
1F
100
AcDbEntity
  8
0
  6
CONTINUOUS
 62
     7
100
AcDbLine
 10
260.9353793979
 20
251.433752973
 30
0.0
 11
260.8282698512
 21
251.3266434263
 31
0.0
  0
ARC
  5
224
330
1F
100
AcDbEntity
  8
0
  6
CONTINUOUS
 62
     7
100
AcDbCircle
 10
261.7495971331
 20
252.0337511286
 30
0.0
 40
1.000000000000068
100
AcDbArc
 50
225.0
 51
270.0
  0
ARC
  5
225
330
1F
100
AcDbEntity
  8
0
  6
CONTINUOUS
 62
     7
100
AcDbCircle
 10
261.7495971331
 20
242.0337511286
 30
0.0
 40
1.000000000000028
100
AcDbArc
 50
90.0
 51
135.0
  0
ARC
  5
226
330
1F
100
AcDbEntity
  8
0
  6
CONTINUOUS
 62
     7
100
AcDbCircle
 10
260.1211700083
 20
242.0337511286
 30
0.0
 40
1.0
100
AcDbArc
 50
45.0
 51
90.0
  0
LINE
  5
227
330
1F
100
AcDbEntity
  8
0
  6
CONTINUOUS
 62
     7
100
AcDbLine
 10
260.8282698512
 20
242.740858842
 30
0.0
 11
260.9353793979
 21
242.6337492954
 31
0.0
  0
LINE
  5
228
330
1F
100
AcDbEntity
  8
0
  6
CONTINUOUS
 62
     7
100
AcDbLine
 10
260.9353793979
 20
242.6337492954
 30
0.0
 11
261.0424889445
 21
242.740858842
 31
0.0
  0
ARC
  5
229
330
1F
100
AcDbEntity
  8
0
  6
CONTINUOUS
 62
     7
100
AcDbCircle
 10
193.9338450181
 20
299.0337511286
 30
0.0
 40
48.0
100
AcDbArc
 50
255.9653520648
 51
270.0
  0
ARC
  5
22A
330
1F
100
AcDbEntity
  8
0
  6
CONTINUOUS
 62
     7
100
AcDbCircle
 10
193.9338450181
 20
195.0337511286
 30
0.0
 40
48.0
100
AcDbArc
 50
90.0
 51
104.0346479352
  0
ARC
  5
22B
330
1F
100
AcDbEntity
  8
0
  6
CONTINUOUS
 62
     7
100
AcDbCircle
 10
260.1211700083
 20
252.0337511286
 30
0.0
 40
1.0
100
AcDbArc
 50
270.0
 51
315.0
  0
ARC
  5
22C
330
1F
100
AcDbEntity
  8
0
  6
CONTINUOUS
 62
     7
100
AcDbCircle
 10
327.9369221233
 20
195.0337511286
 30
0.0
 40
48.0
100
AcDbArc
 50
75.9653520648
 51
90.0
  0
CIRCLE
  5
22D
330
1F
100
AcDbEntity
  8
0
  6
CONTINUOUS
 62
     7
100
AcDbCircle
 10
180.9353835707
 20
247.0337511286
 30
0.0
 40
2.498076211353293
  0
CIRCLE
  5
22E
330
1F
100
AcDbEntity
  8
0
  6
CONTINUOUS
 62
     7
100
AcDbCircle
 10
340.9353835707
 20
247.0337511286
 30
0.0
 40
2.498076211353293
  0
CIRCLE
  5
22F
330
1F
100
AcDbEntity
  8
0
  6
CONTINUOUS
 62
     7
100
AcDbCircle
 10
324.9353835707
 20
247.0337511286
 30
0.0
 40
1.550000000000068
  0
CIRCLE
  5
230
330
1F
100
AcDbEntity
  8
0
  6
CONTINUOUS
 62
     7
100
AcDbCircle
 10
196.9353835707
 20
247.0337511286
 30
0.0
 40
1.55000000000004
  0
LINE
  5
231
330
1F
100
AcDbEntity
  8
0
  6
CONTINUOUS
 62
     7
100
AcDbLine
 10
193.9338429093
 20
243.0337523412
 30
0.0
 11
260.1211650491
 21
243.0337523412
 31
0.0
  0
ARC
  5
232
330
1F
100
AcDbEntity
  8
0
  6
CONTINUOUS
 62
     7
100
AcDbCircle
 10
180.9353835707
 20
247.0337511286
 30
0.0
 40
5.600000000000022
100
AcDbArc
 50
75.9653520648
 51
284.0346479352
  0
LINE
  5
233
330
1F
100
AcDbEntity
  8
0
  6
CONTINUOUS
 62
     7
100
AcDbLine
 10
260.1211650491
 20
251.0337499272
 30
0.0
 11
193.9338429093
 21
251.0337499272
 31
0.0
  0
ARC
  5
234
330
1F
100
AcDbEntity
  8
0
  6
CONTINUOUS
 62
     7
100
AcDbCircle
 10
327.9369221233
 20
299.0337511286
 30
0.0
 40
47.99999999999999
100
AcDbArc
 50
270.0
 51
284.0346479352
  0
ENDSEC
  0
SECTION
  2
OBJECTS
  0
DICTIONARY
  5
C
330
0
100
AcDbDictionary
  3
ACAD_GROUP
350
D
  3
ACAD_MLINESTYLE
350
17
  3
ACAD_SCALELIST
350
47
  0
DICTIONARY
  5
D
102
{ACAD_REACTORS
330
C
102
}
330
C
100
AcDbDictionary
  0
DICTIONARY
  5
17
102
{ACAD_REACTORS
330
C
102
}
330
C
100
AcDbDictionary
  3
STANDARD
350
18
  0
DICTIONARY
  5
47
102
{ACAD_REACTORS
330
C
102
}
330
C
100
AcDbDictionary
  0
MLINESTYLE
  5
18
102
{ACAD_REACTORS
330
17
102
}
330
17
100
AcDbMlineStyle
  2
Standard
 70
     0
  3

 62
   256
 51
90.0
 52
90.0
 71
     2
 49
0.5
 62
   256
  6
BYLAYER
 49
-0.5
 62
   256
  6
BYLAYER
  0
ENDSEC
  0
EOF
