  0
SECTION
  2
HEADER
  9
$ACADVER
  1
AC1014
  9
$ACADMAINTVER
 70
     9
  9
$DWGCODEPAGE
  3
ANSI_1252
  9
$INSBASE
 10
0.0
 20
0.0
 30
0.0
  9
$EXTMIN
 10
0.0
 20
0.0
 30
0.0
  9
$EXTMAX
 10
550.0
 20
400.0
 30
0.0
  9
$LIMMIN
 10
0.0
 20
0.0
  9
$LIMMAX
 10
550.0
 20
400.0
  9
$ORTHOMODE
 70
     0
  9
$REGENMODE
 70
     1
  9
$FILLMODE
 70
     1
  9
$QTEXTMODE
 70
     0
  9
$MIRRTEXT
 70
     1
  9
$DRAGMODE
 70
     2
  9
$LTSCALE
 40
1.0
  9
$OSMODE
 70
    37
  9
$ATTMODE
 70
     1
  9
$TEXTSIZE
 40
3.5
  9
$TRACEWID
 40
1.0
  9
$TEXTSTYLE
  7
STANDARD
  9
$CLAYER
  8
0
  9
$CELTYPE
  6
BYLAYER
  9
$CECOLOR
 62
   256
  9
$CELTSCALE
 40
1.0
  9
$DELOBJ
 70
     1
  9
$DISPSILH
 70
     0
  9
$DIMSCALE
 40
1.0
  9
$DIMASZ
 40
3.302
  9
$DIMEXO
 40
1.0
  9
$DIMDLI
 40
3.75
  9
$DIMRND
 40
0.0
  9
$DIMDLE
 40
0.0
  9
$DIMEXE
 40
1.0
  9
$DIMTP
 40
0.0
  9
$DIMTM
 40
0.0
  9
$DIMTXT
 40
3.5
  9
$DIMCEN
 40
2.5
  9
$DIMTSZ
 40
0.0
  9
$DIMTOL
 70
     0
  9
$DIMLIM
 70
     0
  9
$DIMTIH
 70
     1
  9
$DIMTOH
 70
     1
  9
$DIMSE1
 70
     0
  9
$DIMSE2
 70
     0
  9
$DIMTAD
 70
     1
  9
$DIMZIN
 70
     0
  9
$DIMBLK
  1

  9
$DIMASO
 70
     1
  9
$DIMSHO
 70
     1
  9
$DIMPOST
  1

  9
$DIMAPOST
  1

  9
$DIMALT
 70
     0
  9
$DIMALTD
 70
     3
  9
$DIMALTF
 40
0.0393700787
  9
$DIMLFAC
 40
1.0
  9
$DIMTOFL
 70
     1
  9
$DIMTVP
 40
0.0
  9
$DIMTIX
 70
     0
  9
$DIMSOXD
 70
     0
  9
$DIMSAH
 70
     0
  9
$DIMBLK1
  1

  9
$DIMBLK2
  1

  9
$DIMSTYLE
  2
ISO-25
  9
$DIMCLRD
 70
     0
  9
$DIMCLRE
 70
     0
  9
$DIMCLRT
 70
     0
  9
$DIMTFAC
 40
1.0
  9
$DIMGAP
 40
1.524
  9
$DIMJUST
 70
     0
  9
$DIMSD1
 70
     0
  9
$DIMSD2
 70
     0
  9
$DIMTOLJ
 70
     0
  9
$DIMTZIN
 70
     0
  9
$DIMALTZ
 70
     0
  9
$DIMALTTZ
 70
     0
  9
$DIMFIT
 70
     3
  9
$DIMUPT
 70
     0
  9
$DIMUNIT
 70
     2
  9
$DIMDEC
 70
     2
  9
$DIMTDEC
 70
     2
  9
$DIMALTU
 70
     2
  9
$DIMALTTD
 70
     3
  9
$DIMTXSTY
  7
STANDARD
  9
$DIMAUNIT
 70
     0
  9
$LUNITS
 70
     2
  9
$LUPREC
 70
     2
  9
$SKETCHINC
 40
1.0
  9
$FILLETRAD
 40
10.0
  9
$AUNITS
 70
     0
  9
$AUPREC
 70
     0
  9
$MENU
  1
.
  9
$ELEVATION
 40
0.0
  9
$PELEVATION
 40
0.0
  9
$THICKNESS
 40
0.0
  9
$LIMCHECK
 70
     0
  9
$CHAMFERA
 40
0.0
  9
$CHAMFERB
 40
0.0
  9
$CHAMFERC
 40
0.0
  9
$CHAMFERD
 40
0.0
  9
$SKPOLY
 70
     0
  9
$TDCREATE
 40
2457304.707922176
  9
$TDUPDATE
 40
2457304.707923252
  9
$TDINDWG
 40
0.0000000116
  9
$TDUSRTIMER
 40
0.0000000116
  9
$USRTIMER
 70
     1
  9
$ANGBASE
 50
0.0
  9
$ANGDIR
 70
     0
  9
$PDMODE
 70
     0
  9
$PDSIZE
 40
-1.0
  9
$PLINEWID
 40
0.0
  9
$COORDS
 70
     1
  9
$SPLFRAME
 70
     0
  9
$SPLINETYPE
 70
     6
  9
$SPLINESEGS
 70
     8
  9
$ATTDIA
 70
     0
  9
$ATTREQ
 70
     1
  9
$HANDLING
 70
     1
  9
$HANDSEED
  5
3A3
  9
$SURFTAB1
 70
     6
  9
$SURFTAB2
 70
     6
  9
$SURFTYPE
 70
     6
  9
$SURFU
 70
     6
  9
$SURFV
 70
     6
  9
$UCSNAME
  2

  9
$UCSORG
 10
0.0
 20
0.0
 30
0.0
  9
$UCSXDIR
 10
1.0
 20
0.0
 30
0.0
  9
$UCSYDIR
 10
0.0
 20
1.0
 30
0.0
  9
$PUCSNAME
  2

  9
$PUCSORG
 10
0.0
 20
0.0
 30
0.0
  9
$PUCSXDIR
 10
1.0
 20
0.0
 30
0.0
  9
$PUCSYDIR
 10
0.0
 20
1.0
 30
0.0
  9
$USERI1
 70
     0
  9
$USERI2
 70
     0
  9
$USERI3
 70
     0
  9
$USERI4
 70
     0
  9
$USERI5
 70
     0
  9
$USERR1
 40
0.0
  9
$USERR2
 40
0.0
  9
$USERR3
 40
0.0
  9
$USERR4
 40
0.0
  9
$USERR5
 40
0.0
  9
$WORLDVIEW
 70
     1
  9
$SHADEDGE
 70
     3
  9
$SHADEDIF
 70
    70
  9
$TILEMODE
 70
     1
  9
$MAXACTVP
 70
    64
  9
$PINSBASE
 10
0.0
 20
0.0
 30
0.0
  9
$PLIMCHECK
 70
     0
  9
$PEXTMIN
 10
1.0000000000E+20
 20
1.0000000000E+20
 30
1.0000000000E+20
  9
$PEXTMAX
 10
-1.0000000000E+20
 20
-1.0000000000E+20
 30
-1.0000000000E+20
  9
$PLIMMIN
 10
0.0
 20
0.0
  9
$PLIMMAX
 10
420.0
 20
297.0
  9
$UNITMODE
 70
     0
  9
$VISRETAIN
 70
     1
  9
$PLINEGEN
 70
     0
  9
$PSLTSCALE
 70
     1
  9
$TREEDEPTH
 70
  3020
  9
$PICKSTYLE
 70
     1
  9
$CMLSTYLE
  2
STANDARD
  9
$CMLJUST
 70
     0
  9
$CMLSCALE
 40
20.0
  9
$PROXYGRAPHICS
 70
     1
  9
$MEASUREMENT
 70
     1
  0
ENDSEC
  0
SECTION
  2
CLASSES
  0
CLASS
  1
ACDBDICTIONARYWDFLT
  2
AcDbDictionaryWithDefault
  3
ObjectDBX Classes
 90
        0
280
     0
281
     0
  0
CLASS
  1
VISUALSTYLE
  2
AcDbVisualStyle
  3
ObjectDBX Classes
 90
     4095
280
     0
281
     0
  0
CLASS
  1
MATERIAL
  2
AcDbMaterial
  3
ObjectDBX Classes
 90
     1153
280
     0
281
     0
  0
CLASS
  1
SCALE
  2
AcDbScale
  3
ObjectDBX Classes
 90
     1153
280
     0
281
     0
  0
CLASS
  1
TABLESTYLE
  2
AcDbTableStyle
  3
ObjectDBX Classes
 90
     4095
280
     0
281
     0
  0
CLASS
  1
MLEADERSTYLE
  2
AcDbMLeaderStyle
  3
ACDB_MLEADERSTYLE_CLASS
 90
     4095
280
     0
281
     0
  0
CLASS
  1
SUN
  2
AcDbSun
  3
SCENEOE
 90
     1153
280
     0
281
     0
  0
CLASS
  1
XRECORD
  2
AcDbXrecord
  3
ObjectDBX Classes
 90
        0
280
     0
281
     0
  0
CLASS
  1
LWPOLYLINE
  2
AcDbPolyline
  3
ObjectDBX Classes
 90
        0
280
     0
281
     1
  0
CLASS
  1
HATCH
  2
AcDbHatch
  3
ObjectDBX Classes
 90
        0
280
     0
281
     1
  0
ENDSEC
  0
SECTION
  2
TABLES
  0
TABLE
  2
VPORT
  5
8
330
0
100
AcDbSymbolTable
 70
     1
  0
VPORT
  5
29
330
8
100
AcDbSymbolTableRecord
100
AcDbViewportTableRecord
  2
*ACTIVE
 70
     0
 10
0.0
 20
0.0
 11
1.0
 21
1.0
 12
275.0
 22
200.0
 13
0.0
 23
0.0
 14
10.0
 24
10.0
 15
10.0
 25
10.0
 16
0.0
 26
0.0
 36
1.0
 17
0.0
 27
0.0
 37
0.0
 40
400.0
 41
1.375
 42
50.0
 43
0.0
 44
0.0
 50
0.0
 51
0.0
 71
     0
 72
  2000
 73
     1
 74
     3
 75
     0
 76
     0
 77
     0
 78
     0
  0
ENDTAB
  0
TABLE
  2
LTYPE
  5
5
330
0
100
AcDbSymbolTable
 70
     6
  0
LTYPE
  5
14
330
5
100
AcDbSymbolTableRecord
100
AcDbLinetypeTableRecord
  2
BYBLOCK
 70
     0
  3

 72
    65
 73
     0
 40
0.0
  0
LTYPE
  5
15
330
5
100
AcDbSymbolTableRecord
100
AcDbLinetypeTableRecord
  2
BYLAYER
 70
     0
  3

 72
    65
 73
     0
 40
0.0
  0
LTYPE
  5
16
330
5
100
AcDbSymbolTableRecord
100
AcDbLinetypeTableRecord
  2
CONTINUOUS
 70
     0
  3
Solid line
 72
    65
 73
     0
 40
0.0
  0
LTYPE
  5
6E
330
5
100
AcDbSymbolTableRecord
100
AcDbLinetypeTableRecord
  2
HIDDEN
 70
     0
  3
Hidden __ __ __ __ __ __ __ __ __ __ __ __ __ __
 72
    65
 73
     2
 40
1.905
 49
1.27
 74
     0
 49
-0.635
 74
     0
  0
LTYPE
  5
6F
330
5
100
AcDbSymbolTableRecord
100
AcDbLinetypeTableRecord
  2
PHANTOM
 70
     0
  3
Phantom ______  __  __  ______  __  __  ______
 72
    65
 73
     6
 40
12.7
 49
6.35
 74
     0
 49
-1.27
 74
     0
 49
1.27
 74
     0
 49
-1.27
 74
     0
 49
1.27
 74
     0
 49
-1.27
 74
     0
  0
LTYPE
  5
70
330
5
100
AcDbSymbolTableRecord
100
AcDbLinetypeTableRecord
  2
CENTER
 70
     0
  3
Center ____ _ ____ _ ____ _ ____ _ ____ _ ____
 72
    65
 73
     4
 40
10.16
 49
6.35
 74
     0
 49
-1.27
 74
     0
 49
1.27
 74
     0
 49
-1.27
 74
     0
  0
LTYPE
  5
71
330
5
100
AcDbSymbolTableRecord
100
AcDbLinetypeTableRecord
  2
CENTERX2
 70
     0
  3
Center (2x) ________  __  ________  __  _____
 72
    65
 73
     4
 40
20.32
 49
12.7
 74
     0
 49
-2.54
 74
     0
 49
2.54
 74
     0
 49
-2.54
 74
     0
  0
LTYPE
  5
72
330
5
100
AcDbSymbolTableRecord
100
AcDbLinetypeTableRecord
  2
DOT2
 70
     0
  3
Dot (.5x) ........................................
 72
    65
 73
     2
 40
0.635
 49
0.0
 74
     0
 49
-0.635
 74
     0
  0
ENDTAB
  0
TABLE
  2
LAYER
  5
2
330
0
100
AcDbSymbolTable
 70
     7
  0
LAYER
  5
10
330
2
100
AcDbSymbolTableRecord
100
AcDbLayerTableRecord
  2
0
 70
     0
 62
     7
  6
CONTINUOUS
  0
LAYER
  5
73
330
2
100
AcDbSymbolTableRecord
100
AcDbLayerTableRecord
  2
FORMAT
 70
     0
 62
     7
  6
CONTINUOUS
  0
LAYER
  5
74
330
2
100
AcDbSymbolTableRecord
100
AcDbLayerTableRecord
  2
SLD-0
 70
     0
 62
     7
  6
CONTINUOUS
  0
LAYER
  5
75
330
2
100
AcDbSymbolTableRecord
100
AcDbLayerTableRecord
  2
LAYER_1
 70
     0
 62
   179
  6
CONTINUOUS
  0
LAYER
  5
76
330
2
100
AcDbSymbolTableRecord
100
AcDbLayerTableRecord
  2
RED_ITEMS
 70
     0
 62
     1
  6
CONTINUOUS
  0
LAYER
  5
77
330
2
100
AcDbSymbolTableRecord
100
AcDbLayerTableRecord
  2
BLUE_ITEMS
 70
     0
 62
     5
  6
CONTINUOUS
  0
LAYER
  5
78
330
2
100
AcDbSymbolTableRecord
100
AcDbLayerTableRecord
  2
DIMENSIONS
 70
     0
 62
   179
  6
CONTINUOUS
  0
ENDTAB
  0
TABLE
  2
STYLE
  5
3
330
0
100
AcDbSymbolTable
 70
     2
  0
STYLE
  5
11
330
3
100
AcDbSymbolTableRecord
100
AcDbTextStyleTableRecord
  2
STANDARD
 70
     0
 40
0.0
 41
1.0
 50
0.0
 71
     0
 42
3.5
  3
txt
  4

  0
STYLE
  5
7C
330
3
100
AcDbSymbolTableRecord
100
AcDbTextStyleTableRecord
  2
SLDTEXTSTYLE0
 70
     0
 40
0.0
 41
0.75
 50
0.0
 71
     0
 42
3.5
  3
TXT
  4

  0
ENDTAB
  0
TABLE
  2
VIEW
  5
6
330
0
100
AcDbSymbolTable
 70
     0
  0
ENDTAB
  0
TABLE
  2
UCS
  5
7
330
0
100
AcDbSymbolTable
 70
     0
  0
ENDTAB
  0
TABLE
  2
APPID
  5
9
330
0
100
AcDbSymbolTable
 70
     1
  0
APPID
  5
12
330
9
100
AcDbSymbolTableRecord
100
AcDbRegAppTableRecord
  2
ACAD
 70
     0
  0
ENDTAB
  0
TABLE
  2
DIMSTYLE
  5
A
330
0
100
AcDbSymbolTable
 70
     1
  0
DIMSTYLE
105
27
330
A
100
AcDbSymbolTableRecord
100
AcDbDimStyleTableRecord
  2
ISO-25
 70
     0
  3

  4

  5

  6

  7

 40
1.0
 41
2.5
 42
0.625
 43
3.75
 44
1.25
 45
0.0
 46
0.0
 47
0.0
 48
0.0
140
2.5
141
2.5
142
0.0
143
0.0393700787
144
1.0
145
0.0
146
1.0
147
0.625
 71
     0
 72
     0
 73
     0
 74
     0
 75
     0
 76
     0
 77
     1
 78
     8
170
     0
171
     3
172
     1
173
     0
174
     0
175
     0
176
     0
177
     0
178
     0
270
     2
271
     2
272
     2
273
     2
274
     3
340
11
275
     0
280
     0
281
     0
282
     0
283
     0
284
     8
285
     0
286
     0
287
     3
288
     0
  0
ENDTAB
  0
TABLE
  2
BLOCK_RECORD
  5
1
330
0
100
AcDbSymbolTable
 70
     2
  0
BLOCK_RECORD
  5
1F
330
1
100
AcDbSymbolTableRecord
100
AcDbBlockTableRecord
  2
*MODEL_SPACE
  0
BLOCK_RECORD
  5
1B
330
1
100
AcDbSymbolTableRecord
100
AcDbBlockTableRecord
  2
*PAPER_SPACE
  0
BLOCK_RECORD
  5
23
330
1
100
AcDbSymbolTableRecord
100
AcDbBlockTableRecord
  2
*PAPER_SPACE0
  0
BLOCK_RECORD
  5
79
330
1
100
AcDbSymbolTableRecord
100
AcDbBlockTableRecord
  2
SW_NOTE_0
  0
ENDTAB
  0
ENDSEC
  0
SECTION
  2
BLOCKS
  0
BLOCK
  5
20
330
1F
100
AcDbEntity
  8
0
100
AcDbBlockBegin
  2
*MODEL_SPACE
 70
     0
 10
0.0
 20
0.0
 30
0.0
  3
*MODEL_SPACE
  1

  0
ENDBLK
  5
21
330
1F
100
AcDbEntity
  8
0
100
AcDbBlockEnd
  0
BLOCK
  5
1C
330
1B
100
AcDbEntity
 67
     1
  8
0
100
AcDbBlockBegin
  2
*PAPER_SPACE
 70
     0
 10
0.0
 20
0.0
 30
0.0
  3
*PAPER_SPACE
  1

  0
ENDBLK
  5
1D
330
1B
100
AcDbEntity
 67
     1
  8
0
100
AcDbBlockEnd
  0
BLOCK
  5
24
330
23
100
AcDbEntity
  8
0
100
AcDbBlockBegin
  2
*PAPER_SPACE0
 70
     0
 10
0.0
 20
0.0
 30
0.0
  3
*PAPER_SPACE0
  1

  0
ENDBLK
  5
25
330
23
100
AcDbEntity
  8
0
100
AcDbBlockEnd
  0
BLOCK
  5
7A
330
79
100
AcDbEntity
  8
0
100
AcDbBlockBegin
  2
SW_NOTE_0
 70
     0
 10
0.0
 20
0.0
 30
0.0
  3
SW_NOTE_0
  1

  0
MTEXT
  5
7D
330
79
100
AcDbEntity
  8
DIMENSIONS
 62
     0
100
AcDbMText
 10
0.0
 20
8.1855801476
 30
0.0
 40
6.35
 41
0.0
 71
     1
 72
     1
  1
#1196-02
  7
SLDTEXTSTYLE0
  0
MTEXT
  5
7E
330
79
100
AcDbEntity
  8
DIMENSIONS
 62
     0
100
AcDbMText
 10
0.0
 20
-1.2810865807
 30
0.0
 40
6.35
 41
0.0
 71
     1
 72
     1
  1
3mm Acrylic
  7
SLDTEXTSTYLE0
  0
MTEXT
  5
7F
330
79
100
AcDbEntity
  8
DIMENSIONS
 62
     0
100
AcDbMText
 10
0.0
 20
-10.747753309
 30
0.0
 40
6.35
 41
0.0
 71
     1
 72
     1
  1
x0.5 per Fisher
  7
SLDTEXTSTYLE0
  0
ENDBLK
  5
7B
330
79
100
AcDbEntity
  8
0
100
AcDbBlockEnd
  0
ENDSEC
  0
SECTION
  2
ENTITIES
  0
INSERT
  5
80
330
1F
100
AcDbEntity
  8
DIMENSIONS
100
AcDbBlockReference
  2
SW_NOTE_0
 10
21.0990194498
 20
365.17262687
 30
0.0
  0
CIRCLE
  5
81
330
1F
100
AcDbEntity
  8
0
  6
CONTINUOUS
 62
     7
100
AcDbCircle
 10
329.3443168612
 20
97.097320979
 30
0.0
 40
1.399999999999977
  0
CIRCLE
  5
82
330
1F
100
AcDbEntity
  8
0
  6
CONTINUOUS
 62
     7
100
AcDbCircle
 10
299.3443168612
 20
97.097320979
 30
0.0
 40
2.49807621135335
  0
LINE
  5
83
330
1F
100
AcDbEntity
  8
0
  6
CONTINUOUS
 62
     7
100
AcDbLine
 10
431.0763564061
 20
97.0973217342
 30
0.0
 11
430.2103307198
 21
98.5973173235
 31
0.0
  0
LINE
  5
84
330
1F
100
AcDbEntity
  8
0
  6
CONTINUOUS
 62
     7
100
AcDbLine
 10
430.2103307198
 20
98.5973173235
 30
0.0
 11
428.4782793473
 21
98.5973173235
 31
0.0
  0
LINE
  5
85
330
1F
100
AcDbEntity
  8
0
  6
CONTINUOUS
 62
     7
100
AcDbLine
 10
428.4782793473
 20
98.5973173235
 30
0.0
 11
427.612253661
 21
97.0973217342
 31
0.0
  0
LINE
  5
86
330
1F
100
AcDbEntity
  8
0
  6
CONTINUOUS
 62
     7
100
AcDbLine
 10
427.612253661
 20
97.0973217342
 30
0.0
 11
428.4782793473
 21
95.5973186944
 31
0.0
  0
LINE
  5
87
330
1F
100
AcDbEntity
  8
0
  6
CONTINUOUS
 62
     7
100
AcDbLine
 10
428.4782793473
 20
95.5973186944
 30
0.0
 11
430.2103307198
 21
95.5973186944
 31
0.0
  0
LINE
  5
88
330
1F
100
AcDbEntity
  8
0
  6
CONTINUOUS
 62
     7
100
AcDbLine
 10
430.2103307198
 20
95.5973186944
 30
0.0
 11
431.0763564061
 21
97.0973217342
 31
0.0
  0
ARC
  5
89
330
1F
100
AcDbEntity
  8
0
  6
CONTINUOUS
 62
     7
100
AcDbCircle
 10
378.5301032988
 20
102.097320979
 30
0.0
 40
1.000000000000048
100
AcDbArc
 50
270.0
 51
315.0
  0
LINE
  5
8A
330
1F
100
AcDbEntity
  8
0
  6
CONTINUOUS
 62
     7
100
AcDbLine
 10
379.3443229149
 20
101.4973217104
 30
0.0
 11
379.2372133683
 21
101.3902121637
 31
0.0
  0
LINE
  5
8B
330
1F
100
AcDbEntity
  8
0
  6
CONTINUOUS
 62
     7
100
AcDbLine
 10
379.4514324616
 20
101.3902121637
 30
0.0
 11
379.3443229149
 21
101.4973217104
 31
0.0
  0
ARC
  5
8C
330
1F
100
AcDbEntity
  8
0
  6
CONTINUOUS
 62
     7
100
AcDbCircle
 10
380.1585304236
 20
102.097320979
 30
0.0
 40
1.000000000000008
100
AcDbArc
 50
225.0
 51
270.0
  0
ARC
  5
8D
330
1F
100
AcDbEntity
  8
0
  6
CONTINUOUS
 62
     7
100
AcDbCircle
 10
422.4161136309
 20
104.097320979
 30
0.0
 40
3.0
100
AcDbArc
 50
270.0
 51
330.0
  0
LINE
  5
8E
330
1F
100
AcDbEntity
  8
0
  6
CONTINUOUS
 62
     7
100
AcDbLine
 10
425.5915369938
 20
103.5973200057
 30
0.0
 11
425.0141766022
 21
102.5973179791
 31
0.0
  0
LINE
  5
8F
330
1F
100
AcDbEntity
  8
0
  6
CONTINUOUS
 62
     7
100
AcDbLine
 10
433.0971028756
 20
103.5973200057
 30
0.0
 11
425.5915369938
 21
103.5973200057
 31
0.0
  0
LINE
  5
90
330
1F
100
AcDbEntity
  8
0
  6
CONTINUOUS
 62
     7
100
AcDbLine
 10
433.6744334649
 20
102.5973179791
 30
0.0
 11
433.0971028756
 21
103.5973200057
 31
0.0
  0
ARC
  5
91
330
1F
100
AcDbEntity
  8
0
  6
CONTINUOUS
 62
     7
100
AcDbCircle
 10
436.2725200915
 20
104.097320979
 30
0.0
 40
3.000000000000049
100
AcDbArc
 50
210.0
 51
270.0
  0
ARC
  5
92
330
1F
100
AcDbEntity
  8
0
  6
CONTINUOUS
 62
     7
100
AcDbCircle
 10
446.3458554138
 20
149.097320979
 30
0.0
 40
48.00000000000001
100
AcDbArc
 50
270.0
 51
284.0346479352
  0
ARC
  5
93
330
1F
100
AcDbEntity
  8
0
  6
CONTINUOUS
 62
     7
100
AcDbCircle
 10
446.3458554138
 20
45.097320979
 30
0.0
 40
48.00000000000001
100
AcDbArc
 50
75.9653520648
 51
90.0
  0
ARC
  5
94
330
1F
100
AcDbEntity
  8
0
  6
CONTINUOUS
 62
     7
100
AcDbCircle
 10
436.2725200915
 20
90.097320979
 30
0.0
 40
3.000000000000042
100
AcDbArc
 50
90.0
 51
150.0
  0
LINE
  5
95
330
1F
100
AcDbEntity
  8
0
  6
CONTINUOUS
 62
     7
100
AcDbLine
 10
433.0971028756
 20
90.5973234627
 30
0.0
 11
433.6744334649
 21
91.5973180387
 31
0.0
  0
LINE
  5
96
330
1F
100
AcDbEntity
  8
0
  6
CONTINUOUS
 62
     7
100
AcDbLine
 10
425.5915369938
 20
90.5973234627
 30
0.0
 11
433.0971028756
 21
90.5973234627
 31
0.0
  0
LINE
  5
97
330
1F
100
AcDbEntity
  8
0
  6
CONTINUOUS
 62
     7
100
AcDbLine
 10
425.0141766022
 20
91.5973180387
 30
0.0
 11
425.5915369938
 21
90.5973234627
 31
0.0
  0
ARC
  5
98
330
1F
100
AcDbEntity
  8
0
  6
CONTINUOUS
 62
     7
100
AcDbCircle
 10
422.4161136309
 20
90.097320979
 30
0.0
 40
2.999999999999993
100
AcDbArc
 50
30.0
 51
90.0
  0
ARC
  5
99
330
1F
100
AcDbEntity
  8
0
  6
CONTINUOUS
 62
     7
100
AcDbCircle
 10
380.1585304236
 20
92.097320979
 30
0.0
 40
1.000000000000008
100
AcDbArc
 50
90.0
 51
135.0
  0
LINE
  5
9A
330
1F
100
AcDbEntity
  8
0
  6
CONTINUOUS
 62
     7
100
AcDbLine
 10
379.3443229149
 20
92.697321758
 30
0.0
 11
379.4514324616
 21
92.8044313047
 31
0.0
  0
LINE
  5
9B
330
1F
100
AcDbEntity
  8
0
  6
CONTINUOUS
 62
     7
100
AcDbLine
 10
379.2372133683
 20
92.8044313047
 30
0.0
 11
379.3443229149
 21
92.697321758
 31
0.0
  0
ARC
  5
9C
330
1F
100
AcDbEntity
  8
0
  6
CONTINUOUS
 62
     7
100
AcDbCircle
 10
338.0764414595
 20
83.097320979
 30
0.0
 40
10.00000000000003
100
AcDbArc
 50
90.0
 51
121.9527464003
  0
ARC
  5
9D
330
1F
100
AcDbEntity
  8
0
  6
CONTINUOUS
 62
     7
100
AcDbCircle
 10
329.3443168612
 20
97.097320979
 30
0.0
 40
6.50000000000001
100
AcDbArc
 50
238.0472535997
 51
301.9527464003
  0
ARC
  5
9E
330
1F
100
AcDbEntity
  8
0
  6
CONTINUOUS
 62
     7
100
AcDbCircle
 10
320.6121922629
 20
83.097320979
 30
0.0
 40
9.999999999999986
100
AcDbArc
 50
58.0472535997
 51
90.0
  0
LINE
  5
9F
330
1F
100
AcDbEntity
  8
0
  6
CONTINUOUS
 62
     7
100
AcDbLine
 10
312.3427715252
 20
93.0973210786
 30
0.0
 11
320.6121858309
 21
93.0973210786
 31
0.0
  0
ARC
  5
A0
330
1F
100
AcDbEntity
  8
0
  6
CONTINUOUS
 62
     7
100
AcDbCircle
 10
299.3443168612
 20
97.097320979
 30
0.0
 40
5.600000000000009
100
AcDbArc
 50
75.9653520648
 51
284.0346479352
  0
ARC
  5
A1
330
1F
100
AcDbEntity
  8
0
  6
CONTINUOUS
 62
     7
100
AcDbCircle
 10
312.3427783086
 20
149.097320979
 30
0.0
 40
47.99999999999999
100
AcDbArc
 50
255.9653520648
 51
270.0
  0
LINE
  5
A2
330
1F
100
AcDbEntity
  8
0
  6
CONTINUOUS
 62
     7
100
AcDbLine
 10
320.6121858309
 20
101.0973223899
 30
0.0
 11
312.3427715252
 21
101.0973223899
 31
0.0
  0
ARC
  5
A3
330
1F
100
AcDbEntity
  8
0
  6
CONTINUOUS
 62
     7
100
AcDbCircle
 10
320.6121922629
 20
111.097320979
 30
0.0
 40
9.999999999999986
100
AcDbArc
 50
270.0
 51
301.9527464003
  0
ARC
  5
A4
330
1F
100
AcDbEntity
  8
0
  6
CONTINUOUS
 62
     7
100
AcDbCircle
 10
329.3443168612
 20
97.097320979
 30
0.0
 40
6.500000000000022
100
AcDbArc
 50
58.0472535997
 51
121.9527464003
  0
ARC
  5
A5
330
1F
100
AcDbEntity
  8
0
  6
CONTINUOUS
 62
     7
100
AcDbCircle
 10
338.0764414595
 20
111.097320979
 30
0.0
 40
10.00000000000003
100
AcDbArc
 50
238.0472535997
 51
270.0
  0
LINE
  5
A6
330
1F
100
AcDbEntity
  8
0
  6
CONTINUOUS
 62
     7
100
AcDbLine
 10
378.530093665
 20
101.0973223899
 30
0.0
 11
338.0764361571
 21
101.0973223899
 31
0.0
  0
CIRCLE
  5
A7
330
1F
100
AcDbEntity
  8
0
  6
CONTINUOUS
 62
     7
100
AcDbCircle
 10
459.3443168612
 20
97.097320979
 30
0.0
 40
2.49807621135335
  0
LINE
  5
A8
330
1F
100
AcDbEntity
  8
0
  6
CONTINUOUS
 62
     7
100
AcDbLine
 10
446.3458445023
 20
101.0973223899
 30
0.0
 11
436.2725105237
 21
101.0973223899
 31
0.0
  0
LINE
  5
A9
330
1F
100
AcDbEntity
  8
0
  6
CONTINUOUS
 62
     7
100
AcDbLine
 10
436.2725105237
 20
93.0973210786
 30
0.0
 11
446.3458445023
 21
93.0973210786
 31
0.0
  0
ARC
  5
AA
330
1F
100
AcDbEntity
  8
0
  6
CONTINUOUS
 62
     7
100
AcDbCircle
 10
459.3443168612
 20
97.097320979
 30
0.0
 40
5.599999999999994
100
AcDbArc
 50
255.9653520648
 51
104.0346479352
  0
LINE
  5
AB
330
1F
100
AcDbEntity
  8
0
  6
CONTINUOUS
 62
     7
100
AcDbLine
 10
338.0764361571
 20
93.0973210786
 30
0.0
 11
378.530093665
 21
93.0973210786
 31
0.0
  0
LINE
  5
AC
330
1F
100
AcDbEntity
  8
0
  6
CONTINUOUS
 62
     7
100
AcDbLine
 10
380.1585223626
 20
93.0973210786
 30
0.0
 11
422.4160995434
 21
93.0973210786
 31
0.0
  0
ARC
  5
AD
330
1F
100
AcDbEntity
  8
0
  6
CONTINUOUS
 62
     7
100
AcDbCircle
 10
312.3427783086
 20
45.097320979
 30
0.0
 40
48.0
100
AcDbArc
 50
90.0
 51
104.0346479352
  0
LINE
  5
AE
330
1F
100
AcDbEntity
  8
0
  6
CONTINUOUS
 62
     7
100
AcDbLine
 10
422.4160995434
 20
101.0973223899
 30
0.0
 11
380.1585223626
 21
101.0973223899
 31
0.0
  0
ARC
  5
AF
330
1F
100
AcDbEntity
  8
0
  6
CONTINUOUS
 62
     7
100
AcDbCircle
 10
378.5301032988
 20
92.097320979
 30
0.0
 40
1.000000000000048
100
AcDbArc
 50
45.0
 51
90.0
  0
CIRCLE
  5
B0
330
1F
100
AcDbEntity
  8
0
  6
CONTINUOUS
 62
     7
100
AcDbCircle
 10
318.2851775276
 20
60.811213499
 30
0.0
 40
1.400000000000034
  0
CIRCLE
  5
B1
330
1F
100
AcDbEntity
  8
0
  6
CONTINUOUS
 62
     7
100
AcDbCircle
 10
288.2851775276
 20
60.811213499
 30
0.0
 40
2.498076211353293
  0
LINE
  5
B2
330
1F
100
AcDbEntity
  8
0
  6
CONTINUOUS
 62
     7
100
AcDbLine
 10
420.0172212075
 20
60.8112135384
 30
0.0
 11
419.1511955212
 21
62.311212853
 31
0.0
  0
LINE
  5
B3
330
1F
100
AcDbEntity
  8
0
  6
CONTINUOUS
 62
     7
100
AcDbLine
 10
419.1511955212
 20
62.311212853
 30
0.0
 11
417.4191441487
 21
62.311212853
 31
0.0
  0
LINE
  5
B4
330
1F
100
AcDbEntity
  8
0
  6
CONTINUOUS
 62
     7
100
AcDbLine
 10
417.4191441487
 20
62.311212853
 30
0.0
 11
416.5531184624
 21
60.8112135384
 31
0.0
  0
LINE
  5
B5
330
1F
100
AcDbEntity
  8
0
  6
CONTINUOUS
 62
     7
100
AcDbLine
 10
416.5531184624
 20
60.8112135384
 30
0.0
 11
417.4191441487
 21
59.3112142239
 31
0.0
  0
LINE
  5
B6
330
1F
100
AcDbEntity
  8
0
  6
CONTINUOUS
 62
     7
100
AcDbLine
 10
417.4191441487
 20
59.3112142239
 30
0.0
 11
419.1511955212
 21
59.3112142239
 31
0.0
  0
LINE
  5
B7
330
1F
100
AcDbEntity
  8
0
  6
CONTINUOUS
 62
     7
100
AcDbLine
 10
419.1511955212
 20
59.3112142239
 30
0.0
 11
420.0172212075
 21
60.8112135384
 31
0.0
  0
CIRCLE
  5
B8
330
1F
100
AcDbEntity
  8
0
  6
CONTINUOUS
 62
     7
100
AcDbCircle
 10
448.2851775276
 20
60.811213499
 30
0.0
 40
2.49807621135335
  0
ARC
  5
B9
330
1F
100
AcDbEntity
  8
0
  6
CONTINUOUS
 62
     7
100
AcDbCircle
 10
367.4709639652
 20
65.811213499
 30
0.0
 40
1.0
100
AcDbArc
 50
270.0
 51
315.0
  0
LINE
  5
BA
330
1F
100
AcDbEntity
  8
0
  6
CONTINUOUS
 62
     7
100
AcDbLine
 10
368.2851877163
 20
65.2112135146
 30
0.0
 11
368.1780781697
 21
65.1041039679
 31
0.0
  0
LINE
  5
BB
330
1F
100
AcDbEntity
  8
0
  6
CONTINUOUS
 62
     7
100
AcDbLine
 10
368.392297263
 20
65.1041039679
 30
0.0
 11
368.2851877163
 21
65.2112135146
 31
0.0
  0
ARC
  5
BC
330
1F
100
AcDbEntity
  8
0
  6
CONTINUOUS
 62
     7
100
AcDbCircle
 10
369.0993910899
 20
65.811213499
 30
0.0
 40
1.0
100
AcDbArc
 50
225.0
 51
270.0
  0
LINE
  5
BD
330
1F
100
AcDbEntity
  8
0
  6
CONTINUOUS
 62
     7
100
AcDbLine
 10
411.3569643448
 20
64.8112141941
 30
0.0
 11
369.099387164
 21
64.8112141941
 31
0.0
  0
ARC
  5
BE
330
1F
100
AcDbEntity
  8
0
  6
CONTINUOUS
 62
     7
100
AcDbCircle
 10
411.3569742973
 20
67.811213499
 30
0.0
 40
3.000000000000042
100
AcDbArc
 50
270.0
 51
330.0
  0
LINE
  5
BF
330
1F
100
AcDbEntity
  8
0
  6
CONTINUOUS
 62
     7
100
AcDbLine
 10
414.5324017952
 20
67.3112118099
 30
0.0
 11
413.9550414036
 21
66.3112097833
 31
0.0
  0
LINE
  5
C0
330
1F
100
AcDbEntity
  8
0
  6
CONTINUOUS
 62
     7
100
AcDbLine
 10
422.037967677
 20
67.3112118099
 30
0.0
 11
414.5324017952
 21
67.3112118099
 31
0.0
  0
LINE
  5
C1
330
1F
100
AcDbEntity
  8
0
  6
CONTINUOUS
 62
     7
100
AcDbLine
 10
422.6152982663
 20
66.3112097833
 30
0.0
 11
422.037967677
 21
67.3112118099
 31
0.0
  0
ARC
  5
C2
330
1F
100
AcDbEntity
  8
0
  6
CONTINUOUS
 62
     7
100
AcDbCircle
 10
425.2133807578
 20
67.811213499
 30
0.0
 40
3.0
100
AcDbArc
 50
210.0
 51
270.0
  0
ARC
  5
C3
330
1F
100
AcDbEntity
  8
0
  6
CONTINUOUS
 62
     7
100
AcDbCircle
 10
435.2867160802
 20
112.811213499
 30
0.0
 40
48.00000000000001
100
AcDbArc
 50
270.0
 51
284.0346479352
  0
ARC
  5
C4
330
1F
100
AcDbEntity
  8
0
  6
CONTINUOUS
 62
     7
100
AcDbCircle
 10
448.2851775276
 20
60.811213499
 30
0.0
 40
5.600000000000001
100
AcDbArc
 50
255.9653520648
 51
104.0346479352
  0
ARC
  5
C5
330
1F
100
AcDbEntity
  8
0
  6
CONTINUOUS
 62
     7
100
AcDbCircle
 10
435.2867160802
 20
8.811213499
 30
0.0
 40
48.00000000000001
100
AcDbArc
 50
75.9653520648
 51
90.0
  0
ARC
  5
C6
330
1F
100
AcDbEntity
  8
0
  6
CONTINUOUS
 62
     7
100
AcDbCircle
 10
425.2133807578
 20
53.811213499
 30
0.0
 40
3.0
100
AcDbArc
 50
90.0
 51
150.0
  0
LINE
  5
C7
330
1F
100
AcDbEntity
  8
0
  6
CONTINUOUS
 62
     7
100
AcDbLine
 10
422.037967677
 20
54.311215267
 30
0.0
 11
422.6152982663
 21
55.3112135682
 31
0.0
  0
LINE
  5
C8
330
1F
100
AcDbEntity
  8
0
  6
CONTINUOUS
 62
     7
100
AcDbLine
 10
414.5324017952
 20
54.311215267
 30
0.0
 11
422.037967677
 21
54.311215267
 31
0.0
  0
LINE
  5
C9
330
1F
100
AcDbEntity
  8
0
  6
CONTINUOUS
 62
     7
100
AcDbLine
 10
413.9550414036
 20
55.3112135682
 30
0.0
 11
414.5324017952
 21
54.311215267
 31
0.0
  0
ARC
  5
CA
330
1F
100
AcDbEntity
  8
0
  6
CONTINUOUS
 62
     7
100
AcDbCircle
 10
411.3569742973
 20
53.811213499
 30
0.0
 40
3.000000000000046
100
AcDbArc
 50
30.0
 51
90.0
  0
ARC
  5
CB
330
1F
100
AcDbEntity
  8
0
  6
CONTINUOUS
 62
     7
100
AcDbCircle
 10
369.0993910899
 20
55.811213499
 30
0.0
 40
1.000000000000003
100
AcDbArc
 50
90.0
 51
135.0
  0
LINE
  5
CC
330
1F
100
AcDbEntity
  8
0
  6
CONTINUOUS
 62
     7
100
AcDbLine
 10
368.2851877163
 20
56.4112135623
 30
0.0
 11
368.392297263
 21
56.5183193836
 31
0.0
  0
LINE
  5
CD
330
1F
100
AcDbEntity
  8
0
  6
CONTINUOUS
 62
     7
100
AcDbLine
 10
368.1780781697
 20
56.5183193836
 30
0.0
 11
368.2851877163
 21
56.4112135623
 31
0.0
  0
ARC
  5
CE
330
1F
100
AcDbEntity
  8
0
  6
CONTINUOUS
 62
     7
100
AcDbCircle
 10
367.4709639652
 20
55.811213499
 30
0.0
 40
1.000000000000003
100
AcDbArc
 50
45.0
 51
90.0
  0
LINE
  5
CF
330
1F
100
AcDbEntity
  8
0
  6
CONTINUOUS
 62
     7
100
AcDbLine
 10
327.0173009585
 20
56.8112128828
 30
0.0
 11
367.4709584664
 21
56.8112128828
 31
0.0
  0
ARC
  5
D0
330
1F
100
AcDbEntity
  8
0
  6
CONTINUOUS
 62
     7
100
AcDbCircle
 10
327.0173021259
 20
46.811213499
 30
0.0
 40
10.00000000000001
100
AcDbArc
 50
90.0
 51
121.9527464003
  0
ARC
  5
D1
330
1F
100
AcDbEntity
  8
0
  6
CONTINUOUS
 62
     7
100
AcDbCircle
 10
318.2851775276
 20
60.811213499
 30
0.0
 40
6.500000000000022
100
AcDbArc
 50
238.0472535997
 51
301.9527464003
  0
ARC
  5
D2
330
1F
100
AcDbEntity
  8
0
  6
CONTINUOUS
 62
     7
100
AcDbCircle
 10
309.5530529293
 20
46.811213499
 30
0.0
 40
10.0
100
AcDbArc
 50
58.0472535997
 51
90.0
  0
LINE
  5
D3
330
1F
100
AcDbEntity
  8
0
  6
CONTINUOUS
 62
     7
100
AcDbLine
 10
301.2836363266
 20
56.8112128828
 30
0.0
 11
309.5530506323
 21
56.8112128828
 31
0.0
  0
ARC
  5
D4
330
1F
100
AcDbEntity
  8
0
  6
CONTINUOUS
 62
     7
100
AcDbCircle
 10
301.283638975
 20
8.811213499
 30
0.0
 40
48.0
100
AcDbArc
 50
90.0
 51
104.0346479352
  0
ARC
  5
D5
330
1F
100
AcDbEntity
  8
0
  6
CONTINUOUS
 62
     7
100
AcDbCircle
 10
288.2851775276
 20
60.811213499
 30
0.0
 40
5.600000000000001
100
AcDbArc
 50
75.9653520648
 51
284.0346479352
  0
ARC
  5
D6
330
1F
100
AcDbEntity
  8
0
  6
CONTINUOUS
 62
     7
100
AcDbCircle
 10
301.283638975
 20
112.811213499
 30
0.0
 40
48.0
100
AcDbArc
 50
255.9653520648
 51
270.0
  0
LINE
  5
D7
330
1F
100
AcDbEntity
  8
0
  6
CONTINUOUS
 62
     7
100
AcDbLine
 10
309.5530506323
 20
64.8112141941
 30
0.0
 11
301.2836363266
 21
64.8112141941
 31
0.0
  0
ARC
  5
D8
330
1F
100
AcDbEntity
  8
0
  6
CONTINUOUS
 62
     7
100
AcDbCircle
 10
309.5530529293
 20
74.811213499
 30
0.0
 40
10.0
100
AcDbArc
 50
270.0
 51
301.9527464003
  0
ARC
  5
D9
330
1F
100
AcDbEntity
  8
0
  6
CONTINUOUS
 62
     7
100
AcDbCircle
 10
318.2851775276
 20
60.811213499
 30
0.0
 40
6.500000000000022
100
AcDbArc
 50
58.0472535997
 51
121.9527464003
  0
ARC
  5
DA
330
1F
100
AcDbEntity
  8
0
  6
CONTINUOUS
 62
     7
100
AcDbCircle
 10
327.0173021259
 20
74.811213499
 30
0.0
 40
10.0
100
AcDbArc
 50
238.0472535997
 51
270.0
  0
LINE
  5
DB
330
1F
100
AcDbEntity
  8
0
  6
CONTINUOUS
 62
     7
100
AcDbLine
 10
367.4709584664
 20
64.8112141941
 30
0.0
 11
327.0173009585
 21
64.8112141941
 31
0.0
  0
LINE
  5
DC
330
1F
100
AcDbEntity
  8
0
  6
CONTINUOUS
 62
     7
100
AcDbLine
 10
369.099387164
 20
56.8112128828
 30
0.0
 11
411.3569643448
 21
56.8112128828
 31
0.0
  0
LINE
  5
DD
330
1F
100
AcDbEntity
  8
0
  6
CONTINUOUS
 62
     7
100
AcDbLine
 10
435.2867093037
 20
64.8112141941
 30
0.0
 11
425.2133753251
 21
64.8112141941
 31
0.0
  0
LINE
  5
DE
330
1F
100
AcDbEntity
  8
0
  6
CONTINUOUS
 62
     7
100
AcDbLine
 10
425.2133753251
 20
56.8112128828
 30
0.0
 11
435.2867093037
 21
56.8112128828
 31
0.0
  0
LINE
  5
DF
330
1F
100
AcDbEntity
  8
0
  6
CONTINUOUS
 62
     7
100
AcDbLine
 10
426.5122499417
 20
78.9915764187
 30
0.0
 11
425.9349193524
 21
77.9915743921
 31
0.0
  0
LINE
  5
E0
330
1F
100
AcDbEntity
  8
0
  6
CONTINUOUS
 62
     7
100
AcDbLine
 10
434.0178158234
 20
78.9915764187
 30
0.0
 11
426.5122499417
 21
78.9915764187
 31
0.0
  0
LINE
  5
E1
330
1F
100
AcDbEntity
  8
0
  6
CONTINUOUS
 62
     7
100
AcDbLine
 10
434.595176215
 20
77.9915743921
 30
0.0
 11
434.0178158234
 21
78.9915764187
 31
0.0
  0
ARC
  5
E2
330
1F
100
AcDbEntity
  8
0
  6
CONTINUOUS
 62
     7
100
AcDbCircle
 10
437.1932406941
 20
79.4915769368
 30
0.0
 40
3.000000000000049
100
AcDbArc
 50
210.0
 51
270.0
  0
LINE
  5
E3
330
1F
100
AcDbEntity
  8
0
  6
CONTINUOUS
 62
     7
100
AcDbLine
 10
447.2665872525
 20
76.4915788028
 30
0.0
 11
437.1932532738
 21
76.4915788028
 31
0.0
  0
LINE
  5
E4
330
1F
100
AcDbEntity
  8
0
  6
CONTINUOUS
 62
     7
100
AcDbLine
 10
437.1932532738
 20
68.4915774915
 30
0.0
 11
447.2665872525
 21
68.4915774915
 31
0.0
  0
ARC
  5
E5
330
1F
100
AcDbEntity
  8
0
  6
CONTINUOUS
 62
     7
100
AcDbCircle
 10
437.1932406941
 20
65.4915769368
 30
0.0
 40
2.999999999999993
100
AcDbArc
 50
90.0
 51
150.0
  0
LINE
  5
E6
330
1F
100
AcDbEntity
  8
0
  6
CONTINUOUS
 62
     7
100
AcDbLine
 10
425.9349193524
 20
66.9915744517
 30
0.0
 11
426.5122499417
 21
65.9915798757
 31
0.0
  0
ARC
  5
E7
330
1F
100
AcDbEntity
  8
0
  6
CONTINUOUS
 62
     7
100
AcDbCircle
 10
423.3368342335
 20
65.4915769368
 30
0.0
 40
2.999999999999993
100
AcDbArc
 50
30.0
 51
90.0
  0
LINE
  5
E8
330
1F
100
AcDbEntity
  8
0
  6
CONTINUOUS
 62
     7
100
AcDbLine
 10
381.0792651127
 20
68.4915774915
 30
0.0
 11
423.3368422936
 21
68.4915774915
 31
0.0
  0
ARC
  5
E9
330
1F
100
AcDbEntity
  8
0
  6
CONTINUOUS
 62
     7
100
AcDbCircle
 10
338.9971620621
 20
58.4915769368
 30
0.0
 40
10.00000000000001
100
AcDbArc
 50
90.0
 51
121.9527464003
  0
ARC
  5
EA
330
1F
100
AcDbEntity
  8
0
  6
CONTINUOUS
 62
     7
100
AcDbCircle
 10
330.2650374638
 20
72.4915769368
 30
0.0
 40
6.500000000000022
100
AcDbArc
 50
238.0472535997
 51
301.9527464003
  0
ARC
  5
EB
330
1F
100
AcDbEntity
  8
0
  6
CONTINUOUS
 62
     7
100
AcDbCircle
 10
321.5329128655
 20
58.4915769368
 30
0.0
 40
10.0
100
AcDbArc
 50
58.0472535997
 51
90.0
  0
ARC
  5
EC
330
1F
100
AcDbEntity
  8
0
  6
CONTINUOUS
 62
     7
100
AcDbCircle
 10
321.5329128655
 20
86.4915769368
 30
0.0
 40
10.0
100
AcDbArc
 50
270.0
 51
301.9527464003
  0
ARC
  5
ED
330
1F
100
AcDbEntity
  8
0
  6
CONTINUOUS
 62
     7
100
AcDbCircle
 10
330.2650374638
 20
72.4915769368
 30
0.0
 40
6.500000000000022
100
AcDbArc
 50
58.0472535997
 51
121.9527464003
  0
ARC
  5
EE
330
1F
100
AcDbEntity
  8
0
  6
CONTINUOUS
 62
     7
100
AcDbCircle
 10
338.9971620621
 20
86.4915769368
 30
0.0
 40
10.0
100
AcDbArc
 50
238.0472535997
 51
270.0
  0
LINE
  5
EF
330
1F
100
AcDbEntity
  8
0
  6
CONTINUOUS
 62
     7
100
AcDbLine
 10
434.0178158234
 20
65.9915798757
 30
0.0
 11
434.595176215
 21
66.9915744517
 31
0.0
  0
LINE
  5
F0
330
1F
100
AcDbEntity
  8
0
  6
CONTINUOUS
 62
     7
100
AcDbLine
 10
431.9970991562
 20
72.4915781472
 30
0.0
 11
431.13107347
 21
73.9915737364
 31
0.0
  0
LINE
  5
F1
330
1F
100
AcDbEntity
  8
0
  6
CONTINUOUS
 62
     7
100
AcDbLine
 10
431.13107347
 20
73.9915737364
 30
0.0
 11
429.3990220974
 21
73.9915737364
 31
0.0
  0
LINE
  5
F2
330
1F
100
AcDbEntity
  8
0
  6
CONTINUOUS
 62
     7
100
AcDbLine
 10
429.3990220974
 20
73.9915737364
 30
0.0
 11
428.5329964112
 21
72.4915781472
 31
0.0
  0
LINE
  5
F3
330
1F
100
AcDbEntity
  8
0
  6
CONTINUOUS
 62
     7
100
AcDbLine
 10
428.5329964112
 20
72.4915781472
 30
0.0
 11
429.3990220974
 21
70.9915751073
 31
0.0
  0
LINE
  5
F4
330
1F
100
AcDbEntity
  8
0
  6
CONTINUOUS
 62
     7
100
AcDbLine
 10
429.3990220974
 20
70.9915751073
 30
0.0
 11
431.13107347
 21
70.9915751073
 31
0.0
  0
LINE
  5
F5
330
1F
100
AcDbEntity
  8
0
  6
CONTINUOUS
 62
     7
100
AcDbLine
 10
431.13107347
 20
70.9915751073
 30
0.0
 11
431.9970991562
 21
72.4915781472
 31
0.0
  0
CIRCLE
  5
F6
330
1F
100
AcDbEntity
  8
0
  6
CONTINUOUS
 62
     7
100
AcDbCircle
 10
330.2650374638
 20
72.4915769368
 30
0.0
 40
1.39999999999992
  0
ARC
  5
F7
330
1F
100
AcDbEntity
  8
0
  6
CONTINUOUS
 62
     7
100
AcDbCircle
 10
381.0792510262
 20
77.4915769368
 30
0.0
 40
1.0
100
AcDbArc
 50
225.0
 51
270.0
  0
LINE
  5
F8
330
1F
100
AcDbEntity
  8
0
  6
CONTINUOUS
 62
     7
100
AcDbLine
 10
380.3721454094
 20
76.7844685767
 30
0.0
 11
380.2650358628
 21
76.8915781233
 31
0.0
  0
LINE
  5
F9
330
1F
100
AcDbEntity
  8
0
  6
CONTINUOUS
 62
     7
100
AcDbLine
 10
380.2650358628
 20
76.8915781233
 30
0.0
 11
380.1579263161
 21
76.7844685767
 31
0.0
  0
ARC
  5
FA
330
1F
100
AcDbEntity
  8
0
  6
CONTINUOUS
 62
     7
100
AcDbCircle
 10
379.4508239014
 20
77.4915769368
 30
0.0
 40
1.000000000000038
100
AcDbArc
 50
270.0
 51
315.0
  0
ARC
  5
FB
330
1F
100
AcDbEntity
  8
0
  6
CONTINUOUS
 62
     7
100
AcDbCircle
 10
381.0792510262
 20
67.4915769368
 30
0.0
 40
1.0
100
AcDbArc
 50
90.0
 51
135.0
  0
ARC
  5
FC
330
1F
100
AcDbEntity
  8
0
  6
CONTINUOUS
 62
     7
100
AcDbCircle
 10
379.4508239014
 20
67.4915769368
 30
0.0
 40
1.000000000000038
100
AcDbArc
 50
45.0
 51
90.0
  0
LINE
  5
FD
330
1F
100
AcDbEntity
  8
0
  6
CONTINUOUS
 62
     7
100
AcDbLine
 10
380.1579263161
 20
68.1986802671
 30
0.0
 11
380.2650358628
 21
68.091578171
 31
0.0
  0
LINE
  5
FE
330
1F
100
AcDbEntity
  8
0
  6
CONTINUOUS
 62
     7
100
AcDbLine
 10
380.2650358628
 20
68.091578171
 30
0.0
 11
380.3721454094
 21
68.1986802671
 31
0.0
  0
ARC
  5
FF
330
1F
100
AcDbEntity
  8
0
  6
CONTINUOUS
 62
     7
100
AcDbCircle
 10
313.2634989112
 20
124.4915769368
 30
0.0
 40
48.00000000000001
100
AcDbArc
 50
255.9653520648
 51
270.0
  0
ARC
  5
100
330
1F
100
AcDbEntity
  8
0
  6
CONTINUOUS
 62
     7
100
AcDbCircle
 10
313.2634989112
 20
20.4915769368
 30
0.0
 40
48.00000000000001
100
AcDbArc
 50
90.0
 51
104.0346479352
  0
ARC
  5
101
330
1F
100
AcDbEntity
  8
0
  6
CONTINUOUS
 62
     7
100
AcDbCircle
 10
447.2665760164
 20
124.4915769368
 30
0.0
 40
48.00000000000002
100
AcDbArc
 50
270.0
 51
284.0346479352
  0
ARC
  5
102
330
1F
100
AcDbEntity
  8
0
  6
CONTINUOUS
 62
     7
100
AcDbCircle
 10
447.2665760164
 20
20.4915769368
 30
0.0
 40
48.00000000000002
100
AcDbArc
 50
75.9653520648
 51
90.0
  0
CIRCLE
  5
103
330
1F
100
AcDbEntity
  8
0
  6
CONTINUOUS
 62
     7
100
AcDbCircle
 10
300.2650374638
 20
72.4915769368
 30
0.0
 40
2.49807621135335
  0
ARC
  5
104
330
1F
100
AcDbEntity
  8
0
  6
CONTINUOUS
 62
     7
100
AcDbCircle
 10
423.3368342335
 20
79.4915769368
 30
0.0
 40
3.0
100
AcDbArc
 50
270.0
 51
330.0
  0
LINE
  5
105
330
1F
100
AcDbEntity
  8
0
  6
CONTINUOUS
 62
     7
100
AcDbLine
 10
313.2634993742
 20
68.4915774915
 30
0.0
 11
321.5329136799
 21
68.4915774915
 31
0.0
  0
ARC
  5
106
330
1F
100
AcDbEntity
  8
0
  6
CONTINUOUS
 62
     7
100
AcDbCircle
 10
300.2650374638
 20
72.4915769368
 30
0.0
 40
5.600000000000009
100
AcDbArc
 50
75.9653520648
 51
284.0346479352
  0
ARC
  5
107
330
1F
100
AcDbEntity
  8
0
  6
CONTINUOUS
 62
     7
100
AcDbCircle
 10
460.2650374638
 20
72.4915769368
 30
0.0
 40
5.599999999999994
100
AcDbArc
 50
255.9653520648
 51
104.0346479352
  0
LINE
  5
108
330
1F
100
AcDbEntity
  8
0
  6
CONTINUOUS
 62
     7
100
AcDbLine
 10
426.5122499417
 20
65.9915798757
 30
0.0
 11
434.0178158234
 21
65.9915798757
 31
0.0
  0
LINE
  5
109
330
1F
100
AcDbEntity
  8
0
  6
CONTINUOUS
 62
     7
100
AcDbLine
 10
321.5329136799
 20
76.4915788028
 30
0.0
 11
313.2634993742
 21
76.4915788028
 31
0.0
  0
LINE
  5
10A
330
1F
100
AcDbEntity
  8
0
  6
CONTINUOUS
 62
     7
100
AcDbLine
 10
379.4508364151
 20
76.4915788028
 30
0.0
 11
338.9971640061
 21
76.4915788028
 31
0.0
  0
LINE
  5
10B
330
1F
100
AcDbEntity
  8
0
  6
CONTINUOUS
 62
     7
100
AcDbLine
 10
338.9971640061
 20
68.4915774915
 30
0.0
 11
379.4508364151
 21
68.4915774915
 31
0.0
  0
CIRCLE
  5
10C
330
1F
100
AcDbEntity
  8
0
  6
CONTINUOUS
 62
     7
100
AcDbCircle
 10
460.2650374638
 20
72.4915769368
 30
0.0
 40
2.49807621135335
  0
LINE
  5
10D
330
1F
100
AcDbEntity
  8
0
  6
CONTINUOUS
 62
     7
100
AcDbLine
 10
423.3368422936
 20
76.4915788028
 30
0.0
 11
381.0792651127
 21
76.4915788028
 31
0.0
  0
CIRCLE
  5
10E
330
1F
100
AcDbEntity
  8
0
  6
CONTINUOUS
 62
     7
100
AcDbCircle
 10
319.7826600196
 20
84.471436873
 30
0.0
 40
1.399999999999977
  0
CIRCLE
  5
10F
330
1F
100
AcDbEntity
  8
0
  6
CONTINUOUS
 62
     7
100
AcDbCircle
 10
289.7826600196
 20
84.471436873
 30
0.0
 40
2.49807621135335
  0
LINE
  5
110
330
1F
100
AcDbEntity
  8
0
  6
CONTINUOUS
 62
     7
100
AcDbLine
 10
421.5146985005
 20
84.4714337442
 30
0.0
 11
420.6486728142
 21
85.971436784
 31
0.0
  0
LINE
  5
111
330
1F
100
AcDbEntity
  8
0
  6
CONTINUOUS
 62
     7
100
AcDbLine
 10
420.6486728142
 20
85.971436784
 30
0.0
 11
418.9166214417
 21
85.971436784
 31
0.0
  0
LINE
  5
112
330
1F
100
AcDbEntity
  8
0
  6
CONTINUOUS
 62
     7
100
AcDbLine
 10
418.9166214417
 20
85.971436784
 30
0.0
 11
418.0505957554
 21
84.4714337442
 31
0.0
  0
LINE
  5
113
330
1F
100
AcDbEntity
  8
0
  6
CONTINUOUS
 62
     7
100
AcDbLine
 10
418.0505957554
 20
84.4714337442
 30
0.0
 11
418.9166214417
 21
82.9714381549
 31
0.0
  0
LINE
  5
114
330
1F
100
AcDbEntity
  8
0
  6
CONTINUOUS
 62
     7
100
AcDbLine
 10
418.9166214417
 20
82.9714381549
 30
0.0
 11
420.6486728142
 21
82.9714381549
 31
0.0
  0
LINE
  5
115
330
1F
100
AcDbEntity
  8
0
  6
CONTINUOUS
 62
     7
100
AcDbLine
 10
420.6486728142
 20
82.9714381549
 30
0.0
 11
421.5146985005
 21
84.4714337442
 31
0.0
  0
CIRCLE
  5
116
330
1F
100
AcDbEntity
  8
0
  6
CONTINUOUS
 62
     7
100
AcDbCircle
 10
449.7826600196
 20
84.471436873
 30
0.0
 40
2.49807621135335
  0
ARC
  5
117
330
1F
100
AcDbEntity
  8
0
  6
CONTINUOUS
 62
     7
100
AcDbCircle
 10
368.9684464572
 20
89.471436873
 30
0.0
 40
1.000000000000048
100
AcDbArc
 50
270.0
 51
315.0
  0
LINE
  5
118
330
1F
100
AcDbEntity
  8
0
  6
CONTINUOUS
 62
     7
100
AcDbLine
 10
369.7826650094
 20
88.8714337204
 30
0.0
 11
369.6755554627
 21
88.7643316243
 31
0.0
  0
LINE
  5
119
330
1F
100
AcDbEntity
  8
0
  6
CONTINUOUS
 62
     7
100
AcDbLine
 10
369.889774556
 20
88.7643316243
 30
0.0
 11
369.7826650094
 21
88.8714337204
 31
0.0
  0
ARC
  5
11A
330
1F
100
AcDbEntity
  8
0
  6
CONTINUOUS
 62
     7
100
AcDbCircle
 10
370.596873582
 20
89.471436873
 30
0.0
 40
1.000000000000008
100
AcDbArc
 50
225.0
 51
270.0
  0
LINE
  5
11B
330
1F
100
AcDbEntity
  8
0
  6
CONTINUOUS
 62
     7
100
AcDbLine
 10
412.8544714402
 20
88.4714343999
 30
0.0
 11
370.596864457
 21
88.4714343999
 31
0.0
  0
ARC
  5
11C
330
1F
100
AcDbEntity
  8
0
  6
CONTINUOUS
 62
     7
100
AcDbCircle
 10
412.8544567893
 20
91.471436873
 30
0.0
 40
3.0
100
AcDbArc
 50
270.0
 51
330.0
  0
LINE
  5
11D
330
1F
100
AcDbEntity
  8
0
  6
CONTINUOUS
 62
     7
100
AcDbLine
 10
416.0298790883
 20
90.9714394663
 30
0.0
 11
415.4525186966
 21
89.9714374397
 31
0.0
  0
LINE
  5
11E
330
1F
100
AcDbEntity
  8
0
  6
CONTINUOUS
 62
     7
100
AcDbLine
 10
423.53544497
 20
90.9714394663
 30
0.0
 11
416.0298790883
 21
90.9714394663
 31
0.0
  0
LINE
  5
11F
330
1F
100
AcDbEntity
  8
0
  6
CONTINUOUS
 62
     7
100
AcDbLine
 10
424.1127755593
 20
89.9714374397
 30
0.0
 11
423.53544497
 21
90.9714394663
 31
0.0
  0
ARC
  5
120
330
1F
100
AcDbEntity
  8
0
  6
CONTINUOUS
 62
     7
100
AcDbCircle
 10
426.7108632499
 20
91.471436873
 30
0.0
 40
3.000000000000049
100
AcDbArc
 50
210.0
 51
270.0
  0
ARC
  5
121
330
1F
100
AcDbEntity
  8
0
  6
CONTINUOUS
 62
     7
100
AcDbCircle
 10
436.7841985722
 20
136.471436873
 30
0.0
 40
48.00000000000001
100
AcDbArc
 50
270.0
 51
284.0346479352
  0
ARC
  5
122
330
1F
100
AcDbEntity
  8
0
  6
CONTINUOUS
 62
     7
100
AcDbCircle
 10
449.7826600196
 20
84.471436873
 30
0.0
 40
5.599999999999994
100
AcDbArc
 50
255.9653520648
 51
104.0346479352
  0
ARC
  5
123
330
1F
100
AcDbEntity
  8
0
  6
CONTINUOUS
 62
     7
100
AcDbCircle
 10
436.7841985722
 20
32.471436873
 30
0.0
 40
48.00000000000001
100
AcDbArc
 50
75.9653520648
 51
90.0
  0
LINE
  5
124
330
1F
100
AcDbEntity
  8
0
  6
CONTINUOUS
 62
     7
100
AcDbLine
 10
426.7108526181
 20
80.4714405391
 30
0.0
 11
436.7841865967
 21
80.4714405391
 31
0.0
  0
ARC
  5
125
330
1F
100
AcDbEntity
  8
0
  6
CONTINUOUS
 62
     7
100
AcDbCircle
 10
426.7108632499
 20
77.471436873
 30
0.0
 40
3.000000000000042
100
AcDbArc
 50
90.0
 51
150.0
  0
LINE
  5
126
330
1F
100
AcDbEntity
  8
0
  6
CONTINUOUS
 62
     7
100
AcDbLine
 10
423.53544497
 20
77.9714354727
 30
0.0
 11
424.1127755593
 21
78.9714374993
 31
0.0
  0
LINE
  5
127
330
1F
100
AcDbEntity
  8
0
  6
CONTINUOUS
 62
     7
100
AcDbLine
 10
416.0298790883
 20
77.9714354727
 30
0.0
 11
423.53544497
 21
77.9714354727
 31
0.0
  0
LINE
  5
128
330
1F
100
AcDbEntity
  8
0
  6
CONTINUOUS
 62
     7
100
AcDbLine
 10
415.4525186966
 20
78.9714374993
 30
0.0
 11
416.0298790883
 21
77.9714354727
 31
0.0
  0
ARC
  5
129
330
1F
100
AcDbEntity
  8
0
  6
CONTINUOUS
 62
     7
100
AcDbCircle
 10
412.8544567893
 20
77.471436873
 30
0.0
 40
2.999999999999993
100
AcDbArc
 50
30.0
 51
90.0
  0
ARC
  5
12A
330
1F
100
AcDbEntity
  8
0
  6
CONTINUOUS
 62
     7
100
AcDbCircle
 10
370.596873582
 20
79.471436873
 30
0.0
 40
1.000000000000008
100
AcDbArc
 50
90.0
 51
135.0
  0
LINE
  5
12B
330
1F
100
AcDbEntity
  8
0
  6
CONTINUOUS
 62
     7
100
AcDbLine
 10
369.7826650094
 20
80.071433768
 30
0.0
 11
369.889774556
 21
80.1785433147
 31
0.0
  0
LINE
  5
12C
330
1F
100
AcDbEntity
  8
0
  6
CONTINUOUS
 62
     7
100
AcDbLine
 10
369.6755554627
 20
80.1785433147
 30
0.0
 11
369.7826650094
 21
80.071433768
 31
0.0
  0
ARC
  5
12D
330
1F
100
AcDbEntity
  8
0
  6
CONTINUOUS
 62
     7
100
AcDbCircle
 10
368.9684464572
 20
79.471436873
 30
0.0
 40
1.000000000000048
100
AcDbArc
 50
45.0
 51
90.0
  0
LINE
  5
12E
330
1F
100
AcDbEntity
  8
0
  6
CONTINUOUS
 62
     7
100
AcDbLine
 10
328.5147782515
 20
80.4714405391
 30
0.0
 11
368.9684357594
 21
80.4714405391
 31
0.0
  0
ARC
  5
12F
330
1F
100
AcDbEntity
  8
0
  6
CONTINUOUS
 62
     7
100
AcDbCircle
 10
328.5147846179
 20
70.471436873
 30
0.0
 40
10.00000000000003
100
AcDbArc
 50
90.0
 51
121.9527464003
  0
ARC
  5
130
330
1F
100
AcDbEntity
  8
0
  6
CONTINUOUS
 62
     7
100
AcDbCircle
 10
319.7826600196
 20
84.471436873
 30
0.0
 40
6.50000000000001
100
AcDbArc
 50
238.0472535997
 51
301.9527464003
  0
ARC
  5
131
330
1F
100
AcDbEntity
  8
0
  6
CONTINUOUS
 62
     7
100
AcDbCircle
 10
311.0505354213
 20
70.471436873
 30
0.0
 40
9.999999999999986
100
AcDbArc
 50
58.0472535997
 51
90.0
  0
LINE
  5
132
330
1F
100
AcDbEntity
  8
0
  6
CONTINUOUS
 62
     7
100
AcDbLine
 10
302.7811285208
 20
80.4714405391
 30
0.0
 11
311.0505428265
 21
80.4714405391
 31
0.0
  0
ARC
  5
133
330
1F
100
AcDbEntity
  8
0
  6
CONTINUOUS
 62
     7
100
AcDbCircle
 10
302.781121467
 20
32.471436873
 30
0.0
 40
48.0
100
AcDbArc
 50
90.0
 51
104.0346479352
  0
ARC
  5
134
330
1F
100
AcDbEntity
  8
0
  6
CONTINUOUS
 62
     7
100
AcDbCircle
 10
289.7826600196
 20
84.471436873
 30
0.0
 40
5.600000000000009
100
AcDbArc
 50
75.9653520648
 51
284.0346479352
  0
ARC
  5
135
330
1F
100
AcDbEntity
  8
0
  6
CONTINUOUS
 62
     7
100
AcDbCircle
 10
302.781121467
 20
136.471436873
 30
0.0
 40
47.99999999999999
100
AcDbArc
 50
255.9653520648
 51
270.0
  0
ARC
  5
136
330
1F
100
AcDbEntity
  8
0
  6
CONTINUOUS
 62
     7
100
AcDbCircle
 10
311.0505354213
 20
98.471436873
 30
0.0
 40
9.999999999999986
100
AcDbArc
 50
270.0
 51
301.9527464003
  0
ARC
  5
137
330
1F
100
AcDbEntity
  8
0
  6
CONTINUOUS
 62
     7
100
AcDbCircle
 10
319.7826600196
 20
84.471436873
 30
0.0
 40
6.500000000000022
100
AcDbArc
 50
58.0472535997
 51
121.9527464003
  0
ARC
  5
138
330
1F
100
AcDbEntity
  8
0
  6
CONTINUOUS
 62
     7
100
AcDbCircle
 10
328.5147846179
 20
98.471436873
 30
0.0
 40
10.00000000000003
100
AcDbArc
 50
238.0472535997
 51
270.0
  0
LINE
  5
139
330
1F
100
AcDbEntity
  8
0
  6
CONTINUOUS
 62
     7
100
AcDbLine
 10
370.596864457
 20
80.4714405391
 30
0.0
 11
412.8544714402
 21
80.4714405391
 31
0.0
  0
LINE
  5
13A
330
1F
100
AcDbEntity
  8
0
  6
CONTINUOUS
 62
     7
100
AcDbLine
 10
436.7841865967
 20
88.4714343999
 30
0.0
 11
426.7108526181
 21
88.4714343999
 31
0.0
  0
LINE
  5
13B
330
1F
100
AcDbEntity
  8
0
  6
CONTINUOUS
 62
     7
100
AcDbLine
 10
311.0505428265
 20
88.4714343999
 30
0.0
 11
302.7811285208
 21
88.4714343999
 31
0.0
  0
LINE
  5
13C
330
1F
100
AcDbEntity
  8
0
  6
CONTINUOUS
 62
     7
100
AcDbLine
 10
368.9684357594
 20
88.4714343999
 30
0.0
 11
328.5147782515
 21
88.4714343999
 31
0.0
  0
CIRCLE
  5
13D
330
1F
100
AcDbEntity
  8
0
  6
CONTINUOUS
 62
     7
100
AcDbCircle
 10
412.1475835972
 20
126.8720724538
 30
0.0
 40
1.5
  0
CIRCLE
  5
13E
330
1F
100
AcDbEntity
  8
0
  6
CONTINUOUS
 62
     7
100
AcDbCircle
 10
412.1475835972
 20
126.8720724538
 30
0.0
 40
3.0
  0
CIRCLE
  5
13F
330
1F
100
AcDbEntity
  8
0
  6
CONTINUOUS
 62
     7
100
AcDbCircle
 10
397.9390378254
 20
136.2892323233
 30
0.0
 40
1.5
  0
CIRCLE
  5
140
330
1F
100
AcDbEntity
  8
0
  6
CONTINUOUS
 62
     7
100
AcDbCircle
 10
397.9390378254
 20
136.2892323233
 30
0.0
 40
3.0
  0
CIRCLE
  5
141
330
1F
100
AcDbEntity
  8
0
  6
CONTINUOUS
 62
     7
100
AcDbCircle
 10
402.7877467299
 20
127.0311677107
 30
0.0
 40
3.0
  0
CIRCLE
  5
142
330
1F
100
AcDbEntity
  8
0
  6
CONTINUOUS
 62
     7
100
AcDbCircle
 10
402.7877467299
 20
127.0311677107
 30
0.0
 40
1.5
  0
CIRCLE
  5
143
330
1F
100
AcDbEntity
  8
0
  6
CONTINUOUS
 62
     7
100
AcDbCircle
 10
393.5708116092
 20
127.1764306859
 30
0.0
 40
1.5
  0
CIRCLE
  5
144
330
1F
100
AcDbEntity
  8
0
  6
CONTINUOUS
 62
     7
100
AcDbCircle
 10
393.5708116092
 20
127.1764306859
 30
0.0
 40
3.0
  0
CIRCLE
  5
145
330
1F
100
AcDbEntity
  8
0
  6
CONTINUOUS
 62
     7
100
AcDbCircle
 10
407.7175718729
 20
135.9878951572
 30
0.0
 40
1.5
  0
CIRCLE
  5
146
330
1F
100
AcDbEntity
  8
0
  6
CONTINUOUS
 62
     7
100
AcDbCircle
 10
407.7175718729
 20
135.9878951572
 30
0.0
 40
3.0
  0
CIRCLE
  5
147
330
1F
100
AcDbEntity
  8
0
  6
CONTINUOUS
 62
     7
100
AcDbCircle
 10
387.1037796167
 20
147.574385212
 30
0.0
 40
1.37499999999997
  0
CIRCLE
  5
148
330
1F
100
AcDbEntity
  8
0
  6
CONTINUOUS
 62
     7
100
AcDbCircle
 10
408.1405536316
 20
159.9620459697
 30
0.0
 40
1.374999999999972
  0
ARC
  5
149
330
1F
100
AcDbEntity
  8
0
  6
CONTINUOUS
 62
     7
100
AcDbCircle
 10
386.9283998567
 20
135.5510815167
 30
0.0
 40
4.000000000000051
100
AcDbArc
 50
178.9138230922
 51
265.5
  0
LINE
  5
14A
330
1F
100
AcDbEntity
  8
0
  6
CONTINUOUS
 62
     7
100
AcDbLine
 10
383.1658449124
 20
148.1131607149
 30
0.0
 11
382.9291250657
 21
135.6269115064
 31
0.0
  0
LINE
  5
14B
330
1F
100
AcDbEntity
  8
0
  6
CONTINUOUS
 62
     7
100
AcDbLine
 10
408.5563805054
 20
165.2457111929
 30
0.0
 11
402.5748755883
 21
165.7164686773
 31
0.0
  0
ARC
  5
14C
330
1F
100
AcDbEntity
  8
0
  6
CONTINUOUS
 62
     7
100
AcDbCircle
 10
408.2033209082
 20
160.7595798367
 30
0.0
 40
4.500000000000021
100
AcDbArc
 50
355.5
 51
85.5
  0
LINE
  5
14D
330
1F
100
AcDbEntity
  8
0
  6
CONTINUOUS
 62
     7
100
AcDbLine
 10
411.9205560635
 20
150.6367170665
 30
0.0
 11
412.6894559811
 21
160.4065143917
 31
0.0
  0
ARC
  5
14E
330
1F
100
AcDbEntity
  8
0
  6
CONTINUOUS
 62
     7
100
AcDbCircle
 10
407.43442177
 20
150.9897899661
 30
0.0
 40
4.50000000000002
100
AcDbArc
 50
233.2008142343
 51
355.5
  0
ARC
  5
14F
330
1F
100
AcDbEntity
  8
0
  6
CONTINUOUS
 62
     7
100
AcDbCircle
 10
399.639115088
 20
140.5692797239
 30
0.0
 40
8.513602113739008
100
AcDbArc
 50
53.2008142343
 51
149.1978344361
  0
ARC
  5
150
330
1F
100
AcDbEntity
  8
0
  6
CONTINUOUS
 62
     7
100
AcDbCircle
 10
395.7621992374
 20
142.8805840155
 30
0.0
 40
4.000000000000026
100
AcDbArc
 50
149.1978344361
 51
175.5
  0
LINE
  5
151
330
1F
100
AcDbEntity
  8
0
  6
CONTINUOUS
 62
     7
100
AcDbLine
 10
391.1468472432
 20
135.2190816257
 30
0.0
 11
391.7745437573
 21
143.1944215152
 31
0.0
  0
ARC
  5
152
330
1F
100
AcDbEntity
  8
0
  6
CONTINUOUS
 62
     7
100
AcDbCircle
 10
387.1591878017
 20
135.5329181115
 30
0.0
 40
4.000000000000028
100
AcDbArc
 50
265.5
 51
355.5
  0
LINE
  5
153
330
1F
100
AcDbEntity
  8
0
  6
CONTINUOUS
 62
     7
100
AcDbLine
 10
386.6145696591
 20
131.5634095523
 30
0.0
 11
386.8453588437
 21
131.5452450369
 31
0.0
  0
CIRCLE
  5
154
330
1F
100
AcDbEntity
  8
0
  6
CONTINUOUS
 62
     7
100
AcDbCircle
 10
407.43442177
 20
150.9897899661
 30
0.0
 40
1.37499999999997
  0
ARC
  5
155
330
1F
100
AcDbEntity
  8
0
  6
CONTINUOUS
 62
     7
100
AcDbCircle
 10
401.1626191134
 20
147.7719504057
 30
0.0
 40
18.00000000000005
100
AcDbArc
 50
85.5
 51
178.9138230922
  0
ARC
  5
156
330
1F
100
AcDbEntity
  8
0
  6
CONTINUOUS
 62
     7
100
AcDbCircle
 10
433.2025428224
 20
160.4759990252
 30
0.0
 40
1.600000000000026
100
AcDbArc
 50
269.5
 51
89.5
  0
LINE
  5
157
330
1F
100
AcDbEntity
  8
0
  6
CONTINUOUS
 62
     7
100
AcDbLine
 10
433.2164909791
 20
162.0759361837
 30
0.0
 11
430.2166190098
 21
162.1021175239
 31
0.0
  0
ARC
  5
158
330
1F
100
AcDbEntity
  8
0
  6
CONTINUOUS
 62
     7
100
AcDbCircle
 10
430.2026570532
 20
160.5021786317
 30
0.0
 40
1.600000000000026
100
AcDbArc
 50
89.5
 51
269.5
  0
LINE
  5
159
330
1F
100
AcDbEntity
  8
0
  6
CONTINUOUS
 62
     7
100
AcDbLine
 10
462.8828849743
 20
123.7155938003
 30
0.0
 11
466.9176425885
 21
127.6805394743
 31
0.0
  0
LINE
  5
15A
330
1F
100
AcDbEntity
  8
0
  6
CONTINUOUS
 62
     7
100
AcDbLine
 10
417.6994051884
 20
158.62481235
 30
0.0
 11
417.6063027333
 21
147.9567879293
 31
0.0
  0
LINE
  5
15B
330
1F
100
AcDbEntity
  8
0
  6
CONTINUOUS
 62
     7
100
AcDbLine
 10
425.2508368443
 20
166.0456055257
 30
0.0
 11
417.6994051884
 21
158.62481235
 31
0.0
  0
LINE
  5
15C
330
1F
100
AcDbEntity
  8
0
  6
CONTINUOUS
 62
     7
100
AcDbLine
 10
463.2493939351
 20
165.7139950845
 30
0.0
 11
425.2508368443
 21
166.0456055257
 31
0.0
  0
LINE
  5
15D
330
1F
100
AcDbEntity
  8
0
  6
CONTINUOUS
 62
     7
100
AcDbLine
 10
467.2143247078
 20
161.6792374704
 30
0.0
 11
463.2493939351
 21
165.7139950845
 31
0.0
  0
ARC
  5
15E
330
1F
100
AcDbEntity
  8
0
  6
CONTINUOUS
 62
     7
100
AcDbCircle
 10
421.0677384454
 20
145.0813076437
 30
0.0
 40
4.499999999999996
100
AcDbArc
 50
218.7169833554
 51
140.2830166446
  0
ARC
  5
15F
330
1F
100
AcDbEntity
  8
0
  6
CONTINUOUS
 62
     7
100
AcDbCircle
 10
432.9320202219
 20
129.4771794102
 30
0.0
 40
1.600000000000026
100
AcDbArc
 50
269.5
 51
89.5
  0
LINE
  5
160
330
1F
100
AcDbEntity
  8
0
  6
CONTINUOUS
 62
     7
100
AcDbLine
 10
429.9181785534
 20
127.9034161422
 30
0.0
 11
432.9180505227
 21
127.877234802
 31
0.0
  0
ARC
  5
161
330
1F
100
AcDbEntity
  8
0
  6
CONTINUOUS
 62
     7
100
AcDbCircle
 10
429.9321344527
 20
129.5033590167
 30
0.0
 40
1.600000000000026
100
AcDbArc
 50
89.5
 51
269.5
  0
LINE
  5
162
330
1F
100
AcDbEntity
  8
0
  6
CONTINUOUS
 62
     7
100
AcDbLine
 10
430.1886942338
 20
158.9022421692
 30
0.0
 11
433.188566203
 21
158.8760608289
 31
0.0
  0
ARC
  5
163
330
1F
100
AcDbEntity
  8
0
  6
CONTINUOUS
 62
     7
100
AcDbCircle
 10
463.9308398369
 20
129.2066568098
 30
0.0
 40
1.599999999999983
100
AcDbArc
 50
269.5
 51
89.5
  0
LINE
  5
164
330
1F
100
AcDbEntity
  8
0
  6
CONTINUOUS
 62
     7
100
AcDbLine
 10
460.9170045804
 20
127.6329004619
 30
0.0
 11
463.9168765496
 21
127.6067191217
 31
0.0
  0
ARC
  5
165
330
1F
100
AcDbEntity
  8
0
  6
CONTINUOUS
 62
     7
100
AcDbCircle
 10
460.9309540677
 20
129.2328364163
 30
0.0
 40
1.600000000000026
100
AcDbArc
 50
89.5
 51
269.5
  0
LINE
  5
166
330
1F
100
AcDbEntity
  8
0
  6
CONTINUOUS
 62
     7
100
AcDbLine
 10
444.4691028546
 20
133.6766624305
 30
0.0
 11
447.4690046261
 21
133.6504810903
 31
0.0
  0
ARC
  5
167
330
1F
100
AcDbEntity
  8
0
  6
CONTINUOUS
 62
     7
100
AcDbCircle
 10
464.2013624374
 20
160.2054764248
 30
0.0
 40
1.599999999999969
100
AcDbArc
 50
269.5
 51
89.5
  0
LINE
  5
168
330
1F
100
AcDbEntity
  8
0
  6
CONTINUOUS
 62
     7
100
AcDbLine
 10
461.1875202607
 20
158.6317115877
 30
0.0
 11
464.1873922299
 21
158.6055302475
 31
0.0
  0
ARC
  5
169
330
1F
100
AcDbEntity
  8
0
  6
CONTINUOUS
 62
     7
100
AcDbCircle
 10
461.2014766682
 20
160.2316560313
 30
0.0
 40
1.600000000000026
100
AcDbArc
 50
89.5
 51
269.5
  0
LINE
  5
16A
330
1F
100
AcDbEntity
  8
0
  6
CONTINUOUS
 62
     7
100
AcDbLine
 10
447.6644780587
 20
156.0496234748
 30
0.0
 11
444.6645762871
 21
156.0758048151
 31
0.0
  0
ARC
  5
16B
330
1F
100
AcDbEntity
  8
0
  6
CONTINUOUS
 62
     7
100
AcDbCircle
 10
447.5667294066
 20
144.850054453
 30
0.0
 40
11.20000000000001
100
AcDbArc
 50
269.5
 51
89.5
  0
LINE
  5
16C
330
1F
100
AcDbEntity
  8
0
  6
CONTINUOUS
 62
     7
100
AcDbLine
 10
424.8843278836
 20
124.0472042415
 30
0.0
 11
462.8828849743
 21
123.7155938003
 31
0.0
  0
ARC
  5
16D
330
1F
100
AcDbEntity
  8
0
  6
CONTINUOUS
 62
     7
100
AcDbCircle
 10
444.5668436374
 20
144.8762340595
 30
0.0
 40
11.20000000000001
100
AcDbArc
 50
89.5
 51
269.5
  0
LINE
  5
16E
330
1F
100
AcDbEntity
  8
0
  6
CONTINUOUS
 62
     7
100
AcDbLine
 10
466.9176425885
 20
127.6805394743
 30
0.0
 11
467.2143247078
 21
161.6792374704
 31
0.0
  0
LINE
  5
16F
330
1F
100
AcDbEntity
  8
0
  6
CONTINUOUS
 62
     7
100
AcDbLine
 10
417.463549609
 20
131.5986507986
 30
0.0
 11
424.8843278836
 21
124.0472042415
 31
0.0
  0
LINE
  5
170
330
1F
100
AcDbEntity
  8
0
  6
CONTINUOUS
 62
     7
100
AcDbLine
 10
417.5566222619
 20
142.2666752193
 30
0.0
 11
417.463549609
 21
131.5986507986
 31
0.0
  0
LINE
  5
171
330
1F
100
AcDbEntity
  8
0
  6
CONTINUOUS
 62
     7
100
AcDbLine
 10
432.9459752987
 20
131.0771250579
 30
0.0
 11
429.9461033295
 21
131.103291497
 31
0.0
  0
LINE
  5
172
330
1F
100
AcDbEntity
  8
0
  6
CONTINUOUS
 62
     7
100
AcDbLine
 10
464.215317006
 20
161.8054205034
 30
0.0
 11
461.2154450367
 21
161.8316018436
 31
0.0
  0
LINE
  5
173
330
1F
100
AcDbEntity
  8
0
  6
CONTINUOUS
 62
     7
100
AcDbLine
 10
463.9448013257
 20
130.8065944765
 30
0.0
 11
460.9449293564
 21
130.8327758167
 31
0.0
  0
CIRCLE
  5
174
330
1F
100
AcDbEntity
  8
0
  6
CONTINUOUS
 62
     7
100
AcDbCircle
 10
523.1648590333
 20
190.1298083636
 30
0.0
 40
1.5
  0
CIRCLE
  5
175
330
1F
100
AcDbEntity
  8
0
  6
CONTINUOUS
 62
     7
100
AcDbCircle
 10
492.1648590333
 20
12.0898083636
 30
0.0
 40
1.500000000000002
  0
CIRCLE
  5
176
330
1F
100
AcDbEntity
  8
0
  6
CONTINUOUS
 62
     7
100
AcDbCircle
 10
523.1648590333
 20
12.0898083636
 30
0.0
 40
1.500000000000002
  0
CIRCLE
  5
177
330
1F
100
AcDbEntity
  8
0
  6
CONTINUOUS
 62
     7
100
AcDbCircle
 10
492.1648590333
 20
190.1298083636
 30
0.0
 40
1.5
  0
ARC
  5
178
330
1F
100
AcDbEntity
  8
0
  6
CONTINUOUS
 62
     7
100
AcDbCircle
 10
103.3182107069
 20
191.4298083635
 30
0.0
 40
2.849999999999967
100
AcDbArc
 50
31.7568638593
 51
328.2431361407
  0
LINE
  5
179
330
1F
100
AcDbEntity
  8
0
  6
CONTINUOUS
 62
     7
100
AcDbLine
 10
105.7415355097
 20
189.929812536
 30
0.0
 11
108.1648592006
 21
189.929812536
 31
0.0
  0
ARC
  5
17A
330
1F
100
AcDbEntity
  8
0
  6
CONTINUOUS
 62
     7
100
AcDbCircle
 10
108.1648590333
 20
191.4298083635
 30
0.0
 40
1.5
100
AcDbArc
 50
270.0
 51
90.0
  0
LINE
  5
17B
330
1F
100
AcDbEntity
  8
0
  6
CONTINUOUS
 62
     7
100
AcDbLine
 10
108.1648592006
 20
192.9298037145
 30
0.0
 11
105.7415355097
 21
192.9298037145
 31
0.0
  0
ARC
  5
17C
330
1F
100
AcDbEntity
  8
0
  6
CONTINUOUS
 62
     7
100
AcDbCircle
 10
103.3182107069
 20
10.7898083635
 30
0.0
 40
2.850000000000015
100
AcDbArc
 50
31.7568638593
 51
328.2431361407
  0
LINE
  5
17D
330
1F
100
AcDbEntity
  8
0
  6
CONTINUOUS
 62
     7
100
AcDbLine
 10
105.7415355097
 20
9.2898079608
 30
0.0
 11
108.1648592006
 21
9.2898079608
 31
0.0
  0
ARC
  5
17E
330
1F
100
AcDbEntity
  8
0
  6
CONTINUOUS
 62
     7
100
AcDbCircle
 10
108.1648590333
 20
10.7898083635
 30
0.0
 40
1.500000000000002
100
AcDbArc
 50
270.0
 51
90.0
  0
LINE
  5
17F
330
1F
100
AcDbEntity
  8
0
  6
CONTINUOUS
 62
     7
100
AcDbLine
 10
108.1648592006
 20
12.2898084525
 30
0.0
 11
105.7415355097
 21
12.2898084525
 31
0.0
  0
CIRCLE
  5
180
330
1F
100
AcDbEntity
  8
0
  6
CONTINUOUS
 62
     7
100
AcDbCircle
 10
484.1648590333
 20
101.1098083636
 30
0.0
 40
1.5
  0
CIRCLE
  5
181
330
1F
100
AcDbEntity
  8
0
  6
CONTINUOUS
 62
     7
100
AcDbCircle
 10
100.1648590333
 20
101.1098083635
 30
0.0
 40
1.500000000000014
  0
ARC
  5
182
330
1F
100
AcDbEntity
  8
0
  6
CONTINUOUS
 62
     7
100
AcDbCircle
 10
506.2648590333
 20
60.4098083636
 30
0.0
 40
0.8000000000000682
100
AcDbArc
 50
270.0
 51
0.0
  0
ARC
  5
183
330
1F
100
AcDbEntity
  8
0
  6
CONTINUOUS
 62
     7
100
AcDbCircle
 10
506.2648590333
 20
73.8098083636
 30
0.0
 40
0.8000000000000682
100
AcDbArc
 50
0.0
 51
90.0
  0
LINE
  5
184
330
1F
100
AcDbEntity
  8
0
  6
CONTINUOUS
 62
     7
100
AcDbLine
 10
506.2648441742
 20
74.6098080132
 30
0.0
 11
493.7648560952
 21
74.6098080132
 31
0.0
  0
ARC
  5
185
330
1F
100
AcDbEntity
  8
0
  6
CONTINUOUS
 62
     7
100
AcDbCircle
 10
493.7648590333
 20
73.8098083636
 30
0.0
 40
0.7999999999999972
100
AcDbArc
 50
90.0
 51
180.0
  0
LINE
  5
186
330
1F
100
AcDbEntity
  8
0
  6
CONTINUOUS
 62
     7
100
AcDbLine
 10
492.9648723553
 20
73.8098093722
 30
0.0
 11
492.9648723553
 21
60.4098097835
 31
0.0
  0
ARC
  5
187
330
1F
100
AcDbEntity
  8
0
  6
CONTINUOUS
 62
     7
100
AcDbCircle
 10
493.7648590333
 20
60.4098083636
 30
0.0
 40
0.7999999999999972
100
AcDbArc
 50
180.0
 51
270.0
  0
LINE
  5
188
330
1F
100
AcDbEntity
  8
0
  6
CONTINUOUS
 62
     7
100
AcDbLine
 10
493.7648560952
 20
59.6098074172
 30
0.0
 11
506.2648441742
 21
59.6098074172
 31
0.0
  0
ARC
  5
189
330
1F
100
AcDbEntity
  8
0
  6
CONTINUOUS
 62
     7
100
AcDbCircle
 10
495.1648590333
 20
81.4098083636
 30
0.0
 40
0.799999999999983
100
AcDbArc
 50
270.0
 51
0.0
  0
ARC
  5
18A
330
1F
100
AcDbEntity
  8
0
  6
CONTINUOUS
 62
     7
100
AcDbCircle
 10
495.1648590333
 20
94.8098083636
 30
0.0
 40
0.7999999999999972
100
AcDbArc
 50
0.0
 51
90.0
  0
LINE
  5
18B
330
1F
100
AcDbEntity
  8
0
  6
CONTINUOUS
 62
     7
100
AcDbLine
 10
495.1648499917
 20
95.6098058674
 30
0.0
 11
493.7648560952
 21
95.6098058674
 31
0.0
  0
ARC
  5
18C
330
1F
100
AcDbEntity
  8
0
  6
CONTINUOUS
 62
     7
100
AcDbCircle
 10
493.7648590333
 20
94.8098083636
 30
0.0
 40
0.8000000000000114
100
AcDbArc
 50
90.0
 51
180.0
  0
LINE
  5
18D
330
1F
100
AcDbEntity
  8
0
  6
CONTINUOUS
 62
     7
100
AcDbLine
 10
492.9648723553
 20
94.8098072264
 30
0.0
 11
492.9648723553
 21
81.409811363
 31
0.0
  0
ARC
  5
18E
330
1F
100
AcDbEntity
  8
0
  6
CONTINUOUS
 62
     7
100
AcDbCircle
 10
493.7648590333
 20
81.4098083636
 30
0.0
 40
0.8000000000000114
100
AcDbArc
 50
180.0
 51
270.0
  0
LINE
  5
18F
330
1F
100
AcDbEntity
  8
0
  6
CONTINUOUS
 62
     7
100
AcDbLine
 10
493.7648560952
 20
80.6098052714
 30
0.0
 11
495.1648499917
 21
80.6098052714
 31
0.0
  0
ARC
  5
190
330
1F
100
AcDbEntity
  8
0
  6
CONTINUOUS
 62
     7
100
AcDbCircle
 10
498.6648590333
 20
97.9098083636
 30
0.0
 40
0.799999999999983
100
AcDbArc
 50
270.0
 51
0.0
  0
LINE
  5
191
330
1F
100
AcDbEntity
  8
0
  6
CONTINUOUS
 62
     7
100
AcDbLine
 10
499.464848275
 20
97.9098075483
 30
0.0
 11
499.464848275
 21
109.3098068092
 31
0.0
  0
ARC
  5
192
330
1F
100
AcDbEntity
  8
0
  6
CONTINUOUS
 62
     7
100
AcDbCircle
 10
498.6648590333
 20
109.3098083636
 30
0.0
 40
0.8000000000000114
100
AcDbArc
 50
0.0
 51
90.0
  0
ARC
  5
193
330
1F
100
AcDbEntity
  8
0
  6
CONTINUOUS
 62
     7
100
AcDbCircle
 10
491.2648590333
 20
109.3098083636
 30
0.0
 40
0.8000000000000114
100
AcDbArc
 50
90.0
 51
180.0
  0
LINE
  5
194
330
1F
100
AcDbEntity
  8
0
  6
CONTINUOUS
 62
     7
100
AcDbLine
 10
490.4648449372
 20
109.3098068092
 30
0.0
 11
490.4648449372
 21
97.9098075483
 31
0.0
  0
ARC
  5
195
330
1F
100
AcDbEntity
  8
0
  6
CONTINUOUS
 62
     7
100
AcDbCircle
 10
491.2648590333
 20
97.9098083636
 30
0.0
 40
0.8000000000000114
100
AcDbArc
 50
180.0
 51
270.0
  0
LINE
  5
196
330
1F
100
AcDbEntity
  8
0
  6
CONTINUOUS
 62
     7
100
AcDbLine
 10
491.2648584794
 20
97.1098089073
 30
0.0
 11
498.6648645352
 21
97.1098089073
 31
0.0
  0
LINE
  5
197
330
1F
100
AcDbEntity
  8
0
  6
CONTINUOUS
 62
     7
100
AcDbLine
 10
141.7648580025
 20
103.1098061655
 30
0.0
 11
131.7648600887
 21
103.1098061655
 31
0.0
  0
ARC
  5
198
330
1F
100
AcDbEntity
  8
0
  6
CONTINUOUS
 62
     7
100
AcDbCircle
 10
131.7648590333
 20
93.1098083636
 30
0.0
 40
10.0
100
AcDbArc
 50
90.0
 51
270.0
  0
LINE
  5
199
330
1F
100
AcDbEntity
  8
0
  6
CONTINUOUS
 62
     7
100
AcDbLine
 10
131.7648600887
 20
83.1098103378
 30
0.0
 11
141.7648580025
 21
83.1098103378
 31
0.0
  0
ARC
  5
19A
330
1F
100
AcDbEntity
  8
0
  6
CONTINUOUS
 62
     7
100
AcDbCircle
 10
141.7648590333
 20
93.1098083636
 30
0.0
 40
10.0
100
AcDbArc
 50
270.0
 51
90.0
  0
CIRCLE
  5
19B
330
1F
100
AcDbEntity
  8
0
  6
CONTINUOUS
 62
     7
100
AcDbCircle
 10
204.6648590333
 20
101.1098083636
 30
0.0
 40
1.599999999999994
  0
CIRCLE
  5
19C
330
1F
100
AcDbEntity
  8
0
  6
CONTINUOUS
 62
     7
100
AcDbCircle
 10
108.2648590333
 20
108.6098083635
 30
0.0
 40
1.59999999999998
  0
CIRCLE
  5
19D
330
1F
100
AcDbEntity
  8
0
  6
CONTINUOUS
 62
     7
100
AcDbCircle
 10
108.2648590333
 20
77.6098083635
 30
0.0
 40
1.59999999999998
  0
LINE
  5
19E
330
1F
100
AcDbEntity
  8
0
  6
CONTINUOUS
 62
     7
100
AcDbLine
 10
131.3148599218
 20
22.5398087356
 30
0.0
 11
131.3148599218
 21
23.8398083899
 31
0.0
  0
ARC
  5
19F
330
1F
100
AcDbEntity
  8
0
  6
CONTINUOUS
 62
     7
100
AcDbCircle
 10
130.6648590333
 20
23.8398083635
 30
0.0
 40
0.6500000000000057
100
AcDbArc
 50
0.0
 51
180.0
  0
LINE
  5
1A0
330
1F
100
AcDbEntity
  8
0
  6
CONTINUOUS
 62
     7
100
AcDbLine
 10
130.0148602675
 20
23.8398083899
 30
0.0
 11
130.0148602675
 21
22.5398087356
 31
0.0
  0
ARC
  5
1A1
330
1F
100
AcDbEntity
  8
0
  6
CONTINUOUS
 62
     7
100
AcDbCircle
 10
130.6648590333
 20
22.5398083635
 30
0.0
 40
0.6500000000000057
100
AcDbArc
 50
180.0
 51
0.0
  0
LINE
  5
1A2
330
1F
100
AcDbEntity
  8
0
  6
CONTINUOUS
 62
     7
100
AcDbLine
 10
140.8148605476
 20
22.5398087356
 30
0.0
 11
140.8148605476
 21
23.8398083899
 31
0.0
  0
ARC
  5
1A3
330
1F
100
AcDbEntity
  8
0
  6
CONTINUOUS
 62
     7
100
AcDbCircle
 10
140.1648590333
 20
23.8398083636
 30
0.0
 40
0.6499999999999773
100
AcDbArc
 50
0.0
 51
180.0
  0
LINE
  5
1A4
330
1F
100
AcDbEntity
  8
0
  6
CONTINUOUS
 62
     7
100
AcDbLine
 10
139.5148608933
 20
23.8398083899
 30
0.0
 11
139.5148608933
 21
22.5398087356
 31
0.0
  0
ARC
  5
1A5
330
1F
100
AcDbEntity
  8
0
  6
CONTINUOUS
 62
     7
100
AcDbCircle
 10
140.1648590333
 20
22.5398083636
 30
0.0
 40
0.6499999999999773
100
AcDbArc
 50
180.0
 51
0.0
  0
LINE
  5
1A6
330
1F
100
AcDbEntity
  8
0
  6
CONTINUOUS
 62
     7
100
AcDbLine
 10
131.3148599218
 20
178.3798032854
 30
0.0
 11
131.3148599218
 21
179.6798103902
 31
0.0
  0
ARC
  5
1A7
330
1F
100
AcDbEntity
  8
0
  6
CONTINUOUS
 62
     7
100
AcDbCircle
 10
130.6648590333
 20
179.6798083635
 30
0.0
 40
0.6500000000000341
100
AcDbArc
 50
0.0
 51
180.0
  0
LINE
  5
1A8
330
1F
100
AcDbEntity
  8
0
  6
CONTINUOUS
 62
     7
100
AcDbLine
 10
130.0148602675
 20
179.6798103902
 30
0.0
 11
130.0148602675
 21
178.3798032854
 31
0.0
  0
ARC
  5
1A9
330
1F
100
AcDbEntity
  8
0
  6
CONTINUOUS
 62
     7
100
AcDbCircle
 10
130.6648590333
 20
178.3798083635
 30
0.0
 40
0.6500000000000341
100
AcDbArc
 50
180.0
 51
0.0
  0
LINE
  5
1AA
330
1F
100
AcDbEntity
  8
0
  6
CONTINUOUS
 62
     7
100
AcDbLine
 10
140.8148605476
 20
178.3798032854
 30
0.0
 11
140.8148605476
 21
179.6798103902
 31
0.0
  0
ARC
  5
1AB
330
1F
100
AcDbEntity
  8
0
  6
CONTINUOUS
 62
     7
100
AcDbCircle
 10
140.1648590333
 20
179.6798083635
 30
0.0
 40
0.6500000000000341
100
AcDbArc
 50
0.0
 51
180.0
  0
LINE
  5
1AC
330
1F
100
AcDbEntity
  8
0
  6
CONTINUOUS
 62
     7
100
AcDbLine
 10
139.5148608933
 20
179.6798103902
 30
0.0
 11
139.5148608933
 21
178.3798032854
 31
0.0
  0
ARC
  5
1AD
330
1F
100
AcDbEntity
  8
0
  6
CONTINUOUS
 62
     7
100
AcDbCircle
 10
140.1648590333
 20
178.3798083635
 30
0.0
 40
0.6500000000000341
100
AcDbArc
 50
180.0
 51
0.0
  0
LINE
  5
1AE
330
1F
100
AcDbEntity
  8
0
  6
CONTINUOUS
 62
     7
100
AcDbLine
 10
203.6648627471
 20
170.0298035
 30
0.0
 11
205.6648593496
 21
170.0298035
 31
0.0
  0
ARC
  5
1AF
330
1F
100
AcDbEntity
  8
0
  6
CONTINUOUS
 62
     7
100
AcDbCircle
 10
205.6648590333
 20
171.0298083636
 30
0.0
 40
1.000000000000057
100
AcDbArc
 50
270.0
 51
90.0
  0
LINE
  5
1B0
330
1F
100
AcDbEntity
  8
0
  6
CONTINUOUS
 62
     7
100
AcDbLine
 10
205.6648593496
 20
172.0298075531
 30
0.0
 11
203.6648627471
 21
172.0298075531
 31
0.0
  0
ARC
  5
1B1
330
1F
100
AcDbEntity
  8
0
  6
CONTINUOUS
 62
     7
100
AcDbCircle
 10
203.6648590333
 20
171.0298083636
 30
0.0
 40
1.000000000000057
100
AcDbArc
 50
90.0
 51
270.0
  0
LINE
  5
1B2
330
1F
100
AcDbEntity
  8
0
  6
CONTINUOUS
 62
     7
100
AcDbLine
 10
303.1648632239
 20
30.1898078475
 30
0.0
 11
305.1648523758
 21
30.1898078475
 31
0.0
  0
ARC
  5
1B3
330
1F
100
AcDbEntity
  8
0
  6
CONTINUOUS
 62
     7
100
AcDbCircle
 10
305.1648590333
 20
31.1898083636
 30
0.0
 40
1.000000000000057
100
AcDbArc
 50
270.0
 51
0.0
  0
ARC
  5
1B4
330
1F
100
AcDbEntity
  8
0
  6
CONTINUOUS
 62
     7
100
AcDbCircle
 10
439.1648590333
 20
31.1898083636
 30
0.0
 40
1.0
100
AcDbArc
 50
180.0
 51
270.0
  0
LINE
  5
1B5
330
1F
100
AcDbEntity
  8
0
  6
CONTINUOUS
 62
     7
100
AcDbLine
 10
439.1648557137
 20
30.1898078475
 30
0.0
 11
441.1648597668
 21
30.1898078475
 31
0.0
  0
ARC
  5
1B6
330
1F
100
AcDbEntity
  8
0
  6
CONTINUOUS
 62
     7
100
AcDbCircle
 10
441.1648590333
 20
31.1898083636
 30
0.0
 40
1.000000000000057
100
AcDbArc
 50
270.0
 51
0.0
  0
LINE
  5
1B7
330
1F
100
AcDbEntity
  8
0
  6
CONTINUOUS
 62
     7
100
AcDbLine
 10
442.1648468922
 20
31.1898080114
 30
0.0
 11
462.1648576211
 21
31.1898080114
 31
0.0
  0
ARC
  5
1B8
330
1F
100
AcDbEntity
  8
0
  6
CONTINUOUS
 62
     7
100
AcDbCircle
 10
462.1648590333
 20
41.1898083636
 30
0.0
 40
10.0
100
AcDbArc
 50
270.0
 51
0.0
  0
LINE
  5
1B9
330
1F
100
AcDbEntity
  8
0
  6
CONTINUOUS
 62
     7
100
AcDbLine
 10
472.1648480843
 20
41.1898077879
 30
0.0
 11
472.1648480843
 21
161.0298150633
 31
0.0
  0
ARC
  5
1BA
330
1F
100
AcDbEntity
  8
0
  6
CONTINUOUS
 62
     7
100
AcDbCircle
 10
462.1648590333
 20
161.0298083636
 30
0.0
 40
10.00000000000003
100
AcDbArc
 50
0.0
 51
90.0
  0
LINE
  5
1BB
330
1F
100
AcDbEntity
  8
0
  6
CONTINUOUS
 62
     7
100
AcDbLine
 10
462.1648576211
 20
171.0298055265
 30
0.0
 11
442.1648468922
 21
171.0298055265
 31
0.0
  0
ARC
  5
1BC
330
1F
100
AcDbEntity
  8
0
  6
CONTINUOUS
 62
     7
100
AcDbCircle
 10
441.1648590333
 20
171.0298083636
 30
0.0
 40
1.0
100
AcDbArc
 50
360.0
 51
90.0
  0
LINE
  5
1BD
330
1F
100
AcDbEntity
  8
0
  6
CONTINUOUS
 62
     7
100
AcDbLine
 10
441.1648597668
 20
172.0298075531
 30
0.0
 11
439.1648557137
 21
172.0298075531
 31
0.0
  0
ARC
  5
1BE
330
1F
100
AcDbEntity
  8
0
  6
CONTINUOUS
 62
     7
100
AcDbCircle
 10
439.1648590333
 20
171.0298083636
 30
0.0
 40
1.000000000000057
100
AcDbArc
 50
90.0
 51
180.0
  0
ARC
  5
1BF
330
1F
100
AcDbEntity
  8
0
  6
CONTINUOUS
 62
     7
100
AcDbCircle
 10
305.1648590333
 20
171.0298083636
 30
0.0
 40
1.000000000000057
100
AcDbArc
 50
360.0
 51
90.0
  0
LINE
  5
1C0
330
1F
100
AcDbEntity
  8
0
  6
CONTINUOUS
 62
     7
100
AcDbLine
 10
305.1648523758
 20
172.0298075531
 30
0.0
 11
303.1648632239
 21
172.0298075531
 31
0.0
  0
ARC
  5
1C1
330
1F
100
AcDbEntity
  8
0
  6
CONTINUOUS
 62
     7
100
AcDbCircle
 10
303.1648590333
 20
171.0298083636
 30
0.0
 40
1.0
100
AcDbArc
 50
90.0
 51
180.0
  0
ARC
  5
1C2
330
1F
100
AcDbEntity
  8
0
  6
CONTINUOUS
 62
     7
100
AcDbCircle
 10
282.1648590333
 20
161.0298083636
 30
0.0
 40
10.0
100
AcDbArc
 50
90.0
 51
180.0
  0
LINE
  5
1C3
330
1F
100
AcDbEntity
  8
0
  6
CONTINUOUS
 62
     7
100
AcDbLine
 10
272.1648600052
 20
161.0298150633
 30
0.0
 11
272.1648600052
 21
41.1898077879
 31
0.0
  0
ARC
  5
1C4
330
1F
100
AcDbEntity
  8
0
  6
CONTINUOUS
 62
     7
100
AcDbCircle
 10
282.1648590333
 20
41.1898083636
 30
0.0
 40
10.0
100
AcDbArc
 50
180.0
 51
270.0
  0
ARC
  5
1C5
330
1F
100
AcDbEntity
  8
0
  6
CONTINUOUS
 62
     7
100
AcDbCircle
 10
303.1648590333
 20
31.1898083636
 30
0.0
 40
1.000000000000014
100
AcDbArc
 50
180.0
 51
270.0
  0
ARC
  5
1C6
330
1F
100
AcDbEntity
  8
0
  6
CONTINUOUS
 62
     7
100
AcDbCircle
 10
530.6648590333
 20
173.2013812388
 30
0.0
 40
2.000000000000076
100
AcDbArc
 50
135.0
 51
180.0
  0
LINE
  5
1C7
330
1F
100
AcDbEntity
  8
0
  6
CONTINUOUS
 62
     7
100
AcDbLine
 10
528.6648657273
 20
29.0182357136
 30
0.0
 11
528.6648657273
 21
173.2013815496
 31
0.0
  0
ARC
  5
1C8
330
1F
100
AcDbEntity
  8
0
  6
CONTINUOUS
 62
     7
100
AcDbCircle
 10
530.6648590333
 20
29.0182354883
 30
0.0
 40
2.0
100
AcDbArc
 50
180.0
 51
225.0
  0
LINE
  5
1C9
330
1F
100
AcDbEntity
  8
0
  6
CONTINUOUS
 62
     7
100
AcDbLine
 10
531.0790624569
 20
25.7755940262
 30
0.0
 11
529.2506601761
 21
27.6040223841
 31
0.0
  0
ARC
  5
1CA
330
1F
100
AcDbEntity
  8
0
  6
CONTINUOUS
 62
     7
100
AcDbCircle
 10
529.6648590333
 20
24.3613812388
 30
0.0
 40
2.000000000000026
100
AcDbArc
 50
0.0
 51
45.0
  0
LINE
  5
1CB
330
1F
100
AcDbEntity
  8
0
  6
CONTINUOUS
 62
     7
100
AcDbLine
 10
531.6648569058
 20
7.1898082685
 30
0.0
 11
531.6648569058
 21
24.3613806967
 31
0.0
  0
ARC
  5
1CC
330
1F
100
AcDbEntity
  8
0
  6
CONTINUOUS
 62
     7
100
AcDbCircle
 10
529.6648590333
 20
7.1898083636
 30
0.0
 40
2.000000000000002
100
AcDbArc
 50
270.0
 51
0.0
  0
LINE
  5
1CD
330
1F
100
AcDbEntity
  8
0
  6
CONTINUOUS
 62
     7
100
AcDbLine
 10
481.6648449849
 20
5.1898084063
 30
0.0
 11
529.6648528527
 21
5.1898084063
 31
0.0
  0
ARC
  5
1CE
330
1F
100
AcDbEntity
  8
0
  6
CONTINUOUS
 62
     7
100
AcDbCircle
 10
464.3443509576
 20
-4.8101916364
 30
0.0
 40
20.00000000000002
100
AcDbArc
 50
30.0
 51
90.0
  0
LINE
  5
1CF
330
1F
100
AcDbEntity
  8
0
  6
CONTINUOUS
 62
     7
100
AcDbLine
 10
464.3443610619
 20
15.1898081828
 30
0.0
 11
442.1648468922
 21
15.1898081828
 31
0.0
  0
ARC
  5
1D0
330
1F
100
AcDbEntity
  8
0
  6
CONTINUOUS
 62
     7
100
AcDbCircle
 10
441.1648590333
 20
15.1898083636
 30
0.0
 40
1.000000000000057
100
AcDbArc
 50
0.0
 51
90.0
  0
LINE
  5
1D1
330
1F
100
AcDbEntity
  8
0
  6
CONTINUOUS
 62
     7
100
AcDbLine
 10
441.1648597668
 20
16.1898083467
 30
0.0
 11
439.1648557137
 21
16.1898083467
 31
0.0
  0
ARC
  5
1D2
330
1F
100
AcDbEntity
  8
0
  6
CONTINUOUS
 62
     7
100
AcDbCircle
 10
439.1648590333
 20
15.1898083636
 30
0.0
 40
1.00000000000003
100
AcDbArc
 50
90.0
 51
180.0
  0
ARC
  5
1D3
330
1F
100
AcDbEntity
  8
0
  6
CONTINUOUS
 62
     7
100
AcDbCircle
 10
305.1648590333
 20
15.1898083636
 30
0.0
 40
0.9999999999999876
100
AcDbArc
 50
0.0
 51
90.0
  0
LINE
  5
1D4
330
1F
100
AcDbEntity
  8
0
  6
CONTINUOUS
 62
     7
100
AcDbLine
 10
305.1648523758
 20
16.1898083467
 30
0.0
 11
303.1648632239
 21
16.1898083467
 31
0.0
  0
ARC
  5
1D5
330
1F
100
AcDbEntity
  8
0
  6
CONTINUOUS
 62
     7
100
AcDbCircle
 10
303.1648590333
 20
15.1898083636
 30
0.0
 40
0.9999999999999876
100
AcDbArc
 50
90.0
 51
180.0
  0
ARC
  5
1D6
330
1F
100
AcDbEntity
  8
0
  6
CONTINUOUS
 62
     7
100
AcDbCircle
 10
205.6648590333
 20
15.1898083636
 30
0.0
 40
1.000000000000014
100
AcDbArc
 50
0.0
 51
90.0
  0
LINE
  5
1D7
330
1F
100
AcDbEntity
  8
0
  6
CONTINUOUS
 62
     7
100
AcDbLine
 10
205.6648593496
 20
16.1898083467
 30
0.0
 11
203.6648627471
 21
16.1898083467
 31
0.0
  0
ARC
  5
1D8
330
1F
100
AcDbEntity
  8
0
  6
CONTINUOUS
 62
     7
100
AcDbCircle
 10
203.6648590333
 20
15.1898083636
 30
0.0
 40
1.000000000000014
100
AcDbArc
 50
90.0
 51
180.0
  0
ARC
  5
1D9
330
1F
100
AcDbEntity
  8
0
  6
CONTINUOUS
 62
     7
100
AcDbCircle
 10
130.985367109
 20
-4.8101916365
 30
0.0
 40
20.0
100
AcDbArc
 50
90.0
 51
150.0
  0
LINE
  5
1DA
330
1F
100
AcDbEntity
  8
0
  6
CONTINUOUS
 62
     7
100
AcDbLine
 10
97.6648588765
 20
99.4514965866
 30
0.0
 11
97.6648588765
 21
5.1898084063
 31
0.0
  0
ARC
  5
1DB
330
1F
100
AcDbEntity
  8
0
  6
CONTINUOUS
 62
     7
100
AcDbCircle
 10
100.1648590333
 20
101.1098083635
 30
0.0
 40
3.000000000000072
100
AcDbArc
 50
146.4426902381
 51
213.5573097619
  0
LINE
  5
1DC
330
1F
100
AcDbEntity
  8
0
  6
CONTINUOUS
 62
     7
100
AcDbLine
 10
113.6648591708
 20
197.0298135135
 30
0.0
 11
97.6648588765
 21
197.0298135135
 31
0.0
  0
ARC
  5
1DD
330
1F
100
AcDbEntity
  8
0
  6
CONTINUOUS
 62
     7
100
AcDbCircle
 10
130.985367109
 20
207.0298083635
 30
0.0
 40
20.00000000000003
100
AcDbArc
 50
210.0
 51
270.0
  0
ARC
  5
1DE
330
1F
100
AcDbEntity
  8
0
  6
CONTINUOUS
 62
     7
100
AcDbCircle
 10
203.6648590333
 20
187.0298083636
 30
0.0
 40
1.0
100
AcDbArc
 50
180.0
 51
270.0
  0
LINE
  5
1DF
330
1F
100
AcDbEntity
  8
0
  6
CONTINUOUS
 62
     7
100
AcDbLine
 10
203.6648627471
 20
186.0298061226
 30
0.0
 11
205.6648593496
 21
186.0298061226
 31
0.0
  0
ARC
  5
1E0
330
1F
100
AcDbEntity
  8
0
  6
CONTINUOUS
 62
     7
100
AcDbCircle
 10
205.6648590333
 20
187.0298083636
 30
0.0
 40
1.0
100
AcDbArc
 50
270.0
 51
0.0
  0
ARC
  5
1E1
330
1F
100
AcDbEntity
  8
0
  6
CONTINUOUS
 62
     7
100
AcDbCircle
 10
303.1648590333
 20
187.0298083636
 30
0.0
 40
1.0
100
AcDbArc
 50
180.0
 51
270.0
  0
ARC
  5
1E2
330
1F
100
AcDbEntity
  8
0
  6
CONTINUOUS
 62
     7
100
AcDbCircle
 10
305.1648590333
 20
187.0298083636
 30
0.0
 40
1.0
100
AcDbArc
 50
270.0
 51
0.0
  0
ARC
  5
1E3
330
1F
100
AcDbEntity
  8
0
  6
CONTINUOUS
 62
     7
100
AcDbCircle
 10
439.1648590333
 20
187.0298083636
 30
0.0
 40
1.000000000000057
100
AcDbArc
 50
180.0
 51
270.0
  0
LINE
  5
1E4
330
1F
100
AcDbEntity
  8
0
  6
CONTINUOUS
 62
     7
100
AcDbLine
 10
439.1648557137
 20
186.0298061226
 30
0.0
 11
441.1648597668
 21
186.0298061226
 31
0.0
  0
ARC
  5
1E5
330
1F
100
AcDbEntity
  8
0
  6
CONTINUOUS
 62
     7
100
AcDbCircle
 10
441.1648590333
 20
187.0298083636
 30
0.0
 40
1.000000000000057
100
AcDbArc
 50
270.0
 51
0.0
  0
LINE
  5
1E6
330
1F
100
AcDbEntity
  8
0
  6
CONTINUOUS
 62
     7
100
AcDbLine
 10
442.1648468922
 20
187.0298081491
 30
0.0
 11
464.3443610619
 21
187.0298081491
 31
0.0
  0
ARC
  5
1E7
330
1F
100
AcDbEntity
  8
0
  6
CONTINUOUS
 62
     7
100
AcDbCircle
 10
464.3443509576
 20
207.0298083636
 30
0.0
 40
20.00000000000003
100
AcDbArc
 50
270.0
 51
330.0
  0
LINE
  5
1E8
330
1F
100
AcDbEntity
  8
0
  6
CONTINUOUS
 62
     7
100
AcDbLine
 10
531.6648569058
 20
177.8582328413
 30
0.0
 11
531.6648569058
 21
195.0298094604
 31
0.0
  0
ARC
  5
1E9
330
1F
100
AcDbEntity
  8
0
  6
CONTINUOUS
 62
     7
100
AcDbCircle
 10
529.6648590333
 20
177.8582354883
 30
0.0
 40
2.000000000000016
100
AcDbArc
 50
315.0
 51
0.0
  0
LINE
  5
1EA
330
1F
100
AcDbEntity
  8
0
  6
CONTINUOUS
 62
     7
100
AcDbLine
 10
529.2506601761
 20
174.6155911539
 30
0.0
 11
531.0790624569
 21
176.444023237
 31
0.0
  0
LINE
  5
1EB
330
1F
100
AcDbEntity
  8
0
  6
CONTINUOUS
 62
     7
100
AcDbLine
 10
203.6648627471
 20
30.1898078475
 30
0.0
 11
205.6648593496
 21
30.1898078475
 31
0.0
  0
ARC
  5
1EC
330
1F
100
AcDbEntity
  8
0
  6
CONTINUOUS
 62
     7
100
AcDbCircle
 10
205.6648590333
 20
31.1898083636
 30
0.0
 40
1.000000000000032
100
AcDbArc
 50
270.0
 51
90.0
  0
LINE
  5
1ED
330
1F
100
AcDbEntity
  8
0
  6
CONTINUOUS
 62
     7
100
AcDbLine
 10
205.6648593496
 20
32.1898081753
 30
0.0
 11
203.6648627471
 21
32.1898081753
 31
0.0
  0
ARC
  5
1EE
330
1F
100
AcDbEntity
  8
0
  6
CONTINUOUS
 62
     7
100
AcDbCircle
 10
203.6648590333
 20
31.1898083636
 30
0.0
 40
1.000000000000032
100
AcDbArc
 50
90.0
 51
270.0
  0
LINE
  5
1EF
330
1F
100
AcDbEntity
  8
0
  6
CONTINUOUS
 62
     7
100
AcDbLine
 10
159.1648619722
 20
170.9225171659
 30
0.0
 11
161.1648585747
 21
170.9225171659
 31
0.0
  0
ARC
  5
1F0
330
1F
100
AcDbEntity
  8
0
  6
CONTINUOUS
 62
     7
100
AcDbCircle
 10
161.1648590333
 20
171.9225208894
 30
0.0
 40
1.0
100
AcDbArc
 50
270.0
 51
90.0
  0
LINE
  5
1F1
330
1F
100
AcDbEntity
  8
0
  6
CONTINUOUS
 62
     7
100
AcDbLine
 10
161.1648585747
 20
172.922521219
 30
0.0
 11
159.1648619722
 21
172.922521219
 31
0.0
  0
ARC
  5
1F2
330
1F
100
AcDbEntity
  8
0
  6
CONTINUOUS
 62
     7
100
AcDbCircle
 10
159.1648590333
 20
171.9225208894
 30
0.0
 40
1.0
100
AcDbArc
 50
90.0
 51
270.0
  0
LINE
  5
1F3
330
1F
100
AcDbEntity
  8
0
  6
CONTINUOUS
 62
     7
100
AcDbLine
 10
159.1648619722
 20
154.9225145433
 30
0.0
 11
161.1648585747
 21
154.9225145433
 31
0.0
  0
LINE
  5
1F4
330
1F
100
AcDbEntity
  8
0
  6
CONTINUOUS
 62
     7
100
AcDbLine
 10
161.1648585747
 20
156.9225185964
 30
0.0
 11
159.1648619722
 21
156.9225185964
 31
0.0
  0
ARC
  5
1F5
330
1F
100
AcDbEntity
  8
0
  6
CONTINUOUS
 62
     7
100
AcDbCircle
 10
159.1648590333
 20
155.9225208894
 30
0.0
 40
1.0
100
AcDbArc
 50
90.0
 51
270.0
  0
LINE
  5
1F6
330
1F
100
AcDbEntity
  8
0
  6
CONTINUOUS
 62
     7
100
AcDbLine
 10
159.1648619722
 20
29.2970960442
 30
0.0
 11
161.1648585747
 21
29.2970960442
 31
0.0
  0
LINE
  5
1F7
330
1F
100
AcDbEntity
  8
0
  6
CONTINUOUS
 62
     7
100
AcDbLine
 10
161.1648585747
 20
31.297096372
 30
0.0
 11
159.1648619722
 21
31.297096372
 31
0.0
  0
ARC
  5
1F8
330
1F
100
AcDbEntity
  8
0
  6
CONTINUOUS
 62
     7
100
AcDbCircle
 10
159.1648590333
 20
30.2970958377
 30
0.0
 40
0.9999999999999893
100
AcDbArc
 50
90.0
 51
270.0
  0
LINE
  5
1F9
330
1F
100
AcDbEntity
  8
0
  6
CONTINUOUS
 62
     7
100
AcDbLine
 10
159.1648619722
 20
45.2970968042
 30
0.0
 11
161.1648585747
 21
45.2970968042
 31
0.0
  0
LINE
  5
1FA
330
1F
100
AcDbEntity
  8
0
  6
CONTINUOUS
 62
     7
100
AcDbLine
 10
161.1648585747
 20
47.297097132
 30
0.0
 11
159.1648619722
 21
47.297097132
 31
0.0
  0
ARC
  5
1FB
330
1F
100
AcDbEntity
  8
0
  6
CONTINUOUS
 62
     7
100
AcDbCircle
 10
159.1648590333
 20
46.2970958377
 30
0.0
 40
0.9999999999999858
100
AcDbArc
 50
90.0
 51
270.0
  0
LINE
  5
1FC
330
1F
100
AcDbEntity
  8
0
  6
CONTINUOUS
 62
     7
100
AcDbLine
 10
97.6648588765
 20
5.1898084063
 30
0.0
 11
113.6648591708
 21
5.1898084063
 31
0.0
  0
LINE
  5
1FD
330
1F
100
AcDbEntity
  8
0
  6
CONTINUOUS
 62
     7
100
AcDbLine
 10
529.6648528527
 20
197.0298135135
 30
0.0
 11
481.6648449849
 21
197.0298135135
 31
0.0
  0
LINE
  5
1FE
330
1F
100
AcDbEntity
  8
0
  6
CONTINUOUS
 62
     7
100
AcDbLine
 10
97.6648588765
 20
197.0298135135
 30
0.0
 11
97.6648588765
 21
102.7681225393
 31
0.0
  0
LINE
  5
1FF
330
1F
100
AcDbEntity
  8
0
  6
CONTINUOUS
 62
     7
100
AcDbLine
 10
206.6648613761
 20
187.0298081491
 30
0.0
 11
302.1648611973
 21
187.0298081491
 31
0.0
  0
LINE
  5
200
330
1F
100
AcDbEntity
  8
0
  6
CONTINUOUS
 62
     7
100
AcDbLine
 10
302.1648611973
 20
171.0298055265
 30
0.0
 11
282.1648653697
 21
171.0298055265
 31
0.0
  0
LINE
  5
201
330
1F
100
AcDbEntity
  8
0
  6
CONTINUOUS
 62
     7
100
AcDbLine
 10
130.9853654455
 20
187.0298081491
 30
0.0
 11
202.6648607205
 21
187.0298081491
 31
0.0
  0
LINE
  5
202
330
1F
100
AcDbEntity
  8
0
  6
CONTINUOUS
 62
     7
100
AcDbLine
 10
306.1648544024
 20
187.0298081491
 30
0.0
 11
438.1648685883
 21
187.0298081491
 31
0.0
  0
LINE
  5
203
330
1F
100
AcDbEntity
  8
0
  6
CONTINUOUS
 62
     7
100
AcDbLine
 10
438.1648685883
 20
171.0298055265
 30
0.0
 11
306.1648544024
 21
171.0298055265
 31
0.0
  0
LINE
  5
204
330
1F
100
AcDbEntity
  8
0
  6
CONTINUOUS
 62
     7
100
AcDbLine
 10
438.1648685883
 20
15.1898081828
 30
0.0
 11
306.1648544024
 21
15.1898081828
 31
0.0
  0
LINE
  5
205
330
1F
100
AcDbEntity
  8
0
  6
CONTINUOUS
 62
     7
100
AcDbLine
 10
306.1648544024
 20
31.1898080114
 30
0.0
 11
438.1648685883
 21
31.1898080114
 31
0.0
  0
LINE
  5
206
330
1F
100
AcDbEntity
  8
0
  6
CONTINUOUS
 62
     7
100
AcDbLine
 10
302.1648611973
 20
15.1898081828
 30
0.0
 11
206.6648613761
 21
15.1898081828
 31
0.0
  0
LINE
  5
207
330
1F
100
AcDbEntity
  8
0
  6
CONTINUOUS
 62
     7
100
AcDbLine
 10
282.1648653697
 20
31.1898080114
 30
0.0
 11
302.1648611973
 21
31.1898080114
 31
0.0
  0
LINE
  5
208
330
1F
100
AcDbEntity
  8
0
  6
CONTINUOUS
 62
     7
100
AcDbLine
 10
202.6648607205
 20
15.1898081828
 30
0.0
 11
130.9853654455
 21
15.1898081828
 31
0.0
  0
ARC
  5
209
330
1F
100
AcDbEntity
  8
0
  6
CONTINUOUS
 62
     7
100
AcDbCircle
 10
529.6648590333
 20
195.0298083636
 30
0.0
 40
2.0
100
AcDbArc
 50
0.0
 51
90.0
  0
LINE
  5
20A
330
1F
100
AcDbEntity
  8
0
  6
CONTINUOUS
 62
     7
100
AcDbLine
 10
303.1648632239
 20
186.0298061226
 30
0.0
 11
305.1648523758
 21
186.0298061226
 31
0.0
  0
CIRCLE
  5
20B
330
1F
100
AcDbEntity
  8
0
  6
CONTINUOUS
 62
     7
100
AcDbCircle
 10
515.9648590333
 20
55.1098083636
 30
0.0
 40
4.0
  0
LINE
  5
20C
330
1F
100
AcDbEntity
  8
0
  6
CONTINUOUS
 62
     7
100
AcDbLine
 10
498.6648645352
 20
110.1098054502
 30
0.0
 11
491.2648584794
 21
110.1098054502
 31
0.0
  0
LINE
  5
20D
330
1F
100
AcDbEntity
  8
0
  6
CONTINUOUS
 62
     7
100
AcDbLine
 10
495.9648635338
 20
81.409811363
 30
0.0
 11
495.9648635338
 21
94.8098072264
 31
0.0
  0
LINE
  5
20E
330
1F
100
AcDbEntity
  8
0
  6
CONTINUOUS
 62
     7
100
AcDbLine
 10
507.0648577164
 20
60.4098097835
 30
0.0
 11
507.0648577164
 21
73.8098093722
 31
0.0
  0
ARC
  5
20F
330
1F
100
AcDbEntity
  8
0
  6
CONTINUOUS
 62
     7
100
AcDbCircle
 10
161.1648590333
 20
155.9225208894
 30
0.0
 40
1.0
100
AcDbArc
 50
270.0
 51
90.0
  0
ARC
  5
210
330
1F
100
AcDbEntity
  8
0
  6
CONTINUOUS
 62
     7
100
AcDbCircle
 10
161.1648590333
 20
46.2970958377
 30
0.0
 40
0.9999999999999858
100
AcDbArc
 50
270.0
 51
90.0
  0
ARC
  5
211
330
1F
100
AcDbEntity
  8
0
  6
CONTINUOUS
 62
     7
100
AcDbCircle
 10
161.1648590333
 20
30.2970958377
 30
0.0
 40
0.9999999999999858
100
AcDbArc
 50
270.0
 51
90.0
  0
CIRCLE
  5
212
330
1F
100
AcDbEntity
  8
0
  6
CONTINUOUS
 62
     7
100
AcDbCircle
 10
328.8128102849
 20
291.5204474699
 30
0.0
 40
1.400000000000034
  0
CIRCLE
  5
213
330
1F
100
AcDbEntity
  8
0
  6
CONTINUOUS
 62
     7
100
AcDbCircle
 10
298.8128102849
 20
291.5204474699
 30
0.0
 40
2.49807621135335
  0
LINE
  5
214
330
1F
100
AcDbEntity
  8
0
  6
CONTINUOUS
 62
     7
100
AcDbLine
 10
430.5448498298
 20
291.520448225
 30
0.0
 11
429.6788241435
 21
293.0204438143
 31
0.0
  0
LINE
  5
215
330
1F
100
AcDbEntity
  8
0
  6
CONTINUOUS
 62
     7
100
AcDbLine
 10
429.6788241435
 20
293.0204438143
 30
0.0
 11
427.946772771
 21
293.0204438143
 31
0.0
  0
LINE
  5
216
330
1F
100
AcDbEntity
  8
0
  6
CONTINUOUS
 62
     7
100
AcDbLine
 10
427.946772771
 20
293.0204438143
 30
0.0
 11
427.0807470847
 21
291.520448225
 31
0.0
  0
LINE
  5
217
330
1F
100
AcDbEntity
  8
0
  6
CONTINUOUS
 62
     7
100
AcDbLine
 10
427.0807470847
 20
291.520448225
 30
0.0
 11
427.946772771
 21
290.0204451852
 31
0.0
  0
LINE
  5
218
330
1F
100
AcDbEntity
  8
0
  6
CONTINUOUS
 62
     7
100
AcDbLine
 10
427.946772771
 20
290.0204451852
 30
0.0
 11
429.6788241435
 21
290.0204451852
 31
0.0
  0
LINE
  5
219
330
1F
100
AcDbEntity
  8
0
  6
CONTINUOUS
 62
     7
100
AcDbLine
 10
429.6788241435
 20
290.0204451852
 30
0.0
 11
430.5448498298
 21
291.520448225
 31
0.0
  0
ARC
  5
21A
330
1F
100
AcDbEntity
  8
0
  6
CONTINUOUS
 62
     7
100
AcDbCircle
 10
377.9985967225
 20
296.5204474699
 30
0.0
 40
1.0
100
AcDbArc
 50
270.0
 51
315.0
  0
LINE
  5
21B
330
1F
100
AcDbEntity
  8
0
  6
CONTINUOUS
 62
     7
100
AcDbLine
 10
378.8128163387
 20
295.9204482012
 30
0.0
 11
378.705706792
 21
295.8133386545
 31
0.0
  0
LINE
  5
21C
330
1F
100
AcDbEntity
  8
0
  6
CONTINUOUS
 62
     7
100
AcDbLine
 10
378.9199258853
 20
295.8133386545
 30
0.0
 11
378.8128163387
 21
295.9204482012
 31
0.0
  0
ARC
  5
21D
330
1F
100
AcDbEntity
  8
0
  6
CONTINUOUS
 62
     7
100
AcDbCircle
 10
379.6270238473
 20
296.5204474699
 30
0.0
 40
1.0
100
AcDbArc
 50
225.0
 51
270.0
  0
ARC
  5
21E
330
1F
100
AcDbEntity
  8
0
  6
CONTINUOUS
 62
     7
100
AcDbCircle
 10
421.8846070546
 20
298.5204474699
 30
0.0
 40
3.0
100
AcDbArc
 50
270.0
 51
330.0
  0
LINE
  5
21F
330
1F
100
AcDbEntity
  8
0
  6
CONTINUOUS
 62
     7
100
AcDbLine
 10
425.0600304176
 20
298.0204464965
 30
0.0
 11
424.4826700259
 21
297.02044447
 31
0.0
  0
LINE
  5
220
330
1F
100
AcDbEntity
  8
0
  6
CONTINUOUS
 62
     7
100
AcDbLine
 10
432.5655962993
 20
298.0204464965
 30
0.0
 11
425.0600304176
 21
298.0204464965
 31
0.0
  0
LINE
  5
221
330
1F
100
AcDbEntity
  8
0
  6
CONTINUOUS
 62
     7
100
AcDbLine
 10
433.1429268886
 20
297.02044447
 30
0.0
 11
432.5655962993
 21
298.0204464965
 31
0.0
  0
ARC
  5
222
330
1F
100
AcDbEntity
  8
0
  6
CONTINUOUS
 62
     7
100
AcDbCircle
 10
435.7410135152
 20
298.5204474699
 30
0.0
 40
3.0
100
AcDbArc
 50
210.0
 51
270.0
  0
ARC
  5
223
330
1F
100
AcDbEntity
  8
0
  6
CONTINUOUS
 62
     7
100
AcDbCircle
 10
445.8143488375
 20
343.5204474699
 30
0.0
 40
48.0
100
AcDbArc
 50
270.0
 51
284.0346479352
  0
ARC
  5
224
330
1F
100
AcDbEntity
  8
0
  6
CONTINUOUS
 62
     7
100
AcDbCircle
 10
445.8143488375
 20
239.5204474699
 30
0.0
 40
48.0
100
AcDbArc
 50
75.9653520648
 51
90.0
  0
ARC
  5
225
330
1F
100
AcDbEntity
  8
0
  6
CONTINUOUS
 62
     7
100
AcDbCircle
 10
435.7410135152
 20
284.5204474699
 30
0.0
 40
3.0
100
AcDbArc
 50
90.0
 51
150.0
  0
LINE
  5
226
330
1F
100
AcDbEntity
  8
0
  6
CONTINUOUS
 62
     7
100
AcDbLine
 10
432.5655962993
 20
285.0204499536
 30
0.0
 11
433.1429268886
 21
286.0204445296
 31
0.0
  0
LINE
  5
227
330
1F
100
AcDbEntity
  8
0
  6
CONTINUOUS
 62
     7
100
AcDbLine
 10
425.0600304176
 20
285.0204499536
 30
0.0
 11
432.5655962993
 21
285.0204499536
 31
0.0
  0
LINE
  5
228
330
1F
100
AcDbEntity
  8
0
  6
CONTINUOUS
 62
     7
100
AcDbLine
 10
424.4826700259
 20
286.0204445296
 30
0.0
 11
425.0600304176
 21
285.0204499536
 31
0.0
  0
ARC
  5
229
330
1F
100
AcDbEntity
  8
0
  6
CONTINUOUS
 62
     7
100
AcDbCircle
 10
421.8846070546
 20
284.5204474699
 30
0.0
 40
3.0
100
AcDbArc
 50
30.0
 51
90.0
  0
ARC
  5
22A
330
1F
100
AcDbEntity
  8
0
  6
CONTINUOUS
 62
     7
100
AcDbCircle
 10
379.6270238473
 20
286.5204474699
 30
0.0
 40
1.0
100
AcDbArc
 50
90.0
 51
135.0
  0
LINE
  5
22B
330
1F
100
AcDbEntity
  8
0
  6
CONTINUOUS
 62
     7
100
AcDbLine
 10
378.8128163387
 20
287.1204482489
 30
0.0
 11
378.9199258853
 21
287.2275577955
 31
0.0
  0
LINE
  5
22C
330
1F
100
AcDbEntity
  8
0
  6
CONTINUOUS
 62
     7
100
AcDbLine
 10
378.705706792
 20
287.2275577955
 30
0.0
 11
378.8128163387
 21
287.1204482489
 31
0.0
  0
ARC
  5
22D
330
1F
100
AcDbEntity
  8
0
  6
CONTINUOUS
 62
     7
100
AcDbCircle
 10
337.5449348832
 20
277.5204474699
 30
0.0
 40
10.0
100
AcDbArc
 50
90.0
 51
121.9527464003
  0
ARC
  5
22E
330
1F
100
AcDbEntity
  8
0
  6
CONTINUOUS
 62
     7
100
AcDbCircle
 10
328.8128102849
 20
291.5204474699
 30
0.0
 40
6.500000000000028
100
AcDbArc
 50
238.0472535997
 51
301.9527464003
  0
ARC
  5
22F
330
1F
100
AcDbEntity
  8
0
  6
CONTINUOUS
 62
     7
100
AcDbCircle
 10
320.0806856866
 20
277.5204474699
 30
0.0
 40
10.0
100
AcDbArc
 50
58.0472535997
 51
90.0
  0
LINE
  5
230
330
1F
100
AcDbEntity
  8
0
  6
CONTINUOUS
 62
     7
100
AcDbLine
 10
311.811264949
 20
287.5204475694
 30
0.0
 11
320.0806792546
 21
287.5204475694
 31
0.0
  0
ARC
  5
231
330
1F
100
AcDbEntity
  8
0
  6
CONTINUOUS
 62
     7
100
AcDbCircle
 10
298.8128102849
 20
291.5204474699
 30
0.0
 40
5.600000000000022
100
AcDbArc
 50
75.9653520648
 51
284.0346479352
  0
ARC
  5
232
330
1F
100
AcDbEntity
  8
0
  6
CONTINUOUS
 62
     7
100
AcDbCircle
 10
311.8112717323
 20
343.5204474699
 30
0.0
 40
48.0
100
AcDbArc
 50
255.9653520648
 51
270.0
  0
LINE
  5
233
330
1F
100
AcDbEntity
  8
0
  6
CONTINUOUS
 62
     7
100
AcDbLine
 10
320.0806792546
 20
295.5204488807
 30
0.0
 11
311.811264949
 21
295.5204488807
 31
0.0
  0
ARC
  5
234
330
1F
100
AcDbEntity
  8
0
  6
CONTINUOUS
 62
     7
100
AcDbCircle
 10
320.0806856866
 20
305.5204474699
 30
0.0
 40
10.00000000000001
100
AcDbArc
 50
270.0
 51
301.9527464003
  0
ARC
  5
235
330
1F
100
AcDbEntity
  8
0
  6
CONTINUOUS
 62
     7
100
AcDbCircle
 10
328.8128102849
 20
291.5204474699
 30
0.0
 40
6.49999999999998
100
AcDbArc
 50
58.0472535997
 51
121.9527464003
  0
ARC
  5
236
330
1F
100
AcDbEntity
  8
0
  6
CONTINUOUS
 62
     7
100
AcDbCircle
 10
337.5449348832
 20
305.5204474699
 30
0.0
 40
10.00000000000004
100
AcDbArc
 50
238.0472535997
 51
270.0
  0
LINE
  5
237
330
1F
100
AcDbEntity
  8
0
  6
CONTINUOUS
 62
     7
100
AcDbLine
 10
377.9985870887
 20
295.5204488807
 30
0.0
 11
337.5449295808
 21
295.5204488807
 31
0.0
  0
CIRCLE
  5
238
330
1F
100
AcDbEntity
  8
0
  6
CONTINUOUS
 62
     7
100
AcDbCircle
 10
458.8128102849
 20
291.5204474699
 30
0.0
 40
2.498076211353293
  0
LINE
  5
239
330
1F
100
AcDbEntity
  8
0
  6
CONTINUOUS
 62
     7
100
AcDbLine
 10
445.814337926
 20
295.5204488807
 30
0.0
 11
435.7410039474
 21
295.5204488807
 31
0.0
  0
LINE
  5
23A
330
1F
100
AcDbEntity
  8
0
  6
CONTINUOUS
 62
     7
100
AcDbLine
 10
435.7410039474
 20
287.5204475694
 30
0.0
 11
445.814337926
 21
287.5204475694
 31
0.0
  0
ARC
  5
23B
330
1F
100
AcDbEntity
  8
0
  6
CONTINUOUS
 62
     7
100
AcDbCircle
 10
458.8128102849
 20
291.5204474699
 30
0.0
 40
5.600000000000022
100
AcDbArc
 50
255.9653520648
 51
104.0346479352
  0
LINE
  5
23C
330
1F
100
AcDbEntity
  8
0
  6
CONTINUOUS
 62
     7
100
AcDbLine
 10
337.5449295808
 20
287.5204475694
 30
0.0
 11
377.9985870887
 21
287.5204475694
 31
0.0
  0
LINE
  5
23D
330
1F
100
AcDbEntity
  8
0
  6
CONTINUOUS
 62
     7
100
AcDbLine
 10
379.6270157863
 20
287.5204475694
 30
0.0
 11
421.8845929672
 21
287.5204475694
 31
0.0
  0
ARC
  5
23E
330
1F
100
AcDbEntity
  8
0
  6
CONTINUOUS
 62
     7
100
AcDbCircle
 10
311.8112717323
 20
239.5204474699
 30
0.0
 40
48.0
100
AcDbArc
 50
90.0
 51
104.0346479352
  0
LINE
  5
23F
330
1F
100
AcDbEntity
  8
0
  6
CONTINUOUS
 62
     7
100
AcDbLine
 10
421.8845929672
 20
295.5204488807
 30
0.0
 11
379.6270157863
 21
295.5204488807
 31
0.0
  0
ARC
  5
240
330
1F
100
AcDbEntity
  8
0
  6
CONTINUOUS
 62
     7
100
AcDbCircle
 10
377.9985967225
 20
286.5204474699
 30
0.0
 40
1.0
100
AcDbArc
 50
45.0
 51
90.0
  0
CIRCLE
  5
241
330
1F
100
AcDbEntity
  8
0
  6
CONTINUOUS
 62
     7
100
AcDbCircle
 10
317.7536709513
 20
255.2343399898
 30
0.0
 40
1.399999999999977
  0
CIRCLE
  5
242
330
1F
100
AcDbEntity
  8
0
  6
CONTINUOUS
 62
     7
100
AcDbCircle
 10
287.7536709513
 20
255.2343399898
 30
0.0
 40
2.49807621135335
  0
LINE
  5
243
330
1F
100
AcDbEntity
  8
0
  6
CONTINUOUS
 62
     7
100
AcDbLine
 10
419.4857146312
 20
255.2343400293
 30
0.0
 11
418.6196889449
 21
256.7343393438
 31
0.0
  0
LINE
  5
244
330
1F
100
AcDbEntity
  8
0
  6
CONTINUOUS
 62
     7
100
AcDbLine
 10
418.6196889449
 20
256.7343393438
 30
0.0
 11
416.8876375724
 21
256.7343393438
 31
0.0
  0
LINE
  5
245
330
1F
100
AcDbEntity
  8
0
  6
CONTINUOUS
 62
     7
100
AcDbLine
 10
416.8876375724
 20
256.7343393438
 30
0.0
 11
416.0216118861
 21
255.2343400293
 31
0.0
  0
LINE
  5
246
330
1F
100
AcDbEntity
  8
0
  6
CONTINUOUS
 62
     7
100
AcDbLine
 10
416.0216118861
 20
255.2343400293
 30
0.0
 11
416.8876375724
 21
253.7343407147
 31
0.0
  0
LINE
  5
247
330
1F
100
AcDbEntity
  8
0
  6
CONTINUOUS
 62
     7
100
AcDbLine
 10
416.8876375724
 20
253.7343407147
 30
0.0
 11
418.6196889449
 21
253.7343407147
 31
0.0
  0
LINE
  5
248
330
1F
100
AcDbEntity
  8
0
  6
CONTINUOUS
 62
     7
100
AcDbLine
 10
418.6196889449
 20
253.7343407147
 30
0.0
 11
419.4857146312
 21
255.2343400293
 31
0.0
  0
CIRCLE
  5
249
330
1F
100
AcDbEntity
  8
0
  6
CONTINUOUS
 62
     7
100
AcDbCircle
 10
447.7536709513
 20
255.2343399898
 30
0.0
 40
2.49807621135335
  0
ARC
  5
24A
330
1F
100
AcDbEntity
  8
0
  6
CONTINUOUS
 62
     7
100
AcDbCircle
 10
366.9394573889
 20
260.2343399898
 30
0.0
 40
1.000000000000008
100
AcDbArc
 50
270.0
 51
315.0
  0
LINE
  5
24B
330
1F
100
AcDbEntity
  8
0
  6
CONTINUOUS
 62
     7
100
AcDbLine
 10
367.7536811401
 20
259.6343400054
 30
0.0
 11
367.6465715934
 21
259.5272304588
 31
0.0
  0
LINE
  5
24C
330
1F
100
AcDbEntity
  8
0
  6
CONTINUOUS
 62
     7
100
AcDbLine
 10
367.8607906867
 20
259.5272304588
 30
0.0
 11
367.7536811401
 21
259.6343400054
 31
0.0
  0
ARC
  5
24D
330
1F
100
AcDbEntity
  8
0
  6
CONTINUOUS
 62
     7
100
AcDbCircle
 10
368.5678845137
 20
260.2343399898
 30
0.0
 40
1.000000000000048
100
AcDbArc
 50
225.0
 51
270.0
  0
LINE
  5
24E
330
1F
100
AcDbEntity
  8
0
  6
CONTINUOUS
 62
     7
100
AcDbLine
 10
410.8254577686
 20
259.2343406849
 30
0.0
 11
368.5678805877
 21
259.2343406849
 31
0.0
  0
ARC
  5
24F
330
1F
100
AcDbEntity
  8
0
  6
CONTINUOUS
 62
     7
100
AcDbCircle
 10
410.825467721
 20
262.2343399898
 30
0.0
 40
3.0
100
AcDbArc
 50
270.0
 51
330.0
  0
LINE
  5
250
330
1F
100
AcDbEntity
  8
0
  6
CONTINUOUS
 62
     7
100
AcDbLine
 10
414.000895219
 20
261.7343383007
 30
0.0
 11
413.4235348274
 21
260.7343362742
 31
0.0
  0
LINE
  5
251
330
1F
100
AcDbEntity
  8
0
  6
CONTINUOUS
 62
     7
100
AcDbLine
 10
421.5064611007
 20
261.7343383007
 30
0.0
 11
414.000895219
 21
261.7343383007
 31
0.0
  0
LINE
  5
252
330
1F
100
AcDbEntity
  8
0
  6
CONTINUOUS
 62
     7
100
AcDbLine
 10
422.08379169
 20
260.7343362742
 30
0.0
 11
421.5064611007
 21
261.7343383007
 31
0.0
  0
ARC
  5
253
330
1F
100
AcDbEntity
  8
0
  6
CONTINUOUS
 62
     7
100
AcDbCircle
 10
424.6818741816
 20
262.2343399898
 30
0.0
 40
3.000000000000028
100
AcDbArc
 50
210.0
 51
270.0
  0
ARC
  5
254
330
1F
100
AcDbEntity
  8
0
  6
CONTINUOUS
 62
     7
100
AcDbCircle
 10
434.7552095039
 20
307.2343399898
 30
0.0
 40
48.00000000000001
100
AcDbArc
 50
270.0
 51
284.0346479352
  0
ARC
  5
255
330
1F
100
AcDbEntity
  8
0
  6
CONTINUOUS
 62
     7
100
AcDbCircle
 10
447.7536709513
 20
255.2343399898
 30
0.0
 40
5.600000000000036
100
AcDbArc
 50
255.9653520648
 51
104.0346479352
  0
ARC
  5
256
330
1F
100
AcDbEntity
  8
0
  6
CONTINUOUS
 62
     7
100
AcDbCircle
 10
434.7552095039
 20
203.2343399898
 30
0.0
 40
48.00000000000003
100
AcDbArc
 50
75.9653520648
 51
90.0
  0
ARC
  5
257
330
1F
100
AcDbEntity
  8
0
  6
CONTINUOUS
 62
     7
100
AcDbCircle
 10
424.6818741816
 20
248.2343399898
 30
0.0
 40
3.000000000000028
100
AcDbArc
 50
90.0
 51
150.0
  0
LINE
  5
258
330
1F
100
AcDbEntity
  8
0
  6
CONTINUOUS
 62
     7
100
AcDbLine
 10
421.5064611007
 20
248.7343417578
 30
0.0
 11
422.08379169
 21
249.7343400591
 31
0.0
  0
LINE
  5
259
330
1F
100
AcDbEntity
  8
0
  6
CONTINUOUS
 62
     7
100
AcDbLine
 10
414.000895219
 20
248.7343417578
 30
0.0
 11
421.5064611007
 21
248.7343417578
 31
0.0
  0
LINE
  5
25A
330
1F
100
AcDbEntity
  8
0
  6
CONTINUOUS
 62
     7
100
AcDbLine
 10
413.4235348274
 20
249.7343400591
 30
0.0
 11
414.000895219
 21
248.7343417578
 31
0.0
  0
ARC
  5
25B
330
1F
100
AcDbEntity
  8
0
  6
CONTINUOUS
 62
     7
100
AcDbCircle
 10
410.825467721
 20
248.2343399898
 30
0.0
 40
3.000000000000028
100
AcDbArc
 50
30.0
 51
90.0
  0
ARC
  5
25C
330
1F
100
AcDbEntity
  8
0
  6
CONTINUOUS
 62
     7
100
AcDbCircle
 10
368.5678845137
 20
250.2343399898
 30
0.0
 40
1.000000000000028
100
AcDbArc
 50
90.0
 51
135.0
  0
LINE
  5
25D
330
1F
100
AcDbEntity
  8
0
  6
CONTINUOUS
 62
     7
100
AcDbLine
 10
367.7536811401
 20
250.8343400531
 30
0.0
 11
367.8607906867
 21
250.9414458745
 31
0.0
  0
LINE
  5
25E
330
1F
100
AcDbEntity
  8
0
  6
CONTINUOUS
 62
     7
100
AcDbLine
 10
367.6465715934
 20
250.9414458745
 30
0.0
 11
367.7536811401
 21
250.8343400531
 31
0.0
  0
ARC
  5
25F
330
1F
100
AcDbEntity
  8
0
  6
CONTINUOUS
 62
     7
100
AcDbCircle
 10
366.9394573889
 20
250.2343399898
 30
0.0
 40
1.0
100
AcDbArc
 50
45.0
 51
90.0
  0
LINE
  5
260
330
1F
100
AcDbEntity
  8
0
  6
CONTINUOUS
 62
     7
100
AcDbLine
 10
326.4857943822
 20
251.2343393736
 30
0.0
 11
366.9394518901
 21
251.2343393736
 31
0.0
  0
ARC
  5
261
330
1F
100
AcDbEntity
  8
0
  6
CONTINUOUS
 62
     7
100
AcDbCircle
 10
326.4857955496
 20
241.2343399898
 30
0.0
 40
10.00000000000007
100
AcDbArc
 50
90.0
 51
121.9527464003
  0
ARC
  5
262
330
1F
100
AcDbEntity
  8
0
  6
CONTINUOUS
 62
     7
100
AcDbCircle
 10
317.7536709513
 20
255.2343399898
 30
0.0
 40
6.500000000000034
100
AcDbArc
 50
238.0472535997
 51
301.9527464003
  0
ARC
  5
263
330
1F
100
AcDbEntity
  8
0
  6
CONTINUOUS
 62
     7
100
AcDbCircle
 10
309.021546353
 20
241.2343399898
 30
0.0
 40
10.00000000000001
100
AcDbArc
 50
58.0472535997
 51
90.0
  0
LINE
  5
264
330
1F
100
AcDbEntity
  8
0
  6
CONTINUOUS
 62
     7
100
AcDbLine
 10
300.7521297504
 20
251.2343393736
 30
0.0
 11
309.0215440561
 21
251.2343393736
 31
0.0
  0
ARC
  5
265
330
1F
100
AcDbEntity
  8
0
  6
CONTINUOUS
 62
     7
100
AcDbCircle
 10
300.7521323987
 20
203.2343399898
 30
0.0
 40
48.00000000000003
100
AcDbArc
 50
90.0
 51
104.0346479352
  0
ARC
  5
266
330
1F
100
AcDbEntity
  8
0
  6
CONTINUOUS
 62
     7
100
AcDbCircle
 10
287.7536709513
 20
255.2343399898
 30
0.0
 40
5.600000000000022
100
AcDbArc
 50
75.9653520648
 51
284.0346479352
  0
ARC
  5
267
330
1F
100
AcDbEntity
  8
0
  6
CONTINUOUS
 62
     7
100
AcDbCircle
 10
300.7521323987
 20
307.2343399898
 30
0.0
 40
48.00000000000003
100
AcDbArc
 50
255.9653520648
 51
270.0
  0
LINE
  5
268
330
1F
100
AcDbEntity
  8
0
  6
CONTINUOUS
 62
     7
100
AcDbLine
 10
309.0215440561
 20
259.2343406849
 30
0.0
 11
300.7521297504
 21
259.2343406849
 31
0.0
  0
ARC
  5
269
330
1F
100
AcDbEntity
  8
0
  6
CONTINUOUS
 62
     7
100
AcDbCircle
 10
309.021546353
 20
269.2343399898
 30
0.0
 40
10.00000000000001
100
AcDbArc
 50
270.0
 51
301.9527464003
  0
ARC
  5
26A
330
1F
100
AcDbEntity
  8
0
  6
CONTINUOUS
 62
     7
100
AcDbCircle
 10
317.7536709513
 20
255.2343399898
 30
0.0
 40
6.499999999999986
100
AcDbArc
 50
58.0472535997
 51
121.9527464003
  0
ARC
  5
26B
330
1F
100
AcDbEntity
  8
0
  6
CONTINUOUS
 62
     7
100
AcDbCircle
 10
326.4857955496
 20
269.2343399898
 30
0.0
 40
10.00000000000004
100
AcDbArc
 50
238.0472535997
 51
270.0
  0
LINE
  5
26C
330
1F
100
AcDbEntity
  8
0
  6
CONTINUOUS
 62
     7
100
AcDbLine
 10
366.9394518901
 20
259.2343406849
 30
0.0
 11
326.4857943822
 21
259.2343406849
 31
0.0
  0
LINE
  5
26D
330
1F
100
AcDbEntity
  8
0
  6
CONTINUOUS
 62
     7
100
AcDbLine
 10
368.5678805877
 20
251.2343393736
 30
0.0
 11
410.8254577686
 21
251.2343393736
 31
0.0
  0
LINE
  5
26E
330
1F
100
AcDbEntity
  8
0
  6
CONTINUOUS
 62
     7
100
AcDbLine
 10
434.7552027274
 20
259.2343406849
 30
0.0
 11
424.6818687488
 21
259.2343406849
 31
0.0
  0
LINE
  5
26F
330
1F
100
AcDbEntity
  8
0
  6
CONTINUOUS
 62
     7
100
AcDbLine
 10
424.6818687488
 20
251.2343393736
 30
0.0
 11
434.7552027274
 21
251.2343393736
 31
0.0
  0
LINE
  5
270
330
1F
100
AcDbEntity
  8
0
  6
CONTINUOUS
 62
     7
100
AcDbLine
 10
425.9807433654
 20
273.4147029095
 30
0.0
 11
425.4034127761
 21
272.4147008829
 31
0.0
  0
LINE
  5
271
330
1F
100
AcDbEntity
  8
0
  6
CONTINUOUS
 62
     7
100
AcDbLine
 10
433.4863092471
 20
273.4147029095
 30
0.0
 11
425.9807433654
 21
273.4147029095
 31
0.0
  0
LINE
  5
272
330
1F
100
AcDbEntity
  8
0
  6
CONTINUOUS
 62
     7
100
AcDbLine
 10
434.0636696388
 20
272.4147008829
 30
0.0
 11
433.4863092471
 21
273.4147029095
 31
0.0
  0
ARC
  5
273
330
1F
100
AcDbEntity
  8
0
  6
CONTINUOUS
 62
     7
100
AcDbCircle
 10
436.6617341178
 20
273.9147034276
 30
0.0
 40
3.0
100
AcDbArc
 50
210.0
 51
270.0
  0
LINE
  5
274
330
1F
100
AcDbEntity
  8
0
  6
CONTINUOUS
 62
     7
100
AcDbLine
 10
446.7350806762
 20
270.9147052937
 30
0.0
 11
436.6617466975
 21
270.9147052937
 31
0.0
  0
LINE
  5
275
330
1F
100
AcDbEntity
  8
0
  6
CONTINUOUS
 62
     7
100
AcDbLine
 10
436.6617466975
 20
262.9147039824
 30
0.0
 11
446.7350806762
 21
262.9147039824
 31
0.0
  0
ARC
  5
276
330
1F
100
AcDbEntity
  8
0
  6
CONTINUOUS
 62
     7
100
AcDbCircle
 10
436.6617341178
 20
259.9147034276
 30
0.0
 40
3.0
100
AcDbArc
 50
90.0
 51
150.0
  0
LINE
  5
277
330
1F
100
AcDbEntity
  8
0
  6
CONTINUOUS
 62
     7
100
AcDbLine
 10
425.4034127761
 20
261.4147009425
 30
0.0
 11
425.9807433654
 21
260.4147063666
 31
0.0
  0
ARC
  5
278
330
1F
100
AcDbEntity
  8
0
  6
CONTINUOUS
 62
     7
100
AcDbCircle
 10
422.8053276572
 20
259.9147034276
 30
0.0
 40
3.0
100
AcDbArc
 50
30.0
 51
90.0
  0
LINE
  5
279
330
1F
100
AcDbEntity
  8
0
  6
CONTINUOUS
 62
     7
100
AcDbLine
 10
380.5477585365
 20
262.9147039824
 30
0.0
 11
422.8053357173
 21
262.9147039824
 31
0.0
  0
ARC
  5
27A
330
1F
100
AcDbEntity
  8
0
  6
CONTINUOUS
 62
     7
100
AcDbCircle
 10
338.4656554858
 20
252.9147034276
 30
0.0
 40
10.00000000000003
100
AcDbArc
 50
90.0
 51
121.9527464003
  0
ARC
  5
27B
330
1F
100
AcDbEntity
  8
0
  6
CONTINUOUS
 62
     7
100
AcDbCircle
 10
329.7335308875
 20
266.9147034276
 30
0.0
 40
6.500000000000058
100
AcDbArc
 50
238.0472535997
 51
301.9527464003
  0
ARC
  5
27C
330
1F
100
AcDbEntity
  8
0
  6
CONTINUOUS
 62
     7
100
AcDbCircle
 10
321.0014062892
 20
252.9147034276
 30
0.0
 40
10.00000000000003
100
AcDbArc
 50
58.0472535997
 51
90.0
  0
ARC
  5
27D
330
1F
100
AcDbEntity
  8
0
  6
CONTINUOUS
 62
     7
100
AcDbCircle
 10
321.0014062892
 20
280.9147034276
 30
0.0
 40
10.00000000000004
100
AcDbArc
 50
270.0
 51
301.9527464003
  0
ARC
  5
27E
330
1F
100
AcDbEntity
  8
0
  6
CONTINUOUS
 62
     7
100
AcDbCircle
 10
329.7335308875
 20
266.9147034276
 30
0.0
 40
6.50000000000001
100
AcDbArc
 50
58.0472535997
 51
121.9527464003
  0
ARC
  5
27F
330
1F
100
AcDbEntity
  8
0
  6
CONTINUOUS
 62
     7
100
AcDbCircle
 10
338.4656554858
 20
280.9147034276
 30
0.0
 40
10.00000000000001
100
AcDbArc
 50
238.0472535997
 51
270.0
  0
LINE
  5
280
330
1F
100
AcDbEntity
  8
0
  6
CONTINUOUS
 62
     7
100
AcDbLine
 10
433.4863092471
 20
260.4147063666
 30
0.0
 11
434.0636696388
 21
261.4147009425
 31
0.0
  0
LINE
  5
281
330
1F
100
AcDbEntity
  8
0
  6
CONTINUOUS
 62
     7
100
AcDbLine
 10
431.46559258
 20
266.914704638
 30
0.0
 11
430.5995668937
 21
268.4147002273
 31
0.0
  0
LINE
  5
282
330
1F
100
AcDbEntity
  8
0
  6
CONTINUOUS
 62
     7
100
AcDbLine
 10
430.5995668937
 20
268.4147002273
 30
0.0
 11
428.8675155212
 21
268.4147002273
 31
0.0
  0
LINE
  5
283
330
1F
100
AcDbEntity
  8
0
  6
CONTINUOUS
 62
     7
100
AcDbLine
 10
428.8675155212
 20
268.4147002273
 30
0.0
 11
428.0014898349
 21
266.914704638
 31
0.0
  0
LINE
  5
284
330
1F
100
AcDbEntity
  8
0
  6
CONTINUOUS
 62
     7
100
AcDbLine
 10
428.0014898349
 20
266.914704638
 30
0.0
 11
428.8675155212
 21
265.4147015982
 31
0.0
  0
LINE
  5
285
330
1F
100
AcDbEntity
  8
0
  6
CONTINUOUS
 62
     7
100
AcDbLine
 10
428.8675155212
 20
265.4147015982
 30
0.0
 11
430.5995668937
 21
265.4147015982
 31
0.0
  0
LINE
  5
286
330
1F
100
AcDbEntity
  8
0
  6
CONTINUOUS
 62
     7
100
AcDbLine
 10
430.5995668937
 20
265.4147015982
 30
0.0
 11
431.46559258
 21
266.914704638
 31
0.0
  0
CIRCLE
  5
287
330
1F
100
AcDbEntity
  8
0
  6
CONTINUOUS
 62
     7
100
AcDbCircle
 10
329.7335308875
 20
266.9147034276
 30
0.0
 40
1.399999999999977
  0
ARC
  5
288
330
1F
100
AcDbEntity
  8
0
  6
CONTINUOUS
 62
     7
100
AcDbCircle
 10
380.5477444499
 20
271.9147034276
 30
0.0
 40
1.000000000000008
100
AcDbArc
 50
225.0
 51
270.0
  0
LINE
  5
289
330
1F
100
AcDbEntity
  8
0
  6
CONTINUOUS
 62
     7
100
AcDbLine
 10
379.8406388332
 20
271.2075950675
 30
0.0
 11
379.7335292865
 21
271.3147046142
 31
0.0
  0
LINE
  5
28A
330
1F
100
AcDbEntity
  8
0
  6
CONTINUOUS
 62
     7
100
AcDbLine
 10
379.7335292865
 20
271.3147046142
 30
0.0
 11
379.6264197398
 21
271.2075950675
 31
0.0
  0
ARC
  5
28B
330
1F
100
AcDbEntity
  8
0
  6
CONTINUOUS
 62
     7
100
AcDbCircle
 10
378.9193173251
 20
271.9147034276
 30
0.0
 40
1.000000000000008
100
AcDbArc
 50
270.0
 51
315.0
  0
ARC
  5
28C
330
1F
100
AcDbEntity
  8
0
  6
CONTINUOUS
 62
     7
100
AcDbCircle
 10
380.5477444499
 20
261.9147034276
 30
0.0
 40
1.0
100
AcDbArc
 50
90.0
 51
135.0
  0
ARC
  5
28D
330
1F
100
AcDbEntity
  8
0
  6
CONTINUOUS
 62
     7
100
AcDbCircle
 10
378.9193173251
 20
261.9147034276
 30
0.0
 40
1.0
100
AcDbArc
 50
45.0
 51
90.0
  0
LINE
  5
28E
330
1F
100
AcDbEntity
  8
0
  6
CONTINUOUS
 62
     7
100
AcDbLine
 10
379.6264197398
 20
262.621806758
 30
0.0
 11
379.7335292865
 21
262.5147046619
 31
0.0
  0
LINE
  5
28F
330
1F
100
AcDbEntity
  8
0
  6
CONTINUOUS
 62
     7
100
AcDbLine
 10
379.7335292865
 20
262.5147046619
 30
0.0
 11
379.8406388332
 21
262.621806758
 31
0.0
  0
ARC
  5
290
330
1F
100
AcDbEntity
  8
0
  6
CONTINUOUS
 62
     7
100
AcDbCircle
 10
312.7319923349
 20
318.9147034276
 30
0.0
 40
47.99999999999994
100
AcDbArc
 50
255.9653520648
 51
270.0
  0
ARC
  5
291
330
1F
100
AcDbEntity
  8
0
  6
CONTINUOUS
 62
     7
100
AcDbCircle
 10
312.7319923349
 20
214.9147034276
 30
0.0
 40
48.0
100
AcDbArc
 50
90.0
 51
104.0346479352
  0
ARC
  5
292
330
1F
100
AcDbEntity
  8
0
  6
CONTINUOUS
 62
     7
100
AcDbCircle
 10
446.7350694401
 20
318.9147034276
 30
0.0
 40
47.99999999999994
100
AcDbArc
 50
270.0
 51
284.0346479352
  0
ARC
  5
293
330
1F
100
AcDbEntity
  8
0
  6
CONTINUOUS
 62
     7
100
AcDbCircle
 10
446.7350694401
 20
214.9147034276
 30
0.0
 40
48.0
100
AcDbArc
 50
75.9653520648
 51
90.0
  0
CIRCLE
  5
294
330
1F
100
AcDbEntity
  8
0
  6
CONTINUOUS
 62
     7
100
AcDbCircle
 10
299.7335308875
 20
266.9147034276
 30
0.0
 40
2.49807621135335
  0
ARC
  5
295
330
1F
100
AcDbEntity
  8
0
  6
CONTINUOUS
 62
     7
100
AcDbCircle
 10
422.8053276572
 20
273.9147034276
 30
0.0
 40
3.0
100
AcDbArc
 50
270.0
 51
330.0
  0
LINE
  5
296
330
1F
100
AcDbEntity
  8
0
  6
CONTINUOUS
 62
     7
100
AcDbLine
 10
312.731992798
 20
262.9147039824
 30
0.0
 11
321.0014071037
 21
262.9147039824
 31
0.0
  0
ARC
  5
297
330
1F
100
AcDbEntity
  8
0
  6
CONTINUOUS
 62
     7
100
AcDbCircle
 10
299.7335308875
 20
266.9147034276
 30
0.0
 40
5.600000000000022
100
AcDbArc
 50
75.9653520648
 51
284.0346479352
  0
ARC
  5
298
330
1F
100
AcDbEntity
  8
0
  6
CONTINUOUS
 62
     7
100
AcDbCircle
 10
459.7335308875
 20
266.9147034276
 30
0.0
 40
5.600000000000022
100
AcDbArc
 50
255.9653520648
 51
104.0346479352
  0
LINE
  5
299
330
1F
100
AcDbEntity
  8
0
  6
CONTINUOUS
 62
     7
100
AcDbLine
 10
425.9807433654
 20
260.4147063666
 30
0.0
 11
433.4863092471
 21
260.4147063666
 31
0.0
  0
LINE
  5
29A
330
1F
100
AcDbEntity
  8
0
  6
CONTINUOUS
 62
     7
100
AcDbLine
 10
321.0014071037
 20
270.9147052937
 30
0.0
 11
312.731992798
 21
270.9147052937
 31
0.0
  0
LINE
  5
29B
330
1F
100
AcDbEntity
  8
0
  6
CONTINUOUS
 62
     7
100
AcDbLine
 10
378.9193298389
 20
270.9147052937
 30
0.0
 11
338.4656574298
 21
270.9147052937
 31
0.0
  0
LINE
  5
29C
330
1F
100
AcDbEntity
  8
0
  6
CONTINUOUS
 62
     7
100
AcDbLine
 10
338.4656574298
 20
262.9147039824
 30
0.0
 11
378.9193298389
 21
262.9147039824
 31
0.0
  0
CIRCLE
  5
29D
330
1F
100
AcDbEntity
  8
0
  6
CONTINUOUS
 62
     7
100
AcDbCircle
 10
459.7335308875
 20
266.9147034276
 30
0.0
 40
2.498076211353293
  0
LINE
  5
29E
330
1F
100
AcDbEntity
  8
0
  6
CONTINUOUS
 62
     7
100
AcDbLine
 10
422.8053357173
 20
270.9147052937
 30
0.0
 11
380.5477585365
 21
270.9147052937
 31
0.0
  0
CIRCLE
  5
29F
330
1F
100
AcDbEntity
  8
0
  6
CONTINUOUS
 62
     7
100
AcDbCircle
 10
319.2511534433
 20
278.8945633639
 30
0.0
 40
1.400000000000034
  0
CIRCLE
  5
2A0
330
1F
100
AcDbEntity
  8
0
  6
CONTINUOUS
 62
     7
100
AcDbCircle
 10
289.2511534433
 20
278.8945633639
 30
0.0
 40
2.49807621135335
  0
LINE
  5
2A1
330
1F
100
AcDbEntity
  8
0
  6
CONTINUOUS
 62
     7
100
AcDbLine
 10
420.9831919242
 20
278.894560235
 30
0.0
 11
420.1171662379
 21
280.3945632749
 31
0.0
  0
LINE
  5
2A2
330
1F
100
AcDbEntity
  8
0
  6
CONTINUOUS
 62
     7
100
AcDbLine
 10
420.1171662379
 20
280.3945632749
 30
0.0
 11
418.3851148654
 21
280.3945632749
 31
0.0
  0
LINE
  5
2A3
330
1F
100
AcDbEntity
  8
0
  6
CONTINUOUS
 62
     7
100
AcDbLine
 10
418.3851148654
 20
280.3945632749
 30
0.0
 11
417.5190891792
 21
278.894560235
 31
0.0
  0
LINE
  5
2A4
330
1F
100
AcDbEntity
  8
0
  6
CONTINUOUS
 62
     7
100
AcDbLine
 10
417.5190891792
 20
278.894560235
 30
0.0
 11
418.3851148654
 21
277.3945646458
 31
0.0
  0
LINE
  5
2A5
330
1F
100
AcDbEntity
  8
0
  6
CONTINUOUS
 62
     7
100
AcDbLine
 10
418.3851148654
 20
277.3945646458
 30
0.0
 11
420.1171662379
 21
277.3945646458
 31
0.0
  0
LINE
  5
2A6
330
1F
100
AcDbEntity
  8
0
  6
CONTINUOUS
 62
     7
100
AcDbLine
 10
420.1171662379
 20
277.3945646458
 30
0.0
 11
420.9831919242
 21
278.894560235
 31
0.0
  0
CIRCLE
  5
2A7
330
1F
100
AcDbEntity
  8
0
  6
CONTINUOUS
 62
     7
100
AcDbCircle
 10
449.2511534433
 20
278.8945633639
 30
0.0
 40
2.498076211353293
  0
ARC
  5
2A8
330
1F
100
AcDbEntity
  8
0
  6
CONTINUOUS
 62
     7
100
AcDbCircle
 10
368.4369398809
 20
283.8945633639
 30
0.0
 40
1.000000000000008
100
AcDbArc
 50
270.0
 51
315.0
  0
LINE
  5
2A9
330
1F
100
AcDbEntity
  8
0
  6
CONTINUOUS
 62
     7
100
AcDbLine
 10
369.2511584331
 20
283.2945602112
 30
0.0
 11
369.1440488864
 21
283.1874581151
 31
0.0
  0
LINE
  5
2AA
330
1F
100
AcDbEntity
  8
0
  6
CONTINUOUS
 62
     7
100
AcDbLine
 10
369.3582679797
 20
283.1874581151
 30
0.0
 11
369.2511584331
 21
283.2945602112
 31
0.0
  0
ARC
  5
2AB
330
1F
100
AcDbEntity
  8
0
  6
CONTINUOUS
 62
     7
100
AcDbCircle
 10
370.0653670057
 20
283.8945633639
 30
0.0
 40
1.000000000000008
100
AcDbArc
 50
225.0
 51
270.0
  0
LINE
  5
2AC
330
1F
100
AcDbEntity
  8
0
  6
CONTINUOUS
 62
     7
100
AcDbLine
 10
412.3229648639
 20
282.8945608907
 30
0.0
 11
370.0653578807
 21
282.8945608907
 31
0.0
  0
ARC
  5
2AD
330
1F
100
AcDbEntity
  8
0
  6
CONTINUOUS
 62
     7
100
AcDbCircle
 10
412.322950213
 20
285.8945633639
 30
0.0
 40
3.0
100
AcDbArc
 50
270.0
 51
330.0
  0
LINE
  5
2AE
330
1F
100
AcDbEntity
  8
0
  6
CONTINUOUS
 62
     7
100
AcDbLine
 10
415.498372512
 20
285.3945659571
 30
0.0
 11
414.9210121204
 21
284.3945639305
 31
0.0
  0
LINE
  5
2AF
330
1F
100
AcDbEntity
  8
0
  6
CONTINUOUS
 62
     7
100
AcDbLine
 10
423.0039383937
 20
285.3945659571
 30
0.0
 11
415.498372512
 21
285.3945659571
 31
0.0
  0
LINE
  5
2B0
330
1F
100
AcDbEntity
  8
0
  6
CONTINUOUS
 62
     7
100
AcDbLine
 10
423.581268983
 20
284.3945639305
 30
0.0
 11
423.0039383937
 21
285.3945659571
 31
0.0
  0
ARC
  5
2B1
330
1F
100
AcDbEntity
  8
0
  6
CONTINUOUS
 62
     7
100
AcDbCircle
 10
426.1793566736
 20
285.8945633639
 30
0.0
 40
3.0
100
AcDbArc
 50
210.0
 51
270.0
  0
ARC
  5
2B2
330
1F
100
AcDbEntity
  8
0
  6
CONTINUOUS
 62
     7
100
AcDbCircle
 10
436.2526919959
 20
330.8945633639
 30
0.0
 40
47.99999999999996
100
AcDbArc
 50
270.0
 51
284.0346479352
  0
ARC
  5
2B3
330
1F
100
AcDbEntity
  8
0
  6
CONTINUOUS
 62
     7
100
AcDbCircle
 10
449.2511534433
 20
278.8945633639
 30
0.0
 40
5.600000000000022
100
AcDbArc
 50
255.9653520648
 51
104.0346479352
  0
ARC
  5
2B4
330
1F
100
AcDbEntity
  8
0
  6
CONTINUOUS
 62
     7
100
AcDbCircle
 10
436.2526919959
 20
226.8945633639
 30
0.0
 40
47.99999999999999
100
AcDbArc
 50
75.9653520648
 51
90.0
  0
LINE
  5
2B5
330
1F
100
AcDbEntity
  8
0
  6
CONTINUOUS
 62
     7
100
AcDbLine
 10
426.1793460418
 20
274.89456703
 30
0.0
 11
436.2526800205
 21
274.89456703
 31
0.0
  0
ARC
  5
2B6
330
1F
100
AcDbEntity
  8
0
  6
CONTINUOUS
 62
     7
100
AcDbCircle
 10
426.1793566736
 20
271.8945633639
 30
0.0
 40
3.0
100
AcDbArc
 50
90.0
 51
150.0
  0
LINE
  5
2B7
330
1F
100
AcDbEntity
  8
0
  6
CONTINUOUS
 62
     7
100
AcDbLine
 10
423.0039383937
 20
272.3945619636
 30
0.0
 11
423.581268983
 21
273.3945639901
 31
0.0
  0
LINE
  5
2B8
330
1F
100
AcDbEntity
  8
0
  6
CONTINUOUS
 62
     7
100
AcDbLine
 10
415.498372512
 20
272.3945619636
 30
0.0
 11
423.0039383937
 21
272.3945619636
 31
0.0
  0
LINE
  5
2B9
330
1F
100
AcDbEntity
  8
0
  6
CONTINUOUS
 62
     7
100
AcDbLine
 10
414.9210121204
 20
273.3945639901
 30
0.0
 11
415.498372512
 21
272.3945619636
 31
0.0
  0
ARC
  5
2BA
330
1F
100
AcDbEntity
  8
0
  6
CONTINUOUS
 62
     7
100
AcDbCircle
 10
412.322950213
 20
271.8945633639
 30
0.0
 40
3.0
100
AcDbArc
 50
30.0
 51
90.0
  0
ARC
  5
2BB
330
1F
100
AcDbEntity
  8
0
  6
CONTINUOUS
 62
     7
100
AcDbCircle
 10
370.0653670057
 20
273.8945633639
 30
0.0
 40
1.000000000000008
100
AcDbArc
 50
90.0
 51
135.0
  0
LINE
  5
2BC
330
1F
100
AcDbEntity
  8
0
  6
CONTINUOUS
 62
     7
100
AcDbLine
 10
369.2511584331
 20
274.4945602589
 30
0.0
 11
369.3582679797
 21
274.6016698056
 31
0.0
  0
LINE
  5
2BD
330
1F
100
AcDbEntity
  8
0
  6
CONTINUOUS
 62
     7
100
AcDbLine
 10
369.1440488864
 20
274.6016698056
 30
0.0
 11
369.2511584331
 21
274.4945602589
 31
0.0
  0
ARC
  5
2BE
330
1F
100
AcDbEntity
  8
0
  6
CONTINUOUS
 62
     7
100
AcDbCircle
 10
368.4369398809
 20
273.8945633639
 30
0.0
 40
1.000000000000008
100
AcDbArc
 50
45.0
 51
90.0
  0
LINE
  5
2BF
330
1F
100
AcDbEntity
  8
0
  6
CONTINUOUS
 62
     7
100
AcDbLine
 10
327.9832716752
 20
274.89456703
 30
0.0
 11
368.4369291831
 21
274.89456703
 31
0.0
  0
ARC
  5
2C0
330
1F
100
AcDbEntity
  8
0
  6
CONTINUOUS
 62
     7
100
AcDbCircle
 10
327.9832780416
 20
264.8945633639
 30
0.0
 40
10.00000000000001
100
AcDbArc
 50
90.0
 51
121.9527464003
  0
ARC
  5
2C1
330
1F
100
AcDbEntity
  8
0
  6
CONTINUOUS
 62
     7
100
AcDbCircle
 10
319.2511534433
 20
278.8945633639
 30
0.0
 40
6.49999999999998
100
AcDbArc
 50
238.0472535997
 51
301.9527464003
  0
ARC
  5
2C2
330
1F
100
AcDbEntity
  8
0
  6
CONTINUOUS
 62
     7
100
AcDbCircle
 10
310.519028845
 20
264.8945633639
 30
0.0
 40
10.00000000000001
100
AcDbArc
 50
58.0472535997
 51
90.0
  0
LINE
  5
2C3
330
1F
100
AcDbEntity
  8
0
  6
CONTINUOUS
 62
     7
100
AcDbLine
 10
302.2496219445
 20
274.89456703
 30
0.0
 11
310.5190362502
 21
274.89456703
 31
0.0
  0
ARC
  5
2C4
330
1F
100
AcDbEntity
  8
0
  6
CONTINUOUS
 62
     7
100
AcDbCircle
 10
302.2496148907
 20
226.8945633639
 30
0.0
 40
48.00000000000001
100
AcDbArc
 50
90.0
 51
104.0346479352
  0
ARC
  5
2C5
330
1F
100
AcDbEntity
  8
0
  6
CONTINUOUS
 62
     7
100
AcDbCircle
 10
289.2511534433
 20
278.8945633639
 30
0.0
 40
5.600000000000022
100
AcDbArc
 50
75.9653520648
 51
284.0346479352
  0
ARC
  5
2C6
330
1F
100
AcDbEntity
  8
0
  6
CONTINUOUS
 62
     7
100
AcDbCircle
 10
302.2496148907
 20
330.8945633639
 30
0.0
 40
47.99999999999998
100
AcDbArc
 50
255.9653520648
 51
270.0
  0
ARC
  5
2C7
330
1F
100
AcDbEntity
  8
0
  6
CONTINUOUS
 62
     7
100
AcDbCircle
 10
310.519028845
 20
292.8945633639
 30
0.0
 40
10.00000000000001
100
AcDbArc
 50
270.0
 51
301.9527464003
  0
ARC
  5
2C8
330
1F
100
AcDbEntity
  8
0
  6
CONTINUOUS
 62
     7
100
AcDbCircle
 10
319.2511534433
 20
278.8945633639
 30
0.0
 40
6.500000000000028
100
AcDbArc
 50
58.0472535997
 51
121.9527464003
  0
ARC
  5
2C9
330
1F
100
AcDbEntity
  8
0
  6
CONTINUOUS
 62
     7
100
AcDbCircle
 10
327.9832780416
 20
292.8945633639
 30
0.0
 40
10.00000000000001
100
AcDbArc
 50
238.0472535997
 51
270.0
  0
LINE
  5
2CA
330
1F
100
AcDbEntity
  8
0
  6
CONTINUOUS
 62
     7
100
AcDbLine
 10
370.0653578807
 20
274.89456703
 30
0.0
 11
412.3229648639
 21
274.89456703
 31
0.0
  0
LINE
  5
2CB
330
1F
100
AcDbEntity
  8
0
  6
CONTINUOUS
 62
     7
100
AcDbLine
 10
436.2526800205
 20
282.8945608907
 30
0.0
 11
426.1793460418
 21
282.8945608907
 31
0.0
  0
LINE
  5
2CC
330
1F
100
AcDbEntity
  8
0
  6
CONTINUOUS
 62
     7
100
AcDbLine
 10
310.5190362502
 20
282.8945608907
 30
0.0
 11
302.2496219445
 21
282.8945608907
 31
0.0
  0
LINE
  5
2CD
330
1F
100
AcDbEntity
  8
0
  6
CONTINUOUS
 62
     7
100
AcDbLine
 10
368.4369291831
 20
282.8945608907
 30
0.0
 11
327.9832716752
 21
282.8945608907
 31
0.0
  0
CIRCLE
  5
2CE
330
1F
100
AcDbEntity
  8
0
  6
CONTINUOUS
 62
     7
100
AcDbCircle
 10
411.6160770209
 20
321.2951989446
 30
0.0
 40
1.5
  0
CIRCLE
  5
2CF
330
1F
100
AcDbEntity
  8
0
  6
CONTINUOUS
 62
     7
100
AcDbCircle
 10
411.6160770209
 20
321.2951989446
 30
0.0
 40
3.0
  0
CIRCLE
  5
2D0
330
1F
100
AcDbEntity
  8
0
  6
CONTINUOUS
 62
     7
100
AcDbCircle
 10
397.4075312491
 20
330.7123588141
 30
0.0
 40
1.5
  0
CIRCLE
  5
2D1
330
1F
100
AcDbEntity
  8
0
  6
CONTINUOUS
 62
     7
100
AcDbCircle
 10
397.4075312491
 20
330.7123588141
 30
0.0
 40
3.0
  0
CIRCLE
  5
2D2
330
1F
100
AcDbEntity
  8
0
  6
CONTINUOUS
 62
     7
100
AcDbCircle
 10
402.2562401536
 20
321.4542942015
 30
0.0
 40
3.0
  0
CIRCLE
  5
2D3
330
1F
100
AcDbEntity
  8
0
  6
CONTINUOUS
 62
     7
100
AcDbCircle
 10
402.2562401536
 20
321.4542942015
 30
0.0
 40
1.5
  0
CIRCLE
  5
2D4
330
1F
100
AcDbEntity
  8
0
  6
CONTINUOUS
 62
     7
100
AcDbCircle
 10
393.0393050329
 20
321.5995571767
 30
0.0
 40
1.5
  0
CIRCLE
  5
2D5
330
1F
100
AcDbEntity
  8
0
  6
CONTINUOUS
 62
     7
100
AcDbCircle
 10
393.0393050329
 20
321.5995571767
 30
0.0
 40
3.0
  0
CIRCLE
  5
2D6
330
1F
100
AcDbEntity
  8
0
  6
CONTINUOUS
 62
     7
100
AcDbCircle
 10
407.1860652966
 20
330.411021648
 30
0.0
 40
1.5
  0
CIRCLE
  5
2D7
330
1F
100
AcDbEntity
  8
0
  6
CONTINUOUS
 62
     7
100
AcDbCircle
 10
407.1860652966
 20
330.411021648
 30
0.0
 40
3.0
  0
CIRCLE
  5
2D8
330
1F
100
AcDbEntity
  8
0
  6
CONTINUOUS
 62
     7
100
AcDbCircle
 10
386.5722730404
 20
341.9975117028
 30
0.0
 40
1.374999999999972
  0
CIRCLE
  5
2D9
330
1F
100
AcDbEntity
  8
0
  6
CONTINUOUS
 62
     7
100
AcDbCircle
 10
407.6090470553
 20
354.3851724606
 30
0.0
 40
1.374999999999972
  0
ARC
  5
2DA
330
1F
100
AcDbEntity
  8
0
  6
CONTINUOUS
 62
     7
100
AcDbCircle
 10
386.3968932804
 20
329.9742080075
 30
0.0
 40
4.000000000000052
100
AcDbArc
 50
178.9138230922
 51
265.5
  0
LINE
  5
2DB
330
1F
100
AcDbEntity
  8
0
  6
CONTINUOUS
 62
     7
100
AcDbLine
 10
382.6343383361
 20
342.5362872057
 30
0.0
 11
382.3976184894
 21
330.0500379973
 31
0.0
  0
LINE
  5
2DC
330
1F
100
AcDbEntity
  8
0
  6
CONTINUOUS
 62
     7
100
AcDbLine
 10
408.0248739291
 20
359.6688376837
 30
0.0
 11
402.043369012
 21
360.1395951681
 31
0.0
  0
ARC
  5
2DD
330
1F
100
AcDbEntity
  8
0
  6
CONTINUOUS
 62
     7
100
AcDbCircle
 10
407.6718143319
 20
355.1827063275
 30
0.0
 40
4.500000000000021
100
AcDbArc
 50
355.5
 51
85.5
  0
LINE
  5
2DE
330
1F
100
AcDbEntity
  8
0
  6
CONTINUOUS
 62
     7
100
AcDbLine
 10
411.3890494872
 20
345.0598435574
 30
0.0
 11
412.1579494048
 21
354.8296408825
 31
0.0
  0
ARC
  5
2DF
330
1F
100
AcDbEntity
  8
0
  6
CONTINUOUS
 62
     7
100
AcDbCircle
 10
406.9029151937
 20
345.412916457
 30
0.0
 40
4.500000000000023
100
AcDbArc
 50
233.2008142343
 51
355.5
  0
ARC
  5
2E0
330
1F
100
AcDbEntity
  8
0
  6
CONTINUOUS
 62
     7
100
AcDbCircle
 10
399.1076085117
 20
334.9924062147
 30
0.0
 40
8.513602113738967
100
AcDbArc
 50
53.2008142343
 51
149.1978344361
  0
ARC
  5
2E1
330
1F
100
AcDbEntity
  8
0
  6
CONTINUOUS
 62
     7
100
AcDbCircle
 10
395.2306926611
 20
337.3037105064
 30
0.0
 40
4.000000000000028
100
AcDbArc
 50
149.1978344361
 51
175.5
  0
LINE
  5
2E2
330
1F
100
AcDbEntity
  8
0
  6
CONTINUOUS
 62
     7
100
AcDbLine
 10
390.6153406669
 20
329.6422081166
 30
0.0
 11
391.243037181
 21
337.6175480061
 31
0.0
  0
ARC
  5
2E3
330
1F
100
AcDbEntity
  8
0
  6
CONTINUOUS
 62
     7
100
AcDbCircle
 10
386.6276812254
 20
329.9560446023
 30
0.0
 40
4.000000000000033
100
AcDbArc
 50
265.5
 51
355.5
  0
LINE
  5
2E4
330
1F
100
AcDbEntity
  8
0
  6
CONTINUOUS
 62
     7
100
AcDbLine
 10
386.0830630828
 20
325.9865360432
 30
0.0
 11
386.3138522674
 21
325.9683715277
 31
0.0
  0
CIRCLE
  5
2E5
330
1F
100
AcDbEntity
  8
0
  6
CONTINUOUS
 62
     7
100
AcDbCircle
 10
406.9029151937
 20
345.412916457
 30
0.0
 40
1.374999999999968
  0
ARC
  5
2E6
330
1F
100
AcDbEntity
  8
0
  6
CONTINUOUS
 62
     7
100
AcDbCircle
 10
400.6311125371
 20
342.1950768965
 30
0.0
 40
18.00000000000002
100
AcDbArc
 50
85.5
 51
178.9138230922
  0
ARC
  5
2E7
330
1F
100
AcDbEntity
  8
0
  6
CONTINUOUS
 62
     7
100
AcDbCircle
 10
432.6710362461
 20
354.8991255161
 30
0.0
 40
1.599999999999998
100
AcDbArc
 50
269.5
 51
89.5
  0
LINE
  5
2E8
330
1F
100
AcDbEntity
  8
0
  6
CONTINUOUS
 62
     7
100
AcDbLine
 10
432.6849844028
 20
356.4990626745
 30
0.0
 11
429.6851124336
 21
356.5252440148
 31
0.0
  0
ARC
  5
2E9
330
1F
100
AcDbEntity
  8
0
  6
CONTINUOUS
 62
     7
100
AcDbCircle
 10
429.6711504769
 20
354.9253051225
 30
0.0
 40
1.599999999999997
100
AcDbArc
 50
89.5
 51
269.5
  0
LINE
  5
2EA
330
1F
100
AcDbEntity
  8
0
  6
CONTINUOUS
 62
     7
100
AcDbLine
 10
462.3513783981
 20
318.1387202912
 30
0.0
 11
466.3861360122
 21
322.1036659651
 31
0.0
  0
LINE
  5
2EB
330
1F
100
AcDbEntity
  8
0
  6
CONTINUOUS
 62
     7
100
AcDbLine
 10
417.1678986121
 20
353.0479388409
 30
0.0
 11
417.074796157
 21
342.3799144202
 31
0.0
  0
LINE
  5
2EC
330
1F
100
AcDbEntity
  8
0
  6
CONTINUOUS
 62
     7
100
AcDbLine
 10
424.719330268
 20
360.4687320166
 30
0.0
 11
417.1678986121
 21
353.0479388409
 31
0.0
  0
LINE
  5
2ED
330
1F
100
AcDbEntity
  8
0
  6
CONTINUOUS
 62
     7
100
AcDbLine
 10
462.7178873588
 20
360.1371215754
 30
0.0
 11
424.719330268
 21
360.4687320166
 31
0.0
  0
LINE
  5
2EE
330
1F
100
AcDbEntity
  8
0
  6
CONTINUOUS
 62
     7
100
AcDbLine
 10
466.6828181316
 20
356.1023639612
 30
0.0
 11
462.7178873588
 21
360.1371215754
 31
0.0
  0
ARC
  5
2EF
330
1F
100
AcDbEntity
  8
0
  6
CONTINUOUS
 62
     7
100
AcDbCircle
 10
420.5362318691
 20
339.5044341345
 30
0.0
 40
4.49999999999997
100
AcDbArc
 50
218.7169833554
 51
140.2830166446
  0
ARC
  5
2F0
330
1F
100
AcDbEntity
  8
0
  6
CONTINUOUS
 62
     7
100
AcDbCircle
 10
432.4005136457
 20
323.9003059011
 30
0.0
 40
1.600000000000054
100
AcDbArc
 50
269.5
 51
89.5
  0
LINE
  5
2F1
330
1F
100
AcDbEntity
  8
0
  6
CONTINUOUS
 62
     7
100
AcDbLine
 10
429.3866719772
 20
322.3265426331
 30
0.0
 11
432.3865439464
 21
322.3003612929
 31
0.0
  0
ARC
  5
2F2
330
1F
100
AcDbEntity
  8
0
  6
CONTINUOUS
 62
     7
100
AcDbCircle
 10
429.4006278765
 20
323.9264855076
 30
0.0
 40
1.600000000000054
100
AcDbArc
 50
89.5
 51
269.5
  0
LINE
  5
2F3
330
1F
100
AcDbEntity
  8
0
  6
CONTINUOUS
 62
     7
100
AcDbLine
 10
429.6571876575
 20
353.32536866
 30
0.0
 11
432.6570596267
 21
353.2991873198
 31
0.0
  0
ARC
  5
2F4
330
1F
100
AcDbEntity
  8
0
  6
CONTINUOUS
 62
     7
100
AcDbCircle
 10
463.3993332606
 20
323.6297833006
 30
0.0
 40
1.600000000000054
100
AcDbArc
 50
269.5
 51
89.5
  0
LINE
  5
2F5
330
1F
100
AcDbEntity
  8
0
  6
CONTINUOUS
 62
     7
100
AcDbLine
 10
460.3854980041
 20
322.0560269528
 30
0.0
 11
463.3853699733
 21
322.0298456125
 31
0.0
  0
ARC
  5
2F6
330
1F
100
AcDbEntity
  8
0
  6
CONTINUOUS
 62
     7
100
AcDbCircle
 10
460.3994474915
 20
323.6559629071
 30
0.0
 40
1.599999999999998
100
AcDbArc
 50
89.5
 51
269.5
  0
LINE
  5
2F7
330
1F
100
AcDbEntity
  8
0
  6
CONTINUOUS
 62
     7
100
AcDbLine
 10
443.9375962783
 20
328.0997889214
 30
0.0
 11
446.9374980499
 21
328.0736075812
 31
0.0
  0
ARC
  5
2F8
330
1F
100
AcDbEntity
  8
0
  6
CONTINUOUS
 62
     7
100
AcDbCircle
 10
463.6698558611
 20
354.6286029156
 30
0.0
 40
1.600000000000054
100
AcDbArc
 50
269.5
 51
89.5
  0
LINE
  5
2F9
330
1F
100
AcDbEntity
  8
0
  6
CONTINUOUS
 62
     7
100
AcDbLine
 10
460.6560136844
 20
353.0548380785
 30
0.0
 11
463.6558856536
 21
353.0286567383
 31
0.0
  0
ARC
  5
2FA
330
1F
100
AcDbEntity
  8
0
  6
CONTINUOUS
 62
     7
100
AcDbCircle
 10
460.6699700919
 20
354.6547825221
 30
0.0
 40
1.600000000000054
100
AcDbArc
 50
89.5
 51
269.5
  0
LINE
  5
2FB
330
1F
100
AcDbEntity
  8
0
  6
CONTINUOUS
 62
     7
100
AcDbLine
 10
447.1329714824
 20
350.4727499657
 30
0.0
 11
444.1330697108
 21
350.4989313059
 31
0.0
  0
ARC
  5
2FC
330
1F
100
AcDbEntity
  8
0
  6
CONTINUOUS
 62
     7
100
AcDbCircle
 10
447.0352228303
 20
339.2731809438
 30
0.0
 40
11.20000000000004
100
AcDbArc
 50
269.5
 51
89.5
  0
LINE
  5
2FD
330
1F
100
AcDbEntity
  8
0
  6
CONTINUOUS
 62
     7
100
AcDbLine
 10
424.3528213073
 20
318.4703307324
 30
0.0
 11
462.3513783981
 21
318.1387202912
 31
0.0
  0
ARC
  5
2FE
330
1F
100
AcDbEntity
  8
0
  6
CONTINUOUS
 62
     7
100
AcDbCircle
 10
444.0353370611
 20
339.2993605503
 30
0.0
 40
11.2000000000001
100
AcDbArc
 50
89.5
 51
269.5
  0
LINE
  5
2FF
330
1F
100
AcDbEntity
  8
0
  6
CONTINUOUS
 62
     7
100
AcDbLine
 10
466.3861360122
 20
322.1036659651
 30
0.0
 11
466.6828181316
 21
356.1023639612
 31
0.0
  0
LINE
  5
300
330
1F
100
AcDbEntity
  8
0
  6
CONTINUOUS
 62
     7
100
AcDbLine
 10
416.9320430328
 20
326.0217772894
 30
0.0
 11
424.3528213073
 21
318.4703307324
 31
0.0
  0
LINE
  5
301
330
1F
100
AcDbEntity
  8
0
  6
CONTINUOUS
 62
     7
100
AcDbLine
 10
417.0251156856
 20
336.6898017102
 30
0.0
 11
416.9320430328
 21
326.0217772894
 31
0.0
  0
LINE
  5
302
330
1F
100
AcDbEntity
  8
0
  6
CONTINUOUS
 62
     7
100
AcDbLine
 10
432.4144687225
 20
325.5002515488
 30
0.0
 11
429.4145967532
 21
325.5264179878
 31
0.0
  0
LINE
  5
303
330
1F
100
AcDbEntity
  8
0
  6
CONTINUOUS
 62
     7
100
AcDbLine
 10
463.6838104297
 20
356.2285469942
 30
0.0
 11
460.6839384605
 21
356.2547283345
 31
0.0
  0
LINE
  5
304
330
1F
100
AcDbEntity
  8
0
  6
CONTINUOUS
 62
     7
100
AcDbLine
 10
463.4132947494
 20
325.2297209673
 30
0.0
 11
460.4134227802
 21
325.2559023075
 31
0.0
  0
CIRCLE
  5
305
330
1F
100
AcDbEntity
  8
0
  6
CONTINUOUS
 62
     7
100
AcDbCircle
 10
522.633352457
 20
384.5529348544
 30
0.0
 40
1.499999999999943
  0
CIRCLE
  5
306
330
1F
100
AcDbEntity
  8
0
  6
CONTINUOUS
 62
     7
100
AcDbCircle
 10
491.633352457
 20
206.5129348544
 30
0.0
 40
1.5
  0
CIRCLE
  5
307
330
1F
100
AcDbEntity
  8
0
  6
CONTINUOUS
 62
     7
100
AcDbCircle
 10
522.633352457
 20
206.5129348544
 30
0.0
 40
1.5
  0
CIRCLE
  5
308
330
1F
100
AcDbEntity
  8
0
  6
CONTINUOUS
 62
     7
100
AcDbCircle
 10
491.633352457
 20
384.5529348544
 30
0.0
 40
1.499999999999943
  0
ARC
  5
309
330
1F
100
AcDbEntity
  8
0
  6
CONTINUOUS
 62
     7
100
AcDbCircle
 10
102.7867041306
 20
385.8529348544
 30
0.0
 40
2.849999999999985
100
AcDbArc
 50
31.7568638593
 51
328.2431361407
  0
LINE
  5
30A
330
1F
100
AcDbEntity
  8
0
  6
CONTINUOUS
 62
     7
100
AcDbLine
 10
105.2100289334
 20
384.3529390269
 30
0.0
 11
107.6333526243
 21
384.3529390269
 31
0.0
  0
ARC
  5
30B
330
1F
100
AcDbEntity
  8
0
  6
CONTINUOUS
 62
     7
100
AcDbCircle
 10
107.633352457
 20
385.8529348544
 30
0.0
 40
1.5
100
AcDbArc
 50
270.0
 51
90.0
  0
LINE
  5
30C
330
1F
100
AcDbEntity
  8
0
  6
CONTINUOUS
 62
     7
100
AcDbLine
 10
107.6333526243
 20
387.3529302054
 30
0.0
 11
105.2100289334
 21
387.3529302054
 31
0.0
  0
ARC
  5
30D
330
1F
100
AcDbEntity
  8
0
  6
CONTINUOUS
 62
     7
100
AcDbCircle
 10
102.7867041306
 20
205.2129348544
 30
0.0
 40
2.850000000000015
100
AcDbArc
 50
31.7568638593
 51
328.2431361407
  0
LINE
  5
30E
330
1F
100
AcDbEntity
  8
0
  6
CONTINUOUS
 62
     7
100
AcDbLine
 10
105.2100289334
 20
203.7129344516
 30
0.0
 11
107.6333526243
 21
203.7129344516
 31
0.0
  0
ARC
  5
30F
330
1F
100
AcDbEntity
  8
0
  6
CONTINUOUS
 62
     7
100
AcDbCircle
 10
107.633352457
 20
205.2129348544
 30
0.0
 40
1.5
100
AcDbArc
 50
270.0
 51
90.0
  0
LINE
  5
310
330
1F
100
AcDbEntity
  8
0
  6
CONTINUOUS
 62
     7
100
AcDbLine
 10
107.6333526243
 20
206.7129349433
 30
0.0
 11
105.2100289334
 21
206.7129349433
 31
0.0
  0
CIRCLE
  5
311
330
1F
100
AcDbEntity
  8
0
  6
CONTINUOUS
 62
     7
100
AcDbCircle
 10
483.633352457
 20
295.5329348544
 30
0.0
 40
1.5
  0
CIRCLE
  5
312
330
1F
100
AcDbEntity
  8
0
  6
CONTINUOUS
 62
     7
100
AcDbCircle
 10
99.633352457
 20
295.5329348544
 30
0.0
 40
1.5
  0
ARC
  5
313
330
1F
100
AcDbEntity
  8
0
  6
CONTINUOUS
 62
     7
100
AcDbCircle
 10
505.733352457
 20
254.8329348544
 30
0.0
 40
0.8000000000000114
100
AcDbArc
 50
270.0
 51
0.0
  0
ARC
  5
314
330
1F
100
AcDbEntity
  8
0
  6
CONTINUOUS
 62
     7
100
AcDbCircle
 10
505.733352457
 20
268.2329348544
 30
0.0
 40
0.8000000000000114
100
AcDbArc
 50
0.0
 51
90.0
  0
LINE
  5
315
330
1F
100
AcDbEntity
  8
0
  6
CONTINUOUS
 62
     7
100
AcDbLine
 10
505.733337598
 20
269.0329345041
 30
0.0
 11
493.2333495189
 21
269.0329345041
 31
0.0
  0
ARC
  5
316
330
1F
100
AcDbEntity
  8
0
  6
CONTINUOUS
 62
     7
100
AcDbCircle
 10
493.233352457
 20
268.2329348544
 30
0.0
 40
0.8000000000000114
100
AcDbArc
 50
90.0
 51
180.0
  0
LINE
  5
317
330
1F
100
AcDbEntity
  8
0
  6
CONTINUOUS
 62
     7
100
AcDbLine
 10
492.433365779
 20
268.232935863
 30
0.0
 11
492.433365779
 21
254.8329362743
 31
0.0
  0
ARC
  5
318
330
1F
100
AcDbEntity
  8
0
  6
CONTINUOUS
 62
     7
100
AcDbCircle
 10
493.233352457
 20
254.8329348544
 30
0.0
 40
0.8000000000000398
100
AcDbArc
 50
180.0
 51
270.0
  0
LINE
  5
319
330
1F
100
AcDbEntity
  8
0
  6
CONTINUOUS
 62
     7
100
AcDbLine
 10
493.2333495189
 20
254.032933908
 30
0.0
 11
505.733337598
 21
254.032933908
 31
0.0
  0
ARC
  5
31A
330
1F
100
AcDbEntity
  8
0
  6
CONTINUOUS
 62
     7
100
AcDbCircle
 10
494.633352457
 20
275.8329348544
 30
0.0
 40
0.8000000000000682
100
AcDbArc
 50
270.0
 51
0.0
  0
ARC
  5
31B
330
1F
100
AcDbEntity
  8
0
  6
CONTINUOUS
 62
     7
100
AcDbCircle
 10
494.633352457
 20
289.2329348544
 30
0.0
 40
0.8000000000000114
100
AcDbArc
 50
0.0
 51
90.0
  0
LINE
  5
31C
330
1F
100
AcDbEntity
  8
0
  6
CONTINUOUS
 62
     7
100
AcDbLine
 10
494.6333434154
 20
290.0329323583
 30
0.0
 11
493.2333495189
 21
290.0329323583
 31
0.0
  0
ARC
  5
31D
330
1F
100
AcDbEntity
  8
0
  6
CONTINUOUS
 62
     7
100
AcDbCircle
 10
493.233352457
 20
289.2329348544
 30
0.0
 40
0.8000000000000114
100
AcDbArc
 50
90.0
 51
180.0
  0
LINE
  5
31E
330
1F
100
AcDbEntity
  8
0
  6
CONTINUOUS
 62
     7
100
AcDbLine
 10
492.433365779
 20
289.2329337173
 30
0.0
 11
492.433365779
 21
275.8329378538
 31
0.0
  0
ARC
  5
31F
330
1F
100
AcDbEntity
  8
0
  6
CONTINUOUS
 62
     7
100
AcDbCircle
 10
493.233352457
 20
275.8329348544
 30
0.0
 40
0.8000000000000114
100
AcDbArc
 50
180.0
 51
270.0
  0
LINE
  5
320
330
1F
100
AcDbEntity
  8
0
  6
CONTINUOUS
 62
     7
100
AcDbLine
 10
493.2333495189
 20
275.0329317622
 30
0.0
 11
494.6333434154
 21
275.0329317622
 31
0.0
  0
ARC
  5
321
330
1F
100
AcDbEntity
  8
0
  6
CONTINUOUS
 62
     7
100
AcDbCircle
 10
498.133352457
 20
292.3329348544
 30
0.0
 40
0.8000000000000114
100
AcDbArc
 50
270.0
 51
0.0
  0
LINE
  5
322
330
1F
100
AcDbEntity
  8
0
  6
CONTINUOUS
 62
     7
100
AcDbLine
 10
498.9333416988
 20
292.3329340391
 30
0.0
 11
498.9333416988
 21
303.7329333
 31
0.0
  0
ARC
  5
323
330
1F
100
AcDbEntity
  8
0
  6
CONTINUOUS
 62
     7
100
AcDbCircle
 10
498.133352457
 20
303.7329348544
 30
0.0
 40
0.8000000000000114
100
AcDbArc
 50
0.0
 51
90.0
  0
ARC
  5
324
330
1F
100
AcDbEntity
  8
0
  6
CONTINUOUS
 62
     7
100
AcDbCircle
 10
490.733352457
 20
303.7329348544
 30
0.0
 40
0.8000000000000114
100
AcDbArc
 50
90.0
 51
180.0
  0
LINE
  5
325
330
1F
100
AcDbEntity
  8
0
  6
CONTINUOUS
 62
     7
100
AcDbLine
 10
489.9333383609
 20
303.7329333
 30
0.0
 11
489.9333383609
 21
292.3329340391
 31
0.0
  0
ARC
  5
326
330
1F
100
AcDbEntity
  8
0
  6
CONTINUOUS
 62
     7
100
AcDbCircle
 10
490.733352457
 20
292.3329348544
 30
0.0
 40
0.8000000000000114
100
AcDbArc
 50
180.0
 51
270.0
  0
LINE
  5
327
330
1F
100
AcDbEntity
  8
0
  6
CONTINUOUS
 62
     7
100
AcDbLine
 10
490.7333519031
 20
291.5329353981
 30
0.0
 11
498.1333579589
 21
291.5329353981
 31
0.0
  0
LINE
  5
328
330
1F
100
AcDbEntity
  8
0
  6
CONTINUOUS
 62
     7
100
AcDbLine
 10
141.2333514262
 20
297.5329326563
 30
0.0
 11
131.2333535124
 21
297.5329326563
 31
0.0
  0
ARC
  5
329
330
1F
100
AcDbEntity
  8
0
  6
CONTINUOUS
 62
     7
100
AcDbCircle
 10
131.233352457
 20
287.5329348544
 30
0.0
 40
10.0
100
AcDbArc
 50
90.0
 51
270.0
  0
LINE
  5
32A
330
1F
100
AcDbEntity
  8
0
  6
CONTINUOUS
 62
     7
100
AcDbLine
 10
131.2333535124
 20
277.5329368286
 30
0.0
 11
141.2333514262
 21
277.5329368286
 31
0.0
  0
ARC
  5
32B
330
1F
100
AcDbEntity
  8
0
  6
CONTINUOUS
 62
     7
100
AcDbCircle
 10
141.233352457
 20
287.5329348544
 30
0.0
 40
10.0
100
AcDbArc
 50
270.0
 51
90.0
  0
CIRCLE
  5
32C
330
1F
100
AcDbEntity
  8
0
  6
CONTINUOUS
 62
     7
100
AcDbCircle
 10
204.133352457
 20
295.5329348544
 30
0.0
 40
1.599999999999966
  0
CIRCLE
  5
32D
330
1F
100
AcDbEntity
  8
0
  6
CONTINUOUS
 62
     7
100
AcDbCircle
 10
107.733352457
 20
303.0329348544
 30
0.0
 40
1.599999999999966
  0
CIRCLE
  5
32E
330
1F
100
AcDbEntity
  8
0
  6
CONTINUOUS
 62
     7
100
AcDbCircle
 10
107.733352457
 20
272.0329348544
 30
0.0
 40
1.600000000000023
  0
LINE
  5
32F
330
1F
100
AcDbEntity
  8
0
  6
CONTINUOUS
 62
     7
100
AcDbLine
 10
130.7833533455
 20
216.9629352265
 30
0.0
 11
130.7833533455
 21
218.2629348808
 31
0.0
  0
ARC
  5
330
330
1F
100
AcDbEntity
  8
0
  6
CONTINUOUS
 62
     7
100
AcDbCircle
 10
130.133352457
 20
218.2629348544
 30
0.0
 40
0.6500000000000057
100
AcDbArc
 50
0.0
 51
180.0
  0
LINE
  5
331
330
1F
100
AcDbEntity
  8
0
  6
CONTINUOUS
 62
     7
100
AcDbLine
 10
129.4833536912
 20
218.2629348808
 30
0.0
 11
129.4833536912
 21
216.9629352265
 31
0.0
  0
ARC
  5
332
330
1F
100
AcDbEntity
  8
0
  6
CONTINUOUS
 62
     7
100
AcDbCircle
 10
130.133352457
 20
216.9629348544
 30
0.0
 40
0.6500000000000057
100
AcDbArc
 50
180.0
 51
0.0
  0
LINE
  5
333
330
1F
100
AcDbEntity
  8
0
  6
CONTINUOUS
 62
     7
100
AcDbLine
 10
140.2833539714
 20
216.9629352265
 30
0.0
 11
140.2833539714
 21
218.2629348808
 31
0.0
  0
ARC
  5
334
330
1F
100
AcDbEntity
  8
0
  6
CONTINUOUS
 62
     7
100
AcDbCircle
 10
139.633352457
 20
218.2629348544
 30
0.0
 40
0.6499999999999773
100
AcDbArc
 50
0.0
 51
180.0
  0
LINE
  5
335
330
1F
100
AcDbEntity
  8
0
  6
CONTINUOUS
 62
     7
100
AcDbLine
 10
138.9833543171
 20
218.2629348808
 30
0.0
 11
138.9833543171
 21
216.9629352265
 31
0.0
  0
ARC
  5
336
330
1F
100
AcDbEntity
  8
0
  6
CONTINUOUS
 62
     7
100
AcDbCircle
 10
139.633352457
 20
216.9629348544
 30
0.0
 40
0.6499999999999773
100
AcDbArc
 50
180.0
 51
0.0
  0
LINE
  5
337
330
1F
100
AcDbEntity
  8
0
  6
CONTINUOUS
 62
     7
100
AcDbLine
 10
130.7833533455
 20
372.8029297762
 30
0.0
 11
130.7833533455
 21
374.1029368811
 31
0.0
  0
ARC
  5
338
330
1F
100
AcDbEntity
  8
0
  6
CONTINUOUS
 62
     7
100
AcDbCircle
 10
130.133352457
 20
374.1029348544
 30
0.0
 40
0.6500000000000341
100
AcDbArc
 50
0.0
 51
180.0
  0
LINE
  5
339
330
1F
100
AcDbEntity
  8
0
  6
CONTINUOUS
 62
     7
100
AcDbLine
 10
129.4833536912
 20
374.1029368811
 30
0.0
 11
129.4833536912
 21
372.8029297762
 31
0.0
  0
ARC
  5
33A
330
1F
100
AcDbEntity
  8
0
  6
CONTINUOUS
 62
     7
100
AcDbCircle
 10
130.133352457
 20
372.8029348544
 30
0.0
 40
0.6500000000000341
100
AcDbArc
 50
180.0
 51
0.0
  0
LINE
  5
33B
330
1F
100
AcDbEntity
  8
0
  6
CONTINUOUS
 62
     7
100
AcDbLine
 10
140.2833539714
 20
372.8029297762
 30
0.0
 11
140.2833539714
 21
374.1029368811
 31
0.0
  0
ARC
  5
33C
330
1F
100
AcDbEntity
  8
0
  6
CONTINUOUS
 62
     7
100
AcDbCircle
 10
139.633352457
 20
374.1029348544
 30
0.0
 40
0.6500000000000341
100
AcDbArc
 50
0.0
 51
180.0
  0
LINE
  5
33D
330
1F
100
AcDbEntity
  8
0
  6
CONTINUOUS
 62
     7
100
AcDbLine
 10
138.9833543171
 20
374.1029368811
 30
0.0
 11
138.9833543171
 21
372.8029297762
 31
0.0
  0
ARC
  5
33E
330
1F
100
AcDbEntity
  8
0
  6
CONTINUOUS
 62
     7
100
AcDbCircle
 10
139.633352457
 20
372.8029348544
 30
0.0
 40
0.6500000000000341
100
AcDbArc
 50
180.0
 51
0.0
  0
LINE
  5
33F
330
1F
100
AcDbEntity
  8
0
  6
CONTINUOUS
 62
     7
100
AcDbLine
 10
203.1333561708
 20
364.4529299908
 30
0.0
 11
205.1333527733
 21
364.4529299908
 31
0.0
  0
ARC
  5
340
330
1F
100
AcDbEntity
  8
0
  6
CONTINUOUS
 62
     7
100
AcDbCircle
 10
205.133352457
 20
365.4529348544
 30
0.0
 40
1.000000000000057
100
AcDbArc
 50
270.0
 51
90.0
  0
LINE
  5
341
330
1F
100
AcDbEntity
  8
0
  6
CONTINUOUS
 62
     7
100
AcDbLine
 10
205.1333527733
 20
366.4529340439
 30
0.0
 11
203.1333561708
 21
366.4529340439
 31
0.0
  0
ARC
  5
342
330
1F
100
AcDbEntity
  8
0
  6
CONTINUOUS
 62
     7
100
AcDbCircle
 10
203.133352457
 20
365.4529348544
 30
0.0
 40
1.000000000000057
100
AcDbArc
 50
90.0
 51
270.0
  0
LINE
  5
343
330
1F
100
AcDbEntity
  8
0
  6
CONTINUOUS
 62
     7
100
AcDbLine
 10
302.6333566476
 20
224.6129343384
 30
0.0
 11
304.6333457996
 21
224.6129343384
 31
0.0
  0
ARC
  5
344
330
1F
100
AcDbEntity
  8
0
  6
CONTINUOUS
 62
     7
100
AcDbCircle
 10
304.633352457
 20
225.6129348544
 30
0.0
 40
1.000000000000057
100
AcDbArc
 50
270.0
 51
0.0
  0
ARC
  5
345
330
1F
100
AcDbEntity
  8
0
  6
CONTINUOUS
 62
     7
100
AcDbCircle
 10
438.633352457
 20
225.6129348544
 30
0.0
 40
1.0
100
AcDbArc
 50
180.0
 51
270.0
  0
LINE
  5
346
330
1F
100
AcDbEntity
  8
0
  6
CONTINUOUS
 62
     7
100
AcDbLine
 10
438.6333491374
 20
224.6129343384
 30
0.0
 11
440.6333531905
 21
224.6129343384
 31
0.0
  0
ARC
  5
347
330
1F
100
AcDbEntity
  8
0
  6
CONTINUOUS
 62
     7
100
AcDbCircle
 10
440.633352457
 20
225.6129348544
 30
0.0
 40
1.000000000000057
100
AcDbArc
 50
270.0
 51
0.0
  0
LINE
  5
348
330
1F
100
AcDbEntity
  8
0
  6
CONTINUOUS
 62
     7
100
AcDbLine
 10
441.6333403159
 20
225.6129345023
 30
0.0
 11
461.6333510448
 21
225.6129345023
 31
0.0
  0
ARC
  5
349
330
1F
100
AcDbEntity
  8
0
  6
CONTINUOUS
 62
     7
100
AcDbCircle
 10
461.633352457
 20
235.6129348544
 30
0.0
 40
10.00000000000003
100
AcDbArc
 50
270.0
 51
0.0
  0
LINE
  5
34A
330
1F
100
AcDbEntity
  8
0
  6
CONTINUOUS
 62
     7
100
AcDbLine
 10
471.633341508
 20
235.6129342788
 30
0.0
 11
471.633341508
 21
355.4529415541
 31
0.0
  0
ARC
  5
34B
330
1F
100
AcDbEntity
  8
0
  6
CONTINUOUS
 62
     7
100
AcDbCircle
 10
461.633352457
 20
355.4529348544
 30
0.0
 40
10.0
100
AcDbArc
 50
0.0
 51
90.0
  0
LINE
  5
34C
330
1F
100
AcDbEntity
  8
0
  6
CONTINUOUS
 62
     7
100
AcDbLine
 10
461.6333510448
 20
365.4529320173
 30
0.0
 11
441.6333403159
 21
365.4529320173
 31
0.0
  0
ARC
  5
34D
330
1F
100
AcDbEntity
  8
0
  6
CONTINUOUS
 62
     7
100
AcDbCircle
 10
440.633352457
 20
365.4529348544
 30
0.0
 40
1.0
100
AcDbArc
 50
0.0
 51
90.0
  0
LINE
  5
34E
330
1F
100
AcDbEntity
  8
0
  6
CONTINUOUS
 62
     7
100
AcDbLine
 10
440.6333531905
 20
366.4529340439
 30
0.0
 11
438.6333491374
 21
366.4529340439
 31
0.0
  0
ARC
  5
34F
330
1F
100
AcDbEntity
  8
0
  6
CONTINUOUS
 62
     7
100
AcDbCircle
 10
438.633352457
 20
365.4529348544
 30
0.0
 40
1.000000000000057
100
AcDbArc
 50
90.0
 51
180.0
  0
ARC
  5
350
330
1F
100
AcDbEntity
  8
0
  6
CONTINUOUS
 62
     7
100
AcDbCircle
 10
304.633352457
 20
365.4529348544
 30
0.0
 40
1.000000000000057
100
AcDbArc
 50
360.0
 51
90.0
  0
LINE
  5
351
330
1F
100
AcDbEntity
  8
0
  6
CONTINUOUS
 62
     7
100
AcDbLine
 10
304.6333457996
 20
366.4529340439
 30
0.0
 11
302.6333566476
 21
366.4529340439
 31
0.0
  0
ARC
  5
352
330
1F
100
AcDbEntity
  8
0
  6
CONTINUOUS
 62
     7
100
AcDbCircle
 10
302.633352457
 20
365.4529348544
 30
0.0
 40
1.0
100
AcDbArc
 50
90.0
 51
180.0
  0
ARC
  5
353
330
1F
100
AcDbEntity
  8
0
  6
CONTINUOUS
 62
     7
100
AcDbCircle
 10
281.633352457
 20
355.4529348544
 30
0.0
 40
10.0
100
AcDbArc
 50
90.0
 51
180.0
  0
LINE
  5
354
330
1F
100
AcDbEntity
  8
0
  6
CONTINUOUS
 62
     7
100
AcDbLine
 10
271.633353429
 20
355.4529415541
 30
0.0
 11
271.633353429
 21
235.6129342788
 31
0.0
  0
ARC
  5
355
330
1F
100
AcDbEntity
  8
0
  6
CONTINUOUS
 62
     7
100
AcDbCircle
 10
281.633352457
 20
235.6129348544
 30
0.0
 40
10.0
100
AcDbArc
 50
180.0
 51
270.0
  0
ARC
  5
356
330
1F
100
AcDbEntity
  8
0
  6
CONTINUOUS
 62
     7
100
AcDbCircle
 10
302.633352457
 20
225.6129348544
 30
0.0
 40
1.000000000000028
100
AcDbArc
 50
180.0
 51
270.0
  0
ARC
  5
357
330
1F
100
AcDbEntity
  8
0
  6
CONTINUOUS
 62
     7
100
AcDbCircle
 10
530.133352457
 20
367.6245077297
 30
0.0
 40
2.000000000000016
100
AcDbArc
 50
135.0
 51
180.0
  0
LINE
  5
358
330
1F
100
AcDbEntity
  8
0
  6
CONTINUOUS
 62
     7
100
AcDbLine
 10
528.133359151
 20
223.4413622045
 30
0.0
 11
528.133359151
 21
367.6245080405
 31
0.0
  0
ARC
  5
359
330
1F
100
AcDbEntity
  8
0
  6
CONTINUOUS
 62
     7
100
AcDbCircle
 10
530.133352457
 20
223.4413619791
 30
0.0
 40
2.000000000000016
100
AcDbArc
 50
180.0
 51
225.0
  0
LINE
  5
35A
330
1F
100
AcDbEntity
  8
0
  6
CONTINUOUS
 62
     7
100
AcDbLine
 10
530.5475558807
 20
220.1987205171
 30
0.0
 11
528.7191535999
 21
222.0271488749
 31
0.0
  0
ARC
  5
35B
330
1F
100
AcDbEntity
  8
0
  6
CONTINUOUS
 62
     7
100
AcDbCircle
 10
529.133352457
 20
218.7845077297
 30
0.0
 40
2.000000000000056
100
AcDbArc
 50
0.0
 51
45.0
  0
LINE
  5
35C
330
1F
100
AcDbEntity
  8
0
  6
CONTINUOUS
 62
     7
100
AcDbLine
 10
531.1333503295
 20
201.6129347593
 30
0.0
 11
531.1333503295
 21
218.7845071875
 31
0.0
  0
ARC
  5
35D
330
1F
100
AcDbEntity
  8
0
  6
CONTINUOUS
 62
     7
100
AcDbCircle
 10
529.133352457
 20
201.6129348544
 30
0.0
 40
2.0
100
AcDbArc
 50
270.0
 51
0.0
  0
LINE
  5
35E
330
1F
100
AcDbEntity
  8
0
  6
CONTINUOUS
 62
     7
100
AcDbLine
 10
481.1333384086
 20
199.6129348971
 30
0.0
 11
529.1333462764
 21
199.6129348971
 31
0.0
  0
ARC
  5
35F
330
1F
100
AcDbEntity
  8
0
  6
CONTINUOUS
 62
     7
100
AcDbCircle
 10
463.8128443813
 20
189.6129348544
 30
0.0
 40
20.00000000000003
100
AcDbArc
 50
30.0
 51
90.0
  0
LINE
  5
360
330
1F
100
AcDbEntity
  8
0
  6
CONTINUOUS
 62
     7
100
AcDbLine
 10
463.8128544856
 20
209.6129346736
 30
0.0
 11
441.6333403159
 21
209.6129346736
 31
0.0
  0
ARC
  5
361
330
1F
100
AcDbEntity
  8
0
  6
CONTINUOUS
 62
     7
100
AcDbCircle
 10
440.633352457
 20
209.6129348544
 30
0.0
 40
1.000000000000057
100
AcDbArc
 50
0.0
 51
90.0
  0
LINE
  5
362
330
1F
100
AcDbEntity
  8
0
  6
CONTINUOUS
 62
     7
100
AcDbLine
 10
440.6333531905
 20
210.6129348375
 30
0.0
 11
438.6333491374
 21
210.6129348375
 31
0.0
  0
ARC
  5
363
330
1F
100
AcDbEntity
  8
0
  6
CONTINUOUS
 62
     7
100
AcDbCircle
 10
438.633352457
 20
209.6129348544
 30
0.0
 40
1.000000000000028
100
AcDbArc
 50
90.0
 51
180.0
  0
ARC
  5
364
330
1F
100
AcDbEntity
  8
0
  6
CONTINUOUS
 62
     7
100
AcDbCircle
 10
304.633352457
 20
209.6129348544
 30
0.0
 40
1.0
100
AcDbArc
 50
0.0
 51
90.0
  0
LINE
  5
365
330
1F
100
AcDbEntity
  8
0
  6
CONTINUOUS
 62
     7
100
AcDbLine
 10
304.6333457996
 20
210.6129348375
 30
0.0
 11
302.6333566476
 21
210.6129348375
 31
0.0
  0
ARC
  5
366
330
1F
100
AcDbEntity
  8
0
  6
CONTINUOUS
 62
     7
100
AcDbCircle
 10
302.633352457
 20
209.6129348544
 30
0.0
 40
0.9999999999999716
100
AcDbArc
 50
90.0
 51
180.0
  0
ARC
  5
367
330
1F
100
AcDbEntity
  8
0
  6
CONTINUOUS
 62
     7
100
AcDbCircle
 10
205.133352457
 20
209.6129348544
 30
0.0
 40
1.000000000000028
100
AcDbArc
 50
0.0
 51
90.0
  0
LINE
  5
368
330
1F
100
AcDbEntity
  8
0
  6
CONTINUOUS
 62
     7
100
AcDbLine
 10
205.1333527733
 20
210.6129348375
 30
0.0
 11
203.1333561708
 21
210.6129348375
 31
0.0
  0
ARC
  5
369
330
1F
100
AcDbEntity
  8
0
  6
CONTINUOUS
 62
     7
100
AcDbCircle
 10
203.133352457
 20
209.6129348544
 30
0.0
 40
1.0
100
AcDbArc
 50
90.0
 51
180.0
  0
ARC
  5
36A
330
1F
100
AcDbEntity
  8
0
  6
CONTINUOUS
 62
     7
100
AcDbCircle
 10
130.4538605327
 20
189.6129348544
 30
0.0
 40
20.0
100
AcDbArc
 50
90.0
 51
150.0
  0
LINE
  5
36B
330
1F
100
AcDbEntity
  8
0
  6
CONTINUOUS
 62
     7
100
AcDbLine
 10
97.1333523002
 20
293.8746230774
 30
0.0
 11
97.1333523002
 21
199.6129348971
 31
0.0
  0
ARC
  5
36C
330
1F
100
AcDbEntity
  8
0
  6
CONTINUOUS
 62
     7
100
AcDbCircle
 10
99.633352457
 20
295.5329348544
 30
0.0
 40
3.000000000000041
100
AcDbArc
 50
146.4426902381
 51
213.5573097619
  0
LINE
  5
36D
330
1F
100
AcDbEntity
  8
0
  6
CONTINUOUS
 62
     7
100
AcDbLine
 10
113.1333525945
 20
391.4529400044
 30
0.0
 11
97.1333523002
 21
391.4529400044
 31
0.0
  0
ARC
  5
36E
330
1F
100
AcDbEntity
  8
0
  6
CONTINUOUS
 62
     7
100
AcDbCircle
 10
130.4538605327
 20
401.4529348544
 30
0.0
 40
20.0
100
AcDbArc
 50
210.0
 51
270.0
  0
ARC
  5
36F
330
1F
100
AcDbEntity
  8
0
  6
CONTINUOUS
 62
     7
100
AcDbCircle
 10
203.133352457
 20
381.4529348544
 30
0.0
 40
1.0
100
AcDbArc
 50
180.0
 51
270.0
  0
LINE
  5
370
330
1F
100
AcDbEntity
  8
0
  6
CONTINUOUS
 62
     7
100
AcDbLine
 10
203.1333561708
 20
380.4529326134
 30
0.0
 11
205.1333527733
 21
380.4529326134
 31
0.0
  0
ARC
  5
371
330
1F
100
AcDbEntity
  8
0
  6
CONTINUOUS
 62
     7
100
AcDbCircle
 10
205.133352457
 20
381.4529348544
 30
0.0
 40
1.0
100
AcDbArc
 50
270.0
 51
0.0
  0
ARC
  5
372
330
1F
100
AcDbEntity
  8
0
  6
CONTINUOUS
 62
     7
100
AcDbCircle
 10
302.633352457
 20
381.4529348544
 30
0.0
 40
1.0
100
AcDbArc
 50
180.0
 51
270.0
  0
ARC
  5
373
330
1F
100
AcDbEntity
  8
0
  6
CONTINUOUS
 62
     7
100
AcDbCircle
 10
304.633352457
 20
381.4529348544
 30
0.0
 40
1.0
100
AcDbArc
 50
270.0
 51
0.0
  0
ARC
  5
374
330
1F
100
AcDbEntity
  8
0
  6
CONTINUOUS
 62
     7
100
AcDbCircle
 10
438.633352457
 20
381.4529348544
 30
0.0
 40
1.000000000000057
100
AcDbArc
 50
180.0
 51
270.0
  0
LINE
  5
375
330
1F
100
AcDbEntity
  8
0
  6
CONTINUOUS
 62
     7
100
AcDbLine
 10
438.6333491374
 20
380.4529326134
 30
0.0
 11
440.6333531905
 21
380.4529326134
 31
0.0
  0
ARC
  5
376
330
1F
100
AcDbEntity
  8
0
  6
CONTINUOUS
 62
     7
100
AcDbCircle
 10
440.633352457
 20
381.4529348544
 30
0.0
 40
1.0
100
AcDbArc
 50
270.0
 51
0.0
  0
LINE
  5
377
330
1F
100
AcDbEntity
  8
0
  6
CONTINUOUS
 62
     7
100
AcDbLine
 10
441.6333403159
 20
381.45293464
 30
0.0
 11
463.8128544856
 21
381.45293464
 31
0.0
  0
ARC
  5
378
330
1F
100
AcDbEntity
  8
0
  6
CONTINUOUS
 62
     7
100
AcDbCircle
 10
463.8128443813
 20
401.4529348544
 30
0.0
 40
19.99999999999997
100
AcDbArc
 50
270.0
 51
330.0
  0
LINE
  5
379
330
1F
100
AcDbEntity
  8
0
  6
CONTINUOUS
 62
     7
100
AcDbLine
 10
531.1333503295
 20
372.2813593321
 30
0.0
 11
531.1333503295
 21
389.4529359513
 31
0.0
  0
ARC
  5
37A
330
1F
100
AcDbEntity
  8
0
  6
CONTINUOUS
 62
     7
100
AcDbCircle
 10
529.133352457
 20
372.2813619791
 30
0.0
 40
2.000000000000016
100
AcDbArc
 50
315.0
 51
0.0
  0
LINE
  5
37B
330
1F
100
AcDbEntity
  8
0
  6
CONTINUOUS
 62
     7
100
AcDbLine
 10
528.7191535999
 20
369.0387176447
 30
0.0
 11
530.5475558807
 21
370.8671497278
 31
0.0
  0
LINE
  5
37C
330
1F
100
AcDbEntity
  8
0
  6
CONTINUOUS
 62
     7
100
AcDbLine
 10
203.1333561708
 20
224.6129343384
 30
0.0
 11
205.1333527733
 21
224.6129343384
 31
0.0
  0
ARC
  5
37D
330
1F
100
AcDbEntity
  8
0
  6
CONTINUOUS
 62
     7
100
AcDbCircle
 10
205.133352457
 20
225.6129348544
 30
0.0
 40
1.000000000000028
100
AcDbArc
 50
270.0
 51
90.0
  0
LINE
  5
37E
330
1F
100
AcDbEntity
  8
0
  6
CONTINUOUS
 62
     7
100
AcDbLine
 10
205.1333527733
 20
226.6129346662
 30
0.0
 11
203.1333561708
 21
226.6129346662
 31
0.0
  0
ARC
  5
37F
330
1F
100
AcDbEntity
  8
0
  6
CONTINUOUS
 62
     7
100
AcDbCircle
 10
203.133352457
 20
225.6129348544
 30
0.0
 40
1.000000000000028
100
AcDbArc
 50
90.0
 51
270.0
  0
LINE
  5
380
330
1F
100
AcDbEntity
  8
0
  6
CONTINUOUS
 62
     7
100
AcDbLine
 10
158.6333553959
 20
365.3456436568
 30
0.0
 11
160.6333519984
 21
365.3456436568
 31
0.0
  0
ARC
  5
381
330
1F
100
AcDbEntity
  8
0
  6
CONTINUOUS
 62
     7
100
AcDbCircle
 10
160.633352457
 20
366.3456473802
 30
0.0
 40
1.0
100
AcDbArc
 50
270.0
 51
90.0
  0
LINE
  5
382
330
1F
100
AcDbEntity
  8
0
  6
CONTINUOUS
 62
     7
100
AcDbLine
 10
160.6333519984
 20
367.3456477099
 30
0.0
 11
158.6333553959
 21
367.3456477099
 31
0.0
  0
ARC
  5
383
330
1F
100
AcDbEntity
  8
0
  6
CONTINUOUS
 62
     7
100
AcDbCircle
 10
158.633352457
 20
366.3456473802
 30
0.0
 40
0.9999999999999432
100
AcDbArc
 50
90.0
 51
270.0
  0
LINE
  5
384
330
1F
100
AcDbEntity
  8
0
  6
CONTINUOUS
 62
     7
100
AcDbLine
 10
158.6333553959
 20
349.3456410341
 30
0.0
 11
160.6333519984
 21
349.3456410341
 31
0.0
  0
LINE
  5
385
330
1F
100
AcDbEntity
  8
0
  6
CONTINUOUS
 62
     7
100
AcDbLine
 10
160.6333519984
 20
351.3456450873
 30
0.0
 11
158.6333553959
 21
351.3456450873
 31
0.0
  0
ARC
  5
386
330
1F
100
AcDbEntity
  8
0
  6
CONTINUOUS
 62
     7
100
AcDbCircle
 10
158.633352457
 20
350.3456473802
 30
0.0
 40
1.0
100
AcDbArc
 50
90.0
 51
270.0
  0
LINE
  5
387
330
1F
100
AcDbEntity
  8
0
  6
CONTINUOUS
 62
     7
100
AcDbLine
 10
158.6333553959
 20
223.720222535
 30
0.0
 11
160.6333519984
 21
223.720222535
 31
0.0
  0
LINE
  5
388
330
1F
100
AcDbEntity
  8
0
  6
CONTINUOUS
 62
     7
100
AcDbLine
 10
160.6333519984
 20
225.7202228629
 30
0.0
 11
158.6333553959
 21
225.7202228629
 31
0.0
  0
ARC
  5
389
330
1F
100
AcDbEntity
  8
0
  6
CONTINUOUS
 62
     7
100
AcDbCircle
 10
158.633352457
 20
224.7202223286
 30
0.0
 40
0.9999999999999716
100
AcDbArc
 50
90.0
 51
270.0
  0
LINE
  5
38A
330
1F
100
AcDbEntity
  8
0
  6
CONTINUOUS
 62
     7
100
AcDbLine
 10
158.6333553959
 20
239.720223295
 30
0.0
 11
160.6333519984
 21
239.720223295
 31
0.0
  0
LINE
  5
38B
330
1F
100
AcDbEntity
  8
0
  6
CONTINUOUS
 62
     7
100
AcDbLine
 10
160.6333519984
 20
241.7202236228
 30
0.0
 11
158.6333553959
 21
241.7202236228
 31
0.0
  0
ARC
  5
38C
330
1F
100
AcDbEntity
  8
0
  6
CONTINUOUS
 62
     7
100
AcDbCircle
 10
158.633352457
 20
240.7202223286
 30
0.0
 40
1.0
100
AcDbArc
 50
90.0
 51
270.0
  0
LINE
  5
38D
330
1F
100
AcDbEntity
  8
0
  6
CONTINUOUS
 62
     7
100
AcDbLine
 10
97.1333523002
 20
199.6129348971
 30
0.0
 11
113.1333525945
 21
199.6129348971
 31
0.0
  0
LINE
  5
38E
330
1F
100
AcDbEntity
  8
0
  6
CONTINUOUS
 62
     7
100
AcDbLine
 10
529.1333462764
 20
391.4529400044
 30
0.0
 11
481.1333384086
 21
391.4529400044
 31
0.0
  0
LINE
  5
38F
330
1F
100
AcDbEntity
  8
0
  6
CONTINUOUS
 62
     7
100
AcDbLine
 10
97.1333523002
 20
391.4529400044
 30
0.0
 11
97.1333523002
 21
297.1912490301
 31
0.0
  0
LINE
  5
390
330
1F
100
AcDbEntity
  8
0
  6
CONTINUOUS
 62
     7
100
AcDbLine
 10
206.1333547999
 20
381.45293464
 30
0.0
 11
301.6333546211
 21
381.45293464
 31
0.0
  0
LINE
  5
391
330
1F
100
AcDbEntity
  8
0
  6
CONTINUOUS
 62
     7
100
AcDbLine
 10
301.6333546211
 20
365.4529320173
 30
0.0
 11
281.6333587934
 21
365.4529320173
 31
0.0
  0
LINE
  5
392
330
1F
100
AcDbEntity
  8
0
  6
CONTINUOUS
 62
     7
100
AcDbLine
 10
130.4538588692
 20
381.45293464
 30
0.0
 11
202.1333541442
 21
381.45293464
 31
0.0
  0
LINE
  5
393
330
1F
100
AcDbEntity
  8
0
  6
CONTINUOUS
 62
     7
100
AcDbLine
 10
305.6333478261
 20
381.45293464
 30
0.0
 11
437.633362012
 21
381.45293464
 31
0.0
  0
LINE
  5
394
330
1F
100
AcDbEntity
  8
0
  6
CONTINUOUS
 62
     7
100
AcDbLine
 10
437.633362012
 20
365.4529320173
 30
0.0
 11
305.6333478261
 21
365.4529320173
 31
0.0
  0
LINE
  5
395
330
1F
100
AcDbEntity
  8
0
  6
CONTINUOUS
 62
     7
100
AcDbLine
 10
437.633362012
 20
209.6129346736
 30
0.0
 11
305.6333478261
 21
209.6129346736
 31
0.0
  0
LINE
  5
396
330
1F
100
AcDbEntity
  8
0
  6
CONTINUOUS
 62
     7
100
AcDbLine
 10
305.6333478261
 20
225.6129345023
 30
0.0
 11
437.633362012
 21
225.6129345023
 31
0.0
  0
LINE
  5
397
330
1F
100
AcDbEntity
  8
0
  6
CONTINUOUS
 62
     7
100
AcDbLine
 10
301.6333546211
 20
209.6129346736
 30
0.0
 11
206.1333547999
 21
209.6129346736
 31
0.0
  0
LINE
  5
398
330
1F
100
AcDbEntity
  8
0
  6
CONTINUOUS
 62
     7
100
AcDbLine
 10
281.6333587934
 20
225.6129345023
 30
0.0
 11
301.6333546211
 21
225.6129345023
 31
0.0
  0
LINE
  5
399
330
1F
100
AcDbEntity
  8
0
  6
CONTINUOUS
 62
     7
100
AcDbLine
 10
202.1333541442
 20
209.6129346736
 30
0.0
 11
130.4538588692
 21
209.6129346736
 31
0.0
  0
ARC
  5
39A
330
1F
100
AcDbEntity
  8
0
  6
CONTINUOUS
 62
     7
100
AcDbCircle
 10
529.133352457
 20
389.4529348544
 30
0.0
 40
2.0
100
AcDbArc
 50
0.0
 51
90.0
  0
LINE
  5
39B
330
1F
100
AcDbEntity
  8
0
  6
CONTINUOUS
 62
     7
100
AcDbLine
 10
302.6333566476
 20
380.4529326134
 30
0.0
 11
304.6333457996
 21
380.4529326134
 31
0.0
  0
CIRCLE
  5
39C
330
1F
100
AcDbEntity
  8
0
  6
CONTINUOUS
 62
     7
100
AcDbCircle
 10
515.433352457
 20
249.5329348544
 30
0.0
 40
4.0
  0
LINE
  5
39D
330
1F
100
AcDbEntity
  8
0
  6
CONTINUOUS
 62
     7
100
AcDbLine
 10
498.1333579589
 20
304.5329319411
 30
0.0
 11
490.7333519031
 21
304.5329319411
 31
0.0
  0
LINE
  5
39E
330
1F
100
AcDbEntity
  8
0
  6
CONTINUOUS
 62
     7
100
AcDbLine
 10
495.4333569576
 20
275.8329378538
 30
0.0
 11
495.4333569576
 21
289.2329337173
 31
0.0
  0
LINE
  5
39F
330
1F
100
AcDbEntity
  8
0
  6
CONTINUOUS
 62
     7
100
AcDbLine
 10
506.5333511401
 20
254.8329362743
 30
0.0
 11
506.5333511401
 21
268.232935863
 31
0.0
  0
ARC
  5
3A0
330
1F
100
AcDbEntity
  8
0
  6
CONTINUOUS
 62
     7
100
AcDbCircle
 10
160.633352457
 20
350.3456473802
 30
0.0
 40
1.0
100
AcDbArc
 50
270.0
 51
90.0
  0
ARC
  5
3A1
330
1F
100
AcDbEntity
  8
0
  6
CONTINUOUS
 62
     7
100
AcDbCircle
 10
160.633352457
 20
240.7202223286
 30
0.0
 40
1.0
100
AcDbArc
 50
270.0
 51
90.0
  0
ARC
  5
3A2
330
1F
100
AcDbEntity
  8
0
  6
CONTINUOUS
 62
     7
100
AcDbCircle
 10
160.633352457
 20
224.7202223286
 30
0.0
 40
1.0
100
AcDbArc
 50
270.0
 51
90.0
  0
ENDSEC
  0
SECTION
  2
OBJECTS
  0
DICTIONARY
  5
C
330
0
100
AcDbDictionary
  3
ACAD_GROUP
350
D
  3
ACAD_MLINESTYLE
350
17
  3
ACAD_SCALELIST
350
47
  0
DICTIONARY
  5
D
102
{ACAD_REACTORS
330
C
102
}
330
C
100
AcDbDictionary
  0
DICTIONARY
  5
17
102
{ACAD_REACTORS
330
C
102
}
330
C
100
AcDbDictionary
  3
STANDARD
350
18
  0
DICTIONARY
  5
47
102
{ACAD_REACTORS
330
C
102
}
330
C
100
AcDbDictionary
  0
MLINESTYLE
  5
18
102
{ACAD_REACTORS
330
17
102
}
330
17
100
AcDbMlineStyle
  2
Standard
 70
     0
  3

 62
   256
 51
90.0
 52
90.0
 71
     2
 49
0.5
 62
   256
  6
BYLAYER
 49
-0.5
 62
   256
  6
BYLAYER
  0
ENDSEC
  0
EOF
