  0
SECTION
  2
HEADER
  9
$ACADVER
  1
AC1014
  9
$ACADMAINTVER
 70
     9
  9
$DWGCODEPAGE
  3
ANSI_1252
  9
$INSBASE
 10
0.0
 20
0.0
 30
0.0
  9
$EXTMIN
 10
0.0
 20
0.0
 30
0.0
  9
$EXTMAX
 10
550.0
 20
400.0
 30
0.0
  9
$LIMMIN
 10
0.0
 20
0.0
  9
$LIMMAX
 10
550.0
 20
400.0
  9
$ORTHOMODE
 70
     0
  9
$REGENMODE
 70
     1
  9
$FILLMODE
 70
     1
  9
$QTEXTMODE
 70
     0
  9
$MIRRTEXT
 70
     1
  9
$DRAGMODE
 70
     2
  9
$LTSCALE
 40
1.0
  9
$OSMODE
 70
    37
  9
$ATTMODE
 70
     1
  9
$TEXTSIZE
 40
3.5
  9
$TRACEWID
 40
1.0
  9
$TEXTSTYLE
  7
STANDARD
  9
$CLAYER
  8
0
  9
$CELTYPE
  6
BYLAYER
  9
$CECOLOR
 62
   256
  9
$CELTSCALE
 40
1.0
  9
$DELOBJ
 70
     1
  9
$DISPSILH
 70
     0
  9
$DIMSCALE
 40
1.0
  9
$DIMASZ
 40
3.302
  9
$DIMEXO
 40
1.0
  9
$DIMDLI
 40
3.75
  9
$DIMRND
 40
0.0
  9
$DIMDLE
 40
0.0
  9
$DIMEXE
 40
1.0
  9
$DIMTP
 40
0.0
  9
$DIMTM
 40
0.0
  9
$DIMTXT
 40
3.5
  9
$DIMCEN
 40
2.5
  9
$DIMTSZ
 40
0.0
  9
$DIMTOL
 70
     0
  9
$DIMLIM
 70
     0
  9
$DIMTIH
 70
     1
  9
$DIMTOH
 70
     1
  9
$DIMSE1
 70
     0
  9
$DIMSE2
 70
     0
  9
$DIMTAD
 70
     1
  9
$DIMZIN
 70
     0
  9
$DIMBLK
  1

  9
$DIMASO
 70
     1
  9
$DIMSHO
 70
     1
  9
$DIMPOST
  1

  9
$DIMAPOST
  1

  9
$DIMALT
 70
     0
  9
$DIMALTD
 70
     3
  9
$DIMALTF
 40
0.0393700787
  9
$DIMLFAC
 40
1.0
  9
$DIMTOFL
 70
     1
  9
$DIMTVP
 40
0.0
  9
$DIMTIX
 70
     0
  9
$DIMSOXD
 70
     0
  9
$DIMSAH
 70
     0
  9
$DIMBLK1
  1

  9
$DIMBLK2
  1

  9
$DIMSTYLE
  2
ISO-25
  9
$DIMCLRD
 70
     0
  9
$DIMCLRE
 70
     0
  9
$DIMCLRT
 70
     0
  9
$DIMTFAC
 40
1.0
  9
$DIMGAP
 40
1.524
  9
$DIMJUST
 70
     0
  9
$DIMSD1
 70
     0
  9
$DIMSD2
 70
     0
  9
$DIMTOLJ
 70
     0
  9
$DIMTZIN
 70
     0
  9
$DIMALTZ
 70
     0
  9
$DIMALTTZ
 70
     0
  9
$DIMFIT
 70
     3
  9
$DIMUPT
 70
     0
  9
$DIMUNIT
 70
     2
  9
$DIMDEC
 70
     2
  9
$DIMTDEC
 70
     2
  9
$DIMALTU
 70
     2
  9
$DIMALTTD
 70
     3
  9
$DIMTXSTY
  7
STANDARD
  9
$DIMAUNIT
 70
     0
  9
$LUNITS
 70
     2
  9
$LUPREC
 70
     2
  9
$SKETCHINC
 40
1.0
  9
$FILLETRAD
 40
10.0
  9
$AUNITS
 70
     0
  9
$AUPREC
 70
     0
  9
$MENU
  1
.
  9
$ELEVATION
 40
0.0
  9
$PELEVATION
 40
0.0
  9
$THICKNESS
 40
0.0
  9
$LIMCHECK
 70
     0
  9
$CHAMFERA
 40
0.0
  9
$CHAMFERB
 40
0.0
  9
$CHAMFERC
 40
0.0
  9
$CHAMFERD
 40
0.0
  9
$SKPOLY
 70
     0
  9
$TDCREATE
 40
2457409.523607396
  9
$TDUPDATE
 40
2457409.52360831
  9
$TDINDWG
 40
0.0000000116
  9
$TDUSRTIMER
 40
0.0000000116
  9
$USRTIMER
 70
     1
  9
$ANGBASE
 50
0.0
  9
$ANGDIR
 70
     0
  9
$PDMODE
 70
     0
  9
$PDSIZE
 40
-1.0
  9
$PLINEWID
 40
0.0
  9
$COORDS
 70
     1
  9
$SPLFRAME
 70
     0
  9
$SPLINETYPE
 70
     6
  9
$SPLINESEGS
 70
     8
  9
$ATTDIA
 70
     0
  9
$ATTREQ
 70
     1
  9
$HANDLING
 70
     1
  9
$HANDSEED
  5
39B
  9
$SURFTAB1
 70
     6
  9
$SURFTAB2
 70
     6
  9
$SURFTYPE
 70
     6
  9
$SURFU
 70
     6
  9
$SURFV
 70
     6
  9
$UCSNAME
  2

  9
$UCSORG
 10
0.0
 20
0.0
 30
0.0
  9
$UCSXDIR
 10
1.0
 20
0.0
 30
0.0
  9
$UCSYDIR
 10
0.0
 20
1.0
 30
0.0
  9
$PUCSNAME
  2

  9
$PUCSORG
 10
0.0
 20
0.0
 30
0.0
  9
$PUCSXDIR
 10
1.0
 20
0.0
 30
0.0
  9
$PUCSYDIR
 10
0.0
 20
1.0
 30
0.0
  9
$USERI1
 70
     0
  9
$USERI2
 70
     0
  9
$USERI3
 70
     0
  9
$USERI4
 70
     0
  9
$USERI5
 70
     0
  9
$USERR1
 40
0.0
  9
$USERR2
 40
0.0
  9
$USERR3
 40
0.0
  9
$USERR4
 40
0.0
  9
$USERR5
 40
0.0
  9
$WORLDVIEW
 70
     1
  9
$SHADEDGE
 70
     3
  9
$SHADEDIF
 70
    70
  9
$TILEMODE
 70
     1
  9
$MAXACTVP
 70
    64
  9
$PINSBASE
 10
0.0
 20
0.0
 30
0.0
  9
$PLIMCHECK
 70
     0
  9
$PEXTMIN
 10
1.0000000000E+20
 20
1.0000000000E+20
 30
1.0000000000E+20
  9
$PEXTMAX
 10
-1.0000000000E+20
 20
-1.0000000000E+20
 30
-1.0000000000E+20
  9
$PLIMMIN
 10
0.0
 20
0.0
  9
$PLIMMAX
 10
420.0
 20
297.0
  9
$UNITMODE
 70
     0
  9
$VISRETAIN
 70
     1
  9
$PLINEGEN
 70
     0
  9
$PSLTSCALE
 70
     1
  9
$TREEDEPTH
 70
  3020
  9
$PICKSTYLE
 70
     1
  9
$CMLSTYLE
  2
STANDARD
  9
$CMLJUST
 70
     0
  9
$CMLSCALE
 40
20.0
  9
$PROXYGRAPHICS
 70
     1
  9
$MEASUREMENT
 70
     1
  0
ENDSEC
  0
SECTION
  2
CLASSES
  0
CLASS
  1
ACDBDICTIONARYWDFLT
  2
AcDbDictionaryWithDefault
  3
ObjectDBX Classes
 90
        0
280
     0
281
     0
  0
CLASS
  1
VISUALSTYLE
  2
AcDbVisualStyle
  3
ObjectDBX Classes
 90
     4095
280
     0
281
     0
  0
CLASS
  1
MATERIAL
  2
AcDbMaterial
  3
ObjectDBX Classes
 90
     1153
280
     0
281
     0
  0
CLASS
  1
SCALE
  2
AcDbScale
  3
ObjectDBX Classes
 90
     1153
280
     0
281
     0
  0
CLASS
  1
TABLESTYLE
  2
AcDbTableStyle
  3
ObjectDBX Classes
 90
     4095
280
     0
281
     0
  0
CLASS
  1
MLEADERSTYLE
  2
AcDbMLeaderStyle
  3
ACDB_MLEADERSTYLE_CLASS
 90
     4095
280
     0
281
     0
  0
CLASS
  1
SUN
  2
AcDbSun
  3
SCENEOE
 90
     1153
280
     0
281
     0
  0
CLASS
  1
XRECORD
  2
AcDbXrecord
  3
ObjectDBX Classes
 90
        0
280
     0
281
     0
  0
CLASS
  1
LWPOLYLINE
  2
AcDbPolyline
  3
ObjectDBX Classes
 90
        0
280
     0
281
     1
  0
CLASS
  1
HATCH
  2
AcDbHatch
  3
ObjectDBX Classes
 90
        0
280
     0
281
     1
  0
ENDSEC
  0
SECTION
  2
TABLES
  0
TABLE
  2
VPORT
  5
8
330
0
100
AcDbSymbolTable
 70
     1
  0
VPORT
  5
29
330
8
100
AcDbSymbolTableRecord
100
AcDbViewportTableRecord
  2
*ACTIVE
 70
     0
 10
0.0
 20
0.0
 11
1.0
 21
1.0
 12
275.0
 22
200.0
 13
0.0
 23
0.0
 14
10.0
 24
10.0
 15
10.0
 25
10.0
 16
0.0
 26
0.0
 36
1.0
 17
0.0
 27
0.0
 37
0.0
 40
400.0
 41
1.375
 42
50.0
 43
0.0
 44
0.0
 50
0.0
 51
0.0
 71
     0
 72
  2000
 73
     1
 74
     3
 75
     0
 76
     0
 77
     0
 78
     0
  0
ENDTAB
  0
TABLE
  2
LTYPE
  5
5
330
0
100
AcDbSymbolTable
 70
     6
  0
LTYPE
  5
14
330
5
100
AcDbSymbolTableRecord
100
AcDbLinetypeTableRecord
  2
BYBLOCK
 70
     0
  3

 72
    65
 73
     0
 40
0.0
  0
LTYPE
  5
15
330
5
100
AcDbSymbolTableRecord
100
AcDbLinetypeTableRecord
  2
BYLAYER
 70
     0
  3

 72
    65
 73
     0
 40
0.0
  0
LTYPE
  5
16
330
5
100
AcDbSymbolTableRecord
100
AcDbLinetypeTableRecord
  2
CONTINUOUS
 70
     0
  3
Solid line
 72
    65
 73
     0
 40
0.0
  0
LTYPE
  5
6E
330
5
100
AcDbSymbolTableRecord
100
AcDbLinetypeTableRecord
  2
HIDDEN
 70
     0
  3
Hidden __ __ __ __ __ __ __ __ __ __ __ __ __ __
 72
    65
 73
     2
 40
1.905
 49
1.27
 74
     0
 49
-0.635
 74
     0
  0
LTYPE
  5
6F
330
5
100
AcDbSymbolTableRecord
100
AcDbLinetypeTableRecord
  2
PHANTOM
 70
     0
  3
Phantom ______  __  __  ______  __  __  ______
 72
    65
 73
     6
 40
12.7
 49
6.35
 74
     0
 49
-1.27
 74
     0
 49
1.27
 74
     0
 49
-1.27
 74
     0
 49
1.27
 74
     0
 49
-1.27
 74
     0
  0
LTYPE
  5
70
330
5
100
AcDbSymbolTableRecord
100
AcDbLinetypeTableRecord
  2
CENTER
 70
     0
  3
Center ____ _ ____ _ ____ _ ____ _ ____ _ ____
 72
    65
 73
     4
 40
10.16
 49
6.35
 74
     0
 49
-1.27
 74
     0
 49
1.27
 74
     0
 49
-1.27
 74
     0
  0
LTYPE
  5
71
330
5
100
AcDbSymbolTableRecord
100
AcDbLinetypeTableRecord
  2
CENTERX2
 70
     0
  3
Center (2x) ________  __  ________  __  _____
 72
    65
 73
     4
 40
20.32
 49
12.7
 74
     0
 49
-2.54
 74
     0
 49
2.54
 74
     0
 49
-2.54
 74
     0
  0
LTYPE
  5
72
330
5
100
AcDbSymbolTableRecord
100
AcDbLinetypeTableRecord
  2
DOT2
 70
     0
  3
Dot (.5x) ........................................
 72
    65
 73
     2
 40
0.635
 49
0.0
 74
     0
 49
-0.635
 74
     0
  0
ENDTAB
  0
TABLE
  2
LAYER
  5
2
330
0
100
AcDbSymbolTable
 70
     7
  0
LAYER
  5
10
330
2
100
AcDbSymbolTableRecord
100
AcDbLayerTableRecord
  2
0
 70
     0
 62
     7
  6
CONTINUOUS
  0
LAYER
  5
73
330
2
100
AcDbSymbolTableRecord
100
AcDbLayerTableRecord
  2
FORMAT
 70
     0
 62
     7
  6
CONTINUOUS
  0
LAYER
  5
74
330
2
100
AcDbSymbolTableRecord
100
AcDbLayerTableRecord
  2
SLD-0
 70
     0
 62
     7
  6
CONTINUOUS
  0
LAYER
  5
75
330
2
100
AcDbSymbolTableRecord
100
AcDbLayerTableRecord
  2
LAYER_1
 70
     0
 62
   179
  6
CONTINUOUS
  0
LAYER
  5
76
330
2
100
AcDbSymbolTableRecord
100
AcDbLayerTableRecord
  2
RED_ITEMS
 70
     0
 62
     1
  6
CONTINUOUS
  0
LAYER
  5
77
330
2
100
AcDbSymbolTableRecord
100
AcDbLayerTableRecord
  2
BLUE_ITEMS
 70
     0
 62
     5
  6
CONTINUOUS
  0
LAYER
  5
78
330
2
100
AcDbSymbolTableRecord
100
AcDbLayerTableRecord
  2
DIMENSIONS
 70
     0
 62
   179
  6
CONTINUOUS
  0
ENDTAB
  0
TABLE
  2
STYLE
  5
3
330
0
100
AcDbSymbolTable
 70
     2
  0
STYLE
  5
11
330
3
100
AcDbSymbolTableRecord
100
AcDbTextStyleTableRecord
  2
STANDARD
 70
     0
 40
0.0
 41
1.0
 50
0.0
 71
     0
 42
3.5
  3
txt
  4

  0
STYLE
  5
7C
330
3
100
AcDbSymbolTableRecord
100
AcDbTextStyleTableRecord
  2
SLDTEXTSTYLE0
 70
     0
 40
0.0
 41
0.75
 50
0.0
 71
     0
 42
3.5
  3
TXT
  4

  0
ENDTAB
  0
TABLE
  2
VIEW
  5
6
330
0
100
AcDbSymbolTable
 70
     0
  0
ENDTAB
  0
TABLE
  2
UCS
  5
7
330
0
100
AcDbSymbolTable
 70
     0
  0
ENDTAB
  0
TABLE
  2
APPID
  5
9
330
0
100
AcDbSymbolTable
 70
     1
  0
APPID
  5
12
330
9
100
AcDbSymbolTableRecord
100
AcDbRegAppTableRecord
  2
ACAD
 70
     0
  0
ENDTAB
  0
TABLE
  2
DIMSTYLE
  5
A
330
0
100
AcDbSymbolTable
 70
     1
  0
DIMSTYLE
105
27
330
A
100
AcDbSymbolTableRecord
100
AcDbDimStyleTableRecord
  2
ISO-25
 70
     0
  3

  4

  5

  6

  7

 40
1.0
 41
2.5
 42
0.625
 43
3.75
 44
1.25
 45
0.0
 46
0.0
 47
0.0
 48
0.0
140
2.5
141
2.5
142
0.0
143
0.0393700787
144
1.0
145
0.0
146
1.0
147
0.625
 71
     0
 72
     0
 73
     0
 74
     0
 75
     0
 76
     0
 77
     1
 78
     8
170
     0
171
     3
172
     1
173
     0
174
     0
175
     0
176
     0
177
     0
178
     0
270
     2
271
     2
272
     2
273
     2
274
     3
340
11
275
     0
280
     0
281
     0
282
     0
283
     0
284
     8
285
     0
286
     0
287
     3
288
     0
  0
ENDTAB
  0
TABLE
  2
BLOCK_RECORD
  5
1
330
0
100
AcDbSymbolTable
 70
     2
  0
BLOCK_RECORD
  5
1F
330
1
100
AcDbSymbolTableRecord
100
AcDbBlockTableRecord
  2
*MODEL_SPACE
  0
BLOCK_RECORD
  5
1B
330
1
100
AcDbSymbolTableRecord
100
AcDbBlockTableRecord
  2
*PAPER_SPACE
  0
BLOCK_RECORD
  5
23
330
1
100
AcDbSymbolTableRecord
100
AcDbBlockTableRecord
  2
*PAPER_SPACE0
  0
BLOCK_RECORD
  5
79
330
1
100
AcDbSymbolTableRecord
100
AcDbBlockTableRecord
  2
SW_NOTE_0
  0
ENDTAB
  0
ENDSEC
  0
SECTION
  2
BLOCKS
  0
BLOCK
  5
20
330
1F
100
AcDbEntity
  8
0
100
AcDbBlockBegin
  2
*MODEL_SPACE
 70
     0
 10
0.0
 20
0.0
 30
0.0
  3
*MODEL_SPACE
  1

  0
ENDBLK
  5
21
330
1F
100
AcDbEntity
  8
0
100
AcDbBlockEnd
  0
BLOCK
  5
1C
330
1B
100
AcDbEntity
 67
     1
  8
0
100
AcDbBlockBegin
  2
*PAPER_SPACE
 70
     0
 10
0.0
 20
0.0
 30
0.0
  3
*PAPER_SPACE
  1

  0
ENDBLK
  5
1D
330
1B
100
AcDbEntity
 67
     1
  8
0
100
AcDbBlockEnd
  0
BLOCK
  5
24
330
23
100
AcDbEntity
  8
0
100
AcDbBlockBegin
  2
*PAPER_SPACE0
 70
     0
 10
0.0
 20
0.0
 30
0.0
  3
*PAPER_SPACE0
  1

  0
ENDBLK
  5
25
330
23
100
AcDbEntity
  8
0
100
AcDbBlockEnd
  0
BLOCK
  5
7A
330
79
100
AcDbEntity
  8
0
100
AcDbBlockBegin
  2
SW_NOTE_0
 70
     0
 10
0.0
 20
0.0
 30
0.0
  3
SW_NOTE_0
  1

  0
MTEXT
  5
7D
330
79
100
AcDbEntity
  8
DIMENSIONS
 62
     0
100
AcDbMText
 10
0.0
 20
8.1855801476
 30
0.0
 40
6.35
 41
0.0
 71
     1
 72
     1
  1
#1196-04
  7
SLDTEXTSTYLE0
  0
MTEXT
  5
7E
330
79
100
AcDbEntity
  8
DIMENSIONS
 62
     0
100
AcDbMText
 10
0.0
 20
-1.2810865807
 30
0.0
 40
6.35
 41
0.0
 71
     1
 72
     1
  1
3mm Acrylic
  7
SLDTEXTSTYLE0
  0
MTEXT
  5
7F
330
79
100
AcDbEntity
  8
DIMENSIONS
 62
     0
100
AcDbMText
 10
0.0
 20
-10.747753309
 30
0.0
 40
6.35
 41
0.0
 71
     1
 72
     1
  1
x0.5 per Fisher
  7
SLDTEXTSTYLE0
  0
ENDBLK
  5
7B
330
79
100
AcDbEntity
  8
0
100
AcDbBlockEnd
  0
ENDSEC
  0
SECTION
  2
ENTITIES
  0
INSERT
  5
80
330
1F
100
AcDbEntity
  8
DIMENSIONS
100
AcDbBlockReference
  2
SW_NOTE_0
 10
21.0990194498
 20
365.17262687
 30
0.0
  0
ARC
  5
81
330
1F
100
AcDbEntity
  8
0
  6
CONTINUOUS
 62
     7
100
AcDbCircle
 10
108.1648590333
 20
10.7898083635
 30
0.0
 40
1.440000000000039
100
AcDbArc
 50
270.0
 51
90.0
  0
ARC
  5
82
330
1F
100
AcDbEntity
  8
0
  6
CONTINUOUS
 62
     7
100
AcDbCircle
 10
131.6648590333
 20
23.3398083635
 30
0.0
 40
0.5900000000000034
100
AcDbArc
 50
0.0
 51
180.0
  0
LINE
  5
83
330
1F
100
AcDbEntity
  8
0
  6
CONTINUOUS
 62
     7
100
AcDbLine
 10
131.0748580943
 20
23.3398092393
 30
0.0
 11
131.0748580943
 21
22.0398077223
 31
0.0
  0
ARC
  5
84
330
1F
100
AcDbEntity
  8
0
  6
CONTINUOUS
 62
     7
100
AcDbCircle
 10
131.6648590333
 20
22.0398083635
 30
0.0
 40
0.5900000000000034
100
AcDbArc
 50
180.0
 51
0.0
  0
ARC
  5
85
330
1F
100
AcDbEntity
  8
0
  6
CONTINUOUS
 62
     7
100
AcDbCircle
 10
141.1648590333
 20
22.0398083635
 30
0.0
 40
0.5900000000000034
100
AcDbArc
 50
180.0
 51
0.0
  0
LINE
  5
86
330
1F
100
AcDbEntity
  8
0
  6
CONTINUOUS
 62
     7
100
AcDbLine
 10
141.7548593234
 20
22.0398077223
 30
0.0
 11
141.7548593234
 21
23.3398092393
 31
0.0
  0
ARC
  5
87
330
1F
100
AcDbEntity
  8
0
  6
CONTINUOUS
 62
     7
100
AcDbCircle
 10
141.1648590333
 20
23.3398083636
 30
0.0
 40
0.589999999999975
100
AcDbArc
 50
0.0
 51
180.0
  0
LINE
  5
88
330
1F
100
AcDbEntity
  8
0
  6
CONTINUOUS
 62
     7
100
AcDbLine
 10
140.5748587202
 20
23.3398092393
 30
0.0
 11
140.5748587202
 21
22.0398077223
 31
0.0
  0
ARC
  5
89
330
1F
100
AcDbEntity
  8
0
  6
CONTINUOUS
 62
     7
100
AcDbCircle
 10
152.1648590333
 20
30.2970958377
 30
0.0
 40
0.9399999999999835
100
AcDbArc
 50
270.0
 51
90.0
  0
LINE
  5
8A
330
1F
100
AcDbEntity
  8
0
  6
CONTINUOUS
 62
     7
100
AcDbLine
 10
152.1648589622
 20
31.2370949838
 30
0.0
 11
150.1648586343
 21
31.2370949838
 31
0.0
  0
ARC
  5
8B
330
1F
100
AcDbEntity
  8
0
  6
CONTINUOUS
 62
     7
100
AcDbCircle
 10
150.1648590333
 20
30.2970958377
 30
0.0
 40
0.9399999999999835
100
AcDbArc
 50
90.0
 51
270.0
  0
LINE
  5
8C
330
1F
100
AcDbEntity
  8
0
  6
CONTINUOUS
 62
     7
100
AcDbLine
 10
150.1648586343
 20
29.3570955697
 30
0.0
 11
152.1648589622
 21
29.3570955697
 31
0.0
  0
ARC
  5
8D
330
1F
100
AcDbEntity
  8
0
  6
CONTINUOUS
 62
     7
100
AcDbCircle
 10
152.1648590333
 20
46.2970958377
 30
0.0
 40
0.9399999999999906
100
AcDbArc
 50
270.0
 51
90.0
  0
LINE
  5
8E
330
1F
100
AcDbEntity
  8
0
  6
CONTINUOUS
 62
     7
100
AcDbLine
 10
152.1648589622
 20
47.2370976064
 30
0.0
 11
150.1648586343
 21
47.2370976064
 31
0.0
  0
ARC
  5
8F
330
1F
100
AcDbEntity
  8
0
  6
CONTINUOUS
 62
     7
100
AcDbCircle
 10
150.1648590333
 20
46.2970958377
 30
0.0
 40
0.9400000000000759
100
AcDbArc
 50
90.0
 51
270.0
  0
LINE
  5
90
330
1F
100
AcDbEntity
  8
0
  6
CONTINUOUS
 62
     7
100
AcDbLine
 10
150.1648586343
 20
45.3570963297
 30
0.0
 11
152.1648589622
 21
45.3570963297
 31
0.0
  0
LINE
  5
91
330
1F
100
AcDbEntity
  8
0
  6
CONTINUOUS
 62
     7
100
AcDbLine
 10
141.7648580025
 20
103.0498066399
 30
0.0
 11
131.7648600887
 21
103.0498066399
 31
0.0
  0
LINE
  5
92
330
1F
100
AcDbEntity
  8
0
  6
CONTINUOUS
 62
     7
100
AcDbLine
 10
131.7648600887
 20
83.1698098633
 30
0.0
 11
141.7648580025
 21
83.1698098633
 31
0.0
  0
ARC
  5
93
330
1F
100
AcDbEntity
  8
0
  6
CONTINUOUS
 62
     7
100
AcDbCircle
 10
131.6648590333
 20
180.1798083635
 30
0.0
 40
0.5900000000000318
100
AcDbArc
 50
0.0
 51
180.0
  0
LINE
  5
94
330
1F
100
AcDbEntity
  8
0
  6
CONTINUOUS
 62
     7
100
AcDbLine
 10
132.2548586975
 20
178.8798117492
 30
0.0
 11
132.2548586975
 21
180.1798039529
 31
0.0
  0
LINE
  5
95
330
1F
100
AcDbEntity
  8
0
  6
CONTINUOUS
 62
     7
100
AcDbLine
 10
507.0048656415
 20
60.4098097835
 30
0.0
 11
507.0048656415
 21
73.8098093722
 31
0.0
  0
ARC
  5
96
330
1F
100
AcDbEntity
  8
0
  6
CONTINUOUS
 62
     7
100
AcDbCircle
 10
506.2648590333
 20
60.4098083636
 30
0.0
 40
0.7400000000000091
100
AcDbArc
 50
270.0
 51
0.0
  0
ARC
  5
97
330
1F
100
AcDbEntity
  8
0
  6
CONTINUOUS
 62
     7
100
AcDbCircle
 10
493.7648590333
 20
60.4098083636
 30
0.0
 40
0.740000000000002
100
AcDbArc
 50
180.0
 51
270.0
  0
LINE
  5
98
330
1F
100
AcDbEntity
  8
0
  6
CONTINUOUS
 62
     7
100
AcDbLine
 10
493.0248644303
 20
73.8098093722
 30
0.0
 11
493.0248644303
 21
60.4098097835
 31
0.0
  0
ARC
  5
99
330
1F
100
AcDbEntity
  8
0
  6
CONTINUOUS
 62
     7
100
AcDbCircle
 10
493.7648590333
 20
73.8098083636
 30
0.0
 40
0.7400000000000091
100
AcDbArc
 50
90.0
 51
180.0
  0
ARC
  5
9A
330
1F
100
AcDbEntity
  8
0
  6
CONTINUOUS
 62
     7
100
AcDbCircle
 10
495.1648590333
 20
94.8098083636
 30
0.0
 40
0.7399999999999807
100
AcDbArc
 50
0.0
 51
90.0
  0
LINE
  5
9B
330
1F
100
AcDbEntity
  8
0
  6
CONTINUOUS
 62
     7
100
AcDbLine
 10
495.9048714589
 20
81.409811363
 30
0.0
 11
495.9048714589
 21
94.8098072264
 31
0.0
  0
ARC
  5
9C
330
1F
100
AcDbEntity
  8
0
  6
CONTINUOUS
 62
     7
100
AcDbCircle
 10
495.1648590333
 20
81.4098083636
 30
0.0
 40
0.7399999999999807
100
AcDbArc
 50
270.0
 51
0.0
  0
LINE
  5
9D
330
1F
100
AcDbEntity
  8
0
  6
CONTINUOUS
 62
     7
100
AcDbLine
 10
132.2548586975
 20
22.0398077223
 30
0.0
 11
132.2548586975
 21
23.3398092393
 31
0.0
  0
ARC
  5
9E
330
1F
100
AcDbEntity
  8
0
  6
CONTINUOUS
 62
     7
100
AcDbCircle
 10
493.7648590333
 20
81.4098083636
 30
0.0
 40
0.7400000000000091
100
AcDbArc
 50
180.0
 51
270.0
  0
CIRCLE
  5
9F
330
1F
100
AcDbEntity
  8
0
  6
CONTINUOUS
 62
     7
100
AcDbCircle
 10
492.1648590333
 20
12.0898083636
 30
0.0
 40
1.439999999999996
  0
ARC
  5
A0
330
1F
100
AcDbEntity
  8
0
  6
CONTINUOUS
 62
     7
100
AcDbCircle
 10
205.6648590333
 20
171.0298083636
 30
0.0
 40
0.9400000000000261
100
AcDbArc
 50
270.0
 51
90.0
  0
LINE
  5
A1
330
1F
100
AcDbEntity
  8
0
  6
CONTINUOUS
 62
     7
100
AcDbLine
 10
203.6648627471
 20
170.0898104761
 30
0.0
 11
205.6648593496
 21
170.0898104761
 31
0.0
  0
ARC
  5
A2
330
1F
100
AcDbEntity
  8
0
  6
CONTINUOUS
 62
     7
100
AcDbCircle
 10
203.6648590333
 20
171.0298083636
 30
0.0
 40
0.9400000000000261
100
AcDbArc
 50
90.0
 51
270.0
  0
CIRCLE
  5
A3
330
1F
100
AcDbEntity
  8
0
  6
CONTINUOUS
 62
     7
100
AcDbCircle
 10
204.6648590333
 20
101.1098083636
 30
0.0
 40
1.539999999999992
  0
LINE
  5
A4
330
1F
100
AcDbEntity
  8
0
  6
CONTINUOUS
 62
     7
100
AcDbLine
 10
205.6648593496
 20
32.1298086498
 30
0.0
 11
203.6648627471
 21
32.1298086498
 31
0.0
  0
ARC
  5
A5
330
1F
100
AcDbEntity
  8
0
  6
CONTINUOUS
 62
     7
100
AcDbCircle
 10
205.6648590333
 20
31.1898083636
 30
0.0
 40
0.9400000000000226
100
AcDbArc
 50
270.0
 51
90.0
  0
LINE
  5
A6
330
1F
100
AcDbEntity
  8
0
  6
CONTINUOUS
 62
     7
100
AcDbLine
 10
203.6648627471
 20
30.2498092357
 30
0.0
 11
205.6648593496
 21
30.2498092357
 31
0.0
  0
ARC
  5
A7
330
1F
100
AcDbEntity
  8
0
  6
CONTINUOUS
 62
     7
100
AcDbCircle
 10
203.6648590333
 20
31.1898083636
 30
0.0
 40
0.940000000000051
100
AcDbArc
 50
90.0
 51
270.0
  0
LINE
  5
A8
330
1F
100
AcDbEntity
  8
0
  6
CONTINUOUS
 62
     7
100
AcDbLine
 10
105.7078756492
 20
9.3498084176
 30
0.0
 11
108.1648592006
 21
9.3498084176
 31
0.0
  0
ARC
  5
A9
330
1F
100
AcDbEntity
  8
0
  6
CONTINUOUS
 62
     7
100
AcDbCircle
 10
103.3182107069
 20
10.7898083635
 30
0.0
 40
2.790000000000034
100
AcDbArc
 50
31.0729509722
 51
328.9270490278
  0
LINE
  5
AA
330
1F
100
AcDbEntity
  8
0
  6
CONTINUOUS
 62
     7
100
AcDbLine
 10
108.1648592006
 20
12.2298079956
 30
0.0
 11
105.7078756492
 21
12.2298079956
 31
0.0
  0
ARC
  5
AB
330
1F
100
AcDbEntity
  8
0
  6
CONTINUOUS
 62
     7
100
AcDbCircle
 10
303.1648590333
 20
187.0298083636
 30
0.0
 40
0.9400000000000577
100
AcDbArc
 50
176.3403346494
 51
270.0
  0
LINE
  5
AC
330
1F
100
AcDbEntity
  8
0
  6
CONTINUOUS
 62
     7
100
AcDbLine
 10
305.1648523758
 20
186.0898130987
 30
0.0
 11
303.1648632239
 21
186.0898130987
 31
0.0
  0
ARC
  5
AD
330
1F
100
AcDbEntity
  8
0
  6
CONTINUOUS
 62
     7
100
AcDbCircle
 10
305.1648590333
 20
187.0298083636
 30
0.0
 40
0.9399999999999479
100
AcDbArc
 50
270.0
 51
3.6596653506
  0
LINE
  5
AE
330
1F
100
AcDbEntity
  8
0
  6
CONTINUOUS
 62
     7
100
AcDbLine
 10
438.2267680119
 20
187.0898151252
 30
0.0
 11
306.1029400776
 21
187.0898151252
 31
0.0
  0
ARC
  5
AF
330
1F
100
AcDbEntity
  8
0
  6
CONTINUOUS
 62
     7
100
AcDbCircle
 10
439.1648590333
 20
187.0298083636
 30
0.0
 40
0.9400000000000613
100
AcDbArc
 50
176.3403346494
 51
270.0
  0
LINE
  5
B0
330
1F
100
AcDbEntity
  8
0
  6
CONTINUOUS
 62
     7
100
AcDbLine
 10
441.1648597668
 20
186.0898130987
 30
0.0
 11
439.1648557137
 21
186.0898130987
 31
0.0
  0
ARC
  5
B1
330
1F
100
AcDbEntity
  8
0
  6
CONTINUOUS
 62
     7
100
AcDbCircle
 10
441.1648590333
 20
187.0298083636
 30
0.0
 40
0.9400000000000546
100
AcDbArc
 50
270.0
 51
3.6596653506
  0
LINE
  5
B2
330
1F
100
AcDbEntity
  8
0
  6
CONTINUOUS
 62
     7
100
AcDbLine
 10
464.3443610619
 20
187.0898151252
 30
0.0
 11
442.1029474686
 21
187.0898151252
 31
0.0
  0
ARC
  5
B3
330
1F
100
AcDbEntity
  8
0
  6
CONTINUOUS
 62
     7
100
AcDbCircle
 10
464.3443509576
 20
207.0298083636
 30
0.0
 40
19.94000000000003
100
AcDbArc
 50
270.0
 51
330.0994879959
  0
LINE
  5
B4
330
1F
100
AcDbEntity
  8
0
  6
CONTINUOUS
 62
     7
100
AcDbLine
 10
529.6648528527
 20
197.0898055885
 30
0.0
 11
481.6301848839
 21
197.0898055885
 31
0.0
  0
ARC
  5
B5
330
1F
100
AcDbEntity
  8
0
  6
CONTINUOUS
 62
     7
100
AcDbCircle
 10
529.6648590333
 20
195.0298083636
 30
0.0
 40
2.060000000000002
100
AcDbArc
 50
360.0
 51
90.0
  0
LINE
  5
B6
330
1F
100
AcDbEntity
  8
0
  6
CONTINUOUS
 62
     7
100
AcDbLine
 10
531.7248489808
 20
177.8582328413
 30
0.0
 11
531.7248489808
 21
195.0298094604
 31
0.0
  0
ARC
  5
B7
330
1F
100
AcDbEntity
  8
0
  6
CONTINUOUS
 62
     7
100
AcDbCircle
 10
529.6648590333
 20
177.8582354883
 30
0.0
 40
2.060000000000007
100
AcDbArc
 50
315.0
 51
0.0
  0
LINE
  5
B8
330
1F
100
AcDbEntity
  8
0
  6
CONTINUOUS
 62
     7
100
AcDbLine
 10
529.2930688809
 20
174.573167548
 30
0.0
 11
531.121500964
 21
176.4015996311
 31
0.0
  0
ARC
  5
B9
330
1F
100
AcDbEntity
  8
0
  6
CONTINUOUS
 62
     7
100
AcDbCircle
 10
530.6648590333
 20
173.2013812388
 30
0.0
 40
1.940000000000055
100
AcDbArc
 50
135.0
 51
180.0
  0
LINE
  5
BA
330
1F
100
AcDbEntity
  8
0
  6
CONTINUOUS
 62
     7
100
AcDbLine
 10
528.7248578022
 20
29.0182357136
 30
0.0
 11
528.7248578022
 21
173.2013815496
 31
0.0
  0
ARC
  5
BB
330
1F
100
AcDbEntity
  8
0
  6
CONTINUOUS
 62
     7
100
AcDbCircle
 10
530.6648590333
 20
29.0182354883
 30
0.0
 40
1.940000000000023
100
AcDbArc
 50
180.0
 51
225.0
  0
LINE
  5
BC
330
1F
100
AcDbEntity
  8
0
  6
CONTINUOUS
 62
     7
100
AcDbLine
 10
531.121500964
 20
25.8180213574
 30
0.0
 11
529.2930688809
 21
27.6464478526
 31
0.0
  0
ARC
  5
BD
330
1F
100
AcDbEntity
  8
0
  6
CONTINUOUS
 62
     7
100
AcDbCircle
 10
141.7648590333
 20
93.1098083636
 30
0.0
 40
9.940000000000012
100
AcDbArc
 50
270.0
 51
90.0
  0
LINE
  5
BE
330
1F
100
AcDbEntity
  8
0
  6
CONTINUOUS
 62
     7
100
AcDbLine
 10
531.7248489808
 20
7.1898082685
 30
0.0
 11
531.7248489808
 21
24.3613806967
 31
0.0
  0
ARC
  5
BF
330
1F
100
AcDbEntity
  8
0
  6
CONTINUOUS
 62
     7
100
AcDbCircle
 10
131.7648590333
 20
93.1098083636
 30
0.0
 40
9.94000000000004
100
AcDbArc
 50
90.0
 51
270.0
  0
CIRCLE
  5
C0
330
1F
100
AcDbEntity
  8
0
  6
CONTINUOUS
 62
     7
100
AcDbCircle
 10
108.2648590333
 20
77.6098083635
 30
0.0
 40
1.539999999999978
  0
CIRCLE
  5
C1
330
1F
100
AcDbEntity
  8
0
  6
CONTINUOUS
 62
     7
100
AcDbCircle
 10
100.1648590333
 20
101.1098083635
 30
0.0
 40
1.440000000000012
  0
CIRCLE
  5
C2
330
1F
100
AcDbEntity
  8
0
  6
CONTINUOUS
 62
     7
100
AcDbCircle
 10
108.2648590333
 20
108.6098083635
 30
0.0
 40
1.539999999999978
  0
LINE
  5
C3
330
1F
100
AcDbEntity
  8
0
  6
CONTINUOUS
 62
     7
100
AcDbLine
 10
152.1648589622
 20
156.8625265215
 30
0.0
 11
150.1648586343
 21
156.8625265215
 31
0.0
  0
ARC
  5
C4
330
1F
100
AcDbEntity
  8
0
  6
CONTINUOUS
 62
     7
100
AcDbCircle
 10
152.1648590333
 20
155.9225208894
 30
0.0
 40
0.9399999999999977
100
AcDbArc
 50
270.0
 51
90.0
  0
LINE
  5
C5
330
1F
100
AcDbEntity
  8
0
  6
CONTINUOUS
 62
     7
100
AcDbLine
 10
150.1648586343
 20
154.9825215194
 30
0.0
 11
152.1648589622
 21
154.9825215194
 31
0.0
  0
ARC
  5
C6
330
1F
100
AcDbEntity
  8
0
  6
CONTINUOUS
 62
     7
100
AcDbCircle
 10
150.1648590333
 20
155.9225208894
 30
0.0
 40
0.9399999999999977
100
AcDbArc
 50
90.0
 51
270.0
  0
LINE
  5
C7
330
1F
100
AcDbEntity
  8
0
  6
CONTINUOUS
 62
     7
100
AcDbLine
 10
152.1648589622
 20
172.8625142429
 30
0.0
 11
150.1648586343
 21
172.8625142429
 31
0.0
  0
ARC
  5
C8
330
1F
100
AcDbEntity
  8
0
  6
CONTINUOUS
 62
     7
100
AcDbCircle
 10
152.1648590333
 20
171.9225208894
 30
0.0
 40
0.9399999999999409
100
AcDbArc
 50
270.0
 51
90.0
  0
LINE
  5
C9
330
1F
100
AcDbEntity
  8
0
  6
CONTINUOUS
 62
     7
100
AcDbLine
 10
150.1648586343
 20
170.982524142
 30
0.0
 11
152.1648589622
 21
170.982524142
 31
0.0
  0
ARC
  5
CA
330
1F
100
AcDbEntity
  8
0
  6
CONTINUOUS
 62
     7
100
AcDbCircle
 10
150.1648590333
 20
171.9225208894
 30
0.0
 40
0.9400000000000546
100
AcDbArc
 50
90.0
 51
270.0
  0
LINE
  5
CB
330
1F
100
AcDbEntity
  8
0
  6
CONTINUOUS
 62
     7
100
AcDbLine
 10
140.5748587202
 20
180.1798039529
 30
0.0
 11
140.5748587202
 21
178.8798117492
 31
0.0
  0
ARC
  5
CC
330
1F
100
AcDbEntity
  8
0
  6
CONTINUOUS
 62
     7
100
AcDbCircle
 10
141.1648590333
 20
180.1798083635
 30
0.0
 40
0.5900000000000318
100
AcDbArc
 50
0.0
 51
180.0
  0
LINE
  5
CD
330
1F
100
AcDbEntity
  8
0
  6
CONTINUOUS
 62
     7
100
AcDbLine
 10
141.7548593234
 20
178.8798117492
 30
0.0
 11
141.7548593234
 21
180.1798039529
 31
0.0
  0
ARC
  5
CE
330
1F
100
AcDbEntity
  8
0
  6
CONTINUOUS
 62
     7
100
AcDbCircle
 10
141.1648590333
 20
178.8798083635
 30
0.0
 40
0.5900000000000318
100
AcDbArc
 50
180.0
 51
0.0
  0
LINE
  5
CF
330
1F
100
AcDbEntity
  8
0
  6
CONTINUOUS
 62
     7
100
AcDbLine
 10
131.0748580943
 20
180.1798039529
 30
0.0
 11
131.0748580943
 21
178.8798117492
 31
0.0
  0
LINE
  5
D0
330
1F
100
AcDbEntity
  8
0
  6
CONTINUOUS
 62
     7
100
AcDbLine
 10
97.6048588853
 20
5.1298084151
 30
0.0
 11
113.6995341729
 21
5.1298084151
 31
0.0
  0
LINE
  5
D1
330
1F
100
AcDbEntity
  8
0
  6
CONTINUOUS
 62
     7
100
AcDbLine
 10
97.6048588853
 20
99.4335034344
 30
0.0
 11
97.6048588853
 21
5.1298084151
 31
0.0
  0
ARC
  5
D2
330
1F
100
AcDbEntity
  8
0
  6
CONTINUOUS
 62
     7
100
AcDbCircle
 10
131.6648590333
 20
178.8798083635
 30
0.0
 40
0.5900000000000318
100
AcDbArc
 50
180.0
 51
0.0
  0
LINE
  5
D3
330
1F
100
AcDbEntity
  8
0
  6
CONTINUOUS
 62
     7
100
AcDbLine
 10
105.7078756492
 20
189.989804611
 30
0.0
 11
108.1648592006
 21
189.989804611
 31
0.0
  0
ARC
  5
D4
330
1F
100
AcDbEntity
  8
0
  6
CONTINUOUS
 62
     7
100
AcDbCircle
 10
103.3182107069
 20
191.4298083635
 30
0.0
 40
2.789999999999986
100
AcDbArc
 50
31.0729509722
 51
328.9270490278
  0
LINE
  5
D5
330
1F
100
AcDbEntity
  8
0
  6
CONTINUOUS
 62
     7
100
AcDbLine
 10
108.1648592006
 20
192.8698116396
 30
0.0
 11
105.7078756492
 21
192.8698116396
 31
0.0
  0
ARC
  5
D6
330
1F
100
AcDbEntity
  8
0
  6
CONTINUOUS
 62
     7
100
AcDbCircle
 10
108.1648590333
 20
191.4298083635
 30
0.0
 40
1.440000000000018
100
AcDbArc
 50
269.9999904693
 51
90.0000095307
  0
LINE
  5
D7
330
1F
100
AcDbEntity
  8
0
  6
CONTINUOUS
 62
     7
100
AcDbLine
 10
97.6048588853
 20
197.0898055885
 30
0.0
 11
97.6048588853
 21
102.7861156914
 31
0.0
  0
LINE
  5
D8
330
1F
100
AcDbEntity
  8
0
  6
CONTINUOUS
 62
     7
100
AcDbLine
 10
113.6995341729
 20
197.0898055885
 30
0.0
 11
97.6048588853
 21
197.0898055885
 31
0.0
  0
ARC
  5
D9
330
1F
100
AcDbEntity
  8
0
  6
CONTINUOUS
 62
     7
100
AcDbCircle
 10
130.985367109
 20
207.0298083635
 30
0.0
 40
19.94000000000008
100
AcDbArc
 50
209.9005120041
 51
270.0
  0
LINE
  5
DA
330
1F
100
AcDbEntity
  8
0
  6
CONTINUOUS
 62
     7
100
AcDbLine
 10
202.7267750453
 20
187.0898151252
 30
0.0
 11
130.9853654455
 21
187.0898151252
 31
0.0
  0
ARC
  5
DB
330
1F
100
AcDbEntity
  8
0
  6
CONTINUOUS
 62
     7
100
AcDbCircle
 10
203.6648590333
 20
187.0298083636
 30
0.0
 40
0.9400000000000546
100
AcDbArc
 50
176.3403346494
 51
270.0
  0
LINE
  5
DC
330
1F
100
AcDbEntity
  8
0
  6
CONTINUOUS
 62
     7
100
AcDbLine
 10
205.6648593496
 20
186.0898130987
 30
0.0
 11
203.6648627471
 21
186.0898130987
 31
0.0
  0
ARC
  5
DD
330
1F
100
AcDbEntity
  8
0
  6
CONTINUOUS
 62
     7
100
AcDbCircle
 10
205.6648590333
 20
187.0298083636
 30
0.0
 40
0.9400000000000046
100
AcDbArc
 50
270.0
 51
3.6596653506
  0
LINE
  5
DE
330
1F
100
AcDbEntity
  8
0
  6
CONTINUOUS
 62
     7
100
AcDbLine
 10
302.2267755221
 20
187.0898151252
 30
0.0
 11
206.6029396008
 21
187.0898151252
 31
0.0
  0
LINE
  5
DF
330
1F
100
AcDbEntity
  8
0
  6
CONTINUOUS
 62
     7
100
AcDbLine
 10
495.1648499917
 20
95.5498063419
 30
0.0
 11
493.7648560952
 21
95.5498063419
 31
0.0
  0
LINE
  5
E0
330
1F
100
AcDbEntity
  8
0
  6
CONTINUOUS
 62
     7
100
AcDbLine
 10
306.1029400776
 20
15.1298086572
 30
0.0
 11
438.2267680119
 21
15.1298086572
 31
0.0
  0
ARC
  5
E1
330
1F
100
AcDbEntity
  8
0
  6
CONTINUOUS
 62
     7
100
AcDbCircle
 10
305.1648590333
 20
15.1898083636
 30
0.0
 40
0.9400000000000597
100
AcDbArc
 50
356.3403346494
 51
90.0
  0
LINE
  5
E2
330
1F
100
AcDbEntity
  8
0
  6
CONTINUOUS
 62
     7
100
AcDbLine
 10
303.1648632239
 20
16.1298088212
 30
0.0
 11
305.1648523758
 21
16.1298088212
 31
0.0
  0
LINE
  5
E3
330
1F
100
AcDbEntity
  8
0
  6
CONTINUOUS
 62
     7
100
AcDbLine
 10
493.7648560952
 20
80.6698047969
 30
0.0
 11
495.1648499917
 21
80.6698047969
 31
0.0
  0
LINE
  5
E4
330
1F
100
AcDbEntity
  8
0
  6
CONTINUOUS
 62
     7
100
AcDbLine
 10
206.6029396008
 20
15.1298086572
 30
0.0
 11
302.2267755221
 21
15.1298086572
 31
0.0
  0
LINE
  5
E5
330
1F
100
AcDbEntity
  8
0
  6
CONTINUOUS
 62
     7
100
AcDbLine
 10
493.0248644303
 20
94.8098072264
 30
0.0
 11
493.0248644303
 21
81.409811363
 31
0.0
  0
ARC
  5
E6
330
1F
100
AcDbEntity
  8
0
  6
CONTINUOUS
 62
     7
100
AcDbCircle
 10
493.7648590333
 20
94.8098083636
 30
0.0
 40
0.7400000000000091
100
AcDbArc
 50
90.0
 51
180.0
  0
LINE
  5
E7
330
1F
100
AcDbEntity
  8
0
  6
CONTINUOUS
 62
     7
100
AcDbLine
 10
498.6648645352
 20
110.0498059247
 30
0.0
 11
491.2648584794
 21
110.0498059247
 31
0.0
  0
ARC
  5
E8
330
1F
100
AcDbEntity
  8
0
  6
CONTINUOUS
 62
     7
100
AcDbCircle
 10
498.6648590333
 20
109.3098083636
 30
0.0
 40
0.7400000000000091
100
AcDbArc
 50
0.0
 51
90.0
  0
LINE
  5
E9
330
1F
100
AcDbEntity
  8
0
  6
CONTINUOUS
 62
     7
100
AcDbLine
 10
499.4048562001
 20
97.9098075483
 30
0.0
 11
499.4048562001
 21
109.3098068092
 31
0.0
  0
ARC
  5
EA
330
1F
100
AcDbEntity
  8
0
  6
CONTINUOUS
 62
     7
100
AcDbCircle
 10
498.6648590333
 20
97.9098083636
 30
0.0
 40
0.7399999999999949
100
AcDbArc
 50
270.0
 51
0.0
  0
LINE
  5
EB
330
1F
100
AcDbEntity
  8
0
  6
CONTINUOUS
 62
     7
100
AcDbLine
 10
491.2648584794
 20
97.1698084328
 30
0.0
 11
498.6648645352
 21
97.1698084328
 31
0.0
  0
ARC
  5
EC
330
1F
100
AcDbEntity
  8
0
  6
CONTINUOUS
 62
     7
100
AcDbCircle
 10
491.2648590333
 20
97.9098083636
 30
0.0
 40
0.7400000000000091
100
AcDbArc
 50
180.0
 51
270.0
  0
LINE
  5
ED
330
1F
100
AcDbEntity
  8
0
  6
CONTINUOUS
 62
     7
100
AcDbLine
 10
490.5248668145
 20
109.3098068092
 30
0.0
 11
490.5248668145
 21
97.9098075483
 31
0.0
  0
ARC
  5
EE
330
1F
100
AcDbEntity
  8
0
  6
CONTINUOUS
 62
     7
100
AcDbCircle
 10
491.2648590333
 20
109.3098083636
 30
0.0
 40
0.7399999999999949
100
AcDbArc
 50
90.0
 51
180.0
  0
CIRCLE
  5
EF
330
1F
100
AcDbEntity
  8
0
  6
CONTINUOUS
 62
     7
100
AcDbCircle
 10
523.1648590333
 20
190.1298083636
 30
0.0
 40
1.439999999999998
  0
CIRCLE
  5
F0
330
1F
100
AcDbEntity
  8
0
  6
CONTINUOUS
 62
     7
100
AcDbCircle
 10
492.1648590333
 20
190.1298083636
 30
0.0
 40
1.439999999999998
  0
ARC
  5
F1
330
1F
100
AcDbEntity
  8
0
  6
CONTINUOUS
 62
     7
100
AcDbCircle
 10
529.6648590333
 20
24.3613812388
 30
0.0
 40
2.060000000000017
100
AcDbArc
 50
0.0
 51
45.0
  0
ARC
  5
F2
330
1F
100
AcDbEntity
  8
0
  6
CONTINUOUS
 62
     7
100
AcDbCircle
 10
303.1648590333
 20
171.0298083635
 30
0.0
 40
0.9400000000001114
100
AcDbArc
 50
90.0
 51
183.6596653504
  0
ARC
  5
F3
330
1F
100
AcDbEntity
  8
0
  6
CONTINUOUS
 62
     7
100
AcDbCircle
 10
529.6648590333
 20
7.1898083636
 30
0.0
 40
2.059999999999965
100
AcDbArc
 50
270.0
 51
0.0
  0
LINE
  5
F4
330
1F
100
AcDbEntity
  8
0
  6
CONTINUOUS
 62
     7
100
AcDbLine
 10
481.6301848839
 20
5.1298084151
 30
0.0
 11
529.6648528527
 21
5.1298084151
 31
0.0
  0
ARC
  5
F5
330
1F
100
AcDbEntity
  8
0
  6
CONTINUOUS
 62
     7
100
AcDbCircle
 10
464.3443509576
 20
-4.8101916364
 30
0.0
 40
19.94000000000001
100
AcDbArc
 50
29.9005120041
 51
90.0
  0
LINE
  5
F6
330
1F
100
AcDbEntity
  8
0
  6
CONTINUOUS
 62
     7
100
AcDbLine
 10
442.1029474686
 20
15.1298086572
 30
0.0
 11
464.3443610619
 21
15.1298086572
 31
0.0
  0
ARC
  5
F7
330
1F
100
AcDbEntity
  8
0
  6
CONTINUOUS
 62
     7
100
AcDbCircle
 10
441.1648590333
 20
15.1898083636
 30
0.0
 40
0.9400000000000597
100
AcDbArc
 50
356.3403346494
 51
90.0
  0
LINE
  5
F8
330
1F
100
AcDbEntity
  8
0
  6
CONTINUOUS
 62
     7
100
AcDbLine
 10
439.1648557137
 20
16.1298088212
 30
0.0
 11
441.1648597668
 21
16.1298088212
 31
0.0
  0
ARC
  5
F9
330
1F
100
AcDbEntity
  8
0
  6
CONTINUOUS
 62
     7
100
AcDbCircle
 10
439.1648590333
 20
15.1898083636
 30
0.0
 40
0.9400000000000596
100
AcDbArc
 50
90.0
 51
183.6596653506
  0
ARC
  5
FA
330
1F
100
AcDbEntity
  8
0
  6
CONTINUOUS
 62
     7
100
AcDbCircle
 10
462.1648590333
 20
161.0298083636
 30
0.0
 40
9.94000000000014
100
AcDbArc
 50
0.0
 51
90.0
  0
LINE
  5
FB
330
1F
100
AcDbEntity
  8
0
  6
CONTINUOUS
 62
     7
100
AcDbLine
 10
472.1048560093
 20
41.1898077879
 30
0.0
 11
472.1048560093
 21
161.0298150633
 31
0.0
  0
ARC
  5
FC
330
1F
100
AcDbEntity
  8
0
  6
CONTINUOUS
 62
     7
100
AcDbCircle
 10
462.1648590333
 20
41.1898083636
 30
0.0
 40
9.940000000000033
100
AcDbArc
 50
270.0
 51
360.0
  0
ARC
  5
FD
330
1F
100
AcDbEntity
  8
0
  6
CONTINUOUS
 62
     7
100
AcDbCircle
 10
303.1648590333
 20
15.1898083636
 30
0.0
 40
0.9399999999999675
100
AcDbArc
 50
90.0
 51
183.6596653506
  0
ARC
  5
FE
330
1F
100
AcDbEntity
  8
0
  6
CONTINUOUS
 62
     7
100
AcDbCircle
 10
441.1648590333
 20
31.1898083636
 30
0.0
 40
0.9399999999984985
100
AcDbArc
 50
269.9999999998
 51
3.6596653507
  0
ARC
  5
FF
330
1F
100
AcDbEntity
  8
0
  6
CONTINUOUS
 62
     7
100
AcDbCircle
 10
205.6648590333
 20
15.1898083636
 30
0.0
 40
0.940000000000003
100
AcDbArc
 50
356.3403346494
 51
90.0
  0
LINE
  5
100
330
1F
100
AcDbEntity
  8
0
  6
CONTINUOUS
 62
     7
100
AcDbLine
 10
203.6648627471
 20
16.1298088212
 30
0.0
 11
205.6648593496
 21
16.1298088212
 31
0.0
  0
ARC
  5
101
330
1F
100
AcDbEntity
  8
0
  6
CONTINUOUS
 62
     7
100
AcDbCircle
 10
203.6648590333
 20
15.1898083636
 30
0.0
 40
0.940000000000034
100
AcDbArc
 50
90.0
 51
183.6596653506
  0
LINE
  5
102
330
1F
100
AcDbEntity
  8
0
  6
CONTINUOUS
 62
     7
100
AcDbLine
 10
130.9853654455
 20
15.1298086572
 30
0.0
 11
202.7267750453
 21
15.1298086572
 31
0.0
  0
ARC
  5
103
330
1F
100
AcDbEntity
  8
0
  6
CONTINUOUS
 62
     7
100
AcDbCircle
 10
303.1648590333
 20
31.1898083635
 30
0.0
 40
0.9399999999996909
100
AcDbArc
 50
176.3403346492
 51
270.0
  0
LINE
  5
104
330
1F
100
AcDbEntity
  8
0
  6
CONTINUOUS
 62
     7
100
AcDbLine
 10
282.1648653697
 20
31.249807537
 30
0.0
 11
302.2267755221
 21
31.249807537
 31
0.0
  0
ARC
  5
105
330
1F
100
AcDbEntity
  8
0
  6
CONTINUOUS
 62
     7
100
AcDbCircle
 10
100.1648590333
 20
101.1098083635
 30
0.0
 40
3.060000000000214
100
AcDbArc
 50
146.7829472697
 51
213.2170527303
  0
LINE
  5
106
330
1F
100
AcDbEntity
  8
0
  6
CONTINUOUS
 62
     7
100
AcDbLine
 10
205.6648593496
 20
171.9698154781
 30
0.0
 11
203.6648627471
 21
171.9698154781
 31
0.0
  0
CIRCLE
  5
107
330
1F
100
AcDbEntity
  8
0
  6
CONTINUOUS
 62
     7
100
AcDbCircle
 10
515.9648590333
 20
55.1098083636
 30
0.0
 40
3.940000000000005
  0
CIRCLE
  5
108
330
1F
100
AcDbEntity
  8
0
  6
CONTINUOUS
 62
     7
100
AcDbCircle
 10
484.1648590333
 20
101.1098083636
 30
0.0
 40
1.439999999999998
  0
LINE
  5
109
330
1F
100
AcDbEntity
  8
0
  6
CONTINUOUS
 62
     7
100
AcDbLine
 10
506.2648441742
 20
74.5498084877
 30
0.0
 11
493.7648560952
 21
74.5498084877
 31
0.0
  0
ARC
  5
10A
330
1F
100
AcDbEntity
  8
0
  6
CONTINUOUS
 62
     7
100
AcDbCircle
 10
506.2648590333
 20
73.8098083636
 30
0.0
 40
0.7400000000000091
100
AcDbArc
 50
0.0
 51
90.0
  0
LINE
  5
10B
330
1F
100
AcDbEntity
  8
0
  6
CONTINUOUS
 62
     7
100
AcDbLine
 10
305.1648523758
 20
171.9698154781
 30
0.0
 11
303.1648632239
 21
171.9698154781
 31
0.0
  0
ARC
  5
10C
330
1F
100
AcDbEntity
  8
0
  6
CONTINUOUS
 62
     7
100
AcDbCircle
 10
305.1648590333
 20
171.0298083635
 30
0.0
 40
0.9400000000001114
100
AcDbArc
 50
356.3403346496
 51
90.0
  0
LINE
  5
10D
330
1F
100
AcDbEntity
  8
0
  6
CONTINUOUS
 62
     7
100
AcDbLine
 10
493.7648560952
 20
59.6698069427
 30
0.0
 11
506.2648441742
 21
59.6698069427
 31
0.0
  0
ARC
  5
10E
330
1F
100
AcDbEntity
  8
0
  6
CONTINUOUS
 62
     7
100
AcDbCircle
 10
439.1648590333
 20
171.0298083636
 30
0.0
 40
0.9400000000001822
100
AcDbArc
 50
90.0
 51
183.6596653504
  0
LINE
  5
10F
330
1F
100
AcDbEntity
  8
0
  6
CONTINUOUS
 62
     7
100
AcDbLine
 10
441.1648597668
 20
171.9698154781
 30
0.0
 11
439.1648557137
 21
171.9698154781
 31
0.0
  0
ARC
  5
110
330
1F
100
AcDbEntity
  8
0
  6
CONTINUOUS
 62
     7
100
AcDbCircle
 10
441.1648590333
 20
171.0298083636
 30
0.0
 40
0.9400000000001683
100
AcDbArc
 50
356.3403346496
 51
90.0000000002
  0
LINE
  5
111
330
1F
100
AcDbEntity
  8
0
  6
CONTINUOUS
 62
     7
100
AcDbLine
 10
462.1648576211
 20
170.9698134515
 30
0.0
 11
442.1029474686
 21
170.9698134515
 31
0.0
  0
CIRCLE
  5
112
330
1F
100
AcDbEntity
  8
0
  6
CONTINUOUS
 62
     7
100
AcDbCircle
 10
523.1648590333
 20
12.0898083636
 30
0.0
 40
1.439999999999996
  0
ARC
  5
113
330
1F
100
AcDbEntity
  8
0
  6
CONTINUOUS
 62
     7
100
AcDbCircle
 10
282.1648590333
 20
161.0298083636
 30
0.0
 40
9.940000000000339
100
AcDbArc
 50
90.0
 51
180.0
  0
ARC
  5
114
330
1F
100
AcDbEntity
  8
0
  6
CONTINUOUS
 62
     7
100
AcDbCircle
 10
305.1648590333
 20
31.1898083635
 30
0.0
 40
0.9400000000001552
100
AcDbArc
 50
270.0
 51
3.6596653508
  0
LINE
  5
115
330
1F
100
AcDbEntity
  8
0
  6
CONTINUOUS
 62
     7
100
AcDbLine
 10
442.1029474686
 20
31.249807537
 30
0.0
 11
462.1648576211
 21
31.249807537
 31
0.0
  0
LINE
  5
116
330
1F
100
AcDbEntity
  8
0
  6
CONTINUOUS
 62
     7
100
AcDbLine
 10
302.2267755221
 20
170.9698134515
 30
0.0
 11
282.1648653697
 21
170.9698134515
 31
0.0
  0
LINE
  5
117
330
1F
100
AcDbEntity
  8
0
  6
CONTINUOUS
 62
     7
100
AcDbLine
 10
439.1648557137
 20
30.2498092357
 30
0.0
 11
441.1648597668
 21
30.2498092357
 31
0.0
  0
ARC
  5
118
330
1F
100
AcDbEntity
  8
0
  6
CONTINUOUS
 62
     7
100
AcDbCircle
 10
439.1648590333
 20
31.1898083636
 30
0.0
 40
0.9400000000005783
100
AcDbArc
 50
176.3403346493
 51
270.0
  0
LINE
  5
119
330
1F
100
AcDbEntity
  8
0
  6
CONTINUOUS
 62
     7
100
AcDbLine
 10
306.1029400776
 20
31.249807537
 30
0.0
 11
438.2267680119
 21
31.249807537
 31
0.0
  0
ARC
  5
11A
330
1F
100
AcDbEntity
  8
0
  6
CONTINUOUS
 62
     7
100
AcDbCircle
 10
130.985367109
 20
-4.8101916365
 30
0.0
 40
19.93999999999996
100
AcDbArc
 50
90.0
 51
150.0994879959
  0
LINE
  5
11B
330
1F
100
AcDbEntity
  8
0
  6
CONTINUOUS
 62
     7
100
AcDbLine
 10
303.1648632239
 20
30.2498092357
 30
0.0
 11
305.1648523758
 21
30.2498092357
 31
0.0
  0
LINE
  5
11C
330
1F
100
AcDbEntity
  8
0
  6
CONTINUOUS
 62
     7
100
AcDbLine
 10
272.2248520802
 20
161.0298150633
 30
0.0
 11
272.2248520802
 21
41.1898077879
 31
0.0
  0
ARC
  5
11D
330
1F
100
AcDbEntity
  8
0
  6
CONTINUOUS
 62
     7
100
AcDbCircle
 10
282.1648590333
 20
41.1898083636
 30
0.0
 40
9.9400000000001
100
AcDbArc
 50
180.0
 51
270.0
  0
LINE
  5
11E
330
1F
100
AcDbEntity
  8
0
  6
CONTINUOUS
 62
     7
100
AcDbLine
 10
438.2267680119
 20
170.9698134515
 30
0.0
 11
306.1029400776
 21
170.9698134515
 31
0.0
  0
CIRCLE
  5
11F
330
1F
100
AcDbEntity
  8
0
  6
CONTINUOUS
 62
     7
100
AcDbCircle
 10
448.2851775276
 20
60.811213499
 30
0.0
 40
2.438076211353348
  0
CIRCLE
  5
120
330
1F
100
AcDbEntity
  8
0
  6
CONTINUOUS
 62
     7
100
AcDbCircle
 10
418.2851775276
 20
60.811213499
 30
0.0
 40
1.639999999999986
  0
CIRCLE
  5
121
330
1F
100
AcDbEntity
  8
0
  6
CONTINUOUS
 62
     7
100
AcDbCircle
 10
318.2851775276
 20
60.811213499
 30
0.0
 40
1.339999999999975
  0
CIRCLE
  5
122
330
1F
100
AcDbEntity
  8
0
  6
CONTINUOUS
 62
     7
100
AcDbCircle
 10
288.2851775276
 20
60.811213499
 30
0.0
 40
2.438076211353291
  0
ARC
  5
123
330
1F
100
AcDbEntity
  8
0
  6
CONTINUOUS
 62
     7
100
AcDbCircle
 10
421.4606040081
 20
66.311213499
 30
0.0
 40
1.0
100
AcDbArc
 50
30.0
 51
90.0
  0
LINE
  5
124
330
1F
100
AcDbEntity
  8
0
  6
CONTINUOUS
 62
     7
100
AcDbLine
 10
422.5806679677
 20
66.3712167595
 30
0.0
 11
422.3266329716
 21
66.8112107966
 31
0.0
  0
ARC
  5
125
330
1F
100
AcDbEntity
  8
0
  6
CONTINUOUS
 62
     7
100
AcDbCircle
 10
425.1787397417
 20
67.871213499
 30
0.0
 40
3.000000000000049
100
AcDbArc
 50
210.0
 51
270.0
  0
ARC
  5
126
330
1F
100
AcDbEntity
  8
0
  6
CONTINUOUS
 62
     7
100
AcDbCircle
 10
441.8701950646
 20
72.871213499
 30
0.0
 40
8.0
100
AcDbArc
 50
270.0
 51
298.0095057167
  0
ARC
  5
127
330
1F
100
AcDbEntity
  8
0
  6
CONTINUOUS
 62
     7
100
AcDbCircle
 10
448.2851775276
 20
60.811213499
 30
0.0
 40
5.660000000000013
100
AcDbArc
 50
241.9904942833
 51
118.0095057167
  0
ARC
  5
128
330
1F
100
AcDbEntity
  8
0
  6
CONTINUOUS
 62
     7
100
AcDbCircle
 10
441.8701950646
 20
48.751213499
 30
0.0
 40
7.999999999999993
100
AcDbArc
 50
61.9904942833
 51
90.0
  0
ARC
  5
129
330
1F
100
AcDbEntity
  8
0
  6
CONTINUOUS
 62
     7
100
AcDbCircle
 10
425.1787397417
 20
53.751213499
 30
0.0
 40
3.000000000000046
100
AcDbArc
 50
90.0
 51
150.0
  0
LINE
  5
12A
330
1F
100
AcDbEntity
  8
0
  6
CONTINUOUS
 62
     7
100
AcDbLine
 10
422.3266329716
 20
54.8112125549
 30
0.0
 11
422.5806679677
 21
55.2512140427
 31
0.0
  0
ARC
  5
12B
330
1F
100
AcDbEntity
  8
0
  6
CONTINUOUS
 62
     7
100
AcDbCircle
 10
421.4606040081
 20
55.311213499
 30
0.0
 40
1.0
100
AcDbArc
 50
270.0
 51
330.0
  0
LINE
  5
12C
330
1F
100
AcDbEntity
  8
0
  6
CONTINUOUS
 62
     7
100
AcDbLine
 10
415.1097621869
 20
54.311215267
 30
0.0
 11
421.4606072854
 21
54.311215267
 31
0.0
  0
ARC
  5
12D
330
1F
100
AcDbEntity
  8
0
  6
CONTINUOUS
 62
     7
100
AcDbCircle
 10
415.109751047
 20
55.311213499
 30
0.0
 40
1.0
100
AcDbArc
 50
210.0
 51
270.0
  0
LINE
  5
12E
330
1F
100
AcDbEntity
  8
0
  6
CONTINUOUS
 62
     7
100
AcDbLine
 10
413.9897015046
 20
55.2512140427
 30
0.0
 11
414.2437365006
 21
54.8112125549
 31
0.0
  0
ARC
  5
12F
330
1F
100
AcDbEntity
  8
0
  6
CONTINUOUS
 62
     7
100
AcDbCircle
 10
411.3916153134
 20
53.751213499
 30
0.0
 40
2.999999999999993
100
AcDbArc
 50
30.0
 51
90.0
  0
ARC
  5
130
330
1F
100
AcDbEntity
  8
0
  6
CONTINUOUS
 62
     7
100
AcDbCircle
 10
369.0993910899
 20
55.751213499
 30
0.0
 40
1.000000000000003
100
AcDbArc
 50
90.0
 51
135.0
  0
ARC
  5
131
330
1F
100
AcDbEntity
  8
0
  6
CONTINUOUS
 62
     7
100
AcDbCircle
 10
326.9203613704
 20
46.751213499
 30
0.0
 40
10.0
100
AcDbArc
 50
90.0
 51
121.5568608656
  0
ARC
  5
132
330
1F
100
AcDbEntity
  8
0
  6
CONTINUOUS
 62
     7
100
AcDbCircle
 10
318.2851775276
 20
60.811213499
 30
0.0
 40
6.500000000000032
100
AcDbArc
 50
238.4431391344
 51
301.5568608656
  0
ARC
  5
133
330
1F
100
AcDbEntity
  8
0
  6
CONTINUOUS
 62
     7
100
AcDbCircle
 10
309.6499936847
 20
46.751213499
 30
0.0
 40
9.999999999999993
100
AcDbArc
 50
58.4431391344
 51
90.0
  0
LINE
  5
134
330
1F
100
AcDbEntity
  8
0
  6
CONTINUOUS
 62
     7
100
AcDbLine
 10
294.7001542996
 20
56.7512133572
 30
0.0
 11
309.6499975871
 21
56.7512133572
 31
0.0
  0
ARC
  5
135
330
1F
100
AcDbEntity
  8
0
  6
CONTINUOUS
 62
     7
100
AcDbCircle
 10
294.7001599905
 20
48.751213499
 30
0.0
 40
8.000000000000005
100
AcDbArc
 50
90.0
 51
118.0095057167
  0
ARC
  5
136
330
1F
100
AcDbEntity
  8
0
  6
CONTINUOUS
 62
     7
100
AcDbCircle
 10
288.2851775276
 20
60.811213499
 30
0.0
 40
5.659999999999986
100
AcDbArc
 50
61.9904942833
 51
298.0095057167
  0
ARC
  5
137
330
1F
100
AcDbEntity
  8
0
  6
CONTINUOUS
 62
     7
100
AcDbCircle
 10
294.7001599905
 20
72.871213499
 30
0.0
 40
8.0
100
AcDbArc
 50
241.9904942833
 51
270.0
  0
LINE
  5
138
330
1F
100
AcDbEntity
  8
0
  6
CONTINUOUS
 62
     7
100
AcDbLine
 10
309.6499975871
 20
64.8712137196
 30
0.0
 11
294.7001542996
 21
64.8712137196
 31
0.0
  0
ARC
  5
139
330
1F
100
AcDbEntity
  8
0
  6
CONTINUOUS
 62
     7
100
AcDbCircle
 10
309.6499936847
 20
74.871213499
 30
0.0
 40
10.0
100
AcDbArc
 50
270.0
 51
301.5568608656
  0
ARC
  5
13A
330
1F
100
AcDbEntity
  8
0
  6
CONTINUOUS
 62
     7
100
AcDbCircle
 10
318.2851775276
 20
60.811213499
 30
0.0
 40
6.500000000000026
100
AcDbArc
 50
58.4431391344
 51
121.5568608656
  0
ARC
  5
13B
330
1F
100
AcDbEntity
  8
0
  6
CONTINUOUS
 62
     7
100
AcDbCircle
 10
326.9203613704
 20
74.871213499
 30
0.0
 40
10.00000000000001
100
AcDbArc
 50
238.4431391344
 51
270.0
  0
ARC
  5
13C
330
1F
100
AcDbEntity
  8
0
  6
CONTINUOUS
 62
     7
100
AcDbCircle
 10
367.4709639652
 20
65.871213499
 30
0.0
 40
1.0
100
AcDbArc
 50
270.0
 51
315.0
  0
LINE
  5
13D
330
1F
100
AcDbEntity
  8
0
  6
CONTINUOUS
 62
     7
100
AcDbLine
 10
368.2851877163
 20
65.2712130401
 30
0.0
 11
368.1780781697
 21
65.1641034935
 31
0.0
  0
LINE
  5
13E
330
1F
100
AcDbEntity
  8
0
  6
CONTINUOUS
 62
     7
100
AcDbLine
 10
368.392297263
 20
65.1641034935
 30
0.0
 11
368.2851877163
 21
65.2712130401
 31
0.0
  0
ARC
  5
13F
330
1F
100
AcDbEntity
  8
0
  6
CONTINUOUS
 62
     7
100
AcDbCircle
 10
369.0993910899
 20
65.871213499
 30
0.0
 40
1.0
100
AcDbArc
 50
225.0
 51
270.0
  0
ARC
  5
140
330
1F
100
AcDbEntity
  8
0
  6
CONTINUOUS
 62
     7
100
AcDbCircle
 10
411.3916153134
 20
67.871213499
 30
0.0
 40
3.0
100
AcDbArc
 50
270.0
 51
330.0
  0
LINE
  5
141
330
1F
100
AcDbEntity
  8
0
  6
CONTINUOUS
 62
     7
100
AcDbLine
 10
414.2437365006
 20
66.8112107966
 30
0.0
 11
413.9897015046
 21
66.3712167595
 31
0.0
  0
ARC
  5
142
330
1F
100
AcDbEntity
  8
0
  6
CONTINUOUS
 62
     7
100
AcDbCircle
 10
415.109751047
 20
66.311213499
 30
0.0
 40
1.0
100
AcDbArc
 50
90.0
 51
150.0
  0
LINE
  5
143
330
1F
100
AcDbEntity
  8
0
  6
CONTINUOUS
 62
     7
100
AcDbLine
 10
421.4606072854
 20
67.3112118099
 30
0.0
 11
415.1097621869
 21
67.3112118099
 31
0.0
  0
LINE
  5
144
330
1F
100
AcDbEntity
  8
0
  6
CONTINUOUS
 62
     7
100
AcDbLine
 10
441.8701913308
 20
64.8712137196
 30
0.0
 11
425.1787450264
 21
64.8712137196
 31
0.0
  0
LINE
  5
145
330
1F
100
AcDbEntity
  8
0
  6
CONTINUOUS
 62
     7
100
AcDbLine
 10
425.1787450264
 20
56.7512133572
 30
0.0
 11
441.8701913308
 21
56.7512133572
 31
0.0
  0
LINE
  5
146
330
1F
100
AcDbEntity
  8
0
  6
CONTINUOUS
 62
     7
100
AcDbLine
 10
411.3916244458
 20
64.8712137196
 30
0.0
 11
369.099387164
 21
64.8712137196
 31
0.0
  0
LINE
  5
147
330
1F
100
AcDbEntity
  8
0
  6
CONTINUOUS
 62
     7
100
AcDbLine
 10
369.099387164
 20
56.7512133572
 30
0.0
 11
411.3916244458
 21
56.7512133572
 31
0.0
  0
LINE
  5
148
330
1F
100
AcDbEntity
  8
0
  6
CONTINUOUS
 62
     7
100
AcDbLine
 10
367.4709584664
 20
64.8712137196
 30
0.0
 11
326.9203540038
 21
64.8712137196
 31
0.0
  0
LINE
  5
149
330
1F
100
AcDbEntity
  8
0
  6
CONTINUOUS
 62
     7
100
AcDbLine
 10
326.9203540038
 20
56.7512133572
 30
0.0
 11
367.4709584664
 21
56.7512133572
 31
0.0
  0
ARC
  5
14A
330
1F
100
AcDbEntity
  8
0
  6
CONTINUOUS
 62
     7
100
AcDbCircle
 10
367.4709639652
 20
55.751213499
 30
0.0
 40
1.000000000000003
100
AcDbArc
 50
45.0
 51
90.0
  0
LINE
  5
14B
330
1F
100
AcDbEntity
  8
0
  6
CONTINUOUS
 62
     7
100
AcDbLine
 10
368.1780781697
 20
56.4583198581
 30
0.0
 11
368.2851877163
 21
56.3512140367
 31
0.0
  0
LINE
  5
14C
330
1F
100
AcDbEntity
  8
0
  6
CONTINUOUS
 62
     7
100
AcDbLine
 10
368.2851877163
 20
56.3512140367
 30
0.0
 11
368.392297263
 21
56.4583198581
 31
0.0
  0
CIRCLE
  5
14D
330
1F
100
AcDbEntity
  8
0
  6
CONTINUOUS
 62
     7
100
AcDbCircle
 10
449.7826600196
 20
84.471436873
 30
0.0
 40
2.438076211353348
  0
CIRCLE
  5
14E
330
1F
100
AcDbEntity
  8
0
  6
CONTINUOUS
 62
     7
100
AcDbCircle
 10
419.7826600196
 20
84.471436873
 30
0.0
 40
1.640000000000043
  0
CIRCLE
  5
14F
330
1F
100
AcDbEntity
  8
0
  6
CONTINUOUS
 62
     7
100
AcDbCircle
 10
319.7826600196
 20
84.471436873
 30
0.0
 40
1.339999999999918
  0
CIRCLE
  5
150
330
1F
100
AcDbEntity
  8
0
  6
CONTINUOUS
 62
     7
100
AcDbCircle
 10
289.7826600196
 20
84.471436873
 30
0.0
 40
2.438076211353348
  0
ARC
  5
151
330
1F
100
AcDbEntity
  8
0
  6
CONTINUOUS
 62
     7
100
AcDbCircle
 10
443.3676775566
 20
96.531436873
 30
0.0
 40
7.999999999999987
100
AcDbArc
 50
270.0
 51
298.0095057167
  0
ARC
  5
152
330
1F
100
AcDbEntity
  8
0
  6
CONTINUOUS
 62
     7
100
AcDbCircle
 10
449.7826600196
 20
84.471436873
 30
0.0
 40
5.660000000000025
100
AcDbArc
 50
241.9904942833
 51
118.0095057167
  0
ARC
  5
153
330
1F
100
AcDbEntity
  8
0
  6
CONTINUOUS
 62
     7
100
AcDbCircle
 10
426.6762222337
 20
77.411436873
 30
0.0
 40
3.0
100
AcDbArc
 50
90.0
 51
150.0
  0
LINE
  5
154
330
1F
100
AcDbEntity
  8
0
  6
CONTINUOUS
 62
     7
100
AcDbLine
 10
423.8241102646
 20
78.471436486
 30
0.0
 11
424.0781452607
 21
78.9114379738
 31
0.0
  0
LINE
  5
155
330
1F
100
AcDbEntity
  8
0
  6
CONTINUOUS
 62
     7
100
AcDbLine
 10
416.6072394799
 20
77.9714354727
 30
0.0
 11
422.9580845784
 21
77.9714354727
 31
0.0
  0
LINE
  5
156
330
1F
100
AcDbEntity
  8
0
  6
CONTINUOUS
 62
     7
100
AcDbLine
 10
415.4871787976
 20
78.9114379738
 30
0.0
 11
415.7412137936
 21
78.471436486
 31
0.0
  0
ARC
  5
157
330
1F
100
AcDbEntity
  8
0
  6
CONTINUOUS
 62
     7
100
AcDbCircle
 10
412.8890978055
 20
77.411436873
 30
0.0
 40
3.0
100
AcDbArc
 50
30.0
 51
90.0
  0
ARC
  5
158
330
1F
100
AcDbEntity
  8
0
  6
CONTINUOUS
 62
     7
100
AcDbCircle
 10
370.596873582
 20
79.411436873
 30
0.0
 40
1.0
100
AcDbArc
 50
90.0
 51
135.0
  0
LINE
  5
159
330
1F
100
AcDbEntity
  8
0
  6
CONTINUOUS
 62
     7
100
AcDbLine
 10
369.7826650094
 20
80.0114342425
 30
0.0
 11
369.889774556
 21
80.1185437892
 31
0.0
  0
LINE
  5
15A
330
1F
100
AcDbEntity
  8
0
  6
CONTINUOUS
 62
     7
100
AcDbLine
 10
369.6755554627
 20
80.1185437892
 30
0.0
 11
369.7826650094
 21
80.0114342425
 31
0.0
  0
ARC
  5
15B
330
1F
100
AcDbEntity
  8
0
  6
CONTINUOUS
 62
     7
100
AcDbCircle
 10
368.9684464572
 20
79.411436873
 30
0.0
 40
1.000000000000038
100
AcDbArc
 50
45.0
 51
90.0
  0
ARC
  5
15C
330
1F
100
AcDbEntity
  8
0
  6
CONTINUOUS
 62
     7
100
AcDbCircle
 10
328.4178438625
 20
70.411436873
 30
0.0
 40
10.00000000000004
100
AcDbArc
 50
90.0
 51
121.5568608656
  0
ARC
  5
15D
330
1F
100
AcDbEntity
  8
0
  6
CONTINUOUS
 62
     7
100
AcDbCircle
 10
319.7826600196
 20
84.471436873
 30
0.0
 40
6.500000000000026
100
AcDbArc
 50
238.4431391344
 51
301.5568608656
  0
ARC
  5
15E
330
1F
100
AcDbEntity
  8
0
  6
CONTINUOUS
 62
     7
100
AcDbCircle
 10
311.1474761767
 20
70.411436873
 30
0.0
 40
10.0
100
AcDbArc
 50
58.4431391344
 51
90.0
  0
LINE
  5
15F
330
1F
100
AcDbEntity
  8
0
  6
CONTINUOUS
 62
     7
100
AcDbLine
 10
296.1976464938
 20
80.411433563
 30
0.0
 11
311.1474748801
 21
80.411433563
 31
0.0
  0
ARC
  5
160
330
1F
100
AcDbEntity
  8
0
  6
CONTINUOUS
 62
     7
100
AcDbCircle
 10
296.1976424826
 20
72.411436873
 30
0.0
 40
8.0
100
AcDbArc
 50
90.0
 51
118.0095057167
  0
ARC
  5
161
330
1F
100
AcDbEntity
  8
0
  6
CONTINUOUS
 62
     7
100
AcDbCircle
 10
289.7826600196
 20
84.471436873
 30
0.0
 40
5.660000000000025
100
AcDbArc
 50
61.9904942833
 51
298.0095057167
  0
ARC
  5
162
330
1F
100
AcDbEntity
  8
0
  6
CONTINUOUS
 62
     7
100
AcDbCircle
 10
296.1976424826
 20
96.531436873
 30
0.0
 40
7.999999999999987
100
AcDbArc
 50
241.9904942833
 51
270.0
  0
LINE
  5
163
330
1F
100
AcDbEntity
  8
0
  6
CONTINUOUS
 62
     7
100
AcDbLine
 10
311.1474748801
 20
88.5314339254
 30
0.0
 11
296.1976464938
 21
88.5314339254
 31
0.0
  0
ARC
  5
164
330
1F
100
AcDbEntity
  8
0
  6
CONTINUOUS
 62
     7
100
AcDbCircle
 10
311.1474761767
 20
98.531436873
 30
0.0
 40
9.999999999999986
100
AcDbArc
 50
270.0
 51
301.5568608656
  0
ARC
  5
165
330
1F
100
AcDbEntity
  8
0
  6
CONTINUOUS
 62
     7
100
AcDbCircle
 10
319.7826600196
 20
84.471436873
 30
0.0
 40
6.500000000000037
100
AcDbArc
 50
58.4431391344
 51
121.5568608656
  0
ARC
  5
166
330
1F
100
AcDbEntity
  8
0
  6
CONTINUOUS
 62
     7
100
AcDbCircle
 10
328.4178438625
 20
98.531436873
 30
0.0
 40
10.00000000000002
100
AcDbArc
 50
238.4431391344
 51
270.0
  0
ARC
  5
167
330
1F
100
AcDbEntity
  8
0
  6
CONTINUOUS
 62
     7
100
AcDbCircle
 10
368.9684464572
 20
89.531436873
 30
0.0
 40
1.000000000000048
100
AcDbArc
 50
270.0
 51
315.0
  0
LINE
  5
168
330
1F
100
AcDbEntity
  8
0
  6
CONTINUOUS
 62
     7
100
AcDbLine
 10
369.7826650094
 20
88.9314332459
 30
0.0
 11
369.6755554627
 21
88.8243311498
 31
0.0
  0
LINE
  5
169
330
1F
100
AcDbEntity
  8
0
  6
CONTINUOUS
 62
     7
100
AcDbLine
 10
369.889774556
 20
88.8243311498
 30
0.0
 11
369.7826650094
 21
88.9314332459
 31
0.0
  0
ARC
  5
16A
330
1F
100
AcDbEntity
  8
0
  6
CONTINUOUS
 62
     7
100
AcDbCircle
 10
370.596873582
 20
89.531436873
 30
0.0
 40
1.000000000000008
100
AcDbArc
 50
225.0
 51
270.0
  0
ARC
  5
16B
330
1F
100
AcDbEntity
  8
0
  6
CONTINUOUS
 62
     7
100
AcDbCircle
 10
412.8890978055
 20
91.531436873
 30
0.0
 40
3.000000000000049
100
AcDbArc
 50
270.0
 51
330.0
  0
LINE
  5
16C
330
1F
100
AcDbEntity
  8
0
  6
CONTINUOUS
 62
     7
100
AcDbLine
 10
415.7412137936
 20
90.471438453
 30
0.0
 11
415.4871787976
 21
90.0314369652
 31
0.0
  0
ARC
  5
16D
330
1F
100
AcDbEntity
  8
0
  6
CONTINUOUS
 62
     7
100
AcDbCircle
 10
416.6072335391
 20
89.971436873
 30
0.0
 40
1.0
100
AcDbArc
 50
90.0
 51
150.0
  0
ARC
  5
16E
330
1F
100
AcDbEntity
  8
0
  6
CONTINUOUS
 62
     7
100
AcDbCircle
 10
426.6762222337
 20
91.531436873
 30
0.0
 40
3.0
100
AcDbArc
 50
210.0
 51
270.0
  0
LINE
  5
16F
330
1F
100
AcDbEntity
  8
0
  6
CONTINUOUS
 62
     7
100
AcDbLine
 10
424.0781452607
 20
90.0314369652
 30
0.0
 11
423.8241102646
 21
90.471438453
 31
0.0
  0
ARC
  5
170
330
1F
100
AcDbEntity
  8
0
  6
CONTINUOUS
 62
     7
100
AcDbCircle
 10
443.3676775566
 20
72.411436873
 30
0.0
 40
8.0
100
AcDbArc
 50
61.9904942833
 51
90.0
  0
LINE
  5
171
330
1F
100
AcDbEntity
  8
0
  6
CONTINUOUS
 62
     7
100
AcDbLine
 10
368.9684357594
 20
88.5314339254
 30
0.0
 11
328.4178461979
 21
88.5314339254
 31
0.0
  0
LINE
  5
172
330
1F
100
AcDbEntity
  8
0
  6
CONTINUOUS
 62
     7
100
AcDbLine
 10
328.4178461979
 20
80.411433563
 30
0.0
 11
368.9684357594
 21
80.411433563
 31
0.0
  0
ARC
  5
173
330
1F
100
AcDbEntity
  8
0
  6
CONTINUOUS
 62
     7
100
AcDbCircle
 10
422.9580865001
 20
78.971436873
 30
0.0
 40
1.0
100
AcDbArc
 50
270.0
 51
330.0
  0
ARC
  5
174
330
1F
100
AcDbEntity
  8
0
  6
CONTINUOUS
 62
     7
100
AcDbCircle
 10
422.9580865001
 20
89.971436873
 30
0.0
 40
1.0
100
AcDbArc
 50
30.0
 51
90.0
  0
LINE
  5
175
330
1F
100
AcDbEntity
  8
0
  6
CONTINUOUS
 62
     7
100
AcDbLine
 10
443.3676686238
 20
88.5314339254
 30
0.0
 11
426.6762223195
 21
88.5314339254
 31
0.0
  0
LINE
  5
176
330
1F
100
AcDbEntity
  8
0
  6
CONTINUOUS
 62
     7
100
AcDbLine
 10
426.6762223195
 20
80.411433563
 30
0.0
 11
443.3676686238
 21
80.411433563
 31
0.0
  0
LINE
  5
177
330
1F
100
AcDbEntity
  8
0
  6
CONTINUOUS
 62
     7
100
AcDbLine
 10
422.9580845784
 20
90.9714394663
 30
0.0
 11
416.6072394799
 21
90.9714394663
 31
0.0
  0
ARC
  5
178
330
1F
100
AcDbEntity
  8
0
  6
CONTINUOUS
 62
     7
100
AcDbCircle
 10
416.6072335391
 20
78.971436873
 30
0.0
 40
0.9999999999999858
100
AcDbArc
 50
210.0
 51
270.0
  0
LINE
  5
179
330
1F
100
AcDbEntity
  8
0
  6
CONTINUOUS
 62
     7
100
AcDbLine
 10
370.596864457
 20
80.411433563
 30
0.0
 11
412.8891017388
 21
80.411433563
 31
0.0
  0
LINE
  5
17A
330
1F
100
AcDbEntity
  8
0
  6
CONTINUOUS
 62
     7
100
AcDbLine
 10
412.8891017388
 20
88.5314339254
 30
0.0
 11
370.596864457
 21
88.5314339254
 31
0.0
  0
CIRCLE
  5
17B
330
1F
100
AcDbEntity
  8
0
  6
CONTINUOUS
 62
     7
100
AcDbCircle
 10
460.2650374638
 20
72.4915769368
 30
0.0
 40
2.438076211353348
  0
CIRCLE
  5
17C
330
1F
100
AcDbEntity
  8
0
  6
CONTINUOUS
 62
     7
100
AcDbCircle
 10
430.2650374638
 20
72.4915769368
 30
0.0
 40
1.640000000000043
  0
CIRCLE
  5
17D
330
1F
100
AcDbEntity
  8
0
  6
CONTINUOUS
 62
     7
100
AcDbCircle
 10
330.2650374638
 20
72.4915769368
 30
0.0
 40
1.339999999999975
  0
CIRCLE
  5
17E
330
1F
100
AcDbEntity
  8
0
  6
CONTINUOUS
 62
     7
100
AcDbCircle
 10
300.2650374638
 20
72.4915769368
 30
0.0
 40
2.438076211353348
  0
ARC
  5
17F
330
1F
100
AcDbEntity
  8
0
  6
CONTINUOUS
 62
     7
100
AcDbCircle
 10
433.4404639443
 20
77.9915769368
 30
0.0
 40
1.0
100
AcDbArc
 50
30.0
 51
90.0
  0
LINE
  5
180
330
1F
100
AcDbEntity
  8
0
  6
CONTINUOUS
 62
     7
100
AcDbLine
 10
434.5605161141
 20
78.0515739176
 30
0.0
 11
434.3064811181
 21
78.4915754054
 31
0.0
  0
ARC
  5
181
330
1F
100
AcDbEntity
  8
0
  6
CONTINUOUS
 62
     7
100
AcDbCircle
 10
437.1585996779
 20
79.5515769368
 30
0.0
 40
3.000000000000014
100
AcDbArc
 50
210.0
 51
270.0
  0
LINE
  5
182
330
1F
100
AcDbEntity
  8
0
  6
CONTINUOUS
 62
     7
100
AcDbLine
 10
453.8500692795
 20
76.5515783284
 30
0.0
 11
437.1585931729
 21
76.5515783284
 31
0.0
  0
ARC
  5
183
330
1F
100
AcDbEntity
  8
0
  6
CONTINUOUS
 62
     7
100
AcDbCircle
 10
453.8500550008
 20
84.5515769368
 30
0.0
 40
8.0
100
AcDbArc
 50
270.0
 51
298.0095057167
  0
ARC
  5
184
330
1F
100
AcDbEntity
  8
0
  6
CONTINUOUS
 62
     7
100
AcDbCircle
 10
460.2650374638
 20
72.4915769368
 30
0.0
 40
5.660000000000013
100
AcDbArc
 50
241.9904942833
 51
118.0095057167
  0
ARC
  5
185
330
1F
100
AcDbEntity
  8
0
  6
CONTINUOUS
 62
     7
100
AcDbCircle
 10
453.8500550008
 20
60.4315769368
 30
0.0
 40
8.0
100
AcDbArc
 50
61.9904942833
 51
90.0
  0
LINE
  5
186
330
1F
100
AcDbEntity
  8
0
  6
CONTINUOUS
 62
     7
100
AcDbLine
 10
437.1585931729
 20
68.431577966
 30
0.0
 11
453.8500692795
 21
68.431577966
 31
0.0
  0
ARC
  5
187
330
1F
100
AcDbEntity
  8
0
  6
CONTINUOUS
 62
     7
100
AcDbCircle
 10
437.1585996779
 20
65.4315769368
 30
0.0
 40
3.000000000000014
100
AcDbArc
 50
90.0
 51
150.0
  0
LINE
  5
188
330
1F
100
AcDbEntity
  8
0
  6
CONTINUOUS
 62
     7
100
AcDbLine
 10
434.3064811181
 20
66.4915734384
 30
0.0
 11
434.5605161141
 21
66.9315749262
 31
0.0
  0
ARC
  5
189
330
1F
100
AcDbEntity
  8
0
  6
CONTINUOUS
 62
     7
100
AcDbCircle
 10
433.4404639443
 20
66.9915769368
 30
0.0
 40
1.0
100
AcDbArc
 50
270.0
 51
330.0
  0
LINE
  5
18A
330
1F
100
AcDbEntity
  8
0
  6
CONTINUOUS
 62
     7
100
AcDbLine
 10
427.0896103333
 20
65.9915798757
 30
0.0
 11
433.4404554318
 21
65.9915798757
 31
0.0
  0
ARC
  5
18B
330
1F
100
AcDbEntity
  8
0
  6
CONTINUOUS
 62
     7
100
AcDbCircle
 10
427.0896109833
 20
66.9915769368
 30
0.0
 40
0.9999999999999858
100
AcDbArc
 50
210.0
 51
270.0
  0
LINE
  5
18C
330
1F
100
AcDbEntity
  8
0
  6
CONTINUOUS
 62
     7
100
AcDbLine
 10
425.969549651
 20
66.9315749262
 30
0.0
 11
426.223584647
 21
66.4915734384
 31
0.0
  0
ARC
  5
18D
330
1F
100
AcDbEntity
  8
0
  6
CONTINUOUS
 62
     7
100
AcDbCircle
 10
423.3714752497
 20
65.4315769368
 30
0.0
 40
3.000000000000014
100
AcDbArc
 50
30.0
 51
90.0
  0
LINE
  5
18E
330
1F
100
AcDbEntity
  8
0
  6
CONTINUOUS
 62
     7
100
AcDbLine
 10
381.0792651127
 20
68.431577966
 30
0.0
 11
423.3714725922
 21
68.431577966
 31
0.0
  0
ARC
  5
18F
330
1F
100
AcDbEntity
  8
0
  6
CONTINUOUS
 62
     7
100
AcDbCircle
 10
381.0792510262
 20
67.4315769368
 30
0.0
 40
1.0
100
AcDbArc
 50
90.0
 51
135.0
  0
LINE
  5
190
330
1F
100
AcDbEntity
  8
0
  6
CONTINUOUS
 62
     7
100
AcDbLine
 10
380.2650358628
 20
68.0315786455
 30
0.0
 11
380.3721454094
 21
68.1386807416
 31
0.0
  0
LINE
  5
191
330
1F
100
AcDbEntity
  8
0
  6
CONTINUOUS
 62
     7
100
AcDbLine
 10
380.1579263161
 20
68.1386807416
 30
0.0
 11
380.2650358628
 21
68.0315786455
 31
0.0
  0
ARC
  5
192
330
1F
100
AcDbEntity
  8
0
  6
CONTINUOUS
 62
     7
100
AcDbCircle
 10
379.4508239014
 20
67.4315769368
 30
0.0
 40
1.000000000000038
100
AcDbArc
 50
45.0
 51
90.0
  0
LINE
  5
193
330
1F
100
AcDbEntity
  8
0
  6
CONTINUOUS
 62
     7
100
AcDbLine
 10
338.9002170514
 20
68.431577966
 30
0.0
 11
379.4508364151
 21
68.431577966
 31
0.0
  0
ARC
  5
194
330
1F
100
AcDbEntity
  8
0
  6
CONTINUOUS
 62
     7
100
AcDbCircle
 10
338.9002213067
 20
58.4315769368
 30
0.0
 40
10.00000000000001
100
AcDbArc
 50
90.0
 51
121.5568608656
  0
ARC
  5
195
330
1F
100
AcDbEntity
  8
0
  6
CONTINUOUS
 62
     7
100
AcDbCircle
 10
330.2650374638
 20
72.4915769368
 30
0.0
 40
6.499999999999996
100
AcDbArc
 50
238.4431391344
 51
301.5568608656
  0
ARC
  5
196
330
1F
100
AcDbEntity
  8
0
  6
CONTINUOUS
 62
     7
100
AcDbCircle
 10
321.6298536209
 20
58.4315769368
 30
0.0
 40
10.00000000000001
100
AcDbArc
 50
58.4431391344
 51
90.0
  0
LINE
  5
197
330
1F
100
AcDbEntity
  8
0
  6
CONTINUOUS
 62
     7
100
AcDbLine
 10
306.6800173472
 20
68.431577966
 30
0.0
 11
321.6298606347
 21
68.431577966
 31
0.0
  0
ARC
  5
198
330
1F
100
AcDbEntity
  8
0
  6
CONTINUOUS
 62
     7
100
AcDbCircle
 10
306.6800199268
 20
60.4315769368
 30
0.0
 40
8.000000000000025
100
AcDbArc
 50
90.0
 51
118.0095057167
  0
ARC
  5
199
330
1F
100
AcDbEntity
  8
0
  6
CONTINUOUS
 62
     7
100
AcDbCircle
 10
300.2650374638
 20
72.4915769368
 30
0.0
 40
5.660000000000013
100
AcDbArc
 50
61.9904942833
 51
298.0095057167
  0
ARC
  5
19A
330
1F
100
AcDbEntity
  8
0
  6
CONTINUOUS
 62
     7
100
AcDbCircle
 10
306.6800199268
 20
84.5515769368
 30
0.0
 40
8.000000000000025
100
AcDbArc
 50
241.9904942833
 51
270.0
  0
LINE
  5
19B
330
1F
100
AcDbEntity
  8
0
  6
CONTINUOUS
 62
     7
100
AcDbLine
 10
321.6298606347
 20
76.5515783284
 30
0.0
 11
306.6800173472
 21
76.5515783284
 31
0.0
  0
ARC
  5
19C
330
1F
100
AcDbEntity
  8
0
  6
CONTINUOUS
 62
     7
100
AcDbCircle
 10
321.6298536209
 20
86.5515769368
 30
0.0
 40
10.0
100
AcDbArc
 50
270.0
 51
301.5568608656
  0
ARC
  5
19D
330
1F
100
AcDbEntity
  8
0
  6
CONTINUOUS
 62
     7
100
AcDbCircle
 10
330.2650374638
 20
72.4915769368
 30
0.0
 40
6.500000000000008
100
AcDbArc
 50
58.4431391344
 51
121.5568608656
  0
ARC
  5
19E
330
1F
100
AcDbEntity
  8
0
  6
CONTINUOUS
 62
     7
100
AcDbCircle
 10
338.9002213067
 20
86.5515769368
 30
0.0
 40
10.0
100
AcDbArc
 50
238.4431391344
 51
270.0
  0
LINE
  5
19F
330
1F
100
AcDbEntity
  8
0
  6
CONTINUOUS
 62
     7
100
AcDbLine
 10
379.4508364151
 20
76.5515783284
 30
0.0
 11
338.9002170514
 21
76.5515783284
 31
0.0
  0
ARC
  5
1A0
330
1F
100
AcDbEntity
  8
0
  6
CONTINUOUS
 62
     7
100
AcDbCircle
 10
379.4508239014
 20
77.5515769368
 30
0.0
 40
1.000000000000048
100
AcDbArc
 50
270.0
 51
315.0
  0
LINE
  5
1A1
330
1F
100
AcDbEntity
  8
0
  6
CONTINUOUS
 62
     7
100
AcDbLine
 10
380.2650358628
 20
76.9515776489
 30
0.0
 11
380.1579263161
 21
76.8444681022
 31
0.0
  0
LINE
  5
1A2
330
1F
100
AcDbEntity
  8
0
  6
CONTINUOUS
 62
     7
100
AcDbLine
 10
380.3721454094
 20
76.8444681022
 30
0.0
 11
380.2650358628
 21
76.9515776489
 31
0.0
  0
ARC
  5
1A3
330
1F
100
AcDbEntity
  8
0
  6
CONTINUOUS
 62
     7
100
AcDbCircle
 10
381.0792510262
 20
77.5515769368
 30
0.0
 40
1.000000000000014
100
AcDbArc
 50
225.0
 51
270.0
  0
LINE
  5
1A4
330
1F
100
AcDbEntity
  8
0
  6
CONTINUOUS
 62
     7
100
AcDbLine
 10
423.3714725922
 20
76.5515783284
 30
0.0
 11
381.0792651127
 21
76.5515783284
 31
0.0
  0
LINE
  5
1A5
330
1F
100
AcDbEntity
  8
0
  6
CONTINUOUS
 62
     7
100
AcDbLine
 10
426.223584647
 20
78.4915754054
 30
0.0
 11
425.969549651
 21
78.0515739176
 31
0.0
  0
ARC
  5
1A6
330
1F
100
AcDbEntity
  8
0
  6
CONTINUOUS
 62
     7
100
AcDbCircle
 10
427.0896109833
 20
77.9915769368
 30
0.0
 40
1.0
100
AcDbArc
 50
90.0
 51
150.0
  0
LINE
  5
1A7
330
1F
100
AcDbEntity
  8
0
  6
CONTINUOUS
 62
     7
100
AcDbLine
 10
433.4404554318
 20
78.9915764187
 30
0.0
 11
427.0896103333
 21
78.9915764187
 31
0.0
  0
ARC
  5
1A8
330
1F
100
AcDbEntity
  8
0
  6
CONTINUOUS
 62
     7
100
AcDbCircle
 10
423.3714752497
 20
79.5515769368
 30
0.0
 40
3.000000000000014
100
AcDbArc
 50
270.0
 51
330.0
  0
LINE
  5
1A9
330
1F
100
AcDbEntity
  8
0
  6
CONTINUOUS
 62
     7
100
AcDbLine
 10
452.9293265294
 20
101.1573219154
 30
0.0
 11
436.237880225
 21
101.1573219154
 31
0.0
  0
ARC
  5
1AA
330
1F
100
AcDbEntity
  8
0
  6
CONTINUOUS
 62
     7
100
AcDbCircle
 10
459.3443168612
 20
97.097320979
 30
0.0
 40
5.660000000000025
100
AcDbArc
 50
241.9904942833
 51
118.0095057167
  0
LINE
  5
1AB
330
1F
100
AcDbEntity
  8
0
  6
CONTINUOUS
 62
     7
100
AcDbLine
 10
305.7593043993
 20
93.037321553
 30
0.0
 11
320.7091327857
 21
93.037321553
 31
0.0
  0
LINE
  5
1AC
330
1F
100
AcDbEntity
  8
0
  6
CONTINUOUS
 62
     7
100
AcDbLine
 10
378.530093665
 20
101.1573219154
 30
0.0
 11
337.9795041035
 21
101.1573219154
 31
0.0
  0
LINE
  5
1AD
330
1F
100
AcDbEntity
  8
0
  6
CONTINUOUS
 62
     7
100
AcDbLine
 10
422.4507596444
 20
101.1573219154
 30
0.0
 11
380.1585223626
 21
101.1573219154
 31
0.0
  0
LINE
  5
1AE
330
1F
100
AcDbEntity
  8
0
  6
CONTINUOUS
 62
     7
100
AcDbLine
 10
380.1585223626
 20
93.037321553
 30
0.0
 11
422.4507596444
 21
93.037321553
 31
0.0
  0
ARC
  5
1AF
330
1F
100
AcDbEntity
  8
0
  6
CONTINUOUS
 62
     7
100
AcDbCircle
 10
299.3443168612
 20
97.097320979
 30
0.0
 40
5.660000000000025
100
AcDbArc
 50
61.9904942833
 51
298.0095057167
  0
LINE
  5
1B0
330
1F
100
AcDbEntity
  8
0
  6
CONTINUOUS
 62
     7
100
AcDbLine
 10
436.237880225
 20
93.037321553
 30
0.0
 11
452.9293265294
 21
93.037321553
 31
0.0
  0
LINE
  5
1B1
330
1F
100
AcDbEntity
  8
0
  6
CONTINUOUS
 62
     7
100
AcDbLine
 10
337.9795041035
 20
93.037321553
 30
0.0
 11
378.530093665
 21
93.037321553
 31
0.0
  0
ARC
  5
1B2
330
1F
100
AcDbEntity
  8
0
  6
CONTINUOUS
 62
     7
100
AcDbCircle
 10
426.1688903807
 20
91.597320979
 30
0.0
 40
0.9999999999999858
100
AcDbArc
 50
210.0
 51
270.0
  0
ARC
  5
1B3
330
1F
100
AcDbEntity
  8
0
  6
CONTINUOUS
 62
     7
100
AcDbCircle
 10
432.5197433417
 20
91.597320979
 30
0.0
 40
1.0
100
AcDbArc
 50
270.0
 51
330.0
  0
ARC
  5
1B4
330
1F
100
AcDbEntity
  8
0
  6
CONTINUOUS
 62
     7
100
AcDbCircle
 10
432.5197433417
 20
102.597320979
 30
0.0
 40
1.0
100
AcDbArc
 50
30.0
 51
90.0
  0
ARC
  5
1B5
330
1F
100
AcDbEntity
  8
0
  6
CONTINUOUS
 62
     7
100
AcDbCircle
 10
426.1688903807
 20
102.597320979
 30
0.0
 40
1.0
100
AcDbArc
 50
90.0
 51
150.0
  0
ARC
  5
1B6
330
1F
100
AcDbEntity
  8
0
  6
CONTINUOUS
 62
     7
100
AcDbCircle
 10
320.7091330183
 20
83.037320979
 30
0.0
 40
10.0
100
AcDbArc
 50
58.4431391344
 51
90.0
  0
ARC
  5
1B7
330
1F
100
AcDbEntity
  8
0
  6
CONTINUOUS
 62
     7
100
AcDbCircle
 10
329.3443168612
 20
97.097320979
 30
0.0
 40
6.500000000000026
100
AcDbArc
 50
238.4431391344
 51
301.5568608656
  0
ARC
  5
1B8
330
1F
100
AcDbEntity
  8
0
  6
CONTINUOUS
 62
     7
100
AcDbCircle
 10
337.9795007041
 20
83.037320979
 30
0.0
 40
10.00000000000001
100
AcDbArc
 50
90.0
 51
121.5568608656
  0
ARC
  5
1B9
330
1F
100
AcDbEntity
  8
0
  6
CONTINUOUS
 62
     7
100
AcDbCircle
 10
320.7091330183
 20
111.157320979
 30
0.0
 40
9.999999999999986
100
AcDbArc
 50
270.0
 51
301.5568608656
  0
ARC
  5
1BA
330
1F
100
AcDbEntity
  8
0
  6
CONTINUOUS
 62
     7
100
AcDbCircle
 10
337.9795007041
 20
111.157320979
 30
0.0
 40
9.999999999999995
100
AcDbArc
 50
238.4431391344
 51
270.0
  0
ARC
  5
1BB
330
1F
100
AcDbEntity
  8
0
  6
CONTINUOUS
 62
     7
100
AcDbCircle
 10
329.3443168612
 20
97.097320979
 30
0.0
 40
6.500000000000037
100
AcDbArc
 50
58.4431391344
 51
121.5568608656
  0
LINE
  5
1BC
330
1F
100
AcDbEntity
  8
0
  6
CONTINUOUS
 62
     7
100
AcDbLine
 10
425.0488367032
 20
91.5373185132
 30
0.0
 11
425.3028716992
 21
91.097324476
 31
0.0
  0
LINE
  5
1BD
330
1F
100
AcDbEntity
  8
0
  6
CONTINUOUS
 62
     7
100
AcDbLine
 10
426.1688973855
 20
90.5973234627
 30
0.0
 11
432.519742484
 21
90.5973234627
 31
0.0
  0
LINE
  5
1BE
330
1F
100
AcDbEntity
  8
0
  6
CONTINUOUS
 62
     7
100
AcDbLine
 10
433.3857681702
 20
91.097324476
 30
0.0
 11
433.6398031662
 21
91.5373185132
 31
0.0
  0
ARC
  5
1BF
330
1F
100
AcDbEntity
  8
0
  6
CONTINUOUS
 62
     7
100
AcDbCircle
 10
436.2378790753
 20
90.037320979
 30
0.0
 40
3.0
100
AcDbArc
 50
90.0
 51
150.0
  0
ARC
  5
1C0
330
1F
100
AcDbEntity
  8
0
  6
CONTINUOUS
 62
     7
100
AcDbCircle
 10
422.4507546471
 20
90.037320979
 30
0.0
 40
3.0
100
AcDbArc
 50
30.0
 51
90.0
  0
ARC
  5
1C1
330
1F
100
AcDbEntity
  8
0
  6
CONTINUOUS
 62
     7
100
AcDbCircle
 10
422.4507546471
 20
104.157320979
 30
0.0
 40
3.000000000000049
100
AcDbArc
 50
270.0
 51
330.0
  0
ARC
  5
1C2
330
1F
100
AcDbEntity
  8
0
  6
CONTINUOUS
 62
     7
100
AcDbCircle
 10
436.2378790753
 20
104.157320979
 30
0.0
 40
3.0
100
AcDbArc
 50
210.0
 51
270.0
  0
LINE
  5
1C3
330
1F
100
AcDbEntity
  8
0
  6
CONTINUOUS
 62
     7
100
AcDbLine
 10
433.6398031662
 20
102.6573175047
 30
0.0
 11
433.3857681702
 21
103.0973189924
 31
0.0
  0
LINE
  5
1C4
330
1F
100
AcDbEntity
  8
0
  6
CONTINUOUS
 62
     7
100
AcDbLine
 10
432.519742484
 20
103.5973200057
 30
0.0
 11
426.1688973855
 21
103.5973200057
 31
0.0
  0
LINE
  5
1C5
330
1F
100
AcDbEntity
  8
0
  6
CONTINUOUS
 62
     7
100
AcDbLine
 10
425.3028716992
 20
103.0973189924
 30
0.0
 11
425.0488367032
 21
102.6573175047
 31
0.0
  0
CIRCLE
  5
1C6
330
1F
100
AcDbEntity
  8
0
  6
CONTINUOUS
 62
     7
100
AcDbCircle
 10
329.3443168612
 20
97.097320979
 30
0.0
 40
1.339999999999918
  0
CIRCLE
  5
1C7
330
1F
100
AcDbEntity
  8
0
  6
CONTINUOUS
 62
     7
100
AcDbCircle
 10
429.3443168612
 20
97.097320979
 30
0.0
 40
1.640000000000043
  0
ARC
  5
1C8
330
1F
100
AcDbEntity
  8
0
  6
CONTINUOUS
 62
     7
100
AcDbCircle
 10
378.5301032988
 20
92.037320979
 30
0.0
 40
1.000000000000038
100
AcDbArc
 50
45.0
 51
90.0
  0
LINE
  5
1C9
330
1F
100
AcDbEntity
  8
0
  6
CONTINUOUS
 62
     7
100
AcDbLine
 10
379.2372133683
 20
92.7444243286
 30
0.0
 11
379.3443229149
 21
92.6373222325
 31
0.0
  0
LINE
  5
1CA
330
1F
100
AcDbEntity
  8
0
  6
CONTINUOUS
 62
     7
100
AcDbLine
 10
379.3443229149
 20
92.6373222325
 30
0.0
 11
379.4514324616
 21
92.7444243286
 31
0.0
  0
ARC
  5
1CB
330
1F
100
AcDbEntity
  8
0
  6
CONTINUOUS
 62
     7
100
AcDbCircle
 10
380.1585304236
 20
92.037320979
 30
0.0
 40
1.0
100
AcDbArc
 50
90.0
 51
135.0
  0
ARC
  5
1CC
330
1F
100
AcDbEntity
  8
0
  6
CONTINUOUS
 62
     7
100
AcDbCircle
 10
378.5301032988
 20
102.157320979
 30
0.0
 40
1.000000000000048
100
AcDbArc
 50
270.0
 51
315.0
  0
ARC
  5
1CD
330
1F
100
AcDbEntity
  8
0
  6
CONTINUOUS
 62
     7
100
AcDbCircle
 10
380.1585304236
 20
102.157320979
 30
0.0
 40
1.000000000000008
100
AcDbArc
 50
225.0
 51
270.0
  0
LINE
  5
1CE
330
1F
100
AcDbEntity
  8
0
  6
CONTINUOUS
 62
     7
100
AcDbLine
 10
379.4514324616
 20
101.4502116892
 30
0.0
 11
379.3443229149
 21
101.5573212359
 31
0.0
  0
LINE
  5
1CF
330
1F
100
AcDbEntity
  8
0
  6
CONTINUOUS
 62
     7
100
AcDbLine
 10
379.3443229149
 20
101.5573212359
 30
0.0
 11
379.2372133683
 21
101.4502116892
 31
0.0
  0
ARC
  5
1D0
330
1F
100
AcDbEntity
  8
0
  6
CONTINUOUS
 62
     7
100
AcDbCircle
 10
452.9293343982
 20
109.157320979
 30
0.0
 40
7.999999999999986
100
AcDbArc
 50
270.0
 51
298.0095057167
  0
ARC
  5
1D1
330
1F
100
AcDbEntity
  8
0
  6
CONTINUOUS
 62
     7
100
AcDbCircle
 10
305.7592993242
 20
85.037320979
 30
0.0
 40
8.0
100
AcDbArc
 50
90.0
 51
118.0095057167
  0
ARC
  5
1D2
330
1F
100
AcDbEntity
  8
0
  6
CONTINUOUS
 62
     7
100
AcDbCircle
 10
305.7592993242
 20
109.157320979
 30
0.0
 40
7.999999999999987
100
AcDbArc
 50
241.9904942833
 51
270.0
  0
CIRCLE
  5
1D3
330
1F
100
AcDbEntity
  8
0
  6
CONTINUOUS
 62
     7
100
AcDbCircle
 10
299.3443168612
 20
97.097320979
 30
0.0
 40
2.438076211353348
  0
LINE
  5
1D4
330
1F
100
AcDbEntity
  8
0
  6
CONTINUOUS
 62
     7
100
AcDbLine
 10
320.7091327857
 20
101.1573219154
 30
0.0
 11
305.7593043993
 21
101.1573219154
 31
0.0
  0
ARC
  5
1D5
330
1F
100
AcDbEntity
  8
0
  6
CONTINUOUS
 62
     7
100
AcDbCircle
 10
452.9293343982
 20
85.037320979
 30
0.0
 40
8.0
100
AcDbArc
 50
61.9904942833
 51
90.0
  0
CIRCLE
  5
1D6
330
1F
100
AcDbEntity
  8
0
  6
CONTINUOUS
 62
     7
100
AcDbCircle
 10
459.3443168612
 20
97.097320979
 30
0.0
 40
2.438076211353348
  0
CIRCLE
  5
1D7
330
1F
100
AcDbEntity
  8
0
  6
CONTINUOUS
 62
     7
100
AcDbCircle
 10
412.1475835972
 20
126.8720724538
 30
0.0
 40
1.5
  0
CIRCLE
  5
1D8
330
1F
100
AcDbEntity
  8
0
  6
CONTINUOUS
 62
     7
100
AcDbCircle
 10
412.1475835972
 20
126.8720724538
 30
0.0
 40
3.0
  0
CIRCLE
  5
1D9
330
1F
100
AcDbEntity
  8
0
  6
CONTINUOUS
 62
     7
100
AcDbCircle
 10
397.9390378254
 20
136.2892323233
 30
0.0
 40
1.5
  0
CIRCLE
  5
1DA
330
1F
100
AcDbEntity
  8
0
  6
CONTINUOUS
 62
     7
100
AcDbCircle
 10
397.9390378254
 20
136.2892323233
 30
0.0
 40
3.0
  0
CIRCLE
  5
1DB
330
1F
100
AcDbEntity
  8
0
  6
CONTINUOUS
 62
     7
100
AcDbCircle
 10
393.5708116092
 20
127.1764306859
 30
0.0
 40
1.5
  0
CIRCLE
  5
1DC
330
1F
100
AcDbEntity
  8
0
  6
CONTINUOUS
 62
     7
100
AcDbCircle
 10
393.5708116092
 20
127.1764306859
 30
0.0
 40
3.0
  0
CIRCLE
  5
1DD
330
1F
100
AcDbEntity
  8
0
  6
CONTINUOUS
 62
     7
100
AcDbCircle
 10
407.7175718729
 20
135.9878951572
 30
0.0
 40
1.5
  0
CIRCLE
  5
1DE
330
1F
100
AcDbEntity
  8
0
  6
CONTINUOUS
 62
     7
100
AcDbCircle
 10
407.7175718729
 20
135.9878951572
 30
0.0
 40
3.0
  0
CIRCLE
  5
1DF
330
1F
100
AcDbEntity
  8
0
  6
CONTINUOUS
 62
     7
100
AcDbCircle
 10
402.7877467299
 20
127.0311677107
 30
0.0
 40
1.5
  0
CIRCLE
  5
1E0
330
1F
100
AcDbEntity
  8
0
  6
CONTINUOUS
 62
     7
100
AcDbCircle
 10
402.7877467299
 20
127.0311677107
 30
0.0
 40
3.0
  0
CIRCLE
  5
1E1
330
1F
100
AcDbEntity
  8
0
  6
CONTINUOUS
 62
     7
100
AcDbCircle
 10
387.1037796167
 20
147.574385212
 30
0.0
 40
1.37499999999997
  0
CIRCLE
  5
1E2
330
1F
100
AcDbEntity
  8
0
  6
CONTINUOUS
 62
     7
100
AcDbCircle
 10
408.1405536316
 20
159.9620459697
 30
0.0
 40
1.374999999999972
  0
ARC
  5
1E3
330
1F
100
AcDbEntity
  8
0
  6
CONTINUOUS
 62
     7
100
AcDbCircle
 10
386.9283998567
 20
135.5510815167
 30
0.0
 40
4.000000000000051
100
AcDbArc
 50
178.9138230922
 51
265.5
  0
LINE
  5
1E4
330
1F
100
AcDbEntity
  8
0
  6
CONTINUOUS
 62
     7
100
AcDbLine
 10
383.1658449124
 20
148.1131607149
 30
0.0
 11
382.9291250657
 21
135.6269115064
 31
0.0
  0
ARC
  5
1E5
330
1F
100
AcDbEntity
  8
0
  6
CONTINUOUS
 62
     7
100
AcDbCircle
 10
401.1626191134
 20
147.7719504057
 30
0.0
 40
18.00000000000005
100
AcDbArc
 50
85.5
 51
178.9138230922
  0
LINE
  5
1E6
330
1F
100
AcDbEntity
  8
0
  6
CONTINUOUS
 62
     7
100
AcDbLine
 10
408.5563805054
 20
165.2457111929
 30
0.0
 11
402.5748755883
 21
165.7164686773
 31
0.0
  0
ARC
  5
1E7
330
1F
100
AcDbEntity
  8
0
  6
CONTINUOUS
 62
     7
100
AcDbCircle
 10
408.2033209082
 20
160.7595798367
 30
0.0
 40
4.500000000000021
100
AcDbArc
 50
355.5
 51
85.5
  0
LINE
  5
1E8
330
1F
100
AcDbEntity
  8
0
  6
CONTINUOUS
 62
     7
100
AcDbLine
 10
411.9205560635
 20
150.6367170665
 30
0.0
 11
412.6894559811
 21
160.4065143917
 31
0.0
  0
ARC
  5
1E9
330
1F
100
AcDbEntity
  8
0
  6
CONTINUOUS
 62
     7
100
AcDbCircle
 10
407.43442177
 20
150.9897899661
 30
0.0
 40
4.50000000000002
100
AcDbArc
 50
233.2008142343
 51
355.5
  0
ARC
  5
1EA
330
1F
100
AcDbEntity
  8
0
  6
CONTINUOUS
 62
     7
100
AcDbCircle
 10
399.639115088
 20
140.5692797239
 30
0.0
 40
8.513602113739008
100
AcDbArc
 50
53.2008142343
 51
149.1978344361
  0
ARC
  5
1EB
330
1F
100
AcDbEntity
  8
0
  6
CONTINUOUS
 62
     7
100
AcDbCircle
 10
395.7621992374
 20
142.8805840155
 30
0.0
 40
4.000000000000026
100
AcDbArc
 50
149.1978344361
 51
175.5
  0
LINE
  5
1EC
330
1F
100
AcDbEntity
  8
0
  6
CONTINUOUS
 62
     7
100
AcDbLine
 10
391.1468472432
 20
135.2190816257
 30
0.0
 11
391.7745437573
 21
143.1944215152
 31
0.0
  0
ARC
  5
1ED
330
1F
100
AcDbEntity
  8
0
  6
CONTINUOUS
 62
     7
100
AcDbCircle
 10
387.1591878017
 20
135.5329181115
 30
0.0
 40
4.000000000000028
100
AcDbArc
 50
265.5
 51
355.5
  0
LINE
  5
1EE
330
1F
100
AcDbEntity
  8
0
  6
CONTINUOUS
 62
     7
100
AcDbLine
 10
386.6145696591
 20
131.5634095523
 30
0.0
 11
386.8453588437
 21
131.5452450369
 31
0.0
  0
CIRCLE
  5
1EF
330
1F
100
AcDbEntity
  8
0
  6
CONTINUOUS
 62
     7
100
AcDbCircle
 10
407.43442177
 20
150.9897899661
 30
0.0
 40
1.37499999999997
  0
ARC
  5
1F0
330
1F
100
AcDbEntity
  8
0
  6
CONTINUOUS
 62
     7
100
AcDbCircle
 10
464.2013624374
 20
160.2054764248
 30
0.0
 40
1.599999999999969
100
AcDbArc
 50
269.5
 51
89.5
  0
LINE
  5
1F1
330
1F
100
AcDbEntity
  8
0
  6
CONTINUOUS
 62
     7
100
AcDbLine
 10
464.215317006
 20
161.8054205034
 30
0.0
 11
461.2154450367
 21
161.8316018436
 31
0.0
  0
ARC
  5
1F2
330
1F
100
AcDbEntity
  8
0
  6
CONTINUOUS
 62
     7
100
AcDbCircle
 10
461.2014766682
 20
160.2316560313
 30
0.0
 40
1.600000000000026
100
AcDbArc
 50
89.5
 51
269.5
  0
LINE
  5
1F3
330
1F
100
AcDbEntity
  8
0
  6
CONTINUOUS
 62
     7
100
AcDbLine
 10
424.8843278836
 20
124.0472042415
 30
0.0
 11
462.8828849743
 21
123.7155938003
 31
0.0
  0
LINE
  5
1F4
330
1F
100
AcDbEntity
  8
0
  6
CONTINUOUS
 62
     7
100
AcDbLine
 10
463.2493939351
 20
165.7139950845
 30
0.0
 11
425.2508368443
 21
166.0456055257
 31
0.0
  0
ARC
  5
1F5
330
1F
100
AcDbEntity
  8
0
  6
CONTINUOUS
 62
     7
100
AcDbCircle
 10
430.2026570532
 20
160.5021786317
 30
0.0
 40
1.600000000000026
100
AcDbArc
 50
89.5
 51
269.5
  0
LINE
  5
1F6
330
1F
100
AcDbEntity
  8
0
  6
CONTINUOUS
 62
     7
100
AcDbLine
 10
432.9459752987
 20
131.0771250579
 30
0.0
 11
429.9461033295
 21
131.103291497
 31
0.0
  0
LINE
  5
1F7
330
1F
100
AcDbEntity
  8
0
  6
CONTINUOUS
 62
     7
100
AcDbLine
 10
425.2508368443
 20
166.0456055257
 30
0.0
 11
417.6994051884
 21
158.62481235
 31
0.0
  0
LINE
  5
1F8
330
1F
100
AcDbEntity
  8
0
  6
CONTINUOUS
 62
     7
100
AcDbLine
 10
429.9181785534
 20
127.9034161422
 30
0.0
 11
432.9180505227
 21
127.877234802
 31
0.0
  0
ARC
  5
1F9
330
1F
100
AcDbEntity
  8
0
  6
CONTINUOUS
 62
     7
100
AcDbCircle
 10
429.9321344527
 20
129.5033590167
 30
0.0
 40
1.600000000000026
100
AcDbArc
 50
89.5
 51
269.5
  0
LINE
  5
1FA
330
1F
100
AcDbEntity
  8
0
  6
CONTINUOUS
 62
     7
100
AcDbLine
 10
463.9448013257
 20
130.8065944765
 30
0.0
 11
460.9449293564
 21
130.8327758167
 31
0.0
  0
LINE
  5
1FB
330
1F
100
AcDbEntity
  8
0
  6
CONTINUOUS
 62
     7
100
AcDbLine
 10
460.9170045804
 20
127.6329004619
 30
0.0
 11
463.9168765496
 21
127.6067191217
 31
0.0
  0
ARC
  5
1FC
330
1F
100
AcDbEntity
  8
0
  6
CONTINUOUS
 62
     7
100
AcDbCircle
 10
460.9309540677
 20
129.2328364163
 30
0.0
 40
1.600000000000026
100
AcDbArc
 50
89.5
 51
269.5
  0
LINE
  5
1FD
330
1F
100
AcDbEntity
  8
0
  6
CONTINUOUS
 62
     7
100
AcDbLine
 10
417.6994051884
 20
158.62481235
 30
0.0
 11
417.6063027333
 21
147.9567879293
 31
0.0
  0
LINE
  5
1FE
330
1F
100
AcDbEntity
  8
0
  6
CONTINUOUS
 62
     7
100
AcDbLine
 10
467.2143247078
 20
161.6792374704
 30
0.0
 11
463.2493939351
 21
165.7139950845
 31
0.0
  0
LINE
  5
1FF
330
1F
100
AcDbEntity
  8
0
  6
CONTINUOUS
 62
     7
100
AcDbLine
 10
461.1875202607
 20
158.6317115877
 30
0.0
 11
464.1873922299
 21
158.6055302475
 31
0.0
  0
ARC
  5
200
330
1F
100
AcDbEntity
  8
0
  6
CONTINUOUS
 62
     7
100
AcDbCircle
 10
433.2025428224
 20
160.4759990252
 30
0.0
 40
1.600000000000026
100
AcDbArc
 50
269.5
 51
89.5
  0
LINE
  5
201
330
1F
100
AcDbEntity
  8
0
  6
CONTINUOUS
 62
     7
100
AcDbLine
 10
447.6644780587
 20
156.0496234748
 30
0.0
 11
444.6645762871
 21
156.0758048151
 31
0.0
  0
ARC
  5
202
330
1F
100
AcDbEntity
  8
0
  6
CONTINUOUS
 62
     7
100
AcDbCircle
 10
447.5667294066
 20
144.850054453
 30
0.0
 40
11.20000000000001
100
AcDbArc
 50
269.5
 51
89.5
  0
LINE
  5
203
330
1F
100
AcDbEntity
  8
0
  6
CONTINUOUS
 62
     7
100
AcDbLine
 10
444.4691028546
 20
133.6766624305
 30
0.0
 11
447.4690046261
 21
133.6504810903
 31
0.0
  0
ARC
  5
204
330
1F
100
AcDbEntity
  8
0
  6
CONTINUOUS
 62
     7
100
AcDbCircle
 10
444.5668436374
 20
144.8762340595
 30
0.0
 40
11.20000000000001
100
AcDbArc
 50
89.5
 51
269.5
  0
LINE
  5
205
330
1F
100
AcDbEntity
  8
0
  6
CONTINUOUS
 62
     7
100
AcDbLine
 10
466.9176425885
 20
127.6805394743
 30
0.0
 11
467.2143247078
 21
161.6792374704
 31
0.0
  0
LINE
  5
206
330
1F
100
AcDbEntity
  8
0
  6
CONTINUOUS
 62
     7
100
AcDbLine
 10
433.2164909791
 20
162.0759361837
 30
0.0
 11
430.2166190098
 21
162.1021175239
 31
0.0
  0
LINE
  5
207
330
1F
100
AcDbEntity
  8
0
  6
CONTINUOUS
 62
     7
100
AcDbLine
 10
417.463549609
 20
131.5986507986
 30
0.0
 11
424.8843278836
 21
124.0472042415
 31
0.0
  0
LINE
  5
208
330
1F
100
AcDbEntity
  8
0
  6
CONTINUOUS
 62
     7
100
AcDbLine
 10
417.5566222619
 20
142.2666752193
 30
0.0
 11
417.463549609
 21
131.5986507986
 31
0.0
  0
ARC
  5
209
330
1F
100
AcDbEntity
  8
0
  6
CONTINUOUS
 62
     7
100
AcDbCircle
 10
421.0677384454
 20
145.0813076437
 30
0.0
 40
4.499999999999996
100
AcDbArc
 50
218.7169833554
 51
140.2830166446
  0
LINE
  5
20A
330
1F
100
AcDbEntity
  8
0
  6
CONTINUOUS
 62
     7
100
AcDbLine
 10
462.8828849743
 20
123.7155938003
 30
0.0
 11
466.9176425885
 21
127.6805394743
 31
0.0
  0
ARC
  5
20B
330
1F
100
AcDbEntity
  8
0
  6
CONTINUOUS
 62
     7
100
AcDbCircle
 10
463.9308398369
 20
129.2066568098
 30
0.0
 40
1.599999999999983
100
AcDbArc
 50
269.5
 51
89.5
  0
LINE
  5
20C
330
1F
100
AcDbEntity
  8
0
  6
CONTINUOUS
 62
     7
100
AcDbLine
 10
430.1886942338
 20
158.9022421692
 30
0.0
 11
433.188566203
 21
158.8760608289
 31
0.0
  0
ARC
  5
20D
330
1F
100
AcDbEntity
  8
0
  6
CONTINUOUS
 62
     7
100
AcDbCircle
 10
432.9320202219
 20
129.4771794102
 30
0.0
 40
1.600000000000026
100
AcDbArc
 50
269.5
 51
89.5
  0
ARC
  5
20E
330
1F
100
AcDbEntity
  8
0
  6
CONTINUOUS
 62
     7
100
AcDbCircle
 10
107.633352457
 20
205.2129348544
 30
0.0
 40
1.440000000000026
100
AcDbArc
 50
270.0
 51
90.0
  0
ARC
  5
20F
330
1F
100
AcDbEntity
  8
0
  6
CONTINUOUS
 62
     7
100
AcDbCircle
 10
131.133352457
 20
217.7629348544
 30
0.0
 40
0.5900000000000034
100
AcDbArc
 50
0.0
 51
180.0
  0
LINE
  5
210
330
1F
100
AcDbEntity
  8
0
  6
CONTINUOUS
 62
     7
100
AcDbLine
 10
130.543351518
 20
217.7629357301
 30
0.0
 11
130.543351518
 21
216.4629342132
 31
0.0
  0
ARC
  5
211
330
1F
100
AcDbEntity
  8
0
  6
CONTINUOUS
 62
     7
100
AcDbCircle
 10
131.133352457
 20
216.4629348544
 30
0.0
 40
0.5900000000000034
100
AcDbArc
 50
180.0
 51
0.0
  0
ARC
  5
212
330
1F
100
AcDbEntity
  8
0
  6
CONTINUOUS
 62
     7
100
AcDbCircle
 10
140.633352457
 20
216.4629348544
 30
0.0
 40
0.589999999999975
100
AcDbArc
 50
180.0
 51
0.0
  0
LINE
  5
213
330
1F
100
AcDbEntity
  8
0
  6
CONTINUOUS
 62
     7
100
AcDbLine
 10
141.2233527471
 20
216.4629342132
 30
0.0
 11
141.2233527471
 21
217.7629357301
 31
0.0
  0
ARC
  5
214
330
1F
100
AcDbEntity
  8
0
  6
CONTINUOUS
 62
     7
100
AcDbCircle
 10
140.633352457
 20
217.7629348544
 30
0.0
 40
0.589999999999975
100
AcDbArc
 50
0.0
 51
180.0
  0
LINE
  5
215
330
1F
100
AcDbEntity
  8
0
  6
CONTINUOUS
 62
     7
100
AcDbLine
 10
140.0433521439
 20
217.7629357301
 30
0.0
 11
140.0433521439
 21
216.4629342132
 31
0.0
  0
ARC
  5
216
330
1F
100
AcDbEntity
  8
0
  6
CONTINUOUS
 62
     7
100
AcDbCircle
 10
151.633352457
 20
224.7202223286
 30
0.0
 40
0.9399999999999977
100
AcDbArc
 50
270.0
 51
90.0
  0
LINE
  5
217
330
1F
100
AcDbEntity
  8
0
  6
CONTINUOUS
 62
     7
100
AcDbLine
 10
151.6333523859
 20
225.6602214747
 30
0.0
 11
149.6333520581
 21
225.6602214747
 31
0.0
  0
ARC
  5
218
330
1F
100
AcDbEntity
  8
0
  6
CONTINUOUS
 62
     7
100
AcDbCircle
 10
149.633352457
 20
224.7202223286
 30
0.0
 40
0.9399999999999693
100
AcDbArc
 50
90.0
 51
270.0
  0
LINE
  5
219
330
1F
100
AcDbEntity
  8
0
  6
CONTINUOUS
 62
     7
100
AcDbLine
 10
149.6333520581
 20
223.7802220606
 30
0.0
 11
151.6333523859
 21
223.7802220606
 31
0.0
  0
ARC
  5
21A
330
1F
100
AcDbEntity
  8
0
  6
CONTINUOUS
 62
     7
100
AcDbCircle
 10
151.633352457
 20
240.7202223286
 30
0.0
 40
0.9399999999999977
100
AcDbArc
 50
270.0
 51
90.0
  0
LINE
  5
21B
330
1F
100
AcDbEntity
  8
0
  6
CONTINUOUS
 62
     7
100
AcDbLine
 10
151.6333523859
 20
241.6602240973
 30
0.0
 11
149.6333520581
 21
241.6602240973
 31
0.0
  0
ARC
  5
21C
330
1F
100
AcDbEntity
  8
0
  6
CONTINUOUS
 62
     7
100
AcDbCircle
 10
149.633352457
 20
240.7202223286
 30
0.0
 40
0.940000000000083
100
AcDbArc
 50
90.0
 51
270.0
  0
LINE
  5
21D
330
1F
100
AcDbEntity
  8
0
  6
CONTINUOUS
 62
     7
100
AcDbLine
 10
149.6333520581
 20
239.7802228205
 30
0.0
 11
151.6333523859
 21
239.7802228205
 31
0.0
  0
LINE
  5
21E
330
1F
100
AcDbEntity
  8
0
  6
CONTINUOUS
 62
     7
100
AcDbLine
 10
141.2333514262
 20
297.4729331308
 30
0.0
 11
131.2333535124
 21
297.4729331308
 31
0.0
  0
LINE
  5
21F
330
1F
100
AcDbEntity
  8
0
  6
CONTINUOUS
 62
     7
100
AcDbLine
 10
131.2333535124
 20
277.5929363542
 30
0.0
 11
141.2333514262
 21
277.5929363542
 31
0.0
  0
ARC
  5
220
330
1F
100
AcDbEntity
  8
0
  6
CONTINUOUS
 62
     7
100
AcDbCircle
 10
131.133352457
 20
374.6029348544
 30
0.0
 40
0.5900000000000318
100
AcDbArc
 50
0.0
 51
180.0
  0
LINE
  5
221
330
1F
100
AcDbEntity
  8
0
  6
CONTINUOUS
 62
     7
100
AcDbLine
 10
131.7233521212
 20
373.3029382401
 30
0.0
 11
131.7233521212
 21
374.6029304438
 31
0.0
  0
LINE
  5
222
330
1F
100
AcDbEntity
  8
0
  6
CONTINUOUS
 62
     7
100
AcDbLine
 10
506.4733590652
 20
254.8329362743
 30
0.0
 11
506.4733590652
 21
268.232935863
 31
0.0
  0
ARC
  5
223
330
1F
100
AcDbEntity
  8
0
  6
CONTINUOUS
 62
     7
100
AcDbCircle
 10
505.733352457
 20
254.8329348544
 30
0.0
 40
0.7399999999999807
100
AcDbArc
 50
270.0
 51
0.0
  0
ARC
  5
224
330
1F
100
AcDbEntity
  8
0
  6
CONTINUOUS
 62
     7
100
AcDbCircle
 10
493.233352457
 20
254.8329348544
 30
0.0
 40
0.7400000000000375
100
AcDbArc
 50
180.0
 51
270.0
  0
LINE
  5
225
330
1F
100
AcDbEntity
  8
0
  6
CONTINUOUS
 62
     7
100
AcDbLine
 10
492.493357854
 20
268.232935863
 30
0.0
 11
492.493357854
 21
254.8329362743
 31
0.0
  0
ARC
  5
226
330
1F
100
AcDbEntity
  8
0
  6
CONTINUOUS
 62
     7
100
AcDbCircle
 10
493.233352457
 20
268.2329348544
 30
0.0
 40
0.7400000000000091
100
AcDbArc
 50
90.0
 51
180.0
  0
ARC
  5
227
330
1F
100
AcDbEntity
  8
0
  6
CONTINUOUS
 62
     7
100
AcDbCircle
 10
494.633352457
 20
289.2329348544
 30
0.0
 40
0.7400000000000091
100
AcDbArc
 50
0.0
 51
90.0
  0
LINE
  5
228
330
1F
100
AcDbEntity
  8
0
  6
CONTINUOUS
 62
     7
100
AcDbLine
 10
495.3733648826
 20
275.8329378538
 30
0.0
 11
495.3733648826
 21
289.2329337173
 31
0.0
  0
ARC
  5
229
330
1F
100
AcDbEntity
  8
0
  6
CONTINUOUS
 62
     7
100
AcDbCircle
 10
494.633352457
 20
275.8329348544
 30
0.0
 40
0.7400000000000091
100
AcDbArc
 50
270.0
 51
0.0
  0
LINE
  5
22A
330
1F
100
AcDbEntity
  8
0
  6
CONTINUOUS
 62
     7
100
AcDbLine
 10
131.7233521212
 20
216.4629342132
 30
0.0
 11
131.7233521212
 21
217.7629357301
 31
0.0
  0
ARC
  5
22B
330
1F
100
AcDbEntity
  8
0
  6
CONTINUOUS
 62
     7
100
AcDbCircle
 10
493.233352457
 20
275.8329348544
 30
0.0
 40
0.7400000000000091
100
AcDbArc
 50
180.0
 51
270.0
  0
CIRCLE
  5
22C
330
1F
100
AcDbEntity
  8
0
  6
CONTINUOUS
 62
     7
100
AcDbCircle
 10
491.633352457
 20
206.5129348544
 30
0.0
 40
1.439999999999998
  0
ARC
  5
22D
330
1F
100
AcDbEntity
  8
0
  6
CONTINUOUS
 62
     7
100
AcDbCircle
 10
205.133352457
 20
365.4529348544
 30
0.0
 40
0.9399999999999977
100
AcDbArc
 50
270.0
 51
90.0
  0
LINE
  5
22E
330
1F
100
AcDbEntity
  8
0
  6
CONTINUOUS
 62
     7
100
AcDbLine
 10
203.1333561708
 20
364.5129369669
 30
0.0
 11
205.1333527733
 21
364.5129369669
 31
0.0
  0
ARC
  5
22F
330
1F
100
AcDbEntity
  8
0
  6
CONTINUOUS
 62
     7
100
AcDbCircle
 10
203.133352457
 20
365.4529348544
 30
0.0
 40
0.9400000000000546
100
AcDbArc
 50
90.0
 51
270.0
  0
CIRCLE
  5
230
330
1F
100
AcDbEntity
  8
0
  6
CONTINUOUS
 62
     7
100
AcDbCircle
 10
204.133352457
 20
295.5329348544
 30
0.0
 40
1.539999999999964
  0
LINE
  5
231
330
1F
100
AcDbEntity
  8
0
  6
CONTINUOUS
 62
     7
100
AcDbLine
 10
205.1333527733
 20
226.5529351406
 30
0.0
 11
203.1333561708
 21
226.5529351406
 31
0.0
  0
ARC
  5
232
330
1F
100
AcDbEntity
  8
0
  6
CONTINUOUS
 62
     7
100
AcDbCircle
 10
205.133352457
 20
225.6129348544
 30
0.0
 40
0.9400000000000261
100
AcDbArc
 50
270.0
 51
90.0
  0
LINE
  5
233
330
1F
100
AcDbEntity
  8
0
  6
CONTINUOUS
 62
     7
100
AcDbLine
 10
203.1333561708
 20
224.6729357265
 30
0.0
 11
205.1333527733
 21
224.6729357265
 31
0.0
  0
ARC
  5
234
330
1F
100
AcDbEntity
  8
0
  6
CONTINUOUS
 62
     7
100
AcDbCircle
 10
203.133352457
 20
225.6129348544
 30
0.0
 40
0.9400000000000546
100
AcDbArc
 50
90.0
 51
270.0
  0
LINE
  5
235
330
1F
100
AcDbEntity
  8
0
  6
CONTINUOUS
 62
     7
100
AcDbLine
 10
105.1763690729
 20
203.7729349085
 30
0.0
 11
107.6333526243
 21
203.7729349085
 31
0.0
  0
ARC
  5
236
330
1F
100
AcDbEntity
  8
0
  6
CONTINUOUS
 62
     7
100
AcDbCircle
 10
102.7867041306
 20
205.2129348544
 30
0.0
 40
2.790000000000035
100
AcDbArc
 50
31.0729509722
 51
328.9270490278
  0
LINE
  5
237
330
1F
100
AcDbEntity
  8
0
  6
CONTINUOUS
 62
     7
100
AcDbLine
 10
107.6333526243
 20
206.6529344865
 30
0.0
 11
105.1763690729
 21
206.6529344865
 31
0.0
  0
ARC
  5
238
330
1F
100
AcDbEntity
  8
0
  6
CONTINUOUS
 62
     7
100
AcDbCircle
 10
302.633352457
 20
381.4529348544
 30
0.0
 40
0.9400000000000577
100
AcDbArc
 50
176.3403346494
 51
270.0
  0
LINE
  5
239
330
1F
100
AcDbEntity
  8
0
  6
CONTINUOUS
 62
     7
100
AcDbLine
 10
304.6333457996
 20
380.5129395895
 30
0.0
 11
302.6333566476
 21
380.5129395895
 31
0.0
  0
ARC
  5
23A
330
1F
100
AcDbEntity
  8
0
  6
CONTINUOUS
 62
     7
100
AcDbCircle
 10
304.633352457
 20
381.4529348544
 30
0.0
 40
0.9399999999999977
100
AcDbArc
 50
270.0
 51
3.6596653506
  0
LINE
  5
23B
330
1F
100
AcDbEntity
  8
0
  6
CONTINUOUS
 62
     7
100
AcDbLine
 10
437.6952614356
 20
381.5129416161
 30
0.0
 11
305.5714335014
 21
381.5129416161
 31
0.0
  0
ARC
  5
23C
330
1F
100
AcDbEntity
  8
0
  6
CONTINUOUS
 62
     7
100
AcDbCircle
 10
438.633352457
 20
381.4529348544
 30
0.0
 40
0.9400000000000577
100
AcDbArc
 50
176.3403346494
 51
270.0
  0
LINE
  5
23D
330
1F
100
AcDbEntity
  8
0
  6
CONTINUOUS
 62
     7
100
AcDbLine
 10
440.6333531905
 20
380.5129395895
 30
0.0
 11
438.6333491374
 21
380.5129395895
 31
0.0
  0
ARC
  5
23E
330
1F
100
AcDbEntity
  8
0
  6
CONTINUOUS
 62
     7
100
AcDbCircle
 10
440.633352457
 20
381.4529348544
 30
0.0
 40
0.9400000000000546
100
AcDbArc
 50
270.0
 51
3.6596653507
  0
LINE
  5
23F
330
1F
100
AcDbEntity
  8
0
  6
CONTINUOUS
 62
     7
100
AcDbLine
 10
463.8128544856
 20
381.5129416161
 30
0.0
 11
441.5714408923
 21
381.5129416161
 31
0.0
  0
ARC
  5
240
330
1F
100
AcDbEntity
  8
0
  6
CONTINUOUS
 62
     7
100
AcDbCircle
 10
463.8128443813
 20
401.4529348544
 30
0.0
 40
19.94
100
AcDbArc
 50
270.0
 51
330.0994879959
  0
LINE
  5
241
330
1F
100
AcDbEntity
  8
0
  6
CONTINUOUS
 62
     7
100
AcDbLine
 10
529.1333462764
 20
391.5129320793
 30
0.0
 11
481.0986783077
 21
391.5129320793
 31
0.0
  0
ARC
  5
242
330
1F
100
AcDbEntity
  8
0
  6
CONTINUOUS
 62
     7
100
AcDbCircle
 10
529.133352457
 20
389.4529348544
 30
0.0
 40
2.059999999999945
100
AcDbArc
 50
360.0
 51
90.0
  0
LINE
  5
243
330
1F
100
AcDbEntity
  8
0
  6
CONTINUOUS
 62
     7
100
AcDbLine
 10
531.1933424045
 20
372.2813593321
 30
0.0
 11
531.1933424045
 21
389.4529359513
 31
0.0
  0
ARC
  5
244
330
1F
100
AcDbEntity
  8
0
  6
CONTINUOUS
 62
     7
100
AcDbCircle
 10
529.133352457
 20
372.2813619791
 30
0.0
 40
2.060000000000047
100
AcDbArc
 50
315.0
 51
0.0
  0
LINE
  5
245
330
1F
100
AcDbEntity
  8
0
  6
CONTINUOUS
 62
     7
100
AcDbLine
 10
528.7615623046
 20
368.9962940388
 30
0.0
 11
530.5899943877
 21
370.8247261219
 31
0.0
  0
ARC
  5
246
330
1F
100
AcDbEntity
  8
0
  6
CONTINUOUS
 62
     7
100
AcDbCircle
 10
530.133352457
 20
367.6245077297
 30
0.0
 40
1.940000000000055
100
AcDbArc
 50
135.0
 51
180.0
  0
LINE
  5
247
330
1F
100
AcDbEntity
  8
0
  6
CONTINUOUS
 62
     7
100
AcDbLine
 10
528.193351226
 20
223.4413622045
 30
0.0
 11
528.193351226
 21
367.6245080405
 31
0.0
  0
ARC
  5
248
330
1F
100
AcDbEntity
  8
0
  6
CONTINUOUS
 62
     7
100
AcDbCircle
 10
530.133352457
 20
223.4413619791
 30
0.0
 40
1.940000000000025
100
AcDbArc
 50
180.0
 51
225.0
  0
LINE
  5
249
330
1F
100
AcDbEntity
  8
0
  6
CONTINUOUS
 62
     7
100
AcDbLine
 10
530.5899943877
 20
220.2411478483
 30
0.0
 11
528.7615623046
 21
222.0695743435
 31
0.0
  0
ARC
  5
24A
330
1F
100
AcDbEntity
  8
0
  6
CONTINUOUS
 62
     7
100
AcDbCircle
 10
141.233352457
 20
287.5329348544
 30
0.0
 40
9.939999999999998
100
AcDbArc
 50
270.0
 51
90.0
  0
LINE
  5
24B
330
1F
100
AcDbEntity
  8
0
  6
CONTINUOUS
 62
     7
100
AcDbLine
 10
531.1933424045
 20
201.6129347593
 30
0.0
 11
531.1933424045
 21
218.7845071875
 31
0.0
  0
ARC
  5
24C
330
1F
100
AcDbEntity
  8
0
  6
CONTINUOUS
 62
     7
100
AcDbCircle
 10
131.233352457
 20
287.5329348544
 30
0.0
 40
9.939999999999998
100
AcDbArc
 50
90.0
 51
270.0
  0
CIRCLE
  5
24D
330
1F
100
AcDbEntity
  8
0
  6
CONTINUOUS
 62
     7
100
AcDbCircle
 10
107.733352457
 20
272.0329348544
 30
0.0
 40
1.54000000000002
  0
CIRCLE
  5
24E
330
1F
100
AcDbEntity
  8
0
  6
CONTINUOUS
 62
     7
100
AcDbCircle
 10
99.633352457
 20
295.5329348544
 30
0.0
 40
1.439999999999998
  0
CIRCLE
  5
24F
330
1F
100
AcDbEntity
  8
0
  6
CONTINUOUS
 62
     7
100
AcDbCircle
 10
107.733352457
 20
303.0329348544
 30
0.0
 40
1.539999999999964
  0
LINE
  5
250
330
1F
100
AcDbEntity
  8
0
  6
CONTINUOUS
 62
     7
100
AcDbLine
 10
151.6333523859
 20
351.2856530123
 30
0.0
 11
149.6333520581
 21
351.2856530123
 31
0.0
  0
ARC
  5
251
330
1F
100
AcDbEntity
  8
0
  6
CONTINUOUS
 62
     7
100
AcDbCircle
 10
151.633352457
 20
350.3456473802
 30
0.0
 40
0.9399999999999977
100
AcDbArc
 50
270.0
 51
90.0
  0
LINE
  5
252
330
1F
100
AcDbEntity
  8
0
  6
CONTINUOUS
 62
     7
100
AcDbLine
 10
149.6333520581
 20
349.4056480103
 30
0.0
 11
151.6333523859
 21
349.4056480103
 31
0.0
  0
ARC
  5
253
330
1F
100
AcDbEntity
  8
0
  6
CONTINUOUS
 62
     7
100
AcDbCircle
 10
149.633352457
 20
350.3456473802
 30
0.0
 40
0.9400000000000546
100
AcDbArc
 50
90.0
 51
270.0
  0
LINE
  5
254
330
1F
100
AcDbEntity
  8
0
  6
CONTINUOUS
 62
     7
100
AcDbLine
 10
151.6333523859
 20
367.2856407337
 30
0.0
 11
149.6333520581
 21
367.2856407337
 31
0.0
  0
ARC
  5
255
330
1F
100
AcDbEntity
  8
0
  6
CONTINUOUS
 62
     7
100
AcDbCircle
 10
151.633352457
 20
366.3456473802
 30
0.0
 40
0.9399999999999409
100
AcDbArc
 50
270.0
 51
90.0
  0
LINE
  5
256
330
1F
100
AcDbEntity
  8
0
  6
CONTINUOUS
 62
     7
100
AcDbLine
 10
149.6333520581
 20
365.4056506329
 30
0.0
 11
151.6333523859
 21
365.4056506329
 31
0.0
  0
ARC
  5
257
330
1F
100
AcDbEntity
  8
0
  6
CONTINUOUS
 62
     7
100
AcDbCircle
 10
149.633352457
 20
366.3456473802
 30
0.0
 40
0.9400000000000546
100
AcDbArc
 50
90.0
 51
270.0
  0
LINE
  5
258
330
1F
100
AcDbEntity
  8
0
  6
CONTINUOUS
 62
     7
100
AcDbLine
 10
140.0433521439
 20
374.6029304438
 30
0.0
 11
140.0433521439
 21
373.3029382401
 31
0.0
  0
ARC
  5
259
330
1F
100
AcDbEntity
  8
0
  6
CONTINUOUS
 62
     7
100
AcDbCircle
 10
140.633352457
 20
374.6029348544
 30
0.0
 40
0.5900000000000318
100
AcDbArc
 50
0.0
 51
180.0
  0
LINE
  5
25A
330
1F
100
AcDbEntity
  8
0
  6
CONTINUOUS
 62
     7
100
AcDbLine
 10
141.2233527471
 20
373.3029382401
 30
0.0
 11
141.2233527471
 21
374.6029304438
 31
0.0
  0
ARC
  5
25B
330
1F
100
AcDbEntity
  8
0
  6
CONTINUOUS
 62
     7
100
AcDbCircle
 10
140.633352457
 20
373.3029348544
 30
0.0
 40
0.5900000000000318
100
AcDbArc
 50
180.0
 51
0.0
  0
LINE
  5
25C
330
1F
100
AcDbEntity
  8
0
  6
CONTINUOUS
 62
     7
100
AcDbLine
 10
130.543351518
 20
374.6029304438
 30
0.0
 11
130.543351518
 21
373.3029382401
 31
0.0
  0
LINE
  5
25D
330
1F
100
AcDbEntity
  8
0
  6
CONTINUOUS
 62
     7
100
AcDbLine
 10
97.073352309
 20
199.5529349059
 30
0.0
 11
113.1680275966
 21
199.5529349059
 31
0.0
  0
LINE
  5
25E
330
1F
100
AcDbEntity
  8
0
  6
CONTINUOUS
 62
     7
100
AcDbLine
 10
97.073352309
 20
293.8566299253
 30
0.0
 11
97.073352309
 21
199.5529349059
 31
0.0
  0
ARC
  5
25F
330
1F
100
AcDbEntity
  8
0
  6
CONTINUOUS
 62
     7
100
AcDbCircle
 10
131.133352457
 20
373.3029348544
 30
0.0
 40
0.5900000000000318
100
AcDbArc
 50
180.0
 51
0.0
  0
LINE
  5
260
330
1F
100
AcDbEntity
  8
0
  6
CONTINUOUS
 62
     7
100
AcDbLine
 10
105.1763690729
 20
384.4129311018
 30
0.0
 11
107.6333526243
 21
384.4129311018
 31
0.0
  0
ARC
  5
261
330
1F
100
AcDbEntity
  8
0
  6
CONTINUOUS
 62
     7
100
AcDbCircle
 10
102.7867041306
 20
385.8529348544
 30
0.0
 40
2.789999999999986
100
AcDbArc
 50
31.0729509722
 51
328.9270490278
  0
LINE
  5
262
330
1F
100
AcDbEntity
  8
0
  6
CONTINUOUS
 62
     7
100
AcDbLine
 10
107.6333526243
 20
387.2929381304
 30
0.0
 11
105.1763690729
 21
387.2929381304
 31
0.0
  0
ARC
  5
263
330
1F
100
AcDbEntity
  8
0
  6
CONTINUOUS
 62
     7
100
AcDbCircle
 10
107.633352457
 20
385.8529348544
 30
0.0
 40
1.439999999999961
100
AcDbArc
 50
269.9999904693
 51
90.0000095307
  0
LINE
  5
264
330
1F
100
AcDbEntity
  8
0
  6
CONTINUOUS
 62
     7
100
AcDbLine
 10
97.073352309
 20
391.5129320793
 30
0.0
 11
97.073352309
 21
297.2092421823
 31
0.0
  0
LINE
  5
265
330
1F
100
AcDbEntity
  8
0
  6
CONTINUOUS
 62
     7
100
AcDbLine
 10
113.1680275966
 20
391.5129320793
 30
0.0
 11
97.073352309
 21
391.5129320793
 31
0.0
  0
ARC
  5
266
330
1F
100
AcDbEntity
  8
0
  6
CONTINUOUS
 62
     7
100
AcDbCircle
 10
130.4538605327
 20
401.4529348544
 30
0.0
 40
19.94000000000005
100
AcDbArc
 50
209.9005120041
 51
270.0
  0
LINE
  5
267
330
1F
100
AcDbEntity
  8
0
  6
CONTINUOUS
 62
     7
100
AcDbLine
 10
202.195268469
 20
381.5129416161
 30
0.0
 11
130.4538588692
 21
381.5129416161
 31
0.0
  0
ARC
  5
268
330
1F
100
AcDbEntity
  8
0
  6
CONTINUOUS
 62
     7
100
AcDbCircle
 10
203.133352457
 20
381.4529348544
 30
0.0
 40
0.9400000000000546
100
AcDbArc
 50
176.3403346494
 51
270.0
  0
LINE
  5
269
330
1F
100
AcDbEntity
  8
0
  6
CONTINUOUS
 62
     7
100
AcDbLine
 10
205.1333527733
 20
380.5129395895
 30
0.0
 11
203.1333561708
 21
380.5129395895
 31
0.0
  0
ARC
  5
26A
330
1F
100
AcDbEntity
  8
0
  6
CONTINUOUS
 62
     7
100
AcDbCircle
 10
205.133352457
 20
381.4529348544
 30
0.0
 40
0.9400000000000083
100
AcDbArc
 50
270.0
 51
3.6596653507
  0
LINE
  5
26B
330
1F
100
AcDbEntity
  8
0
  6
CONTINUOUS
 62
     7
100
AcDbLine
 10
301.6952689458
 20
381.5129416161
 30
0.0
 11
206.0714330245
 21
381.5129416161
 31
0.0
  0
LINE
  5
26C
330
1F
100
AcDbEntity
  8
0
  6
CONTINUOUS
 62
     7
100
AcDbLine
 10
494.6333434154
 20
289.9729328327
 30
0.0
 11
493.2333495189
 21
289.9729328327
 31
0.0
  0
LINE
  5
26D
330
1F
100
AcDbEntity
  8
0
  6
CONTINUOUS
 62
     7
100
AcDbLine
 10
305.5714335014
 20
209.5529351481
 30
0.0
 11
437.6952614356
 21
209.5529351481
 31
0.0
  0
ARC
  5
26E
330
1F
100
AcDbEntity
  8
0
  6
CONTINUOUS
 62
     7
100
AcDbCircle
 10
304.633352457
 20
209.6129348544
 30
0.0
 40
0.9400000000000011
100
AcDbArc
 50
356.3403346494
 51
90.0
  0
LINE
  5
26F
330
1F
100
AcDbEntity
  8
0
  6
CONTINUOUS
 62
     7
100
AcDbLine
 10
302.6333566476
 20
210.552935312
 30
0.0
 11
304.6333457996
 21
210.552935312
 31
0.0
  0
LINE
  5
270
330
1F
100
AcDbEntity
  8
0
  6
CONTINUOUS
 62
     7
100
AcDbLine
 10
493.2333495189
 20
275.0929312878
 30
0.0
 11
494.6333434154
 21
275.0929312878
 31
0.0
  0
LINE
  5
271
330
1F
100
AcDbEntity
  8
0
  6
CONTINUOUS
 62
     7
100
AcDbLine
 10
206.0714330245
 20
209.5529351481
 30
0.0
 11
301.6952689458
 21
209.5529351481
 31
0.0
  0
LINE
  5
272
330
1F
100
AcDbEntity
  8
0
  6
CONTINUOUS
 62
     7
100
AcDbLine
 10
492.493357854
 20
289.2329337173
 30
0.0
 11
492.493357854
 21
275.8329378538
 31
0.0
  0
ARC
  5
273
330
1F
100
AcDbEntity
  8
0
  6
CONTINUOUS
 62
     7
100
AcDbCircle
 10
493.233352457
 20
289.2329348544
 30
0.0
 40
0.7400000000000091
100
AcDbArc
 50
90.0
 51
180.0
  0
LINE
  5
274
330
1F
100
AcDbEntity
  8
0
  6
CONTINUOUS
 62
     7
100
AcDbLine
 10
498.1333579589
 20
304.4729324155
 30
0.0
 11
490.7333519031
 21
304.4729324155
 31
0.0
  0
ARC
  5
275
330
1F
100
AcDbEntity
  8
0
  6
CONTINUOUS
 62
     7
100
AcDbCircle
 10
498.133352457
 20
303.7329348544
 30
0.0
 40
0.7400000000000091
100
AcDbArc
 50
0.0
 51
90.0
  0
LINE
  5
276
330
1F
100
AcDbEntity
  8
0
  6
CONTINUOUS
 62
     7
100
AcDbLine
 10
498.8733496238
 20
292.3329340391
 30
0.0
 11
498.8733496238
 21
303.7329333
 31
0.0
  0
ARC
  5
277
330
1F
100
AcDbEntity
  8
0
  6
CONTINUOUS
 62
     7
100
AcDbCircle
 10
498.133352457
 20
292.3329348544
 30
0.0
 40
0.7400000000000091
100
AcDbArc
 50
270.0
 51
0.0
  0
LINE
  5
278
330
1F
100
AcDbEntity
  8
0
  6
CONTINUOUS
 62
     7
100
AcDbLine
 10
490.7333519031
 20
291.5929349237
 30
0.0
 11
498.1333579589
 21
291.5929349237
 31
0.0
  0
ARC
  5
279
330
1F
100
AcDbEntity
  8
0
  6
CONTINUOUS
 62
     7
100
AcDbCircle
 10
490.733352457
 20
292.3329348544
 30
0.0
 40
0.7400000000000091
100
AcDbArc
 50
180.0
 51
270.0
  0
LINE
  5
27A
330
1F
100
AcDbEntity
  8
0
  6
CONTINUOUS
 62
     7
100
AcDbLine
 10
489.9933602382
 20
303.7329333
 30
0.0
 11
489.9933602382
 21
292.3329340391
 31
0.0
  0
ARC
  5
27B
330
1F
100
AcDbEntity
  8
0
  6
CONTINUOUS
 62
     7
100
AcDbCircle
 10
490.733352457
 20
303.7329348544
 30
0.0
 40
0.7399999999999523
100
AcDbArc
 50
90.0
 51
180.0
  0
CIRCLE
  5
27C
330
1F
100
AcDbEntity
  8
0
  6
CONTINUOUS
 62
     7
100
AcDbCircle
 10
522.633352457
 20
384.5529348544
 30
0.0
 40
1.439999999999998
  0
CIRCLE
  5
27D
330
1F
100
AcDbEntity
  8
0
  6
CONTINUOUS
 62
     7
100
AcDbCircle
 10
491.633352457
 20
384.5529348544
 30
0.0
 40
1.439999999999998
  0
ARC
  5
27E
330
1F
100
AcDbEntity
  8
0
  6
CONTINUOUS
 62
     7
100
AcDbCircle
 10
529.133352457
 20
218.7845077297
 30
0.0
 40
2.060000000000047
100
AcDbArc
 50
0.0
 51
45.0
  0
ARC
  5
27F
330
1F
100
AcDbEntity
  8
0
  6
CONTINUOUS
 62
     7
100
AcDbCircle
 10
302.633352457
 20
365.4529348544
 30
0.0
 40
0.9400000000000546
100
AcDbArc
 50
90.0
 51
183.6596653504
  0
ARC
  5
280
330
1F
100
AcDbEntity
  8
0
  6
CONTINUOUS
 62
     7
100
AcDbCircle
 10
529.133352457
 20
201.6129348544
 30
0.0
 40
2.060000000000002
100
AcDbArc
 50
270.0
 51
0.0
  0
LINE
  5
281
330
1F
100
AcDbEntity
  8
0
  6
CONTINUOUS
 62
     7
100
AcDbLine
 10
481.0986783077
 20
199.5529349059
 30
0.0
 11
529.1333462764
 21
199.5529349059
 31
0.0
  0
ARC
  5
282
330
1F
100
AcDbEntity
  8
0
  6
CONTINUOUS
 62
     7
100
AcDbCircle
 10
463.8128443813
 20
189.6129348544
 30
0.0
 40
19.93999999999997
100
AcDbArc
 50
29.9005120041
 51
90.0
  0
LINE
  5
283
330
1F
100
AcDbEntity
  8
0
  6
CONTINUOUS
 62
     7
100
AcDbLine
 10
441.5714408923
 20
209.5529351481
 30
0.0
 11
463.8128544856
 21
209.5529351481
 31
0.0
  0
ARC
  5
284
330
1F
100
AcDbEntity
  8
0
  6
CONTINUOUS
 62
     7
100
AcDbCircle
 10
440.633352457
 20
209.6129348544
 30
0.0
 40
0.9400000000000613
100
AcDbArc
 50
356.3403346494
 51
90.0
  0
LINE
  5
285
330
1F
100
AcDbEntity
  8
0
  6
CONTINUOUS
 62
     7
100
AcDbLine
 10
438.6333491374
 20
210.552935312
 30
0.0
 11
440.6333531905
 21
210.552935312
 31
0.0
  0
ARC
  5
286
330
1F
100
AcDbEntity
  8
0
  6
CONTINUOUS
 62
     7
100
AcDbCircle
 10
438.633352457
 20
209.6129348544
 30
0.0
 40
0.9400000000000261
100
AcDbArc
 50
90.0
 51
183.6596653506
  0
ARC
  5
287
330
1F
100
AcDbEntity
  8
0
  6
CONTINUOUS
 62
     7
100
AcDbCircle
 10
461.633352457
 20
355.4529348544
 30
0.0
 40
9.940000000000055
100
AcDbArc
 50
0.0
 51
90.0
  0
LINE
  5
288
330
1F
100
AcDbEntity
  8
0
  6
CONTINUOUS
 62
     7
100
AcDbLine
 10
471.5733494331
 20
235.6129342788
 30
0.0
 11
471.5733494331
 21
355.4529415541
 31
0.0
  0
ARC
  5
289
330
1F
100
AcDbEntity
  8
0
  6
CONTINUOUS
 62
     7
100
AcDbCircle
 10
461.633352457
 20
235.6129348544
 30
0.0
 40
9.940000000000055
100
AcDbArc
 50
270.0
 51
360.0
  0
ARC
  5
28A
330
1F
100
AcDbEntity
  8
0
  6
CONTINUOUS
 62
     7
100
AcDbCircle
 10
302.633352457
 20
209.6129348544
 30
0.0
 40
0.9399999999999409
100
AcDbArc
 50
90.0
 51
183.6596653506
  0
ARC
  5
28B
330
1F
100
AcDbEntity
  8
0
  6
CONTINUOUS
 62
     7
100
AcDbCircle
 10
440.633352457
 20
225.6129348544
 30
0.0
 40
0.9399999999985198
100
AcDbArc
 50
269.9999999998
 51
3.6596653507
  0
ARC
  5
28C
330
1F
100
AcDbEntity
  8
0
  6
CONTINUOUS
 62
     7
100
AcDbCircle
 10
205.133352457
 20
209.6129348544
 30
0.0
 40
0.9400000000000028
100
AcDbArc
 50
356.3403346494
 51
90.0
  0
LINE
  5
28D
330
1F
100
AcDbEntity
  8
0
  6
CONTINUOUS
 62
     7
100
AcDbLine
 10
203.1333561708
 20
210.552935312
 30
0.0
 11
205.1333527733
 21
210.552935312
 31
0.0
  0
ARC
  5
28E
330
1F
100
AcDbEntity
  8
0
  6
CONTINUOUS
 62
     7
100
AcDbCircle
 10
203.133352457
 20
209.6129348544
 30
0.0
 40
0.9400000000000348
100
AcDbArc
 50
90.0
 51
183.6596653506
  0
LINE
  5
28F
330
1F
100
AcDbEntity
  8
0
  6
CONTINUOUS
 62
     7
100
AcDbLine
 10
130.4538588692
 20
209.5529351481
 30
0.0
 11
202.195268469
 21
209.5529351481
 31
0.0
  0
ARC
  5
290
330
1F
100
AcDbEntity
  8
0
  6
CONTINUOUS
 62
     7
100
AcDbCircle
 10
302.633352457
 20
225.6129348544
 30
0.0
 40
0.9399999999996334
100
AcDbArc
 50
176.3403346492
 51
270.0
  0
LINE
  5
291
330
1F
100
AcDbEntity
  8
0
  6
CONTINUOUS
 62
     7
100
AcDbLine
 10
281.6333587934
 20
225.6729340278
 30
0.0
 11
301.6952689458
 21
225.6729340278
 31
0.0
  0
ARC
  5
292
330
1F
100
AcDbEntity
  8
0
  6
CONTINUOUS
 62
     7
100
AcDbCircle
 10
99.633352457
 20
295.5329348544
 30
0.0
 40
3.060000000000191
100
AcDbArc
 50
146.7829472697
 51
213.2170527303
  0
LINE
  5
293
330
1F
100
AcDbEntity
  8
0
  6
CONTINUOUS
 62
     7
100
AcDbLine
 10
205.1333527733
 20
366.3929419689
 30
0.0
 11
203.1333561708
 21
366.3929419689
 31
0.0
  0
CIRCLE
  5
294
330
1F
100
AcDbEntity
  8
0
  6
CONTINUOUS
 62
     7
100
AcDbCircle
 10
515.433352457
 20
249.5329348544
 30
0.0
 40
3.939999999999998
  0
CIRCLE
  5
295
330
1F
100
AcDbEntity
  8
0
  6
CONTINUOUS
 62
     7
100
AcDbCircle
 10
483.633352457
 20
295.5329348544
 30
0.0
 40
1.439999999999998
  0
LINE
  5
296
330
1F
100
AcDbEntity
  8
0
  6
CONTINUOUS
 62
     7
100
AcDbLine
 10
505.733337598
 20
268.9729349785
 30
0.0
 11
493.2333495189
 21
268.9729349785
 31
0.0
  0
ARC
  5
297
330
1F
100
AcDbEntity
  8
0
  6
CONTINUOUS
 62
     7
100
AcDbCircle
 10
505.733352457
 20
268.2329348544
 30
0.0
 40
0.7399999999999523
100
AcDbArc
 50
0.0
 51
90.0
  0
LINE
  5
298
330
1F
100
AcDbEntity
  8
0
  6
CONTINUOUS
 62
     7
100
AcDbLine
 10
304.6333457996
 20
366.3929419689
 30
0.0
 11
302.6333566476
 21
366.3929419689
 31
0.0
  0
ARC
  5
299
330
1F
100
AcDbEntity
  8
0
  6
CONTINUOUS
 62
     7
100
AcDbCircle
 10
304.633352457
 20
365.4529348544
 30
0.0
 40
0.9400000000001683
100
AcDbArc
 50
356.3403346496
 51
90.0
  0
LINE
  5
29A
330
1F
100
AcDbEntity
  8
0
  6
CONTINUOUS
 62
     7
100
AcDbLine
 10
493.2333495189
 20
254.0929334336
 30
0.0
 11
505.733337598
 21
254.0929334336
 31
0.0
  0
ARC
  5
29B
330
1F
100
AcDbEntity
  8
0
  6
CONTINUOUS
 62
     7
100
AcDbCircle
 10
438.633352457
 20
365.4529348544
 30
0.0
 40
0.940000000000184
100
AcDbArc
 50
90.0
 51
183.6596653504
  0
LINE
  5
29C
330
1F
100
AcDbEntity
  8
0
  6
CONTINUOUS
 62
     7
100
AcDbLine
 10
440.6333531905
 20
366.3929419689
 30
0.0
 11
438.6333491374
 21
366.3929419689
 31
0.0
  0
ARC
  5
29D
330
1F
100
AcDbEntity
  8
0
  6
CONTINUOUS
 62
     7
100
AcDbCircle
 10
440.633352457
 20
365.4529348544
 30
0.0
 40
0.9400000000001683
100
AcDbArc
 50
356.3403346496
 51
90.0000000002
  0
LINE
  5
29E
330
1F
100
AcDbEntity
  8
0
  6
CONTINUOUS
 62
     7
100
AcDbLine
 10
461.6333510448
 20
365.3929399424
 30
0.0
 11
441.5714408923
 21
365.3929399424
 31
0.0
  0
CIRCLE
  5
29F
330
1F
100
AcDbEntity
  8
0
  6
CONTINUOUS
 62
     7
100
AcDbCircle
 10
522.633352457
 20
206.5129348544
 30
0.0
 40
1.439999999999998
  0
ARC
  5
2A0
330
1F
100
AcDbEntity
  8
0
  6
CONTINUOUS
 62
     7
100
AcDbCircle
 10
281.633352457
 20
355.4529348544
 30
0.0
 40
9.940000000000396
100
AcDbArc
 50
90.0
 51
180.0
  0
ARC
  5
2A1
330
1F
100
AcDbEntity
  8
0
  6
CONTINUOUS
 62
     7
100
AcDbCircle
 10
304.633352457
 20
225.6129348544
 30
0.0
 40
0.9400000000001584
100
AcDbArc
 50
270.0
 51
3.6596653508
  0
LINE
  5
2A2
330
1F
100
AcDbEntity
  8
0
  6
CONTINUOUS
 62
     7
100
AcDbLine
 10
441.5714408923
 20
225.6729340278
 30
0.0
 11
461.6333510448
 21
225.6729340278
 31
0.0
  0
LINE
  5
2A3
330
1F
100
AcDbEntity
  8
0
  6
CONTINUOUS
 62
     7
100
AcDbLine
 10
301.6952689458
 20
365.3929399424
 30
0.0
 11
281.6333587934
 21
365.3929399424
 31
0.0
  0
LINE
  5
2A4
330
1F
100
AcDbEntity
  8
0
  6
CONTINUOUS
 62
     7
100
AcDbLine
 10
438.6333491374
 20
224.6729357265
 30
0.0
 11
440.6333531905
 21
224.6729357265
 31
0.0
  0
ARC
  5
2A5
330
1F
100
AcDbEntity
  8
0
  6
CONTINUOUS
 62
     7
100
AcDbCircle
 10
438.633352457
 20
225.6129348544
 30
0.0
 40
0.9400000000005774
100
AcDbArc
 50
176.3403346493
 51
270.0
  0
LINE
  5
2A6
330
1F
100
AcDbEntity
  8
0
  6
CONTINUOUS
 62
     7
100
AcDbLine
 10
305.5714335014
 20
225.6729340278
 30
0.0
 11
437.6952614356
 21
225.6729340278
 31
0.0
  0
ARC
  5
2A7
330
1F
100
AcDbEntity
  8
0
  6
CONTINUOUS
 62
     7
100
AcDbCircle
 10
130.4538605327
 20
189.6129348544
 30
0.0
 40
19.93999999999997
100
AcDbArc
 50
90.0
 51
150.0994879959
  0
LINE
  5
2A8
330
1F
100
AcDbEntity
  8
0
  6
CONTINUOUS
 62
     7
100
AcDbLine
 10
302.6333566476
 20
224.6729357265
 30
0.0
 11
304.6333457996
 21
224.6729357265
 31
0.0
  0
LINE
  5
2A9
330
1F
100
AcDbEntity
  8
0
  6
CONTINUOUS
 62
     7
100
AcDbLine
 10
271.6933455039
 20
355.4529415541
 30
0.0
 11
271.6933455039
 21
235.6129342788
 31
0.0
  0
ARC
  5
2AA
330
1F
100
AcDbEntity
  8
0
  6
CONTINUOUS
 62
     7
100
AcDbCircle
 10
281.633352457
 20
235.6129348544
 30
0.0
 40
9.940000000000111
100
AcDbArc
 50
180.0
 51
270.0
  0
LINE
  5
2AB
330
1F
100
AcDbEntity
  8
0
  6
CONTINUOUS
 62
     7
100
AcDbLine
 10
437.6952614356
 20
365.3929399424
 30
0.0
 11
305.5714335014
 21
365.3929399424
 31
0.0
  0
CIRCLE
  5
2AC
330
1F
100
AcDbEntity
  8
0
  6
CONTINUOUS
 62
     7
100
AcDbCircle
 10
447.7536709513
 20
255.2343399898
 30
0.0
 40
2.438076211353348
  0
CIRCLE
  5
2AD
330
1F
100
AcDbEntity
  8
0
  6
CONTINUOUS
 62
     7
100
AcDbCircle
 10
417.7536709513
 20
255.2343399898
 30
0.0
 40
1.640000000000043
  0
CIRCLE
  5
2AE
330
1F
100
AcDbEntity
  8
0
  6
CONTINUOUS
 62
     7
100
AcDbCircle
 10
317.7536709513
 20
255.2343399898
 30
0.0
 40
1.339999999999918
  0
CIRCLE
  5
2AF
330
1F
100
AcDbEntity
  8
0
  6
CONTINUOUS
 62
     7
100
AcDbCircle
 10
287.7536709513
 20
255.2343399898
 30
0.0
 40
2.438076211353348
  0
ARC
  5
2B0
330
1F
100
AcDbEntity
  8
0
  6
CONTINUOUS
 62
     7
100
AcDbCircle
 10
420.9290974318
 20
260.7343399898
 30
0.0
 40
1.000000000000033
100
AcDbArc
 50
30.0
 51
90.0
  0
LINE
  5
2B1
330
1F
100
AcDbEntity
  8
0
  6
CONTINUOUS
 62
     7
100
AcDbLine
 10
422.0491613914
 20
260.7943432503
 30
0.0
 11
421.7951263953
 21
261.2343372874
 31
0.0
  0
ARC
  5
2B2
330
1F
100
AcDbEntity
  8
0
  6
CONTINUOUS
 62
     7
100
AcDbCircle
 10
424.6472331654
 20
262.2943399898
 30
0.0
 40
3.0
100
AcDbArc
 50
210.0
 51
270.0
  0
ARC
  5
2B3
330
1F
100
AcDbEntity
  8
0
  6
CONTINUOUS
 62
     7
100
AcDbCircle
 10
441.3386884883
 20
267.2943399898
 30
0.0
 40
8.000000000000057
100
AcDbArc
 50
270.0
 51
298.0095057167
  0
ARC
  5
2B4
330
1F
100
AcDbEntity
  8
0
  6
CONTINUOUS
 62
     7
100
AcDbCircle
 10
447.7536709513
 20
255.2343399898
 30
0.0
 40
5.660000000000037
100
AcDbArc
 50
241.9904942833
 51
118.0095057167
  0
ARC
  5
2B5
330
1F
100
AcDbEntity
  8
0
  6
CONTINUOUS
 62
     7
100
AcDbCircle
 10
441.3386884883
 20
243.1743399898
 30
0.0
 40
7.999999999999999
100
AcDbArc
 50
61.9904942833
 51
90.0
  0
ARC
  5
2B6
330
1F
100
AcDbEntity
  8
0
  6
CONTINUOUS
 62
     7
100
AcDbCircle
 10
424.6472331654
 20
248.1743399898
 30
0.0
 40
3.0
100
AcDbArc
 50
90.0
 51
150.0
  0
LINE
  5
2B7
330
1F
100
AcDbEntity
  8
0
  6
CONTINUOUS
 62
     7
100
AcDbLine
 10
421.7951263953
 20
249.2343390458
 30
0.0
 11
422.0491613914
 21
249.6743405335
 31
0.0
  0
ARC
  5
2B8
330
1F
100
AcDbEntity
  8
0
  6
CONTINUOUS
 62
     7
100
AcDbCircle
 10
420.9290974318
 20
249.7343399898
 30
0.0
 40
1.000000000000019
100
AcDbArc
 50
270.0
 51
330.0
  0
LINE
  5
2B9
330
1F
100
AcDbEntity
  8
0
  6
CONTINUOUS
 62
     7
100
AcDbLine
 10
414.5782556106
 20
248.7343417578
 30
0.0
 11
420.9291007091
 21
248.7343417578
 31
0.0
  0
ARC
  5
2BA
330
1F
100
AcDbEntity
  8
0
  6
CONTINUOUS
 62
     7
100
AcDbCircle
 10
414.5782444708
 20
249.7343399898
 30
0.0
 40
1.0
100
AcDbArc
 50
210.0
 51
270.0
  0
LINE
  5
2BB
330
1F
100
AcDbEntity
  8
0
  6
CONTINUOUS
 62
     7
100
AcDbLine
 10
413.4581949283
 20
249.6743405335
 30
0.0
 11
413.7122299243
 21
249.2343390458
 31
0.0
  0
ARC
  5
2BC
330
1F
100
AcDbEntity
  8
0
  6
CONTINUOUS
 62
     7
100
AcDbCircle
 10
410.8601087372
 20
248.1743399898
 30
0.0
 40
2.999999999999972
100
AcDbArc
 50
30.0
 51
90.0
  0
ARC
  5
2BD
330
1F
100
AcDbEntity
  8
0
  6
CONTINUOUS
 62
     7
100
AcDbCircle
 10
368.5678845137
 20
250.1743399898
 30
0.0
 40
1.000000000000028
100
AcDbArc
 50
90.0
 51
135.0
  0
ARC
  5
2BE
330
1F
100
AcDbEntity
  8
0
  6
CONTINUOUS
 62
     7
100
AcDbCircle
 10
326.3888547942
 20
241.1743399898
 30
0.0
 40
9.999999999999982
100
AcDbArc
 50
90.0
 51
121.5568608656
  0
ARC
  5
2BF
330
1F
100
AcDbEntity
  8
0
  6
CONTINUOUS
 62
     7
100
AcDbCircle
 10
317.7536709513
 20
255.2343399898
 30
0.0
 40
6.500000000000075
100
AcDbArc
 50
238.4431391344
 51
301.5568608656
  0
ARC
  5
2C0
330
1F
100
AcDbEntity
  8
0
  6
CONTINUOUS
 62
     7
100
AcDbCircle
 10
309.1184871084
 20
241.1743399898
 30
0.0
 40
9.999999999999952
100
AcDbArc
 50
58.4431391344
 51
90.0
  0
LINE
  5
2C1
330
1F
100
AcDbEntity
  8
0
  6
CONTINUOUS
 62
     7
100
AcDbLine
 10
294.1686477233
 20
251.1743398481
 30
0.0
 11
309.1184910108
 21
251.1743398481
 31
0.0
  0
ARC
  5
2C2
330
1F
100
AcDbEntity
  8
0
  6
CONTINUOUS
 62
     7
100
AcDbCircle
 10
294.1686534142
 20
243.1743399898
 30
0.0
 40
7.999999999999972
100
AcDbArc
 50
90.0
 51
118.0095057167
  0
ARC
  5
2C3
330
1F
100
AcDbEntity
  8
0
  6
CONTINUOUS
 62
     7
100
AcDbCircle
 10
287.7536709513
 20
255.2343399898
 30
0.0
 40
5.660000000000037
100
AcDbArc
 50
61.9904942833
 51
298.0095057167
  0
ARC
  5
2C4
330
1F
100
AcDbEntity
  8
0
  6
CONTINUOUS
 62
     7
100
AcDbCircle
 10
294.1686534142
 20
267.2943399898
 30
0.0
 40
8.000000000000057
100
AcDbArc
 50
241.9904942833
 51
270.0
  0
LINE
  5
2C5
330
1F
100
AcDbEntity
  8
0
  6
CONTINUOUS
 62
     7
100
AcDbLine
 10
309.1184910108
 20
259.2943402105
 30
0.0
 11
294.1686477233
 21
259.2943402105
 31
0.0
  0
ARC
  5
2C6
330
1F
100
AcDbEntity
  8
0
  6
CONTINUOUS
 62
     7
100
AcDbCircle
 10
309.1184871084
 20
269.2943399898
 30
0.0
 40
10.00000000000006
100
AcDbArc
 50
270.0
 51
301.5568608656
  0
ARC
  5
2C7
330
1F
100
AcDbEntity
  8
0
  6
CONTINUOUS
 62
     7
100
AcDbCircle
 10
317.7536709513
 20
255.2343399898
 30
0.0
 40
6.500000000000026
100
AcDbArc
 50
58.4431391344
 51
121.5568608656
  0
ARC
  5
2C8
330
1F
100
AcDbEntity
  8
0
  6
CONTINUOUS
 62
     7
100
AcDbCircle
 10
326.3888547942
 20
269.2943399898
 30
0.0
 40
10.00000000000006
100
AcDbArc
 50
238.4431391344
 51
270.0
  0
ARC
  5
2C9
330
1F
100
AcDbEntity
  8
0
  6
CONTINUOUS
 62
     7
100
AcDbCircle
 10
366.9394573889
 20
260.2943399898
 30
0.0
 40
1.0
100
AcDbArc
 50
270.0
 51
315.0
  0
LINE
  5
2CA
330
1F
100
AcDbEntity
  8
0
  6
CONTINUOUS
 62
     7
100
AcDbLine
 10
367.7536811401
 20
259.694339531
 30
0.0
 11
367.6465715934
 21
259.5872299843
 31
0.0
  0
LINE
  5
2CB
330
1F
100
AcDbEntity
  8
0
  6
CONTINUOUS
 62
     7
100
AcDbLine
 10
367.8607906867
 20
259.5872299843
 30
0.0
 11
367.7536811401
 21
259.694339531
 31
0.0
  0
ARC
  5
2CC
330
1F
100
AcDbEntity
  8
0
  6
CONTINUOUS
 62
     7
100
AcDbCircle
 10
368.5678845137
 20
260.2943399898
 30
0.0
 40
1.000000000000008
100
AcDbArc
 50
225.0
 51
270.0
  0
ARC
  5
2CD
330
1F
100
AcDbEntity
  8
0
  6
CONTINUOUS
 62
     7
100
AcDbCircle
 10
410.8601087372
 20
262.2943399898
 30
0.0
 40
3.0
100
AcDbArc
 50
270.0
 51
330.0
  0
LINE
  5
2CE
330
1F
100
AcDbEntity
  8
0
  6
CONTINUOUS
 62
     7
100
AcDbLine
 10
413.7122299243
 20
261.2343372874
 30
0.0
 11
413.4581949283
 21
260.7943432503
 31
0.0
  0
ARC
  5
2CF
330
1F
100
AcDbEntity
  8
0
  6
CONTINUOUS
 62
     7
100
AcDbCircle
 10
414.5782444708
 20
260.7343399898
 30
0.0
 40
1.0
100
AcDbArc
 50
90.0
 51
150.0
  0
LINE
  5
2D0
330
1F
100
AcDbEntity
  8
0
  6
CONTINUOUS
 62
     7
100
AcDbLine
 10
420.9291007091
 20
261.7343383007
 30
0.0
 11
414.5782556106
 21
261.7343383007
 31
0.0
  0
LINE
  5
2D1
330
1F
100
AcDbEntity
  8
0
  6
CONTINUOUS
 62
     7
100
AcDbLine
 10
441.3386847545
 20
259.2943402105
 30
0.0
 11
424.6472384502
 21
259.2943402105
 31
0.0
  0
LINE
  5
2D2
330
1F
100
AcDbEntity
  8
0
  6
CONTINUOUS
 62
     7
100
AcDbLine
 10
424.6472384502
 20
251.1743398481
 30
0.0
 11
441.3386847545
 21
251.1743398481
 31
0.0
  0
LINE
  5
2D3
330
1F
100
AcDbEntity
  8
0
  6
CONTINUOUS
 62
     7
100
AcDbLine
 10
410.8601178695
 20
259.2943402105
 30
0.0
 11
368.5678805877
 21
259.2943402105
 31
0.0
  0
LINE
  5
2D4
330
1F
100
AcDbEntity
  8
0
  6
CONTINUOUS
 62
     7
100
AcDbLine
 10
368.5678805877
 20
251.1743398481
 30
0.0
 11
410.8601178695
 21
251.1743398481
 31
0.0
  0
LINE
  5
2D5
330
1F
100
AcDbEntity
  8
0
  6
CONTINUOUS
 62
     7
100
AcDbLine
 10
366.9394518901
 20
259.2943402105
 30
0.0
 11
326.3888474275
 21
259.2943402105
 31
0.0
  0
LINE
  5
2D6
330
1F
100
AcDbEntity
  8
0
  6
CONTINUOUS
 62
     7
100
AcDbLine
 10
326.3888474275
 20
251.1743398481
 30
0.0
 11
366.9394518901
 21
251.1743398481
 31
0.0
  0
ARC
  5
2D7
330
1F
100
AcDbEntity
  8
0
  6
CONTINUOUS
 62
     7
100
AcDbCircle
 10
366.9394573889
 20
250.1743399898
 30
0.0
 40
0.999999999999988
100
AcDbArc
 50
45.0
 51
90.0
  0
LINE
  5
2D8
330
1F
100
AcDbEntity
  8
0
  6
CONTINUOUS
 62
     7
100
AcDbLine
 10
367.6465715934
 20
250.8814463489
 30
0.0
 11
367.7536811401
 21
250.7743405276
 31
0.0
  0
LINE
  5
2D9
330
1F
100
AcDbEntity
  8
0
  6
CONTINUOUS
 62
     7
100
AcDbLine
 10
367.7536811401
 20
250.7743405276
 30
0.0
 11
367.8607906867
 21
250.8814463489
 31
0.0
  0
CIRCLE
  5
2DA
330
1F
100
AcDbEntity
  8
0
  6
CONTINUOUS
 62
     7
100
AcDbCircle
 10
449.2511534433
 20
278.8945633639
 30
0.0
 40
2.438076211353291
  0
CIRCLE
  5
2DB
330
1F
100
AcDbEntity
  8
0
  6
CONTINUOUS
 62
     7
100
AcDbCircle
 10
419.2511534433
 20
278.8945633639
 30
0.0
 40
1.640000000000043
  0
CIRCLE
  5
2DC
330
1F
100
AcDbEntity
  8
0
  6
CONTINUOUS
 62
     7
100
AcDbCircle
 10
319.2511534433
 20
278.8945633639
 30
0.0
 40
1.339999999999975
  0
CIRCLE
  5
2DD
330
1F
100
AcDbEntity
  8
0
  6
CONTINUOUS
 62
     7
100
AcDbCircle
 10
289.2511534433
 20
278.8945633639
 30
0.0
 40
2.438076211353348
  0
ARC
  5
2DE
330
1F
100
AcDbEntity
  8
0
  6
CONTINUOUS
 62
     7
100
AcDbCircle
 10
442.8361709804
 20
290.9545633639
 30
0.0
 40
8.0
100
AcDbArc
 50
270.0
 51
298.0095057167
  0
ARC
  5
2DF
330
1F
100
AcDbEntity
  8
0
  6
CONTINUOUS
 62
     7
100
AcDbCircle
 10
449.2511534433
 20
278.8945633639
 30
0.0
 40
5.660000000000036
100
AcDbArc
 50
241.9904942833
 51
118.0095057167
  0
ARC
  5
2E0
330
1F
100
AcDbEntity
  8
0
  6
CONTINUOUS
 62
     7
100
AcDbCircle
 10
426.1447156574
 20
271.8345633639
 30
0.0
 40
3.0
100
AcDbArc
 50
90.0
 51
150.0
  0
LINE
  5
2E1
330
1F
100
AcDbEntity
  8
0
  6
CONTINUOUS
 62
     7
100
AcDbLine
 10
423.2926036884
 20
272.8945629769
 30
0.0
 11
423.5466386844
 21
273.3345644646
 31
0.0
  0
LINE
  5
2E2
330
1F
100
AcDbEntity
  8
0
  6
CONTINUOUS
 62
     7
100
AcDbLine
 10
416.0757329036
 20
272.3945619636
 30
0.0
 11
422.4265780021
 21
272.3945619636
 31
0.0
  0
LINE
  5
2E3
330
1F
100
AcDbEntity
  8
0
  6
CONTINUOUS
 62
     7
100
AcDbLine
 10
414.9556722213
 20
273.3345644646
 30
0.0
 11
415.2097072173
 21
272.8945629769
 31
0.0
  0
ARC
  5
2E4
330
1F
100
AcDbEntity
  8
0
  6
CONTINUOUS
 62
     7
100
AcDbCircle
 10
412.3575912292
 20
271.8345633639
 30
0.0
 40
3.0
100
AcDbArc
 50
30.0
 51
90.0
  0
ARC
  5
2E5
330
1F
100
AcDbEntity
  8
0
  6
CONTINUOUS
 62
     7
100
AcDbCircle
 10
370.0653670057
 20
273.8345633639
 30
0.0
 40
1.000000000000048
100
AcDbArc
 50
90.0
 51
135.0
  0
LINE
  5
2E6
330
1F
100
AcDbEntity
  8
0
  6
CONTINUOUS
 62
     7
100
AcDbLine
 10
369.2511584331
 20
274.4345607333
 30
0.0
 11
369.3582679797
 21
274.54167028
 31
0.0
  0
LINE
  5
2E7
330
1F
100
AcDbEntity
  8
0
  6
CONTINUOUS
 62
     7
100
AcDbLine
 10
369.1440488864
 20
274.54167028
 30
0.0
 11
369.2511584331
 21
274.4345607333
 31
0.0
  0
ARC
  5
2E8
330
1F
100
AcDbEntity
  8
0
  6
CONTINUOUS
 62
     7
100
AcDbCircle
 10
368.4369398809
 20
273.8345633639
 30
0.0
 40
1.000000000000048
100
AcDbArc
 50
45.0
 51
90.0
  0
ARC
  5
2E9
330
1F
100
AcDbEntity
  8
0
  6
CONTINUOUS
 62
     7
100
AcDbCircle
 10
327.8863372862
 20
264.8345633639
 30
0.0
 40
10.00000000000003
100
AcDbArc
 50
90.0
 51
121.5568608656
  0
ARC
  5
2EA
330
1F
100
AcDbEntity
  8
0
  6
CONTINUOUS
 62
     7
100
AcDbCircle
 10
319.2511534433
 20
278.8945633639
 30
0.0
 40
6.499999999999972
100
AcDbArc
 50
238.4431391344
 51
301.5568608656
  0
ARC
  5
2EB
330
1F
100
AcDbEntity
  8
0
  6
CONTINUOUS
 62
     7
100
AcDbCircle
 10
310.6159696005
 20
264.8345633639
 30
0.0
 40
10.00000000000003
100
AcDbArc
 50
58.4431391344
 51
90.0
  0
LINE
  5
2EC
330
1F
100
AcDbEntity
  8
0
  6
CONTINUOUS
 62
     7
100
AcDbLine
 10
295.6661399175
 20
274.8345600538
 30
0.0
 11
310.6159683038
 21
274.8345600538
 31
0.0
  0
ARC
  5
2ED
330
1F
100
AcDbEntity
  8
0
  6
CONTINUOUS
 62
     7
100
AcDbCircle
 10
295.6661359063
 20
266.8345633639
 30
0.0
 40
8.0
100
AcDbArc
 50
90.0
 51
118.0095057167
  0
ARC
  5
2EE
330
1F
100
AcDbEntity
  8
0
  6
CONTINUOUS
 62
     7
100
AcDbCircle
 10
289.2511534433
 20
278.8945633639
 30
0.0
 40
5.660000000000063
100
AcDbArc
 50
61.9904942833
 51
298.0095057167
  0
ARC
  5
2EF
330
1F
100
AcDbEntity
  8
0
  6
CONTINUOUS
 62
     7
100
AcDbCircle
 10
295.6661359063
 20
290.9545633639
 30
0.0
 40
8.0
100
AcDbArc
 50
241.9904942833
 51
270.0
  0
LINE
  5
2F0
330
1F
100
AcDbEntity
  8
0
  6
CONTINUOUS
 62
     7
100
AcDbLine
 10
310.6159683038
 20
282.9545604162
 30
0.0
 11
295.6661399175
 21
282.9545604162
 31
0.0
  0
ARC
  5
2F1
330
1F
100
AcDbEntity
  8
0
  6
CONTINUOUS
 62
     7
100
AcDbCircle
 10
310.6159696005
 20
292.9545633639
 30
0.0
 40
10.00000000000003
100
AcDbArc
 50
270.0
 51
301.5568608656
  0
ARC
  5
2F2
330
1F
100
AcDbEntity
  8
0
  6
CONTINUOUS
 62
     7
100
AcDbCircle
 10
319.2511534433
 20
278.8945633639
 30
0.0
 40
6.50000000000002
100
AcDbArc
 50
58.4431391344
 51
121.5568608656
  0
ARC
  5
2F3
330
1F
100
AcDbEntity
  8
0
  6
CONTINUOUS
 62
     7
100
AcDbCircle
 10
327.8863372862
 20
292.9545633639
 30
0.0
 40
10.00000000000003
100
AcDbArc
 50
238.4431391344
 51
270.0
  0
ARC
  5
2F4
330
1F
100
AcDbEntity
  8
0
  6
CONTINUOUS
 62
     7
100
AcDbCircle
 10
368.4369398809
 20
283.9545633639
 30
0.0
 40
1.000000000000048
100
AcDbArc
 50
270.0
 51
315.0
  0
LINE
  5
2F5
330
1F
100
AcDbEntity
  8
0
  6
CONTINUOUS
 62
     7
100
AcDbLine
 10
369.2511584331
 20
283.3545597368
 30
0.0
 11
369.1440488864
 21
283.2474576407
 31
0.0
  0
LINE
  5
2F6
330
1F
100
AcDbEntity
  8
0
  6
CONTINUOUS
 62
     7
100
AcDbLine
 10
369.3582679797
 20
283.2474576407
 30
0.0
 11
369.2511584331
 21
283.3545597368
 31
0.0
  0
ARC
  5
2F7
330
1F
100
AcDbEntity
  8
0
  6
CONTINUOUS
 62
     7
100
AcDbCircle
 10
370.0653670057
 20
283.9545633639
 30
0.0
 40
1.000000000000048
100
AcDbArc
 50
225.0
 51
270.0
  0
ARC
  5
2F8
330
1F
100
AcDbEntity
  8
0
  6
CONTINUOUS
 62
     7
100
AcDbCircle
 10
412.3575912292
 20
285.9545633639
 30
0.0
 40
3.0
100
AcDbArc
 50
270.0
 51
330.0
  0
LINE
  5
2F9
330
1F
100
AcDbEntity
  8
0
  6
CONTINUOUS
 62
     7
100
AcDbLine
 10
415.2097072173
 20
284.8945649438
 30
0.0
 11
414.9556722213
 21
284.4545634561
 31
0.0
  0
ARC
  5
2FA
330
1F
100
AcDbEntity
  8
0
  6
CONTINUOUS
 62
     7
100
AcDbCircle
 10
416.0757269628
 20
284.3945633639
 30
0.0
 40
1.000000000000033
100
AcDbArc
 50
90.0
 51
150.0
  0
ARC
  5
2FB
330
1F
100
AcDbEntity
  8
0
  6
CONTINUOUS
 62
     7
100
AcDbCircle
 10
426.1447156574
 20
285.9545633639
 30
0.0
 40
3.0
100
AcDbArc
 50
210.0
 51
270.0
  0
LINE
  5
2FC
330
1F
100
AcDbEntity
  8
0
  6
CONTINUOUS
 62
     7
100
AcDbLine
 10
423.5466386844
 20
284.4545634561
 30
0.0
 11
423.2926036884
 21
284.8945649438
 31
0.0
  0
ARC
  5
2FD
330
1F
100
AcDbEntity
  8
0
  6
CONTINUOUS
 62
     7
100
AcDbCircle
 10
442.8361709804
 20
266.8345633639
 30
0.0
 40
8.0
100
AcDbArc
 50
61.9904942833
 51
90.0
  0
LINE
  5
2FE
330
1F
100
AcDbEntity
  8
0
  6
CONTINUOUS
 62
     7
100
AcDbLine
 10
368.4369291831
 20
282.9545604162
 30
0.0
 11
327.8863396217
 21
282.9545604162
 31
0.0
  0
LINE
  5
2FF
330
1F
100
AcDbEntity
  8
0
  6
CONTINUOUS
 62
     7
100
AcDbLine
 10
327.8863396217
 20
274.8345600538
 30
0.0
 11
368.4369291831
 21
274.8345600538
 31
0.0
  0
ARC
  5
300
330
1F
100
AcDbEntity
  8
0
  6
CONTINUOUS
 62
     7
100
AcDbCircle
 10
422.4265799239
 20
273.3945633639
 30
0.0
 40
1.0
100
AcDbArc
 50
270.0
 51
330.0
  0
ARC
  5
301
330
1F
100
AcDbEntity
  8
0
  6
CONTINUOUS
 62
     7
100
AcDbCircle
 10
422.4265799239
 20
284.3945633639
 30
0.0
 40
1.0
100
AcDbArc
 50
30.0
 51
90.0
  0
LINE
  5
302
330
1F
100
AcDbEntity
  8
0
  6
CONTINUOUS
 62
     7
100
AcDbLine
 10
442.8361620475
 20
282.9545604162
 30
0.0
 11
426.1447157432
 21
282.9545604162
 31
0.0
  0
LINE
  5
303
330
1F
100
AcDbEntity
  8
0
  6
CONTINUOUS
 62
     7
100
AcDbLine
 10
426.1447157432
 20
274.8345600538
 30
0.0
 11
442.8361620475
 21
274.8345600538
 31
0.0
  0
LINE
  5
304
330
1F
100
AcDbEntity
  8
0
  6
CONTINUOUS
 62
     7
100
AcDbLine
 10
422.4265780021
 20
285.3945659571
 30
0.0
 11
416.0757329036
 21
285.3945659571
 31
0.0
  0
ARC
  5
305
330
1F
100
AcDbEntity
  8
0
  6
CONTINUOUS
 62
     7
100
AcDbCircle
 10
416.0757269628
 20
273.3945633639
 30
0.0
 40
1.000000000000004
100
AcDbArc
 50
210.0
 51
270.0
  0
LINE
  5
306
330
1F
100
AcDbEntity
  8
0
  6
CONTINUOUS
 62
     7
100
AcDbLine
 10
370.0653578807
 20
274.8345600538
 30
0.0
 11
412.3575951625
 21
274.8345600538
 31
0.0
  0
LINE
  5
307
330
1F
100
AcDbEntity
  8
0
  6
CONTINUOUS
 62
     7
100
AcDbLine
 10
412.3575951625
 20
282.9545604162
 30
0.0
 11
370.0653578807
 21
282.9545604162
 31
0.0
  0
CIRCLE
  5
308
330
1F
100
AcDbEntity
  8
0
  6
CONTINUOUS
 62
     7
100
AcDbCircle
 10
459.7335308875
 20
266.9147034276
 30
0.0
 40
2.438076211353291
  0
CIRCLE
  5
309
330
1F
100
AcDbEntity
  8
0
  6
CONTINUOUS
 62
     7
100
AcDbCircle
 10
429.7335308875
 20
266.9147034276
 30
0.0
 40
1.640000000000043
  0
CIRCLE
  5
30A
330
1F
100
AcDbEntity
  8
0
  6
CONTINUOUS
 62
     7
100
AcDbCircle
 10
329.7335308875
 20
266.9147034276
 30
0.0
 40
1.340000000000032
  0
CIRCLE
  5
30B
330
1F
100
AcDbEntity
  8
0
  6
CONTINUOUS
 62
     7
100
AcDbCircle
 10
299.7335308875
 20
266.9147034276
 30
0.0
 40
2.438076211353348
  0
ARC
  5
30C
330
1F
100
AcDbEntity
  8
0
  6
CONTINUOUS
 62
     7
100
AcDbCircle
 10
432.9089573681
 20
272.4147034276
 30
0.0
 40
1.000000000000033
100
AcDbArc
 50
30.0
 51
90.0
  0
LINE
  5
30D
330
1F
100
AcDbEntity
  8
0
  6
CONTINUOUS
 62
     7
100
AcDbLine
 10
434.0290095378
 20
272.4747004085
 30
0.0
 11
433.7749745418
 21
272.9147018962
 31
0.0
  0
ARC
  5
30E
330
1F
100
AcDbEntity
  8
0
  6
CONTINUOUS
 62
     7
100
AcDbCircle
 10
436.6270931016
 20
273.9747034276
 30
0.0
 40
3.0
100
AcDbArc
 50
210.0
 51
270.0
  0
LINE
  5
30F
330
1F
100
AcDbEntity
  8
0
  6
CONTINUOUS
 62
     7
100
AcDbLine
 10
453.3185627033
 20
270.9747048192
 30
0.0
 11
436.6270865966
 21
270.9747048192
 31
0.0
  0
ARC
  5
310
330
1F
100
AcDbEntity
  8
0
  6
CONTINUOUS
 62
     7
100
AcDbCircle
 10
453.3185484246
 20
278.9747034276
 30
0.0
 40
8.000000000000025
100
AcDbArc
 50
270.0
 51
298.0095057167
  0
ARC
  5
311
330
1F
100
AcDbEntity
  8
0
  6
CONTINUOUS
 62
     7
100
AcDbCircle
 10
459.7335308875
 20
266.9147034276
 30
0.0
 40
5.660000000000036
100
AcDbArc
 50
241.9904942833
 51
118.0095057167
  0
ARC
  5
312
330
1F
100
AcDbEntity
  8
0
  6
CONTINUOUS
 62
     7
100
AcDbCircle
 10
453.3185484246
 20
254.8547034276
 30
0.0
 40
8.000000000000028
100
AcDbArc
 50
61.9904942833
 51
90.0
  0
LINE
  5
313
330
1F
100
AcDbEntity
  8
0
  6
CONTINUOUS
 62
     7
100
AcDbLine
 10
436.6270865966
 20
262.8547044568
 30
0.0
 11
453.3185627033
 21
262.8547044568
 31
0.0
  0
ARC
  5
314
330
1F
100
AcDbEntity
  8
0
  6
CONTINUOUS
 62
     7
100
AcDbCircle
 10
436.6270931016
 20
259.8547034276
 30
0.0
 40
3.000000000000057
100
AcDbArc
 50
90.0
 51
150.0
  0
LINE
  5
315
330
1F
100
AcDbEntity
  8
0
  6
CONTINUOUS
 62
     7
100
AcDbLine
 10
433.7749745418
 20
260.9146999293
 30
0.0
 11
434.0290095378
 21
261.354701417
 31
0.0
  0
ARC
  5
316
330
1F
100
AcDbEntity
  8
0
  6
CONTINUOUS
 62
     7
100
AcDbCircle
 10
432.9089573681
 20
261.4147034276
 30
0.0
 40
1.000000000000033
100
AcDbArc
 50
270.0
 51
330.0
  0
LINE
  5
317
330
1F
100
AcDbEntity
  8
0
  6
CONTINUOUS
 62
     7
100
AcDbLine
 10
426.558103757
 20
260.4147063666
 30
0.0
 11
432.9089488555
 21
260.4147063666
 31
0.0
  0
ARC
  5
318
330
1F
100
AcDbEntity
  8
0
  6
CONTINUOUS
 62
     7
100
AcDbCircle
 10
426.558104407
 20
261.4147034276
 30
0.0
 40
1.000000000000033
100
AcDbArc
 50
210.0
 51
270.0
  0
LINE
  5
319
330
1F
100
AcDbEntity
  8
0
  6
CONTINUOUS
 62
     7
100
AcDbLine
 10
425.4380430747
 20
261.354701417
 30
0.0
 11
425.6920780708
 21
260.9146999293
 31
0.0
  0
ARC
  5
31A
330
1F
100
AcDbEntity
  8
0
  6
CONTINUOUS
 62
     7
100
AcDbCircle
 10
422.8399686734
 20
259.8547034276
 30
0.0
 40
3.000000000000057
100
AcDbArc
 50
30.0
 51
90.0
  0
LINE
  5
31B
330
1F
100
AcDbEntity
  8
0
  6
CONTINUOUS
 62
     7
100
AcDbLine
 10
380.5477585365
 20
262.8547044568
 30
0.0
 11
422.8399660159
 21
262.8547044568
 31
0.0
  0
ARC
  5
31C
330
1F
100
AcDbEntity
  8
0
  6
CONTINUOUS
 62
     7
100
AcDbCircle
 10
380.5477444499
 20
261.8547034276
 30
0.0
 40
1.000000000000057
100
AcDbArc
 50
90.0
 51
135.0
  0
LINE
  5
31D
330
1F
100
AcDbEntity
  8
0
  6
CONTINUOUS
 62
     7
100
AcDbLine
 10
379.7335292865
 20
262.4547051363
 30
0.0
 11
379.8406388332
 21
262.5618072324
 31
0.0
  0
LINE
  5
31E
330
1F
100
AcDbEntity
  8
0
  6
CONTINUOUS
 62
     7
100
AcDbLine
 10
379.6264197398
 20
262.5618072324
 30
0.0
 11
379.7335292865
 21
262.4547051363
 31
0.0
  0
ARC
  5
31F
330
1F
100
AcDbEntity
  8
0
  6
CONTINUOUS
 62
     7
100
AcDbCircle
 10
378.9193173251
 20
261.8547034276
 30
0.0
 40
1.000000000000057
100
AcDbArc
 50
45.0
 51
90.0
  0
LINE
  5
320
330
1F
100
AcDbEntity
  8
0
  6
CONTINUOUS
 62
     7
100
AcDbLine
 10
338.3687104751
 20
262.8547044568
 30
0.0
 11
378.9193298389
 21
262.8547044568
 31
0.0
  0
ARC
  5
321
330
1F
100
AcDbEntity
  8
0
  6
CONTINUOUS
 62
     7
100
AcDbCircle
 10
338.3687147304
 20
252.8547034276
 30
0.0
 40
10.00000000000003
100
AcDbArc
 50
90.0
 51
121.5568608656
  0
ARC
  5
322
330
1F
100
AcDbEntity
  8
0
  6
CONTINUOUS
 62
     7
100
AcDbCircle
 10
329.7335308875
 20
266.9147034276
 30
0.0
 40
6.50000000000002
100
AcDbArc
 50
238.4431391344
 51
301.5568608656
  0
ARC
  5
323
330
1F
100
AcDbEntity
  8
0
  6
CONTINUOUS
 62
     7
100
AcDbCircle
 10
321.0983470447
 20
252.8547034276
 30
0.0
 40
10.00000000000004
100
AcDbArc
 50
58.4431391344
 51
90.0
  0
LINE
  5
324
330
1F
100
AcDbEntity
  8
0
  6
CONTINUOUS
 62
     7
100
AcDbLine
 10
306.1485107709
 20
262.8547044568
 30
0.0
 11
321.0983540584
 21
262.8547044568
 31
0.0
  0
ARC
  5
325
330
1F
100
AcDbEntity
  8
0
  6
CONTINUOUS
 62
     7
100
AcDbCircle
 10
306.1485133505
 20
254.8547034276
 30
0.0
 40
8.000000000000028
100
AcDbArc
 50
90.0
 51
118.0095057167
  0
ARC
  5
326
330
1F
100
AcDbEntity
  8
0
  6
CONTINUOUS
 62
     7
100
AcDbCircle
 10
299.7335308875
 20
266.9147034276
 30
0.0
 40
5.660000000000063
100
AcDbArc
 50
61.9904942833
 51
298.0095057167
  0
ARC
  5
327
330
1F
100
AcDbEntity
  8
0
  6
CONTINUOUS
 62
     7
100
AcDbCircle
 10
306.1485133505
 20
278.9747034276
 30
0.0
 40
8.0
100
AcDbArc
 50
241.9904942833
 51
270.0
  0
LINE
  5
328
330
1F
100
AcDbEntity
  8
0
  6
CONTINUOUS
 62
     7
100
AcDbLine
 10
321.0983540584
 20
270.9747048192
 30
0.0
 11
306.1485107709
 21
270.9747048192
 31
0.0
  0
ARC
  5
329
330
1F
100
AcDbEntity
  8
0
  6
CONTINUOUS
 62
     7
100
AcDbCircle
 10
321.0983470447
 20
280.9747034276
 30
0.0
 40
10.00000000000006
100
AcDbArc
 50
270.0
 51
301.5568608656
  0
ARC
  5
32A
330
1F
100
AcDbEntity
  8
0
  6
CONTINUOUS
 62
     7
100
AcDbCircle
 10
329.7335308875
 20
266.9147034276
 30
0.0
 40
6.499999999999972
100
AcDbArc
 50
58.4431391344
 51
121.5568608656
  0
ARC
  5
32B
330
1F
100
AcDbEntity
  8
0
  6
CONTINUOUS
 62
     7
100
AcDbCircle
 10
338.3687147304
 20
280.9747034276
 30
0.0
 40
10.00000000000003
100
AcDbArc
 50
238.4431391344
 51
270.0
  0
LINE
  5
32C
330
1F
100
AcDbEntity
  8
0
  6
CONTINUOUS
 62
     7
100
AcDbLine
 10
378.9193298389
 20
270.9747048192
 30
0.0
 11
338.3687104751
 21
270.9747048192
 31
0.0
  0
ARC
  5
32D
330
1F
100
AcDbEntity
  8
0
  6
CONTINUOUS
 62
     7
100
AcDbCircle
 10
378.9193173251
 20
271.9747034276
 30
0.0
 40
1.000000000000048
100
AcDbArc
 50
270.0
 51
315.0
  0
LINE
  5
32E
330
1F
100
AcDbEntity
  8
0
  6
CONTINUOUS
 62
     7
100
AcDbLine
 10
379.7335292865
 20
271.3747041397
 30
0.0
 11
379.6264197398
 21
271.2675945931
 31
0.0
  0
LINE
  5
32F
330
1F
100
AcDbEntity
  8
0
  6
CONTINUOUS
 62
     7
100
AcDbLine
 10
379.8406388332
 20
271.2675945931
 30
0.0
 11
379.7335292865
 21
271.3747041397
 31
0.0
  0
ARC
  5
330
330
1F
100
AcDbEntity
  8
0
  6
CONTINUOUS
 62
     7
100
AcDbCircle
 10
380.5477444499
 20
271.9747034276
 30
0.0
 40
1.000000000000048
100
AcDbArc
 50
225.0
 51
270.0
  0
LINE
  5
331
330
1F
100
AcDbEntity
  8
0
  6
CONTINUOUS
 62
     7
100
AcDbLine
 10
422.8399660159
 20
270.9747048192
 30
0.0
 11
380.5477585365
 21
270.9747048192
 31
0.0
  0
LINE
  5
332
330
1F
100
AcDbEntity
  8
0
  6
CONTINUOUS
 62
     7
100
AcDbLine
 10
425.6920780708
 20
272.9147018962
 30
0.0
 11
425.4380430747
 21
272.4747004085
 31
0.0
  0
ARC
  5
333
330
1F
100
AcDbEntity
  8
0
  6
CONTINUOUS
 62
     7
100
AcDbCircle
 10
426.558104407
 20
272.4147034276
 30
0.0
 40
1.000000000000033
100
AcDbArc
 50
90.0
 51
150.0
  0
LINE
  5
334
330
1F
100
AcDbEntity
  8
0
  6
CONTINUOUS
 62
     7
100
AcDbLine
 10
432.9089488555
 20
273.4147029095
 30
0.0
 11
426.558103757
 21
273.4147029095
 31
0.0
  0
ARC
  5
335
330
1F
100
AcDbEntity
  8
0
  6
CONTINUOUS
 62
     7
100
AcDbCircle
 10
422.8399686734
 20
273.9747034276
 30
0.0
 40
3.0
100
AcDbArc
 50
270.0
 51
330.0
  0
LINE
  5
336
330
1F
100
AcDbEntity
  8
0
  6
CONTINUOUS
 62
     7
100
AcDbLine
 10
452.3978199531
 20
295.5804484062
 30
0.0
 11
435.7063736488
 21
295.5804484062
 31
0.0
  0
ARC
  5
337
330
1F
100
AcDbEntity
  8
0
  6
CONTINUOUS
 62
     7
100
AcDbCircle
 10
458.8128102849
 20
291.5204474699
 30
0.0
 40
5.659999999999986
100
AcDbArc
 50
241.9904942833
 51
118.0095057167
  0
LINE
  5
338
330
1F
100
AcDbEntity
  8
0
  6
CONTINUOUS
 62
     7
100
AcDbLine
 10
305.2277978231
 20
287.4604480438
 30
0.0
 11
320.1776262094
 21
287.4604480438
 31
0.0
  0
LINE
  5
339
330
1F
100
AcDbEntity
  8
0
  6
CONTINUOUS
 62
     7
100
AcDbLine
 10
377.9985870887
 20
295.5804484062
 30
0.0
 11
337.4479975272
 21
295.5804484062
 31
0.0
  0
LINE
  5
33A
330
1F
100
AcDbEntity
  8
0
  6
CONTINUOUS
 62
     7
100
AcDbLine
 10
421.9192530681
 20
295.5804484062
 30
0.0
 11
379.6270157863
 21
295.5804484062
 31
0.0
  0
LINE
  5
33B
330
1F
100
AcDbEntity
  8
0
  6
CONTINUOUS
 62
     7
100
AcDbLine
 10
379.6270157863
 20
287.4604480438
 30
0.0
 11
421.9192530681
 21
287.4604480438
 31
0.0
  0
ARC
  5
33C
330
1F
100
AcDbEntity
  8
0
  6
CONTINUOUS
 62
     7
100
AcDbCircle
 10
298.8128102849
 20
291.5204474699
 30
0.0
 40
5.660000000000013
100
AcDbArc
 50
61.9904942833
 51
298.0095057167
  0
LINE
  5
33D
330
1F
100
AcDbEntity
  8
0
  6
CONTINUOUS
 62
     7
100
AcDbLine
 10
435.7063736488
 20
287.4604480438
 30
0.0
 11
452.3978199531
 21
287.4604480438
 31
0.0
  0
LINE
  5
33E
330
1F
100
AcDbEntity
  8
0
  6
CONTINUOUS
 62
     7
100
AcDbLine
 10
337.4479975272
 20
287.4604480438
 30
0.0
 11
377.9985870887
 21
287.4604480438
 31
0.0
  0
ARC
  5
33F
330
1F
100
AcDbEntity
  8
0
  6
CONTINUOUS
 62
     7
100
AcDbCircle
 10
425.6373838044
 20
286.0204474699
 30
0.0
 40
1.000000000000004
100
AcDbArc
 50
210.0
 51
270.0
  0
ARC
  5
340
330
1F
100
AcDbEntity
  8
0
  6
CONTINUOUS
 62
     7
100
AcDbCircle
 10
431.9882367655
 20
286.0204474699
 30
0.0
 40
1.000000000000004
100
AcDbArc
 50
270.0
 51
330.0
  0
ARC
  5
341
330
1F
100
AcDbEntity
  8
0
  6
CONTINUOUS
 62
     7
100
AcDbCircle
 10
431.9882367655
 20
297.0204474699
 30
0.0
 40
1.000000000000033
100
AcDbArc
 50
30.0
 51
90.0
  0
ARC
  5
342
330
1F
100
AcDbEntity
  8
0
  6
CONTINUOUS
 62
     7
100
AcDbCircle
 10
425.6373838044
 20
297.0204474699
 30
0.0
 40
1.000000000000033
100
AcDbArc
 50
90.0
 51
150.0
  0
ARC
  5
343
330
1F
100
AcDbEntity
  8
0
  6
CONTINUOUS
 62
     7
100
AcDbCircle
 10
320.1776264421
 20
277.4604474699
 30
0.0
 40
10.00000000000003
100
AcDbArc
 50
58.4431391344
 51
90.0
  0
ARC
  5
344
330
1F
100
AcDbEntity
  8
0
  6
CONTINUOUS
 62
     7
100
AcDbCircle
 10
328.8128102849
 20
291.5204474699
 30
0.0
 40
6.499999999999972
100
AcDbArc
 50
238.4431391344
 51
301.5568608656
  0
ARC
  5
345
330
1F
100
AcDbEntity
  8
0
  6
CONTINUOUS
 62
     7
100
AcDbCircle
 10
337.4479941278
 20
277.4604474699
 30
0.0
 40
10.00000000000003
100
AcDbArc
 50
90.0
 51
121.5568608656
  0
ARC
  5
346
330
1F
100
AcDbEntity
  8
0
  6
CONTINUOUS
 62
     7
100
AcDbCircle
 10
320.1776264421
 20
305.5804474699
 30
0.0
 40
10.00000000000003
100
AcDbArc
 50
270.0
 51
301.5568608656
  0
ARC
  5
347
330
1F
100
AcDbEntity
  8
0
  6
CONTINUOUS
 62
     7
100
AcDbCircle
 10
337.4479941278
 20
305.5804474699
 30
0.0
 40
10.00000000000003
100
AcDbArc
 50
238.4431391344
 51
270.0
  0
ARC
  5
348
330
1F
100
AcDbEntity
  8
0
  6
CONTINUOUS
 62
     7
100
AcDbCircle
 10
328.8128102849
 20
291.5204474699
 30
0.0
 40
6.499999999999972
100
AcDbArc
 50
58.4431391344
 51
121.5568608656
  0
LINE
  5
349
330
1F
100
AcDbEntity
  8
0
  6
CONTINUOUS
 62
     7
100
AcDbLine
 10
424.5173301269
 20
285.960445004
 30
0.0
 11
424.7713651229
 21
285.5204509669
 31
0.0
  0
LINE
  5
34A
330
1F
100
AcDbEntity
  8
0
  6
CONTINUOUS
 62
     7
100
AcDbLine
 10
425.6373908092
 20
285.0204499536
 30
0.0
 11
431.9882359077
 21
285.0204499536
 31
0.0
  0
LINE
  5
34B
330
1F
100
AcDbEntity
  8
0
  6
CONTINUOUS
 62
     7
100
AcDbLine
 10
432.8542615939
 20
285.5204509669
 30
0.0
 11
433.10829659
 21
285.960445004
 31
0.0
  0
ARC
  5
34C
330
1F
100
AcDbEntity
  8
0
  6
CONTINUOUS
 62
     7
100
AcDbCircle
 10
435.706372499
 20
284.4604474699
 30
0.0
 40
3.0
100
AcDbArc
 50
90.0
 51
150.0
  0
ARC
  5
34D
330
1F
100
AcDbEntity
  8
0
  6
CONTINUOUS
 62
     7
100
AcDbCircle
 10
421.9192480708
 20
284.4604474699
 30
0.0
 40
3.0
100
AcDbArc
 50
30.0
 51
90.0
  0
ARC
  5
34E
330
1F
100
AcDbEntity
  8
0
  6
CONTINUOUS
 62
     7
100
AcDbCircle
 10
421.9192480708
 20
298.5804474699
 30
0.0
 40
3.0
100
AcDbArc
 50
270.0
 51
330.0
  0
ARC
  5
34F
330
1F
100
AcDbEntity
  8
0
  6
CONTINUOUS
 62
     7
100
AcDbCircle
 10
435.706372499
 20
298.5804474699
 30
0.0
 40
3.0
100
AcDbArc
 50
210.0
 51
270.0
  0
LINE
  5
350
330
1F
100
AcDbEntity
  8
0
  6
CONTINUOUS
 62
     7
100
AcDbLine
 10
433.10829659
 20
297.0804439955
 30
0.0
 11
432.8542615939
 21
297.5204454832
 31
0.0
  0
LINE
  5
351
330
1F
100
AcDbEntity
  8
0
  6
CONTINUOUS
 62
     7
100
AcDbLine
 10
431.9882359077
 20
298.0204464965
 30
0.0
 11
425.6373908092
 21
298.0204464965
 31
0.0
  0
LINE
  5
352
330
1F
100
AcDbEntity
  8
0
  6
CONTINUOUS
 62
     7
100
AcDbLine
 10
424.7713651229
 20
297.5204454832
 30
0.0
 11
424.5173301269
 21
297.0804439955
 31
0.0
  0
CIRCLE
  5
353
330
1F
100
AcDbEntity
  8
0
  6
CONTINUOUS
 62
     7
100
AcDbCircle
 10
328.8128102849
 20
291.5204474699
 30
0.0
 40
1.339999999999975
  0
CIRCLE
  5
354
330
1F
100
AcDbEntity
  8
0
  6
CONTINUOUS
 62
     7
100
AcDbCircle
 10
428.8128102849
 20
291.5204474699
 30
0.0
 40
1.640000000000043
  0
ARC
  5
355
330
1F
100
AcDbEntity
  8
0
  6
CONTINUOUS
 62
     7
100
AcDbCircle
 10
377.9985967225
 20
286.4604474699
 30
0.0
 40
1.000000000000008
100
AcDbArc
 50
45.0
 51
90.0
  0
LINE
  5
356
330
1F
100
AcDbEntity
  8
0
  6
CONTINUOUS
 62
     7
100
AcDbLine
 10
378.705706792
 20
287.1675508194
 30
0.0
 11
378.8128163387
 21
287.0604487233
 31
0.0
  0
LINE
  5
357
330
1F
100
AcDbEntity
  8
0
  6
CONTINUOUS
 62
     7
100
AcDbLine
 10
378.8128163387
 20
287.0604487233
 30
0.0
 11
378.9199258853
 21
287.1675508194
 31
0.0
  0
ARC
  5
358
330
1F
100
AcDbEntity
  8
0
  6
CONTINUOUS
 62
     7
100
AcDbCircle
 10
379.6270238473
 20
286.4604474699
 30
0.0
 40
1.000000000000008
100
AcDbArc
 50
90.0
 51
135.0
  0
ARC
  5
359
330
1F
100
AcDbEntity
  8
0
  6
CONTINUOUS
 62
     7
100
AcDbCircle
 10
377.9985967225
 20
296.5804474699
 30
0.0
 40
1.000000000000008
100
AcDbArc
 50
270.0
 51
315.0
  0
ARC
  5
35A
330
1F
100
AcDbEntity
  8
0
  6
CONTINUOUS
 62
     7
100
AcDbCircle
 10
379.6270238473
 20
296.5804474699
 30
0.0
 40
1.000000000000008
100
AcDbArc
 50
225.0
 51
270.0
  0
LINE
  5
35B
330
1F
100
AcDbEntity
  8
0
  6
CONTINUOUS
 62
     7
100
AcDbLine
 10
378.9199258853
 20
295.8733381801
 30
0.0
 11
378.8128163387
 21
295.9804477268
 31
0.0
  0
LINE
  5
35C
330
1F
100
AcDbEntity
  8
0
  6
CONTINUOUS
 62
     7
100
AcDbLine
 10
378.8128163387
 20
295.9804477268
 30
0.0
 11
378.705706792
 21
295.8733381801
 31
0.0
  0
ARC
  5
35D
330
1F
100
AcDbEntity
  8
0
  6
CONTINUOUS
 62
     7
100
AcDbCircle
 10
452.397827822
 20
303.5804474699
 30
0.0
 40
8.0
100
AcDbArc
 50
270.0
 51
298.0095057167
  0
ARC
  5
35E
330
1F
100
AcDbEntity
  8
0
  6
CONTINUOUS
 62
     7
100
AcDbCircle
 10
305.2277927479
 20
279.4604474699
 30
0.0
 40
8.0
100
AcDbArc
 50
90.0
 51
118.0095057167
  0
ARC
  5
35F
330
1F
100
AcDbEntity
  8
0
  6
CONTINUOUS
 62
     7
100
AcDbCircle
 10
305.2277927479
 20
303.5804474699
 30
0.0
 40
8.0
100
AcDbArc
 50
241.9904942833
 51
270.0
  0
CIRCLE
  5
360
330
1F
100
AcDbEntity
  8
0
  6
CONTINUOUS
 62
     7
100
AcDbCircle
 10
298.8128102849
 20
291.5204474699
 30
0.0
 40
2.438076211353348
  0
LINE
  5
361
330
1F
100
AcDbEntity
  8
0
  6
CONTINUOUS
 62
     7
100
AcDbLine
 10
320.1776262094
 20
295.5804484062
 30
0.0
 11
305.2277978231
 21
295.5804484062
 31
0.0
  0
ARC
  5
362
330
1F
100
AcDbEntity
  8
0
  6
CONTINUOUS
 62
     7
100
AcDbCircle
 10
452.397827822
 20
279.4604474699
 30
0.0
 40
8.0
100
AcDbArc
 50
61.9904942833
 51
90.0
  0
CIRCLE
  5
363
330
1F
100
AcDbEntity
  8
0
  6
CONTINUOUS
 62
     7
100
AcDbCircle
 10
458.8128102849
 20
291.5204474699
 30
0.0
 40
2.438076211353291
  0
CIRCLE
  5
364
330
1F
100
AcDbEntity
  8
0
  6
CONTINUOUS
 62
     7
100
AcDbCircle
 10
411.6160770209
 20
321.2951989446
 30
0.0
 40
1.5
  0
CIRCLE
  5
365
330
1F
100
AcDbEntity
  8
0
  6
CONTINUOUS
 62
     7
100
AcDbCircle
 10
411.6160770209
 20
321.2951989446
 30
0.0
 40
3.0
  0
CIRCLE
  5
366
330
1F
100
AcDbEntity
  8
0
  6
CONTINUOUS
 62
     7
100
AcDbCircle
 10
397.4075312491
 20
330.7123588141
 30
0.0
 40
1.5
  0
CIRCLE
  5
367
330
1F
100
AcDbEntity
  8
0
  6
CONTINUOUS
 62
     7
100
AcDbCircle
 10
397.4075312491
 20
330.7123588141
 30
0.0
 40
3.0
  0
CIRCLE
  5
368
330
1F
100
AcDbEntity
  8
0
  6
CONTINUOUS
 62
     7
100
AcDbCircle
 10
393.0393050329
 20
321.5995571767
 30
0.0
 40
1.5
  0
CIRCLE
  5
369
330
1F
100
AcDbEntity
  8
0
  6
CONTINUOUS
 62
     7
100
AcDbCircle
 10
393.0393050329
 20
321.5995571767
 30
0.0
 40
3.0
  0
CIRCLE
  5
36A
330
1F
100
AcDbEntity
  8
0
  6
CONTINUOUS
 62
     7
100
AcDbCircle
 10
407.1860652966
 20
330.411021648
 30
0.0
 40
1.5
  0
CIRCLE
  5
36B
330
1F
100
AcDbEntity
  8
0
  6
CONTINUOUS
 62
     7
100
AcDbCircle
 10
407.1860652966
 20
330.411021648
 30
0.0
 40
3.0
  0
CIRCLE
  5
36C
330
1F
100
AcDbEntity
  8
0
  6
CONTINUOUS
 62
     7
100
AcDbCircle
 10
402.2562401536
 20
321.4542942015
 30
0.0
 40
1.5
  0
CIRCLE
  5
36D
330
1F
100
AcDbEntity
  8
0
  6
CONTINUOUS
 62
     7
100
AcDbCircle
 10
402.2562401536
 20
321.4542942015
 30
0.0
 40
3.0
  0
CIRCLE
  5
36E
330
1F
100
AcDbEntity
  8
0
  6
CONTINUOUS
 62
     7
100
AcDbCircle
 10
386.5722730404
 20
341.9975117028
 30
0.0
 40
1.374999999999972
  0
CIRCLE
  5
36F
330
1F
100
AcDbEntity
  8
0
  6
CONTINUOUS
 62
     7
100
AcDbCircle
 10
407.6090470553
 20
354.3851724606
 30
0.0
 40
1.374999999999972
  0
ARC
  5
370
330
1F
100
AcDbEntity
  8
0
  6
CONTINUOUS
 62
     7
100
AcDbCircle
 10
386.3968932804
 20
329.9742080075
 30
0.0
 40
4.000000000000052
100
AcDbArc
 50
178.9138230922
 51
265.5
  0
LINE
  5
371
330
1F
100
AcDbEntity
  8
0
  6
CONTINUOUS
 62
     7
100
AcDbLine
 10
382.6343383361
 20
342.5362872057
 30
0.0
 11
382.3976184894
 21
330.0500379973
 31
0.0
  0
ARC
  5
372
330
1F
100
AcDbEntity
  8
0
  6
CONTINUOUS
 62
     7
100
AcDbCircle
 10
400.6311125371
 20
342.1950768965
 30
0.0
 40
18.00000000000002
100
AcDbArc
 50
85.5
 51
178.9138230922
  0
LINE
  5
373
330
1F
100
AcDbEntity
  8
0
  6
CONTINUOUS
 62
     7
100
AcDbLine
 10
408.0248739291
 20
359.6688376837
 30
0.0
 11
402.043369012
 21
360.1395951681
 31
0.0
  0
ARC
  5
374
330
1F
100
AcDbEntity
  8
0
  6
CONTINUOUS
 62
     7
100
AcDbCircle
 10
407.6718143319
 20
355.1827063275
 30
0.0
 40
4.500000000000021
100
AcDbArc
 50
355.5
 51
85.5
  0
LINE
  5
375
330
1F
100
AcDbEntity
  8
0
  6
CONTINUOUS
 62
     7
100
AcDbLine
 10
411.3890494872
 20
345.0598435574
 30
0.0
 11
412.1579494048
 21
354.8296408825
 31
0.0
  0
ARC
  5
376
330
1F
100
AcDbEntity
  8
0
  6
CONTINUOUS
 62
     7
100
AcDbCircle
 10
406.9029151937
 20
345.412916457
 30
0.0
 40
4.500000000000023
100
AcDbArc
 50
233.2008142343
 51
355.5
  0
ARC
  5
377
330
1F
100
AcDbEntity
  8
0
  6
CONTINUOUS
 62
     7
100
AcDbCircle
 10
399.1076085117
 20
334.9924062147
 30
0.0
 40
8.513602113738967
100
AcDbArc
 50
53.2008142343
 51
149.1978344361
  0
ARC
  5
378
330
1F
100
AcDbEntity
  8
0
  6
CONTINUOUS
 62
     7
100
AcDbCircle
 10
395.2306926611
 20
337.3037105064
 30
0.0
 40
4.000000000000028
100
AcDbArc
 50
149.1978344361
 51
175.5
  0
LINE
  5
379
330
1F
100
AcDbEntity
  8
0
  6
CONTINUOUS
 62
     7
100
AcDbLine
 10
390.6153406669
 20
329.6422081166
 30
0.0
 11
391.243037181
 21
337.6175480061
 31
0.0
  0
ARC
  5
37A
330
1F
100
AcDbEntity
  8
0
  6
CONTINUOUS
 62
     7
100
AcDbCircle
 10
386.6276812254
 20
329.9560446023
 30
0.0
 40
4.000000000000033
100
AcDbArc
 50
265.5
 51
355.5
  0
LINE
  5
37B
330
1F
100
AcDbEntity
  8
0
  6
CONTINUOUS
 62
     7
100
AcDbLine
 10
386.0830630828
 20
325.9865360432
 30
0.0
 11
386.3138522674
 21
325.9683715277
 31
0.0
  0
CIRCLE
  5
37C
330
1F
100
AcDbEntity
  8
0
  6
CONTINUOUS
 62
     7
100
AcDbCircle
 10
406.9029151937
 20
345.412916457
 30
0.0
 40
1.374999999999968
  0
ARC
  5
37D
330
1F
100
AcDbEntity
  8
0
  6
CONTINUOUS
 62
     7
100
AcDbCircle
 10
463.6698558611
 20
354.6286029156
 30
0.0
 40
1.600000000000054
100
AcDbArc
 50
269.5
 51
89.5
  0
LINE
  5
37E
330
1F
100
AcDbEntity
  8
0
  6
CONTINUOUS
 62
     7
100
AcDbLine
 10
463.6838104297
 20
356.2285469942
 30
0.0
 11
460.6839384605
 21
356.2547283345
 31
0.0
  0
ARC
  5
37F
330
1F
100
AcDbEntity
  8
0
  6
CONTINUOUS
 62
     7
100
AcDbCircle
 10
460.6699700919
 20
354.6547825221
 30
0.0
 40
1.600000000000054
100
AcDbArc
 50
89.5
 51
269.5
  0
LINE
  5
380
330
1F
100
AcDbEntity
  8
0
  6
CONTINUOUS
 62
     7
100
AcDbLine
 10
424.3528213073
 20
318.4703307324
 30
0.0
 11
462.3513783981
 21
318.1387202912
 31
0.0
  0
LINE
  5
381
330
1F
100
AcDbEntity
  8
0
  6
CONTINUOUS
 62
     7
100
AcDbLine
 10
462.7178873588
 20
360.1371215754
 30
0.0
 11
424.719330268
 21
360.4687320166
 31
0.0
  0
ARC
  5
382
330
1F
100
AcDbEntity
  8
0
  6
CONTINUOUS
 62
     7
100
AcDbCircle
 10
429.6711504769
 20
354.9253051225
 30
0.0
 40
1.599999999999997
100
AcDbArc
 50
89.5
 51
269.5
  0
LINE
  5
383
330
1F
100
AcDbEntity
  8
0
  6
CONTINUOUS
 62
     7
100
AcDbLine
 10
432.4144687225
 20
325.5002515488
 30
0.0
 11
429.4145967532
 21
325.5264179878
 31
0.0
  0
LINE
  5
384
330
1F
100
AcDbEntity
  8
0
  6
CONTINUOUS
 62
     7
100
AcDbLine
 10
424.719330268
 20
360.4687320166
 30
0.0
 11
417.1678986121
 21
353.0479388409
 31
0.0
  0
LINE
  5
385
330
1F
100
AcDbEntity
  8
0
  6
CONTINUOUS
 62
     7
100
AcDbLine
 10
429.3866719772
 20
322.3265426331
 30
0.0
 11
432.3865439464
 21
322.3003612929
 31
0.0
  0
ARC
  5
386
330
1F
100
AcDbEntity
  8
0
  6
CONTINUOUS
 62
     7
100
AcDbCircle
 10
429.4006278765
 20
323.9264855076
 30
0.0
 40
1.600000000000054
100
AcDbArc
 50
89.5
 51
269.5
  0
LINE
  5
387
330
1F
100
AcDbEntity
  8
0
  6
CONTINUOUS
 62
     7
100
AcDbLine
 10
463.4132947494
 20
325.2297209673
 30
0.0
 11
460.4134227802
 21
325.2559023075
 31
0.0
  0
LINE
  5
388
330
1F
100
AcDbEntity
  8
0
  6
CONTINUOUS
 62
     7
100
AcDbLine
 10
460.3854980041
 20
322.0560269528
 30
0.0
 11
463.3853699733
 21
322.0298456125
 31
0.0
  0
ARC
  5
389
330
1F
100
AcDbEntity
  8
0
  6
CONTINUOUS
 62
     7
100
AcDbCircle
 10
460.3994474915
 20
323.6559629071
 30
0.0
 40
1.599999999999998
100
AcDbArc
 50
89.5
 51
269.5
  0
LINE
  5
38A
330
1F
100
AcDbEntity
  8
0
  6
CONTINUOUS
 62
     7
100
AcDbLine
 10
417.1678986121
 20
353.0479388409
 30
0.0
 11
417.074796157
 21
342.3799144202
 31
0.0
  0
LINE
  5
38B
330
1F
100
AcDbEntity
  8
0
  6
CONTINUOUS
 62
     7
100
AcDbLine
 10
466.6828181316
 20
356.1023639612
 30
0.0
 11
462.7178873588
 21
360.1371215754
 31
0.0
  0
LINE
  5
38C
330
1F
100
AcDbEntity
  8
0
  6
CONTINUOUS
 62
     7
100
AcDbLine
 10
460.6560136844
 20
353.0548380785
 30
0.0
 11
463.6558856536
 21
353.0286567383
 31
0.0
  0
ARC
  5
38D
330
1F
100
AcDbEntity
  8
0
  6
CONTINUOUS
 62
     7
100
AcDbCircle
 10
432.6710362461
 20
354.8991255161
 30
0.0
 40
1.599999999999998
100
AcDbArc
 50
269.5
 51
89.5
  0
LINE
  5
38E
330
1F
100
AcDbEntity
  8
0
  6
CONTINUOUS
 62
     7
100
AcDbLine
 10
447.1329714824
 20
350.4727499657
 30
0.0
 11
444.1330697108
 21
350.4989313059
 31
0.0
  0
ARC
  5
38F
330
1F
100
AcDbEntity
  8
0
  6
CONTINUOUS
 62
     7
100
AcDbCircle
 10
447.0352228303
 20
339.2731809438
 30
0.0
 40
11.20000000000004
100
AcDbArc
 50
269.5
 51
89.5
  0
LINE
  5
390
330
1F
100
AcDbEntity
  8
0
  6
CONTINUOUS
 62
     7
100
AcDbLine
 10
443.9375962783
 20
328.0997889214
 30
0.0
 11
446.9374980499
 21
328.0736075812
 31
0.0
  0
ARC
  5
391
330
1F
100
AcDbEntity
  8
0
  6
CONTINUOUS
 62
     7
100
AcDbCircle
 10
444.0353370611
 20
339.2993605503
 30
0.0
 40
11.2000000000001
100
AcDbArc
 50
89.5
 51
269.5
  0
LINE
  5
392
330
1F
100
AcDbEntity
  8
0
  6
CONTINUOUS
 62
     7
100
AcDbLine
 10
466.3861360122
 20
322.1036659651
 30
0.0
 11
466.6828181316
 21
356.1023639612
 31
0.0
  0
LINE
  5
393
330
1F
100
AcDbEntity
  8
0
  6
CONTINUOUS
 62
     7
100
AcDbLine
 10
432.6849844028
 20
356.4990626745
 30
0.0
 11
429.6851124336
 21
356.5252440148
 31
0.0
  0
LINE
  5
394
330
1F
100
AcDbEntity
  8
0
  6
CONTINUOUS
 62
     7
100
AcDbLine
 10
416.9320430328
 20
326.0217772894
 30
0.0
 11
424.3528213073
 21
318.4703307324
 31
0.0
  0
LINE
  5
395
330
1F
100
AcDbEntity
  8
0
  6
CONTINUOUS
 62
     7
100
AcDbLine
 10
417.0251156856
 20
336.6898017102
 30
0.0
 11
416.9320430328
 21
326.0217772894
 31
0.0
  0
ARC
  5
396
330
1F
100
AcDbEntity
  8
0
  6
CONTINUOUS
 62
     7
100
AcDbCircle
 10
420.5362318691
 20
339.5044341345
 30
0.0
 40
4.49999999999997
100
AcDbArc
 50
218.7169833554
 51
140.2830166446
  0
LINE
  5
397
330
1F
100
AcDbEntity
  8
0
  6
CONTINUOUS
 62
     7
100
AcDbLine
 10
462.3513783981
 20
318.1387202912
 30
0.0
 11
466.3861360122
 21
322.1036659651
 31
0.0
  0
ARC
  5
398
330
1F
100
AcDbEntity
  8
0
  6
CONTINUOUS
 62
     7
100
AcDbCircle
 10
463.3993332606
 20
323.6297833006
 30
0.0
 40
1.600000000000054
100
AcDbArc
 50
269.5
 51
89.5
  0
LINE
  5
399
330
1F
100
AcDbEntity
  8
0
  6
CONTINUOUS
 62
     7
100
AcDbLine
 10
429.6571876575
 20
353.32536866
 30
0.0
 11
432.6570596267
 21
353.2991873198
 31
0.0
  0
ARC
  5
39A
330
1F
100
AcDbEntity
  8
0
  6
CONTINUOUS
 62
     7
100
AcDbCircle
 10
432.4005136457
 20
323.9003059011
 30
0.0
 40
1.600000000000054
100
AcDbArc
 50
269.5
 51
89.5
  0
ENDSEC
  0
SECTION
  2
OBJECTS
  0
DICTIONARY
  5
C
330
0
100
AcDbDictionary
  3
ACAD_GROUP
350
D
  3
ACAD_MLINESTYLE
350
17
  3
ACAD_SCALELIST
350
47
  0
DICTIONARY
  5
D
102
{ACAD_REACTORS
330
C
102
}
330
C
100
AcDbDictionary
  0
DICTIONARY
  5
17
102
{ACAD_REACTORS
330
C
102
}
330
C
100
AcDbDictionary
  3
STANDARD
350
18
  0
DICTIONARY
  5
47
102
{ACAD_REACTORS
330
C
102
}
330
C
100
AcDbDictionary
  0
MLINESTYLE
  5
18
102
{ACAD_REACTORS
330
17
102
}
330
17
100
AcDbMlineStyle
  2
Standard
 70
     0
  3

 62
   256
 51
90.0
 52
90.0
 71
     2
 49
0.5
 62
   256
  6
BYLAYER
 49
-0.5
 62
   256
  6
BYLAYER
  0
ENDSEC
  0
EOF
