999
dxflib 3.3.4.0
  0
SECTION
  2
HEADER
  9
$ACADVER
  1
AC1015
  9
$HANDSEED
  5
FFFF
  9
$ANGBASE
 50
0.0
  9
$ANGDIR
 70
0
  9
$ATTMODE
 70
1
  9
$AUNITS
 70
0
  9
$AUPREC
 70
0
  9
$CECOLOR
 62
256
  9
$CELTSCALE
 40
1.0
  9
$CHAMFERA
 40
0.0
  9
$CHAMFERB
 40
0.0
  9
$CHAMFERC
 40
0.0
  9
$CHAMFERD
 40
0.0
  9
$CMLJUST
 70
0
  9
$CMLSCALE
 40
20.0
  9
$DIMADEC
 70
0
  9
$DIMALT
 70
0
  9
$DIMALTD
 70
3
  9
$DIMALTF
 40
0.0393700787
  9
$DIMALTTD
 70
3
  9
$DIMALTTZ
 70
0
  9
$DIMALTU
 70
2
  9
$DIMALTZ
 70
0
  9
$DIMAPOST
  1

  9
$DIMASZ
 40
3.302
  9
$DIMAUNIT
 70
0
  9
$DIMAZIN
 70
0
  9
$DIMBLK
  1

  9
$DIMBLK1
  1

  9
$DIMBLK2
  1

  9
$DIMCEN
 40
2.5
  9
$DIMCLRD
 70
0
  9
$DIMCLRE
 70
0
  9
$DIMCLRT
 70
0
  9
$DIMDEC
 70
2
  9
$DIMDLE
 40
0.0
  9
$DIMDLI
 40
3.75
  9
$DIMEXE
 40
1.0
  9
$DIMEXO
 40
1.0
  9
$DIMGAP
 40
1.524
  9
$DIMJUST
 70
0
  9
$DIMLFAC
 40
1.0
  9
$DIMLIM
 70
0
  9
$DIMLUNIT
 70
2
  9
$DIMPOST
  1

  9
$DIMRND
 40
0.0
  9
$DIMSAH
 70
0
  9
$DIMSCALE
 40
1.0
  9
$DIMSD1
 70
0
  9
$DIMSD2
 70
0
  9
$DIMSE1
 70
0
  9
$DIMSE2
 70
0
  9
$DIMSOXD
 70
0
  9
$DIMTAD
 70
1
  9
$DIMTDEC
 70
2
  9
$DIMTFAC
 40
1.0
  9
$DIMTIH
 70
1
  9
$DIMTIX
 70
0
  9
$DIMTM
 40
0.0
  9
$DIMTOFL
 70
1
  9
$DIMTOH
 70
1
  9
$DIMTOL
 70
0
  9
$DIMTOLJ
 70
0
  9
$DIMTP
 40
0.0
  9
$DIMTSZ
 40
0.0
  9
$DIMTVP
 40
0.0
  9
$DIMTXSTY
  7
STANDARD
  9
$DIMTXT
 40
3.5
  9
$DIMTZIN
 70
0
  9
$DIMUPT
 70
0
  9
$DIMZIN
 70
0
  9
$DISPSILH
 70
0
  9
$DWGCODEPAGE
  3
ANSI_1252
  9
$ELEVATION
 40
0.0
  9
$EXTMAX
 10
550.0
 20
400.0
 30
0.0
  9
$EXTMIN
 10
0.0
 20
0.0
 30
0.0
  9
$FILLETRAD
 40
10.0
  9
$FILLMODE
 70
1
  9
$INSBASE
 10
0.0
 20
0.0
 30
0.0
  9
$INSUNITS
 70
0
  9
$LIMCHECK
 70
0
  9
$LIMMAX
 10
550.0
 20
400.0
  9
$LIMMIN
 10
0.0
 20
0.0
  9
$LTSCALE
 40
1.0
  9
$LUNITS
 70
2
  9
$LUPREC
 70
2
  9
$MAXACTVP
 70
64
  9
$MIRRTEXT
 70
1
  9
$ORTHOMODE
 70
0
  9
$PDMODE
 70
0
  9
$PDSIZE
 40
-1.0
  9
$PELEVATION
 40
0.0
  9
$PEXTMAX
 10
-100000000000000000000.0
 20
-100000000000000000000.0
 30
-100000000000000000000.0
  9
$PEXTMIN
 10
100000000000000000000.0
 20
100000000000000000000.0
 30
100000000000000000000.0
  9
$PINSBASE
 10
0.0
 20
0.0
 30
0.0
  9
$PLIMCHECK
 70
0
  9
$PLIMMAX
 10
420.0
 20
297.0
  9
$PLIMMIN
 10
0.0
 20
0.0
  9
$PLINEGEN
 70
0
  9
$PLINEWID
 40
0.0
  9
$PROXYGRAPHICS
 70
1
  9
$PSLTSCALE
 70
1
  9
$PUCSNAME
  2

  9
$PUCSORG
 10
0.0
 20
0.0
 30
0.0
  9
$PUCSXDIR
 10
1.0
 20
0.0
 30
0.0
  9
$PUCSYDIR
 10
0.0
 20
1.0
 30
0.0
  9
$QTEXTMODE
 70
0
  9
$REGENMODE
 70
1
  9
$SHADEDGE
 70
3
  9
$SHADEDIF
 70
70
  9
$SKETCHINC
 40
1.0
  9
$SKPOLY
 70
0
  9
$SPLFRAME
 70
0
  9
$SPLINESEGS
 70
8
  9
$SPLINETYPE
 70
6
  9
$SURFTAB1
 70
6
  9
$SURFTAB2
 70
6
  9
$SURFTYPE
 70
6
  9
$SURFU
 70
6
  9
$SURFV
 70
6
  9
$TEXTSIZE
 40
3.5
  9
$TEXTSTYLE
  7
STANDARD
  9
$THICKNESS
 40
0.0
  9
$TILEMODE
 70
1
  9
$TRACEWID
 40
1.0
  9
$TREEDEPTH
 70
3020
  9
$UCSNAME
  2

  9
$UCSORG
 10
0.0
 20
0.0
 30
0.0
  9
$UCSXDIR
 10
1.0
 20
0.0
 30
0.0
  9
$UCSYDIR
 10
0.0
 20
1.0
 30
0.0
  9
$UNITMODE
 70
0
  9
$USERI1
 70
0
  9
$USERI2
 70
0
  9
$USERI3
 70
0
  9
$USERI4
 70
0
  9
$USERI5
 70
0
  9
$USERR1
 40
0.0
  9
$USERR2
 40
0.0
  9
$USERR3
 40
0.0
  9
$USERR4
 40
0.0
  9
$USERR5
 40
0.0
  9
$USRTIMER
 70
1
  9
$VISRETAIN
 70
1
  0
ENDSEC
  0
SECTION
  2
TABLES
  0
TABLE
  2
VPORT
  5
8
100
AcDbSymbolTable
 70
1
  0
VPORT
  5
30
100
AcDbSymbolTableRecord
100
AcDbViewportTableRecord
  2
*Active
 70
0
 10
0.0
 20
0.0
 11
1.0
 21
1.0
 12
286.3055555555554861
 22
148.5
 13
0.0
 23
0.0
 14
10.0
 24
10.0
 15
10.0
 25
10.0
 16
0.0
 26
0.0
 36
1.0
 17
0.0
 27
0.0
 37
0.0
 40
297.0
 41
1.92798353909465
 42
50.0
 43
0.0
 44
0.0
 50
0.0
 51
0.0
 71
0
 72
100
 73
1
 74
3
 75
1
 76
1
 77
0
 78
0
281
0
 65
1
110
0.0
120
0.0
130
0.0
111
1.0
121
0.0
131
0.0
112
0.0
122
1.0
132
0.0
 79
0
146
0.0
  0
ENDTAB
  0
TABLE
  2
LTYPE
  5
5
100
AcDbSymbolTable
 70
21
  0
LTYPE
  5
16
100
AcDbSymbolTableRecord
100
AcDbLinetypeTableRecord
  2
CONTINUOUS
 70
0
  3
Solid line
 72
65
 73
0
 40
0.0
  0
LTYPE
  5
31
100
AcDbSymbolTableRecord
100
AcDbLinetypeTableRecord
  2
CENTER2
 70
0
  3
Center (.5x) ___ _ ___ _ ___ _ ___ _ ___ _ ___
 72
65
 73
4
 40
28.5749999999999993
 49
19.0500000000000007
 74
0
 49
-3.1749999999999998
 74
0
 49
3.1749999999999998
 74
0
 49
-3.1749999999999998
 74
0
  0
LTYPE
  5
32
100
AcDbSymbolTableRecord
100
AcDbLinetypeTableRecord
  2
DIVIDEX2
 70
0
  3
Divide (2x) ________  .  .  ________  .  .  _
 72
65
 73
6
 40
63.5
 49
25.3999999999999986
 74
0
 49
-12.6999999999999993
 74
0
 49
0.0
 74
0
 49
-12.6999999999999993
 74
0
 49
0.0
 74
0
 49
-12.6999999999999993
 74
0
  0
LTYPE
  5
33
100
AcDbSymbolTableRecord
100
AcDbLinetypeTableRecord
  2
DOT2
 70
0
  3
Dot (.5x) .....................................
 72
65
 73
2
 40
3.1749999999999998
 49
0.0
 74
0
 49
-3.1749999999999998
 74
0
  0
LTYPE
  5
34
100
AcDbSymbolTableRecord
100
AcDbLinetypeTableRecord
  2
DASHDOT2
 70
0
  3
Dash dot (.5x) _._._._._._._._._._._._._._._.
 72
65
 73
4
 40
12.6999999999999993
 49
6.3499999999999996
 74
0
 49
-3.1749999999999998
 74
0
 49
0.0
 74
0
 49
-3.1749999999999998
 74
0
  0
LTYPE
  5
35
100
AcDbSymbolTableRecord
100
AcDbLinetypeTableRecord
  2
DIVIDE
 70
0
  3
Divide ____ . . ____ . . ____ . . ____ . . ____
 72
65
 73
6
 40
31.75
 49
12.6999999999999993
 74
0
 49
-6.3499999999999996
 74
0
 49
0.0
 74
0
 49
-6.3499999999999996
 74
0
 49
0.0
 74
0
 49
-6.3499999999999996
 74
0
  0
LTYPE
  5
36
100
AcDbSymbolTableRecord
100
AcDbLinetypeTableRecord
  2
DASHDOT
 70
0
  3
Dash dot __ . __ . __ . __ . __ . __ . __ . __
 72
65
 73
4
 40
25.3999999999999986
 49
12.6999999999999993
 74
0
 49
-6.3499999999999996
 74
0
 49
0.0
 74
0
 49
-6.3499999999999996
 74
0
  0
LTYPE
  5
37
100
AcDbSymbolTableRecord
100
AcDbLinetypeTableRecord
  2
BORDER
 70
0
  3
Border __ __ . __ __ . __ __ . __ __ . __ __ .
 72
65
 73
6
 40
44.4500000000000028
 49
12.6999999999999993
 74
0
 49
-6.3499999999999996
 74
0
 49
12.6999999999999993
 74
0
 49
-6.3499999999999996
 74
0
 49
0.0
 74
0
 49
-6.3499999999999996
 74
0
  0
LTYPE
  5
38
100
AcDbSymbolTableRecord
100
AcDbLinetypeTableRecord
  2
DASHDOTX2
 70
0
  3
Dash dot (2x) ____  .  ____  .  ____  .  ___
 72
65
 73
4
 40
50.7999999999999972
 49
25.3999999999999986
 74
0
 49
-12.6999999999999993
 74
0
 49
0.0
 74
0
 49
-12.6999999999999993
 74
0
  0
LTYPE
  5
39
100
AcDbSymbolTableRecord
100
AcDbLinetypeTableRecord
  2
CENTERX2
 70
0
  3
Center (2x) ________  __  ________  __  _____
 72
65
 73
4
 40
101.5999999999999943
 49
63.5
 74
0
 49
-12.6999999999999993
 74
0
 49
12.6999999999999993
 74
0
 49
-12.6999999999999993
 74
0
  0
LTYPE
  5
3A
100
AcDbSymbolTableRecord
100
AcDbLinetypeTableRecord
  2
BORDER2
 70
0
  3
Border (.5x) __.__.__.__.__.__.__.__.__.__.__.
 72
65
 73
6
 40
22.2250000000000014
 49
6.3499999999999996
 74
0
 49
-3.1749999999999998
 74
0
 49
6.3499999999999996
 74
0
 49
-3.1749999999999998
 74
0
 49
0.0
 74
0
 49
-3.1749999999999998
 74
0
  0
LTYPE
  5
3B
100
AcDbSymbolTableRecord
100
AcDbLinetypeTableRecord
  2
BORDERX2
 70
0
  3
Border (2x) ____  ____  .  ____  ____  .  ___
 72
65
 73
6
 40
88.9000000000000057
 49
25.3999999999999986
 74
0
 49
-12.6999999999999993
 74
0
 49
25.3999999999999986
 74
0
 49
-12.6999999999999993
 74
0
 49
0.0
 74
0
 49
-12.6999999999999993
 74
0
  0
LTYPE
  5
14
100
AcDbSymbolTableRecord
100
AcDbLinetypeTableRecord
  2
BYBLOCK
 70
0
  3

 72
65
 73
0
 40
0.0
  0
LTYPE
  5
15
100
AcDbSymbolTableRecord
100
AcDbLinetypeTableRecord
  2
BYLAYER
 70
0
  3

 72
65
 73
0
 40
0.0
  0
LTYPE
  5
3C
100
AcDbSymbolTableRecord
100
AcDbLinetypeTableRecord
  2
DASHED2
 70
0
  3
Dashed (.5x) _ _ _ _ _ _ _ _ _ _ _ _ _ _ _ _ _
 72
65
 73
2
 40
9.5250000000000004
 49
6.3499999999999996
 74
0
 49
-3.1749999999999998
 74
0
  0
LTYPE
  5
3D
100
AcDbSymbolTableRecord
100
AcDbLinetypeTableRecord
  2
CENTER
 70
0
  3
Center ____ _ ____ _ ____ _ ____ _ ____ _ ____
 72
65
 73
4
 40
50.7999999999999972
 49
31.75
 74
0
 49
-6.3499999999999996
 74
0
 49
6.3499999999999996
 74
0
 49
-6.3499999999999996
 74
0
  0
LTYPE
  5
3E
100
AcDbSymbolTableRecord
100
AcDbLinetypeTableRecord
  2
DIVIDE2
 70
0
  3
Divide (.5x) __..__..__..__..__..__..__..__.._
 72
65
 73
6
 40
15.875
 49
6.3499999999999996
 74
0
 49
-3.1749999999999998
 74
0
 49
0.0
 74
0
 49
-3.1749999999999998
 74
0
 49
0.0
 74
0
 49
-3.1749999999999998
 74
0
  0
LTYPE
  5
3F
100
AcDbSymbolTableRecord
100
AcDbLinetypeTableRecord
  2
DASHED
 70
0
  3
Dashed __ __ __ __ __ __ __ __ __ __ __ __ __ _
 72
65
 73
2
 40
19.0500000000000007
 49
12.6999999999999993
 74
0
 49
-6.3499999999999996
 74
0
  0
LTYPE
  5
40
100
AcDbSymbolTableRecord
100
AcDbLinetypeTableRecord
  2
DOTX2
 70
0
  3
Dot (2x) .  .  .  .  .  .  .  .  .  .  .  .  .
 72
65
 73
2
 40
12.6999999999999993
 49
0.0
 74
0
 49
-12.6999999999999993
 74
0
  0
LTYPE
  5
41
100
AcDbSymbolTableRecord
100
AcDbLinetypeTableRecord
  2
DASHEDX2
 70
0
  3
Dashed (2x) ____  ____  ____  ____  ____  ___
 72
65
 73
2
 40
38.1000000000000014
 49
25.3999999999999986
 74
0
 49
-12.6999999999999993
 74
0
  0
LTYPE
  5
42
100
AcDbSymbolTableRecord
100
AcDbLinetypeTableRecord
  2
DOT
 70
0
  3
Dot . . . . . . . . . . . . . . . . . . . . . .
 72
65
 73
2
 40
6.3499999999999996
 49
0.0
 74
0
 49
-6.3499999999999996
 74
0
  0
ENDTAB
  0
TABLE
  2
LAYER
  5
2
100
AcDbSymbolTable
 70
7
  0
LAYER
  5
43
100
AcDbSymbolTableRecord
100
AcDbLayerTableRecord
  2
FORMAT
 70
0
 62
7
420
16777215
  6
CONTINUOUS
370
5
390
F
  0
LAYER
  5
44
100
AcDbSymbolTableRecord
100
AcDbLayerTableRecord
  2
BLUE_ITEMS
 70
0
 62
5
420
255
  6
CONTINUOUS
370
5
390
F
  0
LAYER
  5
45
100
AcDbSymbolTableRecord
100
AcDbLayerTableRecord
  2
DIMENSIONS
 70
0
 62
179
420
1250086
  6
CONTINUOUS
370
5
390
F
  0
LAYER
  5
46
100
AcDbSymbolTableRecord
100
AcDbLayerTableRecord
  2
SLD-0
 70
0
 62
7
420
16777215
  6
CONTINUOUS
370
5
390
F
  0
LAYER
  5
47
100
AcDbSymbolTableRecord
100
AcDbLayerTableRecord
  2
RED_ITEMS
 70
0
 62
1
420
16711680
  6
CONTINUOUS
370
5
390
F
  0
LAYER
  5
10
100
AcDbSymbolTableRecord
100
AcDbLayerTableRecord
  2
0
 70
0
 62
7
420
16777215
  6
CONTINUOUS
370
5
390
F
  0
LAYER
  5
48
100
AcDbSymbolTableRecord
100
AcDbLayerTableRecord
  2
LAYER_1
 70
0
 62
179
420
1250086
  6
CONTINUOUS
370
5
390
F
  0
ENDTAB
  0
TABLE
  2
STYLE
  5
3
100
AcDbSymbolTable
 70
4
  0
STYLE
  5
49
100
AcDbSymbolTableRecord
100
AcDbTextStyleTableRecord
  2
Standard
 70
0
 40
0.0
 41
1.0
 50
0.0
 71
0
 42
2.5
  3

  4

1001
ACAD
1000
txt
1071
0
  0
STYLE
  5
4A
100
AcDbSymbolTableRecord
100
AcDbTextStyleTableRecord
  2
textstyle0
 70
0
 40
0.0
 41
1.0
 50
0.0
 71
0
 42
6.3499999999999996
  3

  4

1001
ACAD
1000
TXT
1071
0
  0
STYLE
  5
4B
100
AcDbSymbolTableRecord
100
AcDbTextStyleTableRecord
  2
textstyle1
 70
0
 40
0.0
 41
1.0
 50
0.0
 71
0
 42
6.3499999999999996
  3

  4

1001
ACAD
1000
TXT
1071
0
  0
STYLE
  5
4C
100
AcDbSymbolTableRecord
100
AcDbTextStyleTableRecord
  2
textstyle2
 70
0
 40
0.0
 41
1.0
 50
0.0
 71
0
 42
6.3499999999999996
  3

  4

1001
ACAD
1000
TXT
1071
0
  0
ENDTAB
  0
TABLE
  2
VIEW
  5
6
100
AcDbSymbolTable
 70
0
  0
ENDTAB
  0
TABLE
  2
UCS
  5
7
100
AcDbSymbolTable
 70
0
  0
ENDTAB
  0
TABLE
  2
APPID
  5
9
100
AcDbSymbolTable
 70
1
  0
APPID
  5
12
100
AcDbSymbolTableRecord
100
AcDbRegAppTableRecord
  2
ACAD
 70
0
  0
APPID
  5
4D
100
AcDbSymbolTableRecord
100
AcDbRegAppTableRecord
  2
QCAD
 70
0
  0
ENDTAB
  0
TABLE
  2
DIMSTYLE
  5
A
100
AcDbSymbolTable
 70
1
100
AcDbDimStyleTable
 71
0
  0
DIMSTYLE
105
27
100
AcDbSymbolTableRecord
100
AcDbDimStyleTableRecord
  2
Standard
 41
3.302
 42
1.0
 43
3.75
 44
1.0
 70
0
 73
0
 74
0
 77
1
 78
8
140
3.5
141
2.5
143
0.03937007874016
147
1.524
171
3
172
1
271
2
272
2
274
3
278
44
283
0
284
8
340
49
  0
ENDTAB
  0
TABLE
  2
BLOCK_RECORD
  5
1
100
AcDbSymbolTable
 70
1
  0
BLOCK_RECORD
  5
1F
100
AcDbSymbolTableRecord
100
AcDbBlockTableRecord
  2
*Model_Space
340
22
  0
BLOCK_RECORD
  5
1B
100
AcDbSymbolTableRecord
100
AcDbBlockTableRecord
  2
*Paper_Space
340
1E
  0
BLOCK_RECORD
  5
23
100
AcDbSymbolTableRecord
100
AcDbBlockTableRecord
  2
*Paper_Space0
340
26
  0
BLOCK_RECORD
  5
4E
100
AcDbSymbolTableRecord
100
AcDbBlockTableRecord
  2
SW_NOTE_0
340
0
  0
ENDTAB
  0
ENDSEC
  0
SECTION
  2
BLOCKS
  0
BLOCK
  5
20
100
AcDbEntity
  8
0
100
AcDbBlockBegin
  2
*Model_Space
 70
0
 10
0.0
 20
0.0
 30
0.0
  3
*Model_Space
  1

  0
ENDBLK
  5
21
100
AcDbEntity
  8
0
100
AcDbBlockEnd
  0
BLOCK
  5
1C
100
AcDbEntity
 67
1
  8
0
100
AcDbBlockBegin
  2
*Paper_Space
 70
0
 10
0.0
 20
0.0
 30
0.0
  3
*Paper_Space
  1

  0
ENDBLK
  5
1D
100
AcDbEntity
 67
1
  8
0
100
AcDbBlockEnd
  0
BLOCK
  5
24
100
AcDbEntity
  8
0
100
AcDbBlockBegin
  2
*Paper_Space0
 70
0
 10
0.0
 20
0.0
 30
0.0
  3
*Paper_Space0
  1

  0
ENDBLK
  5
25
100
AcDbEntity
  8
0
100
AcDbBlockEnd
  0
BLOCK
  5
4F
100
AcDbEntity
  8
0
100
AcDbBlockBegin
  2
SW_NOTE_0
 70
0
 10
0.0
 20
0.0
 30
0.0
  3
SW_NOTE_0
  1

  0
MTEXT
  5
50
100
AcDbEntity
100
AcDbMText
  8
DIMENSIONS
 62
0
370
-1
  6
BYLAYER
 10
0.0
 20
8.1855801475999996
 30
0.0
 40
6.3499999999999996
 41
0.0
 71
1
 72
1
  1
#1196-02
  7
textstyle0
 50
0.0
 73
1
 44
1.0
  0
MTEXT
  5
51
100
AcDbEntity
100
AcDbMText
  8
DIMENSIONS
 62
0
370
-1
  6
BYLAYER
 10
0.0
 20
-1.2810865807
 30
0.0
 40
6.3499999999999996
 41
0.0
 71
1
 72
1
  1
5mm Acrylic
  7
textstyle1
 50
0.0
 73
1
 44
1.0
  0
MTEXT
  5
52
100
AcDbEntity
100
AcDbMText
  8
DIMENSIONS
 62
0
370
-1
  6
BYLAYER
 10
0.0
 20
-10.7477533090000001
 30
0.0
 40
6.3499999999999996
 41
0.0
 71
1
 72
1
  1
x0.33 per Fisher
  7
textstyle2
 50
0.0
 73
1
 44
1.0
  0
ENDBLK
  5
53
100
AcDbEntity
  8
0
100
AcDbBlockEnd
  0
ENDSEC
  0
SECTION
  2
ENTITIES
  0
INSERT
  5
54
100
AcDbEntity
100
AcDbBlockReference
  8
DIMENSIONS
 62
256
370
-1
  6
BYLAYER
  2
SW_NOTE_0
 10
-266.574682419300018
 20
182.2066137875999914
 30
0.0
  0
CIRCLE
  5
55
100
AcDbEntity
100
AcDbCircle
  8
0
 62
7
420
16777215
370
-1
  6
CONTINUOUS
 10
20.7846096908265281
 20
-11.9999999999999982
 30
0.0
 40
1.600000000000023
  0
CIRCLE
  5
56
100
AcDbEntity
100
AcDbCircle
  8
0
 62
7
420
16777215
370
-1
  6
CONTINUOUS
 10
20.7846096908265281
 20
-11.9999999999999982
 30
0.0
 40
4.0
  0
CIRCLE
  5
57
100
AcDbEntity
100
AcDbCircle
  8
0
 62
7
420
16777215
370
-1
  6
CONTINUOUS
 10
-20.7846096908265281
 20
11.9999999999999982
 30
0.0
 40
1.5999999999999659
  0
CIRCLE
  5
58
100
AcDbEntity
100
AcDbCircle
  8
0
 62
7
420
16777215
370
-1
  6
CONTINUOUS
 10
-20.7846096908265281
 20
11.9999999999999982
 30
0.0
 40
4.0
  0
CIRCLE
  5
59
100
AcDbEntity
100
AcDbCircle
  8
0
 62
7
420
16777215
370
-1
  6
CONTINUOUS
 10
-12.0000000000000107
 20
-20.784609690826521
 30
0.0
 40
1.5999999999999659
  0
CIRCLE
  5
5A
100
AcDbEntity
100
AcDbCircle
  8
0
 62
7
420
16777215
370
-1
  6
CONTINUOUS
 10
-12.0000000000000107
 20
-20.784609690826521
 30
0.0
 40
4.0
  0
CIRCLE
  5
5B
100
AcDbEntity
100
AcDbCircle
  8
0
 62
7
420
16777215
370
-1
  6
CONTINUOUS
 10
11.9999999999999964
 20
20.7846096908265281
 30
0.0
 40
1.5999999999999659
  0
CIRCLE
  5
5C
100
AcDbEntity
100
AcDbCircle
  8
0
 62
7
420
16777215
370
-1
  6
CONTINUOUS
 10
11.9999999999999964
 20
20.7846096908265281
 30
0.0
 40
4.0
  0
ARC
  5
5D
100
AcDbEntity
  8
0
 62
7
420
16777215
370
-1
  6
CONTINUOUS
100
AcDbCircle
 10
0.0000096693831582
 20
-86.9999999999370033
 30
0.0
 40
2.0000000000000169
100
AcDbArc
 50
90.0000063679999869
 51
270.0000063680000153
  0
ARC
  5
5E
100
AcDbEntity
  8
0
 62
7
420
16777215
370
-1
  6
CONTINUOUS
100
AcDbCircle
 10
0.0
 20
0.0
 30
0.0
 40
89.0000000000000142
100
AcDbArc
 50
270.0000063680000153
 51
285.0000063680000153
  0
ARC
  5
5F
100
AcDbEntity
  8
0
 62
7
420
16777215
370
-1
  6
CONTINUOUS
100
AcDbCircle
 10
22.5172662638339425
 20
-84.0355443844829892
 30
0.0
 40
2.000000000000008
100
AcDbArc
 50
285.0000063680000153
 51
105.0000063680000153
  0
ARC
  5
60
100
AcDbEntity
  8
0
 62
7
420
16777215
370
-1
  6
CONTINUOUS
100
AcDbCircle
 10
0.0
 20
0.0
 30
0.0
 40
85.0
100
AcDbArc
 50
270.0000063680000153
 51
285.0000063680000153
  0
ARC
  5
61
100
AcDbEntity
  8
0
 62
7
420
16777215
370
-1
  6
CONTINUOUS
100
AcDbCircle
 10
75.3442052946129479
 20
43.5000083739696919
 30
0.0
 40
2.000000000000016
100
AcDbArc
 50
210.0000063680000153
 51
30.0000063680000046
  0
ARC
  5
62
100
AcDbEntity
  8
0
 62
7
420
16777215
370
-1
  6
CONTINUOUS
100
AcDbCircle
 10
0.0
 20
0.0
 30
0.0
 40
89.0000000000000142
100
AcDbArc
 50
30.0000063680000046
 51
45.0000063680000082
  0
ARC
  5
63
100
AcDbEntity
  8
0
 62
7
420
16777215
370
-1
  6
CONTINUOUS
100
AcDbCircle
 10
61.5182831259478178
 20
61.5182968005487041
 30
0.0
 40
2.000000000000004
100
AcDbArc
 50
45.0000063680000082
 51
225.0000063680000153
  0
ARC
  5
64
100
AcDbEntity
  8
0
 62
7
420
16777215
370
-1
  6
CONTINUOUS
100
AcDbCircle
 10
0.0
 20
0.0
 30
0.0
 40
85.0000000000000426
100
AcDbArc
 50
30.0000063680000046
 51
45.0000063680000082
  0
ARC
  5
65
100
AcDbEntity
  8
0
 62
7
420
16777215
370
-1
  6
CONTINUOUS
100
AcDbCircle
 10
-75.3442149799346197
 20
43.4999915983611416
 30
0.0
 40
2.000000000000012
100
AcDbArc
 50
330.0000063680000153
 51
150.0000063679999869
  0
ARC
  5
66
100
AcDbEntity
  8
0
 62
7
420
16777215
370
-1
  6
CONTINUOUS
100
AcDbCircle
 10
0.0
 20
0.0
 30
0.0
 40
88.9999999999999858
100
AcDbArc
 50
150.0000063679999869
 51
165.0000063680000153
  0
ARC
  5
67
100
AcDbEntity
  8
0
 62
7
420
16777215
370
-1
  6
CONTINUOUS
100
AcDbCircle
 10
-84.0355493897317416
 20
22.5172475840208897
 30
0.0
 40
2.0000000000000111
100
AcDbArc
 50
165.0000063680000153
 51
345.0000063679999585
  0
ARC
  5
68
100
AcDbEntity
  8
0
 62
7
420
16777215
370
-1
  6
CONTINUOUS
100
AcDbCircle
 10
0.0
 20
0.0
 30
0.0
 40
84.9999999999999858
100
AcDbArc
 50
150.0000063679999869
 51
165.0000063680000153
  0
CIRCLE
  5
69
100
AcDbEntity
100
AcDbCircle
  8
0
 62
7
420
16777215
370
-1
  6
CONTINUOUS
 10
46.0000088551822586
 20
-79.6743320356059996
 30
0.0
 40
2.9999999999999392
  0
CIRCLE
  5
6A
100
AcDbEntity
100
AcDbCircle
  8
0
 62
7
420
16777215
370
-1
  6
CONTINUOUS
 10
45.9999911448036158
 20
79.6743422607184044
 30
0.0
 40
3.0000000000000369
  0
CIRCLE
  5
6B
100
AcDbEntity
100
AcDbCircle
  8
0
 62
7
420
16777215
370
-1
  6
CONTINUOUS
 10
-91.9999999999859313
 20
-0.000010225112326
 30
0.0
 40
3.0000000000000022
  0
CIRCLE
  5
6C
100
AcDbEntity
100
AcDbCircle
  8
0
 62
7
420
16777215
370
-1
  6
CONTINUOUS
 10
0.0
 20
0.0
 30
0.0
 40
1.999999999999992
  0
CIRCLE
  5
6D
100
AcDbEntity
100
AcDbCircle
  8
0
 62
7
420
16777215
370
-1
  6
CONTINUOUS
 10
73.4365429483219287
 20
-85.195798956292407
 30
0.0
 40
1.55000000000001
  0
CIRCLE
  5
6E
100
AcDbEntity
100
AcDbCircle
  8
0
 62
7
420
16777215
370
-1
  6
CONTINUOUS
 10
37.063478323393042
 20
-106.1958029988555126
 30
0.0
 40
1.5500000000000029
  0
CIRCLE
  5
6F
100
AcDbEntity
100
AcDbCircle
  8
0
 62
7
420
16777215
370
-1
  6
CONTINUOUS
 10
37.0634547176955991
 20
106.1958112374771588
 30
0.0
 40
1.5499999999999809
  0
CIRCLE
  5
70
100
AcDbEntity
100
AcDbCircle
  8
0
 62
7
420
16777215
370
-1
  6
CONTINUOUS
 10
73.4365240106420316
 20
85.195815280083778
 30
0.0
 40
1.55000000000001
  0
CIRCLE
  5
71
100
AcDbEntity
100
AcDbCircle
  8
0
 62
7
420
16777215
370
-1
  6
CONTINUOUS
 10
-110.4999976660175633
 20
-21.0000122811847483
 30
0.0
 40
1.5500000000000029
  0
CIRCLE
  5
72
100
AcDbEntity
100
AcDbCircle
  8
0
 62
7
420
16777215
370
-1
  6
CONTINUOUS
 10
-110.5000023340351021
 20
20.9999877187717061
 30
0.0
 40
1.5499999999999461
  0
LINE
  5
73
100
AcDbEntity
100
AcDbLine
  8
0
 62
7
420
16777215
370
-1
  6
CONTINUOUS
 10
52.754821294243996
 20
-106.3740044851527529
 30
0.0
 11
57.254822160528029
 21
-114.1682326190448862
 31
0.0
  0
LINE
  5
74
100
AcDbEntity
100
AcDbLine
  8
0
 62
7
420
16777215
370
-1
  6
CONTINUOUS
 10
57.254822160528029
 20
-114.1682326190448862
 30
0.0
 11
70.245202383693865
 21
-106.6682311752837933
 31
0.0
  0
LINE
  5
75
100
AcDbEntity
100
AcDbLine
  8
0
 62
7
420
16777215
370
-1
  6
CONTINUOUS
 10
70.245202383693865
 20
-106.6682311752837933
 30
0.0
 11
65.7452015174599183
 21
-98.8740030413049595
 31
0.0
  0
LINE
  5
76
100
AcDbEntity
100
AcDbLine
  8
0
 62
7
420
16777215
370
-1
  6
CONTINUOUS
 10
65.7452015174599183
 20
-98.8740030413049595
 30
0.0
 11
52.754821294243996
 21
-106.3740044851527529
 31
0.0
  0
CIRCLE
  5
77
100
AcDbEntity
100
AcDbCircle
  8
0
 62
7
420
16777215
370
-1
  6
CONTINUOUS
 10
43.3134795265295054
 20
-117.0211198514564899
 30
0.0
 40
4.0499999999999758
  0
CIRCLE
  5
78
100
AcDbEntity
100
AcDbCircle
  8
0
 62
7
420
16777215
370
-1
  6
CONTINUOUS
 10
79.6865441514583637
 20
-96.0211158088934127
 30
0.0
 40
4.0499999999999758
  0
CIRCLE
  5
79
100
AcDbEntity
100
AcDbCircle
  8
0
 62
7
420
16777215
370
-1
  6
CONTINUOUS
 10
79.6865228074729401
 20
96.0211335220392641
 30
0.0
 40
4.0499999999999474
  0
CIRCLE
  5
7A
100
AcDbEntity
100
AcDbCircle
  8
0
 62
7
420
16777215
370
-1
  6
CONTINUOUS
 10
43.3134535145265005
 20
117.0211294794326449
 30
0.0
 40
4.0500000000000531
  0
LINE
  5
7B
100
AcDbEntity
100
AcDbLine
  8
0
 62
7
420
16777215
370
-1
  6
CONTINUOUS
 10
-118.5000008336130293
 20
7.4999868296279288
 30
0.0
 11
-127.5000008335617849
 21
7.4999858293968193
 31
0.0
  0
LINE
  5
7C
100
AcDbEntity
100
AcDbLine
  8
0
 62
7
420
16777215
370
-1
  6
CONTINUOUS
 10
-127.5000008335617849
 20
7.4999858293968193
 30
0.0
 11
-127.4999991664110439
 21
-7.5000141706134205
 31
0.0
  0
LINE
  5
7D
100
AcDbEntity
100
AcDbLine
  8
0
 62
7
420
16777215
370
-1
  6
CONTINUOUS
 10
-127.4999991664110439
 20
-7.5000141706134205
 30
0.0
 11
-118.4999991664622456
 21
-7.5000131703822506
 31
0.0
  0
LINE
  5
7E
100
AcDbEntity
100
AcDbLine
  8
0
 62
7
420
16777215
370
-1
  6
CONTINUOUS
 10
-118.4999991664622456
 20
-7.5000131703822506
 30
0.0
 11
-118.5000008336130293
 21
7.4999868296279288
 31
0.0
  0
LINE
  5
7F
100
AcDbEntity
100
AcDbLine
  8
0
 62
7
420
16777215
370
-1
  6
CONTINUOUS
 10
30.5660556844237341
 20
-105.1003038555984972
 30
0.0
 11
18.4416984754415871
 21
-98.1003065506695435
 31
0.0
  0
ARC
  5
80
100
AcDbEntity
  8
0
 62
7
420
16777215
370
-1
  6
CONTINUOUS
100
AcDbCircle
 10
17.9416986679590593
 20
-98.9663320656039929
 30
0.0
 40
1.00000000000001
100
AcDbArc
 50
60.0000127360000022
 51
150.0000127360000306
  0
LINE
  5
81
100
AcDbEntity
100
AcDbLine
  8
0
 62
7
420
16777215
370
-1
  6
CONTINUOUS
 10
17.0756731530245354
 20
-98.4663322581214686
 30
0.0
 11
11.5756681551798994
 21
-107.99262524667121
 31
0.0
  0
LINE
  5
82
100
AcDbEntity
100
AcDbLine
  8
0
 62
7
420
16777215
370
-1
  6
CONTINUOUS
 10
-42.5865353613121798
 20
-76.7220624665211517
 30
0.0
 11
11.5756681551798994
 21
-107.99262524667121
 31
0.0
  0
LINE
  5
83
100
AcDbEntity
100
AcDbLine
  8
0
 62
7
420
16777215
370
-1
  6
CONTINUOUS
 10
-38.7360604091432634
 20
-70.0528425042933662
 30
0.0
 11
-36.9866889812486974
 21
-71.062842309870689
 31
0.0
  0
LINE
  5
84
100
AcDbEntity
100
AcDbLine
  8
0
 62
7
420
16777215
370
-1
  6
CONTINUOUS
 10
-36.9866889812486974
 20
-71.062842309870689
 30
0.0
 11
-36.7366890293131334
 21
-70.6298295802284457
 31
0.0
  0
LINE
  5
85
100
AcDbEntity
100
AcDbLine
  8
0
 62
7
420
16777215
370
-1
  6
CONTINUOUS
 10
-36.7366890293131334
 20
-70.6298295802284457
 30
0.0
 11
-37.3862081238514534
 21
-70.2548296524549727
 31
0.0
  0
LINE
  5
86
100
AcDbEntity
100
AcDbLine
  8
0
 62
7
420
16777215
370
-1
  6
CONTINUOUS
 10
-37.3862081238514534
 20
-70.2548296524549727
 30
0.0
 11
-36.1362083645198879
 21
-68.0897660040438666
 31
0.0
  0
LINE
  5
87
100
AcDbEntity
100
AcDbLine
  8
0
 62
7
420
16777215
370
-1
  6
CONTINUOUS
 10
-36.1362083645198879
 20
-68.0897660040438666
 30
0.0
 11
-37.2360606978761552
 21
-67.4547661262400595
 31
0.0
  0
LINE
  5
88
100
AcDbEntity
100
AcDbLine
  8
0
 62
7
420
16777215
370
-1
  6
CONTINUOUS
 10
-37.2360606978761552
 20
-67.4547661262400595
 30
0.0
 11
-36.2360608903936452
 21
-65.7227152075211478
 31
0.0
  0
LINE
  5
89
100
AcDbEntity
100
AcDbLine
  8
0
 62
7
420
16777215
370
-1
  6
CONTINUOUS
 10
-36.2360608903936452
 20
-65.7227152075211478
 30
0.0
 11
-38.7994962500955367
 21
-64.2427154924435371
 31
0.0
  0
LINE
  5
8A
100
AcDbEntity
100
AcDbLine
  8
0
 62
7
420
16777215
370
-1
  6
CONTINUOUS
 10
-38.7994962500955367
 20
-64.2427154924435371
 30
0.0
 11
-39.7994960575780823
 21
-65.9747664111624204
 31
0.0
  0
LINE
  5
8B
100
AcDbEntity
100
AcDbLine
  8
0
 62
7
420
16777215
370
-1
  6
CONTINUOUS
 10
-39.7994960575780823
 20
-65.9747664111624204
 30
0.0
 11
-40.8993483909843363
 21
-65.3397665334451858
 31
0.0
  0
LINE
  5
8C
100
AcDbEntity
100
AcDbLine
  8
0
 62
7
420
16777215
370
-1
  6
CONTINUOUS
 10
-42.1493481503158947
 20
-67.5048301818562919
 30
0.0
 11
-42.798867244804228
 21
-67.1298302539961895
 31
0.0
  0
LINE
  5
8D
100
AcDbEntity
100
AcDbLine
  8
0
 62
7
420
16777215
370
-1
  6
CONTINUOUS
 10
-42.798867244804228
 20
-67.1298302539961895
 30
0.0
 11
-43.0488671967397849
 21
-67.5628429836384186
 31
0.0
  0
LINE
  5
8E
100
AcDbEntity
100
AcDbLine
  8
0
 62
7
420
16777215
370
-1
  6
CONTINUOUS
 10
-43.0488671967397849
 20
-67.5628429836384186
 30
0.0
 11
-41.2994957688452047
 21
-68.5728427892157413
 31
0.0
  0
LINE
  5
8F
100
AcDbEntity
100
AcDbLine
  8
0
 62
7
420
16777215
370
-1
  6
CONTINUOUS
 10
-41.2994957688452047
 20
-68.5728427892157413
 30
0.0
 11
-45.1499705565140772
 21
-75.2420624665211619
 31
0.0
  0
LINE
  5
90
100
AcDbEntity
100
AcDbLine
  8
0
 62
7
420
16777215
370
-1
  6
CONTINUOUS
 10
-99.3121740728329314
 20
-43.971499686471212
 30
0.0
 11
-45.1499705565140772
 21
-75.2420624665211619
 31
0.0
  0
LINE
  5
91
100
AcDbEntity
100
AcDbLine
  8
0
 62
7
420
16777215
370
-1
  6
CONTINUOUS
 10
-99.3121740728329314
 20
-43.971499686471212
 30
0.0
 11
-93.8121740728329314
 21
-34.4452202448423535
 31
0.0
  0
ARC
  5
92
100
AcDbEntity
  8
0
 62
7
420
16777215
370
-1
  6
CONTINUOUS
100
AcDbCircle
 10
-94.6781994766173511
 20
-33.9452202448423961
 30
0.0
 40
1.000000000000014
100
AcDbArc
 50
330.0
 51
60.0000000000000071
  0
LINE
  5
93
100
AcDbEntity
100
AcDbLine
  8
0
 62
7
420
16777215
370
-1
  6
CONTINUOUS
 10
-94.1781994766173653
 20
-33.0791948410579053
 30
0.0
 11
-106.3025551295994831
 21
-26.0791948410579195
 31
0.0
  0
ARC
  5
94
100
AcDbEntity
  8
0
 62
7
420
16777215
370
-1
  6
CONTINUOUS
100
AcDbCircle
 10
-106.8025551295994973
 20
-26.9452202448423499
 30
0.0
 40
1.0
100
AcDbArc
 50
60.0000000000000071
 51
150.0
  0
LINE
  5
95
100
AcDbEntity
100
AcDbLine
  8
0
 62
7
420
16777215
370
-1
  6
CONTINUOUS
 10
-107.6685805333839454
 20
-26.4452202448423357
 30
0.0
 11
-113.1685805333839454
 21
-35.9714996864712049
 31
0.0
  0
LINE
  5
96
100
AcDbEntity
100
AcDbLine
  8
0
 62
7
420
16777215
370
-1
  6
CONTINUOUS
 10
-127.0249869939349736
 20
-27.9714996864711658
 30
0.0
 11
-113.1685805333839454
 21
-35.9714996864712049
 31
0.0
  0
LINE
  5
97
100
AcDbEntity
100
AcDbLine
  8
0
 62
7
420
16777215
370
-1
  6
CONTINUOUS
 10
-128.5249869939349594
 20
-30.5695758978244747
 30
0.0
 11
-127.0249869939349736
 21
-27.9714996864711658
 31
0.0
  0
ARC
  5
98
100
AcDbEntity
  8
0
 62
7
420
16777215
370
-1
  6
CONTINUOUS
100
AcDbCircle
 10
-122.9999976659849636
 20
-21.0000136705392855
 30
0.0
 40
11.0499786559563393
100
AcDbArc
 50
180.0000063680000153
 51
240.0
  0
LINE
  5
99
100
AcDbEntity
100
AcDbLine
  8
0
 62
7
420
16777215
370
-1
  6
CONTINUOUS
 10
-134.0499809899506545
 20
20.9999851013633503
 30
0.0
 11
-134.0499763219331726
 21
-21.0000148985932285
 31
0.0
  0
ARC
  5
9A
100
AcDbEntity
  8
0
 62
7
420
16777215
370
-1
  6
CONTINUOUS
100
AcDbCircle
 10
-123.0000023339524802
 20
20.9999863295037983
 30
0.0
 40
11.0499786559563002
100
AcDbArc
 50
120.0000063680000153
 51
180.0000063680000153
  0
LINE
  5
9B
100
AcDbEntity
100
AcDbLine
  8
0
 62
7
420
16777215
370
-1
  6
CONTINUOUS
 10
-127.0250031088061746
 20
27.9714903825531174
 30
0.0
 11
-128.5249927255164835
 21
30.5695479427850998
 31
0.0
  0
LINE
  5
9C
100
AcDbEntity
100
AcDbLine
  8
0
 62
7
420
16777215
370
-1
  6
CONTINUOUS
 10
-46.1242712166583928
 20
74.6795617068609516
 30
0.0
 11
-127.0250031088061746
 21
27.9714903825531174
 31
0.0
  0
LINE
  5
9D
100
AcDbEntity
100
AcDbLine
  8
0
 62
7
420
16777215
370
-1
  6
CONTINUOUS
 10
-46.1242712166583928
 20
74.6795617068609516
 30
0.0
 11
-41.949029939316631
 21
67.4478335368756206
 31
0.0
  0
LINE
  5
9E
100
AcDbEntity
100
AcDbLine
  8
0
 62
7
420
16777215
370
-1
  6
CONTINUOUS
 10
-41.949029939316631
 20
67.4478335368756206
 30
0.0
 11
-43.6984011427335872
 21
66.4378333424595553
 31
0.0
  0
LINE
  5
9F
100
AcDbEntity
100
AcDbLine
  8
0
 62
7
420
16777215
370
-1
  6
CONTINUOUS
 10
-43.6984011427335872
 20
66.4378333424595553
 30
0.0
 11
-43.4484010946013512
 21
66.0048206683192831
 31
0.0
  0
LINE
  5
A0
100
AcDbEntity
100
AcDbLine
  8
0
 62
7
420
16777215
370
-1
  6
CONTINUOUS
 10
-43.4484010946013512
 20
66.0048206683192831
 30
0.0
 11
-42.7988820834591976
 21
66.3798207404993406
 31
0.0
  0
LINE
  5
A1
100
AcDbEntity
100
AcDbLine
  8
0
 62
7
420
16777215
370
-1
  6
CONTINUOUS
 10
-42.7988820834591976
 20
66.3798207404993406
 30
0.0
 11
-41.5488818428346036
 21
64.2147573699345031
 31
0.0
  0
LINE
  5
A2
100
AcDbEntity
100
AcDbLine
  8
0
 62
7
420
16777215
370
-1
  6
CONTINUOUS
 10
-41.5488818428346036
 20
64.2147573699345031
 30
0.0
 11
-40.4490296505597584
 21
64.8497574921705251
 31
0.0
  0
LINE
  5
A3
100
AcDbEntity
100
AcDbLine
  8
0
 62
7
420
16777215
370
-1
  6
CONTINUOUS
 10
-40.4490296505597584
 20
64.8497574921705251
 30
0.0
 11
-39.4490294580674146
 21
63.1177067957459457
 31
0.0
  0
LINE
  5
A4
100
AcDbEntity
100
AcDbLine
  8
0
 62
7
420
16777215
370
-1
  6
CONTINUOUS
 10
-39.4490294580674146
 20
63.1177067957459457
 30
0.0
 11
-36.8855944273470797
 21
64.5977070806554394
 31
0.0
  0
LINE
  5
A5
100
AcDbEntity
100
AcDbLine
  8
0
 62
7
420
16777215
370
-1
  6
CONTINUOUS
 10
-36.8855944273470797
 20
64.5977070806554394
 30
0.0
 11
-37.8855946198394449
 21
66.3297577770800189
 31
0.0
  0
LINE
  5
A6
100
AcDbEntity
100
AcDbLine
  8
0
 62
7
420
16777215
370
-1
  6
CONTINUOUS
 10
-37.8855946198394449
 20
66.3297577770800189
 30
0.0
 11
-36.7857424276512219
 21
66.9647578993659778
 31
0.0
  0
LINE
  5
A7
100
AcDbEntity
100
AcDbLine
  8
0
 62
7
420
16777215
370
-1
  6
CONTINUOUS
 10
-36.7857424276512219
 20
66.9647578993659778
 30
0.0
 11
-38.0357426682758302
 21
69.1298212699308436
 31
0.0
  0
LINE
  5
A8
100
AcDbEntity
100
AcDbLine
  8
0
 62
7
420
16777215
370
-1
  6
CONTINUOUS
 10
-38.0357426682758302
 20
69.1298212699308436
 30
0.0
 11
-37.3862236571337334
 21
69.5048213421108869
 31
0.0
  0
LINE
  5
A9
100
AcDbEntity
100
AcDbLine
  8
0
 62
7
420
16777215
370
-1
  6
CONTINUOUS
 10
-37.3862236571337334
 20
69.5048213421108869
 30
0.0
 11
-37.6362237051793684
 21
69.9378340162011796
 31
0.0
  0
LINE
  5
AA
100
AcDbEntity
100
AcDbLine
  8
0
 62
7
420
16777215
370
-1
  6
CONTINUOUS
 10
-37.6362237051793684
 20
69.9378340162011796
 30
0.0
 11
-39.3855949085963033
 21
68.9278338217851143
 31
0.0
  0
LINE
  5
AB
100
AcDbEntity
100
AcDbLine
  8
0
 62
7
420
16777215
370
-1
  6
CONTINUOUS
 10
-39.3855949085963033
 20
68.9278338217851143
 30
0.0
 11
-43.5608361859380082
 21
76.159561991770488
 31
0.0
  0
LINE
  5
AC
100
AcDbEntity
100
AcDbLine
  8
0
 62
7
420
16777215
370
-1
  6
CONTINUOUS
 10
39.2884527397227501
 20
123.9926335325685613
 30
0.0
 11
-43.5608361859380082
 21
76.159561991770488
 31
0.0
  0
LINE
  5
AD
100
AcDbEntity
100
AcDbLine
  8
0
 62
7
420
16777215
370
-1
  6
CONTINUOUS
 10
37.7884631229625185
 20
126.5906910927139393
 30
0.0
 11
39.2884527397227501
 21
123.9926335325685613
 31
0.0
  0
ARC
  5
AE
100
AcDbEntity
  8
0
 62
7
420
16777215
370
-1
  6
CONTINUOUS
100
AcDbCircle
 10
43.3134535145265005
 20
117.0211294794326449
 30
0.0
 40
11.0499786559564193
100
AcDbArc
 50
60.0000063680000011
 51
120.0000063680000153
  0
LINE
  5
AF
100
AcDbEntity
100
AcDbLine
  8
0
 62
7
420
16777215
370
-1
  6
CONTINUOUS
 10
85.2115110719071396
 20
105.5906963634611202
 30
0.0
 11
48.8384417789606928
 21
126.5906923208544868
 31
0.0
  0
ARC
  5
B0
100
AcDbEntity
  8
0
 62
7
420
16777215
370
-1
  6
CONTINUOUS
100
AcDbCircle
 10
79.6865228074729401
 20
96.0211335220392641
 30
0.0
 40
11.0499786559563091
100
AcDbArc
 50
0.0000063680000028
 51
60.0000063680000011
  0
LINE
  5
B1
100
AcDbEntity
100
AcDbLine
  8
0
 62
7
420
16777215
370
-1
  6
CONTINUOUS
 10
87.7365228074436914
 20
96.0211344167181124
 30
0.0
 11
90.7365014633845277
 21
96.0211347502298196
 31
0.0
  0
LINE
  5
B2
100
AcDbEntity
100
AcDbLine
  8
0
 62
7
420
16777215
370
-1
  6
CONTINUOUS
 10
87.7365333149456603
 20
1.4800097512453607
 30
0.0
 11
87.7365228074436914
 21
96.0211344167181124
 31
0.0
  0
LINE
  5
B3
100
AcDbEntity
100
AcDbLine
  8
0
 62
7
420
16777215
370
-1
  6
CONTINUOUS
 10
87.7365333149456603
 20
1.4800097512453607
 30
0.0
 11
78.7365333149968905
 21
1.4800087510141975
 31
0.0
  0
LINE
  5
B4
100
AcDbEntity
100
AcDbLine
  8
0
 62
7
420
16777215
370
-1
  6
CONTINUOUS
 10
78.7365333149968905
 20
1.4800087510141975
 30
0.0
 11
78.7365330905192877
 21
3.500008751007547
 31
0.0
  0
LINE
  5
B5
100
AcDbEntity
100
AcDbLine
  8
0
 62
7
420
16777215
370
-1
  6
CONTINUOUS
 10
78.2365330904880665
 20
3.5000086953690102
 30
0.0
 11
78.2365331738842542
 21
2.7500086954154317
 31
0.0
  0
LINE
  5
B6
100
AcDbEntity
100
AcDbLine
  8
0
 62
7
420
16777215
370
-1
  6
CONTINUOUS
 10
78.2365331738842542
 20
2.7500086954154317
 30
0.0
 11
75.7365331737914858
 21
2.7500084175325843
 31
0.0
  0
LINE
  5
B7
100
AcDbEntity
100
AcDbLine
  8
0
 62
7
420
16777215
370
-1
  6
CONTINUOUS
 10
75.7365331737914858
 20
2.7500084175325843
 30
0.0
 11
75.7365333150094671
 21
1.4800084175293884
 31
0.0
  0
LINE
  5
B8
100
AcDbEntity
100
AcDbLine
  8
0
 62
7
420
16777215
370
-1
  6
CONTINUOUS
 10
73.7365333149479625
 20
1.4800081952850712
 30
0.0
 11
73.7365336439296044
 21
-1.4799918047020872
 31
0.0
  0
LINE
  5
B9
100
AcDbEntity
100
AcDbLine
  8
0
 62
7
420
16777215
370
-1
  6
CONTINUOUS
 10
73.7365336439296044
 20
-1.4799918047020872
 30
0.0
 11
75.7365336439911232
 21
-1.4799915824577394
 31
0.0
  0
LINE
  5
BA
100
AcDbEntity
100
AcDbLine
  8
0
 62
7
420
16777215
370
-1
  6
CONTINUOUS
 10
75.7365336439911232
 20
-1.4799915824577394
 30
0.0
 11
75.736533785122532
 21
-2.749991582410932
 31
0.0
  0
LINE
  5
BB
100
AcDbEntity
100
AcDbLine
  8
0
 62
7
420
16777215
370
-1
  6
CONTINUOUS
 10
75.736533785122532
 20
-2.749991582410932
 30
0.0
 11
78.2365337850787057
 21
-2.7499913045647197
 31
0.0
  0
LINE
  5
BC
100
AcDbEntity
100
AcDbLine
  8
0
 62
7
420
16777215
370
-1
  6
CONTINUOUS
 10
78.2365337850787057
 20
-2.7499913045647197
 30
0.0
 11
78.2365338684248712
 21
-3.4999913046048383
 31
0.0
  0
LINE
  5
BD
100
AcDbEntity
100
AcDbLine
  8
0
 62
7
420
16777215
370
-1
  6
CONTINUOUS
 10
78.2365338684248712
 20
-3.4999913046048383
 30
0.0
 11
78.7365338684561209
 21
-3.4999912489663432
 31
0.0
  0
LINE
  5
BE
100
AcDbEntity
100
AcDbLine
  8
0
 62
7
420
16777215
370
-1
  6
CONTINUOUS
 10
78.7365338684561209
 20
-3.4999912489663432
 30
0.0
 11
78.7365336439785324
 21
-1.4799912489729614
 31
0.0
  0
LINE
  5
BF
100
AcDbEntity
100
AcDbLine
  8
0
 62
7
420
16777215
370
-1
  6
CONTINUOUS
 10
78.7365336439785324
 20
-1.4799912489729614
 30
0.0
 11
87.7365336439273023
 21
-1.4799902487417773
 31
0.0
  0
LINE
  5
C0
100
AcDbEntity
100
AcDbLine
  8
0
 62
7
420
16777215
370
-1
  6
CONTINUOUS
 10
87.7365441515158437
 20
-96.0211149142645155
 30
0.0
 11
87.7365336439273023
 21
-1.4799902487417773
 31
0.0
  0
LINE
  5
C1
100
AcDbEntity
100
AcDbLine
  8
0
 62
7
420
16777215
370
-1
  6
CONTINUOUS
 10
90.7365228074566517
 20
-96.021114580752851
 30
0.0
 11
87.7365441515158437
 21
-96.0211149142645155
 31
0.0
  0
ARC
  5
C2
100
AcDbEntity
  8
0
 62
7
420
16777215
370
-1
  6
CONTINUOUS
100
AcDbCircle
 10
79.6865441514583637
 20
-96.0211158088934127
 30
0.0
 40
11.0499786559563002
100
AcDbArc
 50
302.9402718820999212
 51
0.0000063680000028
  0
LINE
  5
C3
100
AcDbEntity
100
AcDbLine
  8
0
 62
7
420
16777215
370
-1
  6
CONTINUOUS
 10
48.8415111012529692
 20
-126.5889249919904387
 30
0.0
 11
85.6951298855002932
 21
-105.2946763858993222
 31
0.0
  0
ARC
  5
C4
100
AcDbEntity
  8
0
 62
7
420
16777215
370
-1
  6
CONTINUOUS
100
AcDbCircle
 10
43.3134795265295054
 20
-117.0211198514564899
 30
0.0
 40
11.0499786559563393
100
AcDbArc
 50
240.0
 51
300.0182164971000134
  0
LINE
  5
C5
100
AcDbEntity
100
AcDbLine
  8
0
 62
7
420
16777215
370
-1
  6
CONTINUOUS
 10
39.2884795265294855
 20
-123.9926243519212221
 30
0.0
 11
37.7884901985294235
 21
-126.5906820788283369
 31
0.0
  0
LINE
  5
C6
100
AcDbEntity
100
AcDbLine
  8
0
 62
7
420
16777215
370
-1
  6
CONTINUOUS
 10
25.4320746155577524
 20
-115.992625246571194
 30
0.0
 11
39.2884795265294855
 21
-123.9926243519212221
 31
0.0
  0
LINE
  5
C7
100
AcDbEntity
100
AcDbLine
  8
0
 62
7
420
16777215
370
-1
  6
CONTINUOUS
 10
25.4320746155577524
 20
-115.992625246571194
 30
0.0
 11
30.9320813918256334
 21
-106.466329178102086
 31
0.0
  0
ARC
  5
C8
100
AcDbEntity
  8
0
 62
7
420
16777215
370
-1
  6
CONTINUOUS
100
AcDbCircle
 10
30.0660558769411779
 20
-105.9663293705329465
 30
0.0
 40
0.999999999999982
100
AcDbArc
 50
330.0000127359999738
 51
60.0000127360000022
  0
CIRCLE
  5
C9
100
AcDbEntity
100
AcDbCircle
  8
0
 62
7
420
16777215
370
-1
  6
CONTINUOUS
 10
-123.0000023339524802
 20
20.9999863295037983
 30
0.0
 40
4.0500000000000247
  0
CIRCLE
  5
CA
100
AcDbEntity
100
AcDbCircle
  8
0
 62
7
420
16777215
370
-1
  6
CONTINUOUS
 10
-122.9999976659849636
 20
-21.0000136705392855
 30
0.0
 40
4.0499999999999758
  0
LINE
  5
CB
100
AcDbEntity
100
AcDbLine
  8
0
 62
7
420
16777215
370
-1
  6
CONTINUOUS
 10
65.7451795392823044
 20
98.8740176555747752
 30
0.0
 11
70.2451786729971133
 21
106.6682467897847317
 31
0.0
  0
LINE
  5
CC
100
AcDbEntity
100
AcDbLine
  8
0
 62
7
420
16777215
370
-1
  6
CONTINUOUS
 10
70.2451786729971133
 20
106.6682467897847317
 30
0.0
 11
57.2547967826304998
 21
114.168245345947156
 31
0.0
  0
LINE
  5
CD
100
AcDbEntity
100
AcDbLine
  8
0
 62
7
420
16777215
370
-1
  6
CONTINUOUS
 10
57.2547967826304998
 20
114.168245345947156
 30
0.0
 11
52.7547976489157264
 21
106.3740162117371852
 31
0.0
  0
LINE
  5
CE
100
AcDbEntity
100
AcDbLine
  8
0
 62
7
420
16777215
370
-1
  6
CONTINUOUS
 10
52.7547976489157264
 20
106.3740162117371852
 30
0.0
 11
65.7451795392823044
 21
98.8740176555747752
 31
0.0
  0
CIRCLE
  5
CF
100
AcDbEntity
100
AcDbCircle
  8
0
 62
7
420
16777215
370
-1
  6
CONTINUOUS
 10
-81.7054274524541029
 20
-49.5179574337834367
 30
0.0
 40
1.49999999999997
  0
CIRCLE
  5
D0
100
AcDbEntity
100
AcDbCircle
  8
0
 62
7
420
16777215
370
-1
  6
CONTINUOUS
 10
-2.0310903042857671
 20
-95.5179574337834367
 30
0.0
 40
1.500000000000026
  0
CIRCLE
  5
D1
100
AcDbEntity
100
AcDbCircle
  8
0
 62
7
420
16777215
370
-1
  6
CONTINUOUS
 10
55.4689096957142809
 20
4.0749640014269932
 30
0.0
 40
1.5000000000000191
  0
CIRCLE
  5
D2
100
AcDbEntity
100
AcDbCircle
  8
0
 62
7
420
16777215
370
-1
  6
CONTINUOUS
 10
-24.2054274524541135
 20
50.0749640014269914
 30
0.0
 40
1.5000000000000331
  0
ARC
  5
D3
100
AcDbEntity
  8
0
 62
7
420
16777215
370
-1
  6
CONTINUOUS
100
AcDbCircle
 10
0.0
 20
0.0
 30
0.0
 40
88.9999999999999858
100
AcDbArc
 50
195.0000063679999869
 51
210.0000063680000153
  0
ARC
  5
D4
100
AcDbEntity
  8
0
 62
7
420
16777215
370
-1
  6
CONTINUOUS
100
AcDbCircle
 10
-75.3442052945629825
 20
-43.500008373883027
 30
0.0
 40
2.000000000000004
100
AcDbArc
 50
210.0000063680000153
 51
30.0000063680000046
  0
ARC
  5
D5
100
AcDbEntity
  8
0
 62
7
420
16777215
370
-1
  6
CONTINUOUS
100
AcDbCircle
 10
0.0
 20
0.0
 30
0.0
 40
85.0
100
AcDbArc
 50
195.0000063679999869
 51
210.0000063680000153
  0
ARC
  5
D6
100
AcDbEntity
  8
0
 62
7
420
16777215
370
-1
  6
CONTINUOUS
100
AcDbCircle
 10
-84.035544384482975
 20
-22.5172662638339425
 30
0.0
 40
2.0000000000000391
100
AcDbArc
 50
15.0000063679999993
 51
195.0000063679999869
  0
ARC
  5
D7
100
AcDbEntity
  8
0
 62
7
420
16777215
370
-1
  6
CONTINUOUS
100
AcDbCircle
 10
0.0
 20
0.0
 30
0.0
 40
89.0000000000000426
100
AcDbArc
 50
75.0000063679999869
 51
90.0000063679999869
  0
ARC
  5
D8
100
AcDbEntity
  8
0
 62
7
420
16777215
370
-1
  6
CONTINUOUS
100
AcDbCircle
 10
-0.0000096693332128
 20
87.0000000000236042
 30
0.0
 40
2.0000000000000409
100
AcDbArc
 50
90.0000063679999869
 51
270.0000063680000153
  0
ARC
  5
D9
100
AcDbEntity
  8
0
 62
7
420
16777215
370
-1
  6
CONTINUOUS
100
AcDbCircle
 10
0.0
 20
0.0
 30
0.0
 40
85.0
100
AcDbArc
 50
75.0000063679999869
 51
90.0000063679999869
  0
ARC
  5
DA
100
AcDbEntity
  8
0
 62
7
420
16777215
370
-1
  6
CONTINUOUS
100
AcDbCircle
 10
22.5172475840208897
 20
84.0355493897317558
 30
0.0
 40
2.000000000000044
100
AcDbArc
 50
255.0000063680000153
 51
75.0000063679999869
  0
ARC
  5
DB
100
AcDbEntity
  8
0
 62
7
420
16777215
370
-1
  6
CONTINUOUS
100
AcDbCircle
 10
0.0
 20
0.0
 30
0.0
 40
89.0000000000000426
100
AcDbArc
 50
315.0000063680000153
 51
330.0000063680000153
  0
ARC
  5
DC
100
AcDbEntity
  8
0
 62
7
420
16777215
370
-1
  6
CONTINUOUS
100
AcDbCircle
 10
75.3442149799346339
 20
-43.4999915983611132
 30
0.0
 40
2.0000000000000688
100
AcDbArc
 50
330.0000063680000153
 51
150.0000063679999869
  0
ARC
  5
DD
100
AcDbEntity
  8
0
 62
7
420
16777215
370
-1
  6
CONTINUOUS
100
AcDbCircle
 10
0.0
 20
0.0
 30
0.0
 40
84.9999999999999858
100
AcDbArc
 50
315.0000063680000153
 51
330.0000063680000153
  0
ARC
  5
DE
100
AcDbEntity
  8
0
 62
7
420
16777215
370
-1
  6
CONTINUOUS
100
AcDbCircle
 10
61.5182968005486615
 20
-61.5182831259477823
 30
0.0
 40
2.0000000000000191
100
AcDbArc
 50
135.0000063679999869
 51
315.0000063680000153
  0
LINE
  5
DF
100
AcDbEntity
100
AcDbLine
  8
0
 62
7
420
16777215
370
-1
  6
CONTINUOUS
 10
-40.8993483909843363
 20
-65.3397665334451858
 30
0.0
 11
-42.1493481503158947
 21
-67.5048301818562919
 31
0.0
  0
LINE
  5
E0
100
AcDbEntity
100
AcDbLine
  8
0
 62
7
420
16777215
370
-1
  6
CONTINUOUS
 10
-42.5865353613121798
 20
-76.7220624665211517
 30
0.0
 11
-38.7360604091432634
 21
-70.0528425042933662
 31
0.0
  0
LINE
  5
E1
100
AcDbEntity
100
AcDbLine
  8
0
 62
7
420
16777215
370
-1
  6
CONTINUOUS
 10
78.7365330905192877
 20
3.500008751007547
 30
0.0
 11
78.2365330904880665
 21
3.5000086953690102
 31
0.0
  0
LINE
  5
E2
100
AcDbEntity
100
AcDbLine
  8
0
 62
7
420
16777215
370
-1
  6
CONTINUOUS
 10
75.7365333150094671
 20
1.4800084175293884
 30
0.0
 11
73.7365333149479625
 21
1.4800081952850712
 31
0.0
  0
ENDSEC
  0
SECTION
  2
OBJECTS
  0
DICTIONARY
  5
C
100
AcDbDictionary
280
0
281
1
  3
ACAD_GROUP
350
D
  3
ACAD_LAYOUT
350
1A
  3
ACAD_MLINESTYLE
350
17
  3
ACAD_PLOTSETTINGS
350
19
  3
ACAD_PLOTSTYLENAME
350
E
  3
AcDbVariableDictionary
350
E3
  3
QCAD_OBJECTS
350
E4
  0
DICTIONARY
  5
D
100
AcDbDictionary
280
0
281
1
  0
ACDBDICTIONARYWDFLT
  5
E
100
AcDbDictionary
281
1
  3
Normal
350
F
100
AcDbDictionaryWithDefault
340
F
  0
ACDBPLACEHOLDER
  5
F
  0
DICTIONARY
  5
17
100
AcDbDictionary
280
0
281
1
  3
Standard
350
18
  0
MLINESTYLE
  5
18
100
AcDbMlineStyle
  2
STANDARD
 70
0
  3

 62
256
 51
90.0
 52
90.0
 71
2
 49
0.5
 62
256
  6
BYLAYER
 49
-0.5
 62
256
  6
BYLAYER
  0
DICTIONARY
  5
19
100
AcDbDictionary
280
0
281
1
  0
DICTIONARY
  5
1A
100
AcDbDictionary
281
1
  3
Layout1
350
1E
  3
Layout2
350
26
  3
Model
350
22
  0
LAYOUT
  5
1E
100
AcDbPlotSettings
  1

  2
none_device
  4

  6

 40
0.0
 41
0.0
 42
0.0
 43
0.0
 44
0.0
 45
0.0
 46
0.0
 47
0.0
 48
0.0
 49
0.0
140
0.0
141
0.0
142
1.0
143
1.0
 70
688
 72
0
 73
0
 74
5
  7

 75
16
147
1.0
148
0.0
149
0.0
100
AcDbLayout
  1
Layout1
 70
1
 71
1
 10
0.0
 20
0.0
 11
420.0
 21
297.0
 12
0.0
 22
0.0
 32
0.0
 14
100000000000000000000.0
 24
100000000000000000000.0
 34
100000000000000000000.0
 15
-100000000000000000000.0
 25
-100000000000000000000.0
 35
-100000000000000000000.0
146
0.0
 13
0.0
 23
0.0
 33
0.0
 16
1.0
 26
0.0
 36
0.0
 17
0.0
 27
1.0
 37
0.0
 76
0
330
1B
  0
LAYOUT
  5
22
100
AcDbPlotSettings
  1

  2
none_device
  4

  6

 40
0.0
 41
0.0
 42
0.0
 43
0.0
 44
0.0
 45
0.0
 46
0.0
 47
0.0
 48
0.0
 49
0.0
140
0.0
141
0.0
142
1.0
143
1.0
 70
1712
 72
0
 73
0
 74
0
  7

 75
0
147
1.0
148
0.0
149
0.0
100
AcDbLayout
  1
Model
 70
1
 71
0
 10
0.0
 20
0.0
 11
12.0
 21
9.0
 12
0.0
 22
0.0
 32
0.0
 14
0.0
 24
0.0
 34
0.0
 15
0.0
 25
0.0
 35
0.0
146
0.0
 13
0.0
 23
0.0
 33
0.0
 16
1.0
 26
0.0
 36
0.0
 17
0.0
 27
1.0
 37
0.0
 76
0
330
1F
  0
LAYOUT
  5
26
100
AcDbPlotSettings
  1

  2
none_device
  4

  6

 40
0.0
 41
0.0
 42
0.0
 43
0.0
 44
0.0
 45
0.0
 46
0.0
 47
0.0
 48
0.0
 49
0.0
140
0.0
141
0.0
142
1.0
143
1.0
 70
688
 72
0
 73
0
 74
5
  7

 75
16
147
1.0
148
0.0
149
0.0
100
AcDbLayout
  1
Layout2
 70
1
 71
2
 10
0.0
 20
0.0
 11
12.0
 21
9.0
 12
0.0
 22
0.0
 32
0.0
 14
0.0
 24
0.0
 34
0.0
 15
0.0
 25
0.0
 35
0.0
146
0.0
 13
0.0
 23
0.0
 33
0.0
 16
1.0
 26
0.0
 36
0.0
 17
0.0
 27
1.0
 37
0.0
 76
0
330
23
  0
DICTIONARY
  5
E3
100
AcDbDictionary
281
1
  3
DIMASSOC
350
E6
  3
HIDETEXT
350
E5
  0
DICTIONARYVAR
  5
E5
100
DictionaryVariables
280
0
  1
2
  0
DICTIONARYVAR
  5
E6
100
DictionaryVariables
280
0
  1
1
  0
DICTIONARY
  5
E4
100
AcDbDictionary
281
1
  3
Grid/DisplayGrid00
350
E7
  3
Grid/DisplayGrid01
350
E8
  3
Grid/DisplayGrid02
350
E9
  3
Grid/DisplayGrid03
350
EA
  3
Grid/GridSpacingX00
350
EB
  3
Grid/GridSpacingX01
350
EC
  3
Grid/GridSpacingX02
350
ED
  3
Grid/GridSpacingX03
350
EE
  3
Grid/GridSpacingY00
350
EF
  3
Grid/GridSpacingY01
350
F0
  3
Grid/GridSpacingY02
350
F1
  3
Grid/GridSpacingY03
350
F2
  3
Grid/IsometricGrid00
350
F3
  3
Grid/IsometricGrid01
350
F4
  3
Grid/IsometricGrid02
350
F5
  3
Grid/IsometricGrid03
350
F6
  3
Grid/IsometricProjection00
350
F7
  3
Grid/IsometricProjection01
350
F8
  3
Grid/IsometricProjection02
350
F9
  3
Grid/IsometricProjection03
350
FA
  3
Grid/MetaGridSpacingX00
350
FB
  3
Grid/MetaGridSpacingX01
350
FC
  3
Grid/MetaGridSpacingX02
350
FD
  3
Grid/MetaGridSpacingX03
350
FE
  3
Grid/MetaGridSpacingY00
350
FF
  3
Grid/MetaGridSpacingY01
350
100
  3
Grid/MetaGridSpacingY02
350
101
  3
Grid/MetaGridSpacingY03
350
102
  3
MultiPageSettings/Columns
350
103
  3
MultiPageSettings/GlueMarginsBottom
350
104
  3
MultiPageSettings/GlueMarginsLeft
350
105
  3
MultiPageSettings/GlueMarginsRight
350
106
  3
MultiPageSettings/GlueMarginsTop
350
107
  3
MultiPageSettings/PrintCropMarks
350
108
  3
MultiPageSettings/Rows
350
109
  3
PageSettings/OffsetX
350
10A
  3
PageSettings/OffsetY
350
10B
  3
PageSettings/PageOrientation
350
10C
  3
PageSettings/PaperHeight
350
10D
  3
PageSettings/PaperWidth
350
10E
  3
PageSettings/Scale
350
10F
  3
PageSettings/ShowPaperBorders
350
110
  3
UnitSettings/PaperUnit
350
111
  0
XRECORD
  5
E7
330
E4
100
AcDbXrecord
280
1
290
1
  0
XRECORD
  5
E8
330
E4
100
AcDbXrecord
280
1
290
1
  0
XRECORD
  5
E9
330
E4
100
AcDbXrecord
280
1
290
1
  0
XRECORD
  5
EA
330
E4
100
AcDbXrecord
280
1
290
1
  0
XRECORD
  5
EB
330
E4
100
AcDbXrecord
280
1
1000
auto
  0
XRECORD
  5
EC
330
E4
100
AcDbXrecord
280
1
1000
auto
  0
XRECORD
  5
ED
330
E4
100
AcDbXrecord
280
1
1000
auto
  0
XRECORD
  5
EE
330
E4
100
AcDbXrecord
280
1
1000
auto
  0
XRECORD
  5
EF
330
E4
100
AcDbXrecord
280
1
1000
auto
  0
XRECORD
  5
F0
330
E4
100
AcDbXrecord
280
1
1000
auto
  0
XRECORD
  5
F1
330
E4
100
AcDbXrecord
280
1
1000
auto
  0
XRECORD
  5
F2
330
E4
100
AcDbXrecord
280
1
1000
auto
  0
XRECORD
  5
F3
330
E4
100
AcDbXrecord
280
1
290
0
  0
XRECORD
  5
F4
330
E4
100
AcDbXrecord
280
1
290
0
  0
XRECORD
  5
F5
330
E4
100
AcDbXrecord
280
1
290
0
  0
XRECORD
  5
F6
330
E4
100
AcDbXrecord
280
1
290
0
  0
XRECORD
  5
F7
330
E4
100
AcDbXrecord
280
1
 90
0
  0
XRECORD
  5
F8
330
E4
100
AcDbXrecord
280
1
 90
0
  0
XRECORD
  5
F9
330
E4
100
AcDbXrecord
280
1
 90
0
  0
XRECORD
  5
FA
330
E4
100
AcDbXrecord
280
1
 90
0
  0
XRECORD
  5
FB
330
E4
100
AcDbXrecord
280
1
1000
auto
  0
XRECORD
  5
FC
330
E4
100
AcDbXrecord
280
1
1000
auto
  0
XRECORD
  5
FD
330
E4
100
AcDbXrecord
280
1
1000
auto
  0
XRECORD
  5
FE
330
E4
100
AcDbXrecord
280
1
1000
auto
  0
XRECORD
  5
FF
330
E4
100
AcDbXrecord
280
1
1000
auto
  0
XRECORD
  5
100
330
E4
100
AcDbXrecord
280
1
1000
auto
  0
XRECORD
  5
101
330
E4
100
AcDbXrecord
280
1
1000
auto
  0
XRECORD
  5
102
330
E4
100
AcDbXrecord
280
1
1000
auto
  0
XRECORD
  5
103
330
E4
100
AcDbXrecord
280
1
 90
1
  0
XRECORD
  5
104
330
E4
100
AcDbXrecord
280
1
 40
10.0
  0
XRECORD
  5
105
330
E4
100
AcDbXrecord
280
1
 40
10.0
  0
XRECORD
  5
106
330
E4
100
AcDbXrecord
280
1
 40
10.0
  0
XRECORD
  5
107
330
E4
100
AcDbXrecord
280
1
 40
10.0
  0
XRECORD
  5
108
330
E4
100
AcDbXrecord
280
1
290
0
  0
XRECORD
  5
109
330
E4
100
AcDbXrecord
280
1
 90
1
  0
XRECORD
  5
10A
330
E4
100
AcDbXrecord
280
1
 40
0.0
  0
XRECORD
  5
10B
330
E4
100
AcDbXrecord
280
1
 40
0.0
  0
XRECORD
  5
10C
330
E4
100
AcDbXrecord
280
1
1000
Portrait
  0
XRECORD
  5
10D
330
E4
100
AcDbXrecord
280
1
 40
297.0
  0
XRECORD
  5
10E
330
E4
100
AcDbXrecord
280
1
 40
210.0
  0
XRECORD
  5
10F
330
E4
100
AcDbXrecord
280
1
1000
1:1
  0
XRECORD
  5
110
330
E4
100
AcDbXrecord
280
1
290
1
  0
XRECORD
  5
111
330
E4
100
AcDbXrecord
280
1
 90
4
  0
ENDSEC
  0
EOF
