  0
SECTION
  2
HEADER
  9
$ACADVER
  1
<<<<<<< HEAD
AC1009
  9
$DWGCODEPAGE
  3
ansi_1252
=======
AC1015
  9
$ACADMAINTVER
 70
     6
  9
$DWGCODEPAGE
  3
ANSI_1252
>>>>>>> 580791ae879149a2de0c38393dbcf98448d8f7c3
  9
$INSBASE
 10
0.0
 20
0.0
 30
0.0
  9
$EXTMIN
 10
<<<<<<< HEAD
-95.98
 20
-39.56
=======
-95.92
 20
-39.5
>>>>>>> 580791ae879149a2de0c38393dbcf98448d8f7c3
 30
0.0
  9
$EXTMAX
 10
<<<<<<< HEAD
95.98
 20
395.06
=======
95.92
 20
395.0
>>>>>>> 580791ae879149a2de0c38393dbcf98448d8f7c3
 30
0.0
  9
$LIMMIN
 10
0.0
 20
0.0
  9
$LIMMAX
 10
420.0
 20
297.0
  9
$ORTHOMODE
 70
     0
  9
$REGENMODE
 70
     1
  9
$FILLMODE
 70
     1
  9
$QTEXTMODE
 70
     0
  9
$MIRRTEXT
 70
     1
  9
<<<<<<< HEAD
$DRAGMODE
 70
     2
  9
=======
>>>>>>> 580791ae879149a2de0c38393dbcf98448d8f7c3
$LTSCALE
 40
1.0
  9
<<<<<<< HEAD
$OSMODE
 70
    37
  9
=======
>>>>>>> 580791ae879149a2de0c38393dbcf98448d8f7c3
$ATTMODE
 70
     1
  9
$TEXTSIZE
 40
3.5
  9
$TRACEWID
 40
1.0
  9
$TEXTSTYLE
  7
<<<<<<< HEAD
STANDARD
=======
Standard
>>>>>>> 580791ae879149a2de0c38393dbcf98448d8f7c3
  9
$CLAYER
  8
0
  9
$CELTYPE
  6
<<<<<<< HEAD
BYLAYER
=======
ByLayer
>>>>>>> 580791ae879149a2de0c38393dbcf98448d8f7c3
  9
$CECOLOR
 62
   256
  9
<<<<<<< HEAD
=======
$CELTSCALE
 40
1.0
  9
$DISPSILH
 70
     0
  9
>>>>>>> 580791ae879149a2de0c38393dbcf98448d8f7c3
$DIMSCALE
 40
1.0
  9
$DIMASZ
 40
3.556
  9
$DIMEXO
 40
1.0
  9
$DIMDLI
 40
3.75
  9
$DIMRND
 40
0.0
  9
$DIMDLE
 40
0.0
  9
$DIMEXE
 40
1.0
  9
$DIMTP
 40
0.0
  9
$DIMTM
 40
0.0
  9
$DIMTXT
 40
3.5
  9
$DIMCEN
 40
2.5
  9
$DIMTSZ
 40
0.0
  9
$DIMTOL
 70
     0
  9
$DIMLIM
 70
     0
  9
$DIMTIH
 70
     1
  9
$DIMTOH
 70
     1
  9
$DIMSE1
 70
     0
  9
$DIMSE2
 70
     0
  9
$DIMTAD
 70
     1
  9
$DIMZIN
 70
     0
  9
$DIMBLK
  1

  9
$DIMASO
 70
     1
  9
$DIMSHO
 70
     1
  9
$DIMPOST
  1

  9
$DIMAPOST
  1

  9
$DIMALT
 70
     0
  9
$DIMALTD
 70
     3
  9
$DIMALTF
 40
0.0393700787
  9
$DIMLFAC
 40
1.0
  9
$DIMTOFL
 70
     1
  9
$DIMTVP
 40
0.0
  9
$DIMTIX
 70
     0
  9
$DIMSOXD
 70
     0
  9
$DIMSAH
 70
     0
  9
$DIMBLK1
  1

  9
$DIMBLK2
  1

  9
$DIMSTYLE
  2
ISO-25
  9
$DIMCLRD
 70
     0
  9
$DIMCLRE
 70
     0
  9
$DIMCLRT
 70
     0
  9
$DIMTFAC
 40
1.0
  9
$DIMGAP
 40
1.524
  9
<<<<<<< HEAD
=======
$DIMJUST
 70
     0
  9
$DIMSD1
 70
     0
  9
$DIMSD2
 70
     0
  9
$DIMTOLJ
 70
     0
  9
$DIMTZIN
 70
     0
  9
$DIMALTZ
 70
     0
  9
$DIMALTTZ
 70
     0
  9
$DIMUPT
 70
     0
  9
$DIMDEC
 70
     2
  9
$DIMTDEC
 70
     2
  9
$DIMALTU
 70
     2
  9
$DIMALTTD
 70
     3
  9
$DIMTXSTY
  7
Standard
  9
$DIMAUNIT
 70
     0
  9
$DIMADEC
 70
     2
  9
$DIMALTRND
 40
0.0
  9
$DIMAZIN
 70
     0
  9
$DIMDSEP
 70
    44
  9
$DIMATFIT
 70
     3
  9
$DIMFRAC
 70
     0
  9
$DIMLDRBLK
  1

  9
$DIMLUNIT
 70
     2
  9
$DIMLWD
 70
    -2
  9
$DIMLWE
 70
    -2
  9
$DIMTMOVE
 70
     0
  9
>>>>>>> 580791ae879149a2de0c38393dbcf98448d8f7c3
$LUNITS
 70
     2
  9
$LUPREC
 70
     2
  9
$SKETCHINC
 40
1.0
  9
$FILLETRAD
 40
10.0
  9
$AUNITS
 70
     0
  9
$AUPREC
 70
     2
  9
$MENU
  1
.
  9
$ELEVATION
 40
0.0
  9
$PELEVATION
 40
0.0
  9
$THICKNESS
 40
0.0
  9
$LIMCHECK
 70
     0
  9
$CHAMFERA
 40
0.0
  9
$CHAMFERB
 40
0.0
  9
<<<<<<< HEAD
=======
$CHAMFERC
 40
0.0
  9
$CHAMFERD
 40
0.0
  9
>>>>>>> 580791ae879149a2de0c38393dbcf98448d8f7c3
$SKPOLY
 70
     0
  9
$TDCREATE
 40
<<<<<<< HEAD
2457850.399752002
  9
$TDUPDATE
 40
2457850.399765324
=======
2457361.632822674
  9
$TDUCREATE
 40
2457361.632822674
  9
$TDUPDATE
 40
2457361.632849433
  9
$TDUUPDATE
 40
2457361.632849433
>>>>>>> 580791ae879149a2de0c38393dbcf98448d8f7c3
  9
$TDINDWG
 40
0.0000000116
  9
$TDUSRTIMER
 40
0.0000000116
  9
$USRTIMER
 70
     1
  9
$ANGBASE
 50
0.0
  9
$ANGDIR
 70
     0
  9
$PDMODE
 70
     0
  9
$PDSIZE
 40
-1.0
  9
$PLINEWID
 40
0.0
  9
<<<<<<< HEAD
$COORDS
 70
     1
  9
=======
>>>>>>> 580791ae879149a2de0c38393dbcf98448d8f7c3
$SPLFRAME
 70
     0
  9
$SPLINETYPE
 70
     6
  9
$SPLINESEGS
 70
     8
  9
<<<<<<< HEAD
$ATTDIA
 70
     0
  9
$ATTREQ
 70
     1
  9
$HANDLING
 70
     1
  9
$HANDSEED
  5
112
=======
$HANDSEED
  5
1A5
>>>>>>> 580791ae879149a2de0c38393dbcf98448d8f7c3
  9
$SURFTAB1
 70
     6
  9
$SURFTAB2
 70
     6
  9
$SURFTYPE
 70
     6
  9
$SURFU
 70
     6
  9
$SURFV
 70
     6
  9
<<<<<<< HEAD
=======
$UCSBASE
  2

  9
>>>>>>> 580791ae879149a2de0c38393dbcf98448d8f7c3
$UCSNAME
  2

  9
$UCSORG
 10
0.0
 20
0.0
 30
0.0
  9
$UCSXDIR
 10
1.0
 20
0.0
 30
0.0
  9
$UCSYDIR
 10
0.0
 20
1.0
 30
0.0
  9
<<<<<<< HEAD
=======
$UCSORTHOREF
  2

  9
$UCSORTHOVIEW
 70
     0
  9
$UCSORGTOP
 10
0.0
 20
0.0
 30
0.0
  9
$UCSORGBOTTOM
 10
0.0
 20
0.0
 30
0.0
  9
$UCSORGLEFT
 10
0.0
 20
0.0
 30
0.0
  9
$UCSORGRIGHT
 10
0.0
 20
0.0
 30
0.0
  9
$UCSORGFRONT
 10
0.0
 20
0.0
 30
0.0
  9
$UCSORGBACK
 10
0.0
 20
0.0
 30
0.0
  9
$PUCSBASE
  2

  9
>>>>>>> 580791ae879149a2de0c38393dbcf98448d8f7c3
$PUCSNAME
  2

  9
$PUCSORG
 10
0.0
 20
0.0
 30
0.0
  9
$PUCSXDIR
 10
1.0
 20
0.0
 30
0.0
  9
$PUCSYDIR
 10
0.0
 20
1.0
 30
0.0
  9
<<<<<<< HEAD
=======
$PUCSORTHOREF
  2

  9
$PUCSORTHOVIEW
 70
     0
  9
$PUCSORGTOP
 10
0.0
 20
0.0
 30
0.0
  9
$PUCSORGBOTTOM
 10
0.0
 20
0.0
 30
0.0
  9
$PUCSORGLEFT
 10
0.0
 20
0.0
 30
0.0
  9
$PUCSORGRIGHT
 10
0.0
 20
0.0
 30
0.0
  9
$PUCSORGFRONT
 10
0.0
 20
0.0
 30
0.0
  9
$PUCSORGBACK
 10
0.0
 20
0.0
 30
0.0
  9
>>>>>>> 580791ae879149a2de0c38393dbcf98448d8f7c3
$USERI1
 70
     0
  9
$USERI2
 70
     0
  9
$USERI3
 70
     0
  9
$USERI4
 70
     0
  9
$USERI5
 70
     0
  9
$USERR1
 40
0.0
  9
$USERR2
 40
0.0
  9
$USERR3
 40
0.0
  9
$USERR4
 40
0.0
  9
$USERR5
 40
0.0
  9
$WORLDVIEW
 70
     1
  9
$SHADEDGE
 70
     3
  9
$SHADEDIF
 70
    70
  9
$TILEMODE
 70
     1
  9
$MAXACTVP
 70
    64
  9
<<<<<<< HEAD
=======
$PINSBASE
 10
0.0
 20
0.0
 30
0.0
  9
>>>>>>> 580791ae879149a2de0c38393dbcf98448d8f7c3
$PLIMCHECK
 70
     0
  9
$PEXTMIN
 10
1.0000000000E+20
 20
1.0000000000E+20
 30
1.0000000000E+20
  9
$PEXTMAX
 10
-1.0000000000E+20
 20
-1.0000000000E+20
 30
-1.0000000000E+20
  9
$PLIMMIN
 10
0.0
 20
0.0
  9
$PLIMMAX
 10
420.0
 20
297.0
  9
$UNITMODE
 70
     0
  9
$VISRETAIN
 70
     1
  9
$PLINEGEN
 70
     0
  9
$PSLTSCALE
 70
     1
<<<<<<< HEAD
  0
ENDSEC
  0
SECTION
  2
TABLES
  0
TABLE
  2
VPORT
 70
     1
  0
VPORT
  2
*ACTIVE
 70
     0
 10
0.0
 20
0.0
 11
1.0
 21
1.0
 12
0.0
 22
177.75
 13
=======
  9
$TREEDEPTH
 70
  3020
  9
$CMLSTYLE
  2
Standard
  9
$CMLJUST
 70
     0
  9
$CMLSCALE
 40
20.0
  9
$PROXYGRAPHICS
 70
     1
  9
$MEASUREMENT
 70
     1
  9
$CELWEIGHT
370
    -1
  9
$ENDCAPS
280
     0
  9
$JOINSTYLE
280
     0
  9
$LWDISPLAY
290
     1
  9
$INSUNITS
 70
     4
  9
$HYPERLINKBASE
  1

  9
$STYLESHEET
  1

  9
$XEDIT
290
     1
  9
$CEPSNTYPE
380
     0
  9
$PSTYLEMODE
290
     1
  9
$FINGERPRINTGUID
  2
{087374BD-838D-4ABD-A1D0-3946519CE723}
  9
$VERSIONGUID
  2
{FAEB1C32-E019-11D5-929B-00C0DF256EC4}
  9
$EXTNAMES
290
     1
  9
$PSVPSCALE
 40
0.0
  9
$OLESTARTUP
290
     0
  0
ENDSEC
  0
SECTION
  2
CLASSES
  0
CLASS
  1
ACDBDICTIONARYWDFLT
  2
AcDbDictionaryWithDefault
  3
ObjectDBX Classes
 90
        0
280
     0
281
     0
  0
CLASS
  1
VISUALSTYLE
  2
AcDbVisualStyle
  3
ObjectDBX Classes
 90
     4095
280
     0
281
     0
  0
CLASS
  1
MATERIAL
  2
AcDbMaterial
  3
ObjectDBX Classes
 90
     1153
280
     0
281
     0
  0
CLASS
  1
SCALE
  2
AcDbScale
  3
ObjectDBX Classes
 90
     1153
280
     0
281
     0
  0
CLASS
  1
TABLESTYLE
  2
AcDbTableStyle
  3
ObjectDBX Classes
 90
     4095
280
     0
281
     0
  0
CLASS
  1
MLEADERSTYLE
  2
AcDbMLeaderStyle
  3
ACDB_MLEADERSTYLE_CLASS
 90
     4095
280
     0
281
     0
  0
CLASS
  1
SUN
  2
AcDbSun
  3
SCENEOE
 90
     1153
280
     0
281
     0
  0
CLASS
  1
ACDBPLACEHOLDER
  2
AcDbPlaceHolder
  3
ObjectDBX Classes
 90
        0
280
     0
281
     0
  0
CLASS
  1
LAYOUT
  2
AcDbLayout
  3
ObjectDBX Classes
 90
        0
280
     0
281
     0
  0
ENDSEC
  0
SECTION
  2
TABLES
  0
TABLE
  2
VPORT
  5
8
330
0
100
AcDbSymbolTable
 70
     1
  0
VPORT
  5
29
330
8
100
AcDbSymbolTableRecord
100
AcDbViewportTableRecord
  2
*Active
 70
     0
 10
0.0
 20
0.0
 11
1.0
 21
1.0
 12
0.0
 22
177.75
 13
>>>>>>> 580791ae879149a2de0c38393dbcf98448d8f7c3
0.0
 23
0.0
 14
10.0
 24
10.0
 15
10.0
 25
10.0
 16
0.0
 26
0.0
 36
1.0
 17
0.0
 27
0.0
 37
0.0
 40
<<<<<<< HEAD
443.3124
 41
0.4416731858
=======
443.19
 41
0.4415189873
>>>>>>> 580791ae879149a2de0c38393dbcf98448d8f7c3
 42
50.0
 43
0.0
 44
0.0
 50
0.0
 51
0.0
 71
     0
 72
   100
 73
     1
 74
     3
 75
     0
 76
     0
 77
     0
 78
     0
<<<<<<< HEAD
=======
281
     0
 65
     1
110
0.0
120
0.0
130
0.0
111
1.0
121
0.0
131
0.0
112
0.0
122
1.0
132
0.0
 79
     0
146
0.0
>>>>>>> 580791ae879149a2de0c38393dbcf98448d8f7c3
  0
ENDTAB
  0
TABLE
  2
LTYPE
<<<<<<< HEAD
=======
  5
5
330
0
100
AcDbSymbolTable
>>>>>>> 580791ae879149a2de0c38393dbcf98448d8f7c3
 70
     6
  0
LTYPE
<<<<<<< HEAD
  2
CONTINUOUS
=======
  5
14
330
5
100
AcDbSymbolTableRecord
100
AcDbLinetypeTableRecord
  2
ByBlock
 70
     0
  3

 72
    65
 73
     0
 40
0.0
  0
LTYPE
  5
15
330
5
100
AcDbSymbolTableRecord
100
AcDbLinetypeTableRecord
  2
ByLayer
 70
     0
  3

 72
    65
 73
     0
 40
0.0
  0
LTYPE
  5
16
330
5
100
AcDbSymbolTableRecord
100
AcDbLinetypeTableRecord
  2
Continuous
>>>>>>> 580791ae879149a2de0c38393dbcf98448d8f7c3
 70
     0
  3
Solid line
 72
    65
 73
     0
 40
0.0
  0
LTYPE
<<<<<<< HEAD
=======
  5
6E
330
5
100
AcDbSymbolTableRecord
100
AcDbLinetypeTableRecord
>>>>>>> 580791ae879149a2de0c38393dbcf98448d8f7c3
  2
HIDDEN
 70
     0
  3
Hidden __ __ __ __ __ __ __ __ __ __ __ __ __ __
 72
    65
 73
     2
 40
1.905
 49
1.27
<<<<<<< HEAD
 49
-0.635
  0
LTYPE
=======
 74
     0
 49
-0.635
 74
     0
  0
LTYPE
  5
6F
330
5
100
AcDbSymbolTableRecord
100
AcDbLinetypeTableRecord
>>>>>>> 580791ae879149a2de0c38393dbcf98448d8f7c3
  2
PHANTOM
 70
     0
  3
Phantom ______  __  __  ______  __  __  ______
 72
    65
 73
     6
 40
12.7
 49
6.35
<<<<<<< HEAD
 49
-1.27
 49
1.27
 49
-1.27
 49
1.27
 49
-1.27
  0
LTYPE
=======
 74
     0
 49
-1.27
 74
     0
 49
1.27
 74
     0
 49
-1.27
 74
     0
 49
1.27
 74
     0
 49
-1.27
 74
     0
  0
LTYPE
  5
70
330
5
100
AcDbSymbolTableRecord
100
AcDbLinetypeTableRecord
>>>>>>> 580791ae879149a2de0c38393dbcf98448d8f7c3
  2
CENTER
 70
     0
  3
Center ____ _ ____ _ ____ _ ____ _ ____ _ ____
 72
    65
 73
     4
 40
10.16
 49
6.35
<<<<<<< HEAD
 49
-1.27
 49
1.27
 49
-1.27
  0
LTYPE
=======
 74
     0
 49
-1.27
 74
     0
 49
1.27
 74
     0
 49
-1.27
 74
     0
  0
LTYPE
  5
71
330
5
100
AcDbSymbolTableRecord
100
AcDbLinetypeTableRecord
>>>>>>> 580791ae879149a2de0c38393dbcf98448d8f7c3
  2
CENTERX2
 70
     0
  3
Center (2x) ________  __  ________  __  _____
 72
    65
 73
     4
 40
20.32
 49
12.7
<<<<<<< HEAD
 49
-2.54
 49
2.54
 49
-2.54
  0
LTYPE
=======
 74
     0
 49
-2.54
 74
     0
 49
2.54
 74
     0
 49
-2.54
 74
     0
  0
LTYPE
  5
72
330
5
100
AcDbSymbolTableRecord
100
AcDbLinetypeTableRecord
>>>>>>> 580791ae879149a2de0c38393dbcf98448d8f7c3
  2
DOT2
 70
     0
  3
Dot (.5x) ........................................
 72
    65
 73
     2
 40
0.635
 49
0.0
<<<<<<< HEAD
 49
-0.635
=======
 74
     0
 49
-0.635
 74
     0
>>>>>>> 580791ae879149a2de0c38393dbcf98448d8f7c3
  0
ENDTAB
  0
TABLE
  2
LAYER
<<<<<<< HEAD
=======
  5
2
330
0
100
AcDbSymbolTable
>>>>>>> 580791ae879149a2de0c38393dbcf98448d8f7c3
 70
     1
  0
LAYER
<<<<<<< HEAD
=======
  5
10
330
2
100
AcDbSymbolTableRecord
100
AcDbLayerTableRecord
>>>>>>> 580791ae879149a2de0c38393dbcf98448d8f7c3
  2
0
 70
     0
 62
     7
  6
<<<<<<< HEAD
CONTINUOUS
=======
Continuous
370
    -3
390
F
>>>>>>> 580791ae879149a2de0c38393dbcf98448d8f7c3
  0
ENDTAB
  0
TABLE
  2
STYLE
<<<<<<< HEAD
=======
  5
3
330
0
100
AcDbSymbolTable
>>>>>>> 580791ae879149a2de0c38393dbcf98448d8f7c3
 70
     1
  0
STYLE
<<<<<<< HEAD
  2
STANDARD
=======
  5
11
330
3
100
AcDbSymbolTableRecord
100
AcDbTextStyleTableRecord
  2
Standard
>>>>>>> 580791ae879149a2de0c38393dbcf98448d8f7c3
 70
     0
 40
0.0
 41
1.0
 50
0.0
 71
     0
 42
3.5
  3
txt
  4

  0
ENDTAB
  0
TABLE
  2
VIEW
<<<<<<< HEAD
=======
  5
6
330
0
100
AcDbSymbolTable
>>>>>>> 580791ae879149a2de0c38393dbcf98448d8f7c3
 70
     0
  0
ENDTAB
  0
TABLE
  2
UCS
<<<<<<< HEAD
=======
  5
7
330
0
100
AcDbSymbolTable
>>>>>>> 580791ae879149a2de0c38393dbcf98448d8f7c3
 70
     0
  0
ENDTAB
  0
TABLE
  2
APPID
<<<<<<< HEAD
=======
  5
9
330
0
100
AcDbSymbolTable
>>>>>>> 580791ae879149a2de0c38393dbcf98448d8f7c3
 70
     1
  0
APPID
<<<<<<< HEAD
=======
  5
12
330
9
100
AcDbSymbolTableRecord
100
AcDbRegAppTableRecord
>>>>>>> 580791ae879149a2de0c38393dbcf98448d8f7c3
  2
ACAD
 70
     0
  0
ENDTAB
  0
TABLE
  2
DIMSTYLE
<<<<<<< HEAD
 70
     1
  0
DIMSTYLE
=======
  5
A
330
0
100
AcDbSymbolTable
 70
     1
100
AcDbDimStyleTable
  0
DIMSTYLE
105
27
330
A
100
AcDbSymbolTableRecord
100
AcDbDimStyleTableRecord
>>>>>>> 580791ae879149a2de0c38393dbcf98448d8f7c3
  2
ISO-25
 70
     0
<<<<<<< HEAD
  3

  4

  5

  6

  7

 40
1.0
=======
>>>>>>> 580791ae879149a2de0c38393dbcf98448d8f7c3
 41
2.5
 42
0.625
 43
3.75
 44
1.25
<<<<<<< HEAD
 45
0.0
 46
0.0
 47
0.0
 48
0.0
140
2.5
141
2.5
142
0.0
143
0.0393700787
144
1.0
145
0.0
146
1.0
147
0.625
 71
     0
 72
     0
=======
>>>>>>> 580791ae879149a2de0c38393dbcf98448d8f7c3
 73
     0
 74
     0
<<<<<<< HEAD
 75
     0
 76
     0
=======
>>>>>>> 580791ae879149a2de0c38393dbcf98448d8f7c3
 77
     1
 78
     8
<<<<<<< HEAD
170
     0
=======
140
2.5
141
2.5
143
0.0393700787
147
0.625
>>>>>>> 580791ae879149a2de0c38393dbcf98448d8f7c3
171
     3
172
     1
<<<<<<< HEAD
173
     0
174
     0
175
     0
176
     0
177
     0
178
     0
=======
178
     0
271
     2
272
     2
274
     3
278
    44
283
     0
284
     8
340
11
  0
ENDTAB
  0
TABLE
  2
BLOCK_RECORD
  5
1
330
0
100
AcDbSymbolTable
 70
     1
  0
BLOCK_RECORD
  5
1F
330
1
100
AcDbSymbolTableRecord
100
AcDbBlockTableRecord
  2
*Model_Space
340
22
  0
BLOCK_RECORD
  5
1B
330
1
100
AcDbSymbolTableRecord
100
AcDbBlockTableRecord
  2
*Paper_Space
340
1E
  0
BLOCK_RECORD
  5
23
330
1
100
AcDbSymbolTableRecord
100
AcDbBlockTableRecord
  2
*Paper_Space0
340
26
>>>>>>> 580791ae879149a2de0c38393dbcf98448d8f7c3
  0
ENDTAB
  0
ENDSEC
  0
SECTION
  2
BLOCKS
  0
BLOCK
<<<<<<< HEAD
  8
0
  2
$MODEL_SPACE
=======
  5
20
330
1F
100
AcDbEntity
  8
0
100
AcDbBlockBegin
  2
*Model_Space
>>>>>>> 580791ae879149a2de0c38393dbcf98448d8f7c3
 70
     0
 10
0.0
 20
0.0
 30
0.0
  3
<<<<<<< HEAD
$MODEL_SPACE
=======
*Model_Space
>>>>>>> 580791ae879149a2de0c38393dbcf98448d8f7c3
  1

  0
ENDBLK
  5
21
<<<<<<< HEAD
  8
0
  0
BLOCK
=======
330
1F
100
AcDbEntity
  8
0
100
AcDbBlockEnd
  0
BLOCK
  5
1C
330
1B
100
AcDbEntity
>>>>>>> 580791ae879149a2de0c38393dbcf98448d8f7c3
 67
     1
  8
0
<<<<<<< HEAD
  2
$PAPER_SPACE
=======
100
AcDbBlockBegin
  2
*Paper_Space
>>>>>>> 580791ae879149a2de0c38393dbcf98448d8f7c3
 70
     0
 10
0.0
 20
0.0
 30
0.0
  3
<<<<<<< HEAD
$PAPER_SPACE
=======
*Paper_Space
>>>>>>> 580791ae879149a2de0c38393dbcf98448d8f7c3
  1

  0
ENDBLK
  5
1D
<<<<<<< HEAD
=======
330
1B
100
AcDbEntity
>>>>>>> 580791ae879149a2de0c38393dbcf98448d8f7c3
 67
     1
  8
0
<<<<<<< HEAD
=======
100
AcDbBlockEnd
  0
BLOCK
  5
24
330
23
100
AcDbEntity
  8
0
100
AcDbBlockBegin
  2
*Paper_Space0
 70
     0
 10
0.0
 20
0.0
 30
0.0
  3
*Paper_Space0
  1

  0
ENDBLK
  5
25
330
23
100
AcDbEntity
  8
0
100
AcDbBlockEnd
>>>>>>> 580791ae879149a2de0c38393dbcf98448d8f7c3
  0
ENDSEC
  0
SECTION
  2
ENTITIES
  0
CIRCLE
  5
<<<<<<< HEAD
73
  8
0
  6
CONTINUOUS
 62
     7
 10
-32.0
 20
337.06
 30
0.0
 40
3.000000000000004
  0
CIRCLE
  5
74
  8
0
  6
CONTINUOUS
 62
     7
 10
-32.0
 20
344.56
 30
0.0
 40
1.500000000000004
  0
CIRCLE
  5
75
  8
0
  6
CONTINUOUS
 62
     7
 10
-32.0
 20
375.56
 30
0.0
 40
1.500000000000004
  0
CIRCLE
  5
76
  8
0
  6
CONTINUOUS
 62
     7
 10
-89.02
 20
-31.0
 30
0.0
 40
1.439999999999998
  0
CIRCLE
  5
77
  8
0
  6
CONTINUOUS
 62
     7
 10
-89.02
=======
107
330
1F
100
AcDbEntity
  8
0
  6
Continuous
 62
     7
370
    15
100
AcDbCircle
 10
7.5
 20
383.9
 30
0.0
 40
1.599999999999951
  0
CIRCLE
  5
108
330
1F
100
AcDbEntity
  8
0
  6
Continuous
 62
     7
370
    15
100
AcDbCircle
 10
0.0
 20
392.0
 30
0.0
 40
1.50000000000005
  0
CIRCLE
  5
109
330
1F
100
AcDbEntity
  8
0
  6
Continuous
 62
     7
370
    15
100
AcDbCircle
 10
-23.5
 20
383.9
 30
0.0
 40
1.599999999999952
  0
CIRCLE
  5
10A
330
1F
100
AcDbEntity
  8
0
  6
Continuous
 62
     7
370
    15
100
AcDbCircle
 10
0.0
 20
287.5
 30
0.0
 40
1.600000000000046
  0
CIRCLE
  5
10B
330
1F
100
AcDbEntity
  8
0
  6
Continuous
 62
     7
370
    15
100
AcDbCircle
 10
89.02
>>>>>>> 580791ae879149a2de0c38393dbcf98448d8f7c3
 20
0.0
 30
0.0
 40
<<<<<<< HEAD
1.439999999999998
  0
CIRCLE
  5
78
  8
0
  6
CONTINUOUS
 62
     7
 10
-46.0
 20
-23.8
 30
0.0
 40
3.940000000000005
  0
CIRCLE
  5
79
  8
0
  6
CONTINUOUS
 62
     7
=======
1.499999999999972
  0
CIRCLE
  5
10C
330
1F
100
AcDbEntity
  8
0
  6
Continuous
 62
     7
370
    15
100
AcDbCircle
 10
89.02
 20
-31.0
 30
0.0
 40
1.500000000000014
  0
CIRCLE
  5
10D
330
1F
100
AcDbEntity
  8
0
  6
Continuous
 62
     7
370
    15
100
AcDbCircle
>>>>>>> 580791ae879149a2de0c38393dbcf98448d8f7c3
 10
0.0
 20
8.0
 30
0.0
 40
<<<<<<< HEAD
1.440000000000002
  0
CIRCLE
  5
7A
  8
0
  6
CONTINUOUS
 62
     7
 10
89.02
 20
-31.0
 30
0.0
 40
1.439999999999998
  0
CIRCLE
  5
7B
  8
0
  6
CONTINUOUS
 62
     7
 10
89.02
=======
1.500000000000002
  0
CIRCLE
  5
10E
330
1F
100
AcDbEntity
  8
0
  6
Continuous
 62
     7
370
    15
100
AcDbCircle
 10
-46.0
 20
-23.8
 30
0.0
 40
4.000000000000014
  0
CIRCLE
  5
10F
330
1F
100
AcDbEntity
  8
0
  6
Continuous
 62
     7
370
    15
100
AcDbCircle
 10
-89.02
>>>>>>> 580791ae879149a2de0c38393dbcf98448d8f7c3
 20
0.0
 30
0.0
 40
<<<<<<< HEAD
1.439999999999969
  0
CIRCLE
  5
7C
  8
0
  6
CONTINUOUS
 62
     7
 10
0.0
 20
277.5
 30
0.0
 40
1.539999999999993
  0
CIRCLE
  5
7D
  8
0
  6
CONTINUOUS
 62
     7
 10
0.0
 20
392.0
 30
0.0
 40
1.440000000000008
  0
ARC
  5
7E
  8
0
  6
CONTINUOUS
 62
     7
 10
0.0
 20
392.0
 30
0.0
 40
3.06000000000019
 50
56.7829472697
 51
123.2170527303
  0
LINE
  5
7F
  8
0
  6
CONTINUOUS
 62
     7
 10
-1.6763054614
 20
394.56
 30
0.0
 11
-95.98
 21
394.56
=======
1.5
  0
CIRCLE
  5
110
330
1F
100
AcDbEntity
  8
0
  6
Continuous
 62
     7
370
    15
100
AcDbCircle
 10
-89.02
 20
-31.0
 30
0.0
 40
1.5
  0
LINE
  5
111
330
1F
100
AcDbEntity
  8
0
  6
Continuous
 62
     7
370
    15
100
AcDbLine
 10
-41.5
 20
-1.6
 30
0.0
 11
-41.5
 21
-14.1
 31
0.0
  0
LINE
  5
112
330
1F
100
AcDbEntity
  8
0
  6
Continuous
 62
     7
370
    15
100
AcDbLine
 10
-40.7
 20
-14.9
 30
0.0
 11
-27.3
 21
-14.9
 31
0.0
  0
LINE
  5
113
330
1F
100
AcDbEntity
  8
0
  6
Continuous
 62
     7
370
    15
100
AcDbLine
 10
-26.5
 20
-14.1
 30
0.0
 11
-26.5
 21
-1.6
>>>>>>> 580791ae879149a2de0c38393dbcf98448d8f7c3
 31
0.0
  0
LINE
  5
<<<<<<< HEAD
80
  8
0
  6
CONTINUOUS
 62
     7
 10
-95.98
 20
394.56
 30
0.0
 11
-95.98
 21
378.4653242734
 31
0.0
  0
ARC
  5
81
  8
0
  6
CONTINUOUS
 62
     7
 10
-105.92
 20
361.1794919243
 30
0.0
 40
19.93999999999996
 50
0.0
 51
60.0994879959
  0
LINE
  5
82
  8
0
  6
CONTINUOUS
 62
     7
 10
-85.98
 20
361.1794919243
 30
0.0
 11
-85.98
 21
289.438083152
 31
0.0
  0
ARC
  5
83
  8
0
  6
CONTINUOUS
 62
     7
 10
-85.92
 20
288.5
 30
0.0
 40
0.9400000000000119
 50
0.0
 51
93.6596653506
  0
LINE
  5
84
  8
0
  6
CONTINUOUS
 62
     7
 10
-84.98
 20
288.5
 30
0.0
 11
-84.98
 21
286.5
 31
0.0
  0
ARC
  5
85
  8
0
  6
CONTINUOUS
 62
     7
 10
-85.92
 20
286.5
 30
0.0
 40
0.9400000000000613
 50
266.3403346494
 51
=======
114
330
1F
100
AcDbEntity
  8
0
  6
Continuous
 62
     7
370
    15
100
AcDbLine
 10
-27.3
 20
-0.8
 30
0.0
 11
-40.7
 21
-0.8
 31
0.0
  0
LINE
  5
115
330
1F
100
AcDbEntity
  8
0
  6
Continuous
 62
     7
370
    15
100
AcDbLine
 10
-20.5
 20
-1.6
 30
0.0
 11
-20.5
 21
-3.0
 31
0.0
  0
LINE
  5
116
330
1F
100
AcDbEntity
  8
0
  6
Continuous
 62
     7
370
    15
100
AcDbLine
 10
-19.7
 20
-3.8
 30
0.0
 11
-6.3
 21
-3.8
 31
0.0
  0
LINE
  5
117
330
1F
100
AcDbEntity
  8
0
  6
Continuous
 62
     7
370
    15
100
AcDbLine
 10
-5.5
 20
-3.0
 30
0.0
 11
-5.5
 21
-1.6
 31
0.0
  0
LINE
  5
118
330
1F
100
AcDbEntity
  8
0
  6
Continuous
 62
     7
370
    15
100
AcDbLine
 10
-6.3
 20
-0.8
 30
0.0
 11
-19.7
 21
-0.8
 31
0.0
  0
LINE
  5
119
330
1F
100
AcDbEntity
  8
0
  6
Continuous
 62
     7
370
    15
100
AcDbLine
 10
-4.0
 20
0.9
 30
0.0
 11
-4.0
 21
-6.5
 31
>>>>>>> 580791ae879149a2de0c38393dbcf98448d8f7c3
0.0
  0
LINE
  5
<<<<<<< HEAD
86
  8
0
  6
CONTINUOUS
 62
     7
 10
-85.98
 20
285.561916848
 30
0.0
 11
-85.98
 21
189.938083152
 31
0.0
  0
ARC
  5
87
  8
0
  6
CONTINUOUS
 62
     7
 10
-85.92
 20
189.0
 30
0.0
 40
0.9399999999999693
 50
0.0
 51
93.6596653506
  0
LINE
  5
88
  8
0
  6
CONTINUOUS
 62
     7
 10
-84.98
 20
189.0
 30
0.0
 11
-84.98
 21
187.0
 31
0.0
  0
ARC
  5
89
  8
0
  6
CONTINUOUS
 62
     7
 10
-85.92
 20
187.0
 30
0.0
 40
0.9399999999999753
 50
266.3403346494
 51
360.0
  0
LINE
  5
8A
  8
0
  6
CONTINUOUS
 62
     7
 10
-85.98
 20
186.061916848
 30
0.0
 11
-85.98
 21
53.938083152
 31
0.0
  0
ARC
  5
8B
  8
0
  6
CONTINUOUS
 62
     7
 10
-85.92
 20
53.0
 30
0.0
 40
0.9400000000000303
 50
0.0
 51
93.6596653506
  0
LINE
  5
8C
  8
0
  6
CONTINUOUS
 62
     7
 10
-84.98
=======
11A
330
1F
100
AcDbEntity
  8
0
  6
Continuous
 62
     7
370
    15
100
AcDbLine
 10
-3.2
 20
-7.3
 30
0.0
 11
8.2
 21
-7.3
 31
0.0
  0
LINE
  5
11B
330
1F
100
AcDbEntity
  8
0
  6
Continuous
 62
     7
370
    15
100
AcDbLine
 10
9.0
 20
-6.5
 30
0.0
 11
9.0
 21
0.9
 31
0.0
  0
LINE
  5
11C
330
1F
100
AcDbEntity
  8
0
  6
Continuous
 62
     7
370
    15
100
AcDbLine
 10
8.2
 20
1.7
 30
0.0
 11
-3.2
 21
1.7
 31
0.0
  0
LINE
  5
11D
330
1F
100
AcDbEntity
  8
0
  6
Continuous
 62
     7
370
    15
100
AcDbLine
 10
-69.92
 20
210.0
 30
0.0
 11
-69.92
 21
190.0
 31
0.0
  0
LINE
  5
11E
330
1F
100
AcDbEntity
  8
0
  6
Continuous
 62
     7
370
    15
100
AcDbLine
 10
-70.92
 20
189.0
 30
0.0
 11
-70.92
 21
187.0
 31
0.0
  0
LINE
  5
11F
330
1F
100
AcDbEntity
  8
0
  6
Continuous
 62
     7
370
    15
100
AcDbLine
 10
-69.92
 20
186.0
 30
0.0
 11
-69.92
 21
54.0
 31
0.0
  0
LINE
  5
120
330
1F
100
AcDbEntity
  8
0
  6
Continuous
 62
     7
370
    15
100
AcDbLine
 10
-70.92
>>>>>>> 580791ae879149a2de0c38393dbcf98448d8f7c3
 20
53.0
 30
0.0
 11
<<<<<<< HEAD
-84.98
=======
-70.92
>>>>>>> 580791ae879149a2de0c38393dbcf98448d8f7c3
 21
51.0
 31
0.0
  0
<<<<<<< HEAD
ARC
  5
8D
  8
0
  6
CONTINUOUS
 62
     7
 10
-85.92
 20
51.0
 30
0.0
 40
0.9400000000000321
 50
266.3403346494
 51
=======
LINE
  5
121
330
1F
100
AcDbEntity
  8
0
  6
Continuous
 62
     7
370
    15
100
AcDbLine
 10
-69.92
 20
50.0
 30
0.0
 11
-69.92
 21
30.0
 31
>>>>>>> 580791ae879149a2de0c38393dbcf98448d8f7c3
0.0
  0
LINE
  5
<<<<<<< HEAD
8E
  8
0
  6
CONTINUOUS
 62
     7
 10
-85.98
 20
50.061916848
 30
0.0
 11
-85.98
 21
27.8205080757
 31
0.0
  0
ARC
  5
8F
  8
0
  6
CONTINUOUS
 62
     7
 10
-105.92
 20
27.8205080757
 30
0.0
 40
19.93999999999999
 50
299.9005120041
 51
=======
122
330
1F
100
AcDbEntity
  8
0
  6
Continuous
 62
     7
370
    15
100
AcDbLine
 10
-59.92
 20
20.0
 30
0.0
 11
59.92
 21
20.0
 31
0.0
  0
LINE
  5
123
330
1F
100
AcDbEntity
  8
0
  6
Continuous
 62
     7
370
    15
100
AcDbLine
 10
69.92
 20
30.0
 30
0.0
 11
69.92
 21
50.0
 31
>>>>>>> 580791ae879149a2de0c38393dbcf98448d8f7c3
0.0
  0
LINE
  5
<<<<<<< HEAD
90
  8
0
  6
CONTINUOUS
 62
     7
 10
-95.98
 20
10.5346757266
 30
0.0
 11
-95.98
 21
-37.5
 31
0.0
  0
ARC
  5
91
  8
0
  6
CONTINUOUS
 62
     7
 10
-93.92
 20
-37.5
 30
0.0
 40
2.059999999999981
 50
180.0
 51
270.0
  0
LINE
  5
92
  8
0
  6
CONTINUOUS
 62
     7
 10
-93.92
 20
-39.56
 30
0.0
 11
-76.7484271247
 21
-39.56
 31
0.0
  0
ARC
  5
93
  8
0
  6
CONTINUOUS
 62
     7
 10
-76.7484271247
 20
-37.5
 30
0.0
 40
2.060000000000009
 50
270.0
 51
315.0
  0
LINE
  5
94
  8
0
  6
CONTINUOUS
 62
     7
 10
-75.2917871555
 20
-38.9566399692
 30
0.0
 11
-73.4633600308
 21
-37.1282128445
 31
0.0
  0
ARC
  5
95
  8
0
  6
CONTINUOUS
 62
     7
 10
-72.0915728753
 20
-38.5
 30
0.0
 40
1.939999999999984
 50
90.0
 51
135.0
  0
LINE
  5
96
  8
0
  6
CONTINUOUS
 62
     7
 10
-72.0915728753
 20
-36.56
 30
0.0
 11
72.0915728753
 21
-36.56
 31
0.0
  0
ARC
  5
97
  8
0
  6
CONTINUOUS
 62
     7
 10
72.0915728753
 20
-38.5
 30
0.0
 40
1.939999999999985
 50
45.0
 51
90.0
  0
LINE
  5
98
  8
0
  6
CONTINUOUS
 62
     7
 10
73.4633600308
 20
-37.1282128445
 30
0.0
 11
75.2917871555
 21
-38.9566399692
 31
0.0
  0
ARC
  5
99
  8
0
  6
CONTINUOUS
 62
     7
 10
76.7484271247
 20
-37.5
 30
0.0
 40
2.060000000000002
 50
225.0
 51
270.0
  0
LINE
  5
9A
  8
0
  6
CONTINUOUS
 62
     7
 10
76.7484271247
 20
-39.56
 30
0.0
 11
93.92
 21
-39.56
 31
0.0
  0
ARC
  5
9B
  8
0
  6
CONTINUOUS
 62
     7
 10
93.92
 20
-37.5
 30
0.0
 40
2.060000000000016
 50
270.0
 51
=======
124
330
1F
100
AcDbEntity
  8
0
  6
Continuous
 62
     7
370
    15
100
AcDbLine
 10
70.92
 20
51.0
 30
0.0
 11
70.92
 21
53.0
 31
0.0
  0
LINE
  5
125
330
1F
100
AcDbEntity
  8
0
  6
Continuous
 62
     7
370
    15
100
AcDbLine
 10
69.92
 20
54.0
 30
0.0
 11
69.92
 21
186.0
 31
0.0
  0
LINE
  5
126
330
1F
100
AcDbEntity
  8
0
  6
Continuous
 62
     7
370
    15
100
AcDbLine
 10
70.92
 20
187.0
 30
0.0
 11
70.92
 21
189.0
 31
0.0
  0
LINE
  5
127
330
1F
100
AcDbEntity
  8
0
  6
Continuous
 62
     7
370
    15
100
AcDbLine
 10
69.92
 20
190.0
 30
0.0
 11
69.92
 21
210.0
 31
0.0
  0
LINE
  5
128
330
1F
100
AcDbEntity
  8
0
  6
Continuous
 62
     7
370
    15
100
AcDbLine
 10
59.92
 20
220.0
 30
0.0
 11
-59.92
 21
220.0
 31
0.0
  0
LINE
  5
129
330
1F
100
AcDbEntity
  8
0
  6
Continuous
 62
     7
370
    15
100
AcDbLine
 10
70.92
 20
286.5
 30
0.0
 11
70.92
 21
288.5
 31
0.0
  0
LINE
  5
12A
330
1F
100
AcDbEntity
  8
0
  6
Continuous
 62
     7
370
    15
100
AcDbLine
 10
68.92
 20
288.5
 30
0.0
 11
68.92
 21
286.5
 31
0.0
  0
LINE
  5
12B
330
1F
100
AcDbEntity
  8
0
  6
Continuous
 62
     7
370
    15
100
AcDbLine
 10
-68.92
 20
286.5
 30
0.0
 11
-68.92
 21
288.5
 31
0.0
  0
LINE
  5
12C
330
1F
100
AcDbEntity
  8
0
  6
Continuous
 62
     7
370
    15
100
AcDbLine
 10
-70.92
 20
288.5
 30
0.0
 11
-70.92
 21
286.5
 31
0.0
  0
LINE
  5
12D
330
1F
100
AcDbEntity
  8
0
  6
Continuous
 62
     7
370
    15
100
AcDbLine
 10
-91.82
 20
386.4233241632
 30
0.0
 11
-91.82
 21
384.0
 31
0.0
  0
LINE
  5
12E
330
1F
100
AcDbEntity
  8
0
  6
Continuous
 62
     7
370
    15
100
AcDbLine
 10
-88.82
 20
384.0
 30
0.0
 11
-88.82
 21
386.4233241632
 31
0.0
  0
LINE
  5
12F
330
1F
100
AcDbEntity
  8
0
  6
Continuous
 62
     7
370
    15
100
AcDbLine
 10
-77.27
 20
366.15
 30
0.0
 11
-78.57
 21
366.15
 31
>>>>>>> 580791ae879149a2de0c38393dbcf98448d8f7c3
0.0
  0
LINE
  5
<<<<<<< HEAD
9C
  8
0
  6
CONTINUOUS
 62
     7
 10
95.98
 20
-37.5
 30
0.0
 11
95.98
 21
10.5346757266
 31
0.0
  0
ARC
  5
9D
  8
0
  6
CONTINUOUS
 62
     7
 10
105.92
 20
27.8205080757
 30
0.0
 40
19.94000000000001
 50
180.0
 51
240.0994879959
  0
LINE
  5
9E
  8
0
  6
CONTINUOUS
 62
     7
 10
85.98
 20
27.8205080757
 30
0.0
 11
85.98
 21
50.061916848
 31
0.0
  0
ARC
  5
9F
  8
0
  6
CONTINUOUS
 62
     7
 10
85.92
 20
51.0
 30
0.0
 40
0.9400000000000261
 50
180.0
 51
273.6596653506
  0
LINE
  5
A0
  8
0
  6
CONTINUOUS
 62
     7
 10
84.98
 20
51.0
 30
0.0
 11
84.98
 21
53.0
 31
0.0
  0
ARC
  5
A1
  8
0
  6
CONTINUOUS
 62
     7
 10
85.92
 20
53.0
 30
0.0
 40
0.9400000000000404
 50
86.3403346494
 51
180.0
  0
LINE
  5
A2
  8
0
  6
CONTINUOUS
 62
     7
 10
85.98
 20
53.938083152
 30
0.0
 11
85.98
 21
186.061916848
 31
0.0
  0
ARC
  5
A3
  8
0
  6
CONTINUOUS
 62
     7
 10
85.92
 20
187.0
 30
0.0
 40
0.9399999999999835
 50
180.0
 51
273.6596653506
  0
LINE
  5
A4
  8
0
  6
CONTINUOUS
 62
     7
 10
84.98
 20
187.0
 30
0.0
 11
84.98
 21
189.0
 31
0.0
  0
ARC
  5
A5
  8
0
  6
CONTINUOUS
 62
     7
 10
85.92
 20
189.0
 30
0.0
 40
0.9400000000000119
 50
86.3403346494
 51
180.0
  0
LINE
  5
A6
  8
0
  6
CONTINUOUS
 62
     7
 10
85.98
 20
189.938083152
 30
0.0
 11
85.98
 21
285.561916848
 31
0.0
  0
ARC
  5
A7
  8
0
  6
CONTINUOUS
 62
     7
 10
85.92
 20
286.5
 30
0.0
 40
0.9400000000000586
 50
180.0
 51
273.6596653506
  0
LINE
  5
A8
  8
0
  6
CONTINUOUS
 62
     7
 10
84.98
 20
286.5
 30
0.0
 11
84.98
 21
288.5
 31
0.0
  0
ARC
  5
A9
  8
0
  6
CONTINUOUS
 62
     7
 10
85.92
 20
288.5
 30
0.0
 40
0.9400000000000546
 50
86.3403346494
 51
180.0
  0
LINE
  5
AA
  8
0
  6
CONTINUOUS
 62
     7
 10
85.98
 20
289.438083152
 30
0.0
 11
85.98
 21
361.1794919243
 31
0.0
  0
ARC
  5
AB
  8
0
  6
CONTINUOUS
 62
     7
 10
105.92
 20
361.1794919243
 30
0.0
 40
19.94000000000004
 50
119.9005120041
 51
180.0
  0
LINE
  5
AC
  8
0
  6
CONTINUOUS
 62
     7
 10
95.98
 20
378.4653242734
 30
0.0
 11
95.98
 21
394.56
=======
130
330
1F
100
AcDbEntity
  8
0
  6
Continuous
 62
     7
370
    15
100
AcDbLine
 10
-78.57
 20
364.85
 30
0.0
 11
-77.27
 21
364.85
 31
0.0
  0
LINE
  5
131
330
1F
100
AcDbEntity
  8
0
  6
Continuous
 62
     7
370
    15
100
AcDbLine
 10
-78.57
 20
355.35
 30
0.0
 11
-77.27
 21
355.35
 31
0.0
  0
LINE
  5
132
330
1F
100
AcDbEntity
  8
0
  6
Continuous
 62
     7
370
    15
100
AcDbLine
 10
-77.27
 20
356.65
 30
0.0
 11
-78.57
 21
356.65
 31
0.0
  0
LINE
  5
133
330
1F
100
AcDbEntity
  8
0
  6
Continuous
 62
     7
370
    15
100
AcDbLine
 10
-69.8127125258
 20
340.0
 30
0.0
 11
-69.8127125258
 21
342.0
 31
0.0
  0
LINE
  5
134
330
1F
100
AcDbEntity
  8
0
  6
Continuous
 62
     7
370
    15
100
AcDbLine
 10
-71.8127125258
 20
342.0
 30
0.0
 11
-71.8127125258
 21
340.0
 31
0.0
  0
LINE
  5
135
330
1F
100
AcDbEntity
  8
0
  6
Continuous
 62
     7
370
    15
100
AcDbLine
 10
-53.8127125258
 20
340.0
 30
0.0
 11
-53.8127125258
 21
342.0
 31
0.0
  0
LINE
  5
136
330
1F
100
AcDbEntity
  8
0
  6
Continuous
 62
     7
370
    15
100
AcDbLine
 10
-55.8127125258
 20
342.0
 30
0.0
 11
-55.8127125258
 21
340.0
 31
0.0
  0
LINE
  5
137
330
1F
100
AcDbEntity
  8
0
  6
Continuous
 62
     7
370
    15
100
AcDbLine
 10
2.0
 20
350.4
 30
0.0
 11
2.0
 21
360.4
 31
0.0
  0
LINE
  5
138
330
1F
100
AcDbEntity
  8
0
  6
Continuous
 62
     7
370
    15
100
AcDbLine
 10
-18.0
 20
360.4
 30
0.0
 11
-18.0
 21
350.4
 31
0.0
  0
LINE
  5
139
330
1F
100
AcDbEntity
  8
0
  6
Continuous
 62
     7
370
    15
100
AcDbLine
 10
55.8127125258
 20
340.0
 30
0.0
 11
55.8127125258
 21
342.0
 31
0.0
  0
LINE
  5
13A
330
1F
100
AcDbEntity
  8
0
  6
Continuous
 62
     7
370
    15
100
AcDbLine
 10
53.8127125258
 20
342.0
 30
0.0
 11
53.8127125258
 21
340.0
 31
0.0
  0
LINE
  5
13B
330
1F
100
AcDbEntity
  8
0
  6
Continuous
 62
     7
370
    15
100
AcDbLine
 10
71.8127125258
 20
340.0
 30
0.0
 11
71.8127125258
 21
342.0
 31
0.0
  0
LINE
  5
13C
330
1F
100
AcDbEntity
  8
0
  6
Continuous
 62
     7
370
    15
100
AcDbLine
 10
69.8127125258
 20
342.0
 30
0.0
 11
69.8127125258
 21
340.0
 31
0.0
  0
LINE
  5
13D
330
1F
100
AcDbEntity
  8
0
  6
Continuous
 62
     7
370
    15
100
AcDbLine
 10
78.57
 20
356.65
 30
0.0
 11
77.27
 21
356.65
 31
0.0
  0
LINE
  5
13E
330
1F
100
AcDbEntity
  8
0
  6
Continuous
 62
     7
370
    15
100
AcDbLine
 10
77.27
 20
355.35
 30
0.0
 11
78.57
 21
355.35
 31
0.0
  0
LINE
  5
13F
330
1F
100
AcDbEntity
  8
0
  6
Continuous
 62
     7
370
    15
100
AcDbLine
 10
78.57
 20
366.15
 30
0.0
 11
77.27
 21
366.15
 31
0.0
  0
LINE
  5
140
330
1F
100
AcDbEntity
  8
0
  6
Continuous
 62
     7
370
    15
100
AcDbLine
 10
77.27
 20
364.85
 30
0.0
 11
78.57
 21
364.85
>>>>>>> 580791ae879149a2de0c38393dbcf98448d8f7c3
 31
0.0
  0
LINE
  5
<<<<<<< HEAD
AD
  8
0
  6
CONTINUOUS
 62
     7
 10
95.98
 20
394.56
 30
0.0
 11
1.6763054614
 21
394.56
=======
141
330
1F
100
AcDbEntity
  8
0
  6
Continuous
 62
     7
370
    15
100
AcDbLine
 10
88.82
 20
386.4233241632
 30
0.0
 11
88.82
 21
384.0000002495
>>>>>>> 580791ae879149a2de0c38393dbcf98448d8f7c3
 31
0.0
  0
LINE
  5
<<<<<<< HEAD
AE
  8
0
  6
CONTINUOUS
 62
     7
 10
91.76
 20
384.0000002395
 30
0.0
 11
91.76
 21
386.4569830779
 31
0.0
  0
ARC
  5
AF
  8
0
  6
CONTINUOUS
 62
     7
 10
90.32
 20
384.0
 30
0.0
 40
1.440000000000003
 50
179.9999904693
 51
0.0000095307
  0
LINE
  5
B0
  8
0
  6
CONTINUOUS
 62
     7
 10
88.88
 20
386.4569830779
 30
0.0
 11
88.88
 21
384.0000002395
 31
0.0
  0
ARC
  5
B1
  8
0
  6
CONTINUOUS
 62
     7
 10
90.32
 20
388.8466483264
 30
0.0
 40
2.79000000000003
 50
301.0729509722
 51
238.9270490278
  0
LINE
  5
B2
  8
0
  6
CONTINUOUS
 62
     7
 10
69.8727125258
 20
342.0
 30
0.0
 11
69.8727125258
 21
340.0
 31
0.0
  0
ARC
  5
B3
  8
0
  6
CONTINUOUS
 62
     7
 10
70.8127125258
 20
342.0
 30
0.0
 40
0.9400000000000261
 50
0.0
 51
180.0
  0
LINE
  5
B4
  8
0
  6
CONTINUOUS
 62
     7
 10
71.7527125258
 20
340.0
 30
0.0
 11
71.7527125258
 21
342.0
 31
0.0
  0
ARC
  5
B5
  8
0
  6
CONTINUOUS
 62
     7
 10
70.8127125258
 20
340.0
 30
0.0
 40
0.9399999999999835
 50
180.0
 51
=======
142
330
1F
100
AcDbEntity
  8
0
  6
Continuous
 62
     7
370
    15
100
AcDbLine
 10
91.82
 20
384.0000002495
 30
0.0
 11
91.82
 21
386.4233241632
 31
0.0
  0
LINE
  5
143
330
1F
100
AcDbEntity
  8
0
  6
Continuous
 62
     7
370
    15
100
AcDbLine
 10
95.92
 20
394.5
 30
0.0
 11
1.6583123952
 21
394.5
 31
0.0
  0
LINE
  5
144
330
1F
100
AcDbEntity
  8
0
  6
Continuous
 62
     7
370
    15
100
AcDbLine
 10
95.92
 20
378.5
 30
0.0
 11
95.92
 21
394.5
 31
0.0
  0
LINE
  5
145
330
1F
100
AcDbEntity
  8
0
  6
Continuous
 62
     7
370
    15
100
AcDbLine
 10
85.92
 20
289.5
 30
0.0
 11
85.92
 21
361.1794919243
 31
0.0
  0
LINE
  5
146
330
1F
100
AcDbEntity
  8
0
  6
Continuous
 62
     7
370
    15
100
AcDbLine
 10
84.92
 20
286.5
 30
0.0
 11
84.92
 21
288.5
 31
0.0
  0
LINE
  5
147
330
1F
100
AcDbEntity
  8
0
  6
Continuous
 62
     7
370
    15
100
AcDbLine
 10
85.92
 20
190.0
 30
0.0
 11
85.92
 21
285.5
 31
0.0
  0
LINE
  5
148
330
1F
100
AcDbEntity
  8
0
  6
Continuous
 62
     7
370
    15
100
AcDbLine
 10
84.92
 20
187.0
 30
0.0
 11
84.92
 21
189.0
 31
0.0
  0
LINE
  5
149
330
1F
100
AcDbEntity
  8
0
  6
Continuous
 62
     7
370
    15
100
AcDbLine
 10
85.92
 20
54.0
 30
0.0
 11
85.92
 21
186.0
 31
>>>>>>> 580791ae879149a2de0c38393dbcf98448d8f7c3
0.0
  0
LINE
  5
<<<<<<< HEAD
B6
  8
0
  6
CONTINUOUS
 62
     7
 10
53.8727125258
 20
342.0
 30
0.0
 11
53.8727125258
 21
340.0
 31
0.0
  0
ARC
  5
B7
  8
0
  6
CONTINUOUS
 62
     7
 10
54.8127125258
 20
342.0
 30
0.0
 40
0.9399999999999906
 50
0.0
 51
180.0
  0
LINE
  5
B8
  8
0
  6
CONTINUOUS
 62
     7
 10
55.7527125258
 20
340.0
 30
0.0
 11
55.7527125258
 21
342.0
 31
0.0
  0
ARC
  5
B9
  8
0
  6
CONTINUOUS
 62
     7
 10
54.8127125258
 20
340.0
 30
0.0
 40
0.9399999999999906
 50
180.0
 51
=======
14A
330
1F
100
AcDbEntity
  8
0
  6
Continuous
 62
     7
370
    15
100
AcDbLine
 10
84.92
 20
51.0
 30
0.0
 11
84.92
 21
53.0
 31
0.0
  0
LINE
  5
14B
330
1F
100
AcDbEntity
  8
0
  6
Continuous
 62
     7
370
    15
100
AcDbLine
 10
85.92
 20
27.8205080757
 30
0.0
 11
85.92
 21
50.0
 31
0.0
  0
LINE
  5
14C
330
1F
100
AcDbEntity
  8
0
  6
Continuous
 62
     7
370
    15
100
AcDbLine
 10
95.92
 20
-37.5
 30
0.0
 11
95.92
 21
10.5
 31
0.0
  0
LINE
  5
14D
330
1F
100
AcDbEntity
  8
0
  6
Continuous
 62
     7
370
    15
100
AcDbLine
 10
76.7484271247
 20
-39.5
 30
0.0
 11
93.92
 21
-39.5
 31
>>>>>>> 580791ae879149a2de0c38393dbcf98448d8f7c3
0.0
  0
LINE
  5
<<<<<<< HEAD
BA
  8
0
  6
CONTINUOUS
 62
     7
 10
-55.7527125258
 20
342.0
 30
0.0
 11
-55.7527125258
 21
340.0
 31
0.0
  0
ARC
  5
BB
  8
0
  6
CONTINUOUS
 62
     7
 10
-54.8127125258
 20
342.0
 30
0.0
 40
0.9400000000000759
 50
0.0
 51
180.0
  0
LINE
  5
BC
  8
0
  6
CONTINUOUS
 62
     7
 10
-53.8727125258
 20
340.0
 30
0.0
 11
-53.8727125258
 21
342.0
 31
0.0
  0
ARC
  5
BD
  8
0
  6
CONTINUOUS
 62
     7
 10
-54.8127125258
 20
340.0
 30
0.0
 40
0.9399999999999906
 50
180.0
 51
=======
14E
330
1F
100
AcDbEntity
  8
0
  6
Continuous
 62
     7
370
    15
100
AcDbLine
 10
73.5057864376
 20
-37.0857864376
 30
0.0
 11
75.3342135624
 21
-38.9142135624
 31
0.0
  0
LINE
  5
14F
330
1F
100
AcDbEntity
  8
0
  6
Continuous
 62
     7
370
    15
100
AcDbLine
 10
-72.0915728753
 20
-36.5
 30
0.0
 11
72.0915728753
 21
-36.5
 31
0.0
  0
LINE
  5
150
330
1F
100
AcDbEntity
  8
0
  6
Continuous
 62
     7
370
    15
100
AcDbLine
 10
-75.3342135624
 20
-38.9142135624
 30
0.0
 11
-73.5057864376
 21
-37.0857864376
 31
0.0
  0
LINE
  5
151
330
1F
100
AcDbEntity
  8
0
  6
Continuous
 62
     7
370
    15
100
AcDbLine
 10
-93.92
 20
-39.5
 30
0.0
 11
-76.7484271247
 21
-39.5
 31
>>>>>>> 580791ae879149a2de0c38393dbcf98448d8f7c3
0.0
  0
LINE
  5
<<<<<<< HEAD
BE
  8
0
  6
CONTINUOUS
 62
     7
 10
-71.7527125258
 20
342.0
 30
0.0
 11
-71.7527125258
 21
340.0
 31
0.0
  0
ARC
  5
BF
  8
0
  6
CONTINUOUS
 62
     7
 10
-70.8127125258
 20
342.0
 30
0.0
 40
0.9399999999999835
 50
0.0
 51
180.0
  0
LINE
  5
C0
  8
0
  6
CONTINUOUS
 62
     7
 10
-69.8727125258
 20
340.0
 30
0.0
 11
-69.8727125258
 21
342.0
 31
0.0
  0
ARC
  5
C1
  8
0
  6
CONTINUOUS
 62
     7
 10
-70.8127125258
 20
340.0
 30
0.0
 40
0.9399999999999835
 50
180.0
 51
=======
152
330
1F
100
AcDbEntity
  8
0
  6
Continuous
 62
     7
370
    15
100
AcDbLine
 10
-95.92
 20
10.5
 30
0.0
 11
-95.92
 21
-37.5
 31
0.0
  0
LINE
  5
153
330
1F
100
AcDbEntity
  8
0
  6
Continuous
 62
     7
370
    15
100
AcDbLine
 10
-85.92
 20
50.0
 30
0.0
 11
-85.92
 21
27.8205080757
 31
0.0
  0
LINE
  5
154
330
1F
100
AcDbEntity
  8
0
  6
Continuous
 62
     7
370
    15
100
AcDbLine
 10
-84.92
 20
53.0
 30
0.0
 11
-84.92
 21
51.0
 31
0.0
  0
LINE
  5
155
330
1F
100
AcDbEntity
  8
0
  6
Continuous
 62
     7
370
    15
100
AcDbLine
 10
-85.92
 20
186.0
 30
0.0
 11
-85.92
 21
54.0
 31
>>>>>>> 580791ae879149a2de0c38393dbcf98448d8f7c3
0.0
  0
LINE
  5
<<<<<<< HEAD
C2
  8
0
  6
CONTINUOUS
 62
     7
 10
-88.88
 20
384.0
 30
0.0
 11
-88.88
 21
386.4569830779
 31
0.0
  0
ARC
  5
C3
  8
0
  6
CONTINUOUS
 62
     7
 10
-90.32
 20
384.0
 30
0.0
 40
1.44000000000004
 50
180.0
 51
=======
156
330
1F
100
AcDbEntity
  8
0
  6
Continuous
 62
     7
370
    15
100
AcDbLine
 10
-84.92
 20
189.0
 30
0.0
 11
-84.92
 21
187.0
 31
0.0
  0
LINE
  5
157
330
1F
100
AcDbEntity
  8
0
  6
Continuous
 62
     7
370
    15
100
AcDbLine
 10
-85.92
 20
285.5
 30
0.0
 11
-85.92
 21
190.0
 31
>>>>>>> 580791ae879149a2de0c38393dbcf98448d8f7c3
0.0
  0
LINE
  5
<<<<<<< HEAD
C4
  8
0
  6
CONTINUOUS
 62
     7
 10
-91.76
 20
386.4569830779
 30
0.0
 11
-91.76
 21
384.0
 31
0.0
  0
ARC
  5
C5
  8
0
  6
CONTINUOUS
 62
     7
 10
-90.32
 20
388.8466483264
 30
0.0
 40
2.790000000000032
 50
301.0729509722
 51
238.9270490278
  0
LINE
  5
C6
  8
0
  6
CONTINUOUS
 62
     7
 10
-70.86
 20
288.5
 30
0.0
 11
-70.86
 21
286.5
 31
0.0
  0
ARC
  5
C7
  8
0
  6
CONTINUOUS
 62
     7
 10
-69.92
 20
288.5
 30
0.0
 40
0.9400000000000404
 50
0.0
 51
180.0
  0
LINE
  5
C8
  8
0
  6
CONTINUOUS
 62
     7
 10
-68.98
 20
286.5
 30
0.0
 11
-68.98
 21
288.5
 31
0.0
  0
ARC
  5
C9
  8
0
  6
CONTINUOUS
 62
     7
 10
-69.92
 20
286.5
 30
0.0
 40
0.9400000000000119
 50
180.0
 51
0.0
  0
LINE
  5
CA
  8
0
  6
CONTINUOUS
 62
     7
 10
68.98
 20
288.5
 30
0.0
 11
68.98
 21
286.5
 31
=======
158
330
1F
100
AcDbEntity
  8
0
  6
Continuous
 62
     7
370
    15
100
AcDbLine
 10
-84.92
 20
288.5
 30
0.0
 11
-84.92
 21
286.5
 31
0.0
  0
LINE
  5
159
330
1F
100
AcDbEntity
  8
0
  6
Continuous
 62
     7
370
    15
100
AcDbLine
 10
-85.92
 20
361.1794919243
 30
0.0
 11
-85.92
 21
289.5
 31
0.0
  0
LINE
  5
15A
330
1F
100
AcDbEntity
  8
0
  6
Continuous
 62
     7
370
    15
100
AcDbLine
 10
-95.92
 20
394.5
 30
0.0
 11
-95.92
 21
378.5
 31
0.0
  0
LINE
  5
15B
330
1F
100
AcDbEntity
  8
0
  6
Continuous
 62
     7
370
    15
100
AcDbLine
 10
-1.6583123952
 20
394.5
 30
0.0
 11
-95.92
 21
394.5
 31
0.0
  0
ARC
  5
15C
330
1F
100
AcDbEntity
  8
0
  6
Continuous
 62
     7
370
    15
100
AcDbCircle
 10
-40.7
 20
-1.6
 30
0.0
 40
0.8000000000000256
100
AcDbArc
 50
90.0
 51
180.0
  0
ARC
  5
15D
330
1F
100
AcDbEntity
  8
0
  6
Continuous
 62
     7
370
    15
100
AcDbCircle
 10
-40.7
 20
-14.1
 30
0.0
 40
0.7999999999999616
100
AcDbArc
 50
180.0
 51
270.0
  0
ARC
  5
15E
330
1F
100
AcDbEntity
  8
0
  6
Continuous
 62
     7
370
    15
100
AcDbCircle
 10
-27.3
 20
-14.1
 30
0.0
 40
0.799999999999983
100
AcDbArc
 50
270.0
 51
>>>>>>> 580791ae879149a2de0c38393dbcf98448d8f7c3
0.0
  0
ARC
  5
<<<<<<< HEAD
CB
  8
0
  6
CONTINUOUS
 62
     7
 10
69.92
 20
288.5
 30
0.0
 40
0.940000000000083
 50
0.0
 51
180.0
  0
LINE
  5
CC
  8
0
  6
CONTINUOUS
 62
     7
 10
70.86
 20
286.5
 30
0.0
 11
70.86
 21
288.5
 31
0.0
  0
ARC
  5
CD
  8
0
  6
CONTINUOUS
 62
     7
 10
69.92
 20
286.5
 30
0.0
 40
0.9400000000000261
 50
180.0
 51
0.0
  0
LINE
  5
CE
  8
0
  6
CONTINUOUS
 62
     7
 10
59.92
 20
219.94
 30
0.0
 11
-59.92
 21
219.94
 31
=======
15F
330
1F
100
AcDbEntity
  8
0
  6
Continuous
 62
     7
370
    15
100
AcDbCircle
 10
-27.3
 20
-1.6
 30
0.0
 40
0.8000000000000298
100
AcDbArc
 50
0.0
 51
90.0
  0
ARC
  5
160
330
1F
100
AcDbEntity
  8
0
  6
Continuous
 62
     7
370
    15
100
AcDbCircle
 10
-19.7
 20
-1.6
 30
0.0
 40
0.800000000000022
100
AcDbArc
 50
90.0
 51
180.0
  0
ARC
  5
161
330
1F
100
AcDbEntity
  8
0
  6
Continuous
 62
     7
370
    15
100
AcDbCircle
 10
-19.7
 20
-3.0
 30
0.0
 40
0.7999999999999687
100
AcDbArc
 50
180.0
 51
270.0
  0
ARC
  5
162
330
1F
100
AcDbEntity
  8
0
  6
Continuous
 62
     7
370
    15
100
AcDbCircle
 10
-6.3
 20
-3.0
 30
0.0
 40
0.7999999999999714
100
AcDbArc
 50
270.0
 51
>>>>>>> 580791ae879149a2de0c38393dbcf98448d8f7c3
0.0
  0
ARC
  5
<<<<<<< HEAD
CF
  8
0
  6
CONTINUOUS
 62
     7
 10
59.92
 20
210.0
 30
0.0
 40
9.940000000000332
=======
163
330
1F
100
AcDbEntity
  8
0
  6
Continuous
 62
     7
370
    15
100
AcDbCircle
 10
-6.3
 20
-1.6
 30
0.0
 40
0.8000000000000256
100
AcDbArc
>>>>>>> 580791ae879149a2de0c38393dbcf98448d8f7c3
 50
0.0
 51
90.0
  0
<<<<<<< HEAD
LINE
  5
D0
  8
0
  6
CONTINUOUS
 62
     7
 10
69.86
 20
189.938083152
 30
0.0
 11
69.86
 21
210.0
 31
0.0
  0
ARC
  5
D1
  8
0
  6
CONTINUOUS
 62
     7
 10
69.92
 20
189.0
 30
0.0
 40
0.9400000000001114
 50
0.0
 51
93.6596653504
  0
LINE
  5
D2
  8
0
  6
CONTINUOUS
 62
     7
 10
70.86
 20
187.0
 30
0.0
 11
70.86
 21
189.0
 31
=======
ARC
  5
164
330
1F
100
AcDbEntity
  8
0
  6
Continuous
 62
     7
370
    15
100
AcDbCircle
 10
-3.2
 20
0.9
 30
0.0
 40
0.8000000000000225
100
AcDbArc
 50
90.0
 51
180.0
  0
ARC
  5
165
330
1F
100
AcDbEntity
  8
0
  6
Continuous
 62
     7
370
    15
100
AcDbCircle
 10
-3.2
 20
-6.5
 30
0.0
 40
0.7999999999999776
100
AcDbArc
 50
180.0
 51
270.0
  0
ARC
  5
166
330
1F
100
AcDbEntity
  8
0
  6
Continuous
 62
     7
370
    15
100
AcDbCircle
 10
8.2
 20
-6.5
 30
0.0
 40
0.7999999999999865
100
AcDbArc
 50
270.0
 51
>>>>>>> 580791ae879149a2de0c38393dbcf98448d8f7c3
0.0
  0
ARC
  5
<<<<<<< HEAD
D3
  8
0
  6
CONTINUOUS
 62
     7
 10
69.92
 20
187.0
 30
0.0
 40
0.9400000000001398
 50
266.3403346496
 51
360.0
  0
LINE
  5
D4
  8
0
  6
CONTINUOUS
 62
     7
 10
69.86
 20
53.938083152
 30
0.0
 11
69.86
 21
186.061916848
 31
0.0
  0
ARC
  5
D5
  8
0
  6
CONTINUOUS
 62
     7
 10
69.92
 20
53.0
 30
0.0
 40
0.9400000000001683
 50
360.0
 51
93.6596653504
  0
LINE
  5
D6
  8
0
  6
CONTINUOUS
 62
     7
 10
70.86
 20
51.0
 30
0.0
 11
70.86
 21
53.0
 31
0.0
  0
ARC
  5
D7
  8
0
  6
CONTINUOUS
 62
     7
 10
69.92
 20
51.0
 30
0.0
 40
0.9400000000001547
 50
266.3403346496
 51
0.0000000002
  0
LINE
  5
D8
  8
0
  6
CONTINUOUS
 62
     7
 10
69.86
 20
30.0
 30
0.0
 11
69.86
 21
50.061916848
 31
0.0
  0
ARC
  5
D9
  8
0
  6
CONTINUOUS
 62
     7
 10
59.92
=======
167
330
1F
100
AcDbEntity
  8
0
  6
Continuous
 62
     7
370
    15
100
AcDbCircle
 10
8.2
 20
0.9
 30
0.0
 40
0.8000000000000345
100
AcDbArc
 50
0.0
 51
90.0
  0
ARC
  5
168
330
1F
100
AcDbEntity
  8
0
  6
Continuous
 62
     7
370
    15
100
AcDbCircle
 10
-59.92
 20
210.0
 30
0.0
 40
10.00000000000021
100
AcDbArc
 50
90.0
 51
180.0
  0
ARC
  5
169
330
1F
100
AcDbEntity
  8
0
  6
Continuous
 62
     7
370
    15
100
AcDbCircle
 10
-69.92
 20
189.0
 30
0.0
 40
0.9999999999953104
100
AcDbArc
 50
89.9999999997
 51
180.0000000002
  0
ARC
  5
16A
330
1F
100
AcDbEntity
  8
0
  6
Continuous
 62
     7
370
    15
100
AcDbCircle
 10
-69.92
 20
187.0
 30
0.0
 40
1.000000000001307
100
AcDbArc
 50
180.0000000001
 51
270.0
  0
ARC
  5
16B
330
1F
100
AcDbEntity
  8
0
  6
Continuous
 62
     7
370
    15
100
AcDbCircle
 10
-69.92
 20
53.0
 30
0.0
 40
1.000000000000568
100
AcDbArc
 50
90.0
 51
180.0
  0
ARC
  5
16C
330
1F
100
AcDbEntity
  8
0
  6
Continuous
 62
     7
370
    15
100
AcDbCircle
 10
-69.92
 20
51.0
 30
0.0
 40
0.999999999994202
100
AcDbArc
 50
179.9999999997
 51
270.0000000002
  0
ARC
  5
16D
330
1F
100
AcDbEntity
  8
0
  6
Continuous
 62
     7
370
    15
100
AcDbCircle
 10
-59.92
>>>>>>> 580791ae879149a2de0c38393dbcf98448d8f7c3
 20
30.0
 30
0.0
 40
<<<<<<< HEAD
9.940000000000062
 50
270.0
 51
0.0
  0
LINE
  5
DA
  8
0
  6
CONTINUOUS
 62
     7
 10
-59.92
 20
20.06
 30
0.0
 11
59.92
 21
20.06
 31
=======
10.00000000000003
100
AcDbArc
 50
180.0
 51
270.0
  0
ARC
  5
16E
330
1F
100
AcDbEntity
  8
0
  6
Continuous
 62
     7
370
    15
100
AcDbCircle
 10
59.92
 20
30.0
 30
0.0
 40
10.00000000000011
100
AcDbArc
 50
270.0
 51
>>>>>>> 580791ae879149a2de0c38393dbcf98448d8f7c3
0.0
  0
ARC
  5
<<<<<<< HEAD
DB
  8
0
  6
CONTINUOUS
 62
     7
 10
-59.92
 20
30.0
 30
0.0
 40
9.940000000000033
 50
180.0
 51
270.0
  0
LINE
  5
DC
  8
0
  6
CONTINUOUS
 62
     7
 10
-69.86
 20
50.061916848
 30
0.0
 11
-69.86
 21
30.0
 31
0.0
  0
ARC
  5
DD
  8
0
  6
CONTINUOUS
 62
     7
 10
-69.92
 20
51.0
 30
0.0
 40
0.9399999999984914
 50
179.9999999998
 51
273.6596653507
  0
LINE
  5
DE
  8
0
  6
CONTINUOUS
 62
     7
 10
-70.86
 20
53.0
 30
0.0
 11
-70.86
 21
51.0
 31
0.0
  0
ARC
  5
DF
  8
0
  6
CONTINUOUS
 62
     7
 10
-69.92
 20
53.0
 30
0.0
 40
0.940000000000552
 50
86.3403346493
 51
180.0
  0
LINE
  5
E0
  8
0
  6
CONTINUOUS
 62
     7
 10
-69.86
 20
186.061916848
 30
0.0
 11
-69.86
 21
53.938083152
 31
=======
16F
330
1F
100
AcDbEntity
  8
0
  6
Continuous
 62
     7
370
    15
100
AcDbCircle
 10
69.92
 20
51.0
 30
0.0
 40
1.000000000000128
100
AcDbArc
 50
270.0000000002
 51
0.0000000002
  0
ARC
  5
170
330
1F
100
AcDbEntity
  8
0
  6
Continuous
 62
     7
370
    15
100
AcDbCircle
 10
69.92
 20
53.0
 30
0.0
 40
1.000000000000156
100
AcDbArc
 50
360.0
 51
89.9999999998
  0
ARC
  5
171
330
1F
100
AcDbEntity
  8
0
  6
Continuous
 62
     7
370
    15
100
AcDbCircle
 10
69.92
 20
187.0
 30
0.0
 40
1.000000000000313
100
AcDbArc
 50
270.0000000002
 51
360.0
  0
ARC
  5
172
330
1F
100
AcDbEntity
  8
0
  6
Continuous
 62
     7
370
    15
100
AcDbCircle
 10
69.92
 20
189.0
 30
0.0
 40
0.9999999999998579
100
AcDbArc
 50
360.0
 51
89.9999999998
  0
ARC
  5
173
330
1F
100
AcDbEntity
  8
0
  6
Continuous
 62
     7
370
    15
100
AcDbCircle
 10
59.92
 20
210.0
 30
0.0
 40
9.999999999999815
100
AcDbArc
 50
0.0
 51
90.0
  0
ARC
  5
174
330
1F
100
AcDbEntity
  8
0
  6
Continuous
 62
     7
370
    15
100
AcDbCircle
 10
69.92
 20
286.5
 30
0.0
 40
1.000000000000014
100
AcDbArc
 50
180.0
 51
>>>>>>> 580791ae879149a2de0c38393dbcf98448d8f7c3
0.0
  0
ARC
  5
<<<<<<< HEAD
E1
  8
0
  6
CONTINUOUS
 62
     7
 10
-69.92
 20
187.0
 30
0.0
 40
0.940000000000183
 50
180.0
 51
273.6596653508
  0
LINE
  5
E2
  8
0
  6
CONTINUOUS
 62
     7
 10
-70.86
 20
189.0
 30
0.0
 11
-70.86
 21
187.0
 31
=======
175
330
1F
100
AcDbEntity
  8
0
  6
Continuous
 62
     7
370
    15
100
AcDbCircle
 10
69.92
 20
288.5
 30
0.0
 40
1.000000000000028
100
AcDbArc
 50
0.0
 51
180.0
  0
ARC
  5
176
330
1F
100
AcDbEntity
  8
0
  6
Continuous
 62
     7
370
    15
100
AcDbCircle
 10
-69.92
 20
286.5
 30
0.0
 40
1.000000000000028
100
AcDbArc
 50
180.0
 51
>>>>>>> 580791ae879149a2de0c38393dbcf98448d8f7c3
0.0
  0
ARC
  5
<<<<<<< HEAD
E3
  8
0
  6
CONTINUOUS
 62
     7
 10
-69.92
 20
189.0
 30
0.0
 40
0.9399999999996634
 50
86.3403346492
 51
180.0
  0
LINE
  5
E4
  8
0
  6
CONTINUOUS
 62
     7
 10
-69.86
 20
210.0
 30
0.0
 11
-69.86
 21
189.938083152
 31
0.0
  0
ARC
  5
E5
  8
0
  6
CONTINUOUS
 62
     7
 10
-59.92
 20
210.0
 30
0.0
 40
9.940000000000104
 50
90.0
 51
180.0
  0
LINE
  5
E6
  8
0
  6
CONTINUOUS
 62
     7
 10
8.2
 20
1.64
 30
0.0
 11
-3.2
 21
1.64
 31
0.0
  0
ARC
  5
E7
  8
0
  6
CONTINUOUS
 62
     7
 10
8.2
 20
0.9
 30
0.0
 40
0.7400000000000048
 50
0.0
 51
90.0
  0
LINE
  5
E8
  8
0
  6
CONTINUOUS
 62
     7
 10
8.94
 20
-6.5
 30
0.0
 11
8.94
 21
0.9
 31
0.0
  0
ARC
  5
E9
  8
0
  6
CONTINUOUS
 62
     7
 10
8.2
 20
-6.5
 30
0.0
 40
0.7399999999999984
 50
270.0
 51
360.0
  0
LINE
  5
EA
  8
0
  6
CONTINUOUS
 62
     7
 10
-3.2
 20
-7.24
 30
0.0
 11
8.2
 21
-7.24
 31
=======
177
330
1F
100
AcDbEntity
  8
0
  6
Continuous
 62
     7
370
    15
100
AcDbCircle
 10
-69.92
 20
288.5
 30
0.0
 40
1.000000000000043
100
AcDbArc
 50
0.0
 51
180.0
  0
ARC
  5
178
330
1F
100
AcDbEntity
  8
0
  6
Continuous
 62
     7
370
    15
100
AcDbCircle
 10
-90.32
 20
388.8466483264
 30
0.0
 40
2.850000000000015
100
AcDbArc
 50
301.7568638593
 51
238.2431361407
  0
ARC
  5
179
330
1F
100
AcDbEntity
  8
0
  6
Continuous
 62
     7
370
    15
100
AcDbCircle
 10
-90.32
 20
384.0
 30
0.0
 40
1.500000000000014
100
AcDbArc
 50
180.0
 51
0.0
  0
ARC
  5
17A
330
1F
100
AcDbEntity
  8
0
  6
Continuous
 62
     7
370
    15
100
AcDbCircle
 10
-77.27
 20
365.5
 30
0.0
 40
0.6499999999999773
100
AcDbArc
 50
270.0
 51
90.0
  0
ARC
  5
17B
330
1F
100
AcDbEntity
  8
0
  6
Continuous
 62
     7
370
    15
100
AcDbCircle
 10
-78.57
 20
365.5
 30
0.0
 40
0.6499999999999773
100
AcDbArc
 50
90.0
 51
270.0
  0
ARC
  5
17C
330
1F
100
AcDbEntity
  8
0
  6
Continuous
 62
     7
370
    15
100
AcDbCircle
 10
-78.57
 20
356.0
 30
0.0
 40
0.6499999999999773
100
AcDbArc
 50
90.0
 51
270.0
  0
ARC
  5
17D
330
1F
100
AcDbEntity
  8
0
  6
Continuous
 62
     7
370
    15
100
AcDbCircle
 10
-77.27
 20
356.0
 30
0.0
 40
0.6499999999999773
100
AcDbArc
 50
270.0
 51
90.0
  0
ARC
  5
17E
330
1F
100
AcDbEntity
  8
0
  6
Continuous
 62
     7
370
    15
100
AcDbCircle
 10
-70.8127125258
 20
340.0
 30
0.0
 40
0.9999999999999858
100
AcDbArc
 50
180.0
 51
>>>>>>> 580791ae879149a2de0c38393dbcf98448d8f7c3
0.0
  0
ARC
  5
<<<<<<< HEAD
EB
  8
0
  6
CONTINUOUS
 62
     7
 10
-3.2
 20
-6.5
 30
0.0
 40
0.739999999999998
 50
180.0
 51
270.0
  0
LINE
  5
EC
  8
0
  6
CONTINUOUS
 62
     7
 10
-3.94
 20
0.9
 30
0.0
 11
-3.94
 21
-6.5
 31
=======
17F
330
1F
100
AcDbEntity
  8
0
  6
Continuous
 62
     7
370
    15
100
AcDbCircle
 10
-70.8127125258
 20
342.0
 30
0.0
 40
0.9999999999999858
100
AcDbArc
 50
0.0
 51
180.0
  0
ARC
  5
180
330
1F
100
AcDbEntity
  8
0
  6
Continuous
 62
     7
370
    15
100
AcDbCircle
 10
-54.8127125258
 20
340.0
 30
0.0
 40
0.9999999999999503
100
AcDbArc
 50
180.0
 51
>>>>>>> 580791ae879149a2de0c38393dbcf98448d8f7c3
0.0
  0
ARC
  5
<<<<<<< HEAD
ED
  8
0
  6
CONTINUOUS
 62
     7
 10
-3.2
 20
0.9
 30
0.0
 40
0.7400000000000025
 50
90.0
 51
180.0
  0
LINE
  5
EE
  8
0
  6
CONTINUOUS
 62
     7
 10
-6.3
 20
-0.86
 30
0.0
 11
-19.7
 21
-0.86
 31
=======
181
330
1F
100
AcDbEntity
  8
0
  6
Continuous
 62
     7
370
    15
100
AcDbCircle
 10
-54.8127125258
 20
342.0
 30
0.0
 40
1.000000000000036
100
AcDbArc
 50
0.0
 51
180.0
  0
ARC
  5
182
330
1F
100
AcDbEntity
  8
0
  6
Continuous
 62
     7
370
    15
100
AcDbCircle
 10
-8.0
 20
350.4
 30
0.0
 40
9.999999999999982
100
AcDbArc
 50
180.0
 51
>>>>>>> 580791ae879149a2de0c38393dbcf98448d8f7c3
0.0
  0
ARC
  5
<<<<<<< HEAD
EF
  8
0
  6
CONTINUOUS
 62
     7
 10
-6.3
 20
-1.6
 30
0.0
 40
0.7400000000000029
 50
0.0
 51
90.0
  0
LINE
  5
F0
  8
0
  6
CONTINUOUS
 62
     7
 10
-5.56
 20
-3.0
 30
0.0
 11
-5.56
 21
-1.6
 31
=======
183
330
1F
100
AcDbEntity
  8
0
  6
Continuous
 62
     7
370
    15
100
AcDbCircle
 10
-8.0
 20
360.4
 30
0.0
 40
10.0
100
AcDbArc
 50
0.0
 51
180.0
  0
ARC
  5
184
330
1F
100
AcDbEntity
  8
0
  6
Continuous
 62
     7
370
    15
100
AcDbCircle
 10
54.8127125258
 20
340.0
 30
0.0
 40
0.9999999999999858
100
AcDbArc
 50
180.0
 51
>>>>>>> 580791ae879149a2de0c38393dbcf98448d8f7c3
0.0
  0
ARC
  5
<<<<<<< HEAD
F1
  8
0
  6
CONTINUOUS
 62
     7
 10
-6.3
 20
-3.0
 30
0.0
 40
0.7400000000000002
 50
270.0
 51
360.0
  0
LINE
  5
F2
  8
0
  6
CONTINUOUS
 62
     7
 10
-19.7
 20
-3.74
 30
0.0
 11
-6.3
 21
-3.74
 31
=======
185
330
1F
100
AcDbEntity
  8
0
  6
Continuous
 62
     7
370
    15
100
AcDbCircle
 10
54.8127125258
 20
342.0
 30
0.0
 40
0.9999999999999858
100
AcDbArc
 50
0.0
 51
180.0
  0
ARC
  5
186
330
1F
100
AcDbEntity
  8
0
  6
Continuous
 62
     7
370
    15
100
AcDbCircle
 10
70.8127125258
 20
340.0
 30
0.0
 40
0.9999999999999716
100
AcDbArc
 50
180.0
 51
>>>>>>> 580791ae879149a2de0c38393dbcf98448d8f7c3
0.0
  0
ARC
  5
<<<<<<< HEAD
F3
  8
0
  6
CONTINUOUS
 62
     7
 10
-19.7
 20
-3.0
 30
0.0
 40
0.7399999999999984
 50
180.0
 51
270.0
  0
LINE
  5
F4
  8
0
  6
CONTINUOUS
 62
     7
 10
-20.44
 20
-1.6
 30
0.0
 11
-20.44
 21
-3.0
 31
0.0
  0
ARC
  5
F5
  8
0
  6
CONTINUOUS
 62
     7
 10
-19.7
 20
-1.6
 30
0.0
 40
0.739999999999999
 50
90.0
 51
180.0
  0
LINE
  5
F6
  8
0
  6
CONTINUOUS
 62
     7
 10
-27.3
 20
-0.86
 30
0.0
 11
-40.7
 21
-0.86
 31
0.0
  0
ARC
  5
F7
  8
0
  6
CONTINUOUS
 62
     7
 10
-27.3
 20
-1.6
 30
0.0
 40
0.7400000000000058
 50
0.0
 51
90.0
  0
LINE
  5
F8
  8
0
  6
CONTINUOUS
 62
     7
 10
-26.56
 20
-14.1
 30
0.0
 11
-26.56
 21
-1.6
 31
0.0
  0
ARC
  5
F9
  8
0
  6
CONTINUOUS
 62
     7
 10
-27.3
 20
-14.1
 30
0.0
 40
0.7400000000000002
 50
270.0
 51
360.0
  0
LINE
  5
FA
  8
0
  6
CONTINUOUS
 62
     7
 10
-40.7
 20
-14.84
 30
0.0
 11
-27.3
 21
-14.84
 31
0.0
  0
ARC
  5
FB
  8
0
  6
CONTINUOUS
 62
     7
 10
-40.7
 20
-14.1
 30
0.0
 40
0.740000000000002
 50
180.0
 51
270.0
  0
LINE
  5
FC
  8
0
  6
CONTINUOUS
 62
     7
 10
-41.44
 20
-1.6
 30
0.0
 11
-41.44
 21
-14.1
 31
0.0
  0
ARC
  5
FD
  8
0
  6
CONTINUOUS
 62
     7
 10
-40.7
 20
-1.6
 30
0.0
 40
0.740000000000002
=======
187
330
1F
100
AcDbEntity
  8
0
  6
Continuous
 62
     7
370
    15
100
AcDbCircle
 10
70.8127125258
 20
342.0
 30
0.0
 40
0.9999999999999858
100
AcDbArc
 50
0.0
 51
180.0
  0
ARC
  5
188
330
1F
100
AcDbEntity
  8
0
  6
Continuous
 62
     7
370
    15
100
AcDbCircle
 10
78.57
 20
356.0
 30
0.0
 40
0.6500000000000341
100
AcDbArc
 50
270.0
 51
90.0
  0
ARC
  5
189
330
1F
100
AcDbEntity
  8
0
  6
Continuous
 62
     7
370
    15
100
AcDbCircle
 10
77.27
 20
356.0
 30
0.0
 40
0.6500000000000341
100
AcDbArc
 50
90.0
 51
270.0
  0
ARC
  5
18A
330
1F
100
AcDbEntity
  8
0
  6
Continuous
 62
     7
370
    15
100
AcDbCircle
 10
78.57
 20
365.5
 30
0.0
 40
0.6500000000000341
100
AcDbArc
 50
270.0
 51
90.0
  0
ARC
  5
18B
330
1F
100
AcDbEntity
  8
0
  6
Continuous
 62
     7
370
    15
100
AcDbCircle
 10
77.27
 20
365.5
 30
0.0
 40
0.6500000000000341
100
AcDbArc
 50
90.0
 51
270.0
  0
ARC
  5
18C
330
1F
100
AcDbEntity
  8
0
  6
Continuous
 62
     7
370
    15
100
AcDbCircle
 10
90.32
 20
388.8466483264
 30
0.0
 40
2.849999999999992
100
AcDbArc
 50
301.7568638593
 51
238.2431361407
  0
ARC
  5
18D
330
1F
100
AcDbEntity
  8
0
  6
Continuous
 62
     7
370
    15
100
AcDbCircle
 10
90.32
 20
384.0
 30
0.0
 40
1.500000000000006
100
AcDbArc
 50
179.9999904693
 51
0.0000095307
  0
ARC
  5
18E
330
1F
100
AcDbEntity
  8
0
  6
Continuous
 62
     7
370
    15
100
AcDbCircle
 10
105.92
 20
361.1794919243
 30
0.0
 40
19.99999999999952
100
AcDbArc
 50
120.0
 51
180.0
  0
ARC
  5
18F
330
1F
100
AcDbEntity
  8
0
  6
Continuous
 62
     7
370
    15
100
AcDbCircle
 10
85.92
 20
288.5
 30
0.0
 40
1.000000000000171
100
AcDbArc
 50
90.0
 51
180.0
  0
ARC
  5
190
330
1F
100
AcDbEntity
  8
0
  6
Continuous
 62
     7
370
    15
100
AcDbCircle
 10
85.92
 20
286.5
 30
0.0
 40
0.9999999999999432
100
AcDbArc
 50
180.0
 51
270.0
  0
ARC
  5
191
330
1F
100
AcDbEntity
  8
0
  6
Continuous
 62
     7
370
    15
100
AcDbCircle
 10
85.92
 20
189.0
 30
0.0
 40
0.9999999999999716
100
AcDbArc
>>>>>>> 580791ae879149a2de0c38393dbcf98448d8f7c3
 50
90.0
 51
180.0
  0
<<<<<<< HEAD
LINE
  5
FE
  8
0
  6
CONTINUOUS
 62
     7
 10
-79.5319850732
 20
364.0495815434
 30
0.0
 11
-80.8122351521
 21
363.8238389124
 31
0.0
  0
ARC
  5
FF
  8
0
  6
CONTINUOUS
 62
     7
 10
-79.4295326484
 20
363.4685449691
 30
0.0
 40
0.5899999999999045
 50
280.0
 51
100.0
  0
LINE
  5
100
  8
0
  6
CONTINUOUS
 62
     7
 10
-80.6073303025
 20
362.6617657639
 30
0.0
 11
-79.3270802236
 21
362.8875083948
 31
0.0
  0
ARC
  5
101
  8
0
  6
CONTINUOUS
 62
     7
 10
-80.7097827273
 20
363.2428023381
 30
0.0
 40
0.589999999999958
 50
100.0
 51
280.0
  0
LINE
  5
102
  8
0
  6
CONTINUOUS
 62
     7
 10
-77.8823273854
 20
354.6939078898
 30
0.0
 11
-79.1625774643
 21
354.4681652588
 31
=======
ARC
  5
192
330
1F
100
AcDbEntity
  8
0
  6
Continuous
 62
     7
370
    15
100
AcDbCircle
 10
85.92
 20
187.0
 30
0.0
 40
0.9999999999999858
100
AcDbArc
 50
180.0
 51
270.0
  0
ARC
  5
193
330
1F
100
AcDbEntity
  8
0
  6
Continuous
 62
     7
370
    15
100
AcDbCircle
 10
85.92
 20
53.0
 30
0.0
 40
0.9999999999999929
100
AcDbArc
 50
90.0
 51
180.0
  0
ARC
  5
194
330
1F
100
AcDbEntity
  8
0
  6
Continuous
 62
     7
370
    15
100
AcDbCircle
 10
85.92
 20
51.0
 30
0.0
 40
1.000000000000014
100
AcDbArc
 50
180.0
 51
270.0
  0
ARC
  5
195
330
1F
100
AcDbEntity
  8
0
  6
Continuous
 62
     7
370
    15
100
AcDbCircle
 10
105.92
 20
27.8205080757
 30
0.0
 40
20.0000000000001
100
AcDbArc
 50
180.0
 51
240.0
  0
ARC
  5
196
330
1F
100
AcDbEntity
  8
0
  6
Continuous
 62
     7
370
    15
100
AcDbCircle
 10
93.92
 20
-37.5
 30
0.0
 40
1.999999999999929
100
AcDbArc
 50
270.0
 51
>>>>>>> 580791ae879149a2de0c38393dbcf98448d8f7c3
0.0
  0
ARC
  5
<<<<<<< HEAD
103
  8
0
  6
CONTINUOUS
 62
     7
 10
-77.7798749605
 20
354.1128713155
 30
0.0
 40
0.589999999999958
 50
280.0
 51
100.0
  0
LINE
  5
104
  8
0
  6
CONTINUOUS
 62
     7
 10
-78.9576726146
 20
353.3060921102
 30
0.0
 11
-77.6774225357
 21
353.5318347412
 31
0.0
  0
ARC
  5
105
  8
0
  6
CONTINUOUS
 62
     7
 10
-79.0601250395
 20
353.8871286845
 30
0.0
 40
0.589999999999958
 50
100.0
 51
280.0
  0
LINE
  5
106
  8
0
  6
CONTINUOUS
 62
     7
 10
79.3270802236
 20
362.8875083948
 30
0.0
 11
80.6073303025
 21
362.6617657639
 31
0.0
  0
ARC
  5
107
  8
0
  6
CONTINUOUS
 62
     7
 10
79.4295326484
 20
363.4685449691
 30
0.0
 40
0.5899999999999045
 50
80.0
 51
260.0
  0
LINE
  5
108
  8
0
  6
CONTINUOUS
 62
     7
 10
80.8122351521
 20
363.8238389124
 30
0.0
 11
79.5319850732
 21
364.0495815434
 31
=======
197
330
1F
100
AcDbEntity
  8
0
  6
Continuous
 62
     7
370
    15
100
AcDbCircle
 10
76.7484271247
 20
-37.5
 30
0.0
 40
2.000000000000127
100
AcDbArc
 50
225.0
 51
270.0
  0
ARC
  5
198
330
1F
100
AcDbEntity
  8
0
  6
Continuous
 62
     7
370
    15
100
AcDbCircle
 10
72.0915728753
 20
-38.5
 30
0.0
 40
2.000000000000092
100
AcDbArc
 50
45.0
 51
90.0
  0
ARC
  5
199
330
1F
100
AcDbEntity
  8
0
  6
Continuous
 62
     7
370
    15
100
AcDbCircle
 10
-72.0915728753
 20
-38.5
 30
0.0
 40
2.000000000000014
100
AcDbArc
 50
90.0
 51
135.0
  0
ARC
  5
19A
330
1F
100
AcDbEntity
  8
0
  6
Continuous
 62
     7
370
    15
100
AcDbCircle
 10
-76.7484271247
 20
-37.5
 30
0.0
 40
1.999999999999941
100
AcDbArc
 50
270.0
 51
315.0
  0
ARC
  5
19B
330
1F
100
AcDbEntity
  8
0
  6
Continuous
 62
     7
370
    15
100
AcDbCircle
 10
-93.92
 20
-37.5
 30
0.0
 40
1.999999999999979
100
AcDbArc
 50
180.0
 51
270.0
  0
ARC
  5
19C
330
1F
100
AcDbEntity
  8
0
  6
Continuous
 62
     7
370
    15
100
AcDbCircle
 10
-105.92
 20
27.8205080757
 30
0.0
 40
20.00000000000003
100
AcDbArc
 50
300.0
 51
>>>>>>> 580791ae879149a2de0c38393dbcf98448d8f7c3
0.0
  0
ARC
  5
<<<<<<< HEAD
109
  8
0
  6
CONTINUOUS
 62
     7
 10
80.7097827273
 20
363.2428023381
 30
0.0
 40
0.5899999999999019
 50
260.0
 51
80.0
  0
LINE
  5
10A
  8
0
  6
CONTINUOUS
 62
     7
 10
77.6774225357
 20
353.5318347412
 30
0.0
 11
78.9576726146
 21
353.3060921102
 31
0.0
  0
ARC
  5
10B
  8
0
  6
CONTINUOUS
 62
     7
 10
77.7798749605
 20
354.1128713155
 30
0.0
 40
0.589999999999958
 50
80.0
 51
260.0
  0
LINE
  5
10C
  8
0
  6
CONTINUOUS
 62
     7
 10
79.1625774643
 20
354.4681652588
 30
0.0
 11
77.8823273854
 21
354.6939078898
 31
0.0
  0
ARC
  5
10D
  8
0
  6
CONTINUOUS
 62
     7
 10
79.0601250395
 20
353.8871286845
 30
0.0
 40
0.5899999999999629
 50
260.0
 51
80.0
  0
LINE
  5
10E
  8
0
  6
CONTINUOUS
 62
     7
 10
-39.7
 20
302.06
 30
0.0
 11
-33.7
 21
302.06
 31
0.0
  0
LINE
  5
10F
  8
0
  6
CONTINUOUS
 62
     7
 10
-39.7
 20
321.06
 30
0.0
 11
-39.7
 21
302.06
 31
0.0
  0
LINE
  5
110
  8
0
  6
CONTINUOUS
 62
     7
 10
-33.7
 20
321.06
 30
0.0
 11
-39.7
 21
321.06
 31
0.0
  0
LINE
  5
111
  8
0
  6
CONTINUOUS
 62
     7
 10
-33.7
 20
302.06
 30
0.0
 11
-33.7
 21
321.06
 31
0.0
=======
19D
330
1F
100
AcDbEntity
  8
0
  6
Continuous
 62
     7
370
    15
100
AcDbCircle
 10
-85.92
 20
51.0
 30
0.0
 40
1.000000000000021
100
AcDbArc
 50
270.0
 51
0.0
  0
ARC
  5
19E
330
1F
100
AcDbEntity
  8
0
  6
Continuous
 62
     7
370
    15
100
AcDbCircle
 10
-85.92
 20
53.0
 30
0.0
 40
1.000000000000057
100
AcDbArc
 50
0.0
 51
90.0
  0
ARC
  5
19F
330
1F
100
AcDbEntity
  8
0
  6
Continuous
 62
     7
370
    15
100
AcDbCircle
 10
-85.92
 20
187.0
 30
0.0
 40
1.0
100
AcDbArc
 50
270.0
 51
360.0
  0
ARC
  5
1A0
330
1F
100
AcDbEntity
  8
0
  6
Continuous
 62
     7
370
    15
100
AcDbCircle
 10
-85.92
 20
189.0
 30
0.0
 40
0.999999999999929
100
AcDbArc
 50
360.0
 51
90.0
  0
ARC
  5
1A1
330
1F
100
AcDbEntity
  8
0
  6
Continuous
 62
     7
370
    15
100
AcDbCircle
 10
-85.92
 20
286.5
 30
0.0
 40
1.0
100
AcDbArc
 50
270.0
 51
0.0
  0
ARC
  5
1A2
330
1F
100
AcDbEntity
  8
0
  6
Continuous
 62
     7
370
    15
100
AcDbCircle
 10
-85.92
 20
288.5
 30
0.0
 40
1.0
100
AcDbArc
 50
360.0
 51
90.0
  0
ARC
  5
1A3
330
1F
100
AcDbEntity
  8
0
  6
Continuous
 62
     7
370
    15
100
AcDbCircle
 10
-105.92
 20
361.1794919243
 30
0.0
 40
19.9999999999999
100
AcDbArc
 50
0.0
 51
60.0
  0
ARC
  5
1A4
330
1F
100
AcDbEntity
  8
0
  6
Continuous
 62
     7
370
    15
100
AcDbCircle
 10
0.0
 20
392.0
 30
0.0
 40
3.000000000000056
100
AcDbArc
 50
56.4426902381
 51
123.5573097619
  0
ENDSEC
  0
SECTION
  2
OBJECTS
  0
DICTIONARY
  5
C
330
0
100
AcDbDictionary
281
     1
  3
ACAD_GROUP
350
D
  3
ACAD_LAYOUT
350
1A
  3
ACAD_MLINESTYLE
350
17
  3
ACAD_PLOTSETTINGS
350
19
  3
ACAD_PLOTSTYLENAME
350
E
  3
ACAD_SCALELIST
350
47
  0
DICTIONARY
  5
D
102
{ACAD_REACTORS
330
C
102
}
330
C
100
AcDbDictionary
281
     1
  0
DICTIONARY
  5
1A
102
{ACAD_REACTORS
330
C
102
}
330
C
100
AcDbDictionary
281
     1
  3
Layout1
350
1E
  3
Layout2
350
26
  3
Model
350
22
  0
DICTIONARY
  5
17
102
{ACAD_REACTORS
330
C
102
}
330
C
100
AcDbDictionary
281
     1
  3
Standard
350
18
  0
DICTIONARY
  5
19
102
{ACAD_REACTORS
330
C
102
}
330
C
100
AcDbDictionary
281
     1
  0
ACDBDICTIONARYWDFLT
  5
E
102
{ACAD_REACTORS
330
C
102
}
330
C
100
AcDbDictionary
281
     1
  3
Normal
350
F
100
AcDbDictionaryWithDefault
340
F
  0
DICTIONARY
  5
47
102
{ACAD_REACTORS
330
C
102
}
330
C
100
AcDbDictionary
281
     1
  3
A0
350
48
  3
A1
350
49
  3
A2
350
4A
  3
A3
350
4B
  3
A4
350
4C
  3
A5
350
4D
  3
A6
350
4E
  3
A7
350
4F
  3
A8
350
50
  3
A9
350
51
  3
B0
350
52
  3
B1
350
53
  3
B2
350
54
  3
B3
350
55
  3
B4
350
56
  3
B5
350
57
  3
B6
350
58
  3
B7
350
59
  3
B8
350
5A
  3
B9
350
5B
  3
C0
350
5C
  3
C1
350
5D
  3
C2
350
5E
  3
C3
350
5F
  3
C4
350
60
  3
C5
350
61
  3
C6
350
62
  3
C7
350
63
  3
C8
350
64
  3
C9
350
65
  3
D0
350
66
  3
D1
350
67
  3
D2
350
68
  0
LAYOUT
  5
1E
102
{ACAD_REACTORS
330
1A
102
}
330
1A
100
AcDbPlotSettings
  1

  2
none_device
  4

  6

 40
0.0
 41
0.0
 42
0.0
 43
0.0
 44
0.0
 45
0.0
 46
0.0
 47
0.0
 48
0.0
 49
0.0
140
0.0
141
0.0
142
1.0
143
1.0
 70
   688
 72
     1
 73
     0
 74
     5
  7

 75
    16
147
1.0
148
0.0
149
0.0
100
AcDbLayout
  1
Layout1
 70
     1
 71
     1
 10
0.0
 20
0.0
 11
420.0
 21
297.0
 12
0.0
 22
0.0
 32
0.0
 14
1.0000000000E+20
 24
1.0000000000E+20
 34
1.0000000000E+20
 15
-1.0000000000E+20
 25
-1.0000000000E+20
 35
-1.0000000000E+20
146
0.0
 13
0.0
 23
0.0
 33
0.0
 16
1.0
 26
0.0
 36
0.0
 17
0.0
 27
1.0
 37
0.0
 76
     0
330
1B
  0
LAYOUT
  5
26
102
{ACAD_REACTORS
330
1A
102
}
330
1A
100
AcDbPlotSettings
  1

  2
none_device
  4

  6

 40
0.0
 41
0.0
 42
0.0
 43
0.0
 44
0.0
 45
0.0
 46
0.0
 47
0.0
 48
0.0
 49
0.0
140
0.0
141
0.0
142
1.0
143
1.0
 70
   688
 72
     1
 73
     0
 74
     5
  7

 75
    16
147
1.0
148
0.0
149
0.0
100
AcDbLayout
  1
Layout2
 70
     1
 71
     2
 10
0.0
 20
0.0
 11
0.0
 21
0.0
 12
0.0
 22
0.0
 32
0.0
 14
0.0
 24
0.0
 34
0.0
 15
0.0
 25
0.0
 35
0.0
146
0.0
 13
0.0
 23
0.0
 33
0.0
 16
1.0
 26
0.0
 36
0.0
 17
0.0
 27
1.0
 37
0.0
 76
     0
330
23
  0
LAYOUT
  5
22
102
{ACAD_REACTORS
330
1A
102
}
330
1A
100
AcDbPlotSettings
  1

  2
none_device
  4
ANSI_A_(11.00_x_8.50_Inches)
  6

 40
6.35
 41
19.05
 42
6.35000508
 43
19.05000254
 44
279.4
 45
215.9
 46
133.34999746
 47
1.46049873
 48
0.0
 49
0.0
140
0.0
141
0.0
142
0.0193670886
143
1.0
 70
  1696
 72
     0
 73
     0
 74
     0
  7

 75
     0
147
0.0179189148
148
-1300.4909072572
149
0.0
100
AcDbLayout
  1
Model
 70
     1
 71
     0
 10
0.0
 20
0.0
 11
420.0
 21
297.0
 12
0.0
 22
0.0
 32
0.0
 14
-95.92
 24
-39.5
 34
0.0
 15
95.92
 25
395.0
 35
0.0
146
0.0
 13
0.0
 23
0.0
 33
0.0
 16
1.0
 26
0.0
 36
0.0
 17
0.0
 27
1.0
 37
0.0
 76
     0
330
1F
331
29
  0
MLINESTYLE
  5
18
102
{ACAD_REACTORS
330
17
102
}
330
17
100
AcDbMlineStyle
  2
Standard
 70
     0
  3

 62
   256
 51
90.0
 52
90.0
 71
     2
 49
0.5
 62
   256
  6
BYLAYER
 49
-0.5
 62
   256
  6
BYLAYER
  0
ACDBPLACEHOLDER
  5
F
102
{ACAD_REACTORS
330
E
102
}
330
E
  0
SCALE
  5
48
102
{ACAD_REACTORS
330
47
102
}
330
47
100
AcDbScale
 70
     0
300
1:1
140
1.0
141
1.0
290
     1
  0
SCALE
  5
49
102
{ACAD_REACTORS
330
47
102
}
330
47
100
AcDbScale
 70
     0
300
1:2
140
1.0
141
2.0
290
     0
  0
SCALE
  5
4A
102
{ACAD_REACTORS
330
47
102
}
330
47
100
AcDbScale
 70
     0
300
1:4
140
1.0
141
4.0
290
     0
  0
SCALE
  5
4B
102
{ACAD_REACTORS
330
47
102
}
330
47
100
AcDbScale
 70
     0
300
1:5
140
1.0
141
5.0
290
     0
  0
SCALE
  5
4C
102
{ACAD_REACTORS
330
47
102
}
330
47
100
AcDbScale
 70
     0
300
1:8
140
1.0
141
8.0
290
     0
  0
SCALE
  5
4D
102
{ACAD_REACTORS
330
47
102
}
330
47
100
AcDbScale
 70
     0
300
1:10
140
1.0
141
10.0
290
     0
  0
SCALE
  5
4E
102
{ACAD_REACTORS
330
47
102
}
330
47
100
AcDbScale
 70
     0
300
1:16
140
1.0
141
16.0
290
     0
  0
SCALE
  5
4F
102
{ACAD_REACTORS
330
47
102
}
330
47
100
AcDbScale
 70
     0
300
1:20
140
1.0
141
20.0
290
     0
  0
SCALE
  5
50
102
{ACAD_REACTORS
330
47
102
}
330
47
100
AcDbScale
 70
     0
300
1:30
140
1.0
141
30.0
290
     0
  0
SCALE
  5
51
102
{ACAD_REACTORS
330
47
102
}
330
47
100
AcDbScale
 70
     0
300
1:40
140
1.0
141
40.0
290
     0
  0
SCALE
  5
52
102
{ACAD_REACTORS
330
47
102
}
330
47
100
AcDbScale
 70
     0
300
1:50
140
1.0
141
50.0
290
     0
  0
SCALE
  5
53
102
{ACAD_REACTORS
330
47
102
}
330
47
100
AcDbScale
 70
     0
300
1:100
140
1.0
141
100.0
290
     0
  0
SCALE
  5
54
102
{ACAD_REACTORS
330
47
102
}
330
47
100
AcDbScale
 70
     0
300
2:1
140
2.0
141
1.0
290
     0
  0
SCALE
  5
55
102
{ACAD_REACTORS
330
47
102
}
330
47
100
AcDbScale
 70
     0
300
4:1
140
4.0
141
1.0
290
     0
  0
SCALE
  5
56
102
{ACAD_REACTORS
330
47
102
}
330
47
100
AcDbScale
 70
     0
300
8:1
140
8.0
141
1.0
290
     0
  0
SCALE
  5
57
102
{ACAD_REACTORS
330
47
102
}
330
47
100
AcDbScale
 70
     0
300
10:1
140
10.0
141
1.0
290
     0
  0
SCALE
  5
58
102
{ACAD_REACTORS
330
47
102
}
330
47
100
AcDbScale
 70
     0
300
100:1
140
100.0
141
1.0
290
     0
  0
SCALE
  5
59
102
{ACAD_REACTORS
330
47
102
}
330
47
100
AcDbScale
 70
     0
300
1/128" = 1'-0"
140
0.0078125
141
12.0
290
     0
  0
SCALE
  5
5A
102
{ACAD_REACTORS
330
47
102
}
330
47
100
AcDbScale
 70
     0
300
1/64" = 1'-0"
140
0.015625
141
12.0
290
     0
  0
SCALE
  5
5B
102
{ACAD_REACTORS
330
47
102
}
330
47
100
AcDbScale
 70
     0
300
1/32" = 1'-0"
140
0.03125
141
12.0
290
     0
  0
SCALE
  5
5C
102
{ACAD_REACTORS
330
47
102
}
330
47
100
AcDbScale
 70
     0
300
1/16" = 1'-0"
140
0.0625
141
12.0
290
     0
  0
SCALE
  5
5D
102
{ACAD_REACTORS
330
47
102
}
330
47
100
AcDbScale
 70
     0
300
3/32" = 1'-0"
140
0.09375
141
12.0
290
     0
  0
SCALE
  5
5E
102
{ACAD_REACTORS
330
47
102
}
330
47
100
AcDbScale
 70
     0
300
1/8" = 1'-0"
140
0.125
141
12.0
290
     0
  0
SCALE
  5
5F
102
{ACAD_REACTORS
330
47
102
}
330
47
100
AcDbScale
 70
     0
300
3/16" = 1'-0"
140
0.1875
141
12.0
290
     0
  0
SCALE
  5
60
102
{ACAD_REACTORS
330
47
102
}
330
47
100
AcDbScale
 70
     0
300
1/4" = 1'-0"
140
0.25
141
12.0
290
     0
  0
SCALE
  5
61
102
{ACAD_REACTORS
330
47
102
}
330
47
100
AcDbScale
 70
     0
300
3/8" = 1'-0"
140
0.375
141
12.0
290
     0
  0
SCALE
  5
62
102
{ACAD_REACTORS
330
47
102
}
330
47
100
AcDbScale
 70
     0
300
1/2" = 1'-0"
140
0.5
141
12.0
290
     0
  0
SCALE
  5
63
102
{ACAD_REACTORS
330
47
102
}
330
47
100
AcDbScale
 70
     0
300
3/4" = 1'-0"
140
0.75
141
12.0
290
     0
  0
SCALE
  5
64
102
{ACAD_REACTORS
330
47
102
}
330
47
100
AcDbScale
 70
     0
300
1" = 1'-0"
140
1.0
141
12.0
290
     0
  0
SCALE
  5
65
102
{ACAD_REACTORS
330
47
102
}
330
47
100
AcDbScale
 70
     0
300
1-1/2" = 1'-0"
140
1.5
141
12.0
290
     0
  0
SCALE
  5
66
102
{ACAD_REACTORS
330
47
102
}
330
47
100
AcDbScale
 70
     0
300
3" = 1'-0"
140
3.0
141
12.0
290
     0
  0
SCALE
  5
67
102
{ACAD_REACTORS
330
47
102
}
330
47
100
AcDbScale
 70
     0
300
6" = 1'-0"
140
6.0
141
12.0
290
     0
  0
SCALE
  5
68
102
{ACAD_REACTORS
330
47
102
}
330
47
100
AcDbScale
 70
     0
300
1'-0" = 1'-0"
140
12.0
141
12.0
290
     0
>>>>>>> 580791ae879149a2de0c38393dbcf98448d8f7c3
  0
ENDSEC
  0
EOF
